<?xml version="1.0" encoding="UTF-8"?>
<svg version="1.1" xmlns="http://www.w3.org/2000/svg" width="150" height="150">
<path d="M0 0 C4.59259132 2.29629566 6.25002393 5.60006063 8.0949707 10.27392578 C9.08065391 13.78749951 9.24322038 16.72222085 9.23046875 20.3671875 C9.22853516 21.66527344 9.22660156 22.96335937 9.22460938 24.30078125 C9.21840576 24.97061035 9.21220215 25.64043945 9.20581055 26.33056641 C9.18761255 28.3624335 9.18530094 30.39384125 9.18554688 32.42578125 C9.15672954 38.88726784 8.92104053 45.10939574 8 51.5 C7.88380564 53.99946986 7.77942941 56.49952011 7.6875 59 C7.1361669 67.28645419 5.69003162 72.33628806 -0.5625 77.875 C-4.20086401 80.7759673 -6.95732054 82.61700584 -11.625 83.1875 C-17.77146734 84.30748312 -21.35754999 87.53346225 -26 91.5 C-27.11062244 92.27113086 -28.233838 93.02482809 -29.375 93.75 C-31.95003035 95.31808433 -31.95003035 95.31808433 -33.5 97.125 C-37.30080588 100.60907206 -42.72834803 101.07587367 -47.69140625 100.93359375 C-52.07928921 100.1094736 -55.05242276 97.76840197 -58 94.5 C-59.73527642 91.61130543 -60.92110505 88.68557931 -62 85.5 C-62.4125 84.324375 -62.825 83.14875 -63.25 81.9375 C-63.4975 81.133125 -63.745 80.32875 -64 79.5 C-66.80400175 78.98347336 -69.56628305 78.52666868 -72.4140625 78.3515625 C-78.08106143 77.9920248 -81.44164633 77.16891881 -86 73.5 C-88.95779678 71.52813548 -90.07746905 71.16823342 -93.45703125 70.75390625 C-94.32263672 70.63853516 -95.18824219 70.52316406 -96.08007812 70.40429688 C-97.88967499 70.17793558 -99.69957009 69.95394472 -101.50976562 69.73242188 C-106.56867454 69.05365055 -110.53055653 68.15211604 -115 65.5 C-115.1875 63.125 -115.1875 63.125 -115 60.5 C-112 58.5 -112 58.5 -109.5625 58.5 C-107 59.5 -107 59.5 -105.328125 62.53515625 C-103.2388024 65.87907535 -103.2388024 65.87907535 -99.35546875 66.12109375 C-97.96513152 66.09066772 -96.5751912 66.02847514 -95.1875 65.9375 C-94.50107422 65.91880859 -93.81464844 65.90011719 -93.10742188 65.88085938 C-88.68365698 65.72600668 -84.36949365 65.19112253 -80 64.5 C-79.74872793 62.9409022 -79.52495542 61.37735984 -79.3125 59.8125 C-79.12107422 58.50732422 -79.12107422 58.50732422 -78.92578125 57.17578125 C-79.02043429 53.76328991 -79.96501236 52.21480769 -82 49.5 C-86.26597812 45.64114842 -91.29300705 42.8177339 -96.40234375 40.2265625 C-97.16981934 39.83629883 -97.93729492 39.44603516 -98.72802734 39.04394531 C-100.26777196 38.27294581 -101.81629639 37.51920428 -103.37353516 36.78417969 C-108.76232803 34.10865072 -108.76232803 34.10865072 -110.05859375 30.7890625 C-110 28.5 -110 28.5 -109 27.5 C-102.87224033 27.82628331 -98.4450416 30.01230065 -93.125 32.9375 C-92.30435059 33.37835938 -91.48370117 33.81921875 -90.63818359 34.2734375 C-84.17097217 37.77821682 -77.81129317 41.4640444 -71.52001953 45.27514648 C-68.08931446 47.34227947 -64.79423875 49.15223952 -61 50.5 C-60.2575 49.7575 -59.515 49.015 -58.75 48.25 C-56.5 46 -54.25 43.75 -52 41.5 C-52.7734375 40.63375 -52.7734375 40.63375 -53.5625 39.75 C-55 37.5 -55 37.5 -55.0625 35.4375 C-53.44599707 32.48975936 -51.00929725 31.78055202 -48 30.5 C-47.94581674 28.41695462 -47.90712449 26.33350232 -47.875 24.25 C-47.85179688 23.08984375 -47.82859375 21.9296875 -47.8046875 20.734375 C-47.99452463 17.59067218 -48.53218237 16.18517432 -50 13.5 C-49.78605281 7.40250508 -49.78605281 7.40250508 -47.3125 4.5625 C-44.24716836 3.15410438 -42.34404315 3.02227955 -39 3.5 C-36.0625 5.0625 -36.0625 5.0625 -34 7.5 C-34.125 10.9375 -34.125 10.9375 -35 14.5 C-35.2784375 15.9540625 -35.2784375 15.9540625 -35.5625 17.4375 C-35.706875 18.118125 -35.85125 18.79875 -36 19.5 C-32.61039381 21.3371101 -32.61039381 21.3371101 -29 22.5 C-25.69871355 21.3084595 -25.69871355 21.3084595 -23 19.5 C-22.34 19.5 -21.68 19.5 -21 19.5 C-21.39445312 18.28763672 -21.39445312 18.28763672 -21.796875 17.05078125 C-24.39073133 8.23804807 -24.39073133 8.23804807 -22.3125 4.3125 C-18.0439247 0.9668599 -14.99884649 1.48251865 -9.7265625 1.66015625 C-5.81425071 1.43034997 -3.92893909 -0.65482318 0 0 Z " fill="#B5C8D2" transform="translate(128,7.5)"/>
<path d="M0 0 C1.98 0.66 3.96 1.32 6 2 C6 1.34 6 0.68 6 0 C19.02859944 -0.56921066 19.02859944 -0.56921066 24 3 C25.01800576 4.31963709 26.02248365 5.65009646 27 7 C27.99 7 28.98 7 30 7 C31.44163842 8.72293372 32.53720446 10.56009952 33.71875 12.46875 C34.1415625 12.9740625 34.564375 13.479375 35 14 C35.99 14 36.98 14 38 14 C38.33 13.34 38.66 12.68 39 12 C39.99 12 40.98 12 42 12 C42 10.02 42 8.04 42 6 C42.66 6 43.32 6 44 6 C43.01 4.02 43.01 4.02 42 2 C43.65 1.34 45.3 0.68 47 0 C46.9475585 3.33455608 46.85235976 6.66663231 46.75 10 C46.73582031 10.93457031 46.72164063 11.86914062 46.70703125 12.83203125 C46.45477596 20.04653253 45.07957849 25.56941579 40.18359375 31.0234375 C39.60738281 31.46945313 39.03117187 31.91546875 38.4375 32.375 C37.85871094 32.83648437 37.27992187 33.29796875 36.68359375 33.7734375 C33.41869232 36.15204318 31.33761587 37.20318028 27.375 37.6875 C21.22853266 38.80748312 17.64245001 42.03346225 13 46 C11.88937756 46.77113086 10.766162 47.52482809 9.625 48.25 C7.04996965 49.81808433 7.04996965 49.81808433 5.5 51.625 C1.69919412 55.10907206 -3.72834803 55.57587367 -8.69140625 55.43359375 C-13.07928921 54.6094736 -16.05242276 52.26840197 -19 49 C-20.73527642 46.11130543 -21.92110505 43.18557931 -23 40 C-23.4125 38.824375 -23.825 37.64875 -24.25 36.4375 C-24.4975 35.633125 -24.745 34.82875 -25 34 C-27.80400175 33.48347336 -30.56628305 33.02666868 -33.4140625 32.8515625 C-40.73534626 32.38707018 -44.84364555 30.26158618 -50 25 C-48.56260487 24.97287934 -47.12506137 24.95354933 -45.6875 24.9375 C-44.48673828 24.92009766 -44.48673828 24.92009766 -43.26171875 24.90234375 C-41 25 -41 25 -38 26 C-37.34 25.34 -36.68 24.68 -36 24 C-34.01178687 23.60235737 -32.01055661 23.26224651 -30 23 C-30.144375 21.72125 -30.28875 20.4425 -30.4375 19.125 C-30.51871094 18.40570313 -30.59992187 17.68640625 -30.68359375 16.9453125 C-30.91292961 14.92595684 -30.91292961 14.92595684 -32 13 C-27.25 13.75 -27.25 13.75 -25 16 C-23.01276732 16.70381157 -21.01222047 17.3711811 -19 18 C-18.34 18.33 -17.68 18.66 -17 19 C-17 19.99 -17 20.98 -17 22 C-15.68 22.33 -14.36 22.66 -13 23 C-13 21.68 -13 20.36 -13 19 C-11 20 -9 21 -7 22 C-7.2165625 21.38511719 -7.433125 20.77023438 -7.65625 20.13671875 C-7.9346875 19.32847656 -8.213125 18.52023438 -8.5 17.6875 C-8.7784375 16.88699219 -9.056875 16.08648437 -9.34375 15.26171875 C-10 13 -10 13 -10 10 C-4.555 8.515 -4.555 8.515 1 7 C2 8 2 8 2.125 11.25 C3.17164827 15.73563545 4.32984343 16.64570744 8.078125 19 C10.63831919 20.33213356 13.2161042 21.25310113 16 22 C15.835 21.484375 15.67 20.96875 15.5 20.4375 C14.51125008 15.61734416 14.28501057 11.24217099 17 7 C17.5534764 9.07553648 18 10.84365964 18 13 C18.66 13 19.32 13 20 13 C20.33 12.34 20.66 11.68 21 11 C21.66 11 22.32 11 23 11 C23 9.35 23 7.7 23 6 C21.35 6 19.7 6 18 6 C17.505 4.515 17.505 4.515 17 3 C13.00465792 3.57076315 10.411827 4.90041415 7 7 C4.6875 7.6875 4.6875 7.6875 3 8 C0.37613513 4.93882432 0 4.26826873 0 0 Z " fill="#CB7548" transform="translate(89,53)"/>
<path d="M0 0 C6.12775967 0.32628331 10.5549584 2.51230065 15.875 5.4375 C16.69564941 5.87835938 17.51629883 6.31921875 18.36181641 6.7734375 C24.82902783 10.27821682 31.18870683 13.9640444 37.47998047 17.77514648 C40.91068554 19.84227947 44.20576125 21.65223952 48 23 C48.7425 22.2575 49.485 21.515 50.25 20.75 C51.91679687 19.08320313 53.60006375 17.43237213 55.3125 15.8125 C57.22713951 14.16877727 57.22713951 14.16877727 57 12 C59.79224194 12.3079239 62.58371427 12.62112437 65.375 12.9375 C66.1690625 13.02451172 66.963125 13.11152344 67.78125 13.20117188 C73.7734375 13.88671875 73.7734375 13.88671875 76 15 C77.35479543 14.99427148 78.70958486 14.94658281 80.0625 14.875 C85.97549776 14.817685 91.66072543 15.86713201 96.125 19.9375 C97.17693396 22.41705862 96.97113178 23.52802821 96 26 C95.79375 25.21625 95.5875 24.4325 95.375 23.625 C94.22949366 20.83378388 94.22949366 20.83378388 91.625 19.75 C86.45122843 18.6795645 81.26732202 18.32388064 76 18 C76 18.66 76 19.32 76 20 C74.35 19.67 72.7 19.34 71 19 C71.495 21.475 71.495 21.475 72 24 C73.83700789 24.77242269 73.83700789 24.77242269 76 25 C77.50014391 23.66710346 77.50014391 23.66710346 79 22 C82.73695111 20.03318362 84.9472301 19.84206574 89 21 C88.505 22.485 88.505 22.485 88 24 C89.65 24 91.3 24 93 24 C93 25.65 93 27.3 93 29 C92.34 29 91.68 29 91 29 C90.505 30.485 90.505 30.485 90 32 C88.515 31.505 88.515 31.505 87 31 C87 29.35 87 27.7 87 26 C85.95023036 29.14930893 85.89868405 31.38814456 85.9375 34.6875 C85.94652344 35.68136719 85.95554687 36.67523438 85.96484375 37.69921875 C85.97644531 38.45847656 85.98804687 39.21773437 86 40 C80.17161265 39.70858063 75.91454357 37.22284891 72 33 C71.05230182 30.46604765 71 28.75283793 71 26 C66.05 27.485 66.05 27.485 61 29 C61.59950296 32.68266103 62.24758891 36.34543185 63 40 C61 39 59 38 57 37 C57.495 39.475 57.495 39.475 58 42 C56.35 41.34 54.7 40.68 53 40 C53 39.01 53 38.02 53 37 C52.39671875 36.80664062 51.7934375 36.61328125 51.171875 36.4140625 C50.37265625 36.15367188 49.5734375 35.89328125 48.75 35.625 C47.96109375 35.36976562 47.1721875 35.11453125 46.359375 34.8515625 C44 34 44 34 40 32 C40 34.97 40 37.94 40 41 C38.88625 41.474375 37.7725 41.94875 36.625 42.4375 C34.73289006 43.25306463 32.84287291 44.07856355 31 45 C30.01 44.505 30.01 44.505 29 44 C26.43512423 43.84024995 23.87973731 43.72209459 21.3125 43.625 C0.97168132 42.64778755 0.97168132 42.64778755 -6 38 C-6.375 35.5 -6.375 35.5 -6 33 C-3 31 -3 31 -0.5625 31 C2 32 2 32 3.671875 35.03515625 C5.7611976 38.37907535 5.7611976 38.37907535 9.64453125 38.62109375 C11.03486848 38.59066772 12.4248088 38.52847514 13.8125 38.4375 C14.49892578 38.41880859 15.18535156 38.40011719 15.89257812 38.38085938 C20.31634302 38.22600668 24.63050635 37.69112253 29 37 C29.25127207 35.4409022 29.47504458 33.87735984 29.6875 32.3125 C29.87892578 31.00732422 29.87892578 31.00732422 30.07421875 29.67578125 C29.97956571 26.26328991 29.03498764 24.71480769 27 22 C22.73402188 18.14114842 17.70699295 15.3177339 12.59765625 12.7265625 C11.83018066 12.33629883 11.06270508 11.94603516 10.27197266 11.54394531 C8.73222804 10.77294581 7.18370361 10.01920428 5.62646484 9.28417969 C0.23767197 6.60865072 0.23767197 6.60865072 -1.05859375 3.2890625 C-1 1 -1 1 0 0 Z " fill="#B77D86" transform="translate(19,35)"/>
<path d="M0 0 C1.98 0.66 3.96 1.32 6 2 C6 1.34 6 0.68 6 0 C19.02859944 -0.56921066 19.02859944 -0.56921066 24 3 C25.01800576 4.31963709 26.02248365 5.65009646 27 7 C27.99 7 28.98 7 30 7 C31.44163842 8.72293372 32.53720446 10.56009952 33.71875 12.46875 C34.35296875 13.22671875 34.35296875 13.22671875 35 14 C35.99 14 36.98 14 38 14 C38.33 13.34 38.66 12.68 39 12 C39.99 12 40.98 12 42 12 C42 10.02 42 8.04 42 6 C42.66 6 43.32 6 44 6 C43.34 4.68 42.68 3.36 42 2 C43.65 1.34 45.3 0.68 47 0 C46.86116581 3.43782031 46.71272946 6.87516029 46.5625 10.3125 C46.52318359 11.28896484 46.48386719 12.26542969 46.44335938 13.27148438 C46.38051758 14.67817383 46.38051758 14.67817383 46.31640625 16.11328125 C46.27974854 16.97735596 46.24309082 17.84143066 46.20532227 18.73168945 C46 21 46 21 45 24 C41.37 24.33 37.74 24.66 34 25 C34 25.99 34 26.98 34 28 C32.58344207 28.0272415 31.16672955 28.04650467 29.75 28.0625 C28.56664063 28.07990234 28.56664063 28.07990234 27.359375 28.09765625 C25 28 25 28 23.0625 27.4921875 C20.4022591 26.85735729 17.98093447 26.98113796 15.25 27.0625 C10.10420354 27.11925511 5.9046266 26.50911588 1 25 C1 24.34 1 23.68 1 23 C0.071875 22.9071875 0.071875 22.9071875 -0.875 22.8125 C-3 22 -3 22 -4.4375 19.75 C-5 17 -5 17 -3.8125 14.25 C-2 12 -2 12 1 11 C1.185625 11.556875 1.37125 12.11375 1.5625 12.6875 C4.78780368 17.876032 10.2353581 20.45338876 16 22 C15.7525 21.2265625 15.7525 21.2265625 15.5 20.4375 C14.51125008 15.61734416 14.28501057 11.24217099 17 7 C17.5534764 9.07553648 18 10.84365964 18 13 C18.66 13 19.32 13 20 13 C20.33 12.34 20.66 11.68 21 11 C21.66 11 22.32 11 23 11 C23 9.35 23 7.7 23 6 C21.35 6 19.7 6 18 6 C17.67 5.01 17.34 4.02 17 3 C13.00465792 3.57076315 10.411827 4.90041415 7 7 C4.6875 7.6875 4.6875 7.6875 3 8 C0.37613513 4.93882432 0 4.26826873 0 0 Z " fill="#F6B16E" transform="translate(89,53)"/>
<path d="M0 0 C3.21590938 3.44440821 3.35533807 5.93289161 3.25 10.5625 C3.23453125 11.69816406 3.2190625 12.83382813 3.203125 14.00390625 C3 17 3 17 2 20 C2.66 20 3.32 20 4 20 C5.50156874 23.00313748 5.09281204 25.79067522 5.0625 29.125 C5.05347656 30.40632813 5.04445312 31.68765625 5.03515625 33.0078125 C5.02355469 33.99523438 5.01195312 34.98265625 5 36 C5.66 33.69 6.32 31.38 7 29 C7.66 29 8.32 29 9 29 C9.25 35.625 9.25 35.625 7 39 C6.01 39.66 5.02 40.32 4 41 C4.33 41.99 4.66 42.98 5 44 C4.34 44 3.68 44 3 44 C3 45.98 3 47.96 3 50 C2.34 50 1.68 50 1 50 C0.67 50.66 0.34 51.32 0 52 C-2.0625 52.625 -2.0625 52.625 -4 53 C-5.20276695 51.59627198 -6.38680519 50.17647903 -7.5625 48.75 C-8.22378906 47.96109375 -8.88507813 47.1721875 -9.56640625 46.359375 C-11 44 -11 44 -10.71484375 41.703125 C-10.47894531 41.14109375 -10.24304688 40.5790625 -10 40 C-10.66 40 -11.32 40 -12 40 C-12.391875 38.80375 -12.78375 37.6075 -13.1875 36.375 C-14.92342288 31.72107341 -17.39597908 27.30201046 -22 25 C-21.875 23.125 -21.875 23.125 -21 21 C-17.9375 19.75 -17.9375 19.75 -15 19 C-15 23 -15 23 -16 25 C-14.34385343 25.38218767 -12.67542976 25.71395102 -11 26 C-10.67 25.67 -10.34 25.34 -10 25 C-10.99 24.67 -11.98 24.34 -13 24 C-12.34 23.67 -11.68 23.34 -11 23 C-10.236875 23.78375 -9.47375 24.5675 -8.6875 25.375 C-6.09108195 28.07257717 -6.09108195 28.07257717 -3 30 C-4.84567968 25.29351683 -6.74890242 21.92373846 -10 18 C-10 17.34 -10 16.68 -10 16 C-10.66 16 -11.32 16 -12 16 C-15 12.53846154 -15 12.53846154 -15 10 C-14.32453125 9.84144531 -13.6490625 9.68289062 -12.953125 9.51953125 C-7.46884607 8.08505945 -4.02558262 7.13033575 -1 2 C-0.67 1.34 -0.34 0.68 0 0 Z " fill="#F8C67C" transform="translate(128,15)"/>
<path d="M0 0 C4.5986448 2.2993224 6.13857895 5.64794475 8.25 10.1875 C10.02960591 18.04742609 8.95973262 26.11638395 8.1875 34.0625 C8.08260254 35.25987793 8.08260254 35.25987793 7.97558594 36.48144531 C7.75763017 38.50209499 7.38897564 40.50519981 7 42.5 C6.01 43.16 5.02 43.82 4 44.5 C4 38.89 4 33.28 4 27.5 C3.34 27.5 2.68 27.5 2 27.5 C2.02320313 26.36820313 2.04640625 25.23640625 2.0703125 24.0703125 C2.08906901 22.58854825 2.10726934 21.10677688 2.125 19.625 C2.14175781 18.87863281 2.15851563 18.13226562 2.17578125 17.36328125 C2.1933959 15.40805539 2.10320189 13.45257979 2 11.5 C1.34 10.84 0.68 10.18 0 9.5 C-0.70125 10.44875 -1.4025 11.3975 -2.125 12.375 C-4.73406514 15.50883461 -6.95224079 16.63877464 -11 17.5 C-12.32 17.5 -13.64 17.5 -15 17.5 C-14.505 18.11875 -14.01 18.7375 -13.5 19.375 C-12 21.5 -12 21.5 -12 23.5 C-11.34 23.5 -10.68 23.5 -10 23.5 C-8.30859375 25.51171875 -8.30859375 25.51171875 -6.4375 28.1875 C-5.81746094 29.05761719 -5.19742188 29.92773438 -4.55859375 30.82421875 C-3.01657102 33.471551 -2.39649402 35.48555914 -2 38.5 C-5.81684226 36.94499019 -8.19195732 34.46404505 -11 31.5 C-11 32.49 -11 33.48 -11 34.5 C-12.98 33.84 -14.96 33.18 -17 32.5 C-16.34 31.51 -15.68 30.52 -15 29.5 C-14.01 29.5 -13.02 29.5 -12 29.5 C-13.1241176 28.20756532 -14.24932592 26.91607925 -15.375 25.625 C-16.00148438 24.90570313 -16.62796875 24.18640625 -17.2734375 23.4453125 C-18.47426834 22.0923402 -19.7208345 20.7791655 -21 19.5 C-22.47280182 15.57446129 -23.51657267 11.66747701 -24 7.5 C-22.28580007 4.2620668 -21.21832678 3.10916339 -18 1.5 C-15.23681915 1.46929799 -12.48816031 1.5671105 -9.7265625 1.66015625 C-5.81425071 1.43034997 -3.92893909 -0.65482318 0 0 Z " fill="#707E97" transform="translate(128,7.5)"/>
<path d="M0 0 C2.79224194 0.3079239 5.58371427 0.62112437 8.375 0.9375 C9.1690625 1.02451172 9.963125 1.11152344 10.78125 1.20117188 C16.7734375 1.88671875 16.7734375 1.88671875 19 3 C20.35479543 2.99427148 21.70958486 2.94658281 23.0625 2.875 C28.97549776 2.817685 34.66072543 3.86713201 39.125 7.9375 C40.17693396 10.41705862 39.97113178 11.52802821 39 14 C38.79375 13.21625 38.5875 12.4325 38.375 11.625 C37.22949366 8.83378388 37.22949366 8.83378388 34.625 7.75 C29.45122843 6.6795645 24.26732202 6.32388064 19 6 C19 6.66 19 7.32 19 8 C16.525 7.505 16.525 7.505 14 7 C14.33 8.65 14.66 10.3 15 12 C16.83700789 12.77242269 16.83700789 12.77242269 19 13 C20.50014391 11.66710346 20.50014391 11.66710346 22 10 C25.73695111 8.03318362 27.9472301 7.84206574 32 9 C31.67 9.99 31.34 10.98 31 12 C32.65 12 34.3 12 36 12 C36 13.65 36 15.3 36 17 C35.34 17 34.68 17 34 17 C33.505 18.485 33.505 18.485 33 20 C32.01 19.67 31.02 19.34 30 19 C30 17.35 30 15.7 30 14 C28.95023036 17.14930893 28.89868405 19.38814456 28.9375 22.6875 C28.94652344 23.68136719 28.95554687 24.67523438 28.96484375 25.69921875 C28.97644531 26.45847656 28.98804687 27.21773437 29 28 C23.17161265 27.70858063 18.91454357 25.22284891 15 21 C14.05230182 18.46604765 14 16.75283793 14 14 C12.948125 14.33 11.89625 14.66 10.8125 15 C7.61126643 15.83966782 5.2588992 16.19750904 2 16 C1.67 15.01 1.34 14.02 1 13 C6.75 10 6.75 10 9 10 C9.66 8.02 10.32 6.04 11 4 C3.95792295 4.7187807 3.95792295 4.7187807 -3 6 C-2.505 5.38125 -2.01 4.7625 -1.5 4.125 C0.19222773 2.16119096 0.19222773 2.16119096 0 0 Z " fill="#AA7781" transform="translate(76,47)"/>
<path d="M0 0 C0 1.98 0 3.96 0 6 C-0.33 5.01 -0.66 4.02 -1 3 C-3.26725953 4.46274809 -4.74991319 5.44623634 -5.875 7.9375 C-6.03470965 10.57270919 -5.49127394 11.83765278 -4 14 C-3.01 14.33 -2.02 14.66 -1 15 C-1 15.66 -1 16.32 -1 17 C3.81931472 17.75597094 8.36882881 18.02560778 13.25 17.9375 C19.6769651 17.86984774 25.71209455 18.73108935 32 20 C32 19.01 32 18.02 32 17 C34.97 16.34 37.94 15.68 41 15 C41.495 16.485 41.495 16.485 42 18 C40.0625 20.6875 40.0625 20.6875 38 23 C37.01 22.67 36.02 22.34 35 22 C35 20.68 35 19.36 35 18 C34.34 18 33.68 18 33 18 C33.495 19.98 33.495 19.98 34 22 C32.41676312 22.027193 30.83338938 22.04648306 29.25 22.0625 C27.92742187 22.07990234 27.92742187 22.07990234 26.578125 22.09765625 C24 22 24 22 21.90625 21.46484375 C19.23073476 20.81241278 16.8301797 21.41834508 14.140625 21.796875 C6.59174358 22.51319221 -0.75896786 20.1606881 -7 16 C-5.83605821 19.25903702 -4.88372396 20.07441666 -1.875 22 C-0.92625 22.66 0.0225 23.32 1 24 C1 25.32 1 26.64 1 28 C-2.95820859 27.43454163 -5.6659053 26.19097652 -9 24 C-9 24.66 -9 25.32 -9 26 C-13.29500117 25.52277765 -15.24620428 23.16686508 -18 20 C-19.44119165 17.71555792 -20.70485265 15.37443681 -22 13 C-22.97201131 11.64612711 -23.95884159 10.30144802 -25 9 C-22.83125748 9.50603992 -21.00032373 9.99983813 -19 11 C-19 11.99 -19 12.98 -19 14 C-17.68 14.33 -16.36 14.66 -15 15 C-15 13.68 -15 12.36 -15 11 C-13 12 -11 13 -9 14 C-9.2165625 13.38511719 -9.433125 12.77023438 -9.65625 12.13671875 C-9.9346875 11.32847656 -10.213125 10.52023438 -10.5 9.6875 C-10.7784375 8.88699219 -11.056875 8.08648437 -11.34375 7.26171875 C-12 5 -12 5 -12 2 C-10.56656 1.46809459 -9.12804633 0.94984742 -7.6875 0.4375 C-6.88699219 0.14746094 -6.08648437 -0.14257812 -5.26171875 -0.44140625 C-3 -1 -3 -1 0 0 Z " fill="#E18F5F" transform="translate(91,61)"/>
<path d="M0 0 C3.21590938 3.44440821 3.35533807 5.93289161 3.25 10.5625 C3.23453125 11.69816406 3.2190625 12.83382813 3.203125 14.00390625 C3 17 3 17 2 20 C2.66 20 3.32 20 4 20 C5.50156874 23.00313748 5.09281204 25.79067522 5.0625 29.125 C5.05347656 30.40632813 5.04445312 31.68765625 5.03515625 33.0078125 C5.02355469 33.99523438 5.01195312 34.98265625 5 36 C5.66 33.69 6.32 31.38 7 29 C7.66 29 8.32 29 9 29 C9.25 35.625 9.25 35.625 7 39 C6.01 39.66 5.02 40.32 4 41 C4 41.99 4 42.98 4 44 C3.34 43.67 2.68 43.34 2 43 C2 41.80375 2 40.6075 2 39.375 C1.47591619 32.60558418 -2.93490862 27.60753548 -6.75 22.2578125 C-9 19 -9 19 -10 16 C-10.66 16 -11.32 16 -12 16 C-15 12.53846154 -15 12.53846154 -15 10 C-14.32453125 9.84144531 -13.6490625 9.68289062 -12.953125 9.51953125 C-7.46884607 8.08505945 -4.02558262 7.13033575 -1 2 C-0.67 1.34 -0.34 0.68 0 0 Z " fill="#F4BC78" transform="translate(128,15)"/>
<path d="M0 0 C1.66675781 0.32484375 1.66675781 0.32484375 3.3671875 0.65625 C11.34506821 2.1653849 18.842877 3.38843443 27 3 C27 3.99 27 4.98 27 6 C31.64586892 5.51515724 31.64586892 5.51515724 36 4 C35.64937903 6.79892257 35.26525128 7.7838889 33.0390625 9.59765625 C32.24242187 10.08105469 31.44578125 10.56445312 30.625 11.0625 C27.71596544 12.84866617 25.39222324 14.5805924 23 17 C18.19278961 19.17469042 13.20941529 19.85011331 8 19 C5.4375 17 5.4375 17 4 15 C4.66 14.34 5.32 13.68 6 13 C5.67 12.01 5.34 11.02 5 10 C6.4375 7.8125 6.4375 7.8125 8 6 C6.2984375 5.3503125 6.2984375 5.3503125 4.5625 4.6875 C3.386875 4.130625 2.21125 3.57375 1 3 C0.67 2.01 0.34 1.02 0 0 Z " fill="#DD8C5C" transform="translate(70,89)"/>
<path d="M0 0 C2.4375 1.375 2.4375 1.375 3.5 3.75 C3.4375 6.375 3.4375 6.375 1.875 8.5625 C-2.17070044 11.57084136 -5.55427223 12.375 -10.5625 12.375 C-10.0675 12.99375 -9.5725 13.6125 -9.0625 14.25 C-7.5625 16.375 -7.5625 16.375 -7.5625 18.375 C-6.9025 18.375 -6.2425 18.375 -5.5625 18.375 C-3.87109375 20.38671875 -3.87109375 20.38671875 -2 23.0625 C-1.37996094 23.93261719 -0.75992188 24.80273438 -0.12109375 25.69921875 C1.42092898 28.346551 2.04100598 30.36055914 2.4375 33.375 C-1.37934226 31.81999019 -3.75445732 29.33904505 -6.5625 26.375 C-6.5625 27.365 -6.5625 28.355 -6.5625 29.375 C-8.5425 28.715 -10.5225 28.055 -12.5625 27.375 C-11.9025 26.385 -11.2425 25.395 -10.5625 24.375 C-9.5725 24.375 -8.5825 24.375 -7.5625 24.375 C-8.6866176 23.08256532 -9.81182592 21.79107925 -10.9375 20.5 C-11.56398438 19.78070313 -12.19046875 19.06140625 -12.8359375 18.3203125 C-14.03676834 16.9673402 -15.2833345 15.6541655 -16.5625 14.375 C-17.484375 11.625 -17.484375 11.625 -18.3125 8.375 C-18.59609375 7.3025 -18.8796875 6.23 -19.171875 5.125 C-19.30078125 4.2175 -19.4296875 3.31 -19.5625 2.375 C-18.9025 1.715 -18.2425 1.055 -17.5625 0.375 C-15.5 0.5625 -15.5 0.5625 -13.5625 1.375 C-13.2325 2.365 -12.9025 3.355 -12.5625 4.375 C-10.68862784 5.17712628 -10.68862784 5.17712628 -8.5 5.5625 C-7.76652344 5.72105469 -7.03304687 5.87960938 -6.27734375 6.04296875 C-5.71144531 6.15253906 -5.14554688 6.26210938 -4.5625 6.375 C-4.5625 4.395 -4.5625 2.415 -4.5625 0.375 C-2.5625 -0.625 -2.5625 -0.625 0 0 Z " fill="#7C8498" transform="translate(123.5625,12.625)"/>
<path d="M0 0 C1.98 0.66 3.96 1.32 6 2 C6 1.34 6 0.68 6 0 C14.57897332 -0.37480951 20.09673701 -0.38282793 26.8125 5.4375 C29.95577188 9.11961849 30.13219474 12.01075774 30.0625 16.75 C30.05347656 17.54921875 30.04445313 18.3484375 30.03515625 19.171875 C30.02355469 19.77515625 30.01195313 20.3784375 30 21 C20.58997722 23.48063781 20.58997722 23.48063781 16 22 C14.57757257 17.55491427 14.21203281 12.92067002 16 8.5625 C16.33 8.046875 16.66 7.53125 17 7 C17.5534764 9.07553648 18 10.84365964 18 13 C18.66 13 19.32 13 20 13 C20.33 12.34 20.66 11.68 21 11 C21.66 11 22.32 11 23 11 C23 9.35 23 7.7 23 6 C21.35 6 19.7 6 18 6 C17.67 5.01 17.34 4.02 17 3 C13.00465792 3.57076315 10.411827 4.90041415 7 7 C4.6875 7.6875 4.6875 7.6875 3 8 C0.37613513 4.93882432 0 4.26826873 0 0 Z " fill="#B76965" transform="translate(89,53)"/>
<path d="M0 0 C2.9375 1.5625 2.9375 1.5625 5 4 C4.87369313 7.47343905 4.16078716 10.41044707 3.25 13.75 C3.1675 14.4925 3.085 15.235 3 16 C4.39588754 17.64594139 4.39588754 17.64594139 6 19 C6 19.99 6 20.98 6 22 C6.598125 22.268125 7.19625 22.53625 7.8125 22.8125 C9.97224808 23.98493467 11.35790256 25.19369282 13 27 C6.92056821 26.66544007 3.38430186 23.78205465 -1.25 20.1875 C-2.32894531 19.38602539 -2.32894531 19.38602539 -3.4296875 18.56835938 C-9.49836091 13.94866698 -9.49836091 13.94866698 -11 10 C-10.78605281 3.90250508 -10.78605281 3.90250508 -8.3125 1.0625 C-5.24716836 -0.34589562 -3.34404315 -0.47772045 0 0 Z " fill="#839DB9" transform="translate(89,11)"/>
<path d="M0 0 C0.33 0.99 0.66 1.98 1 3 C-2.19668988 5.6486859 -5.39486597 7.93992341 -9 10 C-8.71125 10.639375 -8.4225 11.27875 -8.125 11.9375 C-6.6752275 15.88410292 -5.84221938 19.8874607 -5 24 C-5.598125 23.690625 -6.19625 23.38125 -6.8125 23.0625 C-9.08956772 21.89790296 -9.08956772 21.89790296 -12 21 C-12.2165625 20.0409375 -12.2165625 20.0409375 -12.4375 19.0625 C-12.623125 18.381875 -12.80875 17.70125 -13 17 C-13.66 16.67 -14.32 16.34 -15 16 C-15.66 15.67 -16.32 15.34 -17 15 C-17.625 12.9375 -17.625 12.9375 -18 11 C-18.66 10.67 -19.32 10.34 -20 10 C-19.69701433 7.19738258 -19.43999396 5.47666012 -17.5 3.375 C-11.77604113 0.22682262 -6.50421696 -1.83452273 0 0 Z " fill="#8D96AC" transform="translate(87,51)"/>
<path d="M0 0 C4.06402139 0.52393307 6.13633304 1.59729777 9.125 4.375 C9.78757812 4.98085937 10.45015625 5.58671875 11.1328125 6.2109375 C11.74898437 6.80132812 12.36515625 7.39171875 13 8 C13.83917969 8.76570313 13.83917969 8.76570313 14.6953125 9.546875 C16 11 16 11 16.75 13.875 C18.29073987 17.72684967 20.11797503 18.8621516 23.5390625 21.01953125 C24.02117187 21.34308594 24.50328125 21.66664062 25 22 C25 22.33 25 22.66 25 23 C18.17440737 22.77981959 14.1475913 21.27230108 8.44140625 17.56640625 C5.08648219 15.41388697 1.58871724 13.72790089 -2 12 C-0.68 11.34 0.64 10.68 2 10 C1.855625 8.72125 1.71125 7.4425 1.5625 6.125 C1.48128906 5.40570313 1.40007813 4.68640625 1.31640625 3.9453125 C1.08707039 1.92595684 1.08707039 1.92595684 0 0 Z " fill="#AC5A64" transform="translate(57,66)"/>
<path d="M0 0 C1.76447796 3.52895592 0.89520056 7.57085524 0.6875 11.4375 C0.65205078 12.30955078 0.61660156 13.18160156 0.58007812 14.08007812 C0.53689453 14.91861328 0.49371094 15.75714844 0.44921875 16.62109375 C0.41143311 17.3886499 0.37364746 18.15620605 0.3347168 18.94702148 C0 21 0 21 -2 24 C-2.33 23.01 -2.66 22.02 -3 21 C-2.67 20.34 -2.34 19.68 -2 19 C-3.79236067 19.47656412 -5.58386897 19.95633498 -7.375 20.4375 C-8.37273437 20.70433594 -9.37046875 20.97117187 -10.3984375 21.24609375 C-12.95417701 21.90184356 -12.95417701 21.90184356 -15 23 C-15.99 22.34 -16.98 21.68 -18 21 C-17.34 21 -16.68 21 -16 21 C-16.66 16.05 -17.32 11.1 -18 6 C-13 11 -13 11 -11.3125 12.8125 C-10.04781729 14.22363777 -10.04781729 14.22363777 -8 14 C-7.67 13.34 -7.34 12.68 -7 12 C-6.01 12 -5.02 12 -4 12 C-4 10.02 -4 8.04 -4 6 C-3.34 6 -2.68 6 -2 6 C-2.66 4.68 -3.32 3.36 -4 2 C-2.68 1.34 -1.36 0.68 0 0 Z " fill="#E39261" transform="translate(135,53)"/>
<path d="M0 0 C3.465 1.98 3.465 1.98 7 4 C6.79375 5.2375 6.5875 6.475 6.375 7.75 C5.95022546 11.13623085 5.9142297 13.14578802 8 16 C8.66 16.66 9.32 17.32 10 18 C9.01 18 8.02 18 7 18 C7.33 18.99 7.66 19.98 8 21 C3.99634744 23.00182628 -0.74981025 22.34579716 -4.9375 21.1875 C-7 20 -7 20 -8 17 C-6.35380776 15.18918854 -5.27783702 14.09682199 -2.9375 13.28125 C-0.68063589 12.11314517 -0.68063589 12.11314517 -0.390625 9.1796875 C-0.34421875 8.08914062 -0.2978125 6.99859375 -0.25 5.875 C-0.19328125 4.77929688 -0.1365625 3.68359375 -0.078125 2.5546875 C-0.05234375 1.71164063 -0.0265625 0.86859375 0 0 Z " fill="#ACD9EB" transform="translate(81,26)"/>
<path d="M0 0 C2.5625 1 2.5625 1 4 4.0625 C6.25103713 7.32302872 6.25103713 7.32302872 9.609375 7.2890625 C12.07484934 7.22028317 14.5398249 7.13112888 17.00390625 7.0234375 C23.23909099 6.98237152 28.8955291 8.73885265 33.5625 13 C32.9025 13.33 32.2425 13.66 31.5625 14 C30.9025 13.67 30.2425 13.34 29.5625 13 C26.99762423 12.84024995 24.44223731 12.72209459 21.875 12.625 C1.53418132 11.64778755 1.53418132 11.64778755 -5.4375 7 C-5.8125 4.5 -5.8125 4.5 -5.4375 2 C-2.4375 0 -2.4375 0 0 0 Z " fill="#D5B8A6" transform="translate(18.4375,66)"/>
<path d="M0 0 C2.475 0.495 2.475 0.495 5 1 C5 1.99 5 2.98 5 4 C7.97065509 3.65772428 7.97065509 3.65772428 11 3 C11.33 2.34 11.66 1.68 12 1 C12 1.99 12 2.98 12 4 C12.66 4 13.32 4 14 4 C15.50156874 7.00313748 15.09281204 9.79067522 15.0625 13.125 C15.05347656 14.40632813 15.04445312 15.68765625 15.03515625 17.0078125 C15.02355469 17.99523437 15.01195312 18.98265625 15 20 C15.99 16.535 15.99 16.535 17 13 C17.66 13 18.32 13 19 13 C19.25 19.625 19.25 19.625 17 23 C16.01 23.66 15.02 24.32 14 25 C14 25.99 14 26.98 14 28 C13.34 27.67 12.68 27.34 12 27 C12 25.80375 12 24.6075 12 23.375 C11.47591619 16.60558418 7.06509138 11.60753548 3.25 6.2578125 C1 3 1 3 0 0 Z " fill="#C8A7A3" transform="translate(118,31)"/>
<path d="M0 0 C4.88449692 4.66247433 4.88449692 4.66247433 5.1953125 8.26171875 C5.17210937 9.06222656 5.14890625 9.86273438 5.125 10.6875 C5.10695312 11.49574219 5.08890625 12.30398437 5.0703125 13.13671875 C5.04710937 13.75160156 5.02390625 14.36648437 5 15 C5.66 15.33 6.32 15.66 7 16 C6.67 17.98 6.34 19.96 6 22 C5.34 22 4.68 22 4 22 C3.67 22.66 3.34 23.32 3 24 C0.9375 24.625 0.9375 24.625 -1 25 C-2.20276695 23.59627198 -3.38680519 22.17647903 -4.5625 20.75 C-5.22378906 19.96109375 -5.88507813 19.1721875 -6.56640625 18.359375 C-8 16 -8 16 -7.71484375 13.703125 C-7.47894531 13.14109375 -7.24304688 12.5790625 -7 12 C-7.66 12 -8.32 12 -9 12 C-9.66 9.69 -10.32 7.38 -11 5 C-10.34 5 -9.68 5 -9 5 C-8.4740625 6.423125 -8.4740625 6.423125 -7.9375 7.875 C-6.2285659 11.34336062 -6.2285659 11.34336062 -2.3125 12.375 C-1.219375 12.58125 -0.12625 12.7875 1 13 C2.31716987 9.04849038 1.19076223 6.92251089 0 3 C0 2.01 0 1.02 0 0 Z " fill="#F2B170" transform="translate(125,43)"/>
<path d="M0 0 C4.59123652 0.43313552 6.8680851 0.67725703 10 4 C11.23712022 4.79775975 12.50423815 5.55033946 13.79296875 6.26171875 C14.50517578 6.65810547 15.21738281 7.05449219 15.95117188 7.46289062 C16.68916016 7.86701172 17.42714844 8.27113281 18.1875 8.6875 C18.93708984 9.10322266 19.68667969 9.51894531 20.45898438 9.94726562 C22.30348466 10.96937725 24.1514131 11.9852981 26 13 C26 13.66 26 14.32 26 15 C26.99 15 27.98 15 29 15 C29 15.66 29 16.32 29 17 C29.886875 17.2475 30.77375 17.495 31.6875 17.75 C35.10427135 19.03934768 37.2797748 20.59980129 40 23 C39.67 23.66 39.34 24.32 39 25 C37.72554546 24.57316368 36.45554118 24.13302798 35.1875 23.6875 C34.47980469 23.44386719 33.77210937 23.20023438 33.04296875 22.94921875 C31 22 31 22 29.6640625 20.62890625 C27.20122278 18.21809835 24.22052024 16.820197 21.1875 15.25 C20.53257568 14.90582031 19.87765137 14.56164063 19.20288086 14.20703125 C12.51654432 10.70973536 5.7675789 7.33686479 -1 4 C-0.67 2.68 -0.34 1.36 0 0 Z " fill="#ABC6D1" transform="translate(21,36)"/>
<path d="M0 0 C-2.09779416 4.39800706 -4.16701487 7.14744877 -8.6875 9.25 C-12.8509749 10.19267356 -16.75944015 10.69200787 -21 10 C-23.5625 8 -23.5625 8 -25 6 C-18.52331185 -0.47668815 -8.56443499 -0.53807969 0 0 Z " fill="#F8C67C" transform="translate(99,98)"/>
<path d="M0 0 C3.89608498 1.48904175 7.59097018 3.24378713 11.3125 5.125 C12.38113281 5.66382812 13.44976562 6.20265625 14.55078125 6.7578125 C15.76314453 7.37269531 15.76314453 7.37269531 17 8 C13.76554435 10.15630377 13.49769802 10.22379117 9.9375 9.6875 C7.41486694 9.32594999 4.94351414 8.99660746 2.3984375 8.84375 C-4.83505981 8.40668068 -8.91561853 6.18814436 -14 1 C-12.56260487 0.97287934 -11.12506137 0.95354933 -9.6875 0.9375 C-8.48673828 0.92009766 -8.48673828 0.92009766 -7.26171875 0.90234375 C-5 1 -5 1 -2 2 C-1.34 1.34 -0.68 0.68 0 0 Z " fill="#CB8B7C" transform="translate(53,77)"/>
<path d="M0 0 C-0.66 0.928125 -1.32 1.85625 -2 2.8125 C-4.83095472 7.6570211 -4.35445159 12.55522975 -4 18 C-12.44646925 13.96127563 -12.44646925 13.96127563 -16 11 C-15.6999825 7.49979578 -15.04266259 6.05095809 -12.75 3.3125 C-8.37985764 -0.36239244 -5.57857223 -1.59387778 0 0 Z " fill="#CEDADF" transform="translate(108,56)"/>
<path d="M0 0 C4.06921267 1.5071158 6.79860056 4.33375958 9 8 C9.8125 11.875 9.8125 11.875 10 15 C10.66 15 11.32 15 12 15 C11.67 16.65 11.34 18.3 11 20 C10.34 19.01 9.68 18.02 9 17 C5.39457139 12.04253566 0.67200941 11.91806563 -5 11 C-9.2601579 10.22259892 -11.07091069 8.17318009 -14 5 C-13.67 4.01 -13.34 3.02 -13 2 C-12.1028125 2.99 -12.1028125 2.99 -11.1875 4 C-9.12498166 6.3373846 -9.12498166 6.3373846 -6 6 C-5.34 5.01 -4.68 4.02 -4 3 C-3.01 3.66 -2.02 4.32 -1 5 C-0.01 4.67 0.98 4.34 2 4 C1.34 2.68 0.68 1.36 0 0 Z " fill="#D4ACA3" transform="translate(106,40)"/>
<path d="M0 0 C0.66 0 1.32 0 2 0 C2.33 1.32 2.66 2.64 3 4 C2.01 4.33 1.02 4.66 0 5 C0.98043644 7.55020625 1.66474346 8.78825903 4.00390625 10.265625 C10.84596857 12.89799096 16.83825561 13.34659213 24.07250977 13.02832031 C28.23346125 12.86440842 31.26011916 13.10806028 35 15 C35 15.66 35 16.32 35 17 C33.58344207 17.0272415 32.16672955 17.04650467 30.75 17.0625 C29.56664063 17.07990234 29.56664063 17.07990234 28.359375 17.09765625 C26 17 26 17 24.0625 16.4921875 C21.4022591 15.85735729 18.98093447 15.98113796 16.25 16.0625 C11.10420354 16.11925511 6.9046266 15.50911588 2 14 C2 13.34 2 12.68 2 12 C1.38125 11.938125 0.7625 11.87625 0.125 11.8125 C-2 11 -2 11 -3.4375 8.75 C-4 6 -4 6 -2.6875 3.25 C-1 1 -1 1 0 0 Z " fill="#EDA263" transform="translate(88,64)"/>
<path d="M0 0 C2.60925777 0.9466368 3.9419399 2.22428979 5.87109375 4.20703125 C6.79148437 5.13322266 6.79148437 5.13322266 7.73046875 6.078125 C9.12109375 7.76953125 9.12109375 7.76953125 9.12109375 9.76953125 C8.46109375 9.76953125 7.80109375 9.76953125 7.12109375 9.76953125 C6.46109375 9.10953125 5.80109375 8.44953125 5.12109375 7.76953125 C2.57395971 7.77875827 2.57395971 7.77875827 0.12109375 8.76953125 C-1.0521109 10.7717067 -1.0521109 10.7717067 -1.87890625 12.76953125 C-3.53117394 11.67501635 -5.17554923 10.56857955 -6.81640625 9.45703125 C-7.73292969 8.84214844 -8.64945312 8.22726563 -9.59375 7.59375 C-11.87890625 5.76953125 -11.87890625 5.76953125 -12.87890625 2.76953125 C-11.80640625 2.64578125 -10.73390625 2.52203125 -9.62890625 2.39453125 C-6.03798361 1.99191757 -6.03798361 1.99191757 -3.69140625 0.64453125 C-1.87890625 -0.23046875 -1.87890625 -0.23046875 0 0 Z " fill="#E3C5AD" transform="translate(106.87890625,27.23046875)"/>
<path d="M0 0 C0.66 0.99 1.32 1.98 2 3 C5.56769552 3.73606499 5.56769552 3.73606499 9 4 C9.33 3.34 9.66 2.68 10 2 C10.66 2.66 11.32 3.32 12 4 C11.814375 4.804375 11.62875 5.60875 11.4375 6.4375 C11.2209375 7.7059375 11.2209375 7.7059375 11 9 C12.39588754 10.64594139 12.39588754 10.64594139 14 12 C14 12.99 14 13.98 14 15 C14.598125 15.268125 15.19625 15.53625 15.8125 15.8125 C17.97224808 16.98493467 19.35790256 18.19369282 21 20 C14.91469141 19.66458929 11.33950475 16.77280302 6.6875 13.1875 C5.95982422 12.65318359 5.23214844 12.11886719 4.48242188 11.56835938 C-0.74597259 7.60686385 -0.74597259 7.60686385 -1.83666992 5.0012207 C-2 3 -2 3 0 0 Z " fill="#6F7B94" transform="translate(81,18)"/>
<path d="M0 0 C0.55300781 0.29648438 1.10601562 0.59296875 1.67578125 0.8984375 C10.5550203 5.10674911 19.47996172 6.01940206 29 4 C29.66 4.33 30.32 4.66 31 5 C32.54023996 5.06950541 34.08334988 5.08452357 35.625 5.0625 C36.44226563 5.05347656 37.25953125 5.04445313 38.1015625 5.03515625 C38.72804687 5.02355469 39.35453125 5.01195313 40 5 C40 4.01 40 3.02 40 2 C40.66 2 41.32 2 42 2 C42.495 4.475 42.495 4.475 43 7 C38.45699761 9.72580143 34.89047526 8.63313152 30.01171875 7.5078125 C29.34785156 7.34023437 28.68398437 7.17265625 28 7 C28.99 8.485 28.99 8.485 30 10 C29.32195312 9.8453125 28.64390625 9.690625 27.9453125 9.53125 C23.38650083 8.70897097 18.79887406 8.55469022 14.1796875 8.28125 C11 8 11 8 8 7 C7.01 7 6.02 7 5 7 C2.3125 4.625 2.3125 4.625 0 2 C0 1.34 0 0.68 0 0 Z " fill="#D38050" transform="translate(84,77)"/>
<path d="M0 0 C0.33 0.99 0.66 1.98 1 3 C-4.86780691 5.98245505 -10.33165376 8.07048992 -17 8 C-17.66 7.67 -18.32 7.34 -19 7 C-17.97445179 4.16781745 -17.29876045 3.16256083 -14.609375 1.69921875 C-5.11678554 -1.65949801 -5.11678554 -1.65949801 0 0 Z " fill="#B7C1C8" transform="translate(87,51)"/>
<path d="M0 0 C1.7015625 0.32484375 1.7015625 0.32484375 3.4375 0.65625 C4.9582643 0.93787302 6.47910162 1.21910196 8 1.5 C8.74378906 1.64308594 9.48757812 1.78617187 10.25390625 1.93359375 C15.25220015 2.84632568 19.91920316 3.13856719 25 3 C21.06915563 5.62056292 17.19107175 6.20964364 12.6171875 7.21875 C11.75351563 7.4765625 10.88984375 7.734375 10 8 C9.67 8.66 9.34 9.32 9 10 C10.98 9.67 12.96 9.34 15 9 C12.83965128 11.48440102 11.29683798 12.58789525 8 13 C7.01 12.67 6.02 12.34 5 12 C6.875 7.125 6.875 7.125 8 6 C6.2984375 5.3503125 6.2984375 5.3503125 4.5625 4.6875 C3.386875 4.130625 2.21125 3.57375 1 3 C0.67 2.01 0.34 1.02 0 0 Z " fill="#D48252" transform="translate(70,89)"/>
<path d="M0 0 C2.16874252 0.50603992 3.99967627 0.99983813 6 2 C6 2.99 6 3.98 6 5 C7.32 5.33 8.64 5.66 10 6 C10 4.68 10 3.36 10 2 C13.875 3.75 13.875 3.75 15 6 C14.01 6.495 14.01 6.495 13 7 C13 8.32 13 9.64 13 11 C13.99 11.33 14.98 11.66 16 12 C16.33 12.99 16.66 13.98 17 15 C16.67 15.66 16.34 16.32 16 17 C11.70499883 16.52277765 9.75379572 14.16686508 7 11 C5.55880835 8.71555792 4.29514735 6.37443681 3 4 C2.02798869 2.64612711 1.04115841 1.30144802 0 0 Z " fill="#D68664" transform="translate(66,70)"/>
<path d="M0 0 C0.99 0.33 1.98 0.66 3 1 C3 1.66 3 2.32 3 3 C3.66 3 4.32 3 5 3 C6.69140625 5.01171875 6.69140625 5.01171875 8.5625 7.6875 C9.49255859 8.99267578 9.49255859 8.99267578 10.44140625 10.32421875 C11.98342898 12.971551 12.60350598 14.98555914 13 18 C9.18315774 16.44499019 6.80804268 13.96404505 4 11 C4 11.99 4 12.98 4 14 C2.02 13.34 0.04 12.68 -2 12 C-1.34 11.01 -0.68 10.02 0 9 C0.99 9 1.98 9 3 9 C1.35 6.69 -0.3 4.38 -2 2 C-1.34 2 -0.68 2 0 2 C0 1.34 0 0.68 0 0 Z " fill="#B06A6C" transform="translate(113,28)"/>
<path d="M0 0 C2.97219295 2.84296717 3.9146899 4.21799074 4.375 8.4375 C4.25125 9.613125 4.1275 10.78875 4 12 C1.5 13.9375 1.5 13.9375 -1 15 C-1 14.34 -1 13.68 -1 13 C-1.99 12.67 -2.98 12.34 -4 12 C-4 11.01 -4 10.02 -4 9 C-4.99 9 -5.98 9 -7 9 C-7.33 9.66 -7.66 10.32 -8 11 C-7.88637738 9.5199159 -7.75877092 8.04089926 -7.625 6.5625 C-7.55539063 5.73878906 -7.48578125 4.91507813 -7.4140625 4.06640625 C-7.27742188 3.38449219 -7.14078125 2.70257813 -7 2 C-6.34 1.67 -5.68 1.34 -5 1 C-5 2.98 -5 4.96 -5 7 C-4.34 7 -3.68 7 -3 7 C-2.67 6.34 -2.34 5.68 -2 5 C-1.34 5 -0.68 5 0 5 C0 3.35 0 1.7 0 0 Z " fill="#2B141D" transform="translate(112,59)"/>
<path d="M0 0 C1.2065625 0.0309375 1.2065625 0.0309375 2.4375 0.0625 C0.9525 1.5475 0.9525 1.5475 -0.5625 3.0625 C1.00256354 6.19262708 3.70442654 6.81577048 6.8125 8.3125 C8.09062072 8.93590957 9.36795584 9.56093215 10.64453125 10.1875 C11.60286865 10.65736328 11.60286865 10.65736328 12.58056641 11.13671875 C18.67960859 14.17741925 24.61102019 17.53130012 30.4375 21.0625 C30.1075 21.7225 29.7775 22.3825 29.4375 23.0625 C25.31532559 21.83003566 22.05294249 20.35103123 18.5 17.9375 C15.21771823 15.76440311 11.94063049 13.76533532 8.42578125 12 C7.4037561 11.48397217 7.4037561 11.48397217 6.36108398 10.95751953 C5.0150623 10.28731591 3.66175325 9.63151712 2.30102539 8.99169922 C-2.3379859 6.66886487 -2.3379859 6.66886487 -3.5546875 3.3828125 C-3.55726562 2.61710937 -3.55984375 1.85140625 -3.5625 1.0625 C-2.5625 0.0625 -2.5625 0.0625 0 0 Z " fill="#8397B2" transform="translate(21.5625,34.9375)"/>
<path d="M0 0 C2.4375 2.5625 2.4375 2.5625 4 5 C2.02 5.99 2.02 5.99 0 7 C-0.33 6.34 -0.66 5.68 -1 5 C-1.66 5 -2.32 5 -3 5 C-3.99 6.485 -3.99 6.485 -5 8 C-7.375 7.75 -7.375 7.75 -10 7 C-11.3125 4.9375 -11.3125 4.9375 -12 3 C-7.98183315 -1.20081079 -5.78021975 -1.39522546 0 0 Z " fill="#B2CAD3" transform="translate(105,39)"/>
<path d="M0 0 C2.4375 1.375 2.4375 1.375 3.5 3.75 C3.4375 6.375 3.4375 6.375 2 8.5625 C-1.36634288 10.94357179 -4.42793509 12.13692525 -8.5625 12.375 C-12 11.1875 -12 11.1875 -14.5625 9.375 C-14.8925 8.385 -15.2225 7.395 -15.5625 6.375 C-14.5725 6.705 -13.5825 7.035 -12.5625 7.375 C-11.06312972 7.41846001 -9.56196695 7.41498579 -8.0625 7.375 C-5.10325767 7.29608687 -3.42910758 7.41946414 -0.5625 8.375 C-0.5625 7.385 -0.5625 6.395 -0.5625 5.375 C-1.5525 5.87 -1.5525 5.87 -2.5625 6.375 C-3.2225 6.045 -3.8825 5.715 -4.5625 5.375 C-4.5625 3.725 -4.5625 2.075 -4.5625 0.375 C-2.5625 -0.625 -2.5625 -0.625 0 0 Z " fill="#737481" transform="translate(123.5625,12.625)"/>
<path d="M0 0 C2.04795423 1.9626228 2.94976638 3.4277307 3.19921875 6.26953125 C3.18861506 8.51397837 3.09892461 10.75770893 3 13 C0.03 13 -2.94 13 -6 13 C-6.66 11.68 -7.32 10.36 -8 9 C-6.8553125 8.1646875 -6.8553125 8.1646875 -5.6875 7.3125 C-3.03859112 5.03320631 -1.61711178 3.06400128 0 0 Z " fill="#EEEDEB" transform="translate(128,15)"/>
<path d="M0 0 C0.33 0.66 0.66 1.32 1 2 C1.66 2 2.32 2 3 2 C3 2.99 3 3.98 3 5 C2.34 5 1.68 5 1 5 C1 5.66 1 6.32 1 7 C2.32 7.33 3.64 7.66 5 8 C4.67 8.66 4.34 9.32 4 10 C-2.00279781 11.47437139 -5.1804586 10.94570137 -10.53125 7.91015625 C-11.0159375 7.60980469 -11.500625 7.30945313 -12 7 C-12 6.67 -12 6.34 -12 6 C-11.43410156 5.89042969 -10.86820313 5.78085938 -10.28515625 5.66796875 C-9.18494141 5.43013672 -9.18494141 5.43013672 -8.0625 5.1875 C-7.33160156 5.03667969 -6.60070313 4.88585937 -5.84765625 4.73046875 C-5.23792969 4.48941406 -4.62820312 4.24835938 -4 4 C-3.67 3.01 -3.34 2.02 -3 1 C-2.01 0.67 -1.02 0.34 0 0 Z " fill="#8B97AE" transform="translate(53,67)"/>
<path d="M0 0 C3.63 1.98 7.26 3.96 11 6 C10.67 7.65 10.34 9.3 10 11 C9.96227087 12.9996441 9.95350094 15.00054061 10 17 C7.525 16.01 7.525 16.01 5 15 C5 14.34 5 13.68 5 13 C5.66 13 6.32 13 7 13 C7 12.01 7 11.02 7 10 C4.03 9.505 4.03 9.505 1 9 C0.67 10.32 0.34 11.64 0 13 C-1.39422419 10.21155162 -0.69586669 7.96567945 -0.25390625 4.97265625 C0.06382987 2.83557926 0.06382987 2.83557926 0 0 Z " fill="#788098" transform="translate(49,59)"/>
<path d="M0 0 C7.42309859 -0.48676056 7.42309859 -0.48676056 10 1.6875 C11.13489245 4.3119388 11.23590819 6.16910178 11 9 C8.36 8.67 5.72 8.34 3 8 C2.67 6.68 2.34 5.36 2 4 C0.68 4 -0.64 4 -2 4 C-1.34 2.68 -0.68 1.36 0 0 Z " fill="#829EBA" transform="translate(108,10)"/>
<path d="M0 0 C-0.66 0.66 -1.32 1.32 -2 2 C-2.66 1.67 -3.32 1.34 -4 1 C-7.568439 0.80052204 -11.13032404 0.65423735 -14.703125 0.5703125 C-19.01948568 0.39108645 -21.78814632 0.21185368 -25 -3 C-16.64911113 -7.17544443 -7.63797952 -4.20088874 0 0 Z " fill="#D5B7A8" transform="translate(52,78)"/>
<path d="M0 0 C4.75 1.875 4.75 1.875 7 3 C7 3.66 7 4.32 7 5 C7.99 5 8.98 5 10 5 C10 5.66 10 6.32 10 7 C10.886875 7.2475 11.77375 7.495 12.6875 7.75 C16.10427135 9.03934768 18.2797748 10.59980129 21 13 C20.67 13.66 20.34 14.32 20 15 C18.72554546 14.57316368 17.45554118 14.13302798 16.1875 13.6875 C15.47980469 13.44386719 14.77210937 13.20023438 14.04296875 12.94921875 C12 12 12 12 10.625 10.59375 C8.32143357 8.33448293 5.70699724 7.21306318 2.8125 5.8125 C1.72582031 5.28269531 0.63914063 4.75289062 -0.48046875 4.20703125 C-1.31191406 3.80871094 -2.14335938 3.41039062 -3 3 C-2.01 2.34 -1.02 1.68 0 1 C0 0.67 0 0.34 0 0 Z " fill="#BEBFC4" transform="translate(40,46)"/>
<path d="M0 0 C2.54074441 0.98747419 3.78701723 1.66409198 5.265625 3.99609375 C8.14915673 11.14771015 9.67838596 18.36842348 6.9765625 25.82421875 C6.65429688 26.54222656 6.33203125 27.26023437 6 28 C5.67 28 5.34 28 5 28 C4.94392578 26.54980469 4.94392578 26.54980469 4.88671875 25.0703125 C4.49294538 17.27205565 3.71911029 10.38888666 1 3 C0.67 2.01 0.34 1.02 0 0 Z " fill="#95A3B7" transform="translate(129,9)"/>
<path d="M0 0 C1.20217503 2.40435006 1.03897118 3.68381369 0.87890625 6.3515625 C0.83056641 7.20234375 0.78222656 8.053125 0.73242188 8.9296875 C0.64831055 10.26386719 0.64831055 10.26386719 0.5625 11.625 C0.51029297 12.5221875 0.45808594 13.419375 0.40429688 14.34375 C0.2744565 16.56284012 0.13948661 18.78149871 0 21 C-0.33 19.68 -0.66 18.36 -1 17 C-2.32 17 -3.64 17 -5 17 C-4.67 13.37 -4.34 9.74 -4 6 C-3.34 6 -2.68 6 -2 6 C-2.66 4.68 -3.32 3.36 -4 2 C-2.68 1.34 -1.36 0.68 0 0 Z " fill="#89737B" transform="translate(135,53)"/>
<path d="M0 0 C0.66 0.99 1.32 1.98 2 3 C3.91957248 5.20750836 5.63653593 6.38691399 8.1875 7.9375 C9.115625 8.618125 10.04375 9.29875 11 10 C11 11.32 11 12.64 11 14 C5.31131434 13.3498645 2.41886312 10.53087863 -1.375 6.4375 C-2.179375 5.2309375 -2.179375 5.2309375 -3 4 C-2.67 3.01 -2.34 2.02 -2 1 C-1.34 0.67 -0.68 0.34 0 0 Z " fill="#ECA062" transform="translate(81,75)"/>
<path d="M0 0 C1.8125 2.625 1.8125 2.625 1.625 4.9375 C1.356875 5.494375 1.08875 6.05125 0.8125 6.625 C0.60625 5.84125 0.4 5.0575 0.1875 4.25 C-0.95800634 1.45878388 -0.95800634 1.45878388 -3.5625 0.375 C-8.73627157 -0.6954355 -13.92017798 -1.05111936 -19.1875 -1.375 C-19.1875 -0.715 -19.1875 -0.055 -19.1875 0.625 C-20.8375 0.295 -22.4875 -0.035 -24.1875 -0.375 C-17.47206555 -6.55319969 -6.8849759 -5.12998204 0 0 Z " fill="#B67984" transform="translate(114.1875,54.375)"/>
<path d="M0 0 C1.21236328 0.23396484 1.21236328 0.23396484 2.44921875 0.47265625 C3.51785156 0.66730469 4.58648437 0.86195312 5.6875 1.0625 C7.27111328 1.35833984 7.27111328 1.35833984 8.88671875 1.66015625 C11.91159216 1.99034946 14.07980511 1.77474558 17 1 C13.23170617 4.898235 10.4539836 7.09196066 5.0625 8 C1.67888729 8.57159068 -0.99429049 9.32628705 -4 11 C-2.63016497 7.83884224 -2.0109362 7.0072908 1 5 C3.6875 4.875 3.6875 4.875 6 5 C5.195625 4.54625 4.39125 4.0925 3.5625 3.625 C1 2 1 2 0 0 Z " fill="#996864" transform="translate(111,83)"/>
<path d="M0 0 C0.99 0.33 1.98 0.66 3 1 C3.69658363 2.65438613 4.36096883 4.32254318 5 6 C5.9793879 7.02019573 6.97895449 8.02149805 8 9 C9.25 11 9.25 11 10 13 C9.67 13.99 9.34 14.98 9 16 C7.68 15.34 6.36 14.68 5 14 C5 13.01 5 12.02 5 11 C4.030625 10.731875 3.06125 10.46375 2.0625 10.1875 C1.051875 9.795625 0.04125 9.40375 -1 9 C-1.33 8.01 -1.66 7.02 -2 6 C-1.34 5.34 -0.68 4.68 0 4 C0 3.01 0 2.02 0 1 C0 0.67 0 0.34 0 0 Z " fill="#AD5D67" transform="translate(67,61)"/>
<path d="M0 0 C2.475 0.99 2.475 0.99 5 2 C5.9972465 4.70681194 6.17615364 6.33453068 5.4375 9.125 C5.293125 9.74375 5.14875 10.3625 5 11 C5.99 12.485 5.99 12.485 7 14 C4.69 13.67 2.38 13.34 0 13 C0 8.71 0 4.42 0 0 Z " fill="#EEEEEC" transform="translate(82,27)"/>
<path d="M0 0 C3.30423507 0.53946695 4.79139857 1.05419846 7.0625 3.5 C7.0625 4.82 7.0625 6.14 7.0625 7.5 C2.24311476 7.73509196 -1.40048506 6.95184478 -5.9375 5.5 C-3.74971198 0.63824885 -3.74971198 0.63824885 0 0 Z " fill="#ACD3E4" transform="translate(85.9375,10.5)"/>
<path d="M0 0 C2.79310605 0.28110489 5.58398875 0.57436052 8.375 0.875 C9.1690625 0.95363281 9.963125 1.03226563 10.78125 1.11328125 C16.7734375 1.7734375 16.7734375 1.7734375 19 4 C17 6 17 6 13.875 6.125 C12.92625 6.08375 11.9775 6.0425 11 6 C11 5.34 11 4.68 11 4 C3.95792295 4.7187807 3.95792295 4.7187807 -3 6 C-2.505 5.38125 -2.01 4.7625 -1.5 4.125 C0.19222773 2.16119096 0.19222773 2.16119096 0 0 Z " fill="#8E90A6" transform="translate(76,47)"/>
<path d="M0 0 C0.33 0 0.66 0 1 0 C1.33 3.3 1.66 6.6 2 10 C2.33 10 2.66 10 3 10 C3.23433319 15.74116324 3.02996747 20.5867534 1 26 C0.34 26.33 -0.32 26.66 -1 27 C-1 21.39 -1 15.78 -1 10 C-1.66 10 -2.32 10 -3 10 C-2.67 9.01 -2.34 8.02 -2 7 C-1.67 7 -1.34 7 -1 7 C-0.67 4.69 -0.34 2.38 0 0 Z " fill="#9A7584" transform="translate(133,25)"/>
<path d="M0 0 C2.97 0.495 2.97 0.495 6 1 C6 2.65 6 4.3 6 6 C5.34 6 4.68 6 4 6 C3.67 6.99 3.34 7.98 3 9 C2.01 8.67 1.02 8.34 0 8 C0 6.35 0 4.7 0 3 C-1.04976964 6.14930893 -1.10131595 8.38814456 -1.0625 11.6875 C-1.05347656 12.68136719 -1.04445313 13.67523438 -1.03515625 14.69921875 C-1.02355469 15.45847656 -1.01195313 16.21773437 -1 17 C-2.32 16.67 -3.64 16.34 -5 16 C-4.67 15.34 -4.34 14.68 -4 14 C-3.67 14 -3.34 14 -3 14 C-3.03480469 13.40832031 -3.06960937 12.81664063 -3.10546875 12.20703125 C-3.27563175 7.2398924 -3.16855209 4.09271311 0 0 Z " fill="#9C838B" transform="translate(106,58)"/>
<path d="M0 0 C3.89608498 1.48904175 7.59097018 3.24378713 11.3125 5.125 C12.38113281 5.66382812 13.44976562 6.20265625 14.55078125 6.7578125 C15.76314453 7.37269531 15.76314453 7.37269531 17 8 C14 10 14 10 11.73828125 9.7578125 C10.93777344 9.54898438 10.13726562 9.34015625 9.3125 9.125 C8.50425781 8.92132813 7.69601563 8.71765625 6.86328125 8.5078125 C5.94095703 8.25644531 5.94095703 8.25644531 5 8 C5.66 7.34 6.32 6.68 7 6 C4.03 5.01 1.06 4.02 -2 3 C-1.34 2.01 -0.68 1.02 0 0 Z " fill="#AE7F89" transform="translate(53,77)"/>
<path d="M0 0 C1.98 0.66 3.96 1.32 6 2 C6.33 1.34 6.66 0.68 7 0 C9.31 0.66 11.62 1.32 14 2 C10.82341155 5.17658845 7.43568763 7.17857636 3 8 C0.37613513 4.93882432 0 4.26826873 0 0 Z " fill="#23161A" transform="translate(89,53)"/>
<path d="M0 0 C0 1.98 0 3.96 0 6 C-0.33 5.01 -0.66 4.02 -1 3 C-1.55429688 3.34933594 -2.10859375 3.69867188 -2.6796875 4.05859375 C-3.40414062 4.51363281 -4.12859375 4.96867187 -4.875 5.4375 C-5.59429687 5.88996094 -6.31359375 6.34242187 -7.0546875 6.80859375 C-9 8 -9 8 -11 9 C-11.33 6.69 -11.66 4.38 -12 2 C-10.56656 1.46809459 -9.12804633 0.94984742 -7.6875 0.4375 C-6.48673828 0.00244141 -6.48673828 0.00244141 -5.26171875 -0.44140625 C-3 -1 -3 -1 0 0 Z " fill="#DB8A5C" transform="translate(91,61)"/>
<path d="M0 0 C5.06869398 1.47639529 9.33439906 3.69445228 13.875 6.3125 C14.57882813 6.71331787 15.28265625 7.11413574 16.0078125 7.52709961 C20.74595295 10.23891726 25.41335426 13.03779129 30 16 C29.34 16.66 28.68 17.32 28 18 C26.02 17.01 24.04 16.02 22 15 C22 14.34 22 13.68 22 13 C21.01 13 20.02 13 19 13 C19 12.34 19 11.68 19 11 C18.32582031 10.75507812 17.65164062 10.51015625 16.95703125 10.2578125 C13.35909286 8.72738164 10.06123937 6.84156692 6.6875 4.875 C6.04232422 4.50246094 5.39714844 4.12992188 4.73242188 3.74609375 C3.15324055 2.83367787 1.57638136 1.91724491 0 1 C0 0.67 0 0.34 0 0 Z " fill="#8694AF" transform="translate(28,38)"/>
<path d="M0 0 C2.97 0.495 2.97 0.495 6 1 C4.68 3.31 3.36 5.62 2 8 C2.99 8.33 3.98 8.66 5 9 C4.01 9.99 3.02 10.98 2 12 C0.68 11.34 -0.64 10.68 -2 10 C-2.25 3.375 -2.25 3.375 0 0 Z " fill="#CC794C" transform="translate(73,93)"/>
<path d="M0 0 C2.33944736 0.28730055 4.6739143 0.61936779 7 1 C7.50559908 2.43554025 8.0042749 3.8735202 8.5 5.3125 C8.7784375 6.11300781 9.056875 6.91351563 9.34375 7.73828125 C10 10 10 10 10 13 C6.57989428 11.60285043 5.19304276 10.19037182 3.375 7 C2.01413543 4.6423238 0.93908889 2.93908889 -1 1 C-0.67 0.67 -0.34 0.34 0 0 Z " fill="#CAB1AD" transform="translate(72,62)"/>
<path d="M0 0 C0.66 0 1.32 0 2 0 C2.33 0.99 2.66 1.98 3 3 C4.79008467 3.22151549 6.58218162 3.42682213 8.375 3.625 C9.37273437 3.74101562 10.37046875 3.85703125 11.3984375 3.9765625 C12.25695312 3.98429687 13.11546875 3.99203125 14 4 C14.66 3.34 15.32 2.68 16 2 C15.67 3.65 15.34 5.3 15 7 C13.083412 7.02712153 11.1667127 7.04645097 9.25 7.0625 C7.64898437 7.07990234 7.64898437 7.07990234 6.015625 7.09765625 C3.46631499 7.01510087 1.42066409 6.74617558 -1 6 C-0.67 4.02 -0.34 2.04 0 0 Z " fill="#667F9F" transform="translate(108,14)"/>
<path d="M0 0 C0.66 0 1.32 0 2 0 C2.33 1.65 2.66 3.3 3 5 C-1.54300239 7.72580143 -5.10952474 6.63313152 -9.98828125 5.5078125 C-10.98408203 5.25644531 -10.98408203 5.25644531 -12 5 C-11.01 6.485 -11.01 6.485 -10 8 C-11.65 7.67 -13.3 7.34 -15 7 C-15 5.68 -15 4.36 -15 3 C-11.25 1.875 -11.25 1.875 -9 3 C-7.45976004 3.06950541 -5.91665012 3.08452357 -4.375 3.0625 C-3.55773437 3.05347656 -2.74046875 3.04445313 -1.8984375 3.03515625 C-1.27195312 3.02355469 -0.64546875 3.01195313 0 3 C0 2.01 0 1.02 0 0 Z " fill="#CE794A" transform="translate(124,79)"/>
<path d="M0 0 C5.75 3.625 5.75 3.625 8 7 C7.66906957 9.79155827 6.79958861 12.29028304 6 15 C2.4912116 11.15704127 0 5.25312804 0 0 Z " fill="#9F6160" transform="translate(65,87)"/>
<path d="M0 0 C2.64 1.65 5.28 3.3 8 5 C6.3125 7.0625 6.3125 7.0625 4 9 C1.3125 8.875 1.3125 8.875 -1 8 C-2 6 -2 6 -1.0625 2.875 C-0.5365625 1.451875 -0.5365625 1.451875 0 0 Z " fill="#F1C68A" transform="translate(88,31)"/>
<path d="M0 0 C1.828125 0.22265625 1.828125 0.22265625 4 1 C5.484375 2.99609375 5.484375 2.99609375 6.75 5.4375 C7.39195313 6.64212891 7.39195313 6.64212891 8.046875 7.87109375 C9 10 9 10 9 12 C4.25 11.125 4.25 11.125 2 10 C1.71073053 7.97511372 1.42727846 5.94755984 1.24609375 3.91015625 C1.09593122 1.91747967 1.09593122 1.91747967 0 0 Z " fill="#6F4B52" transform="translate(57,66)"/>
<path d="M0 0 C0.33 1.98 0.66 3.96 1 6 C-2.875 5.125 -2.875 5.125 -4 4 C-5.32 4.99 -6.64 5.98 -8 7 C-8.37125 6.525625 -8.7425 6.05125 -9.125 5.5625 C-11.62646962 3.47794198 -13.81593418 3.35378509 -17 3 C-17 2.67 -17 2.34 -17 2 C-16.25234375 2.02320313 -15.5046875 2.04640625 -14.734375 2.0703125 C-13.74953125 2.08835937 -12.7646875 2.10640625 -11.75 2.125 C-10.77546875 2.14820313 -9.8009375 2.17140625 -8.796875 2.1953125 C-5.48144448 1.96378802 -3.18716971 0 0 0 Z " fill="#777E91" transform="translate(127,7)"/>
<path d="M0 0 C0.99 0 1.98 0 3 0 C3.33 0.99 3.66 1.98 4 3 C6.91765 4.9451 8.62537285 5.45276317 12 6 C12 6.33 12 6.66 12 7 C8.37 7.33 4.74 7.66 1 8 C0.26919734 6.02253397 -0.39421747 4.01927511 -1 2 C-0.67 1.34 -0.34 0.68 0 0 Z " fill="#BC6A53" transform="translate(105,68)"/>
<path d="M0 0 C2.37381759 0.96436339 3.55391129 1.6814219 5 3.8125 C4.6875 6.5 4.6875 6.5 4 8.8125 C4.5775 9.15023437 5.155 9.48796875 5.75 9.8359375 C6.4925 10.28195313 7.235 10.72796875 8 11.1875 C8.7425 11.62835938 9.485 12.06921875 10.25 12.5234375 C10.8275 12.94882813 11.405 13.37421875 12 13.8125 C12 14.4725 12 15.1325 12 15.8125 C7.99152627 14.43816615 4.97274504 12.86782129 2 9.8125 C1.1875 6.0625 1.1875 6.0625 1 2.8125 C-0.98 3.1425 -2.96 3.4725 -5 3.8125 C-5 3.1525 -5 2.4925 -5 1.8125 C-2 -0.1875 -2 -0.1875 0 0 Z " fill="#AA695F" transform="translate(89,58.1875)"/>
<path d="M0 0 C4.75 0.75 4.75 0.75 7 3 C6.01 3 5.02 3 4 3 C4.33 3.99 4.66 4.98 5 6 C1.78548731 7.60725635 -1.43612536 7.05748185 -5 7 C-1.125 2.125 -1.125 2.125 0 1 C0 0.67 0 0.34 0 0 Z " fill="#A5D7EA" transform="translate(84,41)"/>
<path d="M0 0 C0.33 0.66 0.66 1.32 1 2 C3.12576782 2.46651207 3.12576782 2.46651207 5.5625 2.625 C6.38878906 2.69976563 7.21507812 2.77453125 8.06640625 2.8515625 C8.70449219 2.90054687 9.34257812 2.94953125 10 3 C9.67 4.32 9.34 5.64 9 7 C8.67 6.34 8.34 5.68 8 5 C6.00718243 4.74286225 4.01170139 4.49163848 2.0078125 4.34375 C0 4 0 4 -3 2 C-3 3.32 -3 4.64 -3 6 C-3.66 6 -4.32 6 -5 6 C-8 2.53846154 -8 2.53846154 -8 0 C-4.97878489 -0.97110486 -2.99536737 -1.13617383 0 0 Z " fill="#E3C5AC" transform="translate(121,25)"/>
<path d="M0 0 C0.5775 0.804375 1.155 1.60875 1.75 2.4375 C3.98126893 4.97866739 4.74456771 5.65120368 8 6 C8.33 5.34 8.66 4.68 9 4 C9.33 5.98 9.66 7.96 10 10 C9.01 10 8.02 10 7 10 C5.66018514 10.3062434 4.32488113 10.63451555 3 11 C2.49384702 9.73160474 1.99530901 8.46016898 1.5 7.1875 C1.2215625 6.47980469 0.943125 5.77210937 0.65625 5.04296875 C0 3 0 3 0 0 Z " fill="#EEA363" transform="translate(119,61)"/>
<path d="M0 0 C0 1.98 0 3.96 0 6 C-0.66 6 -1.32 6 -2 6 C-2 6.66 -2 7.32 -2 8 C-2.66 8 -3.32 8 -4 8 C-4.66 7.01 -5.32 6.02 -6 5 C-6.66 4.67 -7.32 4.34 -8 4 C-8 3.01 -8 2.02 -8 1 C-5.10765685 0.17361624 -3.11257569 0 0 0 Z " fill="#B7CCD7" transform="translate(132,35)"/>
<path d="M0 0 C0.33 0.66 0.66 1.32 1 2 C3.02463255 2.65213292 3.02463255 2.65213292 5 3 C5 3.66 5 4.32 5 5 C5.598125 5.268125 6.19625 5.53625 6.8125 5.8125 C8.97224808 6.98493467 10.35790256 8.19369282 12 10 C5.53501551 9.83423117 1.69564198 5.99651306 -3 2 C-2.01 1.34 -1.02 0.68 0 0 Z " fill="#AB767C" transform="translate(90,28)"/>
<path d="M0 0 C0.33 0.99 0.66 1.98 1 3 C-0.98 4.32 -2.96 5.64 -5 7 C-5.33 6.34 -5.66 5.68 -6 5 C-9.3 5 -12.6 5 -16 5 C-16 4.67 -16 4.34 -16 4 C-13.36 4 -10.72 4 -8 4 C-8 3.34 -8 2.68 -8 2 C-6.2984375 1.7834375 -6.2984375 1.7834375 -4.5625 1.5625 C-1.19222799 1.38828522 -1.19222799 1.38828522 0 0 Z " fill="#E8A46F" transform="translate(105,93)"/>
<path d="M0 0 C6.635438 0.82942975 12.41810493 4.51131558 18 8 C17.67 8.66 17.34 9.32 17 10 C12.56473186 8.69047721 9.00013681 6.95266332 5.125 4.4375 C4.15820312 3.81746094 3.19140625 3.19742188 2.1953125 2.55859375 C1.47085938 2.04425781 0.74640625 1.52992187 0 1 C0 0.67 0 0.34 0 0 Z " fill="#8F93A8" transform="translate(34,48)"/>
<path d="M0 0 C2.475 0.495 2.475 0.495 5 1 C5 1.99 5 2.98 5 4 C7.97065509 3.65772428 7.97065509 3.65772428 11 3 C11.33 2.34 11.66 1.68 12 1 C12 1.99 12 2.98 12 4 C10.02 4.33 8.04 4.66 6 5 C6.7734375 6.423125 6.7734375 6.423125 7.5625 7.875 C8.036875 8.90625 8.51125 9.9375 9 11 C8.67 11.66 8.34 12.32 8 13 C6.66094733 11.2126038 5.32890934 9.41995047 4 7.625 C3.2575 6.62726562 2.515 5.62953125 1.75 4.6015625 C0 2 0 2 0 0 Z " fill="#D9AEA4" transform="translate(118,31)"/>
<path d="M0 0 C0 0.99 0 1.98 0 3 C-3.3 3.66 -6.6 4.32 -10 5 C-10 5.66 -10 6.32 -10 7 C-10.66 7 -11.32 7 -12 7 C-11.67 5.35 -11.34 3.7 -11 2 C-7.17679443 0.57741188 -4.08718695 -0.24042276 0 0 Z " fill="#AFCCD8" transform="translate(83,51)"/>
<path d="M0 0 C-0.99 1.485 -0.99 1.485 -2 3 C-2 3.66 -2 4.32 -2 5 C-1.01 5.33 -0.02 5.66 1 6 C1 6.66 1 7.32 1 8 C1.66 8 2.32 8 3 8 C2.67 8.66 2.34 9.32 2 10 C0.34773231 8.9054851 -1.29664298 7.7990483 -2.9375 6.6875 C-3.85402344 6.07261719 -4.77054687 5.45773438 -5.71484375 4.82421875 C-8 3 -8 3 -9 0 C-2.25 -1.125 -2.25 -1.125 0 0 Z " fill="#CFA39D" transform="translate(103,30)"/>
<path d="M0 0 C5.32011893 -0.34886026 5.32011893 -0.34886026 8 0 C10 1.875 10 1.875 11 4 C11 4.66 11 5.32 11 6 C8.13275314 5.42655063 7.1385485 5.1385485 5 3 C1.40320934 3.32326553 1.40320934 3.32326553 -2 4 C-1.34 2.68 -0.68 1.36 0 0 Z " fill="#AACCDC" transform="translate(108,10)"/>
<path d="M0 0 C0.763125 0.66 1.52625 1.32 2.3125 2 C4.84277939 4.29850538 4.84277939 4.29850538 8 4 C8.66 3.01 9.32 2.02 10 1 C10.33 2.65 10.66 4.3 11 6 C8 8 8 8 5.5 7.875 C2.46762924 6.81367023 1.55255043 5.77824814 0 3 C0 2.01 0 1.02 0 0 Z " fill="#9390A4" transform="translate(92,42)"/>
<path d="M0 0 C0.66 0.33 1.32 0.66 2 1 C-1.43783455 4.84228568 -3.92278356 6.92597345 -9 8 C-12.00897168 8.14304947 -14.99072069 8.12037117 -18 8 C-15.16673936 6.45751869 -12.59557907 5.57339071 -9.4375 4.9375 C-6.85979971 4.41152743 -4.50492348 3.83497449 -2 3 C-2 2.34 -2 1.68 -2 1 C-1.34 0.67 -0.68 0.34 0 0 Z " fill="#DBB7A5" transform="translate(96,100)"/>
<path d="M0 0 C2.1479894 0.44812018 4.29336561 0.90878348 6.4375 1.375 C8.22994141 1.75785156 8.22994141 1.75785156 10.05859375 2.1484375 C11.51458984 2.56996094 11.51458984 2.56996094 13 3 C13.33 3.66 13.66 4.32 14 5 C5.00336984 5.30497051 5.00336984 5.30497051 1 3 C0.67 2.01 0.34 1.02 0 0 Z " fill="#E69866" transform="translate(70,89)"/>
<path d="M0 0 C9.93514711 -0.62638406 9.93514711 -0.62638406 14.1875 1.875 C16 4 16 4 16 6 C14.35 6 12.7 6 11 6 C10.67 5.01 10.34 4.02 10 3 C6.7 2.34 3.4 1.68 0 1 C0 0.67 0 0.34 0 0 Z " fill="#784C51" transform="translate(96,53)"/>
<path d="M0 0 C3.40843742 2.88406243 4.86591384 4.3708265 5.8125 8.8125 C5.9053125 10.3903125 5.9053125 10.3903125 6 12 C6.66 12 7.32 12 8 12 C7.67 13.65 7.34 15.3 7 17 C3.29256832 11.43885247 1.5549327 6.47888625 0 0 Z " fill="#E8B192" transform="translate(110,43)"/>
<path d="M0 0 C4.84659077 0.59104765 8.60748167 1.97944157 13 4 C13 4.33 13 4.66 13 5 C8.18061476 5.23509196 4.53701494 4.45184478 0 3 C0 2.01 0 1.02 0 0 Z " fill="#CC7876" transform="translate(67,86)"/>
<path d="M0 0 C0 0.99 0 1.98 0 3 C0.99 3 1.98 3 3 3 C3.33 3.99 3.66 4.98 4 6 C2.55903414 5.57405412 1.12231288 5.13373367 -0.3125 4.6875 C-1.11300781 4.44386719 -1.91351563 4.20023437 -2.73828125 3.94921875 C-5.09964573 2.95817977 -6.33879993 1.91925057 -8 0 C-5.13822943 -1.43088528 -3.06624227 -0.59991697 0 0 Z " fill="#99647D" transform="translate(63,77)"/>
<path d="M0 0 C2 1 4 2 6 3 C6 4.32 6 5.64 6 7 C1.68607774 6.5206753 -0.16569547 5.2542015 -3 2 C-1.68 2 -0.36 2 1 2 C0.67 1.34 0.34 0.68 0 0 Z " fill="#E08E5D" transform="translate(86,82)"/>
<path d="M0 0 C1.485 0.99 1.485 0.99 3 2 C3.43132515 6.05445642 3.30019361 7.54970958 1 11 C0.34 11 -0.32 11 -1 11 C-0.67 7.37 -0.34 3.74 0 0 Z " fill="#27131B" transform="translate(131,59)"/>
<path d="M0 0 C2.4375 1.0625 2.4375 1.0625 5 3 C5.8125 6.6875 5.8125 6.6875 6 10 C6.66 10 7.32 10 8 10 C7.67 10.99 7.34 11.98 7 13 C4.48899084 11.74449542 4.15408425 10.68080384 2.9375 8.1875 C2.59589844 7.50042969 2.25429688 6.81335938 1.90234375 6.10546875 C1.03464006 4.08082681 0.46830928 2.14842919 0 0 Z " fill="#946173" transform="translate(61,67)"/>
<path d="M0 0 C0.66 0 1.32 0 2 0 C2.92565097 3.04838441 3.04155806 5.46489969 2.6875 8.625 C2.60886719 9.40101562 2.53023437 10.17703125 2.44921875 10.9765625 C2 13 2 13 0 15 C0 10.05 0 5.1 0 0 Z " fill="#7C6A77" transform="translate(131,19)"/>
<path d="M0 0 C2.4375 0.9375 2.4375 0.9375 3.75 3 C4.0903125 3.9590625 4.0903125 3.9590625 4.4375 4.9375 C0.7415893 4.9375 -2.06712849 4.10262384 -5.5625 2.9375 C-3.72865255 0.52454283 -3.10791561 -0.07580282 0 0 Z " fill="#EEEEEB" transform="translate(18.5625,66.0625)"/>
<path d="M0 0 C-4.625 4 -4.625 4 -8 4 C-8 4.66 -8 5.32 -8 6 C-8.99 5.67 -9.98 5.34 -11 5 C-11 4.01 -11 3.02 -11 2 C-9.54494642 1.47007308 -8.08581873 0.9513211 -6.625 0.4375 C-5.81289062 0.14746094 -5.00078125 -0.14257812 -4.1640625 -0.44140625 C-2 -1 -2 -1 0 0 Z " fill="#CF7F5A" transform="translate(90,61)"/>
<path d="M0 0 C3.96 1.98 7.92 3.96 12 6 C12 6.99 12 7.98 12 9 C9.69 8.01 7.38 7.02 5 6 C5 5.34 5 4.68 5 4 C4.01 4 3.02 4 2 4 C2 3.34 2 2.68 2 2 C1.34 2 0.68 2 0 2 C0 1.34 0 0.68 0 0 Z " fill="#928EA3" transform="translate(45,47)"/>
<path d="M0 0 C1.485 0.99 1.485 0.99 3 2 C4.65549531 2.38499891 6.3222433 2.72793135 8 3 C8 3.66 8 4.32 8 5 C5.1875 5.625 5.1875 5.625 2 6 C1.01 5.34 0.02 4.68 -1 4 C-0.67 2.68 -0.34 1.36 0 0 Z " fill="#E9A978" transform="translate(118,26)"/>
<path d="M0 0 C3 1.8125 3 1.8125 6 4 C6 4.99 6 5.98 6 7 C3.36 6.01 0.72 5.02 -2 4 C-1.34 2.68 -0.68 1.36 0 0 Z " fill="#D4ACA3" transform="translate(54,54)"/>
<path d="M0 0 C1.9375 0.625 1.9375 0.625 4 2 C4.75 5.125 4.75 5.125 5 8 C4.01 7.67 3.02 7.34 2 7 C-0.63804589 7.39397335 -0.63804589 7.39397335 -3 8 C-2.67 6.68 -2.34 5.36 -2 4 C-0.68 4 0.64 4 2 4 C1.34 2.68 0.68 1.36 0 0 Z " fill="#D6B8AF" transform="translate(106,40)"/>
<path d="M0 0 C0.33 0 0.66 0 1 0 C1 4.62 1 9.24 1 14 C2.32 14.33 3.64 14.66 5 15 C1.7 15 -1.6 15 -5 15 C-3.68 14.01 -2.36 13.02 -1 12 C-0.30047511 9.04448474 -0.30047511 9.04448474 -0.25 5.8125 C-0.19328125 4.72582031 -0.1365625 3.63914062 -0.078125 2.51953125 C-0.05234375 1.68808594 -0.0265625 0.85664063 0 0 Z " fill="#AEB1B7" transform="translate(81,26)"/>
<path d="M0 0 C-3.63423209 2.32590854 -6.77088331 2.16265833 -11 2 C-11 1.34 -11 0.68 -11 0 C-7.07632508 -2.82504594 -4.32061114 -1.49559616 0 0 Z " fill="#F0F0ED" transform="translate(45,75)"/>
<path d="M0 0 C0.33 0.66 0.66 1.32 1 2 C1.66 2 2.32 2 3 2 C3 2.99 3 3.98 3 5 C1.02 5.99 1.02 5.99 -1 7 C-3 4 -3 4 -3 1 C-2.01 0.67 -1.02 0.34 0 0 Z " fill="#8AA6C1" transform="translate(53,67)"/>
<path d="M0 0 C3.63 0.66 7.26 1.32 11 2 C11 2.66 11 3.32 11 4 C7.71249056 5.03321725 6.42202124 5.20141923 3.25 3.6875 C1 2 1 2 0 0 Z " fill="#9C5159" transform="translate(111,83)"/>
<path d="M0 0 C7.42857143 -0.28571429 7.42857143 -0.28571429 11 2 C8 4 8 4 5.95703125 3.7578125 C3.97135417 3.171875 1.98567708 2.5859375 0 2 C0 1.34 0 0.68 0 0 Z " fill="#EEA86A" transform="translate(47,81)"/>
<path d="M0 0 C2.64 0 5.28 0 8 0 C8 0.99 8 1.98 8 3 C5.36 3.33 2.72 3.66 0 4 C-0.33 3.34 -0.66 2.68 -1 2 C-0.67 1.34 -0.34 0.68 0 0 Z " fill="#878AA3" transform="translate(49,74)"/>
<path d="M0 0 C1.75 0.125 1.75 0.125 4 1 C6.25 4.0625 6.25 4.0625 8 7 C7.01 7.33 6.02 7.66 5 8 C4.87625 7.071875 4.87625 7.071875 4.75 6.125 C4.18741541 3.81562433 4.18741541 3.81562433 1.9375 2.75 C1.298125 2.5025 0.65875 2.255 0 2 C0 1.34 0 0.68 0 0 Z " fill="#7F8CA4" transform="translate(70,64)"/>
<path d="M0 0 C4.455 0.99 4.455 0.99 9 2 C9.33 3.32 9.66 4.64 10 6 C6.62972148 6 5.93297304 5.50175992 3.3125 3.5625 C2.68988281 3.11003906 2.06726562 2.65757813 1.42578125 2.19140625 C0.95527344 1.79824219 0.48476563 1.40507813 0 1 C0 0.67 0 0.34 0 0 Z " fill="#B39396" transform="translate(46,56)"/>
<path d="M0 0 C0.66 0 1.32 0 2 0 C2.25 6.625 2.25 6.625 0 10 C-0.99 10 -1.98 10 -3 10 C-2.690625 9.46375 -2.38125 8.9275 -2.0625 8.375 C-0.82172561 5.6015043 -0.4090325 2.99957163 0 0 Z " fill="#ACC4D1" transform="translate(135,44)"/>
<path d="M0 0 C0.53625 0.226875 1.0725 0.45375 1.625 0.6875 C-0.025 1.3475 -1.675 2.0075 -3.375 2.6875 C-3.375 3.3475 -3.375 4.0075 -3.375 4.6875 C-5.685 4.6875 -7.995 4.6875 -10.375 4.6875 C-7.46233137 1.77483137 -4.2386727 -0.55772009 0 0 Z " fill="#CFC2B8" transform="translate(97.375,37.3125)"/>
<path d="M0 0 C2.16874252 0.50603992 3.99967627 0.99983813 6 2 C6 2.99 6 3.98 6 5 C6.66 5 7.32 5 8 5 C7.67 5.99 7.34 6.98 7 8 C6.34 8 5.68 8 5 8 C3.1402289 5.40759181 1.42794577 2.85589153 0 0 Z " fill="#D18778" transform="translate(66,70)"/>
<path d="M0 0 C0.66 0.33 1.32 0.66 2 1 C2 3.64 2 6.28 2 9 C-0.475 8.01 -0.475 8.01 -3 7 C-3 6.34 -3 5.68 -3 5 C-2.34 5 -1.68 5 -1 5 C-0.67 3.35 -0.34 1.7 0 0 Z " fill="#6D7E97" transform="translate(57,67)"/>
<path d="M0 0 C1.9375 0.25 1.9375 0.25 4 1 C6.1519437 4.22791555 6.20086443 5.28400809 6 9 C5.401875 8.236875 4.80375 7.47375 4.1875 6.6875 C2.53040668 4.6516425 0.89702326 2.8021721 -1 1 C-0.67 0.67 -0.34 0.34 0 0 Z " fill="#AAD5E6" transform="translate(72,62)"/>
<path d="M0 0 C0.33 1.32 0.66 2.64 1 4 C1.4125 3.484375 1.825 2.96875 2.25 2.4375 C2.8275 1.963125 3.405 1.48875 4 1 C6.1875 1.3125 6.1875 1.3125 8 2 C6.375 3.5625 6.375 3.5625 4 5 C0.75 4.6875 0.75 4.6875 -2 4 C-1.34 2.68 -0.68 1.36 0 0 Z " fill="#B6C4C9" transform="translate(70,54)"/>
<path d="M0 0 C2.96175123 0.61277612 4.38058783 1.25372522 7 3 C0.375 6.125 0.375 6.125 -3 5 C-2.505 4.54625 -2.01 4.0925 -1.5 3.625 C0.22609337 2.12364481 0.22609337 2.12364481 0 0 Z " fill="#7B869D" transform="translate(76,47)"/>
<path d="M0 0 C0.33 0.99 0.66 1.98 1 3 C1.66 3.33 2.32 3.66 3 4 C2.40138258 6.35171131 1.73075648 8.6859378 1 11 C0.01 11.495 0.01 11.495 -1 12 C-0.67 8.04 -0.34 4.08 0 0 Z " fill="#8693AD" transform="translate(133,40)"/>
<path d="M0 0 C-0.33 0.99 -0.66 1.98 -1 3 C-4.5625 4.1875 -4.5625 4.1875 -8 5 C-7.625 3.0625 -7.625 3.0625 -7 1 C-4.53721199 -0.231394 -2.7204945 -0.07159196 0 0 Z " fill="#B7DAE8" transform="translate(103,38)"/>
<path d="M0 0 C0.33 0.99 0.66 1.98 1 3 C0.67 3.66 0.34 4.32 0 5 C-1.27875 5.061875 -2.5575 5.12375 -3.875 5.1875 C-4.59429687 5.22230469 -5.31359375 5.25710937 -6.0546875 5.29296875 C-6.69664063 5.19628906 -7.33859375 5.09960938 -8 5 C-8.66 4.01 -9.32 3.02 -10 2 C-7.03 2 -4.06 2 -1 2 C-0.67 1.34 -0.34 0.68 0 0 Z " fill="#768096" transform="translate(123,16)"/>
<path d="M0 0 C0.99 0.33 1.98 0.66 3 1 C3.70211894 2.65204456 4.36971413 4.31923769 5 6 C5.66 6.33 6.32 6.66 7 7 C6.67 7.66 6.34 8.32 6 9 C5.01 9 4.02 9 3 9 C3 8.34 3 7.68 3 7 C2.34 7 1.68 7 1 7 C0.31292445 4.50935112 0 2.62113708 0 0 Z " fill="#A66178" transform="translate(67,61)"/>
<path d="M0 0 C2.75 -0.25 2.75 -0.25 6 0 C8.375 2 8.375 2 10 4 C9.01 4.495 9.01 4.495 8 5 C1.25806452 2.51612903 1.25806452 2.51612903 0 0 Z " fill="#8F8CA3" transform="translate(85,26)"/>
<path d="M0 0 C1.98 0 3.96 0 6 0 C5.34 1.32 4.68 2.64 4 4 C2.68 4 1.36 4 0 4 C0 2.68 0 1.36 0 0 Z " fill="#DD8A61" transform="translate(126,79)"/>
<path d="M0 0 C0.33 0 0.66 0 1 0 C1 3.3 1 6.6 1 10 C-0.32 9.34 -1.64 8.68 -3 8 C-2.67 6.68 -2.34 5.36 -2 4 C-1.34 4 -0.68 4 0 4 C0 2.68 0 1.36 0 0 Z " fill="#C5BEBD" transform="translate(132,37)"/>
<path d="M0 0 C1.98 0.66 3.96 1.32 6 2 C5.01 2.495 5.01 2.495 4 3 C4.33 3.99 4.66 4.98 5 6 C4.67 6.66 4.34 7.32 4 8 C1.44971017 6.72485508 1.06918289 5.59658703 0 3 C0 2.01 0 1.02 0 0 Z " fill="#8F8BA0" transform="translate(109,22)"/>
<path d="M0 0 C0.66 0.33 1.32 0.66 2 1 C2 3.31 2 5.62 2 8 C0.68 8.33 -0.64 8.66 -2 9 C-2 7.68 -2 6.36 -2 5 C-1.34 5 -0.68 5 0 5 C0 3.35 0 1.7 0 0 Z " fill="#261E21" transform="translate(112,59)"/>
<path d="M0 0 C1.9375 0.8125 1.9375 0.8125 4 2 C4.33 2.99 4.66 3.98 5 5 C4.01 5.33 3.02 5.66 2 6 C1.01 5.01 0.02 4.02 -1 3 C-0.67 2.01 -0.34 1.02 0 0 Z " fill="#F1EFEB" transform="translate(107,28)"/>
<path d="M0 0 C3 2 3 2 3.6875 4.125 C3.790625 4.74375 3.89375 5.3625 4 6 C2.35 7.32 0.7 8.64 -1 10 C-0.67 6.7 -0.34 3.4 0 0 Z " fill="#6F6D77" transform="translate(123,13)"/>
<path d="M0 0 C1.32 0 2.64 0 4 0 C4 0.66 4 1.32 4 2 C5.32 2.66 6.64 3.32 8 4 C4.23312136 4 3.08809695 3.76462683 0 2 C0 1.34 0 0.68 0 0 Z " fill="#C6C0B9" transform="translate(46,51)"/>
<path d="M0 0 C-0.33 1.98 -0.66 3.96 -1 6 C-1.66 6 -2.32 6 -3 6 C-6 2.53846154 -6 2.53846154 -6 0 C-2.25 -1.125 -2.25 -1.125 0 0 Z " fill="#DEC6B9" transform="translate(119,25)"/>
<path d="M0 0 C0.33 0.99 0.66 1.98 1 3 C-0.98 3.99 -0.98 3.99 -3 5 C-3 4.34 -3 3.68 -3 3 C-4.65 3 -6.3 3 -8 3 C-5.36095629 1.58622659 -2.92879371 0.62759865 0 0 Z " fill="#E09367" transform="translate(105,93)"/>
<path d="M0 0 C2.01822917 0.06510417 4.03645833 0.13020833 6.0546875 0.1953125 C5.0646875 0.5253125 4.0746875 0.8553125 3.0546875 1.1953125 C3.0546875 1.8553125 3.0546875 2.5153125 3.0546875 3.1953125 C0.7446875 2.8653125 -1.5653125 2.5353125 -3.9453125 2.1953125 C-1.9453125 0.1953125 -1.9453125 0.1953125 0 0 Z " fill="#E4C9B0" transform="translate(30.9453125,73.8046875)"/>
<path d="M0 0 C4.29 0.33 8.58 0.66 13 1 C13 1.33 13 1.66 13 2 C11.58696762 2.2506019 10.16920526 2.47461921 8.75 2.6875 C7.96109375 2.81511719 7.1721875 2.94273438 6.359375 3.07421875 C4 3 4 3 0 0 Z " fill="#8CA7C0" transform="translate(80,48)"/>
<path d="M0 0 C1.65 0.33 3.3 0.66 5 1 C5 1.99 5 2.98 5 4 C2.03 3.505 2.03 3.505 -1 3 C-0.67 2.01 -0.34 1.02 0 0 Z " fill="#B0CEDF" transform="translate(26,39)"/>
<path d="M0 0 C1.32 0.33 2.64 0.66 4 1 C3.67 1.33 3.34 1.66 3 2 C3.66 2.33 4.32 2.66 5 3 C4.67 3.66 4.34 4.32 4 5 C2.02 4.34 0.04 3.68 -2 3 C-1.34 2.01 -0.68 1.02 0 0 Z " fill="#DE8A62" transform="translate(113,37)"/>
<path d="M0 0 C0.66 0.99 1.32 1.98 2 3 C1.125 5.6875 1.125 5.6875 0 8 C-0.66 8 -1.32 8 -2 8 C-1.125 1.125 -1.125 1.125 0 0 Z " fill="#8493AB" transform="translate(80,13)"/>
<path d="M0 0 C0.66 0 1.32 0 2 0 C1.979375 0.763125 1.95875 1.52625 1.9375 2.3125 C1.87057159 5.10185786 1.87057159 5.10185786 3 8 C2.01 7.67 1.02 7.34 0 7 C-1.125 2.25 -1.125 2.25 0 0 Z " fill="#CE7A63" transform="translate(74,76)"/>
<path d="M0 0 C-6.4 3.07692308 -6.4 3.07692308 -9.4375 2.6875 C-9.953125 2.460625 -10.46875 2.23375 -11 2 C-7.54930647 -0.30046235 -3.95022851 -1.97511426 0 0 Z " fill="#C4C0BE" transform="translate(86,55)"/>
<path d="M0 0 C2 2 2 2 2 6 C-0.31 5.34 -2.62 4.68 -5 4 C-4.360625 3.71125 -3.72125 3.4225 -3.0625 3.125 C-0.84793921 2.17176549 -0.84793921 2.17176549 0 0 Z " fill="#DEA3A2" transform="translate(111,47)"/>
<path d="M0 0 C0.66 0 1.32 0 2 0 C2.33 1.98 2.66 3.96 3 6 C1.68 5.67 0.36 5.34 -1 5 C-0.67 3.35 -0.34 1.7 0 0 Z " fill="#819BB9" transform="translate(125,7)"/>
<path d="M0 0 C3.465 1.485 3.465 1.485 7 3 C5.02 3.99 5.02 3.99 3 5 C1.68 4.01 0.36 3.02 -1 2 C-0.67 1.34 -0.34 0.68 0 0 Z " fill="#846F7A" transform="translate(53,62)"/>
<path d="M0 0 C0.99 0.99 1.98 1.98 3 3 C1.02 3.99 1.02 3.99 -1 5 C-1.33 4.34 -1.66 3.68 -2 3 C-2.66 2.67 -3.32 2.34 -4 2 C-2.68 1.34 -1.36 0.68 0 0 Z " fill="#B9C1C6" transform="translate(106,41)"/>
<path d="M0 0 C0.33 0 0.66 0 1 0 C1 2.64 1 5.28 1 8 C0.34 8 -0.32 8 -1 8 C-1.33 6.02 -1.66 4.04 -2 2 C-1.34 2 -0.68 2 0 2 C0 1.34 0 0.68 0 0 Z " fill="#907C8B" transform="translate(135,35)"/>
<path d="M0 0 C0.33 0.99 0.66 1.98 1 3 C1.66 3 2.32 3 3 3 C2.34 5.31 1.68 7.62 1 10 C0.67 10 0.34 10 0 10 C0 6.7 0 3.4 0 0 Z " fill="#9B97A7" transform="translate(134,27)"/>
</svg>
