<?xml version="1.0" encoding="UTF-8"?>
<svg version="1.1" xmlns="http://www.w3.org/2000/svg" width="150" height="150">
<path d="M0 0 C3 2 3 2 3.9375 4.1875 C4.03004884 8.35219766 2.24442754 10.53133926 0 14 C0.70125 14.43570313 1.4025 14.87140625 2.125 15.3203125 C6.66771153 18.17185153 11.03118733 20.96521759 15.125 24.4375 C18.81756985 27.32567186 21.71328575 27.53723311 26.3125 27.2109375 C26.869375 27.14132813 27.42625 27.07171875 28 27 C26.84665164 21.74585746 24.51854642 19.19682367 20.65625 15.7109375 C18.02044243 12.98809855 17.09314587 10.74516693 16.625 7 C17 4 17 4 18.5625 1.625 C21.92058549 -0.61372366 24.04745604 -0.57491549 28 0 C30.42061048 2.10827364 30.9127007 3.40345478 31.375 6.5625 C30.92535295 9.48520586 30.02672711 9.97327289 28 12 C27.16458146 14.36757327 27.16458146 14.36757327 28 17 C30.00693229 19.56342679 32.12975477 21.45362757 35 23 C38.73723433 22.86013727 38.73723433 22.86013727 42 22 C44.21854742 24.21854742 44.50859832 24.98289938 45 28 C44.96980774 29.89662297 44.9041366 31.79285148 44.8125 33.6875 C44.74849226 38.94893642 45.66689941 42.37172431 48.07421875 46.99609375 C49 49 49 49 49.25 52.375 C50.10126696 56.48945696 51.47771278 58.11572365 54.0625 61.375 C57.38415637 65.71044736 59.09094143 68.60584427 58.52734375 74.11328125 C57.69591881 77.08793492 56.64488889 78.42736336 54 80 C51.5 80 51.5 80 49 79 C48.38125 78.319375 47.7625 77.63875 47.125 76.9375 C45.01534576 74.60985033 45.01534576 74.60985033 41.25 74.75 C40.1775 74.8325 39.105 74.915 38 75 C38.22816406 75.51949219 38.45632812 76.03898437 38.69140625 76.57421875 C41.6996569 83.87226181 41.6996569 83.87226181 40 88 C36.52032332 90.31978445 34.74138602 90.02188859 30.69067383 89.76879883 C23.23746156 89.12536119 23.23746156 89.12536119 16.50390625 91.66796875 C14.78889727 93.78053483 14.78889727 93.78053483 13.34765625 96.03125 C9.58344013 101.53027877 0.1507541 102.41786961 -6 104 C-6.72703125 104.20882812 -7.4540625 104.41765625 -8.203125 104.6328125 C-13.74892475 106.18301637 -19.02425148 106.69757903 -24.6328125 105.3828125 C-27.69486519 104.76016669 -29.91128748 104.45804331 -33 105 C-36.66942751 108.19106017 -39.2197841 112.03727261 -42 116 C-43.23190538 117.4099828 -44.49835986 118.79132911 -45.8125 120.125 C-46.33457031 120.66382813 -46.85664062 121.20265625 -47.39453125 121.7578125 C-49.26868677 123.20788903 -50.65987648 123.68671774 -53 124 C-53.66 123.67 -54.32 123.34 -55 123 C-54.582149 117.78066111 -53.12649562 115.58031101 -49.4375 111.9375 C-45.98735803 108.68214122 -45.98735803 108.68214122 -44.59765625 104.33984375 C-44.83281411 101.792669 -44.83281411 101.792669 -47 99.625 C-49.56632576 96.25669744 -49.3240539 94.13168722 -49 90 C-53.74264216 87.00464706 -57.30216204 86.74203512 -62.73046875 86.9921875 C-65 87 -65 87 -68 86 C-68 85.01 -68 84.02 -68 83 C-61.04093758 81.73559337 -54.22789823 82.02088407 -47.18164062 82.30273438 C-40.98898287 82.41796646 -36.02911281 81.8727579 -31 78 C-29.27867216 75.68947033 -29.27867216 75.68947033 -28.5625 73.0625 C-28.27503906 72.22847656 -27.98757812 71.39445312 -27.69140625 70.53515625 C-26.96051804 67.97882092 -26.96051804 67.97882092 -26.46484375 65.24609375 C-26 63 -26 63 -25 62 C-19.25883309 61.62605426 -13.65554456 62.01642703 -8 63 C-8.55312735 58.97007218 -9.1558062 54.97977076 -10 51 C-11.918125 50.814375 -11.918125 50.814375 -13.875 50.625 C-17.75 50.25 -17.75 50.25 -20 48 C-19.9375 45.625 -19.9375 45.625 -19 43 C-14.78378378 39 -14.78378378 39 -12 39 C-12.70125 37.9275 -13.4025 36.855 -14.125 35.75 C-16.06343782 32.33531417 -16.06343782 32.33531417 -15.5625 29.6875 C-13.60816784 27.57682126 -11.66731438 26.99319511 -9 26 C-8.945862 23.75026553 -8.90714509 21.50015617 -8.875 19.25 C-8.85179687 17.99703125 -8.82859375 16.7440625 -8.8046875 15.453125 C-8.989661 12.18279355 -9.44529663 10.76254065 -11 8 C-10.8125 4.875 -10.8125 4.875 -10 2 C-6.31282562 -0.45811625 -4.35654296 -0.31118164 0 0 Z " fill="#D58353" transform="translate(82,20)"/>
<path d="M0 0 C3 2 3 2 3.9375 4.1875 C4.03004884 8.35219766 2.24442754 10.53133926 0 14 C0.70125 14.43570313 1.4025 14.87140625 2.125 15.3203125 C6.60433843 18.13207113 10.91670193 20.86974478 14.9375 24.3125 C19.08526864 27.58070024 23.29839506 27.95151149 28.4609375 28.3828125 C29.29882812 28.58648437 30.13671875 28.79015625 31 29 C32.21875 31.0078125 32.21875 31.0078125 33 33 C35.05000871 33.80528889 35.05000871 33.80528889 37 34 C37.33 32.68 37.66 31.36 38 30 C41.53286034 34.56327794 41.32374517 38.49633208 41 44 C41.99 44.495 41.99 44.495 43 45 C42.34 48.96 41.68 52.92 41 57 C41.99 56.34 42.98 55.68 44 55 C45.32 55 46.64 55 48 55 C47.125 61.75 47.125 61.75 46 64 C47.175625 64.37125 47.175625 64.37125 48.375 64.75 C51 66 51 66 52.3125 67.8125 C53.09802451 70.31189617 53.14472595 72.39493282 53 75 C51.989375 74.34 50.97875 73.68 49.9375 73 C46.21937109 70.84500284 43.31084509 70.64809428 39 71 C38.9175 70.4225 38.835 69.845 38.75 69.25 C37.79468987 66.3840696 36.21530827 65.0009236 34 63 C34.495 64.485 34.495 64.485 35 66 C23.34827987 69.49272186 7.8832695 67.03855069 -3 62 C-4.7109375 60.40234375 -4.7109375 60.40234375 -6 59 C-4.92289822 54.69159287 -3.96052484 51.36423277 -1 48 C-0.34 48.33 0.32 48.66 1 49 C1 50.32 1 51.64 1 53 C4.59666734 56.01700197 4.59666734 56.01700197 9 57 C8.01 56.46375 7.02 55.9275 6 55.375 C3 53 3 53 2.375 50 C3.15965002 46.2336799 3.77661896 45.12271434 7 43 C9.99376386 42.38681945 12.94977179 42.13035163 16 42 C15.67 42.763125 15.34 43.52625 15 44.3125 C13.67064356 49.21450189 13.62964879 53.94427532 14 59 C15.11126659 60.33901792 15.11126659 60.33901792 17.94140625 60.09765625 C19.13636719 60.08605469 20.33132812 60.07445312 21.5625 60.0625 C22.76003906 60.05347656 23.95757812 60.04445312 25.19140625 60.03515625 C26.58166016 60.01775391 26.58166016 60.01775391 28 60 C26.98464911 50.47076347 26.98464911 50.47076347 23 42 C18.75942484 39.67968529 14.78161888 38.58312425 10 38 C9.3125 36.1875 9.3125 36.1875 9 34 C10.4375 32.25 10.4375 32.25 12 31 C11.01 31.66 10.02 32.32 9 33 C6.3125 33.125 6.3125 33.125 4 33 C5.32 33.99 6.64 34.98 8 36 C5 37 2 38 -1 39 C-1 40.65 -1 42.3 -1 44 C-3.31 45.32 -5.62 46.64 -8 48 C-8 50.64 -8 53.28 -8 56 C-8.33 56 -8.66 56 -9 56 C-9.33 54.35 -9.66 52.7 -10 51 C-11.27875 50.87625 -12.5575 50.7525 -13.875 50.625 C-17.75 50.25 -17.75 50.25 -20 48 C-19.9375 45.625 -19.9375 45.625 -19 43 C-14.78378378 39 -14.78378378 39 -12 39 C-12.70125 37.9275 -13.4025 36.855 -14.125 35.75 C-16.06343782 32.33531417 -16.06343782 32.33531417 -15.5625 29.6875 C-13.60816784 27.57682126 -11.66731438 26.99319511 -9 26 C-8.945862 23.75026553 -8.90714509 21.50015617 -8.875 19.25 C-8.85179688 17.99703125 -8.82859375 16.7440625 -8.8046875 15.453125 C-8.989661 12.18279355 -9.44529663 10.76254065 -11 8 C-10.8125 4.875 -10.8125 4.875 -10 2 C-6.31282562 -0.45811625 -4.35654296 -0.31118164 0 0 Z " fill="#EDA162" transform="translate(82,20)"/>
<path d="M0 0 C1.32 0 2.64 0 4 0 C4 1.32 4 2.64 4 4 C2.35546875 5.484375 2.35546875 5.484375 0.1875 6.75 C-0.87404297 7.39195313 -0.87404297 7.39195313 -1.95703125 8.046875 C-4 9 -4 9 -7 9 C-7.33 9.66 -7.66 10.32 -8 11 C-7.195625 11.12375 -6.39125 11.2475 -5.5625 11.375 C-4.716875 11.58125 -3.87125 11.7875 -3 12 C-2.505 12.99 -2.505 12.99 -2 14 C-1.34 14 -0.68 14 0 14 C-0.33 15.65 -0.66 17.3 -1 19 C-0.01 19.33 0.98 19.66 2 20 C0.68 21.65 -0.64 23.3 -2 25 C-1.030625 25.28875 -0.06125 25.5775 0.9375 25.875 C4 27 4 27 5 29 C4.01 29.495 4.01 29.495 3 30 C3 30.99 3 31.98 3 33 C3 33.99 3 34.98 3 36 C4.65 36 6.3 36 8 36 C7.505 36.99 7.505 36.99 7 38 C1.57196345 39.32391135 -4.18447854 39.65390069 -9.640625 38.38671875 C-12.70080012 37.75844257 -14.91191494 37.45815341 -18 38 C-21.66942751 41.19106017 -24.2197841 45.03727261 -27 49 C-28.23190538 50.4099828 -29.49835986 51.79132911 -30.8125 53.125 C-31.33457031 53.66382813 -31.85664062 54.20265625 -32.39453125 54.7578125 C-34.26868677 56.20788903 -35.65987648 56.68671774 -38 57 C-38.66 56.67 -39.32 56.34 -40 56 C-39.582149 50.78066111 -38.12649562 48.58031101 -34.4375 44.9375 C-30.98735803 41.68214122 -30.98735803 41.68214122 -29.59765625 37.33984375 C-29.83281411 34.792669 -29.83281411 34.792669 -32 32.625 C-34.56632576 29.25669744 -34.3240539 27.13168722 -34 23 C-38.74264216 20.00464706 -42.30216204 19.74203512 -47.73046875 19.9921875 C-50 20 -50 20 -53 19 C-53 18.01 -53 17.02 -53 16 C-46.04093758 14.73559337 -39.22789823 15.02088407 -32.18164062 15.30273438 C-23.26627219 15.46863027 -17.91450206 12.61628454 -10.8125 7.4375 C-7.61945664 5.12138293 -4.38827082 3.01891784 -1 1 C-0.67 0.67 -0.34 0.34 0 0 Z " fill="#BF959B" transform="translate(67,87)"/>
<path d="M0 0 C3 2 3 2 3.9375 4.1875 C4.03004884 8.35219766 2.24442754 10.53133926 0 14 C0.70125 14.43570313 1.4025 14.87140625 2.125 15.3203125 C7.95262843 18.97841622 13.57980499 22.76013399 19 27 C18.505 28.485 18.505 28.485 18 30 C18.99 30.33 19.98 30.66 21 31 C21.495 32.485 21.495 32.485 22 34 C17.31506124 36.48887372 14.0555786 35.85687773 9 35 C9.99 33.68 10.98 32.36 12 31 C11.01 31.66 10.02 32.32 9 33 C6.3125 33.125 6.3125 33.125 4 33 C5.32 33.99 6.64 34.98 8 36 C5 37 2 38 -1 39 C-1 40.65 -1 42.3 -1 44 C-3.31 45.32 -5.62 46.64 -8 48 C-8 50.64 -8 53.28 -8 56 C-8.33 56 -8.66 56 -9 56 C-9.33 54.35 -9.66 52.7 -10 51 C-11.27875 50.87625 -12.5575 50.7525 -13.875 50.625 C-17.75 50.25 -17.75 50.25 -20 48 C-19.9375 45.625 -19.9375 45.625 -19 43 C-14.78378378 39 -14.78378378 39 -12 39 C-12.70125 37.9275 -13.4025 36.855 -14.125 35.75 C-16.06343782 32.33531417 -16.06343782 32.33531417 -15.5625 29.6875 C-13.60816784 27.57682126 -11.66731438 26.99319511 -9 26 C-8.945862 23.75026553 -8.90714509 21.50015617 -8.875 19.25 C-8.85179688 17.99703125 -8.82859375 16.7440625 -8.8046875 15.453125 C-8.989661 12.18279355 -9.44529663 10.76254065 -11 8 C-10.8125 4.875 -10.8125 4.875 -10 2 C-6.31282562 -0.45811625 -4.35654296 -0.31118164 0 0 Z " fill="#B5CCD1" transform="translate(82,20)"/>
<path d="M0 0 C4.95 0 9.9 0 15 0 C14.67 0.99 14.34 1.98 14 3 C11.0625 4.25 11.0625 4.25 8 5 C7.34 4.67 6.68 4.34 6 4 C6.33 5.32 6.66 6.64 7 8 C12.26222923 8.20636193 16.10323172 8.06179717 21 6 C26.21740855 5.52569013 29.58635725 6.12600007 34 9 C35.87439318 11.44486068 36.03229348 12.54789128 35.8125 15.625 C35 18 35 18 32 20 C29.89596906 19.95461894 27.7910983 19.900034 25.69067383 19.76879883 C18.23746156 19.12536119 18.23746156 19.12536119 11.50390625 21.66796875 C9.79009491 23.77809529 9.79009491 23.77809529 8.359375 26.01953125 C6.17580259 29.20077037 3.62477516 29.98251925 0 31 C-2.72300701 31.20614314 -5.26170884 31.14412059 -8 31 C-7 28 -7 28 -5.078125 26.73046875 C-2.16998728 24.30884279 -1.75015208 21.92019145 -0.75 18.3125 C-0.41484375 17.13300781 -0.0796875 15.95351562 0.265625 14.73828125 C0.50796875 13.83464844 0.7503125 12.93101563 1 12 C0.22914062 12.15597656 -0.54171875 12.31195313 -1.3359375 12.47265625 C-2.84027344 12.76462891 -2.84027344 12.76462891 -4.375 13.0625 C-5.37273437 13.25972656 -6.37046875 13.45695312 -7.3984375 13.66015625 C-10 14 -10 14 -12 13 C-12 12.01 -12 11.02 -12 10 C-7.05 9.67 -2.1 9.34 3 9 C3 7.68 3 6.36 3 5 C2.34 4.67 1.68 4.34 1 4 C1 3.34 1 2.68 1 2 C0.67 1.34 0.34 0.68 0 0 Z " fill="#C67352" transform="translate(87,90)"/>
<path d="M0 0 C0.66 0 1.32 0 2 0 C1.67 0.99 1.34 1.98 1 3 C1.66 3.66 2.32 4.32 3 5 C2.01 5 1.02 5 0 5 C0 5.66 0 6.32 0 7 C0.58007812 7.02578125 1.16015625 7.0515625 1.7578125 7.078125 C7.17758534 7.47163986 10.87502234 8.1696636 15 12 C18.21717969 17.38633872 18.38275718 22.8758851 18 29 C13.57117061 30.10720735 9.53942698 30.22325051 5 30 C3 28 3 28 2.734375 25.57421875 C2.73953125 24.62160156 2.7446875 23.66898438 2.75 22.6875 C2.74484375 21.74261719 2.7396875 20.79773438 2.734375 19.82421875 C3.01185955 16.87390511 3.76946492 14.68080856 5 12 C-0.22001124 12.28332949 -0.22001124 12.28332949 -4.9375 14.1875 C-6.4152657 16.70839444 -6.68027346 19.1224611 -7 22 C-6.401875 22.268125 -5.80375 22.53625 -5.1875 22.8125 C-3.02775192 23.98493467 -1.64209744 25.19369282 0 27 C-4.02436645 26.3808667 -6.85161133 24.51871094 -10 22 C-10.875 19.25 -10.875 19.25 -11 17 C-12.96301592 20.50538557 -13.95902388 24.13351728 -15 28 C-14.505 28.45375 -14.01 28.9075 -13.5 29.375 C-12 31 -12 31 -12 33 C-11.195625 33.2475 -10.39125 33.495 -9.5625 33.75 C-7 35 -7 35 -6.1875 37.125 C-6.125625 37.74375 -6.06375 38.3625 -6 39 C-12.75 38.125 -12.75 38.125 -15 37 C-15 36.34 -15 35.68 -15 35 C-16.65 34.67 -18.3 34.34 -20 34 C-19.34 33.34 -18.68 32.68 -18 32 C-18.01747888 29.40730017 -18.13768592 26.9474846 -18.375 24.375 C-18.43171875 23.66859375 -18.4884375 22.9621875 -18.546875 22.234375 C-18.68840921 20.48878639 -18.84297387 18.74426327 -19 17 C-17.865625 16.443125 -16.73125 15.88625 -15.5625 15.3125 C-13.61222243 14.27192863 -13.61222243 14.27192863 -12 13 C-11.34444881 10.47266765 -11.34444881 10.47266765 -11 8 C-8.5625 6.25 -8.5625 6.25 -6 5 C-5.34 4.67 -4.68 4.34 -4 4 C-4.99 3.01 -5.98 2.02 -7 1 C-5.5459375 1.0309375 -5.5459375 1.0309375 -4.0625 1.0625 C-1.12534105 1.35618499 -1.12534105 1.35618499 0 0 Z " fill="#8F6570" transform="translate(92,51)"/>
<path d="M0 0 C0 0.66 0 1.32 0 2 C-0.66 2 -1.32 2 -2 2 C-2.33 2.99 -2.66 3.98 -3 5 C-3.66 5 -4.32 5 -5 5 C-4.67 6.32 -4.34 7.64 -4 9 C-1.69 9 0.62 9 3 9 C3 9.99 3 10.98 3 12 C9.435 11.505 9.435 11.505 16 11 C14.64909479 19.10543127 13.28625218 24.56324136 7 30 C7.99 30.33 8.98 30.66 10 31 C5.58774263 32.47075246 2.51718381 33.36884358 -2 32 C-2.33 31.01 -2.66 30.02 -3 29 C-2.67 28.67 -2.34 28.34 -2 28 C-2.66 27.34 -3.32 26.68 -4 26 C-3.01 25.34 -2.02 24.68 -1 24 C-2.98 23.01 -4.96 22.02 -7 21 C-5.125 17.125 -5.125 17.125 -4 16 C-4.66 15.67 -5.32 15.34 -6 15 C-5.67 13.35 -5.34 11.7 -5 10 C-5.99 10.33 -6.98 10.66 -8 11 C-8 10.01 -8 9.02 -8 8 C-9.65 7.67 -11.3 7.34 -13 7 C-12.34 5.35 -11.68 3.7 -11 2 C-10.34 2.66 -9.68 3.32 -9 4 C-8.071875 3.34 -7.14375 2.68 -6.1875 2 C-3 0 -3 0 0 0 Z " fill="#BB6558" transform="translate(72,91)"/>
<path d="M0 0 C2.42061048 2.10827364 2.9127007 3.40345478 3.375 6.5625 C2.92535295 9.48520586 2.02672711 9.97327289 0 12 C-0.83541854 14.36757327 -0.83541854 14.36757327 0 17 C2.00693229 19.56342679 4.12975477 21.45362757 7 23 C10.73723433 22.86013727 10.73723433 22.86013727 14 22 C17.01196522 25.01196522 16.96147992 27.28095856 17.1875 31.5 C17 35 17 35 15.875 37 C14.45434873 40.24720291 15.88754139 42.78623069 17 46 C16.34 46 15.68 46 15 46 C15 45.34 15 44.68 15 44 C14.34 44 13.68 44 13 44 C12.92652344 43.09507813 12.92652344 43.09507813 12.8515625 42.171875 C12.77679688 41.37265625 12.70203125 40.5734375 12.625 39.75 C12.55539063 38.96109375 12.48578125 38.1721875 12.4140625 37.359375 C11.98492887 34.914123 11.21399362 33.15163097 10 31 C10 32.32 10 33.64 10 35 C6.34683329 33.75023244 5.21934164 33.32901247 3 30 C1.04614933 29.21011855 1.04614933 29.21011855 -1.125 28.8125 C-2.40375 28.544375 -3.6825 28.27625 -5 28 C-5 27.67 -5 27.34 -5 27 C-3.35 27 -1.7 27 0 27 C-1.15334836 21.74585746 -3.48145358 19.19682367 -7.34375 15.7109375 C-9.97955757 12.98809855 -10.90685413 10.74516693 -11.375 7 C-11 4 -11 4 -9.4375 1.625 C-6.07941451 -0.61372366 -3.95254396 -0.57491549 0 0 Z " fill="#8E8499" transform="translate(110,20)"/>
<path d="M0 0 C0.80872559 0.00193359 1.61745117 0.00386719 2.45068359 0.00585938 C7.82522247 0.04482884 13.05208153 0.33641949 18.375 1.125 C18.705 2.115 19.035 3.105 19.375 4.125 C20.86 4.62 20.86 4.62 22.375 5.125 C22.375 5.785 22.375 6.445 22.375 7.125 C23.365 7.125 24.355 7.125 25.375 7.125 C24.00812778 11.11171063 22.22304907 14.00994633 19.375 17.125 C18.715 17.125 18.055 17.125 17.375 17.125 C17.271875 17.74375 17.16875 18.3625 17.0625 19 C16.375 21.125 16.375 21.125 13.375 23.125 C13.2925 22.50625 13.21 21.8875 13.125 21.25 C12.58689267 18.94153196 12.58689267 18.94153196 10.375 18.125 C8.375 17.125 8.375 17.125 7.625 15.3125 C7.34891185 12.89672869 7.30751455 10.55447614 7.375 8.125 C2.63235784 5.12964706 -0.92716204 4.86703512 -6.35546875 5.1171875 C-8.625 5.125 -8.625 5.125 -11.625 4.125 C-11.625 3.135 -11.625 2.145 -11.625 1.125 C-7.73840619 -0.17053127 -4.04893142 -0.02291694 0 0 Z " fill="#E9C495" transform="translate(25.625,101.875)"/>
<path d="M0 0 C5.90613437 11.73281402 5.90613437 11.73281402 6.25 16.375 C7.10126696 20.48945696 8.47771278 22.11572365 11.0625 25.375 C14.38415637 29.71044736 16.09094143 32.60584427 15.52734375 38.11328125 C14.69591881 41.08793492 13.64488889 42.42736336 11 44 C8.5 44 8.5 44 6 43 C5.38125 42.319375 4.7625 41.63875 4.125 40.9375 C2.01534576 38.60985033 2.01534576 38.60985033 -1.75 38.75 C-2.8225 38.8325 -3.895 38.915 -5 39 C-5 39.99 -5 40.98 -5 42 C-6.32 41.67 -7.64 41.34 -9 41 C-8.7215625 39.824375 -8.7215625 39.824375 -8.4375 38.625 C-7.74037734 36.02910225 -7.74037734 36.02910225 -9 34 C3.66970387 33.261959 3.66970387 33.261959 9 38 C8.67 35.36 8.34 32.72 8 30 C5.525 29.01 5.525 29.01 3 28 C3.66 25.03 4.32 22.06 5 19 C2.69 19.66 0.38 20.32 -2 21 C-1.67 17.04 -1.34 13.08 -1 9 C-0.01 9.33 0.98 9.66 2 10 C1.65213292 8.02463255 1.65213292 8.02463255 1 6 C0.34 5.67 -0.32 5.34 -1 5 C-0.67 3.35 -0.34 1.7 0 0 Z " fill="#7A6C7B" transform="translate(125,56)"/>
<path d="M0 0 C0.66 0 1.32 0 2 0 C2 1.32 2 2.64 2 4 C2.5775 3.484375 3.155 2.96875 3.75 2.4375 C6 1 6 1 8.125 1 C10.79366778 2.42328948 11.1357687 4.19124829 12 7 C8.2743806 8.74876013 5.68486437 9.94517997 1.53515625 10.27734375 C-2.89745567 11.18345779 -3.87012194 12.52363713 -6.5 16.125 C-9.15724509 19.60160005 -11.75883487 22.9863292 -14.8125 26.125 C-15.33457031 26.66382813 -15.85664062 27.20265625 -16.39453125 27.7578125 C-18.26868677 29.20788903 -19.65987648 29.68671774 -22 30 C-22.66 29.67 -23.32 29.34 -24 29 C-23.582149 23.78066111 -22.12649562 21.58031101 -18.4375 17.9375 C-14.96569855 14.68353289 -14.96569855 14.68353289 -13.66015625 10.31640625 C-13.87959413 7.98027516 -13.87959413 7.98027516 -15 6 C-14.01 6.33 -13.02 6.66 -12 7 C-11.67 7.99 -11.34 8.98 -11 10 C-10.38125 9.175 -9.7625 8.35 -9.125 7.5 C-8.42375 6.675 -7.7225 5.85 -7 5 C-6.34 5 -5.68 5 -5 5 C-4.175 4.175 -3.35 3.35 -2.5 2.5 C-1.675 1.675 -0.85 0.85 0 0 Z " fill="#ABAABA" transform="translate(51,114)"/>
<path d="M0 0 C5.11918146 -0.1765235 9.24983365 -0.2012966 14 2 C14.33 2.99 14.66 3.98 15 5 C17.01508358 5.73323796 17.01508358 5.73323796 19 6 C19.33 4.68 19.66 3.36 20 2 C23.0952381 6.33333333 23.0952381 6.33333333 22.6875 9.1875 C22.460625 10.115625 22.23375 11.04375 22 12 C21.89739068 15.33480299 21.94170909 18.66446477 22 22 C18.2578125 24.015625 18.2578125 24.015625 15.9375 23.875 C13.35789228 22.71001587 12.39680726 21.44441271 11 19 C11 17.68 11 16.36 11 15 C10.01 14.67 9.02 14.34 8 14 C7.29848848 12.6846659 6.63474075 11.34882408 6 10 C5.484375 9.505 4.96875 9.01 4.4375 8.5 C2.72790342 6.71607314 2.55137924 5.3630539 2 3 C1.34 2.67 0.68 2.34 0 2 C0 1.34 0 0.68 0 0 Z " fill="#F4B071" transform="translate(100,48)"/>
<path d="M0 0 C1.21236328 0.01353516 1.21236328 0.01353516 2.44921875 0.02734375 C3.37154297 0.04474609 3.37154297 0.04474609 4.3125 0.0625 C4.3125 0.7225 4.3125 1.3825 4.3125 2.0625 C4.951875 2.330625 5.59125 2.59875 6.25 2.875 C8.3125 4.0625 8.3125 4.0625 9.3125 7.0625 C9.9725 7.3925 10.6325 7.7225 11.3125 8.0625 C12.36602843 10.37215848 13.36969096 12.7054774 14.3125 15.0625 C15.3025 15.0625 16.2925 15.0625 17.3125 15.0625 C17.9725 15.3925 18.6325 15.7225 19.3125 16.0625 C19.9725 15.7325 20.6325 15.4025 21.3125 15.0625 C21.3125 11.4325 21.3125 7.8025 21.3125 4.0625 C21.9725 4.0625 22.6325 4.0625 23.3125 4.0625 C23.3125 5.7125 23.3125 7.3625 23.3125 9.0625 C23.9725 9.3925 24.6325 9.7225 25.3125 10.0625 C24.6525 14.0225 23.9925 17.9825 23.3125 22.0625 C24.3025 21.4025 25.2925 20.7425 26.3125 20.0625 C28.5 20.4375 28.5 20.4375 30.3125 21.0625 C29.6525 21.0625 28.9925 21.0625 28.3125 21.0625 C28.3125 21.7225 28.3125 22.3825 28.3125 23.0625 C25.16117457 24.11294181 22.64797434 24.01888806 19.36328125 23.96484375 C16.48410319 24.10194747 14.02183646 25.1201221 11.3125 26.0625 C7.9375 26.1875 7.9375 26.1875 5.3125 26.0625 C5.3125 25.7325 5.3125 25.4025 5.3125 25.0625 C6.9625 25.0625 8.6125 25.0625 10.3125 25.0625 C9.29714911 15.53326347 9.29714911 15.53326347 5.3125 7.0625 C1.07192484 4.74218529 -2.90588112 3.64562425 -7.6875 3.0625 C-7.6875 2.4025 -7.6875 1.7425 -7.6875 1.0625 C-4.80538698 0.10179566 -2.98899956 -0.04331883 0 0 Z " fill="#E19563" transform="translate(99.6875,54.9375)"/>
<path d="M0 0 C4.02992782 0.55312735 8.02022924 1.1558062 12 2 C12 2.33 12 2.66 12 3 C11.07767578 3.27263672 11.07767578 3.27263672 10.13671875 3.55078125 C9.32847656 3.80214844 8.52023438 4.05351563 7.6875 4.3125 C6.88699219 4.55613281 6.08648437 4.79976562 5.26171875 5.05078125 C2.84537399 6.06489486 1.60993504 6.94733282 0 9 C-0.7269226 12.10839021 -0.7269226 12.10839021 -1 15 C-0.401875 15.268125 0.19625 15.53625 0.8125 15.8125 C2.97224808 16.98493467 4.35790256 18.19369282 6 20 C1.97563355 19.3808667 -0.85161133 17.51871094 -4 15 C-4.875 12.25 -4.875 12.25 -5 10 C-6.96301592 13.50538557 -7.95902388 17.13351728 -9 21 C-8.505 21.45375 -8.01 21.9075 -7.5 22.375 C-6 24 -6 24 -6 26 C-5.195625 26.2475 -4.39125 26.495 -3.5625 26.75 C-1 28 -1 28 -0.1875 30.125 C-0.125625 30.74375 -0.06375 31.3625 0 32 C-6.75 31.125 -6.75 31.125 -9 30 C-9 29.34 -9 28.68 -9 28 C-10.65 27.67 -12.3 27.34 -14 27 C-13.34 26.34 -12.68 25.68 -12 25 C-12.01747888 22.40730017 -12.13768592 19.9474846 -12.375 17.375 C-12.43171875 16.66859375 -12.4884375 15.9621875 -12.546875 15.234375 C-12.68840921 13.48878639 -12.84297387 11.74426327 -13 10 C-11.865625 9.443125 -10.73125 8.88625 -9.5625 8.3125 C-6.44531169 6.5777124 -6.44531169 6.5777124 -5.0625 3.25 C-5.041875 2.5075 -5.02125 1.765 -5 1 C-3.35 1.33 -1.7 1.66 0 2 C0 1.34 0 0.68 0 0 Z " fill="#D88A57" transform="translate(86,58)"/>
<path d="M0 0 C0.77085938 0.49371094 1.54171875 0.98742188 2.3359375 1.49609375 C3.33882812 2.13675781 4.34171875 2.77742188 5.375 3.4375 C6.37273437 4.07558594 7.37046875 4.71367188 8.3984375 5.37109375 C10.85830521 6.96899211 10.85830521 6.96899211 13 8 C12.690625 8.7425 12.38125 9.485 12.0625 10.25 C10.73660704 13.68172295 10 16.3149269 10 20 C7.28344597 21.35827701 5.09210594 21.1323445 2.0625 21.125 C1.00160156 21.12757812 -0.05929688 21.13015625 -1.15234375 21.1328125 C-4 21 -4 21 -7 20 C-7.6875 17.9375 -7.6875 17.9375 -8 16 C-3.25 13.125 -3.25 13.125 -1 12 C-0.53101037 9.1840151 -0.53101037 9.1840151 -0.375 5.9375 C-0.26285156 4.28041016 -0.26285156 4.28041016 -0.1484375 2.58984375 C-0.09945312 1.73519531 -0.05046875 0.88054688 0 0 Z " fill="#ABC9D2" transform="translate(74,34)"/>
<path d="M0 0 C1.32 0 2.64 0 4 0 C4 1.32 4 2.64 4 4 C2.35546875 5.484375 2.35546875 5.484375 0.1875 6.75 C-0.87404297 7.39195313 -0.87404297 7.39195313 -1.95703125 8.046875 C-4 9 -4 9 -7 9 C-7.33 9.66 -7.66 10.32 -8 11 C-5.525 11.495 -5.525 11.495 -3 12 C-3 14.31 -3 16.62 -3 19 C-4.875 19.625 -4.875 19.625 -7 20 C-7.66 19.34 -8.32 18.68 -9 18 C-9 17.01 -9 16.02 -9 15 C-9.99 16.485 -9.99 16.485 -11 18 C-11.66 18 -12.32 18 -13 18 C-13.99 20.475 -13.99 20.475 -15 23 C-16.9375 22.625 -16.9375 22.625 -19 22 C-19.33 21.34 -19.66 20.68 -20 20 C-20.99 20 -21.98 20 -23 20 C-23.33 18.35 -23.66 16.7 -24 15 C-22.88625 14.484375 -21.7725 13.96875 -20.625 13.4375 C-16.23954683 11.25645757 -12.35305381 8.55496149 -8.39453125 5.68359375 C-5.99352145 3.99544493 -3.52028054 2.50172157 -1 1 C-0.67 0.67 -0.34 0.34 0 0 Z " fill="#DE936B" transform="translate(67,87)"/>
<path d="M0 0 C3.47200492 0.61724532 6.36035831 0.10920148 9.8125 -0.5 C6.66336172 5.67715586 3.62106429 9.3952671 -2.5625 12.8125 C-6.19169092 13.76300238 -9.43985316 13.62703888 -13.1875 13.5 C-12.1875 10.5 -12.1875 10.5 -10.25 9.125 C-7.76474909 7.16692353 -7.14992552 5.46747869 -6.1875 2.5 C-5.5275 2.5 -4.8675 2.5 -4.1875 2.5 C-4.1875 1.84 -4.1875 1.18 -4.1875 0.5 C-2.1875 -0.5 -2.1875 -0.5 0 0 Z " fill="#F7D892" transform="translate(92.1875,107.5)"/>
<path d="M0 0 C2.26979665 -0.10794277 4.54105196 -0.18556176 6.8125 -0.25 C8.07707031 -0.29640625 9.34164062 -0.3428125 10.64453125 -0.390625 C14 0 14 0 15.9609375 1.87890625 C17 4 17 4 16.8125 6.1875 C16 8 16 8 14 9 C7.93167094 9.38350035 1.99922766 8.88877447 -4 8 C-2.68 5.36 -1.36 2.72 0 0 Z " fill="#BA6C64" transform="translate(105,101)"/>
<path d="M0 0 C3.59391114 1.33488128 6.75490696 2.96022723 10 5 C10 4.34 10 3.68 10 3 C11.32 3.33 12.64 3.66 14 4 C14 5.32 14 6.64 14 8 C12 10 12 10 8.6875 10.0625 C6.8621875 10.0315625 6.8621875 10.0315625 5 10 C2.22252318 10.28639786 2.22252318 10.28639786 0 11 C-0.33 11.66 -0.66 12.32 -1 13 C-1 12.34 -1 11.68 -1 11 C-1.99 11.33 -2.98 11.66 -4 12 C-6.6875 11.5625 -6.6875 11.5625 -9 11 C-9.33 9.68 -9.66 8.36 -10 7 C-8.63875 6.8453125 -8.63875 6.8453125 -7.25 6.6875 C-3.95723628 5.99095383 -2.3594032 5.3594032 0 3 C0 2.01 0 1.02 0 0 Z " fill="#BC6558" transform="translate(103,87)"/>
<path d="M0 0 C0.59425781 0.13277344 1.18851562 0.26554687 1.80078125 0.40234375 C19.16748007 4.38723526 19.16748007 4.38723526 36 2 C36 1.34 36 0.68 36 0 C38.99332739 0.9977758 39.94766315 1.7522025 42 4 C41.34 5.32 40.68 6.64 40 8 C37.69 7.67 35.38 7.34 33 7 C33 7.66 33 8.32 33 9 C30.42068859 7.96827544 27.85389631 6.93544256 25.3125 5.8125 C24.549375 5.544375 23.78625 5.27625 23 5 C22.01 5.495 22.01 5.495 21 6 C19.04362486 6.0969632 17.08377069 6.12978917 15.125 6.125 C14.07570313 6.12757812 13.02640625 6.13015625 11.9453125 6.1328125 C5.97630332 5.86365293 5.97630332 5.86365293 3.375 3.5625 C2.92125 3.046875 2.4675 2.53125 2 2 C1.34 1.34 0.68 0.68 0 0 Z " fill="#DA8D58" transform="translate(80,83)"/>
<path d="M0 0 C-0.32742187 0.70511719 -0.65484375 1.41023438 -0.9921875 2.13671875 C-2.08400722 5.23867167 -2.20385396 7.54006053 -2.125 10.8125 C-2.09792969 12.27623047 -2.09792969 12.27623047 -2.0703125 13.76953125 C-2.04710938 14.50558594 -2.02390625 15.24164063 -2 16 C-2.66 16.33 -3.32 16.66 -4 17 C-4 16.34 -4 15.68 -4 15 C-4.7425 14.731875 -5.485 14.46375 -6.25 14.1875 C-8.99053046 13.00408912 -10.92619135 12.15061637 -13 10 C-13.5 7.0625 -13.5 7.0625 -13 4 C-11.03087283 1.30156647 -9.67626878 0.21978735 -6.5 -0.8125 C-4.03804693 -0.99714648 -2.3278195 -0.77593983 0 0 Z " fill="#CED0C8" transform="translate(98,63)"/>
<path d="M0 0 C0.80872559 0.00193359 1.61745117 0.00386719 2.45068359 0.00585938 C7.82522247 0.04482884 13.05208153 0.33641949 18.375 1.125 C18.705 2.115 19.035 3.105 19.375 4.125 C20.86 4.62 20.86 4.62 22.375 5.125 C22.375 6.115 22.375 7.105 22.375 8.125 C21.715 8.125 21.055 8.125 20.375 8.125 C20.045 9.115 19.715 10.105 19.375 11.125 C18.385 11.125 17.395 11.125 16.375 11.125 C16.375 8.815 16.375 6.505 16.375 4.125 C13.47426819 3.44698966 13.47426819 3.44698966 10.375 3.125 C9.715 3.785 9.055 4.445 8.375 5.125 C7.715 5.785 7.055 6.445 6.375 7.125 C5.75625 6.795 5.1375 6.465 4.5 6.125 C0.7521794 4.92569741 -2.41708128 5.01590862 -6.3203125 5.15234375 C-8.625 5.125 -8.625 5.125 -11.625 4.125 C-11.625 3.135 -11.625 2.145 -11.625 1.125 C-7.73840619 -0.17053127 -4.04893142 -0.02291694 0 0 Z " fill="#E3D0AF" transform="translate(25.625,101.875)"/>
<path d="M0 0 C1.75 0.0625 1.75 0.0625 4 1 C7.11734536 5.41623925 8.75482975 8.46458185 8 14 C7.01 15.485 7.01 15.485 6 17 C2.65626525 16.44271087 -0.03312999 15.64826111 -3 14 C-3 13.34 -3 12.68 -3 12 C-3.66 12 -4.32 12 -5 12 C-4.67 9.03 -4.34 6.06 -4 3 C-3.34 3 -2.68 3 -2 3 C-1.06576355 6.01031744 -0.95550089 6.86650268 -2 10 C0.5609294 8.20142332 0.5609294 8.20142332 3 6 C3.33218192 2.99740483 3.33218192 2.99740483 1.5 1.3125 C1.005 0.879375 0.51 0.44625 0 0 Z " fill="#3B101A" transform="translate(100,62)"/>
<path d="M0 0 C0.33 0.66 0.66 1.32 1 2 C1.804375 1.690625 1.804375 1.690625 2.625 1.375 C5.83267308 0.8685253 8.01317066 1.84599775 11 3 C10.5625 5.375 10.5625 5.375 9 8 C4.02770765 10.09784343 -0.77921846 10.33866193 -6 9 C-6 9.66 -6 10.32 -6 11 C-6.66 11 -7.32 11 -8 11 C-6.79271637 6.57329336 -5.52441688 3.97372674 -2 1 C-1.34 0.67 -0.68 0.34 0 0 Z " fill="#DE935C" transform="translate(94,99)"/>
<path d="M0 0 C5.11918146 -0.1765235 9.24983365 -0.2012966 14 2 C14.33 2.99 14.66 3.98 15 5 C17.00016466 6.20882096 17.00016466 6.20882096 19 7 C19 8.32 19 9.64 19 11 C16.69 11.66 14.38 12.32 12 13 C11.59007813 12.43410156 11.18015625 11.86820313 10.7578125 11.28515625 C10.21898438 10.55167969 9.68015625 9.81820312 9.125 9.0625 C8.59132813 8.33160156 8.05765625 7.60070313 7.5078125 6.84765625 C6.11987896 4.88901765 6.11987896 4.88901765 4 4 C4 3.01 4 2.02 4 1 C2.68 1.33 1.36 1.66 0 2 C0 1.34 0 0.68 0 0 Z " fill="#F4D395" transform="translate(100,48)"/>
<path d="M0 0 C-0.56925305 3.30166768 -1.41498779 4.86809106 -4 7 C-6.15625 7.6953125 -6.15625 7.6953125 -8.5 8.125 C-11.11658703 8.62215154 -13.46180095 9.15393365 -16 10 C-16.66 10 -17.32 10 -18 10 C-17.72790999 6.73491983 -17.23653436 5.25870946 -15 2.8125 C-10.3358239 -0.00543973 -5.28975769 -1.76325256 0 0 Z " fill="#A4B3C2" transform="translate(80,58)"/>
<path d="M0 0 C3.4375 0.375 3.4375 0.375 6.4375 2.375 C7.125 5 7.125 5 7.4375 7.375 C-0.43946335 11.08180628 -0.43946335 11.08180628 -4.5625 10.375 C-6.5625 7.375 -6.5625 7.375 -7.5625 4.375 C-5.10203958 1.22561066 -4.06086947 0.42745994 0 0 Z " fill="#A9C7D0" transform="translate(78.5625,19.625)"/>
<path d="M0 0 C1.97956441 0.14033111 3.95865141 0.2874123 5.9375 0.4375 C7.03964844 0.51871094 8.14179687 0.59992187 9.27734375 0.68359375 C12 1 12 1 13 2 C13.14115161 4.67058851 13.04247107 7.32432238 13 10 C10.69 11.32 8.38 12.64 6 14 C6 16.64 6 19.28 6 22 C5.67 22 5.34 22 5 22 C4.67 20.35 4.34 18.7 4 17 C1.36 16.67 -1.28 16.34 -4 16 C-4 15.01 -4 14.02 -4 13 C-2.7625 12.67 -1.525 12.34 -0.25 12 C0.79414062 11.7215625 0.79414062 11.7215625 1.859375 11.4375 C4 11 4 11 8 11 C8.33 10.01 8.66 9.02 9 8 C9.66 7.67 10.32 7.34 11 7 C11 6.01 11 5.02 11 4 C6.545 4.495 6.545 4.495 2 5 C1.34 3.35 0.68 1.7 0 0 Z " fill="#9D7684" transform="translate(68,54)"/>
<path d="M0 0 C3.75757576 1.45454545 3.75757576 1.45454545 4.75 3.6875 C5.63476071 11.87153652 5.63476071 11.87153652 3.875 15 C2.45434873 18.24720291 3.88754139 20.78623069 5 24 C4.34 24 3.68 24 3 24 C3 23.34 3 22.68 3 22 C2.34 22 1.68 22 1 22 C0.96132812 21.12988281 0.96132812 21.12988281 0.921875 20.2421875 C0.51634452 14.65692681 -0.66806756 11.62171275 -4 7 C-4 5.68 -4 4.36 -4 3 C-3.01 3 -2.02 3 -1 3 C-0.67 2.01 -0.34 1.02 0 0 Z " fill="#B2C2CB" transform="translate(122,42)"/>
<path d="M0 0 C1.15628906 0.74056641 1.15628906 0.74056641 2.3359375 1.49609375 C3.33882813 2.13675781 4.34171875 2.77742188 5.375 3.4375 C6.37273437 4.07558594 7.37046875 4.71367188 8.3984375 5.37109375 C10.85830521 6.96899211 10.85830521 6.96899211 13 8 C12.1875 10.4375 12.1875 10.4375 11 13 C7.28523623 14.23825459 4.81171187 13.70587257 1 13 C0 12 0 12 -0.09765625 9.27734375 C-0.08605469 8.17519531 -0.07445313 7.07304688 -0.0625 5.9375 C-0.05347656 4.83277344 -0.04445313 3.72804687 -0.03515625 2.58984375 C-0.02355469 1.73519531 -0.01195313 0.88054688 0 0 Z " fill="#F7EACD" transform="translate(74,34)"/>
<path d="M0 0 C0.99 0 1.98 0 3 0 C3 1.32 3 2.64 3 4 C4.0725 3.690625 5.145 3.38125 6.25 3.0625 C8.82866222 2.33187904 11.39512102 1.62517096 14 1 C13.67 1.763125 13.34 2.52625 13 3.3125 C11.82563314 5.99069135 11.82563314 5.99069135 12 9 C12.66 9.66 13.32 10.32 14 11 C14.12375 11.66 14.2475 12.32 14.375 13 C14.82123176 15.20265017 14.82123176 15.20265017 17.0625 16.25 C17.701875 16.4975 18.34125 16.745 19 17 C12.64235416 16.02620565 7.35788908 12.93510904 3.30859375 7.89453125 C0 2.71955128 0 2.71955128 0 0 Z " fill="#977A8D" transform="translate(71,26)"/>
<path d="M0 0 C0.66 0.33 1.32 0.66 2 1 C1.45773019 4.79588866 -0.20127563 6.47211993 -3 9 C-2.01 9.33 -1.02 9.66 0 10 C-4.41225737 11.47075246 -7.48281619 12.36884358 -12 11 C-12.33 10.01 -12.66 9.02 -13 8 C-12.67 7.67 -12.34 7.34 -12 7 C-12.66 6.34 -13.32 5.68 -14 5 C-13.40832031 4.80664062 -12.81664063 4.61328125 -12.20703125 4.4140625 C-8.77305494 3.28247487 -5.39149191 2.1665923 -2.0625 0.75 C-1.381875 0.5025 -0.70125 0.255 0 0 Z " fill="#AC5B62" transform="translate(82,112)"/>
<path d="M0 0 C0.33 1.32 0.66 2.64 1 4 C0.01 4.33 -0.98 4.66 -2 5 C-2 5.66 -2 6.32 -2 7 C-2.66 7 -3.32 7 -4 7 C-4.33 7.99 -4.66 8.98 -5 10 C-6.6875 10.875 -6.6875 10.875 -9 11 C-12.25 9.5625 -12.25 9.5625 -15 8 C-13.84826645 5.53199953 -12.95216435 3.95216435 -11 2 C-8.3984375 1.3671875 -8.3984375 1.3671875 -5.375 0.875 C-4.37210938 0.70742187 -3.36921875 0.53984375 -2.3359375 0.3671875 C-1.17964844 0.18542969 -1.17964844 0.18542969 0 0 Z " fill="#CC7A53" transform="translate(80,104)"/>
<path d="M0 0 C3.3 0.66 6.6 1.32 10 2 C9 7 9 7 6.8203125 8.80078125 C5.93085937 9.29964844 5.04140625 9.79851562 4.125 10.3125 C3.24070312 10.82425781 2.35640625 11.33601563 1.4453125 11.86328125 C-1 13 -1 13 -4 13 C-3.25130208 11.07942708 -2.50260417 9.15885417 -1.75390625 7.23828125 C-0.8059285 4.58061693 -0.8059285 4.58061693 0 0 Z " fill="#7B687C" transform="translate(56,83)"/>
<path d="M0 0 C1.051875 0.7734375 1.051875 0.7734375 2.125 1.5625 C5.60887535 3.30443767 7.2983569 2.94693195 11 2 C11.66 3.32 12.32 4.64 13 6 C8.31506124 8.48887372 5.0555786 7.85687773 0 7 C0.99 5.68 1.98 4.36 3 3 C2.01 3.66 1.02 4.32 0 5 C-2.6875 5.125 -2.6875 5.125 -5 5 C-3.68 5.99 -2.36 6.98 -1 8 C-4 9 -7 10 -10 11 C-10.33 9.68 -10.66 8.36 -11 7 C-9.68 6.67 -8.36 6.34 -7 6 C-7.33 4.35 -7.66 2.7 -8 1 C-6.576875 1.495 -6.576875 1.495 -5.125 2 C-2.22937548 3.10159191 -2.22937548 3.10159191 0 3 C0 2.01 0 1.02 0 0 Z " fill="#ABA7B9" transform="translate(91,48)"/>
<path d="M0 0 C3.34296907 6.64096546 6.24941548 12.4941548 7 20 C7.33 20.99 7.66 21.98 8 23 C7.01 22.67 6.02 22.34 5 22 C5 21.01 5 20.02 5 19 C2.69 19.66 0.38 20.32 -2 21 C-1.67 17.04 -1.34 13.08 -1 9 C-0.01 9.33 0.98 9.66 2 10 C1.65213292 8.02463255 1.65213292 8.02463255 1 6 C0.34 5.67 -0.32 5.34 -1 5 C-0.67 3.35 -0.34 1.7 0 0 Z " fill="#836D79" transform="translate(125,56)"/>
<path d="M0 0 C1.9375 1.6875 1.9375 1.6875 3 4 C3.1875 6.75 3.1875 6.75 3 9 C-1.05431692 10.15837626 -3.21812119 9.83691257 -7 8 C-7 6.68 -7 5.36 -7 4 C-7.99 4.99 -8.98 5.98 -10 7 C-9.625 4.0625 -9.625 4.0625 -9 1 C-5.9167365 -0.54163175 -3.39121901 -0.29747535 0 0 Z " fill="#A9ADC0" transform="translate(110,20)"/>
<path d="M0 0 C5.45454545 1.45454545 5.45454545 1.45454545 7.75 3.75 C10.95352607 9.51634692 11.25768772 14.55780705 11 21 C6.57117061 22.10720735 2.53942698 22.22325051 -2 22 C-4 20 -4 20 -4.125 17.375 C-4.08375 16.59125 -4.0425 15.8075 -4 15 C-3.34 15 -2.68 15 -2 15 C-2 15.66 -2 16.32 -2 17 C0.98241547 17.77321882 3.97580475 18.41196203 7 19 C8.74592872 15.50814255 7.84327662 11.71427946 7 8 C5.25590249 5.1099784 5.25590249 5.1099784 3 3 C2.4225 2.401875 1.845 1.80375 1.25 1.1875 C0.63125 0.5996875 0.63125 0.5996875 0 0 Z " fill="#C87553" transform="translate(99,59)"/>
<path d="M0 0 C0 0.66 0 1.32 0 2 C-0.66 2 -1.32 2 -2 2 C-2.33 2.99 -2.66 3.98 -3 5 C-3.66 5 -4.32 5 -5 5 C-4.67 6.32 -4.34 7.64 -4 9 C-2.35 9.33 -0.7 9.66 1 10 C0.34 11.65 -0.32 13.3 -1 15 C-2.65 15 -4.3 15 -6 15 C-5.67 13.35 -5.34 11.7 -5 10 C-5.99 10.33 -6.98 10.66 -8 11 C-8 10.01 -8 9.02 -8 8 C-9.65 7.67 -11.3 7.34 -13 7 C-12.34 5.35 -11.68 3.7 -11 2 C-10.34 2.66 -9.68 3.32 -9 4 C-8.071875 3.34 -7.14375 2.68 -6.1875 2 C-3 0 -3 0 0 0 Z " fill="#9B626F" transform="translate(72,91)"/>
<path d="M0 0 C1.32 0 2.64 0 4 0 C4 1.32 4 2.64 4 4 C2.35546875 5.484375 2.35546875 5.484375 0.1875 6.75 C-0.87404297 7.39195313 -0.87404297 7.39195313 -1.95703125 8.046875 C-4 9 -4 9 -7 9 C-8.71711243 11.44496043 -8.71711243 11.44496043 -10 14 C-11.65 13.67 -13.3 13.34 -15 13 C-15 12.01 -15 11.02 -15 10 C-13.20703125 8.5 -13.20703125 8.5 -10.8125 7 C-9.99394531 6.48050781 -9.17539062 5.96101563 -8.33203125 5.42578125 C-5.89620884 3.93654309 -3.45490194 2.45759803 -1 1 C-0.67 0.67 -0.34 0.34 0 0 Z " fill="#ADC9D3" transform="translate(67,87)"/>
<path d="M0 0 C4.42400676 1.13760174 6.60133719 3.23042461 9.046875 6.9296875 C10.7353046 10.59717803 10.82529292 14.07796575 10 18 C8.25 20.5625 8.25 20.5625 6 22 C4.68 22 3.36 22 2 22 C2 21.01 2 20.02 2 19 C2.99 18.67 3.98 18.34 5 18 C5.33 18.33 5.66 18.66 6 19 C6.2832505 15.29256567 6.45463741 11.69735243 6 8 C3.75047818 5.88265812 3.75047818 5.88265812 1 5 C0.34 4.01 -0.32 3.02 -1 2 C-0.67 1.34 -0.34 0.68 0 0 Z " fill="#B58F98" transform="translate(130,78)"/>
<path d="M0 0 C0 1.32 0 2.64 0 4 C1.65 4 3.3 4 5 4 C4.67 4.66 4.34 5.32 4 6 C-2.65464893 7.62308511 -9.32578053 7.33484389 -16 6 C-11.97546176 1.97546176 -5.72816998 -0.73911871 0 0 Z " fill="#8E879E" transform="translate(70,119)"/>
<path d="M0 0 C5.17680561 -0.59732372 8.63602378 0.15834107 13 3 C14.4375 5 14.4375 5 15 7 C14.67 7.99 14.34 8.98 14 10 C13.566875 9.360625 13.13375 8.72125 12.6875 8.0625 C9.0139294 5.24324814 5.89711985 5.42956969 1.36328125 5.2734375 C0.58339844 5.18320313 -0.19648437 5.09296875 -1 5 C-1.33 4.34 -1.66 3.68 -2 3 C-1.34 2.01 -0.68 1.02 0 0 Z " fill="#B48B99" transform="translate(108,96)"/>
<path d="M0 0 C1.21236328 0.01353516 1.21236328 0.01353516 2.44921875 0.02734375 C3.37154297 0.04474609 3.37154297 0.04474609 4.3125 0.0625 C4.3125 0.7225 4.3125 1.3825 4.3125 2.0625 C4.93125 2.248125 5.55 2.43375 6.1875 2.625 C9.36852866 4.77687233 9.50701947 7.43783763 10.3125 11.0625 C9.6525 11.7225 8.9925 12.3825 8.3125 13.0625 C7.961875 12.134375 7.61125 11.20625 7.25 10.25 C4.77530242 6.17872333 2.79038492 5.50453074 -1.6875 4.0625 C-3.67571313 3.66485737 -5.67482362 3.30794834 -7.6875 3.0625 C-7.6875 2.4025 -7.6875 1.7425 -7.6875 1.0625 C-4.80538698 0.10179566 -2.98899956 -0.04331883 0 0 Z " fill="#DD9783" transform="translate(99.6875,54.9375)"/>
<path d="M0 0 C-0.5859375 6.15234375 -0.5859375 6.15234375 -1 8 C-1.99 8.495 -1.99 8.495 -3 9 C-5.0625 8.25 -5.0625 8.25 -7 7 C-7.33 6.01 -7.66 5.02 -8 4 C-8.66 3.67 -9.32 3.34 -10 3 C-10 1.68 -10 0.36 -10 -1 C-6.06329512 -2.31223496 -3.87511856 -1.24296256 0 0 Z " fill="#F8E7BF" transform="translate(43,106)"/>
<path d="M0 0 C0.875 2.125 0.875 2.125 1 5 C-0.61694943 7.51782125 -2.48217875 9.38305057 -5 11 C-7.875 10.875 -7.875 10.875 -10 10 C-9.43867066 6.4628562 -8.30442253 5.00738321 -5.5625 2.75 C-4.94503906 2.22921875 -4.32757813 1.7084375 -3.69140625 1.171875 C-2 0 -2 0 0 0 Z " fill="#A8BFCB" transform="translate(39,131)"/>
<path d="M0 0 C0.66 0 1.32 0 2 0 C1.875 2.25 1.875 2.25 1 5 C-3.28422867 8.35287461 -6.74848641 10.15166416 -12.1875 10.0625 C-14.0746875 10.0315625 -14.0746875 10.0315625 -16 10 C-15.67 9.01 -15.34 8.02 -15 7 C-12.23735711 6.40267181 -9.83967231 6 -7 6 C-6.34 4.68 -5.68 3.36 -5 2 C-3.35 2 -1.7 2 0 2 C0 1.34 0 0.68 0 0 Z " fill="#F3DDA3" transform="translate(95,111)"/>
<path d="M0 0 C2.54982355 1.13325491 4.35178214 2.29901482 6.5 4.125 C9.0125 6.4 9.0125 6.4 13 6 C13 6.66 13 7.32 13 8 C12.01 8 11.02 8 10 8 C10.66 11.3 11.32 14.6 12 18 C9.625 17.5625 9.625 17.5625 7 16 C6.31557127 13.76894013 5.97902312 11.55958216 5.6015625 9.2578125 C4.70775606 5.90313638 2.56177528 4.22469959 0 2 C0 1.34 0 0.68 0 0 Z " fill="#BD8B8E" transform="translate(108,37)"/>
<path d="M0 0 C3.875 1.75 3.875 1.75 5 4 C9.96098482 5.24024621 14.92441192 5.10151176 20 5 C16.7178755 8.2821245 12.4890247 7.86321531 8 8 C4.64337043 7.8089723 1.32978796 7.46050259 -2 7 C-2.58984375 5.109375 -2.58984375 5.109375 -3 3 C-1.5625 1.25 -1.5625 1.25 0 0 Z " fill="#DA8D58" transform="translate(70,93)"/>
<path d="M0 0 C7.24539726 -0.53449652 11.72912263 0.28392452 18 4 C18 5.32 18 6.64 18 8 C17.34 8 16.68 8 16 8 C15.67 8.99 15.34 9.98 15 11 C14.67 9.02 14.34 7.04 14 5 C12.35 5.33 10.7 5.66 9 6 C9 5.01 9 4.02 9 3 C7.88625 3.061875 6.7725 3.12375 5.625 3.1875 C4.42875 3.125625 3.2325 3.06375 2 3 C1.34 2.01 0.68 1.02 0 0 Z " fill="#C39095" transform="translate(57,82)"/>
<path d="M0 0 C2.99332739 0.9977758 3.94766315 1.7522025 6 4 C5.34 5.32 4.68 6.64 4 8 C1.69 7.67 -0.62 7.34 -3 7 C-3 7.66 -3 8.32 -3 9 C-5.91517292 7.92598892 -7.77810176 7.22189824 -10 5 C-8.906875 4.87625 -7.81375 4.7525 -6.6875 4.625 C-2.92618198 4.24535199 -2.92618198 4.24535199 0 2 C0 1.34 0 0.68 0 0 Z " fill="#D28153" transform="translate(116,83)"/>
<path d="M0 0 C4.02992782 0.55312735 8.02022924 1.1558062 12 2 C12 2.33 12 2.66 12 3 C11.37351562 3.19335938 10.74703125 3.38671875 10.1015625 3.5859375 C9.28429687 3.84632812 8.46703125 4.10671875 7.625 4.375 C6.81289062 4.63023438 6.00078125 4.88546875 5.1640625 5.1484375 C2.83540815 5.89854283 2.83540815 5.89854283 1 8 C-1.625 7.625 -1.625 7.625 -4 7 C-4.33 5.02 -4.66 3.04 -5 1 C-2.525 1.495 -2.525 1.495 0 2 C0 1.34 0 0.68 0 0 Z " fill="#3C121C" transform="translate(86,58)"/>
<path d="M0 0 C0.66 0 1.32 0 2 0 C2.93423645 3.01031744 3.04449911 3.86650268 2 7 C2.99 7.33 3.98 7.66 5 8 C5 8.66 5 9.32 5 10 C7.97 10.495 7.97 10.495 11 11 C10.67 11.99 10.34 12.98 10 14 C6.65626525 13.44271087 3.96687001 12.64826111 1 11 C1 10.34 1 9.68 1 9 C0.34 9 -0.32 9 -1 9 C-0.67 6.03 -0.34 3.06 0 0 Z " fill="#650D17" transform="translate(96,65)"/>
<path d="M0 0 C2.11103658 2.95545121 2.19785783 5.43855901 2 9 C0.948125 8.360625 -0.10375 7.72125 -1.1875 7.0625 C-4.10828412 5.38245548 -6.6171743 4.41003948 -10 4 C-9 1 -9 1 -6.6875 -0.25 C-3.84861385 -1.0422473 -2.64083481 -1.27488577 0 0 Z " fill="#F2E1BD" transform="translate(133,86)"/>
<path d="M0 0 C0.99 0 1.98 0 3 0 C3 0.66 3 1.32 3 2 C3.99 2.33 4.98 2.66 6 3 C5.01 3.66 4.02 4.32 3 5 C3.90492187 4.94779297 3.90492187 4.94779297 4.828125 4.89453125 C11.4373928 4.67066895 11.4373928 4.67066895 14.5625 6.5 C15.036875 6.995 15.51125 7.49 16 8 C10.1314592 9.14819277 4.9114744 8.77313045 -1 8 C-0.649375 7.236875 -0.29875 6.47375 0.0625 5.6875 C1.32360884 2.95240621 1.32360884 2.95240621 0 0 Z " fill="#E89C61" transform="translate(91,78)"/>
<path d="M0 0 C3.5875213 1.33250791 6.8364623 2.830717 10 5 C10 5.66 10 6.32 10 7 C10.66 7.33 11.32 7.66 12 8 C8.35339566 8.93285227 6.65375657 9.34173639 3.25 7.5625 C2.5075 7.046875 1.765 6.53125 1 6 C0.34 6 -0.32 6 -1 6 C-1.625 4.125 -1.625 4.125 -2 2 C-1.34 1.34 -0.68 0.68 0 0 Z " fill="#F5AC6C" transform="translate(81,73)"/>
<path d="M0 0 C0.66 0 1.32 0 2 0 C1.67 0.928125 1.34 1.85625 1 2.8125 C-0.14967004 5.92029291 -0.14967004 5.92029291 0 9 C0.66 9 1.32 9 2 9 C1.67 10.32 1.34 11.64 1 13 C0.34 13 -0.32 13 -1 13 C-1 11.68 -1 10.36 -1 9 C-1.66 9 -2.32 9 -3 9 C-3.226875 9.598125 -3.45375 10.19625 -3.6875 10.8125 C-5.33811133 13.56351888 -7.1972081 14.52484637 -10 16 C-8.56007449 11.89771221 -6.55506592 8.69601883 -4 5.1875 C-3.29875 4.21167969 -2.5975 3.23585938 -1.875 2.23046875 C-1.25625 1.49441406 -0.6375 0.75835937 0 0 Z " fill="#AC92A2" transform="translate(54,105)"/>
<path d="M0 0 C0.33 0.66 0.66 1.32 1 2 C-10.83016386 6.90467647 -10.83016386 6.90467647 -16 5 C-16.33 4.34 -16.66 3.68 -17 3 C-11.10261508 0.70657253 -6.33393082 -0.34548714 0 0 Z " fill="#F6AF6E" transform="translate(125,78)"/>
<path d="M0 0 C2.0625 1.75 2.0625 1.75 4 4 C3.67 5.32 3.34 6.64 3 8 C0.03 7.67 -2.94 7.34 -6 7 C-6 5.68 -6 4.36 -6 3 C-4.68 3 -3.36 3 -2 3 C-2 2.34 -2 1.68 -2 1 C-1.34 0.67 -0.68 0.34 0 0 Z " fill="#A75A68" transform="translate(118,101)"/>
<path d="M0 0 C1.134375 0.474375 2.26875 0.94875 3.4375 1.4375 C7.91298952 3.1348234 12.24712186 3.68094105 17 4 C17 4.66 17 5.32 17 6 C11.16524985 6.85330338 6.55139349 7.48351814 1 5 C1 4.34 1 3.68 1 3 C0.01 2.67 -0.98 2.34 -2 2 C-1.34 1.34 -0.68 0.68 0 0 Z " fill="#EA9E61" transform="translate(73,92)"/>
<path d="M0 0 C0.33 0 0.66 0 1 0 C1.252 6.552 1.252 6.552 -0.125 9 C-1.54565127 12.24720291 -0.11245861 14.78623069 1 18 C0.34 18 -0.32 18 -1 18 C-1 17.34 -1 16.68 -1 16 C-1.66 16 -2.32 16 -3 16 C-3.07347656 15.12988281 -3.07347656 15.12988281 -3.1484375 14.2421875 C-3.59649405 9.56076908 -4.298021 5.42514541 -6 1 C-4.02 1.99 -4.02 1.99 -2 3 C-1.34 2.01 -0.68 1.02 0 0 Z " fill="#BC999E" transform="translate(126,48)"/>
<path d="M0 0 C0.33 0.99 0.66 1.98 1 3 C0.67 3.66 0.34 4.32 0 5 C-0.66 5 -1.32 5 -2 5 C-2.103125 5.61875 -2.20625 6.2375 -2.3125 6.875 C-3 9 -3 9 -6 11 C-6.103125 10.360625 -6.20625 9.72125 -6.3125 9.0625 C-6.539375 8.381875 -6.76625 7.70125 -7 7 C-7.99 6.67 -8.98 6.34 -10 6 C-9.67 4.68 -9.34 3.36 -9 2 C-8.34 2.33 -7.68 2.66 -7 3 C-7 3.66 -7 4.32 -7 5 C-6.34 5 -5.68 5 -5 5 C-4.731875 4.360625 -4.46375 3.72125 -4.1875 3.0625 C-3 1 -3 1 0 0 Z " fill="#F6E6C2" transform="translate(45,114)"/>
<path d="M0 0 C0.66 0 1.32 0 2 0 C1.67 0.99 1.34 1.98 1 3 C1.66 3.66 2.32 4.32 3 5 C2.01 5 1.02 5 0 5 C0 5.66 0 6.32 0 7 C-1.65 7.33 -3.3 7.66 -5 8 C-5 8.66 -5 9.32 -5 10 C-6.65 9.67 -8.3 9.34 -10 9 C-9.67 8.01 -9.34 7.02 -9 6 C-7.35 5.67 -5.7 5.34 -4 5 C-4.99 3.68 -5.98 2.36 -7 1 C-5.5459375 1.0309375 -5.5459375 1.0309375 -4.0625 1.0625 C-1.12534105 1.35618499 -1.12534105 1.35618499 0 0 Z " fill="#B07D88" transform="translate(92,51)"/>
<path d="M0 0 C4.7221901 0.48185613 7.70054372 2.69663433 11.3125 5.5625 C11.86228516 5.98724609 12.41207031 6.41199219 12.97851562 6.84960938 C14.3251827 7.89181259 15.66346201 8.94483843 17 10 C15.68 10.33 14.36 10.66 13 11 C12.67 10.34 12.34 9.68 12 9 C9.88153715 8.31270746 9.88153715 8.31270746 7.4375 7.875 C6.61121094 7.70742188 5.78492187 7.53984375 4.93359375 7.3671875 C4.29550781 7.24601562 3.65742187 7.12484375 3 7 C3.33 6.34 3.66 5.68 4 5 C3.34 4.360625 2.68 3.72125 2 3.0625 C0 1 0 1 0 0 Z " fill="#BF9CA4" transform="translate(84,37)"/>
<path d="M0 0 C2.97 0.495 2.97 0.495 6 1 C6 3.31 6 5.62 6 8 C4.125 8.625 4.125 8.625 2 9 C1.34 8.34 0.68 7.68 0 7 C0 6.01 0 5.02 0 4 C-0.99 4.495 -0.99 4.495 -2 5 C-1.34 3.35 -0.68 1.7 0 0 Z " fill="#C17C83" transform="translate(58,98)"/>
<path d="M0 0 C3.59391114 1.33488128 6.75490696 2.96022723 10 5 C10 4.34 10 3.68 10 3 C11.32 3.33 12.64 3.66 14 4 C13.67 4.99 13.34 5.98 13 7 C11.54119891 6.85892253 10.08296449 6.71197585 8.625 6.5625 C7.40683594 6.44068359 7.40683594 6.44068359 6.1640625 6.31640625 C4 6 4 6 2 5 C1.67 5.66 1.34 6.32 1 7 C0.67 4.69 0.34 2.38 0 0 Z " fill="#924753" transform="translate(103,87)"/>
<path d="M0 0 C1.65 1.32 3.3 2.64 5 4 C4.8125 6.875 4.8125 6.875 4 10 C2.35 10.66 0.7 11.32 -1 12 C-0.67 8.04 -0.34 4.08 0 0 Z " fill="#400F19" transform="translate(124,65)"/>
<path d="M0 0 C0.91523437 0.0721875 1.83046875 0.144375 2.7734375 0.21875 C3.96195312 0.3115625 5.15046875 0.404375 6.375 0.5 C8.15003906 0.63921875 8.15003906 0.63921875 9.9609375 0.78125 C11.63786843 0.90195454 13.31873056 1 15 1 C15 1.66 15 2.32 15 3 C7.12303665 6.70680628 7.12303665 6.70680628 3 6 C1 3 1 3 0 0 Z " fill="#AAADC0" transform="translate(71,24)"/>
<path d="M0 0 C3.80013925 1.49291185 5.74918216 3.62377323 8 7 C8 8.32 8 9.64 8 11 C4.7 10.34 1.4 9.68 -2 9 C-2 8.67 -2 8.34 -2 8 C-0.35 8 1.3 8 3 8 C1.69844994 3.92035719 1.69844994 3.92035719 0 0 Z " fill="#975E6D" transform="translate(107,39)"/>
<path d="M0 0 C0.33 0.99 0.66 1.98 1 3 C-3.68493876 5.48887372 -6.9444214 4.85687773 -12 4 C-8.31497587 -0.23095363 -5.4879376 -1.82931253 0 0 Z " fill="#C6ABAD" transform="translate(103,51)"/>
<path d="M0 0 C2.97 0.99 5.94 1.98 9 3 C8 6 8 6 6.3125 6.875 C2.96831319 7.05576685 0.85801315 5.62387111 -2 4 C-1.34 2.68 -0.68 1.36 0 0 Z " fill="#EDA56A" transform="translate(67,108)"/>
<path d="M0 0 C5.45454545 1.45454545 5.45454545 1.45454545 7.75 3.75 C10.75951191 9.16712144 11.21984059 12.90079706 10 19 C9.34 19 8.68 19 8 19 C8.0825 17.824375 8.165 16.64875 8.25 15.4375 C8.25 9.52935011 5.73532921 5.87993998 1.75 1.5625 C1.1725 1.046875 0.595 0.53125 0 0 Z " fill="#A45968" transform="translate(99,59)"/>
<path d="M0 0 C0.66 0 1.32 0 2 0 C1.0022242 2.99332739 0.2477975 3.94766315 -2 6 C-1.01 6.33 -0.02 6.66 1 7 C-3.41225737 8.47075246 -6.48281619 9.36884358 -11 8 C-11 7.34 -11 6.68 -11 6 C-10.45730469 5.81824219 -9.91460937 5.63648437 -9.35546875 5.44921875 C-8.28232422 5.07216797 -8.28232422 5.07216797 -7.1875 4.6875 C-6.47980469 4.44386719 -5.77210937 4.20023437 -5.04296875 3.94921875 C-2.85109073 2.93081271 -1.67201868 1.71034576 0 0 Z " fill="#965C76" transform="translate(81,115)"/>
<path d="M0 0 C1.32 0 2.64 0 4 0 C3.67 1.32 3.34 2.64 3 4 C4.98 4.66 6.96 5.32 9 6 C6 8 6 8 3.4375 7.75 C1 7 1 7 -1 5 C-0.625 2.375 -0.625 2.375 0 0 Z " fill="#BEC2BF" transform="translate(62,108)"/>
<path d="M0 0 C0.99 0 1.98 0 3 0 C3 1.32 3 2.64 3 4 C4.0725 3.690625 5.145 3.38125 6.25 3.0625 C8.82866222 2.33187904 11.39512102 1.62517096 14 1 C13.67 2.32 13.34 3.64 13 5 C10.36 5.33 7.72 5.66 5 6 C5.33 6.99 5.66 7.98 6 9 C3 8 3 8 1.3125 5.0625 C0 2 0 2 0 0 Z " fill="#8A859C" transform="translate(71,26)"/>
<path d="M0 0 C3.465 1.485 3.465 1.485 7 3 C6.1875 5.4375 6.1875 5.4375 5 8 C4.01 8.33 3.02 8.66 2 9 C1.34 8.67 0.68 8.34 0 8 C0 5.36 0 2.72 0 0 Z " fill="#F1D59D" transform="translate(80,39)"/>
<path d="M0 0 C0.33 0.66 0.66 1.32 1 2 C0.67 2.99 0.34 3.98 0 5 C-0.0685495 6.89470816 -0.08480372 8.7916834 -0.0625 10.6875 C-0.05347656 11.68136719 -0.04445313 12.67523438 -0.03515625 13.69921875 C-0.02355469 14.45847656 -0.01195313 15.21773437 0 16 C-0.66 16.33 -1.32 16.66 -2 17 C-2 16.34 -2 15.68 -2 15 C-4.475 14.01 -4.475 14.01 -7 13 C-6.34 12.649375 -5.68 12.29875 -5 11.9375 C-2.58896039 10.03442858 -2.58896039 10.03442858 -2.75 6.3125 C-2.87375 4.6728125 -2.87375 4.6728125 -3 3 C-2.34 3 -1.68 3 -1 3 C-0.67 2.01 -0.34 1.02 0 0 Z " fill="#BEBABC" transform="translate(96,63)"/>
<path d="M0 0 C0.33 0.99 0.66 1.98 1 3 C-0.86502588 5.62799102 -2.30410791 6.86365751 -5.4921875 7.48828125 C-7.9964272 7.72593573 -10.48653979 7.9040664 -13 8 C-10.65920694 5.65920694 -8.29236779 4.43545254 -5.375 2.875 C-4.37210938 2.33617187 -3.36921875 1.79734375 -2.3359375 1.2421875 C-1.17964844 0.62730469 -1.17964844 0.62730469 0 0 Z " fill="#B5A6B3" transform="translate(79,58)"/>
<path d="M0 0 C-0.33 1.32 -0.66 2.64 -1 4 C-2.43503555 4.36402369 -3.87316506 4.71586591 -5.3125 5.0625 C-6.11300781 5.25972656 -6.91351563 5.45695312 -7.73828125 5.66015625 C-10 6 -10 6 -13 5 C-13 4.34 -13 3.68 -13 3 C-11.2092015 2.49689942 -9.41733089 1.99761372 -7.625 1.5 C-6.62726563 1.2215625 -5.62953125 0.943125 -4.6015625 0.65625 C-2 0 -2 0 0 0 Z " fill="#F7AF6E" transform="translate(104,103)"/>
<path d="M0 0 C3.94727588 -0.17942163 6.5980513 -0.09350689 10 2 C9.67 2.99 9.34 3.98 9 5 C7.5199159 4.88637738 6.04089926 4.75877092 4.5625 4.625 C3.73878906 4.55539063 2.91507812 4.48578125 2.06640625 4.4140625 C1.38449219 4.27742188 0.70257813 4.14078125 0 4 C-0.33 3.34 -0.66 2.68 -1 2 C-0.67 1.34 -0.34 0.68 0 0 Z " fill="#E3AB79" transform="translate(107,97)"/>
<path d="M0 0 C3.26946116 0.29722374 5.07008236 1.41234219 7.75 3.25 C7.42 3.91 7.09 4.57 6.75 5.25 C3.78 4.92 0.81 4.59 -2.25 4.25 C-2.58 3.26 -2.91 2.27 -3.25 1.25 C-2.25 0.25 -2.25 0.25 0 0 Z " fill="#EDA366" transform="translate(79.25,88.75)"/>
<path d="M0 0 C0 0.33 0 0.66 0 1 C-1.60320974 1.19551338 -3.20762986 1.38111983 -4.8125 1.5625 C-5.70582031 1.66691406 -6.59914063 1.77132812 -7.51953125 1.87890625 C-10 2 -10 2 -13 1 C-13 0.01 -13 -0.98 -13 -2 C-8.1750546 -3.60831513 -4.54540006 -1.9480286 0 0 Z " fill="#D6C7AE" transform="translate(27,105)"/>
<path d="M0 0 C-0.54723683 3.37462715 -1.0549 5.08235 -3 8 C-4.65 7.67 -6.3 7.34 -8 7 C-8 6.01 -8 5.02 -8 4 C-2.74285714 0 -2.74285714 0 0 0 Z " fill="#C1C9C4" transform="translate(60,93)"/>
<path d="M0 0 C0.33 0.66 0.66 1.32 1 2 C3.01669827 3.13350534 3.01669827 3.13350534 5 4 C-1.81553398 5.96601942 -1.81553398 5.96601942 -4.375 6.4375 C-5.179375 6.7159375 -5.179375 6.7159375 -6 7 C-6.33 7.99 -6.66 8.98 -7 10 C-7.33 8.35 -7.66 6.7 -8 5 C-4.04 2.525 -4.04 2.525 0 0 Z " fill="#9C5F64" transform="translate(81,63)"/>
<path d="M0 0 C0.33 0.66 0.66 1.32 1 2 C2.89533342 2.46523063 2.89533342 2.46523063 5.0625 2.625 C6.361875 2.74875 7.66125 2.8725 9 3 C8.34 5.31 7.68 7.62 7 10 C6.67 9.01 6.34 8.02 6 7 C4.35 6.67 2.7 6.34 1 6 C0.67 4.02 0.34 2.04 0 0 Z " fill="#67697C" transform="translate(102,26)"/>
<path d="M0 0 C0.33 0.99 0.66 1.98 1 3 C3.01508358 3.73323796 3.01508358 3.73323796 5 4 C5 4.66 5 5.32 5 6 C6.2065625 6.185625 6.2065625 6.185625 7.4375 6.375 C8.7059375 6.684375 8.7059375 6.684375 10 7 C10.33 7.66 10.66 8.32 11 9 C4.25 8.125 4.25 8.125 2 7 C2 6.34 2 5.68 2 5 C0.35 4.67 -1.3 4.34 -3 4 C-2.01 2.68 -1.02 1.36 0 0 Z " fill="#C0715A" transform="translate(75,81)"/>
<path d="M0 0 C0 0.66 0 1.32 0 2 C-1.72440365 2.98753064 -3.45475026 3.96468806 -5.1875 4.9375 C-6.15042969 5.48277344 -7.11335938 6.02804688 -8.10546875 6.58984375 C-10.80662842 7.90579333 -13.04356101 8.57301887 -16 9 C-14.48065294 5.96130589 -12.01995228 5.35589694 -9 4 C-8.34 4 -7.68 4 -7 4 C-7 3.01 -7 2.02 -7 1 C-2.25 0 -2.25 0 0 0 Z " fill="#AFC3CD" transform="translate(79,57)"/>
<path d="M0 0 C0.99 0 1.98 0 3 0 C3 0.99 3 1.98 3 3 C3.639375 3.309375 4.27875 3.61875 4.9375 3.9375 C7 5 7 5 8 6 C8.04092937 8.33297433 8.04241723 10.66705225 8 13 C3.44480217 9.06036945 1.84548319 5.73071096 0 0 Z " fill="#EFA86C" transform="translate(101,49)"/>
<path d="M0 0 C0 4.14816462 -1.93586028 5.3767414 -4.6875 8.28125 C-6.3034568 10.03695369 -6.3034568 10.03695369 -6 13 C-5.01 13.66 -4.02 14.32 -3 15 C-6.75 16.125 -6.75 16.125 -9 15 C-9 8.25257773 -4.42228951 4.53309859 0 0 Z " fill="#9593A8" transform="translate(36,128)"/>
<path d="M0 0 C1.32 0 2.64 0 4 0 C4 1.32 4 2.64 4 4 C4.99 4.33 5.98 4.66 7 5 C6.67 5.99 6.34 6.98 6 8 C5.01 8 4.02 8 3 8 C2.34 8.66 1.68 9.32 1 10 C-0.04005702 6.61981469 -0.08004482 3.5219721 0 0 Z " fill="#E1CDB6" transform="translate(33,109)"/>
<path d="M0 0 C1.0326802 2.78823655 1.04509293 3.8677274 0.0625 6.75 C-0.288125 7.4925 -0.63875 8.235 -1 9 C-2.65 8.67 -4.3 8.34 -6 8 C-5.67 6.35 -5.34 4.7 -5 3 C-4.360625 2.87625 -3.72125 2.7525 -3.0625 2.625 C-2.0415625 2.315625 -2.0415625 2.315625 -1 2 C-0.67 1.34 -0.34 0.68 0 0 Z " fill="#F7E3B3" transform="translate(42,106)"/>
<path d="M0 0 C0.66 0.33 1.32 0.66 2 1 C1.690625 1.598125 1.38125 2.19625 1.0625 2.8125 C-0.10209704 5.08956772 -0.10209704 5.08956772 -1 8 C-3.0625 8.6875 -3.0625 8.6875 -5 9 C-5 4.61031544 -2.87194899 3.23094261 0 0 Z " fill="#ADC3CE" transform="translate(45,122)"/>
<path d="M0 0 C2.0625 0.4375 2.0625 0.4375 4 1 C3.67 2.32 3.34 3.64 3 5 C2.34 5 1.68 5 1 5 C0.67 5.99 0.34 6.98 0 8 C-0.66 8 -1.32 8 -2 8 C-1.125 1.125 -1.125 1.125 0 0 Z " fill="#B5A7AD" transform="translate(100,64)"/>
<path d="M0 0 C3.96 0.33 7.92 0.66 12 1 C8.48283697 4.51716303 6.80432667 4.54676163 2 5 C1.34 3.35 0.68 1.7 0 0 Z " fill="#9490A1" transform="translate(68,54)"/>
<path d="M0 0 C0.33 0.66 0.66 1.32 1 2 C1.66 2.33 2.32 2.66 3 3 C-1.75 6 -1.75 6 -4 6 C-4 6.66 -4 7.32 -4 8 C-4.66 8 -5.32 8 -6 8 C-4.52307692 2.33846154 -4.52307692 2.33846154 -1.875 0.625 C-0.946875 0.315625 -0.946875 0.315625 0 0 Z " fill="#E1965E" transform="translate(92,102)"/>
<path d="M0 0 C0.99 0.66 1.98 1.32 3 2 C3.1875 4.625 3.1875 4.625 3 7 C1.35 7 -0.3 7 -2 7 C-2.6875 5.1875 -2.6875 5.1875 -3 3 C-1.5625 1.25 -1.5625 1.25 0 0 Z " fill="#D2835C" transform="translate(70,93)"/>
<path d="M0 0 C1.3410477 0.75733274 2.67269781 1.53132736 4 2.3125 C5.11375 2.95638672 5.11375 2.95638672 6.25 3.61328125 C6.8275 4.07089844 7.405 4.52851562 8 5 C8 5.99 8 6.98 8 8 C7.01 8.33 6.02 8.66 5 9 C4.938125 8.38125 4.87625 7.7625 4.8125 7.125 C4.171081 4.72238859 4.171081 4.72238859 1.4375 3.75 C0.633125 3.5025 -0.17125 3.255 -1 3 C-0.67 2.01 -0.34 1.02 0 0 Z " fill="#986F7F" transform="translate(129,81)"/>
<path d="M0 0 C-0.639375 0.61875 -1.27875 1.2375 -1.9375 1.875 C-4.03883584 3.82597612 -4.03883584 3.82597612 -5 6 C-5.99 5.67 -6.98 5.34 -8 5 C-8.33 4.34 -8.66 3.68 -9 3 C-6.27596221 -1.08605669 -4.4643819 -1.38549783 0 0 Z " fill="#F4EEE1" transform="translate(98,63)"/>
<path d="M0 0 C2.475 0.495 2.475 0.495 5 1 C5 1.66 5 2.32 5 3 C5.99 3 6.98 3 8 3 C7.67 4.32 7.34 5.64 7 7 C5.68 7 4.36 7 3 7 C2.690625 6.21625 2.38125 5.4325 2.0625 4.625 C1.07124962 2.07669872 1.07124962 2.07669872 0 0 Z " fill="#C9D0CA" transform="translate(92,45)"/>
<path d="M0 0 C3.3125 -0.3125 3.3125 -0.3125 7 0 C8.9375 2.5 8.9375 2.5 10 5 C6.1936543 4.32829194 2.64793184 3.27253436 -1 2 C-0.67 1.34 -0.34 0.68 0 0 Z " fill="#AECAD3" transform="translate(103,20)"/>
<path d="M0 0 C2.97 0.495 2.97 0.495 6 1 C5.625 3.4375 5.625 3.4375 5 6 C4.01 6.495 4.01 6.495 3 7 C3 6.01 3 5.02 3 4 C1.68 3.34 0.36 2.68 -1 2 C-0.67 1.34 -0.34 0.68 0 0 Z " fill="#986178" transform="translate(60,84)"/>
<path d="M0 0 C0.66 0.66 1.32 1.32 2 2 C-0.75078884 2.91692961 -2.35948913 3.10886083 -5.1875 3.0625 C-7.0746875 3.0315625 -7.0746875 3.0315625 -9 3 C-8.67 2.01 -8.34 1.02 -8 0 C-5.09288879 -1.4535556 -3.10402897 -0.71133997 0 0 Z " fill="#ECCF9E" transform="translate(88,118)"/>
<path d="M0 0 C3.63 0.66 7.26 1.32 11 2 C11 1.34 11 0.68 11 0 C11.66 0 12.32 0 13 0 C12.34 1.65 11.68 3.3 11 5 C4.6 4.50769231 4.6 4.50769231 1.5625 1.9375 C1.046875 1.298125 0.53125 0.65875 0 0 Z " fill="#C47257" transform="translate(105,92)"/>
<path d="M0 0 C0.33 0 0.66 0 1 0 C2.33951026 7.42819325 2.33951026 7.42819325 0.8125 10 C-1 11 -1 11 -5 11 C-5 10.01 -5 9.02 -5 8 C-4.01 7.67 -3.02 7.34 -2 7 C-1.67 7.33 -1.34 7.66 -1 8 C-0.67 5.36 -0.34 2.72 0 0 Z " fill="#908CA3" transform="translate(137,89)"/>
<path d="M0 0 C0.66 0.33 1.32 0.66 2 1 C1.01 1.8971875 1.01 1.8971875 0 2.8125 C-2.3373846 4.87501834 -2.3373846 4.87501834 -2 8 C-2.99 8.33 -3.98 8.66 -5 9 C-5.99 8.01 -6.98 7.02 -8 6 C-5.84145761 3.84145761 -3.61978408 2.54500087 -1 1 C-0.67 0.67 -0.34 0.34 0 0 Z " fill="#A7A7B8" transform="translate(67,87)"/>
<path d="M0 0 C0.66 0 1.32 0 2 0 C1.67 1.98 1.34 3.96 1 6 C-1.31 6 -3.62 6 -6 6 C-5.67 5.34 -5.34 4.68 -5 4 C-4.01 4 -3.02 4 -2 4 C-2 3.34 -2 2.68 -2 2 C-1.34 2 -0.68 2 0 2 C0 1.34 0 0.68 0 0 Z " fill="#EEA266" transform="translate(128,76)"/>
<path d="M0 0 C-0.33 0.99 -0.66 1.98 -1 3 C-3.31 3.33 -5.62 3.66 -8 4 C-8 3.01 -8 2.02 -8 1 C-5.29120665 -0.35439668 -2.99066732 -0.06501451 0 0 Z " fill="#97899F" transform="translate(72,66)"/>
<path d="M0 0 C1.32 0.33 2.64 0.66 4 1 C3.34 2.65 2.68 4.3 2 6 C0.68 5.67 -0.64 5.34 -2 5 C-1.34 3.35 -0.68 1.7 0 0 Z " fill="#985676" transform="translate(69,100)"/>
<path d="M0 0 C0.33 0 0.66 0 1 0 C1 1.65 1 3.3 1 5 C1.598125 5.268125 2.19625 5.53625 2.8125 5.8125 C4.97224808 6.98493467 6.35790256 8.19369282 8 10 C4.51460083 9.35455571 1.97180943 7.89865603 -1 6 C-0.67 4.02 -0.34 2.04 0 0 Z " fill="#AD706E" transform="translate(84,68)"/>
<path d="M0 0 C0.33 0.99 0.66 1.98 1 3 C0.67 3.66 0.34 4.32 0 5 C-0.66 5 -1.32 5 -2 5 C-2.103125 5.61875 -2.20625 6.2375 -2.3125 6.875 C-3 9 -3 9 -6 11 C-4.83343153 6.16707348 -3.68754675 3.44964051 0 0 Z " fill="#F1E9D0" transform="translate(45,114)"/>
<path d="M0 0 C0.33 0.66 0.66 1.32 1 2 C1.928125 1.690625 1.928125 1.690625 2.875 1.375 C3.57625 1.25125 4.2775 1.1275 5 1 C5.66 1.66 6.32 2.32 7 3 C-0.625 5.125 -0.625 5.125 -4 4 C-4 3.34 -4 2.68 -4 2 C-2.68 1.34 -1.36 0.68 0 0 Z " fill="#D78955" transform="translate(94,99)"/>
<path d="M0 0 C0.66 0 1.32 0 2 0 C1.67 1.65 1.34 3.3 1 5 C1.99 5.33 2.98 5.66 4 6 C3.01 6.66 2.02 7.32 1 8 C-1 6 -1 6 -2 3 C-1.34 2.01 -0.68 1.02 0 0 Z " fill="#A394A5" transform="translate(65,101)"/>
<path d="M0 0 C0 2.62113708 -0.31292445 4.50935112 -1 7 C-1.66 6.67 -2.32 6.34 -3 6 C-3.99 6.33 -4.98 6.66 -6 7 C-5.8125 5.1875 -5.8125 5.1875 -5 3 C-2.4375 1.25 -2.4375 1.25 0 0 Z " fill="#D3A796" transform="translate(51,98)"/>
<path d="M0 0 C0.66 0 1.32 0 2 0 C2 0.66 2 1.32 2 2 C2.66 2.33 3.32 2.66 4 3 C3.34 3.66 2.68 4.32 2 5 C2 5.99 2 6.98 2 8 C0.68 7.34 -0.64 6.68 -2 6 C-2 5.34 -2 4.68 -2 4 C-1.34 4 -0.68 4 0 4 C0 2.68 0 1.36 0 0 Z " fill="#DC8E5B" transform="translate(75,86)"/>
<path d="M0 0 C0.99 0.33 1.98 0.66 3 1 C3 3.97 3 6.94 3 10 C2.34 10 1.68 10 1 10 C0.67 6.7 0.34 3.4 0 0 Z " fill="#A9AABB" transform="translate(137,86)"/>
<path d="M0 0 C0.66 1.32 1.32 2.64 2 4 C-0.97 3.67 -3.94 3.34 -7 3 C-7 2.34 -7 1.68 -7 1 C-4 0 -4 0 0 0 Z " fill="#D18A8B" transform="translate(99,55)"/>
<path d="M0 0 C0.66 0.33 1.32 0.66 2 1 C2 1.66 2 2.32 2 3 C2.66 3 3.32 3 4 3 C4.33 4.65 4.66 6.3 5 8 C2.5625 7.1875 2.5625 7.1875 0 6 C-1 3 -1 3 0 0 Z " fill="#D3845B" transform="translate(115,47)"/>
<path d="M0 0 C0 0.66 0 1.32 0 2 C-1.65071396 3.02611949 -3.31970006 4.02308143 -5 5 C-6.75149165 6.58245275 -6.75149165 6.58245275 -8 8 C-7.33333333 5.33333333 -6.66666667 2.66666667 -6 0 C-2.25 -1.125 -2.25 -1.125 0 0 Z " fill="#9D99AD" transform="translate(52,122)"/>
<path d="M0 0 C2.97 0 5.94 0 9 0 C9.33 0.99 9.66 1.98 10 3 C4.58461538 3.36923077 4.58461538 3.36923077 1.625 1.5 C1.08875 1.005 0.5525 0.51 0 0 Z " fill="#DC915C" transform="translate(68,108)"/>
<path d="M0 0 C1.98 0 3.96 0 6 0 C5.2884375 0.6496875 5.2884375 0.6496875 4.5625 1.3125 C2.76313043 3.02309613 2.76313043 3.02309613 2 6 C1.01 6 0.02 6 -1 6 C-1.33 5.01 -1.66 4.02 -2 3 C-1.34 3 -0.68 3 0 3 C0 2.01 0 1.02 0 0 Z " fill="#B78D99" transform="translate(59,106)"/>
<path d="M0 0 C4.29 0 8.58 0 13 0 C12.67 0.66 12.34 1.32 12 2 C9.69 1.67 7.38 1.34 5 1 C5 1.66 5 2.32 5 3 C2.525 2.01 2.525 2.01 0 1 C0 0.67 0 0.34 0 0 Z " fill="#BB6658" transform="translate(108,89)"/>
<path d="M0 0 C2.475 0.99 2.475 0.99 5 2 C5 2.99 5 3.98 5 5 C4.01 5.33 3.02 5.66 2 6 C2 5.34 2 4.68 2 4 C1.01 3.67 0.02 3.34 -1 3 C-0.67 2.01 -0.34 1.02 0 0 Z " fill="#79666F" transform="translate(58,86)"/>
<path d="M0 0 C0.66 0 1.32 0 2 0 C2.1875 2.875 2.1875 2.875 2 6 C1.01 6.66 0.02 7.32 -1 8 C-1.33 6.02 -1.66 4.04 -2 2 C-1.34 2 -0.68 2 0 2 C0 1.34 0 0.68 0 0 Z " fill="#C5CDCA" transform="translate(124,44)"/>
<path d="M0 0 C2.97 0 5.94 0 9 0 C9 0.99 9 1.98 9 3 C5.625 3.1875 5.625 3.1875 2 3 C1.34 2.01 0.68 1.02 0 0 Z " fill="#B68893" transform="translate(57,82)"/>
<path d="M0 0 C1.32 0.66 2.64 1.32 4 2 C3.67 2.99 3.34 3.98 3 5 C0.4375 6.1875 0.4375 6.1875 -2 7 C-1.34 4.69 -0.68 2.38 0 0 Z " fill="#877D91" transform="translate(54,90)"/>
<path d="M0 0 C1.76065836 2.64098754 2.52722899 3.9742655 3 7 C2.67 7.99 2.34 8.98 2 10 C1.34 10 0.68 10 0 10 C-0.19412181 8.52168779 -0.38012131 7.04230684 -0.5625 5.5625 C-0.66691406 4.73878906 -0.77132812 3.91507812 -0.87890625 3.06640625 C-0.91886719 2.38449219 -0.95882812 1.70257813 -1 1 C-0.67 0.67 -0.34 0.34 0 0 Z " fill="#D68654" transform="translate(110,69)"/>
<path d="M0 0 C0.99 0.66 1.98 1.32 3 2 C0 3 -3 4 -6 5 C-6 4.01 -6 3.02 -6 2 C-3.1875 0.875 -3.1875 0.875 0 0 Z " fill="#AE97A7" transform="translate(87,54)"/>
<path d="M0 0 C2.64 0 5.28 0 8 0 C7.67 0.99 7.34 1.98 7 3 C4.625 3.1875 4.625 3.1875 2 3 C1.34 2.01 0.68 1.02 0 0 Z " fill="#66697D" transform="translate(75,31)"/>
<path d="M0 0 C0.33 0.99 0.66 1.98 1 3 C-3.05431692 4.15837626 -5.21812119 3.83691257 -9 2 C-9 1.67 -9 1.34 -9 1 C-7.700625 1.020625 -6.40125 1.04125 -5.0625 1.0625 C-3.70834367 1.08399454 -2.35243917 1.07148199 -1 1 C-0.67 0.67 -0.34 0.34 0 0 Z " fill="#8D889F" transform="translate(112,26)"/>
<path d="M0 0 C-0.33 0.99 -0.66 1.98 -1 3 C-1.66 3 -2.32 3 -3 3 C-3.33 3.66 -3.66 4.32 -4 5 C-5.65 4.01 -7.3 3.02 -9 2 C-6.13119883 0.56559942 -3.20485087 0 0 0 Z " fill="#A0859B" transform="translate(94,51)"/>
<path d="M0 0 C0 0.99 0 1.98 0 3 C-2.31 3 -4.62 3 -7 3 C-7 2.34 -7 1.68 -7 1 C-4.53721199 -0.231394 -2.7204945 -0.07159196 0 0 Z " fill="#A48299" transform="translate(70,119)"/>
<path d="M0 0 C-0.66 1.65 -1.32 3.3 -2 5 C-3.9375 4.6875 -3.9375 4.6875 -6 4 C-6.33 3.01 -6.66 2.02 -7 1 C-2.25 0 -2.25 0 0 0 Z " fill="#DB9481" transform="translate(54,105)"/>
<path d="M0 0 C-0.33 1.32 -0.66 2.64 -1 4 C-3.97 3.505 -3.97 3.505 -7 3 C-2.5 0 -2.5 0 0 0 Z " fill="#F1A969" transform="translate(104,103)"/>
<path d="M0 0 C3 1 3 1 4.1875 3.0625 C4.455625 3.701875 4.72375 4.34125 5 5 C4.01 5 3.02 5 2 5 C1.67 5.66 1.34 6.32 1 7 C0.67 4.69 0.34 2.38 0 0 Z " fill="#984F4E" transform="translate(103,87)"/>
<path d="M0 0 C0.66 0.66 1.32 1.32 2 2 C1.67 2.66 1.34 3.32 1 4 C0.34 4 -0.32 4 -1 4 C-1.66 5.32 -2.32 6.64 -3 8 C-3.33 7.34 -3.66 6.68 -4 6 C-3.67 5.01 -3.34 4.02 -3 3 C-2.34 3 -1.68 3 -1 3 C-0.67 2.01 -0.34 1.02 0 0 Z " fill="#D68F63" transform="translate(125,83)"/>
<path d="M0 0 C0.66 0 1.32 0 2 0 C3.625 2.5 3.625 2.5 5 5 C3.35 5.33 1.7 5.66 0 6 C0 4.02 0 2.04 0 0 Z " fill="#AA5B5F" transform="translate(95,74)"/>
<path d="M0 0 C1.4540625 0.0309375 1.4540625 0.0309375 2.9375 0.0625 C1.5625 1.5625 1.5625 1.5625 -0.0625 3.0625 C-0.7225 3.0625 -1.3825 3.0625 -2.0625 3.0625 C-2.3925 4.0525 -2.7225 5.0425 -3.0625 6.0625 C-3.44468767 4.40635343 -3.77645102 2.73792976 -4.0625 1.0625 C-3.0625 0.0625 -3.0625 0.0625 0 0 Z " fill="#BA6559" transform="translate(77.0625,66.9375)"/>
</svg>
