<?xml version="1.0" encoding="UTF-8"?>
<svg version="1.1" xmlns="http://www.w3.org/2000/svg" width="150" height="150">
<path d="M0 0 C0.2165625 1.5778125 0.2165625 1.5778125 0.4375 3.1875 C0.623125 4.445625 0.80875 5.70375 1 7 C1.061875 7.804375 1.12375 8.60875 1.1875 9.4375 C2.50366299 13.5884756 5.02777945 16.84916042 8 20 C10.63222962 21.25436187 10.63222962 21.25436187 13 22 C15.30973939 25.35462149 15.09700908 28.0904679 14.875 32.0625 C14.75586586 37.95963973 15.89983041 42.15993863 18.09375 47.57421875 C19.92599521 52.47863372 19.37455874 55.87632379 17.75 60.75 C13.61618276 68.311502 5.51623322 74.62762314 -1.75 79 C-6.46715371 81.92582952 -9.05640518 85.91074249 -12.15625 90.4375 C-15.47933832 95.05602953 -19.39800164 98.49702483 -25 100 C-30.46277272 100.72149828 -33.67450263 99.59805147 -38.1171875 96.625 C-40.11563941 94.90019503 -41.28120968 93.22311764 -42.6875 91 C-47.48776602 84.20282332 -55.67363653 82.54917602 -63.49609375 81.13671875 C-65.84130902 80.74344004 -68.18797414 80.37492979 -70.5402832 80.02661133 C-75.44930127 79.29898076 -79.97866991 78.19745097 -84.69140625 76.62109375 C-88.27010141 75.65829759 -91.86381171 75.48614317 -95.5546875 75.30859375 C-98.10587 74.98663941 -99.78906279 74.28028689 -102 73 C-101.625 71.0625 -101.625 71.0625 -101 69 C-98.15916359 67.57958179 -96.14522722 67.68547728 -93 68 C-92.08782715 68.97404785 -92.08782715 68.97404785 -91.15722656 69.96777344 C-88.46411975 72.50482879 -87.00782315 72.59524533 -83.359375 72.828125 C-81.75449219 72.94414062 -81.75449219 72.94414062 -80.1171875 73.0625 C-79.00601563 73.124375 -77.89484375 73.18625 -76.75 73.25 C-75.62335938 73.32734375 -74.49671875 73.4046875 -73.3359375 73.484375 C-70.55794197 73.67271368 -67.77996476 73.84393626 -65 74 C-65.46615723 73.47470703 -65.93231445 72.94941406 -66.41259766 72.40820312 C-79 58.14051522 -79 58.14051522 -79 49 C-78.35981114 45.21335103 -77.2137399 41.64121971 -76 38 C-75.93062938 35.77181559 -75.91542916 33.54165476 -75.9375 31.3125 C-75.94652344 30.13300781 -75.95554687 28.95351563 -75.96484375 27.73828125 C-75.97644531 26.83464844 -75.98804687 25.93101563 -76 25 C-77.2375 24.7525 -78.475 24.505 -79.75 24.25 C-83.49154322 23.29966131 -85.80274211 22.34365331 -88 19 C-87.75 16.25 -87.75 16.25 -87 14 C-74.54945826 14.52981029 -64.80570485 25.85686957 -56.71484375 34.41796875 C-52.30588235 39.38823529 -52.30588235 39.38823529 -51 42 C-47.51375944 41.3543999 -44.87501211 40.07639763 -42 38 C-41.6626154 34.87501834 -41.6626154 34.87501834 -44 32.8125 C-44.66 32.214375 -45.32 31.61625 -46 31 C-43.74259377 28.66475218 -41.7194239 26.81294927 -39 25 C-38.55754068 22.01337295 -38.55754068 22.01337295 -38.6875 18.625 C-38.69330078 16.91183594 -38.69330078 16.91183594 -38.69921875 15.1640625 C-38.9854986 12.15254719 -39.51497255 10.56714048 -41 8 C-41.4375 5.5 -41.4375 5.5 -41 3 C-38.39652345 0.16680493 -36.74625532 -0.8781624 -32.9375 -1.5 C-30 -1 -30 -1 -27.5625 0.5625 C-26 3 -26 3 -26.1875 6.5 C-26.7695587 9.00732978 -27.37066556 11.50455215 -28 14 C-27.16855469 14.54269531 -26.33710937 15.08539063 -25.48046875 15.64453125 C-24.39378906 16.35996094 -23.30710937 17.07539062 -22.1875 17.8125 C-20.56908203 18.87404297 -20.56908203 18.87404297 -18.91796875 19.95703125 C-16.64827471 21.54612092 -14.88785864 23.01655358 -13 25 C-11.11149645 26.07642709 -11.11149645 26.07642709 -9 26 C-6.56304526 24.47981752 -6.56304526 24.47981752 -5 22 C-4.68758887 19.46915186 -4.68758887 19.46915186 -6 17 C-7.88690066 15.14508071 -9.89602361 13.62181513 -12 12 C-13.54586876 8.90826248 -13.29359521 6.40570448 -13 3 C-11.20171456 0.55946976 -9.81043868 -0.63399544 -7.0625 -1.875 C-4.31449878 -2.04154553 -2.46082512 -1.16205631 0 0 Z " fill="#EDA262" transform="translate(112,20)"/>
<path d="M0 0 C12.38465538 0.52700661 22.22621991 11.78834947 30.21484375 20.3828125 C31.35649149 21.69100082 32.48666425 23.00942882 33.59765625 24.34375 C34.98510442 26.03349243 34.98510442 26.03349243 36.609375 27.58203125 C38.22657139 29.23102645 39.06028255 30.90370723 40 33 C42.00124361 32.67421616 44.00102872 32.33944795 46 32 C46.886875 31.9175 47.77375 31.835 48.6875 31.75 C51.21525894 31.1739813 51.21525894 31.1739813 52.75 28.6875 C53.80503934 26.41916543 54.54657012 24.44852134 55 22 C55.99 22 56.98 22 58 22 C58 21.34 58 20.68 58 20 C59.65 20.33 61.3 20.66 63 21 C63 20.34 63 19.68 63 19 C63.804375 18.87625 64.60875 18.7525 65.4375 18.625 C66.283125 18.41875 67.12875 18.2125 68 18 C68.33 17.34 68.66 16.68 69 16 C69 17.32 69 18.64 69 20 C70.19625 19.938125 71.3925 19.87625 72.625 19.8125 C76.87172984 19.86502139 79.54200169 20.3279104 83 23 C86.48811836 28.91754264 88.39740637 36.1116229 88 43 C85.33565262 45.66434738 83.73911674 45.59209636 80 46 C79.32582031 46.07734375 78.65164062 46.1546875 77.95703125 46.234375 C70.1223865 46.7335736 64.36145233 43.24096822 58 39 C57.8125 36.375 57.8125 36.375 58 34 C56.29115995 35.62339805 54.62553283 37.29319053 53 39 C53 39.66 53 40.32 53 41 C53 44.33333333 53 47.66666667 53 51 C51.68 50.01 50.36 49.02 49 48 C49 51.63 49 55.26 49 59 C46.525 59.495 46.525 59.495 44 60 C40.55913965 54.83870948 37 48.29739667 37 42 C33.32159111 44.27307664 33.32159111 44.27307664 30 47 C29.92794489 48.68608966 29.91613932 50.37500659 29.9375 52.0625 C29.94652344 52.98160156 29.95554687 53.90070313 29.96484375 54.84765625 C29.97644531 55.55792969 29.98804687 56.26820312 30 57 C29.34 56.67 28.68 56.34 28 56 C28 55.01 28 54.02 28 53 C27.34 53 26.68 53 26 53 C26 51.35 26 49.7 26 48 C25.278125 48.20625 24.55625 48.4125 23.8125 48.625 C20.55358415 49.05952211 18.91695496 48.41680669 16 47 C17.98 46.505 17.98 46.505 20 46 C20 44.35 20 42.7 20 41 C20.66 41.33 21.32 41.66 22 42 C22.99 38.7 23.98 35.4 25 32 C25.66 32 26.32 32 27 32 C27 32.66 27 33.32 27 34 C27.66 34 28.32 34 29 34 C26.0248173 24.76127477 19.59587321 17.88577156 12 12 C9.55966884 10.77983442 7.46059652 10.05599148 4.81640625 9.45703125 C1.96093453 8.73855772 0.57363599 7.43198289 -1 5 C-0.75 2.25 -0.75 2.25 0 0 Z " fill="#99838D" transform="translate(25,34)"/>
<path d="M0 0 C4.03274827 6.04912241 7.10409876 13.68534574 6 21 C2.77710043 30.66869872 -6.216989 37.86535338 -14.75 43 C-19.46715371 45.92582952 -22.05640518 49.91074249 -25.15625 54.4375 C-28.47933832 59.05602953 -32.39800164 62.49702483 -38 64 C-43.46277272 64.72149828 -46.67450263 63.59805147 -51.1171875 60.625 C-53.11563941 58.90019503 -54.28120968 57.22311764 -55.6875 55 C-59.51102287 49.34504181 -65.73516131 47.93336268 -72 46 C-72 45.34 -72 44.68 -72 44 C-70.865625 43.855625 -69.73125 43.71125 -68.5625 43.5625 C-65.19222799 43.38828522 -65.19222799 43.38828522 -64 42 C-65.32 41.34 -66.64 40.68 -68 40 C-67.505 39.505 -67.505 39.505 -67 39 C-65.24673544 39.06471782 -63.49593546 39.20227376 -61.75 39.375 C-60.31914063 39.51035156 -60.31914063 39.51035156 -58.859375 39.6484375 C-56 40 -56 40 -53.328125 40.6640625 C-50.73143135 41.30328624 -50.73143135 41.30328624 -48 39 C-47.34 39.33 -46.68 39.66 -46 40 C-44.12943209 40.2275015 -42.25314042 40.40962811 -40.375 40.5625 C-39.37210938 40.64628906 -38.36921875 40.73007813 -37.3359375 40.81640625 C-36.56507812 40.87699219 -35.79421875 40.93757813 -35 41 C-35 40.34 -35 39.68 -35 39 C-37.97 38.34 -40.94 37.68 -44 37 C-42.68 36.34 -41.36 35.68 -40 35 C-41.98 34.01 -43.96 33.02 -46 32 C-46 29.36 -46 26.72 -46 24 C-45.67 24.99 -45.34 25.98 -45 27 C-37.94046852 28.67514306 -31.16830782 29.14095629 -23.94140625 29.03125 C-18.23489918 28.95457908 -12.66273293 29.32815033 -7 30 C-7.495 28.02 -7.495 28.02 -8 26 C-5.36 24.68 -2.72 23.36 0 22 C-0.66 21.67 -1.32 21.34 -2 21 C-2.14285714 12.42857143 -2.14285714 12.42857143 -1 9 C-0.01 9 0.98 9 2 9 C0.85123314 5.55369942 -0.19140915 5.08379321 -3 3 C-3 2.34 -3 1.68 -3 1 C-2.01 0.67 -1.02 0.34 0 0 Z " fill="#CE8156" transform="translate(125,56)"/>
<path d="M0 0 C2.37000293 1.96659818 4.69482979 3.95887656 7 6 C7.79148438 6.69996094 8.58296875 7.39992188 9.3984375 8.12109375 C14.47951634 12.86507836 17.11384723 16.03737113 18 23 C17.34 23 16.68 23 16 23 C16 22.34 16 21.68 16 21 C15.34 21 14.68 21 14 21 C13.34 25.29 12.68 29.58 12 34 C11.34 33.01 10.68 32.02 10 31 C9.814375 31.9590625 9.814375 31.9590625 9.625 32.9375 C9.41875 33.618125 9.2125 34.29875 9 35 C8.01 35.495 8.01 35.495 7 36 C9.64 36.33 12.28 36.66 15 37 C15 38.65 15 40.3 15 42 C15.66 42 16.32 42 17 42 C17.33 42.66 17.66 43.32 18 44 C17.87625 42.783125 17.7525 41.56625 17.625 40.3125 C17.60647479 37.70507693 17.65972392 36.44214886 19.265625 34.35546875 C23.24963977 31 23.24963977 31 26 31 C26.495 34.465 26.495 34.465 27 38 C26.01 38.66 25.02 39.32 24 40 C24.1546875 41.918125 24.1546875 41.918125 24.3125 43.875 C24.37050781 44.59429687 24.42851563 45.31359375 24.48828125 46.0546875 C24.87393036 48.39519216 24.87393036 48.39519216 28 50 C25.03 50.495 25.03 50.495 22 51 C23.32 51.66 24.64 52.32 26 53 C22.41912842 56.58087158 17.06218515 56.095881 12.18115234 56.11914062 C4.39868592 55.6940406 -3.63971289 53.45342904 -11 51 C-13.76731942 50.73383035 -16.53427101 50.55631192 -19.30859375 50.37890625 C-21.96118319 50.00546478 -23.70397771 49.34070332 -26 48 C-25.625 46.0625 -25.625 46.0625 -25 44 C-22.15916359 42.57958179 -20.14522722 42.68547728 -17 43 C-16.39188477 43.64936523 -15.78376953 44.29873047 -15.15722656 44.96777344 C-12.46411975 47.50482879 -11.00782315 47.59524533 -7.359375 47.828125 C-6.28945313 47.90546875 -5.21953125 47.9828125 -4.1171875 48.0625 C-3.00601563 48.124375 -1.89484375 48.18625 -0.75 48.25 C0.37664063 48.32734375 1.50328125 48.4046875 2.6640625 48.484375 C5.44205803 48.67271368 8.22003524 48.84393626 11 49 C10.53384277 48.47470703 10.06768555 47.94941406 9.58740234 47.40820312 C-3 33.14051522 -3 33.14051522 -3 24 C-2.35981114 20.21335103 -1.2137399 16.64121971 0 13 C0.06937062 10.77181559 0.08457084 8.54165476 0.0625 6.3125 C0.05347656 5.13300781 0.04445313 3.95351563 0.03515625 2.73828125 C0.02355469 1.83464844 0.01195313 0.93101563 0 0 Z " fill="#F4DCA1" transform="translate(36,45)"/>
<path d="M0 0 C2.4375 1.5625 2.4375 1.5625 4 4 C3.79511302 7.82455687 2.93177817 11.30529701 2 15 C3.21236328 15.79664063 3.21236328 15.79664063 4.44921875 16.609375 C5.51785156 17.31578125 6.58648437 18.0221875 7.6875 18.75 C8.74324219 19.44609375 9.79898438 20.1421875 10.88671875 20.859375 C16.11811661 24.45637127 19.57339458 26.99734448 22 33 C22 33.99 22 34.98 22 36 C20.35333797 35.8864371 18.70763918 35.75882619 17.0625 35.625 C16.14597656 35.55539063 15.22945312 35.48578125 14.28515625 35.4140625 C13.15400391 35.20910156 13.15400391 35.20910156 12 35 C11.67 34.34 11.34 33.68 11 33 C8.525 33.495 8.525 33.495 6 34 C6 34.66 6 35.32 6 36 C4.35 35.67 2.7 35.34 1 35 C1 35.66 1 36.32 1 37 C0.01 37 -0.98 37 -2 37 C-2.12375 37.721875 -2.2475 38.44375 -2.375 39.1875 C-3.56410256 44.53846154 -3.56410256 44.53846154 -5 47 C-7.75 47.75 -7.75 47.75 -11 48 C-12.0725 48.226875 -13.145 48.45375 -14.25 48.6875 C-15.61125 48.8421875 -15.61125 48.8421875 -17 49 C-17.66 48.34 -18.32 47.68 -19 47 C-19 45.125 -19 45.125 -18 43 C-16.00628175 41.65729179 -14.0065438 40.32346506 -12 39 C-11.6626154 35.87501834 -11.6626154 35.87501834 -14 33.8125 C-14.66 33.214375 -15.32 32.61625 -16 32 C-13.74259377 29.66475218 -11.7194239 27.81294927 -9 26 C-8.55754068 23.01337295 -8.55754068 23.01337295 -8.6875 19.625 C-8.69136719 18.48289062 -8.69523437 17.34078125 -8.69921875 16.1640625 C-8.9854986 13.15254719 -9.51497255 11.56714048 -11 9 C-11.4375 6.5 -11.4375 6.5 -11 4 C-7.60027108 0.300295 -4.9827138 -0.8481215 0 0 Z " fill="#B1A1AD" transform="translate(82,19)"/>
<path d="M0 0 C0.144375 1.051875 0.28875 2.10375 0.4375 3.1875 C0.623125 4.445625 0.80875 5.70375 1 7 C1.061875 7.804375 1.12375 8.60875 1.1875 9.4375 C2.50366299 13.5884756 5.02777945 16.84916042 8 20 C10.63222962 21.25436187 10.63222962 21.25436187 13 22 C15.37787581 25.17050108 15.17541499 28.14087014 15 32 C12.125 31.6875 12.125 31.6875 9 31 C8.34 30.01 7.68 29.02 7 28 C7 29.32 7 30.64 7 32 C2.40840183 29.93681492 -0.82914117 26.8763952 -4 23 C-4.67863055 21.0040278 -5.34641919 19.00431449 -6 17 C-7.87103578 15.11856957 -9.88507478 13.61994272 -12 12 C-13.54586876 8.90826248 -13.29359521 6.40570448 -13 3 C-11.20171456 0.55946976 -9.81043868 -0.63399544 -7.0625 -1.875 C-4.31449878 -2.04154553 -2.46082512 -1.16205631 0 0 Z " fill="#9CAAB9" transform="translate(112,20)"/>
<path d="M0 0 C0.495 3.465 0.495 3.465 1 7 C0.01 7.66 -0.98 8.32 -2 9 C-1.8453125 10.918125 -1.8453125 10.918125 -1.6875 12.875 C-1.62949219 13.59429687 -1.57148437 14.31359375 -1.51171875 15.0546875 C-1.12606964 17.39519216 -1.12606964 17.39519216 2 19 C-0.97 19.495 -0.97 19.495 -4 20 C-2.68 20.66 -1.36 21.32 0 22 C-3.58087158 25.58087158 -8.93781485 25.095881 -13.81884766 25.11914062 C-21.60131408 24.6940406 -29.63971289 22.45342904 -37 20 C-39.76731942 19.73383035 -42.53427101 19.55631192 -45.30859375 19.37890625 C-47.96118319 19.00546478 -49.70397771 18.34070332 -52 17 C-51.625 15.0625 -51.625 15.0625 -51 13 C-48.15916359 11.57958179 -46.14522722 11.68547728 -43 12 C-42.39188477 12.64936523 -41.78376953 13.29873047 -41.15722656 13.96777344 C-38.46411975 16.50482879 -37.00782315 16.59524533 -33.359375 16.828125 C-32.28945313 16.90546875 -31.21953125 16.9828125 -30.1171875 17.0625 C-29.00601563 17.124375 -27.89484375 17.18625 -26.75 17.25 C-25.62335937 17.32734375 -24.49671875 17.4046875 -23.3359375 17.484375 C-20.55794197 17.67271368 -17.77996476 17.84393626 -15 18 C-15.495 16.515 -15.495 16.515 -16 15 C-15.278125 15.33 -14.55625 15.66 -13.8125 16 C-10.98302573 17.00603529 -8.97104534 17.16977402 -6 17 C-6.33 16.505 -6.66 16.01 -7 15.5 C-8.40962412 11.9759397 -8.86184143 8.68838918 -8 5 C-5.92879788 2.35064024 -3.52818975 0 0 0 Z " fill="#AFA5AE" transform="translate(62,76)"/>
<path d="M0 0 C6.48176239 0.4914641 12.02353574 1.85263401 18.09375 4.1796875 C20.94297143 5.17359187 20.94297143 5.17359187 24.1484375 5.015625 C26.91796875 5.01953125 26.91796875 5.01953125 28.91796875 7.01953125 C27.92796875 7.65890625 26.93796875 8.29828125 25.91796875 8.95703125 C24.92796875 9.63765625 23.93796875 10.31828125 22.91796875 11.01953125 C22.91796875 11.34953125 22.91796875 11.67953125 22.91796875 12.01953125 C24.23796875 12.34953125 25.55796875 12.67953125 26.91796875 13.01953125 C22.46628478 17.32237472 19.02216776 19.77377635 12.91796875 21.01953125 C12.51964844 20.54902344 12.12132813 20.07851562 11.7109375 19.59375 C10.91623047 18.65982422 10.91623047 18.65982422 10.10546875 17.70703125 C9.58339844 17.09214844 9.06132813 16.47726563 8.5234375 15.84375 C7.99363281 15.24175781 7.46382812 14.63976562 6.91796875 14.01953125 C6.47453125 13.49359375 6.03109375 12.96765625 5.57421875 12.42578125 C3.3199536 10.51178254 1.01931317 9.78351934 -1.76953125 8.83203125 C-2.76339844 8.48785156 -3.75726563 8.14367187 -4.78125 7.7890625 C-5.92013672 7.40814453 -5.92013672 7.40814453 -7.08203125 7.01953125 C-7.08203125 6.35953125 -7.08203125 5.69953125 -7.08203125 5.01953125 C-5.94765625 4.87515625 -4.81328125 4.73078125 -3.64453125 4.58203125 C-0.27425924 4.40781647 -0.27425924 4.40781647 0.91796875 3.01953125 C-0.40203125 2.35953125 -1.72203125 1.69953125 -3.08203125 1.01953125 C-2.08203125 0.01953125 -2.08203125 0.01953125 0 0 Z " fill="#CB8059" transform="translate(60.08203125,94.98046875)"/>
<path d="M0 0 C-0.875 6.875 -0.875 6.875 -2 8 C-1.34 7.67 -0.68 7.34 0 7 C0.65555119 4.47266765 0.65555119 4.47266765 1 2 C2.32 2 3.64 2 5 2 C5 3.65 5 5.3 5 7 C4.34 7 3.68 7 3 7 C2.67 8.32 2.34 9.64 2 11 C4.31856917 12.54571278 6.50638429 13.79618552 9 15 C8.505 11.535 8.505 11.535 8 8 C8.99 8.33 9.98 8.66 11 9 C11 11.31 11 13.62 11 16 C9.35 16.33 7.7 16.66 6 17 C6 17.66 6 18.32 6 19 C-2.94359387 19.72125757 -8.64898204 16.90067864 -16 12 C-16.1875 9.375 -16.1875 9.375 -16 7 C-17.65 8.65 -19.3 10.3 -21 12 C-21.99 11.67 -22.98 11.34 -24 11 C-23.42655063 8.13275314 -23.1385485 7.1385485 -21 5 C-18.72720185 4.65929591 -16.48577736 4.55858171 -14.19140625 4.44140625 C-11.5440534 3.90816049 -10.80243261 2.93799161 -9 1 C-5.90943079 0.29174456 -3.16928692 0 0 0 Z " fill="#9B555E" transform="translate(99,61)"/>
<path d="M0 0 C0.67095703 0.58007812 0.67095703 0.58007812 1.35546875 1.171875 C4.8521026 4.18390075 8.37407463 7.14321031 12 10 C11.67 8.35 11.34 6.7 11 5 C11.763125 5.639375 12.52625 6.27875 13.3125 6.9375 C15.88246713 9.14232781 15.88246713 9.14232781 19 10 C18.67 11.98 18.34 13.96 18 16 C17.01 15.67 16.02 15.34 15 15 C15 15.66 15 16.32 15 17 C15.99 17.33 16.98 17.66 18 18 C18.66 18.66 19.32 19.32 20 20 C19.67 20.99 19.34 21.98 19 23 C19 22.34 19 21.68 19 21 C18.34 21 17.68 21 17 21 C16.01 23.475 16.01 23.475 15 26 C14.01 26 13.02 26 12 26 C11.34 26.99 10.68 27.98 10 29 C5.64624551 24.61806587 3.22590101 20.81590767 1.640625 14.8203125 C1.16395125 12.79229211 1.16395125 12.79229211 -1 12 C-1 11.01 -1 10.02 -1 9 C-1.66 9 -2.32 9 -3 9 C-3.33 8.01 -3.66 7.02 -4 6 C-3.01 6 -2.02 6 -1 6 C-0.67 4.02 -0.34 2.04 0 0 Z " fill="#FBCC81" transform="translate(107,42)"/>
<path d="M0 0 C11.73734562 0.49946152 20.03998549 10.26017953 28 18 C28.77730469 18.75152344 29.55460937 19.50304687 30.35546875 20.27734375 C35.0156507 25.12356091 35.0156507 25.12356091 34.9375 29.5 C34.628125 30.325 34.31875 31.15 34 32 C28.92054337 29.93059174 25.65117455 25.70327362 21.984375 21.7734375 C14.62996068 13.71305107 14.62996068 13.71305107 4.81640625 9.45703125 C1.96093453 8.73855772 0.57363599 7.43198289 -1 5 C-0.75 2.25 -0.75 2.25 0 0 Z " fill="#909CB0" transform="translate(25,34)"/>
<path d="M0 0 C2.4375 1.5625 2.4375 1.5625 4 4 C3.79511302 7.82455687 2.93177817 11.30529701 2 15 C3.28197266 15.83144531 3.28197266 15.83144531 4.58984375 16.6796875 C5.70588973 17.41121343 6.8217664 18.14299771 7.9375 18.875 C9.03964844 19.59429687 10.14179687 20.31359375 11.27734375 21.0546875 C14 23 14 23 15 25 C6.94 25.155 6.94 25.155 4 24 C3.56171875 23.54882812 3.1234375 23.09765625 2.671875 22.6328125 C0.76882906 20.77423025 -1.22628682 19.56309648 -3.5 18.1875 C-7.42555233 15.60876318 -9.53053734 13.60431633 -11 9 C-11.5 6.375 -11.5 6.375 -11 4 C-7.60027108 0.300295 -4.9827138 -0.8481215 0 0 Z " fill="#C19C9F" transform="translate(82,19)"/>
<path d="M0 0 C0.66 0 1.32 0 2 0 C-0.24603555 6.63115259 -5.14692658 12.34161669 -10.90234375 16.3125 C-14.89607239 18.1961634 -18.66470279 18.47294151 -23 18 C-26.4375 16.5 -26.4375 16.5 -29 15 C-29 14.34 -29 13.68 -29 13 C-26.41210938 11.97460938 -26.41210938 11.97460938 -23.82421875 10.94921875 C-21.9270813 10.07830194 -21.9270813 10.07830194 -20.4921875 8.4921875 C-16.18912835 4.18912835 -8.76853187 3.45144404 -3.00390625 2.52734375 C-2.34261719 2.35332031 -1.68132812 2.17929688 -1 2 C-0.67 1.34 -0.34 0.68 0 0 Z " fill="#FAC97D" transform="translate(103,102)"/>
<path d="M0 0 C1.66666667 0 3.33333333 0 5 0 C5.020625 0.928125 5.04125 1.85625 5.0625 2.8125 C5.62844359 6.00696214 5.62844359 6.00696214 7.625 7.06640625 C9.38218533 7.79974771 11.19037549 8.40775925 13 9 C11.02 9.99 11.02 9.99 9 11 C11.31 11.66 13.62 12.32 16 13 C16 13.66 16 14.32 16 15 C11.33333333 15 6.66666667 15 2 15 C1.36578125 15.18433594 0.7315625 15.36867188 0.078125 15.55859375 C-3.50491942 16.31965394 -6.52370697 14.98494969 -10 14 C-10 13.34 -10 12.68 -10 12 C-11.32 11.67 -12.64 11.34 -14 11 C-14.33 8.36 -14.66 5.72 -15 3 C-13.35 2.34 -11.7 1.68 -10 1 C-8.35 4.3 -6.7 7.6 -5 11 C-3.35 11 -1.7 11 0 11 C0 7.37 0 3.74 0 0 Z " fill="#D78265" transform="translate(74,82)"/>
<path d="M0 0 C2.00507927 1.11592209 4.00396096 2.24298712 6 3.375 C7.11375 4.00148438 8.2275 4.62796875 9.375 5.2734375 C10.24125 5.84320313 11.1075 6.41296875 12 7 C12 7.66 12 8.32 12 9 C13.24716797 9.07347656 13.24716797 9.07347656 14.51953125 9.1484375 C15.60621094 9.22320312 16.69289063 9.29796875 17.8125 9.375 C18.89144531 9.44460937 19.97039062 9.51421875 21.08203125 9.5859375 C24 10 24 10 27 12 C28.85753812 15.23349228 30 17.24413583 30 21 C22.46982957 19.64210041 22.46982957 19.64210041 20.125 16.4375 C19.568125 15.2309375 19.568125 15.2309375 19 14 C18.34 13.67 17.68 13.34 17 13 C17.33 13.99 17.66 14.98 18 16 C15 17 15 17 12.8125 16.0625 C12.214375 15.711875 11.61625 15.36125 11 15 C11 14.34 11 13.68 11 13 C10.28972656 12.93941406 9.57945313 12.87882812 8.84765625 12.81640625 C7.92855469 12.73261719 7.00945312 12.64882813 6.0625 12.5625 C4.68771484 12.44068359 4.68771484 12.44068359 3.28515625 12.31640625 C1 12 1 12 0 11 C-0.07226502 9.14712498 -0.0838122 7.29166122 -0.0625 5.4375 C-0.05347656 4.42558594 -0.04445313 3.41367187 -0.03515625 2.37109375 C-0.02355469 1.58863281 -0.01195313 0.80617187 0 0 Z " fill="#CAC4C2" transform="translate(74,34)"/>
<path d="M0 0 C0.99 0.33 1.98 0.66 3 1 C4.89212737 1.22179785 6.78884472 1.40614015 8.6875 1.5625 C9.68136719 1.64628906 10.67523438 1.73007813 11.69921875 1.81640625 C12.83810547 1.90728516 12.83810547 1.90728516 14 2 C14.33 1.34 14.66 0.68 15 0 C15.86625 0.474375 16.7325 0.94875 17.625 1.4375 C20.85387374 2.93234895 23.49033826 3.58218313 27 4 C27.33 4.99 27.66 5.98 28 7 C25.43984764 10.84022854 23.98610588 10.75543588 19.5625 11.6875 C18.40878906 11.93886719 17.25507812 12.19023438 16.06640625 12.44921875 C13 13 13 13 10 13 C8.32900023 13.31088368 6.66128463 13.64080332 5 14 C6.44253657 10.63408134 8.33264727 8.48952921 11 6 C10.31292969 5.95101562 9.62585938 5.90203125 8.91796875 5.8515625 C8.01691406 5.77679688 7.11585937 5.70203125 6.1875 5.625 C5.29417969 5.55539063 4.40085937 5.48578125 3.48046875 5.4140625 C1 5 1 5 -2 3 C-2 2.34 -2 1.68 -2 1 C-1.34 0.67 -0.68 0.34 0 0 Z " fill="#CD8156" transform="translate(76,95)"/>
<path d="M0 0 C3.51098025 4.01254885 5.76537994 8.20983041 8 13 C7.01 13.61875 6.02 14.2375 5 14.875 C2.69540454 16.74139773 2.06471737 17.58441295 1.6015625 20.55859375 C1.62287348 23.06263384 1.73892222 25.51009157 2 28 C1.34 27.67 0.68 27.34 0 27 C0 26.01 0 25.02 0 24 C-0.66 24 -1.32 24 -2 24 C-2 22.35 -2 20.7 -2 19 C-2.721875 19.20625 -3.44375 19.4125 -4.1875 19.625 C-7.44641585 20.05952211 -9.08304504 19.41680669 -12 18 C-10.68 17.67 -9.36 17.34 -8 17 C-8 15.35 -8 13.7 -8 12 C-7.34 12.33 -6.68 12.66 -6 13 C-5.01 9.7 -4.02 6.4 -3 3 C-2.34 3 -1.68 3 -1 3 C-1 3.66 -1 4.32 -1 5 C-0.34 5 0.32 5 1 5 C0.67 3.35 0.34 1.7 0 0 Z " fill="#D97E7C" transform="translate(53,63)"/>
<path d="M0 0 C1.23076923 6.4 1.23076923 6.4 0.0625 9.4375 C-0.288125 9.953125 -0.63875 10.46875 -1 11 C-1.66 10.67 -2.32 10.34 -3 10 C-0.69 13.3 1.62 16.6 4 20 C3.67 20.66 3.34 21.32 3 22 C2.62488281 21.52949219 2.24976562 21.05898438 1.86328125 20.57421875 C-1.12910715 16.93360516 -3.70906609 14.14546696 -8 12 C-7.01 12.99 -6.02 13.98 -5 15 C-5.33 15.66 -5.66 16.32 -6 17 C-11.875 12.25 -11.875 12.25 -13 10 C-13.57579318 3.78143361 -13.57579318 3.78143361 -11.25 0.625 C-6.93983225 -2.48789893 -4.77839638 -2.25646496 0 0 Z " fill="#6B6F83" transform="translate(112,20)"/>
<path d="M0 0 C1.98 0.99 3.96 1.98 6 3 C6.33 2.01 6.66 1.02 7 0 C13.94648804 -0.5209866 19.68709614 -0.78063391 25.5078125 3.421875 C27.99740669 6.05484895 28.44491462 8.46133073 29 12 C28.34 12 27.68 12 27 12 C27 13.98 27 15.96 27 18 C23.31245243 17.50168276 21.39509338 16.89932357 19 14 C19.66 12.68 20.32 11.36 21 10 C21.66 10 22.32 10 23 10 C23 8.35 23 6.7 23 5 C21.68 5 20.36 5 19 5 C18.896875 6.11375 18.79375 7.2275 18.6875 8.375 C18.460625 9.57125 18.23375 10.7675 18 12 C17.01 12.66 16.02 13.32 15 14 C15.4748935 9.88425629 16.0210244 6.63616656 18 3 C16.55989519 3.25662245 15.1229313 3.53090821 13.6875 3.8125 C12.48673828 4.03873047 12.48673828 4.03873047 11.26171875 4.26953125 C8.76554413 5.07572236 7.67577894 6.02052002 6 8 C3.5625 7.375 3.5625 7.375 1 6 C0.1875 2.875 0.1875 2.875 0 0 Z " fill="#97545A" transform="translate(81,58)"/>
<path d="M0 0 C0.99 0 1.98 0 3 0 C3 0.66 3 1.32 3 2 C6.98196457 3.05404945 9.98195309 2.84098656 14 2 C13.47107932 5.6142913 12.49026555 7.58084805 9.7109375 9.95703125 C2.58299389 15 2.58299389 15 0 15 C-0.33 14.34 -0.66 13.68 -1 13 C-2.94959523 12.53738418 -4.89995191 12.07753327 -6.85546875 11.640625 C-10.07608395 10.67854687 -12.32365203 9.00726097 -15 7 C-11.9037044 3.9037044 -8.5774348 4.19986218 -4.33203125 3.88671875 C0.89874238 4.06455279 5.28591001 5.8378288 10 8 C10 7.34 10 6.68 10 6 C8.906875 5.896875 7.81375 5.79375 6.6875 5.6875 C3 5 3 5 1.0625 3.5625 C0 2 0 2 0 0 Z " fill="#B5675E" transform="translate(104,87)"/>
<path d="M0 0 C0.51046875 0.64195313 1.0209375 1.28390625 1.546875 1.9453125 C5.38029697 5.15610861 9.51057102 4.89096974 14.375 5.1875 C16.23710725 5.32510047 18.09909132 5.46437984 19.9609375 5.60546875 C20.83202148 5.66782715 21.70310547 5.73018555 22.60058594 5.79443359 C25.43354507 6.03714336 28.20839261 6.46315243 31 7 C28.5826776 9.64754358 26.75893589 10.81295569 23.08984375 11.203125 C17.80668686 11.31818468 13.61761738 10.39596894 8.625 8.7265625 C4.9216092 7.70151683 1.27178323 7.49266596 -2.5546875 7.30859375 C-5.10587 6.98663941 -6.78906279 6.28028689 -9 5 C-8.625 3.0625 -8.625 3.0625 -8 1 C-5.15916359 -0.42041821 -3.14522722 -0.31452272 0 0 Z " fill="#E1D0B3" transform="translate(19,88)"/>
<path d="M0 0 C2.01189015 1.65422079 4.01051413 3.31931474 6 5 C6.61875 5.515625 7.2375 6.03125 7.875 6.5625 C9 8 9 8 9 12 C9.99 12 10.98 12 12 12 C12.33 11.34 12.66 10.68 13 10 C13.33 11.65 13.66 13.3 14 15 C14.66 15 15.32 15 16 15 C19.70357185 19.44428622 19.68822208 24.46325415 20 30 C18.35 30.33 16.7 30.66 15 31 C12.94233605 27.91350407 11.50007902 24.82395242 10.1875 21.375 C8.30673457 16.5169611 5.94501278 12.06418044 3.3671875 7.54296875 C2.04234907 5.07876928 0.98615851 2.61566803 0 0 Z " fill="#AB6066" transform="translate(54,63)"/>
<path d="M0 0 C4.1049874 6.1574811 6.89401162 13.5499032 6 21 C5.25 23.875 5.25 23.875 4 26 C1.875 26.8125 1.875 26.8125 0 27 C0 27.66 0 28.32 0 29 C-1.65 29.33 -3.3 29.66 -5 30 C-5.66 28.35 -6.32 26.7 -7 25 C-4.69 24.01 -2.38 23.02 0 22 C-0.66 21.67 -1.32 21.34 -2 21 C-2.14285714 12.42857143 -2.14285714 12.42857143 -1 9 C-0.01 9 0.98 9 2 9 C0.85123314 5.55369942 -0.19140915 5.08379321 -3 3 C-3 2.34 -3 1.68 -3 1 C-2.01 0.67 -1.02 0.34 0 0 Z " fill="#EDA062" transform="translate(125,56)"/>
<path d="M0 0 C-0.33 1.32 -0.66 2.64 -1 4 C-1.66 4 -2.32 4 -3 4 C-3.33 7.63 -3.66 11.26 -4 15 C-9.44328904 15 -10.20127698 14.47311819 -14 11 C-12.024 2.944 -12.024 2.944 -9 1 C-5.90943079 0.29174456 -3.16928692 0 0 0 Z " fill="#C5C5C1" transform="translate(99,61)"/>
<path d="M0 0 C1.08667969 0.20367187 2.17335938 0.40734375 3.29296875 0.6171875 C4.12441406 0.78476562 4.95585938 0.95234375 5.8125 1.125 C5.8125 3.105 5.8125 5.085 5.8125 7.125 C2.31534756 8.29071748 -0.56553677 8.3292776 -4.25 8.375 C-5.49910156 8.40078125 -6.74820313 8.4265625 -8.03515625 8.453125 C-9.07542969 8.34484375 -10.11570312 8.2365625 -11.1875 8.125 C-11.8475 7.135 -12.5075 6.145 -13.1875 5.125 C-8.62671558 0.40694715 -6.61061915 -1.27947467 0 0 Z " fill="#C1C0C9" transform="translate(79.1875,45.875)"/>
<path d="M0 0 C5.34108828 4.32373813 6.66762574 11.03297854 7.5 17.625 C7.7421875 20.09375 7.7421875 20.09375 7.625 22.125 C5.625 24.125 5.625 24.125 2.5 24.25 C1.076875 24.188125 1.076875 24.188125 -0.375 24.125 C0.945 23.465 2.265 22.805 3.625 22.125 C3.96948648 15.00970237 3.96948648 15.00970237 2.625 8.125 C0.82572961 6.85010734 0.82572961 6.85010734 -1.375 6.125 C-1.98214844 5.79113281 -2.58929688 5.45726562 -3.21484375 5.11328125 C-5.59702143 4.02342419 -7.52420219 3.72948216 -10.125 3.5 C-11.32382813 3.38785156 -11.32382813 3.38785156 -12.546875 3.2734375 C-13.45179687 3.19996094 -13.45179687 3.19996094 -14.375 3.125 C-14.705 2.135 -15.035 1.145 -15.375 0.125 C-10.77722031 -2.17388984 -4.81323121 -1.24787476 0 0 Z " fill="#D48185" transform="translate(105.375,54.875)"/>
<path d="M0 0 C2.4375 1.75 2.4375 1.75 4 4 C4.1875 6.0625 4.1875 6.0625 3 8 C-2.6740682 11.10467883 -2.6740682 11.10467883 -6.375 10.8125 C-8 10 -8 10 -9 8 C-9.66 8 -10.32 8 -11 8 C-10.67842796 5.02545866 -10.37860258 3.40664722 -8.3125 1.1875 C-5.26453845 -0.37766945 -3.38514427 -0.49366687 0 0 Z " fill="#BCBEC7" transform="translate(82,19)"/>
<path d="M0 0 C3.69357475 0.47353522 7.00965687 1.3104649 10.5 2.5625 C14.154154 3.84422687 17.11250827 4.09481687 21 4 C21.66 4.66 22.32 5.32 23 6 C18.17339796 9.99442927 12.93282818 9.51626608 7 9 C4.54286613 8.50518991 2.36878285 7.8422339 0 7 C0.2784375 6.1028125 0.2784375 6.1028125 0.5625 5.1875 C1.22093687 2.83591238 1.22093687 2.83591238 0 0 Z " fill="#A65464" transform="translate(66,96)"/>
<path d="M0 0 C0 1.32 0 2.64 0 4 C-4.58055615 8.47403159 -8.26112238 10.91020073 -14.8125 11.125 C-16.3903125 11.063125 -16.3903125 11.063125 -18 11 C-18.33 10.34 -18.66 9.68 -19 9 C-18.0925 8.4225 -17.185 7.845 -16.25 7.25 C-13.04113879 5.18322761 -13.04113879 5.18322761 -10.875 2.8125 C-7.6003623 -0.35298311 -4.39268369 -0.12201899 0 0 Z " fill="#F5DCA1" transform="translate(98,109)"/>
<path d="M0 0 C1.45945288 0.08708669 2.91765868 0.19526907 4.375 0.3125 C5.59316406 0.39951172 5.59316406 0.39951172 6.8359375 0.48828125 C9 1 9 1 11 4 C10.67 4.99 10.34 5.98 10 7 C10 6.34 10 5.68 10 5 C9.34 5 8.68 5 8 5 C7.34 6.65 6.68 8.3 6 10 C5.01 10 4.02 10 3 10 C2.01 11.485 2.01 11.485 1 13 C0.01216806 11.92456217 -0.96493943 10.83926783 -1.9375 9.75 C-2.48277344 9.14671875 -3.02804688 8.5434375 -3.58984375 7.921875 C-5.06212799 5.91532695 -5.57529189 4.42997551 -6 2 C-2.25 0.875 -2.25 0.875 0 2 C0 1.34 0 0.68 0 0 Z " fill="#F5BD7A" transform="translate(116,58)"/>
<path d="M0 0 C9.31543624 7.81208054 9.31543624 7.81208054 12 11 C11.87165745 13.31016597 11.63394255 14.36605745 10 16 C6.5625 16.1875 6.5625 16.1875 3 16 C0.14206684 13.14206684 0.59200059 10.85334416 0.375 6.875 C0.30023438 5.59367187 0.22546875 4.31234375 0.1484375 2.9921875 C0.09945312 2.00476562 0.05046875 1.01734375 0 0 Z " fill="#F6ECD0" transform="translate(36,45)"/>
<path d="M0 0 C3.1875 0.3125 3.1875 0.3125 5.5625 2.3125 C6.09875 2.9725 6.635 3.6325 7.1875 4.3125 C6.8575 5.3025 6.5275 6.2925 6.1875 7.3125 C7.82829242 8.95329242 9.96518765 8.91362342 12.1875 9.3125 C11.259375 9.43625 11.259375 9.43625 10.3125 9.5625 C8.00312433 10.12508459 8.00312433 10.12508459 6.9375 12.375 C6.69 13.014375 6.4425 13.65375 6.1875 14.3125 C5.80980469 13.86261719 5.43210937 13.41273437 5.04296875 12.94921875 C2.6935088 10.87674776 0.45676656 10.13377918 -2.5 9.125 C-3.49386719 8.78082031 -4.48773438 8.43664062 -5.51171875 8.08203125 C-6.65060547 7.70111328 -6.65060547 7.70111328 -7.8125 7.3125 C-7.8125 6.6525 -7.8125 5.9925 -7.8125 5.3125 C-6.678125 5.168125 -5.54375 5.02375 -4.375 4.875 C-1.00472799 4.70078522 -1.00472799 4.70078522 0.1875 3.3125 C-1.1325 2.6525 -2.4525 1.9925 -3.8125 1.3125 C-2.8125 0.3125 -2.8125 0.3125 0 0 Z " fill="#8B767F" transform="translate(60.8125,94.6875)"/>
<path d="M0 0 C5.875 4.75 5.875 4.75 7 7 C7.06996014 8.70702735 7.08440154 10.41668003 7.0625 12.125 C7.05347656 13.03507812 7.04445313 13.94515625 7.03515625 14.8828125 C7.02355469 15.58148438 7.01195312 16.28015625 7 17 C6.34 16.67 5.68 16.34 5 16 C5.33 15.34 5.66 14.68 6 14 C5.34 14 4.68 14 4 14 C4 13.34 4 12.68 4 12 C3.34 12 2.68 12 2 12 C1.67 12.99 1.34 13.98 1 15 C-2 13 -2 13 -2.7421875 11.13671875 C-3.18458601 7.47017356 -2.0391498 4.52156321 -1 1 C-0.67 0.67 -0.34 0.34 0 0 Z " fill="#FAE7B6" transform="translate(36,60)"/>
<path d="M0 0 C5.94 3.465 5.94 3.465 12 7 C11 11 11 11 9 13 C6.24279442 13.01691537 3.73283582 12.47716181 1 12 C0 11 0 11 -0.09765625 8.49609375 C-0.06510417 5.6640625 -0.03255208 2.83203125 0 0 Z " fill="#F9EECF" transform="translate(74,34)"/>
<path d="M0 0 C-0.0825 0.928125 -0.165 1.85625 -0.25 2.8125 C-0.33084251 6.02146553 -0.33084251 6.02146553 1.6875 7.8125 C4.1455731 9.07475375 6.27200523 9.62111184 9 10 C8.97679688 9.37351562 8.95359375 8.74703125 8.9296875 8.1015625 C8.91164063 7.28429687 8.89359375 6.46703125 8.875 5.625 C8.85179688 4.81289062 8.82859375 4.00078125 8.8046875 3.1640625 C9 1 9 1 11 -1 C11.33 -0.01 11.66 0.98 12 2 C11.34 2 10.68 2 10 2 C10.66 5.3 11.32 8.6 12 12 C14.31 12.33 16.62 12.66 19 13 C19 13.33 19 13.66 19 14 C10.05640613 14.72125757 4.35101796 11.90067864 -3 7 C-3.1875 4.375 -3.1875 4.375 -3 2 C-4.65 3.65 -6.3 5.3 -8 7 C-8.99 6.67 -9.98 6.34 -11 6 C-10.42655063 3.13275314 -10.1385485 2.1385485 -8 0 C-4.98413546 -1.105817 -3.03916514 -0.97687451 0 0 Z " fill="#B76B5F" transform="translate(86,66)"/>
<path d="M0 0 C0.33 2.31 0.66 4.62 1 7 C0.01 7.66 -0.98 8.32 -2 9 C-1.67 11.97 -1.34 14.94 -1 18 C-6.5 15.25 -6.5 15.25 -8 13 C-8.73152 7.96064 -8.73152 7.96064 -8 5 C-5.92777165 2.35109648 -3.52908579 0 0 0 Z " fill="#C6C3C8" transform="translate(62,76)"/>
<path d="M0 0 C0.33 2.31 0.66 4.62 1 7 C-0.45792884 7.05399736 -1.91642712 7.09279177 -3.375 7.125 C-4.18710938 7.14820313 -4.99921875 7.17140625 -5.8359375 7.1953125 C-8 7 -8 7 -10 5 C-10.66 5.99 -11.32 6.98 -12 8 C-12.75 5.75 -12.75 5.75 -13 3 C-11.22814225 0.637523 -9.75219933 -0.66029707 -7.0625 -1.875 C-4.31449878 -2.04154553 -2.46082512 -1.16205631 0 0 Z " fill="#96A7BB" transform="translate(112,20)"/>
<path d="M0 0 C3.71795643 1.61111445 5.1675353 3.3350706 7 7 C5.68 7 4.36 7 3 7 C2.67 6.34 2.34 5.68 2 5 C0.35 5.33 -1.3 5.66 -3 6 C-3 6.66 -3 7.32 -3 8 C-5.475 7.505 -5.475 7.505 -8 7 C-8 7.66 -8 8.32 -8 9 C-8.99 9 -9.98 9 -11 9 C-11.33 9.66 -11.66 10.32 -12 11 C-14.64 11 -17.28 11 -20 11 C-20.33 9.68 -20.66 8.36 -21 7 C-20.15695313 6.93941406 -19.31390625 6.87882812 -18.4453125 6.81640625 C-17.34960938 6.73261719 -16.25390625 6.64882813 -15.125 6.5625 C-14.03445312 6.48128906 -12.94390625 6.40007813 -11.8203125 6.31640625 C-9.05271029 6.16998297 -9.05271029 6.16998297 -7 5 C-6.34786708 2.97536745 -6.34786708 2.97536745 -6 1 C-4.35 1.66 -2.7 2.32 -1 3 C-0.67 2.01 -0.34 1.02 0 0 Z " fill="#AEA4B2" transform="translate(91,47)"/>
<path d="M0 0 C4.0042343 3.49087093 5.62671065 5.64951939 6 11 C5.34 11 4.68 11 4 11 C4 10.34 4 9.68 4 9 C3.01 9.33 2.02 9.66 1 10 C-5.03498671 9.02661505 -7.94521129 7.81506159 -12 3 C-11.67 2.34 -11.34 1.68 -11 1 C-10.34 1.66 -9.68 2.32 -9 3 C-5.5 3.41666667 -5.5 3.41666667 -2 3 C-1.34 2.01 -0.68 1.02 0 0 Z " fill="#F0B573" transform="translate(48,57)"/>
<path d="M0 0 C3 1 3 1 5 3 C5.99 3 6.98 3 8 3 C8 2.34 8 1.68 8 1 C8.99 0.67 9.98 0.34 11 0 C9.55218207 3.44428265 7.72305391 5.36130962 4.875 7.75 C3.78832031 8.67039062 3.78832031 8.67039062 2.6796875 9.609375 C1.84824219 10.29773438 1.84824219 10.29773438 1 11 C0.34 10.01 -0.32 9.02 -1 8 C-2.11375 8.3403125 -2.11375 8.3403125 -3.25 8.6875 C-6 9 -6 9 -8.3125 7.5625 C-8.869375 7.046875 -9.42625 6.53125 -10 6 C-6.36576791 3.67409146 -3.22911669 3.83734167 1 4 C0.67 2.68 0.34 1.36 0 0 Z " fill="#BF725B" transform="translate(117,82)"/>
<path d="M0 0 C3 1 3 1 4.1328125 2.99609375 C4.46023437 3.80175781 4.78765625 4.60742188 5.125 5.4375 C5.45757812 6.24058594 5.79015625 7.04367188 6.1328125 7.87109375 C6.41898438 8.57363281 6.70515625 9.27617188 7 10 C7.33 10.66 7.66 11.32 8 12 C6.54052295 11.93993922 5.08220728 11.8511311 3.625 11.75 C2.40683594 11.68039063 2.40683594 11.68039063 1.1640625 11.609375 C-1 11 -1 11 -2.26953125 9.1171875 C-3.15373549 6.55441371 -3.35404792 4.69076419 -3 2 C-2.01 1.34 -1.02 0.68 0 0 Z " fill="#F2BD7F" transform="translate(62,83)"/>
<path d="M0 0 C7.33650226 1.25815295 12.63533163 8.40776865 17 14 C16.67 14.66 16.34 15.32 16 16 C15.5875 15.525625 15.175 15.05125 14.75 14.5625 C13.14141142 12.87512772 13.14141142 12.87512772 11.125 12.5625 C7.06270898 11.48718767 4.56736563 8.83078538 2.25 5.4375 C1 3 1 3 0 0 Z " fill="#AAA4B6" transform="translate(39,42)"/>
<path d="M0 0 C0.66 0.33 1.32 0.66 2 1 C1.67 1.66 1.34 2.32 1 3 C3.97 2.34 6.94 1.68 10 1 C9.67 2.32 9.34 3.64 9 5 C6.89679937 5.50404808 4.79240209 6.00310508 2.6875 6.5 C0.92986328 6.91765625 0.92986328 6.91765625 -0.86328125 7.34375 C-4 8 -4 8 -7 8 C-8.67099977 8.31088368 -10.33871537 8.64080332 -12 9 C-11.28515625 7.06640625 -11.28515625 7.06640625 -10 5 C-7.87109375 4.27734375 -7.87109375 4.27734375 -5.4375 3.9375 C-3.04681229 3.65741114 -3.04681229 3.65741114 -1 3 C-0.67 2.01 -0.34 1.02 0 0 Z " fill="#DF925C" transform="translate(93,100)"/>
<path d="M0 0 C1.875 0.25 1.875 0.25 4 1 C6.35535899 4.17973464 6.17494335 7.15124621 6 11 C2.05783322 10.7312159 0.43510186 10.44655191 -2.375 7.5625 C-4 5 -4 5 -4 3 C-2.68 3 -1.36 3 0 3 C0 2.01 0 1.02 0 0 Z " fill="#BEBBC2" transform="translate(121,41)"/>
<path d="M0 0 C2.82320856 4.23481284 4.28107724 6.91144729 4.25 12.0625 C4.25515625 12.91972656 4.2603125 13.77695313 4.265625 14.66015625 C4 17 4 17 2 20 C1.01 20 0.02 20 -1 20 C-1 16.37 -1 12.74 -1 9 C-0.01 9 0.98 9 2 9 C0.85123314 5.55369942 -0.19140915 5.08379321 -3 3 C-3 2.34 -3 1.68 -3 1 C-2.01 0.67 -1.02 0.34 0 0 Z " fill="#5E3237" transform="translate(125,56)"/>
<path d="M0 0 C4.75 0.75 4.75 0.75 7 3 C5.68 3.33 4.36 3.66 3 4 C5.31 4.66 7.62 5.32 10 6 C10 6.66 10 7.32 10 8 C8.25034642 8.05429959 6.50020213 8.09292823 4.75 8.125 C3.77546875 8.14820312 2.8009375 8.17140625 1.796875 8.1953125 C-1.0196498 7.99862781 -2.60949036 7.44568916 -5 6 C-4.67 5.01 -4.34 4.02 -4 3 C-1.9375 2.3125 -1.9375 2.3125 0 2 C0 1.34 0 0.68 0 0 Z " fill="#EEA262" transform="translate(80,89)"/>
<path d="M0 0 C3.16842693 0.25689948 4.60962957 0.58270747 6.8125 2.9375 C8.5043079 7.30058354 8.24243657 11.37574683 8 16 C4.09375 13.3984375 4.09375 13.3984375 3.25 9.8125 C3.1675 8.884375 3.085 7.95625 3 7 C2.01 7 1.02 7 0 7 C0 4.69 0 2.38 0 0 Z " fill="#B3B7C0" transform="translate(70,69)"/>
<path d="M0 0 C0.66 0.99 1.32 1.98 2 3 C6.05606165 2.53199289 9.46588679 2.12046792 13 0 C11.125 5.75 11.125 5.75 10 8 C7.35139573 8.59355614 4.70802678 8.74209269 2 9 C0.68 6.36 -0.64 3.72 -2 1 C-1.34 0.67 -0.68 0.34 0 0 Z " fill="#757687" transform="translate(73,26)"/>
<path d="M0 0 C2 1.4375 2 1.4375 4 4 C4.35442445 7.02824418 4.23347235 9.96485939 4 13 C0.31245243 12.50168276 -1.60490662 11.89932357 -4 9 C-3.34 7.68 -2.68 6.36 -2 5 C-1.34 5 -0.68 5 0 5 C0 3.35 0 1.7 0 0 Z " fill="#34191E" transform="translate(104,63)"/>
<path d="M0 0 C2.3431213 0.25561323 4.67843403 0.59270772 7 1 C7.33 1.66 7.66 2.32 8 3 C7.0625 5.125 7.0625 5.125 6 7 C4.68 6.34 3.36 5.68 2 5 C2 7.97 2 10.94 2 14 C-0.4375 13.3125 -0.4375 13.3125 -3 12 C-3.8125 9.375 -3.8125 9.375 -4 7 C-3.34 7 -2.68 7 -2 7 C-2 7.66 -2 8.32 -2 9 C-1.34 9 -0.68 9 0 9 C0.33 9.99 0.66 10.98 1 12 C0.67 8.04 0.34 4.08 0 0 Z " fill="#F7E0A0" transform="translate(42,65)"/>
<path d="M0 0 C0.33 0.66 0.66 1.32 1 2 C-0.66215488 2.71235209 -2.32455944 3.42412775 -3.98828125 4.1328125 C-5.30312308 4.69959869 -6.61332427 5.27730751 -7.91796875 5.8671875 C-10.79737895 7.15647565 -12.80679558 8 -16 8 C-14.77435227 4.18687371 -12.41136694 2.60989482 -8.953125 0.75 C-5.94535397 -0.40498408 -3.16882063 -0.25867923 0 0 Z " fill="#BCBDC7" transform="translate(79,57)"/>
<path d="M0 0 C1.32 0.66 2.64 1.32 4 2 C4 4.31 4 6.62 4 9 C3.34 8.01 2.68 7.02 2 6 C1.67 7.32 1.34 8.64 1 10 C-1.89074433 10.82592695 -3.78247084 11.0444946 -6.75 10.4375 C-9 9 -9 9 -9.8125 5.875 C-9.874375 4.92625 -9.93625 3.9775 -10 3 C-6.66666667 5 -3.33333333 7 0 9 C0 6.03 0 3.06 0 0 Z " fill="#DEB897" transform="translate(44,70)"/>
<path d="M0 0 C3 0 3 0 5.375 1.0625 C8.42935556 2.15334127 9.93172255 1.91219059 13 1 C13.66 0.67 14.32 0.34 15 0 C14.9375 1.8125 14.9375 1.8125 14 4 C8.3259318 7.10467883 8.3259318 7.10467883 4.625 6.8125 C3 6 3 6 2 4 C1.34 4 0.68 4 0 4 C0 2.68 0 1.36 0 0 Z " fill="#95A6BB" transform="translate(71,23)"/>
<path d="M0 0 C2.1875 0.3125 2.1875 0.3125 4 1 C1.62904069 6.02085501 -1.03735386 7.82340081 -6 10 C-8.4375 9.25 -8.4375 9.25 -10 8 C-10 7.34 -10 6.68 -10 6 C-8.906875 5.566875 -7.81375 5.13375 -6.6875 4.6875 C-4.35837561 3.71001607 -3.08746555 3.09070502 -1.3125 1.25 C-0.6628125 0.63125 -0.6628125 0.63125 0 0 Z " fill="#F2BC78" transform="translate(84,109)"/>
<path d="M0 0 C0.66 0 1.32 0 2 0 C2.45375 1.134375 2.9075 2.26875 3.375 3.4375 C4.57095806 7.04721692 4.57095806 7.04721692 7 8 C7 7.34 7 6.68 7 6 C7.99 6 8.98 6 10 6 C10 7.98 10 9.96 10 12 C8.35 12.33 6.7 12.66 5 13 C0 5.04545455 0 5.04545455 0 0 Z " fill="#AA545E" transform="translate(64,81)"/>
<path d="M0 0 C2.3125 0 2.3125 0 5 1 C7.29999927 4.92617063 8 8.47408842 8 13 C7.01 13 6.02 13 5 13 C4.62875 11.88625 4.62875 11.88625 4.25 10.75 C2.90852699 7.79875938 1.39094474 6.15185026 -1 4 C-0.34 4 0.32 4 1 4 C0.67 2.68 0.34 1.36 0 0 Z " fill="#C3888B" transform="translate(58,62)"/>
<path d="M0 0 C3.82675963 1.50336986 5.48440888 3.83522408 8 7 C8.99 7.33 9.98 7.66 11 8 C11.33 9.98 11.66 11.96 12 14 C7.4148647 11.94529257 4.15872236 8.8735911 1 5 C0.0625 2.0625 0.0625 2.0625 0 0 Z " fill="#A96165" transform="translate(107,38)"/>
<path d="M0 0 C0.33 0.66 0.66 1.32 1 2 C-8.22551253 6.59225513 -8.22551253 6.59225513 -14 6 C-14 5.34 -14 4.68 -14 4 C-13.34 4 -12.68 4 -12 4 C-12 3.34 -12 2.68 -12 2 C-7.8794254 0.00214565 -4.54805635 -0.17835515 0 0 Z " fill="#F8BB72" transform="translate(125,77)"/>
<path d="M0 0 C4.93904903 2.81717603 8.61833868 5.31769971 12 10 C12.66 10.33 13.32 10.66 14 11 C14 12.32 14 13.64 14 15 C10.18447383 13.50104329 8.46254954 11.2013144 6 8 C5.34 7.67 4.68 7.34 4 7 C3.67 6.01 3.34 5.02 3 4 C2.01 3.34 1.02 2.68 0 2 C0 1.34 0 0.68 0 0 Z " fill="#BC969D" transform="translate(103,31)"/>
<path d="M0 0 C0.598125 0.33 1.19625 0.66 1.8125 1 C4.05386471 2.20787988 4.05386471 2.20787988 7 2 C8.75 3.625 8.75 3.625 10 6 C9.6875 9.25 9.6875 9.25 9 12 C5.22481455 10.74160485 4.80240862 9.44096192 3 6 C2.67 5.01 2.34 4.02 2 3 C1.34 3 0.68 3 0 3 C0 2.01 0 1.02 0 0 Z " fill="#BB9AA2" transform="translate(50,54)"/>
<path d="M0 0 C0.33 0.99 0.66 1.98 1 3 C0.01 3.495 0.01 3.495 -1 4 C-1 4.66 -1 5.32 -1 6 C-0.34 6 0.32 6 1 6 C1 6.99 1 7.98 1 9 C1.99 9.33 2.98 9.66 4 10 C5.45007937 12.68264684 6.11784055 14.27331661 5.625 17.3125 C5.315625 18.1478125 5.315625 18.1478125 5 19 C4.87625 18.195625 4.7525 17.39125 4.625 16.5625 C4.41875 15.716875 4.2125 14.87125 4 14 C3.34 13.67 2.68 13.34 2 13 C-1.80026809 10.46648794 -2.50840015 8.25105957 -4 4 C-3.67 3.01 -3.34 2.02 -3 1 C-2.01 0.67 -1.02 0.34 0 0 Z " fill="#DEA578" transform="translate(105,45)"/>
<path d="M0 0 C-3.32307692 3.93846154 -3.32307692 3.93846154 -6.75 4.25 C-7.4925 4.1675 -8.235 4.085 -9 4 C-9.33 4.99 -9.66 5.98 -10 7 C-10.99 7.66 -11.98 8.32 -13 9 C-13.66 8.67 -14.32 8.34 -15 8 C-15 8.66 -15 9.32 -15 10 C-16.32 9.67 -17.64 9.34 -19 9 C-18.0925 8.4225 -17.185 7.845 -16.25 7.25 C-13.04113879 5.18322761 -13.04113879 5.18322761 -10.875 2.8125 C-7.6003623 -0.35298311 -4.39268369 -0.12201899 0 0 Z " fill="#FBDE90" transform="translate(98,109)"/>
<path d="M0 0 C1.98 0.99 3.96 1.98 6 3 C6.33 2.01 6.66 1.02 7 0 C7 0.66 7 1.32 7 2 C8.32 2 9.64 2 11 2 C11 2.66 11 3.32 11 4 C9.37373596 5.38232443 7.7074998 6.71937515 6 8 C3.5625 7.375 3.5625 7.375 1 6 C0.1875 2.875 0.1875 2.875 0 0 Z " fill="#201214" transform="translate(81,58)"/>
<path d="M0 0 C0.763125 0.639375 1.52625 1.27875 2.3125 1.9375 C4.88246713 4.14232781 4.88246713 4.14232781 8 5 C7.67 6.98 7.34 8.96 7 11 C4.625 10.8125 4.625 10.8125 2 10 C0.05074939 6.65842753 -0.21821974 3.81884554 0 0 Z " fill="#DDA889" transform="translate(118,47)"/>
<path d="M0 0 C-0.33 1.32 -0.66 2.64 -1 4 C-1.66 4 -2.32 4 -3 4 C-3.66 5.32 -4.32 6.64 -5 8 C-6.9375 7.6875 -6.9375 7.6875 -9 7 C-9.33 6.01 -9.66 5.02 -10 4 C-9.34 4 -8.68 4 -8 4 C-7.67 3.01 -7.34 2.02 -7 1 C-4.52260646 0.09162237 -2.66420516 0 0 0 Z " fill="#EBE5DE" transform="translate(99,61)"/>
<path d="M0 0 C3.465 1.98 3.465 1.98 7 4 C6.67 5.32 6.34 6.64 6 8 C4.35 8.33 2.7 8.66 1 9 C-1.09230769 4.56923077 -1.09230769 4.56923077 -0.625 1.6875 C-0.41875 1.130625 -0.2125 0.57375 0 0 Z " fill="#F4D89E" transform="translate(79,37)"/>
<path d="M0 0 C1.32 0 2.64 0 4 0 C4 1.65 4 3.3 4 5 C4.66 5 5.32 5 6 5 C7.49524178 7.2727675 8.78399715 9.5679943 10 12 C6 12 6 12 4.515625 10.57421875 C4.09796875 9.95160156 3.6803125 9.32898438 3.25 8.6875 C2.82203125 8.07261719 2.3940625 7.45773438 1.953125 6.82421875 C1 5 1 5 1 2 C0.34 1.67 -0.32 1.34 -1 1 C-0.67 0.67 -0.34 0.34 0 0 Z " fill="#D6B699" transform="translate(47,82)"/>
<path d="M0 0 C0.65226562 0.13277344 1.30453125 0.26554687 1.9765625 0.40234375 C6.6408287 1.34482822 11.29868454 2.25768703 16 3 C11.616 7.01866667 11.616 7.01866667 8.9375 6.9375 C6.72242749 5.86569072 4.94278741 4.50409348 3 3 C2.01 2.67 1.02 2.34 0 2 C0 1.34 0 0.68 0 0 Z " fill="#B5665D" transform="translate(73,98)"/>
<path d="M0 0 C0.99 0 1.98 0 3 0 C3 0.66 3 1.32 3 2 C6.98196457 3.05404945 9.98195309 2.84098656 14 2 C13.67 3.32 13.34 4.64 13 6 C8.03567635 6.29201904 4.96298426 6.14707573 1 3 C0.67 2.01 0.34 1.02 0 0 Z " fill="#9D4751" transform="translate(104,87)"/>
<path d="M0 0 C4.26672384 0.47408043 6.2455048 2.88307122 9 6 C10.3125 8.3125 10.3125 8.3125 11 10 C11.66 10 12.32 10 13 10 C14.38232443 11.62626404 15.71937515 13.2925002 17 15 C16.67 15.66 16.34 16.32 16 17 C15.29488281 16.29359375 14.58976562 15.5871875 13.86328125 14.859375 C11.95076988 12.94618902 10.03091117 11.04079234 8.10546875 9.140625 C7.13280027 8.17709568 6.16014408 7.21355395 5.1875 6.25 C4.68541016 5.75628906 4.18332031 5.26257812 3.66601562 4.75390625 C2.4250615 3.52139399 1.20996878 2.26294465 0 1 C0 0.67 0 0.34 0 0 Z " fill="#8E7D8B" transform="translate(39,47)"/>
<path d="M0 0 C0.91007812 0.00902344 1.82015625 0.01804688 2.7578125 0.02734375 C3.45648438 0.03894531 4.15515625 0.05054688 4.875 0.0625 C4.215 1.3825 3.555 2.7025 2.875 4.0625 C-0.095 4.0625 -3.065 4.0625 -6.125 4.0625 C-6.455 3.0725 -6.785 2.0825 -7.125 1.0625 C-4.60024538 -0.19987731 -2.81299534 -0.03606404 0 0 Z " fill="#CD8589" transform="translate(97.125,53.9375)"/>
<path d="M0 0 C0.99 0.33 1.98 0.66 3 1 C4.6875 4.5625 4.6875 4.5625 6 8 C4.02 9.32 2.04 10.64 0 12 C0.33 9.36 0.66 6.72 1 4 C0.34 3.67 -0.32 3.34 -1 3 C-0.67 2.01 -0.34 1.02 0 0 Z " fill="#E3A97D" transform="translate(55,68)"/>
<path d="M0 0 C0.33 1.65 0.66 3.3 1 5 C-2.63 4.01 -6.26 3.02 -10 2 C-10 1.34 -10 0.68 -10 0 C-6.30581799 -1.231394 -3.7943739 -0.64432764 0 0 Z " fill="#8C8799" transform="translate(63,100)"/>
<path d="M0 0 C5.46875 4.39453125 5.46875 4.39453125 7 6 C7 6.99 7 7.98 7 9 C5.35 8.67 3.7 8.34 2 8 C2 9.65 2 11.3 2 13 C1.67 13 1.34 13 1 13 C0.67 8.71 0.34 4.42 0 0 Z " fill="#E6DFCD" transform="translate(36,45)"/>
<path d="M0 0 C4.34887281 0.50179302 6.9247954 3.06147116 10 6 C10.875 8.3125 10.875 8.3125 11 10 C10.34 10 9.68 10 9 10 C9 9.34 9 8.68 9 8 C8.2575 7.7525 7.515 7.505 6.75 7.25 C3.76976913 5.89534961 2.10080748 4.4898459 0 2 C0 1.34 0 0.68 0 0 Z " fill="#ADB4BE" transform="translate(39,42)"/>
<path d="M0 0 C1.98 0 3.96 0 6 0 C6.33 1.65 6.66 3.3 7 5 C6.2575 4.835 5.515 4.67 4.75 4.5 C1.80993422 3.88074304 1.80993422 3.88074304 -2 4 C-1.34 2.68 -0.68 1.36 0 0 Z " fill="#F9E8BA" transform="translate(13,88)"/>
<path d="M0 0 C3.37462715 0.54723683 5.08235 1.0549 8 3 C8 3.66 8 4.32 8 5 C5.75 6.1875 5.75 6.1875 3 7 C0.6875 5.625 0.6875 5.625 -1 4 C-0.67 2.68 -0.34 1.36 0 0 Z " fill="#F5B26E" transform="translate(83,74)"/>
<path d="M0 0 C2 1 2 1 2.8515625 3.06640625 C3.10679688 3.89011719 3.36203125 4.71382813 3.625 5.5625 C3.88539062 6.38878906 4.14578125 7.21507813 4.4140625 8.06640625 C4.60742188 8.70449219 4.80078125 9.34257813 5 10 C2.69 9.34 0.38 8.68 -2 8 C-1.125 1.125 -1.125 1.125 0 0 Z " fill="#F4E9CE" transform="translate(36,60)"/>
<path d="M0 0 C0 1.32 0 2.64 0 4 C-0.556875 3.855625 -1.11375 3.71125 -1.6875 3.5625 C-5.18293681 2.71225861 -8.3909736 2 -12 2 C-8.09758226 -2.4877804 -5.26349238 -2.48553807 0 0 Z " fill="#B9BCC6" transform="translate(112,20)"/>
<path d="M0 0 C-0.33 1.32 -0.66 2.64 -1 4 C-5.29 4.66 -9.58 5.32 -14 6 C-10.94997276 3.71247957 -9.2608271 2.52908046 -5.875 1.3125 C-5.19179687 1.06113281 -4.50859375 0.80976562 -3.8046875 0.55078125 C-2 0 -2 0 0 0 Z " fill="#EDAA65" transform="translate(103,101)"/>
<path d="M0 0 C1.32 0.99 2.64 1.98 4 3 C3.67 4.65 3.34 6.3 3 8 C2.1646875 7.2265625 2.1646875 7.2265625 1.3125 6.4375 C-0.94085007 4.70523302 -0.94085007 4.70523302 -3.75 5.3125 C-4.4925 5.539375 -5.235 5.76625 -6 6 C-6.33 5.34 -6.66 4.68 -7 4 C-6.030625 3.71125 -5.06125 3.4225 -4.0625 3.125 C-0.89335797 2.35785318 -0.89335797 2.35785318 0 0 Z " fill="#F5D391" transform="translate(48,57)"/>
<path d="M0 0 C1.66666667 0 3.33333333 0 5 0 C5 2.31 5 4.62 5 7 C3.35 7.33 1.7 7.66 0 8 C0 5.36 0 2.72 0 0 Z " fill="#CA8C91" transform="translate(74,82)"/>
<path d="M0 0 C2.45526122 2.45526122 2.41457598 3.60629818 2.75 7 C2.84796875 7.886875 2.9459375 8.77375 3.046875 9.6875 C3 12 3 12 1 14 C-2.125 14.125 -2.125 14.125 -5 14 C-4.03320312 13.69449219 -4.03320312 13.69449219 -3.046875 13.3828125 C-0.68846128 12.1332065 -0.68846128 12.1332065 -0.390625 9.1796875 C-0.34421875 8.08914062 -0.2978125 6.99859375 -0.25 5.875 C-0.19328125 4.77929688 -0.1365625 3.68359375 -0.078125 2.5546875 C-0.05234375 1.71164063 -0.0265625 0.86859375 0 0 Z " fill="#CA7B59" transform="translate(110,65)"/>
<path d="M0 0 C2.4294516 3.6441774 2.16179575 5.71241272 2 10 C-0.66666667 10 -3.33333333 10 -6 10 C-6 7.36 -6 4.72 -6 2 C-5.67 2 -5.34 2 -5 2 C-5 4.31 -5 6.62 -5 9 C-4.01 8.67 -3.02 8.34 -2 8 C-1.855625 6.865625 -1.71125 5.73125 -1.5625 4.5625 C-1 1 -1 1 0 0 Z " fill="#A36A65" transform="translate(129,67)"/>
<path d="M0 0 C1.98 0 3.96 0 6 0 C6 2.64 6 5.28 6 8 C4.0625 7.6875 4.0625 7.6875 2 7 C1.22227595 4.66682784 0.57584432 2.38564077 0 0 Z " fill="#CFD0CA" transform="translate(89,68)"/>
<path d="M0 0 C0 0.66 0 1.32 0 2 C-1.65002828 3.35386936 -3.3174387 4.68678142 -5 6 C-5.33 6.66 -5.66 7.32 -6 8 C-6.99 7.67 -7.98 7.34 -9 7 C-8.42655063 4.13275314 -8.1385485 3.1385485 -6 1 C-3.90200436 0.34437636 -2.19959601 0 0 0 Z " fill="#CB7F5A" transform="translate(84,65)"/>
<path d="M0 0 C-2.24578708 2.24578708 -4.069792 2.85650419 -7 4 C-7.99 4.66 -8.98 5.32 -10 6 C-12.6875 5.125 -12.6875 5.125 -15 4 C-10.0268126 -0.08511822 -6.37494396 -0.12259508 0 0 Z " fill="#A06C78" transform="translate(84,64)"/>
<path d="M0 0 C1.41623216 -0.05447047 2.83308191 -0.09300508 4.25 -0.125 C5.03890625 -0.14820313 5.8278125 -0.17140625 6.640625 -0.1953125 C9.20731941 0.0171622 10.7916067 0.71345895 13 2 C12.01 2 11.02 2 10 2 C9.67 2.66 9.34 3.32 9 4 C6.36 4 3.72 4 1 4 C0.67 2.68 0.34 1.36 0 0 Z " fill="#9099AB" transform="translate(70,54)"/>
<path d="M0 0 C-0.66 0.66 -1.32 1.32 -2 2 C-2.99 2 -3.98 2 -5 2 C-5 2.66 -5 3.32 -5 4 C-8.3 4 -11.6 4 -15 4 C-13.68 3.34 -12.36 2.68 -11 2 C-10.030625 1.443125 -9.06125 0.88625 -8.0625 0.3125 C-4.72434517 -1.11813778 -3.38946491 -1.09659159 0 0 Z " fill="#A3ACBB" transform="translate(55,96)"/>
<path d="M0 0 C1.9375 0.6875 1.9375 0.6875 4 2 C4.75 4.625 4.75 4.625 5 7 C2.21176345 8.0326802 1.1322726 8.04509293 -1.75 7.0625 C-2.4925 6.711875 -3.235 6.36125 -4 6 C-2.68 5.67 -1.36 5.34 0 5 C0 3.35 0 1.7 0 0 Z " fill="#DF9F68" transform="translate(45,75)"/>
<path d="M0 0 C0.99 0.33 1.98 0.66 3 1 C3 1.66 3 2.32 3 3 C2.34 3 1.68 3 1 3 C0.67 6.3 0.34 9.6 0 13 C-0.33 13 -0.66 13 -1 13 C-1 11.35 -1 9.7 -1 8 C-1.99 8.33 -2.98 8.66 -4 9 C-4 7.68 -4 6.36 -4 5 C-3.01 4.67 -2.02 4.34 -1 4 C-0.26676204 1.98491642 -0.26676204 1.98491642 0 0 Z " fill="#E09D6F" transform="translate(123,62)"/>
<path d="M0 0 C-10.00115897 6.56326058 -10.00115897 6.56326058 -15.24609375 5.578125 C-15.82488281 5.38734375 -16.40367188 5.1965625 -17 5 C-16.32453125 4.73445313 -15.6490625 4.46890625 -14.953125 4.1953125 C-14.06109375 3.84210937 -13.1690625 3.48890625 -12.25 3.125 C-11.36828125 2.77695312 -10.4865625 2.42890625 -9.578125 2.0703125 C-7.02881261 1.07014771 -7.02881261 1.07014771 -4.859375 -0.1953125 C-3 -1 -3 -1 0 0 Z " fill="#ABADBD" transform="translate(80,60)"/>
<path d="M0 0 C0.99 0 1.98 0 3 0 C3 1.32 3 2.64 3 4 C3.99 3.34 4.98 2.68 6 2 C6.99 2.33 7.98 2.66 9 3 C7 5 7 5 3.5 5.3125 C2.345 5.209375 1.19 5.10625 0 5 C-0.66 4.01 -1.32 3.02 -2 2 C-1.34 1.34 -0.68 0.68 0 0 Z " fill="#FBE9B7" transform="translate(39,56)"/>
<path d="M0 0 C3.3 0.66 6.6 1.32 10 2 C10 2.66 10 3.32 10 4 C6.2983569 4.94693195 4.60887535 5.30443767 1.125 3.5625 C0.42375 3.046875 -0.2775 2.53125 -1 2 C-0.67 1.34 -0.34 0.68 0 0 Z " fill="#F0AB68" transform="translate(91,78)"/>
<path d="M0 0 C1.27875 0.103125 2.5575 0.20625 3.875 0.3125 C4.95394531 0.39951172 4.95394531 0.39951172 6.0546875 0.48828125 C8 1 8 1 10 4 C2.57142857 4.14285714 2.57142857 4.14285714 -1 3 C-0.67 2.01 -0.34 1.02 0 0 Z " fill="#C39894" transform="translate(87,40)"/>
<path d="M0 0 C0.66 0 1.32 0 2 0 C2 0.66 2 1.32 2 2 C4.31 2.33 6.62 2.66 9 3 C8.38125 3.0825 7.7625 3.165 7.125 3.25 C4.81562433 3.81258459 4.81562433 3.81258459 3.75 6.0625 C3.5025 6.701875 3.255 7.34125 3 8 C1.5 6.8125 1.5 6.8125 0 5 C-0.1875 2.3125 -0.1875 2.3125 0 0 Z " fill="#9A7F86" transform="translate(64,101)"/>
<path d="M0 0 C5.35048061 0.37328935 7.50912907 1.9957657 11 6 C8 6 8 6 5 5 C5 4.34 5 3.68 5 3 C4.360625 2.87625 3.72125 2.7525 3.0625 2.625 C2.381875 2.41875 1.70125 2.2125 1 2 C0.67 1.34 0.34 0.68 0 0 Z " fill="#B5BAC4" transform="translate(28,35)"/>
<path d="M0 0 C1.98 0.99 1.98 0.99 4 2 C4 4.31 4 6.62 4 9 C3.34 8.01 2.68 7.02 2 6 C1.34 6.99 0.68 7.98 0 9 C0 6.03 0 3.06 0 0 Z " fill="#FBCF84" transform="translate(44,70)"/>
<path d="M0 0 C0.99 0.33 1.98 0.66 3 1 C1.68 1.33 0.36 1.66 -1 2 C-1.103125 3.11375 -1.20625 4.2275 -1.3125 5.375 C-1.539375 6.57125 -1.76625 7.7675 -2 9 C-2.99 9.66 -3.98 10.32 -5 11 C-4.50769231 4.6 -4.50769231 4.6 -1.9375 1.5625 C-0.9784375 0.7890625 -0.9784375 0.7890625 0 0 Z " fill="#5A1F28" transform="translate(101,61)"/>
<path d="M0 0 C2.475 0.99 2.475 0.99 5 2 C4.01 2.495 4.01 2.495 3 3 C3.33 4.32 3.66 5.64 4 7 C1.03 7 -1.94 7 -5 7 C-2 5 -2 5 0 4 C0 2.68 0 1.36 0 0 Z " fill="#A8AEBC" transform="translate(84,48)"/>
<path d="M0 0 C0.33 0.99 0.66 1.98 1 3 C1.66 3 2.32 3 3 3 C3.268125 3.78375 3.53625 4.5675 3.8125 5.375 C4.84814432 8.28114923 4.84814432 8.28114923 8 10 C7.67 10.66 7.34 11.32 7 12 C1.21538462 7.93846154 1.21538462 7.93846154 0.125 3.1875 C0.08375 2.135625 0.0425 1.08375 0 0 Z " fill="#847B8A" transform="translate(99,25)"/>
<path d="M0 0 C3.01614813 1.1170919 4.64508669 2.6125776 6.625 5.0625 C8.67119397 8.00824713 8.67119397 8.00824713 11 9 C11 9.66 11 10.32 11 11 C7.584241 9.55661511 5.63973737 7.75105832 3.25 4.9375 C2.63640625 4.22464844 2.0228125 3.51179688 1.390625 2.77734375 C0 1 0 1 0 0 Z " fill="#D7C1A6" transform="translate(36,80)"/>
<path d="M0 0 C1.65 0 3.3 0 5 0 C5.33 0.66 5.66 1.32 6 2 C5.0625 4.125 5.0625 4.125 4 6 C2.68 5.34 1.36 4.68 0 4 C0 2.68 0 1.36 0 0 Z " fill="#C0BFBF" transform="translate(44,66)"/>
<path d="M0 0 C2.02054804 1.64169528 4.02043058 3.30911778 6 5 C6 5.33 6 5.66 6 6 C3.69 6 1.38 6 -1 6 C-0.67 4.02 -0.34 2.04 0 0 Z " fill="#F3E5C2" transform="translate(107,42)"/>
<path d="M0 0 C2.475 0.99 2.475 0.99 5 2 C0.58119757 4.94586829 -1.67767339 5.0985616 -7 5 C-6.01 4.67 -5.02 4.34 -4 4 C-4 3.34 -4 2.68 -4 2 C-3.01 2 -2.02 2 -1 2 C-0.67 1.34 -0.34 0.68 0 0 Z " fill="#EACD9A" transform="translate(87,115)"/>
<path d="M0 0 C0.99 0.33 1.98 0.66 3 1 C4.1875 4.0625 4.1875 4.0625 5 7 C3.35 6.67 1.7 6.34 0 6 C-0.38218767 4.34385343 -0.71395102 2.67542976 -1 1 C-0.67 0.67 -0.34 0.34 0 0 Z " fill="#B16360" transform="translate(69,106)"/>
<path d="M0 0 C0.33 0.99 0.66 1.98 1 3 C1.763125 2.773125 2.52625 2.54625 3.3125 2.3125 C4.199375 2.209375 5.08625 2.10625 6 2 C7.8125 3.4375 7.8125 3.4375 9 5 C8.67 5.33 8.34 5.66 8 6 C5.30917128 5.82364548 2.67148554 5.38164079 0 5 C-0.5625 3.0625 -0.5625 3.0625 -1 1 C-0.67 0.67 -0.34 0.34 0 0 Z " fill="#C8B09D" transform="translate(11,89)"/>
<path d="M0 0 C0.66 0 1.32 0 2 0 C2 2.64 2 5.28 2 8 C0.68 8.33 -0.64 8.66 -2 9 C-2 5.20442119 -1.49821059 3.37097383 0 0 Z " fill="#A9858A" transform="translate(80,56)"/>
<path d="M0 0 C2 1.8125 2 1.8125 4 4 C4 4.99 4 5.98 4 7 C2.68 7 1.36 7 0 7 C-0.66 5.02 -1.32 3.04 -2 1 C-1.34 0.67 -0.68 0.34 0 0 Z " fill="#9F9CA8" transform="translate(117,37)"/>
<path d="M0 0 C1.485 0.99 1.485 0.99 3 2 C5.27912938 2.45394552 5.27912938 2.45394552 7.6875 2.625 C8.49574219 2.69976562 9.30398437 2.77453125 10.13671875 2.8515625 C10.75160156 2.90054688 11.36648437 2.94953125 12 3 C12 3.33 12 3.66 12 4 C5.565 4.495 5.565 4.495 -1 5 C-0.67 3.35 -0.34 1.7 0 0 Z " fill="#D0C7B3" transform="translate(20,90)"/>
<path d="M0 0 C-1.17255709 3.33727786 -2.18868404 5.77437487 -5 8 C-5.66 8 -6.32 8 -7 8 C-6.44414399 4.1090079 -4.34122117 0 0 0 Z " fill="#E9BB87" transform="translate(105,102)"/>
<path d="M0 0 C2.97 0.99 5.94 1.98 9 3 C8.34 3.66 7.68 4.32 7 5 C4.8359375 4.9765625 4.8359375 4.9765625 2.375 4.625 C1.55773438 4.51414062 0.74046875 4.40328125 -0.1015625 4.2890625 C-0.72804687 4.19367188 -1.35453125 4.09828125 -2 4 C-1.01 3.67 -0.02 3.34 1 3 C0.67 2.01 0.34 1.02 0 0 Z " fill="#89797F" transform="translate(46,91)"/>
<path d="M0 0 C0.66 0.99 1.32 1.98 2 3 C1.34 3 0.68 3 0 3 C0.33 6.3 0.66 9.6 1 13 C-0.65 12.67 -2.3 12.34 -4 12 C-3.01 11.67 -2.02 11.34 -1 11 C-1.01160156 10.37351562 -1.02320312 9.74703125 -1.03515625 9.1015625 C-1.04417969 8.28429687 -1.05320312 7.46703125 -1.0625 6.625 C-1.07410156 5.81289062 -1.08570312 5.00078125 -1.09765625 4.1640625 C-1 2 -1 2 0 0 Z " fill="#AC9399" transform="translate(96,65)"/>
<path d="M0 0 C3 2 3 2 3.51171875 3.9453125 C3.67447917 5.96354167 3.83723958 7.98177083 4 10 C1 8 1 8 0.48828125 6.0546875 C0.32552083 4.03645833 0.16276042 2.01822917 0 0 Z " fill="#D38459" transform="translate(48,73)"/>
<path d="M0 0 C-4.75 4 -4.75 4 -7 4 C-7.33 2.68 -7.66 1.36 -8 0 C-4.71303767 -0.79953138 -3.28976808 -1.09658936 0 0 Z " fill="#B77D67" transform="translate(111,98)"/>
<path d="M0 0 C0 1.65 0 3.3 0 5 C-1.875 5.625 -1.875 5.625 -4 6 C-4.66 5.34 -5.32 4.68 -6 4 C-4.82249287 1.64498575 -2.80021952 0 0 0 Z " fill="#ECA96C" transform="translate(130,75)"/>
<path d="M0 0 C0.33 1.98 0.66 3.96 1 6 C-2.16115776 4.63016497 -2.9927092 4.0109362 -5 1 C-3 0 -3 0 0 0 Z " fill="#CA7B61" transform="translate(118,46)"/>
<path d="M0 0 C2.97 0.33 5.94 0.66 9 1 C9 1.66 9 2.32 9 3 C6.1875 3.1875 6.1875 3.1875 3 3 C2.01 2.01 1.02 1.02 0 0 Z " fill="#D58083" transform="translate(69,105)"/>
<path d="M0 0 C0.99 0.99 1.98 1.98 3 3 C-0.47325181 4.1577506 -3.36067448 4.06866652 -7 4 C-5.68 3.67 -4.36 3.34 -3 3 C-3 2.34 -3 1.68 -3 1 C-2.01 0.67 -1.02 0.34 0 0 Z " fill="#919AAE" transform="translate(53,97)"/>
<path d="M0 0 C0.99 0.99 1.98 1.98 3 3 C2.34 3.66 1.68 4.32 1 5 C-1.125 4.625 -1.125 4.625 -3 4 C-2.67 3.01 -2.34 2.02 -2 1 C-1.34 0.67 -0.68 0.34 0 0 Z " fill="#E9AF77" transform="translate(63,89)"/>
<path d="M0 0 C0.66 0 1.32 0 2 0 C2.99 2.64 3.98 5.28 5 8 C4.01 8 3.02 8 2 8 C0.74335022 5.09399739 0 3.20395416 0 0 Z " fill="#AB485D" transform="translate(64,81)"/>
<path d="M0 0 C0.33 0 0.66 0 1 0 C1.33 3.3 1.66 6.6 2 10 C1.34 9.67 0.68 9.34 0 9 C0 8.01 0 7.02 0 6 C-0.66 6 -1.32 6 -2 6 C-2 4.68 -2 3.36 -2 2 C-1.34 2 -0.68 2 0 2 C0 1.34 0 0.68 0 0 Z " fill="#C1867F" transform="translate(53,81)"/>
<path d="M0 0 C1.31611677 0.95336021 2.62778961 1.91285774 3.9375 2.875 C4.66839844 3.40867188 5.39929687 3.94234375 6.15234375 4.4921875 C8 6 8 6 9 8 C5.08158173 6.69386058 2.67359191 5.16870152 0 2 C0 1.34 0 0.68 0 0 Z " fill="#DAA37E" transform="translate(36,58)"/>
<path d="M0 0 C2.0625 1.625 2.0625 1.625 4 4 C3.75 7.25 3.75 7.25 3 10 C0.64551835 7.44931155 0.01672076 6.28982642 -0.1875 2.75 C-0.125625 1.8425 -0.06375 0.935 0 0 Z " fill="#EAAA74" transform="translate(118,47)"/>
<path d="M0 0 C2.97 0.495 2.97 0.495 6 1 C6 1.99 6 2.98 6 4 C4.35 3.67 2.7 3.34 1 3 C0.67 2.01 0.34 1.02 0 0 Z " fill="#A65150" transform="translate(66,96)"/>
<path d="M0 0 C-4.52092968 1.45606519 -7.51648796 0.27032841 -12 -1 C-12 -1.33 -12 -1.66 -12 -2 C-6.93395388 -3.3268216 -4.47171108 -2.66173278 0 0 Z " fill="#DE9762" transform="translate(76,97)"/>
<path d="M0 0 C4 4.875 4 4.875 4 6 C2.02 6 0.04 6 -2 6 C-1.34 4.02 -0.68 2.04 0 0 Z " fill="#F4B972" transform="translate(66,89)"/>
<path d="M0 0 C0 3 0 3 -1.25 4.75 C-3 6 -3 6 -5.1875 5.6875 C-5.785625 5.460625 -6.38375 5.23375 -7 5 C-6.34 4.34 -5.68 3.68 -5 3 C-4.01 3 -3.02 3 -2 3 C-2 2.34 -2 1.68 -2 1 C-1.34 0.67 -0.68 0.34 0 0 Z " fill="#C9825C" transform="translate(127,82)"/>
<path d="M0 0 C3.465 1.98 3.465 1.98 7 4 C7 4.66 7 5.32 7 6 C1.25 4.375 1.25 4.375 -1 1 C-0.67 0.67 -0.34 0.34 0 0 Z " fill="#93757C" transform="translate(80,35)"/>
<path d="M0 0 C3.39417765 3.12621626 5.6062718 5.56541027 7 10 C4.66666667 7.66666667 2.33333333 5.33333333 0 3 C0 2.01 0 1.02 0 0 Z " fill="#777586" transform="translate(109,32)"/>
<path d="M0 0 C1.134375 0.020625 2.26875 0.04125 3.4375 0.0625 C3.4375 1.0525 3.4375 2.0425 3.4375 3.0625 C2.81875 2.876875 2.2 2.69125 1.5625 2.5 C-0.60410178 1.82563824 -0.60410178 1.82563824 -2.5625 3.0625 C-3.2225 2.4025 -3.8825 1.7425 -4.5625 1.0625 C-3.5625 0.0625 -3.5625 0.0625 0 0 Z " fill="#9E99A9" transform="translate(80.5625,33.9375)"/>
<path d="M0 0 C1.98 0.99 3.96 1.98 6 3 C5.34 3.66 4.68 4.32 4 5 C1.875 4.625 1.875 4.625 0 4 C0 2.68 0 1.36 0 0 Z " fill="#BB6C5B" transform="translate(68,89)"/>
<path d="M0 0 C2.64 0 5.28 0 8 0 C5 2 5 2 2 2 C1.67 2.99 1.34 3.98 1 5 C0.67 3.35 0.34 1.7 0 0 Z " fill="#8F7E8C" transform="translate(65,68)"/>
</svg>
