<?xml version="1.0" encoding="UTF-8"?>
<svg version="1.1" xmlns="http://www.w3.org/2000/svg" width="150" height="150">
<path d="M0 0 C2.375 1.6875 2.375 1.6875 4 4 C4.55156953 7.76905843 4.16551116 8.75173326 2 12 C1.34 12 0.68 12 0 12 C1.42183426 15.58880092 2.88855295 16.79665827 6.3125 18.5 C9.1458327 19.96426634 11.28598107 21.24048408 13.75 23.3125 C15.88454662 25.18106896 15.88454662 25.18106896 18.5625 25.4375 C21.58024302 24.89585382 22.93986809 24.28903546 25 22 C25.33397787 18.87413125 25.33397787 18.87413125 25 16 C24.236875 15.773125 23.47375 15.54625 22.6875 15.3125 C19.36377021 13.68928313 18.41909563 12.39006178 17 9 C17.07921625 5.7521338 17.77321372 4.3107812 19.6875 1.6875 C22.69328456 -0.50591036 24.35505268 -0.54286449 28 0 C29.8125 1.25 29.8125 1.25 31 3 C31.103125 3.66 31.20625 4.32 31.3125 5 C31.539375 5.66 31.76625 6.32 32 7 C32.969375 7.45375 33.93875 7.9075 34.9375 8.375 C38 10 38 10 39.3125 12.875 C39.73212655 14.78239342 40.11642764 16.69856582 40.4375 18.625 C40.84509597 21.07573403 40.84509597 21.07573403 42.5 22.9375 C45.35516767 26.86335555 45.01245139 31.1463871 44.875 35.8125 C44.82076992 39.43506956 45.2314085 42.17168533 46.5 45.5625 C48.92731801 52.11625862 48.96007172 57.82161393 46.04345703 64.26513672 C44.20584075 67.32037801 41.61073252 69.19446221 38.75 71.25 C38.20214844 71.67023438 37.65429688 72.09046875 37.08984375 72.5234375 C34.23066042 74.65275905 31.5656555 76.24836043 28.2265625 77.51171875 C24.59545871 79.18659834 23.99197122 79.92308516 22.625 83.5625 C19.70378782 90.14973675 15.0852859 96.96053379 8.48828125 100.25390625 C3.78355894 101.66458437 -0.67236729 102.0125404 -5.25390625 100.01953125 C-8.78081211 97.90858391 -12.16990221 95.76784838 -14 92 C-14.51648484 89.31944367 -14.77252304 86.72972355 -15 84 C-19.455 84.495 -19.455 84.495 -24 85 C-24.0825 86.11375 -24.165 87.2275 -24.25 88.375 C-25 92 -25 92 -26.76953125 93.20703125 C-30.49700906 94.53221163 -34.09806545 94.49036879 -38 94 C-39.68991979 93.0398183 -41.36209288 92.04644066 -43 91 C-45.78864201 91.20914815 -47.85699498 91.94133127 -50.4375 93 C-55.82255265 95.10148396 -61.29175732 95.45303513 -67 95 C-70.0625 93.4375 -70.0625 93.4375 -72 91 C-71.78947368 84.78947368 -71.78947368 84.78947368 -70 83 C-67.125 82.6875 -67.125 82.6875 -64 83 C-61.95959224 85.04040776 -61 86.08325244 -61 89 C-58.54775306 88.89386164 -58.54775306 88.89386164 -56 88 C-54.68931667 85.55711372 -54.68931667 85.55711372 -54 83 C-53.67 82.67 -53.34 82.34 -53 82 C-52.84118395 80.27361076 -52.72310773 78.5434007 -52.625 76.8125 C-52.25392042 72.18597552 -51.32263205 69.06460608 -49 65 C-48.30092586 62.26427415 -48.30092586 62.26427415 -48 60 C-48.763125 59.7525 -49.52625 59.505 -50.3125 59.25 C-53.44525205 57.79290602 -54.42641821 57.06848449 -56 54 C-56.33 51.03 -56.66 48.06 -57 45 C-63.27 45 -69.54 45 -76 45 C-76.33 43.68 -76.66 42.36 -77 41 C-70.91904335 35.40551988 -60.9323899 36.56526166 -53.15917969 36.85498047 C-44.00262914 37.46997267 -34.95514826 39.36108867 -26.1875 42 C-21.84753659 43.18819246 -21.84753659 43.18819246 -17.75 41.1875 C-15.98234911 37.96785016 -15.85353503 37.39331213 -16.125 34 C-16.28515625 31.89453125 -16.28515625 31.89453125 -16 30 C-14.49609375 28.76171875 -14.49609375 28.76171875 -12.5625 27.6875 C-9.9029288 26.10686235 -9.13451675 25.43668246 -8.20703125 22.42578125 C-7.58382083 16.93419769 -7.64365971 13.56462279 -11 9 C-11.5 6.4375 -11.5 6.4375 -11 4 C-7.60027108 0.300295 -4.9827138 -0.8481215 0 0 Z M27 14 C27 14.99 27 15.98 27 17 C27.99 16.67 28.98 16.34 30 16 C29.01 15.34 28.02 14.68 27 14 Z " fill="#F3B06D" transform="translate(82,20)"/>
<path d="M0 0 C6.11535832 19.19239688 6.11535832 19.19239688 2.04125977 28.25415039 C0.21213124 31.32099636 -2.38546335 33.19172881 -5.25 35.25 C-5.79785156 35.67023438 -6.34570312 36.09046875 -6.91015625 36.5234375 C-9.77240295 38.65504043 -12.52242785 40.31173631 -15.83203125 41.66015625 C-19.08696983 42.69084577 -19.08696983 42.69084577 -20.4375 45.1875 C-20.7159375 46.0846875 -20.7159375 46.0846875 -21 47 C-23.97851562 46.95117188 -23.97851562 46.95117188 -26.95703125 46.90234375 C-29.20305461 46.91736783 -29.20305461 46.91736783 -32 48 C-32 48.66 -32 49.32 -32 50 C-32.99 49.67 -33.98 49.34 -35 49 C-34.34 47.68 -33.68 46.36 -33 45 C-34.65 45.99 -36.3 46.98 -38 48 C-38.49628906 47.44570312 -38.99257812 46.89140625 -39.50390625 46.3203125 C-43.80931066 41.72897042 -46.73578429 39.04403595 -53 38 C-53 37.34 -53 36.68 -53 36 C-53.61488281 35.89042969 -54.22976562 35.78085938 -54.86328125 35.66796875 C-56.07564453 35.43013672 -56.07564453 35.43013672 -57.3125 35.1875 C-58.11300781 35.03667969 -58.91351563 34.88585937 -59.73828125 34.73046875 C-62.2778666 33.91025725 -63.28162465 33.00057189 -65 31 C-65.66 30.34 -66.32 29.68 -67 29 C-64 27 -64 27 -61.4375 27.3125 C-59 28 -59 28 -57 29 C-60.24394396 20.93845846 -60.24394396 20.93845846 -67 16 C-66.67 15.01 -66.34 14.02 -66 13 C-63.66682784 12.22227595 -61.38564077 11.57584432 -59 11 C-59 11.66 -59 12.32 -59 13 C-58.34 13 -57.68 13 -57 13 C-56.67 12.34 -56.34 11.68 -56 11 C-55.01 12.485 -55.01 12.485 -54 14 C-53.01 14 -52.02 14 -51 14 C-51.12375 12.6078125 -51.12375 12.6078125 -51.25 11.1875 C-51 8 -51 8 -49.125 6.3125 C-48.42375 5.879375 -47.7225 5.44625 -47 5 C-46.34 4.01 -45.68 3.02 -45 2 C-45 2.66 -45 3.32 -45 4 C-42.525 4.495 -42.525 4.495 -40 5 C-40 4.34 -40 3.68 -40 3 C-28.00398014 2.20963266 -28.00398014 2.20963266 -24.0625 5.3125 C-23.0415625 6.6428125 -23.0415625 6.6428125 -22 8 C-18.91666413 9.75072715 -18.91666413 9.75072715 -16 11 C-15.34 11.33 -14.68 11.66 -14 12 C-14 12.66 -14 13.32 -14 14 C-13.34 14 -12.68 14 -12 14 C-12 14.66 -12 15.32 -12 16 C-8.37114676 16.15149298 -8.37114676 16.15149298 -5 15 C-5.04640625 14.25234375 -5.0928125 13.5046875 -5.140625 12.734375 C-5.43844423 4.60816458 -5.43844423 4.60816458 -3.0625 1.3125 C-1 0 -1 0 0 0 Z " fill="#C77650" transform="translate(126,56)"/>
<path d="M0 0 C2.375 1.6875 2.375 1.6875 4 4 C4.55156953 7.76905843 4.16551116 8.75173326 2 12 C1.34 12 0.68 12 0 12 C1.42183426 15.58880092 2.88855295 16.79665827 6.3125 18.5 C9.1458327 19.96426634 11.28598107 21.24048408 13.75 23.3125 C15.88454662 25.18106896 15.88454662 25.18106896 18.5625 25.4375 C21.58024302 24.89585382 22.93986809 24.28903546 25 22 C25.33397787 18.87413125 25.33397787 18.87413125 25 16 C24.236875 15.773125 23.47375 15.54625 22.6875 15.3125 C19.36377021 13.68928313 18.41909563 12.39006178 17 9 C17.07921625 5.7521338 17.77321372 4.3107812 19.6875 1.6875 C22.69328456 -0.50591036 24.35505268 -0.54286449 28 0 C29.8125 1.25 29.8125 1.25 31 3 C31.1546875 3.99 31.1546875 3.99 31.3125 5 C31.6528125 5.99 31.6528125 5.99 32 7 C32.969375 7.45375 33.93875 7.9075 34.9375 8.375 C38 10 38 10 39.3125 12.875 C39.73212655 14.78239342 40.11642764 16.69856582 40.4375 18.625 C40.84509597 21.07573403 40.84509597 21.07573403 42.5 22.9375 C44.49882276 25.6858813 44.80081658 27.61388193 45 31 C43.69211635 37.43042794 43.69211635 37.43042794 41.43359375 39.2890625 C39.21279579 41.93949712 39.71218891 44.31036 39.8125 47.6875 C39.83957031 48.86699219 39.86664063 50.04648438 39.89453125 51.26171875 C39.94673828 52.61716797 39.94673828 52.61716797 40 54 C37.36 53.34 34.72 52.68 32 52 C32 51.34 32 50.68 32 50 C31.278125 49.9175 30.55625 49.835 29.8125 49.75 C25.33365024 48.55564006 22.73407506 45.98641336 20 42.3125 C15.23122707 38.63657087 9.86574498 39.09447027 4 39 C4.33 39.99 4.66 40.98 5 42 C3.6696875 41.38125 3.6696875 41.38125 2.3125 40.75 C-1.02526321 39.61881289 -1.02526321 39.61881289 -3.875 41.5 C-6.3000872 43.87028102 -6.3000872 43.87028102 -6.3125 47.25 C-6.209375 48.1575 -6.10625 49.065 -6 50 C-6.99 50.495 -6.99 50.495 -8 51 C-10.2477975 48.94766315 -11.0022242 47.99332739 -12 45 C-15.50294871 43.28432339 -15.50294871 43.28432339 -19 42 C-19 41.34 -19 40.68 -19 40 C-18.01 39.34 -17.02 38.68 -16 38 C-16.0825 36.741875 -16.165 35.48375 -16.25 34.1875 C-16.35546875 32 -16.35546875 32 -16 30 C-14.48828125 28.75 -14.48828125 28.75 -12.5625 27.6875 C-9.9029288 26.10686235 -9.13451675 25.43668246 -8.20703125 22.42578125 C-7.58382083 16.93419769 -7.64365971 13.56462279 -11 9 C-11.5 6.4375 -11.5 6.4375 -11 4 C-7.60027108 0.300295 -4.9827138 -0.8481215 0 0 Z M27 14 C27 14.99 27 15.98 27 17 C27.99 16.67 28.98 16.34 30 16 C29.01 15.34 28.02 14.68 27 14 Z " fill="#B7878C" transform="translate(82,20)"/>
<path d="M0 0 C-0.33 0.99 -0.66 1.98 -1 3 C-4.63 3 -8.26 3 -12 3 C-9.525 3.99 -9.525 3.99 -7 5 C-7.268125 6.010625 -7.53625 7.02125 -7.8125 8.0625 C-8.06820633 13.43233303 -6.38229903 14.95774018 -3 19 C-3.99 19.66 -4.98 20.32 -6 21 C-5.979375 21.928125 -5.95875 22.85625 -5.9375 23.8125 C-6.01588459 27.81011407 -7.31757438 29.14992277 -10 32 C-9.401875 32.0825 -8.80375 32.165 -8.1875 32.25 C-5.4033704 33.20455872 -4.56688858 34.57132271 -3 37 C-3.763125 37.721875 -4.52625 38.44375 -5.3125 39.1875 C-8.0193481 41.7634632 -8.0193481 41.7634632 -9.3046875 44.47265625 C-11.42372261 47.63167864 -13.3999045 48.61882227 -16.8125 50.25 C-17.82957031 50.75015625 -18.84664062 51.2503125 -19.89453125 51.765625 C-25.51042293 53.99785364 -31.02786661 54.47397884 -37 54 C-40.0625 52.4375 -40.0625 52.4375 -42 50 C-41.78947368 43.78947368 -41.78947368 43.78947368 -40 42 C-37.125 41.6875 -37.125 41.6875 -34 42 C-31.95959224 44.04040776 -31 45.08325244 -31 48 C-28.54775306 47.89386164 -28.54775306 47.89386164 -26 47 C-24.68931667 44.55711372 -24.68931667 44.55711372 -24 42 C-23.67 41.67 -23.34 41.34 -23 41 C-22.84118395 39.27361076 -22.72310773 37.5434007 -22.625 35.8125 C-22.25392042 31.18597552 -21.32263205 28.06460608 -19 24 C-18.30092586 21.26427415 -18.30092586 21.26427415 -18 19 C-18.763125 18.7525 -19.52625 18.505 -20.3125 18.25 C-23.44525205 16.79290602 -24.42641821 16.06848449 -26 13 C-26.33 10.03 -26.66 7.06 -27 4 C-33.27 4 -39.54 4 -46 4 C-46.33 2.68 -46.66 1.36 -47 0 C-37.04632551 -9.15738053 -11.88765944 -3.96255315 0 0 Z " fill="#EADAA6" transform="translate(52,61)"/>
<path d="M0 0 C2.375 1.6875 2.375 1.6875 4 4 C4.55156953 7.76905843 4.16551116 8.75173326 2 12 C1.34 12 0.68 12 0 12 C1.42183426 15.58880092 2.88855295 16.79665827 6.3125 18.5 C9.1458327 19.96426634 11.28598107 21.24048408 13.75 23.3125 C16.45832047 25.34374035 17.69138867 25.33934475 21 25 C22.32 25 23.64 25 25 25 C25.66 26.65 26.32 28.3 27 30 C23.98968256 30.93423645 23.13349732 31.04449911 20 30 C20.495 30.94875 20.99 31.8975 21.5 32.875 C23 36 23 36 23 38 C21.75283203 37.76603516 21.75283203 37.76603516 20.48046875 37.52734375 C19.39378906 37.33269531 18.30710938 37.13804688 17.1875 36.9375 C15.56908203 36.64166016 15.56908203 36.64166016 13.91796875 36.33984375 C10.94098219 35.78419925 10.94098219 35.78419925 8 37 C5.66700175 37.03954234 3.33291811 37.04401732 1 37 C0.67 37.66 0.34 38.32 0 39 C-0.66 38.67 -1.32 38.34 -2 38 C-2.103125 38.61875 -2.20625 39.2375 -2.3125 39.875 C-3 42 -3 42 -6 44 C-6.2502157 47.08365871 -6.2502157 47.08365871 -6 50 C-6.99 50.495 -6.99 50.495 -8 51 C-10.2477975 48.94766315 -11.0022242 47.99332739 -12 45 C-15.50294871 43.28432339 -15.50294871 43.28432339 -19 42 C-19 41.34 -19 40.68 -19 40 C-18.01 39.34 -17.02 38.68 -16 38 C-16.0825 36.741875 -16.165 35.48375 -16.25 34.1875 C-16.35546875 32 -16.35546875 32 -16 30 C-14.48828125 28.75 -14.48828125 28.75 -12.5625 27.6875 C-9.9029288 26.10686235 -9.13451675 25.43668246 -8.20703125 22.42578125 C-7.58382083 16.93419769 -7.64365971 13.56462279 -11 9 C-11.5 6.4375 -11.5 6.4375 -11 4 C-7.60027108 0.300295 -4.9827138 -0.8481215 0 0 Z " fill="#D7B3A2" transform="translate(82,20)"/>
<path d="M0 0 C2.48605403 7.8022142 4.56993514 14.73594051 4 23 C3.34 22.67 2.68 22.34 2 22 C-0.0081326 22.28020455 -2.0075675 22.62406934 -4 23 C-5.7634375 23.2475 -5.7634375 23.2475 -7.5625 23.5 C-9.49006043 23.78037243 -11.41577895 24.09325228 -13.31640625 24.51953125 C-22.47138581 26.15863239 -31.84883055 25.65101357 -39.9375 20.875 C-42.04815445 19.30253903 -42.89631082 18.6245748 -43.33203125 16 C-43.25476479 13.99843079 -43.12896157 11.99890428 -43 10 C-44.43750191 8.31201173 -44.43750191 8.31201173 -46 7 C-46.1875 4.3125 -46.1875 4.3125 -46 2 C-45.67 2.66 -45.34 3.32 -45 4 C-42.47266765 4.65555119 -42.47266765 4.65555119 -40 5 C-40 4.34 -40 3.68 -40 3 C-28.00398014 2.20963266 -28.00398014 2.20963266 -24.0625 5.3125 C-23.0415625 6.6428125 -23.0415625 6.6428125 -22 8 C-18.91666413 9.75072715 -18.91666413 9.75072715 -16 11 C-15.34 11.33 -14.68 11.66 -14 12 C-14 12.66 -14 13.32 -14 14 C-13.34 14 -12.68 14 -12 14 C-12 14.66 -12 15.32 -12 16 C-8.37114676 16.15149298 -8.37114676 16.15149298 -5 15 C-5.04640625 14.25234375 -5.0928125 13.5046875 -5.140625 12.734375 C-5.43844423 4.60816458 -5.43844423 4.60816458 -3.0625 1.3125 C-1 0 -1 0 0 0 Z " fill="#B05557" transform="translate(126,56)"/>
<path d="M0 0 C0.268125 0.639375 0.53625 1.27875 0.8125 1.9375 C1.88667752 4.33131686 1.88667752 4.33131686 5 5 C4.835 6.216875 4.67 7.43375 4.5 8.6875 C4.39978968 10.89553693 4.39978968 10.89553693 5 13 C10.36521139 18.37826544 17.0376187 19.14393784 24.3125 19.1875 C28.14982958 19.16589341 31.6134277 19.03485951 35.3125 18 C39.46909474 16.87278787 42.71674156 16.9274024 47 17 C47.99 16.67 48.98 16.34 50 16 C50.2130417 19.12461161 50.25320885 21.41445453 49 24.3125 C45.90272429 26.92582638 42.99769792 26.73785587 39 27 C39 25.68 39 24.36 39 23 C38.34 23 37.68 23 37 23 C37 24.65 37 26.3 37 28 C33.7 28 30.4 28 27 28 C27 27.34 27 26.68 27 26 C26.21625 26.309375 25.4325 26.61875 24.625 26.9375 C16.22140535 29.40062257 9.14005786 29.55344834 1 26 C0.34 25.34 -0.32 24.68 -1 24 C-1 24.66 -1 25.32 -1 26 C-0.34 26.33 0.32 26.66 1 27 C1 27.66 1 28.32 1 29 C2.423125 29.2165625 2.423125 29.2165625 3.875 29.4375 C7 30 7 30 9 31 C9.72693904 32.97888961 10.39816251 34.97954558 11 37 C9.2421875 37.73046875 9.2421875 37.73046875 7 38 C5.0703125 36.48828125 5.0703125 36.48828125 3.125 34.3125 C-0.05316927 30.9141205 -3.02122296 28.38726622 -7 26 C-6.67 24.35 -6.34 22.7 -6 21 C-5.34 21 -4.68 21 -4 21 C-2.90571665 15.52858323 -3.25172362 10.96318163 -4.13671875 5.453125 C-4 3 -4 3 -2.01953125 1.171875 C-1.35308594 0.78515625 -0.68664062 0.3984375 0 0 Z " fill="#ED9E61" transform="translate(79,61)"/>
<path d="M0 0 C3.16285735 1.08623384 6.1546087 2.22834127 9 4 C10.0625 7.25 10.0625 7.25 10 10 C9.01 9.34 8.02 8.68 7 8 C6.34 8 5.68 8 5 8 C5 7.34 5 6.68 5 6 C4.01 6.66 3.02 7.32 2 8 C-0.1875 8.625 -0.1875 8.625 -2 9 C-2 9.66 -2 10.32 -2 11 C-1.23300781 11.41894531 -0.46601562 11.83789062 0.32421875 12.26953125 C3.59831272 14.38693801 4.34348122 16.11988295 5.8125 19.6875 C6.23144531 20.68136719 6.65039062 21.67523438 7.08203125 22.69921875 C7.38496094 23.45847656 7.68789062 24.21773437 8 25 C6.90365234 24.49146484 6.90365234 24.49146484 5.78515625 23.97265625 C2.87067639 22.9548365 1.42982234 22.93270823 -1.5625 23.4375 C-4.72280732 23.95782789 -6.92681596 23.95470797 -10 23 C-9.49642791 28.85040994 -9.49642791 28.85040994 -6.30859375 33.48828125 C-4.17971755 34.71495735 -4.17971755 34.71495735 -1 36 C-1 36.33 -1 36.66 -1 37 C-11.02166864 37.631839 -11.02166864 37.631839 -15 35.0625 C-15.66 34.381875 -16.32 33.70125 -17 33 C-17.99 32.67 -18.98 32.34 -20 32 C-19.690625 31.443125 -19.38125 30.88625 -19.0625 30.3125 C-17.9057795 28.02980137 -17.9057795 28.02980137 -17.5 25.5 C-17.00345948 23.01729739 -16.15438932 21.23181935 -15 19 C-14.77507693 16.75201353 -14.77507693 16.75201353 -17 14.8125 C-19.48827365 11.31336519 -19.32944447 9.20041694 -19 5 C-20.32 4.34 -21.64 3.68 -23 3 C-20.1599454 2.05331513 -18.54968291 1.92014518 -15.625 2 C-12.99166785 2.0383495 -10.84315238 1.96791753 -8.25 1.4375 C-5.57410343 0.91718678 -3.61879527 1.3265955 -1 2 C-0.67 1.34 -0.34 0.68 0 0 Z " fill="#AD7C85" transform="translate(62,61)"/>
<path d="M0 0 C-2.35277269 2.72426311 -4.62496331 3.8141763 -8 5 C-6.68 5 -5.36 5 -4 5 C-3.25 8.25 -3.25 8.25 -3 12 C-4.9375 14.4375 -4.9375 14.4375 -7 16 C-3.7 16 -0.4 16 3 16 C3.33 15.34 3.66 14.68 4 14 C4.495 14.99 4.495 14.99 5 16 C4.236875 16.721875 3.47375 17.44375 2.6875 18.1875 C-0.0193481 20.7634632 -0.0193481 20.7634632 -1.3046875 23.47265625 C-3.42372261 26.63167864 -5.3999045 27.61882227 -8.8125 29.25 C-9.82957031 29.75015625 -10.84664062 30.2503125 -11.89453125 30.765625 C-17.51042293 32.99785364 -23.02786661 33.47397884 -29 33 C-32.0625 31.4375 -32.0625 31.4375 -34 29 C-33.78947368 22.78947368 -33.78947368 22.78947368 -32 21 C-29.125 20.6875 -29.125 20.6875 -26 21 C-23.95959224 23.04040776 -23 24.08325244 -23 27 C-20.54775306 26.89386164 -20.54775306 26.89386164 -18 26 C-16.68931667 23.55711372 -16.68931667 23.55711372 -16 21 C-15.67 20.67 -15.34 20.34 -15 20 C-14.84118395 18.27361076 -14.72310773 16.5434007 -14.625 14.8125 C-14.2447354 10.23149994 -13.54949288 6.92229674 -11 3 C-10.608125 2.38125 -10.21625 1.7625 -9.8125 1.125 C-6.7312614 -0.78749293 -3.55713136 -0.17494089 0 0 Z " fill="#EFDEB1" transform="translate(44,82)"/>
<path d="M0 0 C2.64 0.66 5.28 1.32 8 2 C8 2.66 8 3.32 8 4 C8.99 4 9.98 4 11 4 C16.45177776 4.70237628 19.55465014 9.07140626 23 13 C23.78375 12.484375 24.5675 11.96875 25.375 11.4375 C26.674375 10.7259375 26.674375 10.7259375 28 10 C28.66 10.33 29.32 10.66 30 11 C29.01 12.32 28.02 13.64 27 15 C27.66 15.33 28.32 15.66 29 16 C29 15.34 29 14.68 29 14 C32.8503105 11.43312633 34.58569763 12.16711276 39 13 C37.71102612 17.71474937 35.97487942 20.64769516 32.6875 24.25 C31.92824219 25.10078125 31.16898438 25.9515625 30.38671875 26.828125 C25.98942872 30.82958696 21.90268209 31.37498665 16.16015625 31.26953125 C13.2476952 30.90613195 11.3002711 29.78085505 9 28 C10.91410106 24.17179787 16.11552245 23.29482585 20 22 C20 21.34 20 20.68 20 20 C19.13375 20.7734375 19.13375 20.7734375 18.25 21.5625 C16 23 16 23 13.75 22.6875 C13.1725 22.460625 12.595 22.23375 12 22 C13.375 20 13.375 20 15 18 C15.66 18 16.32 18 17 18 C17.33 17.34 17.66 16.68 18 16 C18.66 15.34 19.32 14.68 20 14 C18.02 13.01 16.04 12.02 14 11 C14.33 11.99 14.66 12.98 15 14 C14.34 14 13.68 14 13 14 C12.67 13.34 12.34 12.68 12 12 C9.66989091 11.32215008 7.33640176 10.65583207 5 10 C4.34 9.34 3.68 8.68 3 8 C3.33 7.34 3.66 6.68 4 6 C3.67 5.01 3.34 4.02 3 3 C2.01 2.67 1.02 2.34 0 2 C0 1.34 0 0.68 0 0 Z " fill="#E0915B" transform="translate(65,90)"/>
<path d="M0 0 C2.4375 0.75 2.4375 0.75 5 2 C5.144375 2.61875 5.28875 3.2375 5.4375 3.875 C6.16595359 6.62693577 7.36382463 7.4910597 9.5625 9.25 C10.52349609 10.03117187 10.52349609 10.03117187 11.50390625 10.828125 C11.99761719 11.21484375 12.49132812 11.6015625 13 12 C13.66 11.01 14.32 10.02 15 9 C16.20029908 11.40059817 16.11459743 12.89360649 16.09765625 15.5703125 C16.09443359 16.46621094 16.09121094 17.36210938 16.08789062 18.28515625 C16.07532227 19.69087891 16.07532227 19.69087891 16.0625 21.125 C16.05798828 22.06988281 16.05347656 23.01476562 16.04882812 23.98828125 C16.03702357 26.32558387 16.02055759 28.66276061 16 31 C13.36 30.34 10.72 29.68 8 29 C8 28.34 8 27.68 8 27 C7.278125 26.9175 6.55625 26.835 5.8125 26.75 C1.33365024 25.55564006 -1.26592494 22.98641336 -4 19.3125 C-8.76877293 15.63657087 -14.13425502 16.09447027 -20 16 C-19.67 16.99 -19.34 17.98 -19 19 C-20.98 18.34 -22.96 17.68 -25 17 C-24 15 -24 15 -23 14 C-14.83974718 12.16689973 -8.59065432 11.20467284 -1 15 C-2.32 12.03 -3.64 9.06 -5 6 C-2.525 6.495 -2.525 6.495 0 7 C0 6.34 0 5.68 0 5 C0.66 5 1.32 5 2 5 C1.34 3.35 0.68 1.7 0 0 Z " fill="#F7BD72" transform="translate(106,43)"/>
<path d="M0 0 C-0.33 0.99 -0.66 1.98 -1 3 C-2.10408203 2.98259766 -2.10408203 2.98259766 -3.23046875 2.96484375 C-4.20628906 2.95582031 -5.18210938 2.94679688 -6.1875 2.9375 C-7.15042969 2.92589844 -8.11335938 2.91429687 -9.10546875 2.90234375 C-11.95325676 2.91315704 -11.95325676 2.91315704 -14.49609375 3.53515625 C-17.4465152 4.0828944 -19.8980821 3.84021919 -22.875 3.5 C-27.49577646 3.05482763 -31.40790953 3.23465159 -36 4 C-39.33521608 4.08867635 -42.66442119 4.06040284 -46 4 C-46.33 2.68 -46.66 1.36 -47 0 C-37.04632551 -9.15738053 -11.88765944 -3.96255315 0 0 Z " fill="#99A8C0" transform="translate(52,61)"/>
<path d="M0 0 C2.375 1.6875 2.375 1.6875 4 4 C4.55156953 7.76905843 4.16551116 8.75173326 2 12 C1.34 12 0.68 12 0 12 C1.42183426 15.58880092 2.88855295 16.79665827 6.3125 18.5 C9.89587181 20.36633948 12.88103649 22.41571595 16 25 C17.31138904 25.70885894 18.63777017 26.39456452 20 27 C18.00045254 27.04254356 15.99958364 27.04080783 14 27 C13.67 26.67 13.34 26.34 13 26 C11.88625 25.855625 10.7725 25.71125 9.625 25.5625 C6 25 6 25 3 23 C3 22.34 3 21.68 3 21 C2.154375 20.835 1.30875 20.67 0.4375 20.5 C-4.3644138 18.40461943 -7.1235179 15.33431771 -10 11 C-11.25 7.25 -11.25 7.25 -11 4 C-7.75709481 0.16747568 -4.93317719 -0.83968973 0 0 Z " fill="#C0A7A3" transform="translate(82,20)"/>
<path d="M0 0 C0.66 0 1.32 0 2 0 C2 0.66 2 1.32 2 2 C2.515625 2.2475 3.03125 2.495 3.5625 2.75 C6.16141874 4.08277884 8.63387075 5.56838921 11.12109375 7.09765625 C18.04079913 10.42084116 28.06357308 10.0279736 35.3125 8 C39.46909474 6.87278787 42.71674156 6.9274024 47 7 C47.99 6.67 48.98 6.34 50 6 C50.2130417 9.12461161 50.25320885 11.41445453 49 14.3125 C45.90272429 16.92582638 42.99769792 16.73785587 39 17 C39 15.68 39 14.36 39 13 C37.948125 13.20625 36.89625 13.4125 35.8125 13.625 C31.95174311 14.00474658 30.39610875 13.64953854 27 12 C26.34 12 25.68 12 25 12 C24.67 12.66 24.34 13.32 24 14 C21.71484375 14.4140625 21.71484375 14.4140625 18.9375 14.625 C18.01839844 14.69976562 17.09929687 14.77453125 16.15234375 14.8515625 C15.08693359 14.92503906 15.08693359 14.92503906 14 15 C13.73703125 14.34902344 13.4740625 13.69804688 13.203125 13.02734375 C12.60757813 12.02380859 12.60757813 12.02380859 12 11 C10.9275 10.855625 9.855 10.71125 8.75 10.5625 C3.95931391 9.84389709 2.44810821 8.2799078 -1 5 C-0.67 3.35 -0.34 1.7 0 0 Z " fill="#F5AC69" transform="translate(79,71)"/>
<path d="M0 0 C2.48605403 7.8022142 4.56993514 14.73594051 4 23 C3.34 22.67 2.68 22.34 2 22 C-0.0081326 22.28020455 -2.0075675 22.62406934 -4 23 C-9.97972629 23.93799628 -15.97199257 24.48767387 -22 25 C-22 24.67 -22 24.34 -22 24 C-20.35 23.67 -18.7 23.34 -17 23 C-17.33 19.04 -17.66 15.08 -18 11 C-16.68 11.33 -15.36 11.66 -14 12 C-14 12.66 -14 13.32 -14 14 C-13.34 14 -12.68 14 -12 14 C-12 14.66 -12 15.32 -12 16 C-8.37114676 16.15149298 -8.37114676 16.15149298 -5 15 C-5.04640625 14.25234375 -5.0928125 13.5046875 -5.140625 12.734375 C-5.43844423 4.60816458 -5.43844423 4.60816458 -3.0625 1.3125 C-1 0 -1 0 0 0 Z " fill="#E79863" transform="translate(126,56)"/>
<path d="M0 0 C0.5775 0.33 1.155 0.66 1.75 1 C4.19883862 2.27075898 4.19883862 2.27075898 8 2 C8.66 1.34 9.32 0.68 10 0 C10.66 0.33 11.32 0.66 12 1 C12 2.98 12 4.96 12 7 C8.36576791 9.32590854 5.22911669 9.16265833 1 9 C0.67 9.66 0.34 10.32 0 11 C-0.66 10.67 -1.32 10.34 -2 10 C-2.103125 10.61875 -2.20625 11.2375 -2.3125 11.875 C-3 14 -3 14 -6 16 C-6.2502157 19.08365871 -6.2502157 19.08365871 -6 22 C-6.66 22.33 -7.32 22.66 -8 23 C-10.2477975 20.94766315 -11.0022242 19.99332739 -12 17 C-15.50294871 15.28432339 -15.50294871 15.28432339 -19 14 C-19 13.34 -19 12.68 -19 12 C-18.01 11.34 -17.02 10.68 -16 10 C-15.74969023 7.41619823 -15.74969023 7.41619823 -16 5 C-15.01 5.33 -14.02 5.66 -13 6 C-10.60509014 6.06970052 -8.20832309 6.08448003 -5.8125 6.0625 C-4.54019531 6.05347656 -3.26789063 6.04445313 -1.95703125 6.03515625 C-0.98121094 6.02355469 -0.00539063 6.01195312 1 6 C0.67 4.02 0.34 2.04 0 0 Z " fill="#9EAEC5" transform="translate(82,48)"/>
<path d="M0 0 C2.25112327 1.5524988 2.87389757 2.46406466 3.5 5.125 C3.665 5.74375 3.83 6.3625 4 7 C4.99 7.33 5.98 7.66 7 8 C8.3125 10.8125 8.3125 10.8125 9 14 C8.125 16.375 8.125 16.375 7 18 C6.01 18 5.02 18 4 18 C3.01 18.33 2.02 18.66 1 19 C0.67 17.68 0.34 16.36 0 15 C-0.66 15.66 -1.32 16.32 -2 17 C-5.35819395 15.58209589 -7.61328179 14.47404167 -9.9375 11.625 C-11.21870216 8.45967702 -11.22074145 7.17392778 -10 4 C-7.0847009 0.00496049 -4.87413729 -0.72593534 0 0 Z " fill="#8085A0" transform="translate(110,20)"/>
<path d="M0 0 C0.66 0 1.32 0 2 0 C2 0.99 2 1.98 2 3 C2.99 3.33 3.98 3.66 5 4 C6.09765625 5.8125 6.09765625 5.8125 7.0625 8 C8.32230077 11.1514696 8.32230077 11.1514696 11 13 C11 13.66 11 14.32 11 15 C13.37374861 15.33425735 13.37374861 15.33425735 16 15 C16.99 13.68 17.98 12.36 19 11 C19 14.63 19 18.26 19 22 C16.36 21.34 13.72 20.68 11 20 C11 19.34 11 18.68 11 18 C10.278125 17.9175 9.55625 17.835 8.8125 17.75 C4.33365024 16.55564006 1.73407506 13.98641336 -1 10.3125 C-5.76877293 6.63657087 -11.13425502 7.09447027 -17 7 C-16.67 7.99 -16.34 8.98 -16 10 C-17.98 9.34 -19.96 8.68 -22 8 C-21 6 -21 6 -20 5 C-11.83974718 3.16689973 -5.59065432 2.20467284 2 6 C1.34 4.02 0.68 2.04 0 0 Z " fill="#F8AE6C" transform="translate(103,52)"/>
<path d="M0 0 C0.99 0 1.98 0 3 0 C3 0.66 3 1.32 3 2 C3.66 2 4.32 2 5 2 C5.33 1.34 5.66 0.68 6 0 C6.66 0.99 7.32 1.98 8 3 C9.32 3 10.64 3 12 3 C13.11658501 7.68965706 12.80619523 10.53763531 11 15 C10.34 15 9.68 15 9 15 C8.74969023 17.41619823 8.74969023 17.41619823 9 20 C9.99 20.66 10.98 21.32 12 22 C12 22.66 12 23.32 12 24 C7.24518354 23.42365861 4.02951788 21.44931479 0 19 C0 18.34 0 17.68 0 17 C-0.66 16.67 -1.32 16.34 -2 16 C2.75 16.875 2.75 16.875 5 18 C1.75605604 9.93845846 1.75605604 9.93845846 -5 5 C-4.67 4.01 -4.34 3.02 -4 2 C-3.01 1.67 -2.02 1.34 -1 1 C-0.67 0.67 -0.34 0.34 0 0 Z " fill="#BF6956" transform="translate(64,67)"/>
<path d="M0 0 C0.268125 0.639375 0.53625 1.27875 0.8125 1.9375 C1.88667752 4.33131686 1.88667752 4.33131686 5 5 C4.67 7.31 4.34 9.62 4 12 C3.34 12 2.68 12 2 12 C2 11.34 2 10.68 2 10 C1.34 10 0.68 10 0 10 C0 14.29 0 18.58 0 23 C0.99 23.33 1.98 23.66 3 24 C2.34 24.66 1.68 25.32 1 26 C0.34 25.34 -0.32 24.68 -1 24 C-1 24.66 -1 25.32 -1 26 C-0.34 26.33 0.32 26.66 1 27 C1 27.66 1 28.32 1 29 C2.423125 29.2165625 2.423125 29.2165625 3.875 29.4375 C7 30 7 30 9 31 C9.72693904 32.97888961 10.39816251 34.97954558 11 37 C9.2421875 37.73046875 9.2421875 37.73046875 7 38 C5.0703125 36.48828125 5.0703125 36.48828125 3.125 34.3125 C-0.05316927 30.9141205 -3.02122296 28.38726622 -7 26 C-6.67 24.35 -6.34 22.7 -6 21 C-5.34 21 -4.68 21 -4 21 C-2.90571665 15.52858323 -3.25172362 10.96318163 -4.13671875 5.453125 C-4 3 -4 3 -2.01953125 1.171875 C-1.35308594 0.78515625 -0.68664062 0.3984375 0 0 Z " fill="#E69667" transform="translate(79,61)"/>
<path d="M0 0 C3.125 0.3125 3.125 0.3125 5 2.1875 C6.125 4.3125 6.125 4.3125 6.125 6.3125 C7.775 5.9825 9.425 5.6525 11.125 5.3125 C11.455 4.3225 11.785 3.3325 12.125 2.3125 C14.59300047 3.46423355 16.17283565 4.36033565 18.125 6.3125 C19.115 6.6425 20.105 6.9725 21.125 7.3125 C16.60434142 11.83315858 10.19124946 12.29091403 4.0625 12.625 C0.125 12.3125 0.125 12.3125 -2.9375 10.75 C-4.875 8.3125 -4.875 8.3125 -4.75 4.625 C-3.63260135 0.39484797 -3.63260135 0.39484797 0 0 Z " fill="#E1CBA4" transform="translate(14.875,102.6875)"/>
<path d="M0 0 C5.75 1.75 5.75 1.75 8 4 C7.01 4 6.02 4 5 4 C4.67 4.66 4.34 5.32 4 6 C2.35353315 7.68662458 0.68816933 9.35511706 -1 11 C1.38564077 10.42415568 3.66682784 9.77772405 6 9 C6 9.66 6 10.32 6 11 C2.06171464 13.31663844 -1.69235185 15.43358249 -6 17 C-10.91174224 12.08825776 -11.68541872 8.9207882 -12 2 C-8.04 2 -4.08 2 0 2 C0 1.34 0 0.68 0 0 Z " fill="#C77651" transform="translate(79,101)"/>
<path d="M0 0 C2.25 0.125 2.25 0.125 5 1 C7.3125 4.0625 7.3125 4.0625 9 7 C8.01 7.66 7.02 8.32 6 9 C6.020625 9.928125 6.04125 10.85625 6.0625 11.8125 C5.98411541 15.81011407 4.68242562 17.14992277 2 20 C3.32 20.33 4.64 20.66 6 21 C6.33 22.32 6.66 23.64 7 25 C3.37 25.33 -0.26 25.66 -4 26 C-3.34 25.278125 -2.68 24.55625 -2 23.8125 C0.1535853 20.78402067 0.41176754 19.60296594 0 16 C-1.65 15.67 -3.3 15.34 -5 15 C-3.37633534 11.75267068 -0.24612161 11.29844864 3 10 C-1.65052872 9.73067479 -1.65052872 9.73067479 -6 11 C-6.125 8.625 -6.125 8.625 -6 6 C-4 4 -4 4 -1.375 3.875 C-0.59125 3.91625 0.1925 3.9575 1 4 C0.67 2.68 0.34 1.36 0 0 Z " fill="#DDC7A4" transform="translate(40,73)"/>
<path d="M0 0 C0.66 0 1.32 0 2 0 C2 1.32 2 2.64 2 4 C5.465 3.505 5.465 3.505 9 3 C3.78410702 8.63316442 -1.90387288 12.21720505 -9 15 C-9.99 15.495 -9.99 15.495 -11 16 C-11 15.34 -11 14.68 -11 14 C-11.99 14.33 -12.98 14.66 -14 15 C-14.66 14.67 -15.32 14.34 -16 14 C-17.155 13.835 -18.31 13.67 -19.5 13.5 C-23 13 -23 13 -25 12 C-25 11.34 -25 10.68 -25 10 C-22.36 10 -19.72 10 -17 10 C-17 10.66 -17 11.32 -17 12 C-15.68 12 -14.36 12 -13 12 C-13 11.34 -13 10.68 -13 10 C-11.35 10.33 -9.7 10.66 -8 11 C-8.66 10.38125 -9.32 9.7625 -10 9.125 C-12 7 -12 7 -12 5 C-10.54182203 4.83197949 -9.0834516 4.66562857 -7.625 4.5 C-6.81289062 4.4071875 -6.00078125 4.314375 -5.1640625 4.21875 C-3 4 -3 4 -1 4 C-0.67 2.68 -0.34 1.36 0 0 Z " fill="#BD6458" transform="translate(116,84)"/>
<path d="M0 0 C3.16285735 1.08623384 6.1546087 2.22834127 9 4 C10.0625 7.25 10.0625 7.25 10 10 C9.01 9.34 8.02 8.68 7 8 C6.34 8 5.68 8 5 8 C5 7.34 5 6.68 5 6 C4.01 6.66 3.02 7.32 2 8 C0.67696283 8.3721042 -0.65737935 8.70630173 -2 9 C-2.99 9.33 -3.98 9.66 -5 10 C-6.9453125 9.546875 -6.9453125 9.546875 -9.125 8.75 C-9.91003906 8.47027344 -10.69507813 8.19054687 -11.50390625 7.90234375 C-12.32761719 7.60457031 -13.15132812 7.30679688 -14 7 C-15.68596803 6.43292478 -17.3734058 5.87019461 -19.0625 5.3125 C-20.375 4.875 -21.6875 4.4375 -23 4 C-22.67 3.34 -22.34 2.68 -22 2 C-20.89591797 2.01740234 -20.89591797 2.01740234 -19.76953125 2.03515625 C-18.79371094 2.04417969 -17.81789063 2.05320313 -16.8125 2.0625 C-15.36810547 2.07990234 -15.36810547 2.07990234 -13.89453125 2.09765625 C-11.14166057 2.00477937 -8.69059529 1.54539094 -6 1 C-3.1875 1.4375 -3.1875 1.4375 -1 2 C-0.67 1.34 -0.34 0.68 0 0 Z " fill="#C57779" transform="translate(62,61)"/>
<path d="M0 0 C2.64 0.33 5.28 0.66 8 1 C7.609375 7.0546875 7.609375 7.0546875 7 9 C3.03526992 11.75352682 -1.3611066 11.66937052 -6 11 C-8.61338514 9.90314127 -10.63873329 8.60767095 -13 7 C-11.68 6.34 -10.36 5.68 -9 5 C-9 4.34 -9 3.68 -9 3 C-4.545 2.505 -4.545 2.505 0 2 C0 1.34 0 0.68 0 0 Z " fill="#CC7971" transform="translate(50,103)"/>
<path d="M0 0 C4 0 4 0 6 1.875 C6.66 2.57625 7.32 3.2775 8 4 C10.60431242 5.73620828 11.59792452 6.05482847 14.75 5.625 C19.37222283 6.1583334 21.0177419 8.72609337 23.97265625 12.15234375 C27.32501468 15.207576 30.94420005 15.13653898 35.3125 15.0625 C36.529375 15.041875 37.74625 15.02125 39 15 C39 15.66 39 16.32 39 17 C40.98 16.67 42.96 16.34 45 16 C45 16.99 45 17.98 45 19 C43.01432292 18.96744792 41.02864583 18.93489583 39.04296875 18.90234375 C36.79694539 18.91736783 36.79694539 18.91736783 34 20 C34 20.66 34 21.32 34 22 C33.01 21.67 32.02 21.34 31 21 C31.66 19.68 32.32 18.36 33 17 C30.525 18.485 30.525 18.485 28 20 C27.50371094 19.44570312 27.00742188 18.89140625 26.49609375 18.3203125 C22.19068934 13.72897042 19.26421571 11.04403595 13 10 C13 9.34 13 8.68 13 8 C12.38511719 7.89042969 11.77023438 7.78085938 11.13671875 7.66796875 C10.32847656 7.50941406 9.52023438 7.35085937 8.6875 7.1875 C7.88699219 7.03667969 7.08648437 6.88585937 6.26171875 6.73046875 C3.7221334 5.91025725 2.71837535 5.00057189 1 3 C0.34 2.34 -0.32 1.68 -1 1 C-0.67 0.67 -0.34 0.34 0 0 Z " fill="#C97A4F" transform="translate(60,84)"/>
<path d="M0 0 C-2.35277269 2.72426311 -4.62496331 3.8141763 -8 5 C-6.68 5 -5.36 5 -4 5 C-3.25 8.25 -3.25 8.25 -3 12 C-5.68934244 16.03401366 -9.62413911 17.31697658 -14 19 C-14.32481924 12.91264682 -14.47425406 8.27571913 -11 3 C-10.608125 2.38125 -10.21625 1.7625 -9.8125 1.125 C-6.7312614 -0.78749293 -3.55713136 -0.17494089 0 0 Z " fill="#F4E3B9" transform="translate(44,82)"/>
<path d="M0 0 C0.33 0.99 0.66 1.98 1 3 C-0.55183786 4.80193989 -2.11531189 6.59095676 -3.6875 8.375 C-4.12255859 8.88289063 -4.55761719 9.39078125 -5.00585938 9.9140625 C-8.46709306 13.81115524 -11.23297769 15.78004592 -16.45703125 16.1953125 C-17.23433594 16.17210938 -18.01164062 16.14890625 -18.8125 16.125 C-19.60269531 16.10695313 -20.39289063 16.08890625 -21.20703125 16.0703125 C-21.79871094 16.04710938 -22.39039062 16.02390625 -23 16 C-23.33 15.34 -23.66 14.68 -24 14 C-23.29875 13.608125 -22.5975 13.21625 -21.875 12.8125 C-18.87987873 11.0345815 -18.87987873 11.0345815 -16.125 8.4375 C-11.58379241 4.89535808 -7.70053098 4 -2 4 C-1.34 2.68 -0.68 1.36 0 0 Z " fill="#F2D9A1" transform="translate(102,105)"/>
<path d="M0 0 C1.32 0 2.64 0 4 0 C2.125 4.875 2.125 4.875 1 6 C0.76572222 8.01594582 0.58663876 10.038474 0.4375 12.0625 C0.35371094 13.16722656 0.26992187 14.27195312 0.18359375 15.41015625 C0.12300781 16.26480469 0.06242187 17.11945313 0 18 C-4.591665 16.32603695 -7.37196582 14.20616974 -11 11 C-10.1032079 6.96443555 -9.6202717 5.39591811 -6.0625 3.125 C-3 2 -3 2 0 2 C0 1.34 0 0.68 0 0 Z " fill="#D2CFD3" transform="translate(95,61)"/>
<path d="M0 0 C4.61724038 0.54320475 7.49589573 1.93390876 11 5 C12.95824315 8.55764594 14.52659736 12.21870118 16 16 C15.31421875 15.72027344 14.6284375 15.44054687 13.921875 15.15234375 C11.86195373 14.33994164 9.78722375 13.56460758 7.703125 12.81640625 C6.56359375 12.40261719 5.4240625 11.98882812 4.25 11.5625 C3.10015625 11.15128906 1.9503125 10.74007812 0.765625 10.31640625 C-0.14703125 9.88199219 -1.0596875 9.44757813 -2 9 C-2.33 8.01 -2.66 7.02 -3 6 C-1.5625 3.375 -1.5625 3.375 0 1 C0 0.67 0 0.34 0 0 Z " fill="#F1BA7B" transform="translate(54,70)"/>
<path d="M0 0 C4.75 0.875 4.75 0.875 7 2 C7.28659022 3.4271614 7.50549405 4.86827099 7.6875 6.3125 C8.36782355 9.84989511 8.36782355 9.84989511 10.68359375 12.484375 C12.81899508 13.71429611 12.81899508 13.71429611 16 15 C16 15.33 16 15.66 16 16 C5.97833136 16.631839 5.97833136 16.631839 2 14.0625 C1.34 13.381875 0.68 12.70125 0 12 C-0.99 11.67 -1.98 11.34 -3 11 C-2.690625 10.443125 -2.38125 9.88625 -2.0625 9.3125 C-0.66170086 6.26370188 0 3.35658348 0 0 Z " fill="#E39371" transform="translate(45,82)"/>
<path d="M0 0 C2.07421875 1.50390625 2.07421875 1.50390625 2.8671875 4.1640625 C2.96966797 5.32228516 2.96966797 5.32228516 3.07421875 6.50390625 C-1.7833117 7.7992477 -6.93419445 8.00306493 -11.92578125 7.50390625 C-12.91578125 6.84390625 -13.90578125 6.18390625 -14.92578125 5.50390625 C-14.69800672 2.31506289 -13.76390407 1.33787837 -11.48828125 -0.99609375 C-6.73855367 -2.99597905 -4.6133874 -1.86880117 0 0 Z " fill="#B7C9CD" transform="translate(80.92578125,47.49609375)"/>
<path d="M0 0 C-0.33 0.99 -0.66 1.98 -1 3 C-7.28371307 3.10064005 -13.32809949 2.75941669 -19.5625 2 C-20.78936523 1.85691406 -20.78936523 1.85691406 -22.04101562 1.7109375 C-24.02788675 1.47855491 -26.01402794 1.23994484 -28 1 C-28 0.34 -28 -0.32 -28 -1 C-30.97 -1 -33.94 -1 -37 -1 C-37 -1.33 -37 -1.66 -37 -2 C-23.99414309 -3.43371651 -12.76659275 -3.17276269 0 0 Z " fill="#ACAEB8" transform="translate(52,61)"/>
<path d="M0 0 C1.0725 0.2475 2.145 0.495 3.25 0.75 C3.25 2.75 3.25 2.75 1.8125 4.75 C-1.2895876 7.17114154 -3.70770564 7.48469367 -7.50390625 8.1953125 C-11.82269863 9.26186645 -14.83296211 11.8059904 -17.875 14.9375 C-19.90235715 16.89727858 -20.94839423 17.56925124 -23.75 17.75 C-24.74 17.09 -25.73 16.43 -26.75 15.75 C-25.37288087 12.99576174 -23.46261458 12.77460977 -20.72265625 11.671875 C-17.99313932 10.39629877 -15.71514794 8.67698596 -13.3125 6.875 C-11.75 5.75 -11.75 5.75 -9.5625 4.6875 C-7.54644442 3.79436108 -7.54644442 3.79436108 -5.9375 1.5625 C-3.75 -0.25 -3.75 -0.25 0 0 Z " fill="#F5B870" transform="translate(100.75,102.25)"/>
<path d="M0 0 C0.33 0.66 0.66 1.32 1 2 C3.52733235 2.65555119 3.52733235 2.65555119 6 3 C6 2.34 6 1.68 6 1 C17.63856502 0.23318386 17.63856502 0.23318386 20.9765625 2.11328125 C22.3125 3.5 22.3125 3.5 24 6 C23.01 6.495 23.01 6.495 22 7 C21.01 6.67 20.02 6.34 19 6 C19.061875 6.763125 19.12375 7.52625 19.1875 8.3125 C19 11 19 11 17.5 12.8125 C16.7575 13.4003125 16.7575 13.4003125 16 14 C15.67386382 9.32538149 16.29417212 6.83325617 19 3 C17.68 3 16.36 3 15 3 C15 3.66 15 4.32 15 5 C9.79666866 7.24281523 6.65735415 8.55577239 1 7 C0.67 4.69 0.34 2.38 0 0 Z " fill="#854F58" transform="translate(80,58)"/>
<path d="M0 0 C3.29305731 0.27716937 6.5840249 0.57418781 9.875 0.875 C10.81214844 0.95363281 11.74929687 1.03226562 12.71484375 1.11328125 C14.05869141 1.23896484 14.05869141 1.23896484 15.4296875 1.3671875 C16.25710449 1.44050293 17.08452148 1.51381836 17.93701172 1.58935547 C20 2 20 2 22 4 C21.34 5.65 20.68 7.3 20 9 C19.30519531 8.84660156 18.61039063 8.69320312 17.89453125 8.53515625 C14.82044156 7.96680229 11.80378779 7.67721445 8.6875 7.4375 C7.61886719 7.35371094 6.55023438 7.26992187 5.44921875 7.18359375 C4.64097656 7.12300781 3.83273438 7.06242187 3 7 C2.67 5.35 2.34 3.7 2 2 C1.34 2 0.68 2 0 2 C0 1.34 0 0.68 0 0 Z " fill="#D1BBA1" transform="translate(23,63)"/>
<path d="M0 0 C3.76365807 1.84852232 7.36872851 3.90503568 11 6 C11 6.66 11 7.32 11 8 C11.66 8.33 12.32 8.66 13 9 C12.34 10.32 11.68 11.64 11 13 C9.35369672 12.85957123 7.70795821 12.71250671 6.0625 12.5625 C4.68771484 12.44068359 4.68771484 12.44068359 3.28515625 12.31640625 C1 12 1 12 0 11 C-0.07226502 9.14712498 -0.0838122 7.29166122 -0.0625 5.4375 C-0.05347656 4.42558594 -0.04445313 3.41367187 -0.03515625 2.37109375 C-0.02355469 1.58863281 -0.01195313 0.80617187 0 0 Z " fill="#F4E9D1" transform="translate(74,35)"/>
<path d="M0 0 C2.58385198 2.34325038 4.57130839 4.80718484 6 8 C5.67 8.99 5.34 9.98 5 11 C0.1650619 7.21045392 0.1650619 7.21045392 -1.25 5.40625 C-3.90058803 3.27631319 -6.3440816 3.47801576 -9.6875 3.3125 C-10.86699219 3.24675781 -12.04648438 3.18101563 -13.26171875 3.11328125 C-14.16535156 3.07589844 -15.06898437 3.03851563 -16 3 C-15.67 3.99 -15.34 4.98 -15 6 C-16.98 5.34 -18.96 4.68 -21 4 C-20 2 -20 2 -19 1 C-12.98807946 -0.74154841 -6.01062809 -2.37682632 0 0 Z " fill="#BF7577" transform="translate(102,56)"/>
<path d="M0 0 C2.05078125 0.03255208 4.1015625 0.06510417 6.15234375 0.09765625 C6.15234375 1.41765625 6.15234375 2.73765625 6.15234375 4.09765625 C5.16234375 4.75765625 4.17234375 5.41765625 3.15234375 6.09765625 C2.90212805 9.18131496 2.90212805 9.18131496 3.15234375 12.09765625 C2.16234375 12.59265625 2.16234375 12.59265625 1.15234375 13.09765625 C-1.09545375 11.0453194 -1.84988045 10.09098364 -2.84765625 7.09765625 C-6.35060496 5.38197964 -6.35060496 5.38197964 -9.84765625 4.09765625 C-9.84765625 3.43765625 -9.84765625 2.77765625 -9.84765625 2.09765625 C-8.71328125 1.95328125 -7.57890625 1.80890625 -6.41015625 1.66015625 C-3.51115113 1.2024186 -2.54328457 0.13442307 0 0 Z " fill="#B6C8CF" transform="translate(72.84765625,57.90234375)"/>
<path d="M0 0 C0.99 0.66 1.98 1.32 3 2 C3.1875 5.125 3.1875 5.125 3 8 C-0.3 8.66 -3.6 9.32 -7 10 C-8.74627478 7.38058783 -9.38722388 5.96175123 -10 3 C-6.6934797 -0.05217258 -4.45022302 -0.47342798 0 0 Z " fill="#BACDCF" transform="translate(82,20)"/>
<path d="M0 0 C0.99 0 1.98 0 3 0 C3 0.66 3 1.32 3 2 C3.66 2 4.32 2 5 2 C5.33 1.34 5.66 0.68 6 0 C9.07692308 5.29230769 9.07692308 5.29230769 8.6875 8.875 C8.460625 9.57625 8.23375 10.2775 8 11 C6.68 11.33 5.36 11.66 4 12 C3.67 11.01 3.34 10.02 3 9 C0.60931266 7.89363605 0.60931266 7.89363605 -2 7 C-2.99 6.34 -3.98 5.68 -5 5 C-4.67 4.01 -4.34 3.02 -4 2 C-3.01 1.67 -2.02 1.34 -1 1 C-0.67 0.67 -0.34 0.34 0 0 Z " fill="#B33A44" transform="translate(64,67)"/>
<path d="M0 0 C2.3431213 0.25561323 4.67843403 0.59270772 7 1 C7.33 1.66 7.66 2.32 8 3 C7.34 3 6.68 3 6 3 C7.35021826 7.41889613 9.26115668 9.34345343 13 12 C12.67 12.99 12.34 13.98 12 15 C11.01 15 10.02 15 9 15 C9 14.34 9 13.68 9 13 C8.443125 12.938125 7.88625 12.87625 7.3125 12.8125 C3.85949132 11.59928073 2.24299236 9.8660458 0 7 C-0.3125 3.1875 -0.3125 3.1875 0 0 Z " fill="#C9C8C3" transform="translate(52,84)"/>
<path d="M0 0 C2.64 0.66 5.28 1.32 8 2 C8 2.66 8 3.32 8 4 C9.65 4.33 11.3 4.66 13 5 C13 5.99 13 6.98 13 8 C13.99 8 14.98 8 16 8 C16.66 9.32 17.32 10.64 18 12 C16.68 11.67 15.36 11.34 14 11 C14.33 11.99 14.66 12.98 15 14 C14.34 14 13.68 14 13 14 C12.67 13.34 12.34 12.68 12 12 C9.66989091 11.32215008 7.33640176 10.65583207 5 10 C4.34 9.34 3.68 8.68 3 8 C3.33 7.34 3.66 6.68 4 6 C3.67 5.01 3.34 4.02 3 3 C2.01 2.67 1.02 2.34 0 2 C0 1.34 0 0.68 0 0 Z " fill="#EA9B62" transform="translate(65,90)"/>
<path d="M0 0 C2.25 0.125 2.25 0.125 5 1 C7.3125 4.0625 7.3125 4.0625 9 7 C5.84274244 9.10483837 4.60149717 9.30888017 0.9375 9.5625 C-2.66760043 9.77633446 -2.66760043 9.77633446 -6 11 C-6.125 8.625 -6.125 8.625 -6 6 C-4 4 -4 4 -1.375 3.875 C-0.59125 3.91625 0.1925 3.9575 1 4 C0.67 2.68 0.34 1.36 0 0 Z " fill="#D4B79D" transform="translate(40,73)"/>
<path d="M0 0 C0.33 0 0.66 0 1 0 C3.03490191 5.34161752 4.89022184 10.21355803 4 16 C1.5625 18.9375 1.5625 18.9375 -1 21 C-1.33 21 -1.66 21 -2 21 C-2.0543965 18.62468606 -2.09385864 16.25064117 -2.125 13.875 C-2.14175781 13.20984375 -2.15851563 12.5446875 -2.17578125 11.859375 C-2.21847278 7.50483944 -1.59996217 4.04399886 0 0 Z " fill="#8E6E76" transform="translate(125,56)"/>
<path d="M0 0 C1.32 0 2.64 0 4 0 C5.82004547 5.76347732 6.43341074 9.20616489 4 15 C3.01 15.66 2.02 16.32 1 17 C1.04125 15.88625 1.0825 14.7725 1.125 13.625 C1.41121859 9.95633975 1.41121859 9.95633975 -1 8 C-1.515625 7.54625 -2.03125 7.0925 -2.5625 6.625 C-4.20273182 4.7708249 -4.58422558 3.41149165 -5 1 C-3.68 1.33 -2.36 1.66 -1 2 C-0.67 1.34 -0.34 0.68 0 0 Z " fill="#C0C9CD" transform="translate(121,43)"/>
<path d="M0 0 C4.59871854 0.20037989 8.07543719 0.43394114 12.0625 2.875 C14 5 14 5 14 8 C12.35 8 10.7 8 9 8 C8.67 7.01 8.34 6.02 8 5 C4.9254644 5.7763932 4.9254644 5.7763932 3 8 C1.35 7.01 -0.3 6.02 -2 5 C-1.34 3.35 -0.68 1.7 0 0 Z " fill="#C2D0D3" transform="translate(86,44)"/>
<path d="M0 0 C3.875 2.75 3.875 2.75 5 5 C9.455 4.505 9.455 4.505 14 4 C14.33 2.68 14.66 1.36 15 0 C15.20086443 3.71599191 15.1519437 4.77208445 13 8 C12.34 8 11.68 8 11 8 C10.67 8.99 10.34 9.98 10 11 C7.25 11.375 7.25 11.375 4 11 C1.38193045 8.03744762 0.0947525 6.08965379 -0.25 2.125 C-0.1675 1.42375 -0.085 0.7225 0 0 Z " fill="#7F86A2" transform="translate(71,24)"/>
<path d="M0 0 C1.62580966 0.11398665 3.25067157 0.24155659 4.875 0.375 C5.77992187 0.44460937 6.68484375 0.51421875 7.6171875 0.5859375 C10 1 10 1 12 3 C10.79618552 5.49361571 9.54571278 7.68143083 8 10 C5.34122043 9.63327178 4.20164528 9.20911362 2.3125 7.25 C0.88788531 4.80780338 0.38687339 2.7854884 0 0 Z " fill="#E59474" transform="translate(43,67)"/>
<path d="M0 0 C0.86625 0.4640625 0.86625 0.4640625 1.75 0.9375 C3.90141503 2.09795529 3.90141503 2.09795529 6.0625 2.25 C9.13595658 3.43972513 9.62681813 6.13422914 11 9 C11.99 9.33 12.98 9.66 14 10 C14.33 11.98 14.66 13.96 15 16 C14.34 15.01 13.68 14.02 13 13 C12.34 13.66 11.68 14.32 11 15 C9.6781638 13.92807816 8.36782073 12.84197305 7.0625 11.75 C6.33160156 11.14671875 5.60070312 10.5434375 4.84765625 9.921875 C2.85918871 7.85353244 2.50497017 6.75438276 2 4 C0.52109931 2.26973898 0.52109931 2.26973898 -1 1 C-0.67 0.67 -0.34 0.34 0 0 Z " fill="#C18168" transform="translate(108,41)"/>
<path d="M0 0 C1.98 0.99 1.98 0.99 4 2 C5.32 2 6.64 2 8 2 C8.66 1.34 9.32 0.68 10 0 C10.66 0.33 11.32 0.66 12 1 C12 2.98 12 4.96 12 7 C8.86501708 8.85776765 6.62528568 9.20140476 3 9 C2.01 6.03 1.02 3.06 0 0 Z " fill="#A5AABA" transform="translate(82,48)"/>
<path d="M0 0 C1.65 0.33 3.3 0.66 5 1 C2.53721199 3.46278801 0.29323018 3.99771255 -3 5 C-3 6.65 -3 8.3 -3 10 C-6.60296594 10.41176754 -7.78402067 10.1535853 -10.8125 8 C-11.534375 7.34 -12.25625 6.68 -13 6 C-11.68 5.67 -10.36 5.34 -9 5 C-9 4.34 -9 3.68 -9 3 C-4.545 2.505 -4.545 2.505 0 2 C0 1.34 0 0.68 0 0 Z " fill="#EB9C6C" transform="translate(50,103)"/>
<path d="M0 0 C3 1 3 1 5 2 C5.99 2 6.98 2 8 2 C8 4.75 8 4.75 7 8 C4.49568941 9.74719343 1.84048268 10.90004088 -1 12 C-1.02698189 10.37509046 -1.04638757 8.75005367 -1.0625 7.125 C-1.07410156 6.22007813 -1.08570312 5.31515625 -1.09765625 4.3828125 C-1 2 -1 2 0 0 Z " fill="#F7EACC" transform="translate(31,89)"/>
<path d="M0 0 C0.66 0 1.32 0 2 0 C2 0.66 2 1.32 2 2 C2.56203125 2.27585937 3.1240625 2.55171875 3.703125 2.8359375 C6.08618794 4.04368028 8.4179008 5.32176809 10.75 6.625 C11.94882813 7.29402344 11.94882813 7.29402344 13.171875 7.9765625 C13.77515625 8.31429687 14.3784375 8.65203125 15 9 C14.67 9.66 14.34 10.32 14 11 C8.65154251 11.48622341 4.37315896 9.63154679 0 6.625 C-1 5 -1 5 -0.6875 2.3125 C-0.460625 1.549375 -0.23375 0.78625 0 0 Z " fill="#F5AB6B" transform="translate(79,71)"/>
<path d="M0 0 C0.268125 0.639375 0.53625 1.27875 0.8125 1.9375 C1.88667752 4.33131686 1.88667752 4.33131686 5 5 C4.67 7.31 4.34 9.62 4 12 C3.34 12 2.68 12 2 12 C2 11.34 2 10.68 2 10 C1.34 10 0.68 10 0 10 C-0.33 10.66 -0.66 11.32 -1 12 C-4.03643725 6.65587045 -4.03643725 6.65587045 -3.875 3.75 C-3 2 -3 2 0 0 Z " fill="#C97858" transform="translate(79,61)"/>
<path d="M0 0 C1.98793067 1.38290829 2.88705658 2.56167198 3.4921875 4.91015625 C3.8125 7.0625 3.8125 7.0625 4 11 C3.34 11.66 2.68 12.32 2 13 C-0.5 12.875 -0.5 12.875 -3 12 C-4.4375 10.1875 -4.4375 10.1875 -5 8 C-4.125 5.75 -4.125 5.75 -3 4 C-2.01 4 -1.02 4 0 4 C0 2.68 0 1.36 0 0 Z " fill="#2B141D" transform="translate(104,65)"/>
<path d="M0 0 C1.875 1.25 1.875 1.25 3 3 C3 4.32 3 5.64 3 7 C0.03 7 -2.94 7 -6 7 C-6.33 6.01 -6.66 5.02 -7 4 C-7.66 4 -8.32 4 -9 4 C-9 3.34 -9 2.68 -9 2 C-5.53076119 -0.31282587 -4.07794425 -0.42478586 0 0 Z " fill="#A0B0C4" transform="translate(110,20)"/>
<path d="M0 0 C-2.625 3.875 -2.625 3.875 -6 5 C-6.66 5.66 -7.32 6.32 -8 7 C-11.625 7.125 -11.625 7.125 -15 7 C-11.93033106 -0.4183666 -7.26649335 -0.41922077 0 0 Z " fill="#F7E8C9" transform="translate(43,100)"/>
<path d="M0 0 C0.66 0 1.32 0 2 0 C2 1.32 2 2.64 2 4 C5.465 3.505 5.465 3.505 9 3 C6.51047079 5.66735273 4.36591866 7.55746343 1 9 C1 8.34 1 7.68 1 7 C0.29875 7.20625 -0.4025 7.4125 -1.125 7.625 C-4.60186072 8.07850357 -6.77398123 7.27540277 -10 6 C-9.67 5.34 -9.34 4.68 -9 4 C-6.36 4 -3.72 4 -1 4 C-0.67 2.68 -0.34 1.36 0 0 Z " fill="#C37154" transform="translate(116,84)"/>
<path d="M0 0 C-0.93187904 3.21921852 -1.37931498 4.65698986 -4.375 6.3125 C-7 7 -7 7 -11 7 C-11 5.68 -11 4.36 -11 3 C-11.66 2.67 -12.32 2.34 -13 2 C-8.50343896 -0.24828052 -4.92127034 -0.16682272 0 0 Z " fill="#EA9B62" transform="translate(129,81)"/>
<path d="M0 0 C1.65 0.33 3.3 0.66 5 1 C5 4.50935186 4.62457273 7.56484998 4 11 C1.0625 10.1875 1.0625 10.1875 -2 9 C-2.33 8.01 -2.66 7.02 -3 6 C-1.5625 3.375 -1.5625 3.375 0 1 C0 0.67 0 0.34 0 0 Z " fill="#C0CFD2" transform="translate(54,70)"/>
<path d="M0 0 C7.35423405 0.27037625 12.62151248 1.26918654 19 5 C19 5.99 19 6.98 19 8 C12.24947898 6.22089072 5.59379663 4.29561809 -1 2 C-0.67 1.34 -0.34 0.68 0 0 Z " fill="#AC717F" transform="translate(40,63)"/>
<path d="M0 0 C-0.66 0 -1.32 0 -2 0 C-2 0.99 -2 1.98 -2 3 C-1.34 3.33 -0.68 3.66 0 4 C-0.99 4.33 -1.98 4.66 -3 5 C-3 5.66 -3 6.32 -3 7 C-1.68 7.66 -0.36 8.32 1 9 C1 9.99 1 10.98 1 12 C-2.18844618 11.05208357 -3.75485405 10.30234667 -5.875 7.6875 C-7.17232844 4.58832651 -6.9920281 3.15645305 -6 0 C-3 -1 -3 -1 0 0 Z " fill="#7F86A1" transform="translate(106,24)"/>
<path d="M0 0 C0.71929687 0.29003906 1.43859375 0.58007812 2.1796875 0.87890625 C2.90414062 1.16636719 3.62859375 1.45382813 4.375 1.75 C4.92929688 1.97816406 5.48359375 2.20632812 6.0546875 2.44140625 C6.0546875 3.43140625 6.0546875 4.42140625 6.0546875 5.44140625 C6.7146875 5.44140625 7.3746875 5.44140625 8.0546875 5.44140625 C7.7421875 7.37890625 7.7421875 7.37890625 7.0546875 9.44140625 C6.0646875 9.77140625 5.0746875 10.10140625 4.0546875 10.44140625 C3.7246875 9.12140625 3.3946875 7.80140625 3.0546875 6.44140625 C2.3946875 7.10140625 1.7346875 7.76140625 1.0546875 8.44140625 C0.6009375 7.63703125 0.1471875 6.83265625 -0.3203125 6.00390625 C-1.69256915 3.35284053 -1.69256915 3.35284053 -3.9453125 2.44140625 C-3.9453125 1.78140625 -3.9453125 1.12140625 -3.9453125 0.44140625 C-1.9453125 -0.55859375 -1.9453125 -0.55859375 0 0 Z " fill="#847788" transform="translate(106.9453125,28.55859375)"/>
<path d="M0 0 C1.11217896 -0.01957764 1.11217896 -0.01957764 2.24682617 -0.03955078 C6.05006353 -0.04560345 8.96528766 0.04781569 12.1875 2.1875 C8.35264054 3.14270309 5.2278394 3.13496736 1.3125 2.6875 C-3.30827646 2.24232763 -7.22040953 2.42215159 -11.8125 3.1875 C-15.14771608 3.27617635 -18.47692119 3.24790284 -21.8125 3.1875 C-15.14273432 -0.43449196 -7.4147871 0.07701634 0 0 Z " fill="#8A8FA2" transform="translate(27.8125,61.8125)"/>
<path d="M0 0 C0.66 0 1.32 0 2 0 C2 0.99 2 1.98 2 3 C2.99 3.33 3.98 3.66 5 4 C7.85058429 8.43424223 8.3129725 11.7837917 8 17 C4.97399468 15.48699734 4.41257985 13.00173218 3 10 C2.62875 9.34 2.2575 8.68 1.875 8 C0.73163028 5.3865835 0.38381278 2.81462704 0 0 Z " fill="#ECA16F" transform="translate(103,52)"/>
<path d="M0 0 C0.33 0.66 0.66 1.32 1 2 C3.52733235 2.65555119 3.52733235 2.65555119 6 3 C6.33 2.34 6.66 1.68 7 1 C9.5 2.375 9.5 2.375 12 4 C12 4.66 12 5.32 12 6 C7.92630576 8.03684712 5.41062136 8.0257259 1 7 C0.67 4.69 0.34 2.38 0 0 Z " fill="#361E27" transform="translate(80,58)"/>
<path d="M0 0 C3.18019243 2.24484172 4.34143788 5.06027306 6.125 8.5 C4.5 9.3125 4.5 9.3125 2.125 9.5 C-1.125 7.3125 -1.125 7.3125 -3.875 4.5 C-3.875 3.18 -3.875 1.86 -3.875 0.5 C-1.875 -0.5 -1.875 -0.5 0 0 Z " fill="#F5B76F" transform="translate(61.875,86.5)"/>
<path d="M0 0 C1.65 0.33 3.3 0.66 5 1 C5 2.32 5 3.64 5 5 C4.01 5 3.02 5 2 5 C1.896875 5.639375 1.79375 6.27875 1.6875 6.9375 C1.460625 7.618125 1.23375 8.29875 1 9 C0.01 9.33 -0.98 9.66 -2 10 C-2.66 10.99 -3.32 11.98 -4 13 C-4 9.7 -4 6.4 -4 3 C-3.01 4.485 -3.01 4.485 -2 6 C-1.34 4.02 -0.68 2.04 0 0 Z " fill="#9A7B7F" transform="translate(99,64)"/>
<path d="M0 0 C1.99609375 0.19921875 1.99609375 0.19921875 4.4375 0.6875 C5.24058594 0.83574219 6.04367188 0.98398438 6.87109375 1.13671875 C9 2 9 2 11 6 C7.7 6 4.4 6 1 6 C0.34 4.35 -0.32 2.7 -1 1 C-0.67 0.67 -0.34 0.34 0 0 Z " fill="#F9E9C1" transform="translate(27,69)"/>
<path d="M0 0 C1.32 0 2.64 0 4 0 C5.33333333 1.33333333 6.66666667 2.66666667 8 4 C10.32025604 5.36846087 12.67855875 6.62040499 15.07421875 7.8515625 C17 9 17 9 18 11 C15.525 10.505 15.525 10.505 13 10 C13 9.34 13 8.68 13 8 C12.38511719 7.89042969 11.77023438 7.78085938 11.13671875 7.66796875 C10.32847656 7.50941406 9.52023438 7.35085937 8.6875 7.1875 C7.88699219 7.03667969 7.08648437 6.88585937 6.26171875 6.73046875 C3.7221334 5.91025725 2.71837535 5.00057189 1 3 C0.34 2.34 -0.32 1.68 -1 1 C-0.67 0.67 -0.34 0.34 0 0 Z " fill="#D17979" transform="translate(60,84)"/>
<path d="M0 0 C1.43791516 0.14168137 2.8753237 0.28851043 4.3125 0.4375 C5.11300781 0.51871094 5.91351563 0.59992187 6.73828125 0.68359375 C9 1 9 1 12 2 C11.67 2.99 11.34 3.98 11 5 C9.56344146 5.08131463 8.1255517 5.13933559 6.6875 5.1875 C5.48673828 5.23970703 5.48673828 5.23970703 4.26171875 5.29296875 C1.52148416 4.93801608 0.70828921 4.10633718 -1 2 C-0.67 1.34 -0.34 0.68 0 0 Z " fill="#B1AFAB" transform="translate(40,59)"/>
<path d="M0 0 C1.99954746 -0.04254356 4.00041636 -0.04080783 6 0 C6.33 0.33 6.66 0.66 7 1 C8.68183948 1.23287008 10.3712416 1.41264166 12.0625 1.5625 C12.98160156 1.64628906 13.90070313 1.73007813 14.84765625 1.81640625 C15.91306641 1.90728516 15.91306641 1.90728516 17 2 C17 2.66 17 3.32 17 4 C10.00727785 5.18933594 5.46738512 4.99415978 -1 2 C-0.67 1.34 -0.34 0.68 0 0 Z " fill="#DB8D59" transform="translate(83,85)"/>
<path d="M0 0 C0.33 0.66 0.66 1.32 1 2 C3.38564077 1.42415568 5.66682784 0.77772405 8 0 C8 0.66 8 1.32 8 2 C4.06171464 4.31663844 0.30764815 6.43358249 -4 8 C-4.93423645 4.98968256 -5.04449911 4.13349732 -4 1 C-1.9375 0.3125 -1.9375 0.3125 0 0 Z " fill="#C97C55" transform="translate(77,110)"/>
<path d="M0 0 C2.46800047 1.15173355 4.04783565 2.04783565 6 4 C6.99 4.33 7.98 4.66 9 5 C6.7671123 7.2328877 6.08090185 7.36778152 3.0625 7.75 C2.02802734 7.89695312 2.02802734 7.89695312 0.97265625 8.046875 C-1 8 -1 8 -4 6 C-3.34 6 -2.68 6 -2 6 C-1.34 4.02 -0.68 2.04 0 0 Z " fill="#E4D8AC" transform="translate(27,105)"/>
<path d="M0 0 C2.31 0 4.62 0 7 0 C7.33 0.99 7.66 1.98 8 3 C6.35 3.66 4.7 4.32 3 5 C3.33 6.98 3.66 8.96 4 11 C1 9 1 9 0.48828125 6.8359375 C0.43027344 6.02382812 0.37226562 5.21171875 0.3125 4.375 C0.24675781 3.55773437 0.18101563 2.74046875 0.11328125 1.8984375 C0.07589844 1.27195312 0.03851563 0.64546875 0 0 Z " fill="#A04756" transform="translate(67,103)"/>
<path d="M0 0 C3.0625 0.1875 3.0625 0.1875 5.0625 2.1875 C5.0625 3.5075 5.0625 4.8275 5.0625 6.1875 C3.7425 6.1875 2.4225 6.1875 1.0625 6.1875 C1.0625 5.1975 1.0625 4.2075 1.0625 3.1875 C0.4025 3.1875 -0.2575 3.1875 -0.9375 3.1875 C-1.2675 4.5075 -1.5975 5.8275 -1.9375 7.1875 C-2.5975 6.8575 -3.2575 6.5275 -3.9375 6.1875 C-3.980221 4.52138095 -3.97813832 2.85367115 -3.9375 1.1875 C-2.9375 0.1875 -2.9375 0.1875 0 0 Z " fill="#EFE0B8" transform="translate(14.9375,102.8125)"/>
<path d="M0 0 C0.66 0 1.32 0 2 0 C2 0.66 2 1.32 2 2 C3.32 2.33 4.64 2.66 6 3 C4.37660195 4.70884005 2.70680947 6.37446717 1 8 C0.34 8 -0.32 8 -1 8 C-1.33 9.65 -1.66 11.3 -2 13 C-4 11 -4 11 -4.375 8.0625 C-4 5 -4 5 -2 3.25 C-1.01 2.63125 -1.01 2.63125 0 2 C0 1.34 0 0.68 0 0 Z " fill="#BC655B" transform="translate(74,103)"/>
<path d="M0 0 C1.93816735 0.1141866 3.87555099 0.24173423 5.8125 0.375 C6.89144531 0.44460937 7.97039063 0.51421875 9.08203125 0.5859375 C12 1 12 1 15 3 C15 3.66 15 4.32 15 5 C11.37 5 7.74 5 4 5 C3.67 3.68 3.34 2.36 3 1 C2.01 0.67 1.02 0.34 0 0 Z " fill="#EDE3C5" transform="translate(23,63)"/>
<path d="M0 0 C3.16285735 1.08623384 6.1546087 2.22834127 9 4 C10.0625 7.25 10.0625 7.25 10 10 C9.01 9.34 8.02 8.68 7 8 C6.34 8 5.68 8 5 8 C5 7.34 5 6.68 5 6 C3.68 6 2.36 6 1 6 C1 5.34 1 4.68 1 4 C0.34 4 -0.32 4 -1 4 C-0.67 2.68 -0.34 1.36 0 0 Z " fill="#8A879D" transform="translate(62,61)"/>
<path d="M0 0 C0.33 1.32 0.66 2.64 1 4 C0.01 4.495 0.01 4.495 -1 5 C0.32 5.99 1.64 6.98 3 8 C-1.76307437 8.95261487 -6.1666528 9.08333357 -11 9 C-11 8.67 -11 8.34 -11 8 C-9.35 8 -7.7 8 -6 8 C-5.67 7.34 -5.34 6.68 -5 6 C-4.67 5.67 -4.34 5.34 -4 5 C-5.32 4.67 -6.64 4.34 -8 4 C-7.34 4 -6.68 4 -6 4 C-5.67 3.01 -5.34 2.02 -5 1 C-5 1.66 -5 2.32 -5 3 C-3.35 2.67 -1.7 2.34 0 2 C0 1.34 0 0.68 0 0 Z " fill="#C8B2A0" transform="translate(26,106)"/>
<path d="M0 0 C1.03125 0.33 2.0625 0.66 3.125 1 C6.48426709 1.9715192 9.49106202 2.17116771 13 2 C13 2.99 13 3.98 13 5 C9.7 5.66 6.4 6.32 3 7 C1.25372522 4.38058783 0.61277612 2.96175123 0 0 Z " fill="#A0AFC6" transform="translate(72,23)"/>
<path d="M0 0 C0.90492187 0.2165625 0.90492187 0.2165625 1.828125 0.4375 C2.62734375 0.623125 3.4265625 0.80875 4.25 1 C5.03890625 1.185625 5.8278125 1.37125 6.640625 1.5625 C9.25556002 2.12154828 9.25556002 2.12154828 13 2 C12.67 3.32 12.34 4.64 12 6 C3.13043478 5.26086957 3.13043478 5.26086957 0 2 C0 1.34 0 0.68 0 0 Z " fill="#994653" transform="translate(104,89)"/>
<path d="M0 0 C1.32 0.33 2.64 0.66 4 1 C3.01 1.495 3.01 1.495 2 2 C3.35021826 6.41889613 5.26115668 8.34345343 9 11 C8.67 11.99 8.34 12.98 8 14 C7.01 14 6.02 14 5 14 C5 13.34 5 12.68 5 12 C4.01 11.67 3.02 11.34 2 11 C2.66 10.67 3.32 10.34 4 10 C3.34 9.278125 2.68 8.55625 2 7.8125 C-0.1535853 4.78402067 -0.41176754 3.60296594 0 0 Z " fill="#CAB9A8" transform="translate(56,85)"/>
<path d="M0 0 C0.99 0.33 1.98 0.66 3 1 C4.1875 3.5625 4.1875 3.5625 5 6 C3.3545622 7.68762851 1.68711423 9.3540349 0 11 C-0.33 11 -0.66 11 -1 11 C-0.67 7.37 -0.34 3.74 0 0 Z " fill="#2B141D" transform="translate(124,66)"/>
<path d="M0 0 C1.9375 0.6875 1.9375 0.6875 4 2 C5.73246818 6.33117046 4.42860903 9.7141729 3 14 C2.34 14 1.68 14 1 14 C1.01160156 13.32453125 1.02320312 12.6490625 1.03515625 11.953125 C1.04417969 11.06109375 1.05320312 10.1690625 1.0625 9.25 C1.07990234 7.92742188 1.07990234 7.92742188 1.09765625 6.578125 C1.00826198 4.2181162 0.66912821 2.25501476 0 0 Z " fill="#BAB3AF" transform="translate(117,29)"/>
<path d="M0 0 C2 1 2 1 3.125 3.6875 C3.99365147 6.97596627 4.23595335 9.61800199 4 13 C3 14 3 14 0.4375 14.0625 C-0.366875 14.041875 -1.17125 14.02125 -2 14 C-2.33 13.34 -2.66 12.68 -3 12 C-1.68 11.34 -0.36 10.68 1 10 C0.67 6.7 0.34 3.4 0 0 Z " fill="#A85157" transform="translate(106,66)"/>
<path d="M0 0 C1.81612488 0.95144598 3.62781081 1.91136933 5.4375 2.875 C6.44683594 3.40867188 7.45617187 3.94234375 8.49609375 4.4921875 C11 6 11 6 12 8 C6.25 8.125 6.25 8.125 4 7 C4 6.34 4 5.68 4 5 C1.525 4.01 1.525 4.01 -1 3 C-0.67 2.01 -0.34 1.02 0 0 Z " fill="#B0737B" transform="translate(81,36)"/>
<path d="M0 0 C2.875 0.625 2.875 0.625 6 2 C7.375 5.125 7.375 5.125 8 8 C6.68 8.33 5.36 8.66 4 9 C1 5.25 1 5.25 1 3 C0.67 2.01 0.34 1.02 0 0 Z " fill="#E0905C" transform="translate(82,90)"/>
<path d="M0 0 C3.7602985 0.58107632 6.53035032 1.65199496 9.8125 3.5625 C10.60269531 4.01753906 11.39289063 4.47257812 12.20703125 4.94140625 C12.79871094 5.29074219 13.39039062 5.64007813 14 6 C14 6.66 14 7.32 14 8 C9.24518354 7.42365861 6.02951788 5.44931479 2 3 C2 2.34 2 1.68 2 1 C1.34 0.67 0.68 0.34 0 0 Z " fill="#BB6157" transform="translate(62,83)"/>
<path d="M0 0 C0.66 0.33 1.32 0.66 2 1 C1.67 2.65 1.34 4.3 1 6 C2.29017414 6.98113243 3.58219106 7.95984199 4.875 8.9375 C5.59429687 9.48277344 6.31359375 10.02804688 7.0546875 10.58984375 C8.94357079 12.03964624 8.94357079 12.03964624 11 13 C11.33 12.34 11.66 11.68 12 11 C12.33 11.99 12.66 12.98 13 14 C6.83543524 13.62257767 3.82624485 11.84129692 -1 8 C-0.67 5.36 -0.34 2.72 0 0 Z " fill="#AF6B64" transform="translate(84,66)"/>
<path d="M0 0 C3.3 0.99 6.6 1.98 10 3 C3.625 7.25 3.625 7.25 -1 7 C-0.67 4.69 -0.34 2.38 0 0 Z " fill="#818096" transform="translate(66,53)"/>
<path d="M0 0 C1.65 0 3.3 0 5 0 C5 0.33 5 0.66 5 1 C6.65 1.33 8.3 1.66 10 2 C10 2.66 10 3.32 10 4 C5.38 4 0.76 4 -4 4 C-4.33 3.34 -4.66 2.68 -5 2 C-3.68 2 -2.36 2 -1 2 C-0.67 1.34 -0.34 0.68 0 0 Z " fill="#DBAD86" transform="translate(57,100)"/>
<path d="M0 0 C0.66 0.33 1.32 0.66 2 1 C2 1.99 2 2.98 2 4 C1.34 4 0.68 4 0 4 C0 4.66 0 5.32 0 6 C0.99 6.33 1.98 6.66 3 7 C3 7.66 3 8.32 3 9 C0.0280615 7.87548273 -2.33440687 6.77706209 -5 5 C-4.67 4.01 -4.34 3.02 -4 2 C-3.01 1.67 -2.02 1.34 -1 1 C-0.67 0.67 -0.34 0.34 0 0 Z " fill="#B05560" transform="translate(64,67)"/>
<path d="M0 0 C1.8871875 0.0309375 1.8871875 0.0309375 3.8125 0.0625 C3.8125 1.0525 3.8125 2.0425 3.8125 3.0625 C1.82682292 3.02994792 -0.15885417 2.99739583 -2.14453125 2.96484375 C-4.39055461 2.97986783 -4.39055461 2.97986783 -7.1875 4.0625 C-7.1875 4.7225 -7.1875 5.3825 -7.1875 6.0625 C-8.1775 5.7325 -9.1675 5.4025 -10.1875 5.0625 C-7.29994867 0.79992422 -5.07715232 -0.08323201 0 0 Z " fill="#CD8157" transform="translate(101.1875,99.9375)"/>
<path d="M0 0 C1.9375 0.75 1.9375 0.75 4 2 C4.75 4.125 4.75 4.125 5 6 C3.3125 6.6875 3.3125 6.6875 1 7 C-1.75 5.5625 -1.75 5.5625 -4 4 C-2.68 2.68 -1.36 1.36 0 0 Z " fill="#DCC9AB" transform="translate(104,44)"/>
<path d="M0 0 C1.98 0.495 1.98 0.495 4 1 C4 1.66 4 2.32 4 3 C4.66 3.33 5.32 3.66 6 4 C4.75 5.5 4.75 5.5 3 7 C1.68 7 0.36 7 -1 7 C-0.67 4.69 -0.34 2.38 0 0 Z " fill="#F1D49B" transform="translate(81,40)"/>
<path d="M0 0 C4.20763224 1.5027258 5.8027758 4.23332995 8 8 C8 8.66 8 9.32 8 10 C5.5625 9.25 5.5625 9.25 3 8 C2.375 6.0625 2.375 6.0625 2 4 C0.52109931 2.26973898 0.52109931 2.26973898 -1 1 C-0.67 0.67 -0.34 0.34 0 0 Z " fill="#A4525C" transform="translate(108,41)"/>
<path d="M0 0 C0.33 0 0.66 0 1 0 C1.22223194 2.74086056 1.34781139 4.43963721 -0.125 6.8125 C-2.77535957 8.49106106 -4.93246424 8.20450238 -8 8 C-8 7.01 -8 6.02 -8 5 C-5.36 4.67 -2.72 4.34 0 4 C0 2.68 0 1.36 0 0 Z " fill="#8186A2" transform="translate(85,24)"/>
<path d="M0 0 C0.33 0 0.66 0 1 0 C1 2.97 1 5.94 1 9 C0.34 8.67 -0.32 8.34 -1 8 C-2.67654729 8.27942455 -4.34608154 8.60828247 -6 9 C-4.87952194 5.63856582 -3.50292817 4.42471166 -1 2 C-0.67 1.34 -0.34 0.68 0 0 Z " fill="#A65D60" transform="translate(129,70)"/>
<path d="M0 0 C1.32 0 2.64 0 4 0 C5.11658501 4.68965706 4.80619523 7.53763531 3 12 C2.34 12 1.68 12 1 12 C1.20625 11.071875 1.4125 10.14375 1.625 9.1875 C2.36692966 5.84826598 2.36692966 5.84826598 0 3 C0 2.01 0 1.02 0 0 Z " fill="#CC7C7C" transform="translate(72,70)"/>
<path d="M0 0 C1.65 0.33 3.3 0.66 5 1 C5.33 1.99 5.66 2.98 6 4 C4 6 4 6 1.375 6.125 C0.59125 6.08375 -0.1925 6.0425 -1 6 C-0.67 4.02 -0.34 2.04 0 0 Z " fill="#EBA968" transform="translate(40,73)"/>
<path d="M0 0 C1.65 0.99 3.3 1.98 5 3 C4.01 3.495 4.01 3.495 3 4 C2.01 3.67 1.02 3.34 0 3 C0.061875 3.763125 0.12375 4.52625 0.1875 5.3125 C0 8 0 8 -1.5 9.8125 C-1.995 10.204375 -2.49 10.59625 -3 11 C-3.32613618 6.32538149 -2.70582788 3.83325617 0 0 Z " fill="#432A32" transform="translate(99,61)"/>
<path d="M0 0 C0.33 0 0.66 0 1 0 C1 1.65 1 3.3 1 5 C-2.3 5 -5.6 5 -9 5 C-9 4.34 -9 3.68 -9 3 C-10.32 2.67 -11.64 2.34 -13 2 C-8.71 2 -4.42 2 0 2 C0 1.34 0 0.68 0 0 Z " fill="#DF905B" transform="translate(115,84)"/>
<path d="M0 0 C0 0.66 0 1.32 0 2 C-5.41538462 3.23076923 -5.41538462 3.23076923 -8.375 2.0625 C-8.91125 1.711875 -9.4475 1.36125 -10 1 C-6.1496895 -1.56687367 -4.41430237 -0.83288724 0 0 Z " fill="#E89D61" transform="translate(104,103)"/>
<path d="M0 0 C2.64 0.66 5.28 1.32 8 2 C8 2.66 8 3.32 8 4 C9.65 4.33 11.3 4.66 13 5 C12.67 5.66 12.34 6.32 12 7 C10.68528432 6.71848913 9.37324233 6.42446661 8.0625 6.125 C7.33160156 5.96257812 6.60070312 5.80015625 5.84765625 5.6328125 C4 5 4 5 3 3 C2.01 2.67 1.02 2.34 0 2 C0 1.34 0 0.68 0 0 Z " fill="#E69475" transform="translate(65,90)"/>
<path d="M0 0 C1.32 0 2.64 0 4 0 C4 0.66 4 1.32 4 2 C4.66 2 5.32 2 6 2 C7.625 4.5 7.625 4.5 9 7 C5.13066838 6.42676569 2.84777943 4.61046448 0 2 C0 1.34 0 0.68 0 0 Z " fill="#EB9D65" transform="translate(76,88)"/>
<path d="M0 0 C1.74271938 2.297221 3.39911152 4.59866729 5 7 C7.05925139 7.72382467 7.05925139 7.72382467 9 8 C9 8.99 9 9.98 9 11 C5.58217544 10.74682781 4.72255923 9.71625376 2.25 7.1875 C0 4 0 4 0 0 Z " fill="#C27A75" transform="translate(43,69)"/>
<path d="M0 0 C0.350625 0.45375 0.70125 0.9075 1.0625 1.375 C3.77096206 3.64661334 6.60795328 4.16798854 10 5 C9.01 6.485 9.01 6.485 8 8 C4.11137013 6.73882275 2.10624401 5.54735833 0 2 C0 1.34 0 0.68 0 0 Z " fill="#DCCAAC" transform="translate(26,72)"/>
<path d="M0 0 C2.83374881 3.20336822 3.5205537 5.78087253 4 10 C2.68 9.67 1.36 9.34 0 9 C0 6.03 0 3.06 0 0 Z " fill="#9F4457" transform="translate(69,67)"/>
<path d="M0 0 C0.598125 0.226875 1.19625 0.45375 1.8125 0.6875 C0.58315985 4.37552044 -1.12609378 5.41106973 -4.1875 7.6875 C-4.875 5.375 -4.875 5.375 -5.1875 2.6875 C-3.60587179 0.1901923 -2.97595617 -0.4251366 0 0 Z " fill="#B4B2B5" transform="translate(78.1875,58.3125)"/>
<path d="M0 0 C1.32 0 2.64 0 4 0 C3.6875 3.375 3.6875 3.375 3 7 C2.01 7.66 1.02 8.32 0 9 C0 6.03 0 3.06 0 0 Z " fill="#CFACA1" transform="translate(122,51)"/>
<path d="M0 0 C2.475 0.99 2.475 0.99 5 2 C5 3.32 5 4.64 5 6 C4.01 6.495 4.01 6.495 3 7 C2.01 6.34 1.02 5.68 0 5 C0.66 5 1.32 5 2 5 C1.34 3.35 0.68 1.7 0 0 Z " fill="#E19C77" transform="translate(106,43)"/>
<path d="M0 0 C0 0.33 0 0.66 0 1 C-3.96 1 -7.92 1 -12 1 C-11 -1 -11 -1 -8.8125 -1.75 C-5.41560571 -2.05194616 -3.14413009 -1.24302818 0 0 Z " fill="#9C8790" transform="translate(58,81)"/>
<path d="M0 0 C1.32 0.66 2.64 1.32 4 2 C2.8125 3.5 2.8125 3.5 1 5 C-1.6875 5.1875 -1.6875 5.1875 -4 5 C-4 4.34 -4 3.68 -4 3 C-2 1.375 -2 1.375 0 0 Z " fill="#B0ADB0" transform="translate(45,77)"/>
<path d="M0 0 C2.875 -0.125 2.875 -0.125 6 0 C6.66 0.66 7.32 1.32 8 2 C7.67 2.66 7.34 3.32 7 4 C5.02 4 3.04 4 1 4 C0.67 2.68 0.34 1.36 0 0 Z " fill="#E7C89D" transform="translate(37,65)"/>
<path d="M0 0 C-0.99 1.485 -0.99 1.485 -2 3 C-2.99 3 -3.98 3 -5 3 C-5 2.34 -5 1.68 -5 1 C-7.97 1 -10.94 1 -14 1 C-14 0.67 -14 0.34 -14 0 C-12.2300132 -0.19532961 -10.45895721 -0.38098882 -8.6875 -0.5625 C-7.70136719 -0.66691406 -6.71523438 -0.77132812 -5.69921875 -0.87890625 C-3 -1 -3 -1 0 0 Z " fill="#B0C4CF" transform="translate(29,59)"/>
<path d="M0 0 C1.65 0.33 3.3 0.66 5 1 C4.21625 1.763125 3.4325 2.52625 2.625 3.3125 C-0.07257717 5.90891805 -0.07257717 5.90891805 -2 9 C-2.33 8.01 -2.66 7.02 -3 6 C-1.5625 3.375 -1.5625 3.375 0 1 C0 0.67 0 0.34 0 0 Z " fill="#CDC3BC" transform="translate(54,70)"/>
<path d="M0 0 C0.66 1.32 1.32 2.64 2 4 C-1 6 -1 6 -4 6 C-3.6875 4.125 -3.6875 4.125 -3 2 C-2.01 1.34 -1.02 0.68 0 0 Z " fill="#B67C88" transform="translate(79,61)"/>
<path d="M0 0 C2.4375 0.6875 2.4375 0.6875 5 2 C5.8125 4.625 5.8125 4.625 6 7 C4.125 6.875 4.125 6.875 2 6 C0.75 2.9375 0.75 2.9375 0 0 Z " fill="#BBB5B6" transform="translate(116,44)"/>
<path d="M0 0 C-0.33 2.31 -0.66 4.62 -1 7 C0.65 6.67 2.3 6.34 4 6 C4 6.66 4 7.32 4 8 C2.02 8 0.04 8 -2 8 C-2 7.01 -2 6.02 -2 5 C-2.66 5 -3.32 5 -4 5 C-3.625 3.0625 -3.625 3.0625 -3 1 C-1 0 -1 0 0 0 Z " fill="#F3E5B7" transform="translate(81,40)"/>
<path d="M0 0 C-0.99 1.485 -0.99 1.485 -2 3 C-5.125 3.1875 -5.125 3.1875 -8 3 C-8.33 2.34 -8.66 1.68 -9 1 C-3.375 -1.125 -3.375 -1.125 0 0 Z " fill="#76778A" transform="translate(83,32)"/>
<path d="M0 0 C3.125 0.375 3.125 0.375 6 1 C3.08596738 2.94268841 0.14191424 4.46395304 -3 6 C-2.42655063 3.13275314 -2.1385485 2.1385485 0 0 Z " fill="#B56962" transform="translate(108,94)"/>
<path d="M0 0 C2.31 0 4.62 0 7 0 C6.67 0.99 6.34 1.98 6 3 C4.02 3 2.04 3 0 3 C0 2.01 0 1.02 0 0 Z " fill="#C4AEAC" transform="translate(45,61)"/>
<path d="M0 0 C3 1.1875 3 1.1875 5 3.1875 C4.401875 2.98125 3.80375 2.775 3.1875 2.5625 C0.71549154 1.88078085 0.71549154 1.88078085 -2 4.1875 C-2.99 2.8675 -3.98 1.5475 -5 0.1875 C-3 -0.8125 -3 -0.8125 0 0 Z " fill="#9092A2" transform="translate(81,34.8125)"/>
<path d="M0 0 C2.625 0.9375 2.625 0.9375 5 2 C4.67 2.99 4.34 3.98 4 5 C1.83125748 4.49396008 0.00032373 4.00016187 -2 3 C-2 2.34 -2 1.68 -2 1 C-1.34 0.67 -0.68 0.34 0 0 Z " fill="#706675" transform="translate(105,28)"/>
<path d="M0 0 C1.32 0.33 2.64 0.66 4 1 C3.01 1.495 3.01 1.495 2 2 C3.39759905 5.54518884 3.39759905 5.54518884 5 9 C3.0625 8.4375 3.0625 8.4375 1 7 C0.25 3.375 0.25 3.375 0 0 Z " fill="#E2CEAA" transform="translate(56,85)"/>
<path d="M0 0 C0.33 0 0.66 0 1 0 C1 3.3 1 6.6 1 10 C-1.475 9.01 -1.475 9.01 -4 8 C-3.34 7.67 -2.68 7.34 -2 7 C-1.26924352 4.6859378 -0.59861742 2.35171131 0 0 Z " fill="#B9ADAF" transform="translate(94,69)"/>
<path d="M0 0 C2.97 0.33 5.94 0.66 9 1 C8.67 1.99 8.34 2.98 8 4 C2.25 4.125 2.25 4.125 0 3 C0 2.01 0 1.02 0 0 Z " fill="#9D929D" transform="translate(84,51)"/>
<path d="M0 0 C1.32 0.66 2.64 1.32 4 2 C4 2.99 4 3.98 4 5 C2.35 5 0.7 5 -1 5 C-1.33 4.34 -1.66 3.68 -2 3 C-1.34 3 -0.68 3 0 3 C0 2.01 0 1.02 0 0 Z " fill="#D3CFC9" transform="translate(96,47)"/>
<path d="M0 0 C1.65 0.33 3.3 0.66 5 1 C5 2.32 5 3.64 5 5 C4.01 5 3.02 5 2 5 C2 4.34 2 3.68 2 3 C1.01 2.67 0.02 2.34 -1 2 C-0.67 1.34 -0.34 0.68 0 0 Z " fill="#B8CBCF" transform="translate(107,20)"/>
<path d="M0 0 C0 1.32 0 2.64 0 4 C-2.91517292 2.92598892 -4.77810176 2.22189824 -7 0 C-4.3333581 -1.33332095 -2.83319697 -0.67102033 0 0 Z " fill="#BE7A74" transform="translate(44,109)"/>
<path d="M0 0 C0.33 1.32 0.66 2.64 1 4 C-1.60582371 4.93065133 -2.64198224 5.14917407 -5.25 4.0625 C-5.8275 3.711875 -6.405 3.36125 -7 3 C-4.69 2.01 -2.38 1.02 0 0 Z " fill="#F1AB6E" transform="translate(128,77)"/>
<path d="M0 0 C0 0.99 0 1.98 0 3 C-2.64 3.33 -5.28 3.66 -8 4 C-8.33 3.01 -8.66 2.02 -9 1 C-7.700625 1.020625 -6.40125 1.04125 -5.0625 1.0625 C-3.70834367 1.08399454 -2.35243917 1.07148199 -1 1 C-0.67 0.67 -0.34 0.34 0 0 Z " fill="#BCAFB0" transform="translate(93,53)"/>
<path d="M0 0 C0.33 0.99 0.66 1.98 1 3 C0.34 3 -0.32 3 -1 3 C-0.67 3.99 -0.34 4.98 0 6 C-1.65 6.33 -3.3 6.66 -5 7 C-3.625 4.5 -3.625 4.5 -2 2 C-1.34 2 -0.68 2 0 2 C0 1.34 0 0.68 0 0 Z " fill="#DC8D59" transform="translate(82,106)"/>
<path d="M0 0 C1.32 0.66 2.64 1.32 4 2 C4 3.32 4 4.64 4 6 C2.68 5.67 1.36 5.34 0 5 C0.33 4.34 0.66 3.68 1 3 C0.34 2.34 -0.32 1.68 -1 1 C-0.67 0.67 -0.34 0.34 0 0 Z " fill="#F9E9C2" transform="translate(16,103)"/>
<path d="M0 0 C0.99 0.66 1.98 1.32 3 2 C3 2.99 3 3.98 3 5 C1.68 5 0.36 5 -1 5 C-1.33 3.68 -1.66 2.36 -2 1 C-1.34 0.67 -0.68 0.34 0 0 Z " fill="#CBC2B8" transform="translate(44,93)"/>
<path d="M0 0 C0.33 0.99 0.66 1.98 1 3 C2.65 2.67 4.3 2.34 6 2 C6 1.34 6 0.68 6 0 C6.99 0 7.98 0 9 0 C8.67 0.99 8.34 1.98 8 3 C5.36 3.33 2.72 3.66 0 4 C0 2.68 0 1.36 0 0 Z " fill="#D5895E" transform="translate(118,84)"/>
<path d="M0 0 C2.69082872 0.17635452 5.32851446 0.61835921 8 1 C5.85446026 3.14553974 4.97397616 3.72963853 2 4 C0.25 2.5625 0.25 2.5625 -1 1 C-0.67 0.67 -0.34 0.34 0 0 Z " fill="#EEA26F" transform="translate(94,80)"/>
<path d="M0 0 C0.33 0.66 0.66 1.32 1 2 C1.66 2 2.32 2 3 2 C2.67 3.65 2.34 5.3 2 7 C0.68 6.67 -0.64 6.34 -2 6 C-2 5.34 -2 4.68 -2 4 C-1.34 4 -0.68 4 0 4 C-0.33 3.01 -0.66 2.02 -1 1 C-0.67 0.67 -0.34 0.34 0 0 Z " fill="#B3444D" transform="translate(66,67)"/>
<path d="M0 0 C2 0 2 0 3.5625 1.3125 C5 3 5 3 6 6 C5.01 6.495 5.01 6.495 4 7 C1.49962266 4.82575883 0.56371414 3.26954202 0 0 Z " fill="#AFACB5" transform="translate(70,64)"/>
<path d="M0 0 C1.65 0 3.3 0 5 0 C3.74458443 2.51083114 2.49936512 2.87125446 0 4 C0 2.68 0 1.36 0 0 Z " fill="#DFDAD9" transform="translate(89,64)"/>
<path d="M0 0 C0.66 0 1.32 0 2 0 C3.5625 2.8125 3.5625 2.8125 5 6 C4.67 6.99 4.34 7.98 4 9 C0 3.375 0 3.375 0 0 Z " fill="#DD8876" transform="translate(114,44)"/>
<path d="M0 0 C0.99 1.32 1.98 2.64 3 4 C2.01 4 1.02 4 0 4 C-0.33 4.99 -0.66 5.98 -1 7 C-1.99 6.67 -2.98 6.34 -4 6 C-4 5.34 -4 4.68 -4 4 C-3.01 4 -2.02 4 -1 4 C-0.67 2.68 -0.34 1.36 0 0 Z " fill="#8E899B" transform="translate(121,39)"/>
<path d="M0 0 C1.98 0.99 1.98 0.99 4 2 C3.34 4.31 2.68 6.62 2 9 C1.22678118 6.01758453 0.58803797 3.02419525 0 0 Z " fill="#A3ABBD" transform="translate(117,29)"/>
<path d="M0 0 C-2 2 -2 2 -5.625 2.125 C-6.73875 2.08375 -7.8525 2.0425 -9 2 C-9 1.34 -9 0.68 -9 0 C-5.62182575 -0.84454356 -3.32534757 -1.10844919 0 0 Z " fill="#FAE9BC" transform="translate(37,105)"/>
<path d="M0 0 C0.99 0.33 1.98 0.66 3 1 C3 1.66 3 2.32 3 3 C0.69 3.33 -1.62 3.66 -4 4 C-2.68 2.68 -1.36 1.36 0 0 Z " fill="#EDC58A" transform="translate(40,95)"/>
<path d="M0 0 C2.31 1.98 4.62 3.96 7 6 C6.34 6.66 5.68 7.32 5 8 C2.5 6.25 2.5 6.25 0 4 C0 2.68 0 1.36 0 0 Z " fill="#DB8D57" transform="translate(75,79)"/>
<path d="M0 0 C0.66 0 1.32 0 2 0 C2 1.65 2 3.3 2 5 C1.01 5.33 0.02 5.66 -1 6 C-1.33 4.68 -1.66 3.36 -2 2 C-1.34 2 -0.68 2 0 2 C0 1.34 0 0.68 0 0 Z " fill="#CA7950" transform="translate(71,81)"/>
<path d="M0 0 C1.875 0.3125 1.875 0.3125 4 1 C4.66 1.99 5.32 2.98 6 4 C3.69 4 1.38 4 -1 4 C-0.67 2.68 -0.34 1.36 0 0 Z " fill="#A6AEC3" transform="translate(28,58)"/>
<path d="M0 0 C0.66 0.99 1.32 1.98 2 3 C1.34 3 0.68 3 0 3 C-0.33 3.66 -0.66 4.32 -1 5 C-1.99 5 -2.98 5 -4 5 C-4 4.34 -4 3.68 -4 3 C-4.66 2.67 -5.32 2.34 -6 2 C-4.02 1.34 -2.04 0.68 0 0 Z " fill="#9596A5" transform="translate(83,54)"/>
<path d="M0 0 C0.33 0 0.66 0 1 0 C1.36923077 5.53846154 1.36923077 5.53846154 -0.5 7.875 C-1.2425 8.431875 -1.2425 8.431875 -2 9 C-2.6875 7.3125 -2.6875 7.3125 -3 5 C-1.625 2.25 -1.625 2.25 0 0 Z " fill="#E0D4C0" transform="translate(115,34)"/>
</svg>
