<?xml version="1.0" encoding="UTF-8"?>
<svg version="1.1" xmlns="http://www.w3.org/2000/svg" width="150" height="150">
<path d="M0 0 C3.96664848 1.21428015 4.92273589 2.39582147 7.0625 5.9375 C9.2804371 10.9820174 10.17063514 15.78931971 10.75 21.25 C11.2816222 25.44997839 11.2816222 25.44997839 13.9296875 28.51953125 C16.0841515 29.59636217 16.0841515 29.59636217 18.28515625 30.2890625 C20.0625 30.9375 20.0625 30.9375 21.0625 32.9375 C21.21967061 35.48133549 21.33907943 38.01647742 21.4375 40.5625 C21.72832586 47.12586761 21.72832586 47.12586761 23.625 53.375 C25.88156292 58.96735159 25.62212 63.56987692 24.25 69.375 C21.16453559 75.58959104 14.64674918 81.61775608 8.1875 83.99609375 C6.46245601 84.3997741 4.73598758 84.79744167 3.0078125 85.1875 C2.36585937 85.435 1.72390625 85.6825 1.0625 85.9375 C-0.23364601 89.17934142 -0.23364601 89.17934142 -0.9375 92.9375 C-3.02241321 95.84424409 -5.45208611 98.37121581 -7.9375 100.9375 C-8.80375 101.88625 -9.67 102.835 -10.5625 103.8125 C-14.8109992 107.61378875 -18.9184839 108.54119166 -24.52734375 108.36328125 C-29.22315515 107.53371327 -32.68135587 105.38250049 -35.9375 101.9375 C-37.75535746 98.37508579 -38.95276839 94.8075641 -39.9375 90.9375 C-42.2475 90.9375 -44.5575 90.9375 -46.9375 90.9375 C-47.288125 92.05125 -47.63875 93.165 -48 94.3125 C-49.40110458 97.55543219 -49.77704931 97.86036024 -53.1875 99.5 C-57.39855155 99.99128935 -60.00955579 99.47787028 -63.9375 97.9375 C-64.5975 97.2775 -65.2575 96.6175 -65.9375 95.9375 C-69.7011399 96.23859119 -73.11300872 96.98641227 -76.75 98 C-81.46514575 99.19254659 -86.11108247 99.74741253 -90.9375 98.9375 C-94.125 96.75 -94.125 96.75 -95.9375 93.9375 C-95.9375 90.95105237 -95.32879646 89.52444469 -93.6875 87.0625 C-91.9375 85.9375 -91.9375 85.9375 -89.375 85.9375 C-86.9375 86.9375 -86.9375 86.9375 -85.625 89.5 C-85.398125 90.304375 -85.17125 91.10875 -84.9375 91.9375 C-81.99073222 91.61893051 -80.39401652 91.42393386 -78.328125 89.22265625 C-76.73170472 86.59932518 -76.3819582 84.65920725 -76 81.625 C-75.17179397 76.50518092 -73.98120921 73.14498037 -70.9375 68.9375 C-67.41598831 66.53795832 -63.86096774 66.54435932 -59.6875 66.3125 C-57.79257813 66.20035156 -57.79257813 66.20035156 -55.859375 66.0859375 C-54.89515625 66.03695312 -53.9309375 65.98796875 -52.9375 65.9375 C-55.08270739 61.26720475 -58.13700741 57.2132081 -61.0625 53.0078125 C-64.28246533 47.73511927 -65.56443395 43.10235048 -64.9375 36.9375 C-63.43496642 32.70376006 -61.48162278 28.81935416 -59.125 25 C-57.3917866 20.53013385 -58.17434062 16.5900138 -58.9375 11.9375 C-60.154375 12.02 -61.37125 12.1025 -62.625 12.1875 C-66.10389526 12.21221684 -66.87582664 11.97861557 -69.9375 9.9375 C-70.5975 9.2775 -71.2575 8.6175 -71.9375 7.9375 C-71.6075 6.2875 -71.2775 4.6375 -70.9375 2.9375 C-64.32988541 1.19549252 -60.2200591 3.67136918 -54.4921875 6.7578125 C-50.17745827 9.27724421 -46.59224234 12.43833171 -43.0234375 15.921875 C-39.12874877 19.89623463 -39.12874877 19.89623463 -33.9375 20.9375 C-34.05609375 20.33421875 -34.1746875 19.7309375 -34.296875 19.109375 C-35.33837146 12.65209695 -35.33837146 12.65209695 -33.5 9.375 C-29.65651555 7.21889896 -27.32404054 7.38047898 -22.9375 7.9375 C-20.875 9.5625 -20.875 9.5625 -19.9375 11.9375 C-20.01137845 15.55754396 -20.24407923 17.26644764 -22.875 19.8125 C-24.9375 20.9375 -24.9375 20.9375 -26.9375 20.9375 C-26.9375 21.9275 -26.9375 22.9175 -26.9375 23.9375 C-24.6927627 24.38164588 -22.4413054 24.79193415 -20.1875 25.1875 C-18.93453125 25.41953125 -17.6815625 25.6515625 -16.390625 25.890625 C-12.98957448 26.22503878 -12.98957448 26.22503878 -10.58203125 24.6171875 C-8.10024067 20.57322471 -7.86615943 16.47357005 -7.375 11.8125 C-7.17755751 9.99602908 -6.96846467 8.18077547 -6.74609375 6.3671875 C-6.66157959 5.56522949 -6.57706543 4.76327148 -6.48999023 3.93701172 C-5.50460785 0.37082446 -3.43281598 -0.07303864 0 0 Z " fill="#DD8D59" transform="translate(105.9375,11.0625)"/>
<path d="M0 0 C2 2 2 2 3 5 C3.66 5 4.32 5 5 5 C5 5.66 5 6.32 5 7 C5.928125 7.37125 5.928125 7.37125 6.875 7.75 C9.37326623 9.21956837 10.06694014 10.28564404 11 13 C10.67 13.66 10.34 14.32 10 15 C10.70125 15.061875 11.4025 15.12375 12.125 15.1875 C15.97226927 16.27477175 18.06892904 18.31838189 21 21 C21.71285156 21.58265625 22.42570312 22.1653125 23.16015625 22.765625 C25.62562511 25.75978251 25.47248344 27.60462843 25.375 31.4375 C25.36210938 32.54996094 25.34921875 33.66242188 25.3359375 34.80859375 C25.00949475 37.90979983 24.31306602 40.19003872 23 43 C22.01 43 21.02 43 20 43 C22.31 43.66 24.62 44.32 27 45 C24.06279492 46.52299523 21.0831351 47.80100302 18 49 C18 49.99 18 50.98 18 52 C12.27585843 53.03158649 6.92144954 53.00661072 1.125 52.6875 C0.27808594 52.65205078 -0.56882812 52.61660156 -1.44140625 52.58007812 C-16.22915384 51.82144176 -16.22915384 51.82144176 -20.1875 47.75 C-21.25863152 44.12463176 -20.67254453 42.34508906 -19 39 C-17.515 38.505 -17.515 38.505 -16 38 C-16 38.66 -16 39.32 -16 40 C-13.61837991 41.41385911 -13.61837991 41.41385911 -11 42 C-11.66 41.34 -12.32 40.68 -13 40 C-13.125 36.375 -13.125 36.375 -13 33 C-8.35796103 30.46690767 -4.34844008 28.53484401 1 28 C0.67 28.99 0.34 29.98 0 31 C-0.66 31 -1.32 31 -2 31 C-2.05459773 32.56210161 -2.09306101 34.12477089 -2.125 35.6875 C-2.14820312 36.55761719 -2.17140625 37.42773438 -2.1953125 38.32421875 C-2.10072822 41.47997765 -2.10072822 41.47997765 0 46 C3.63 46 7.26 46 11 46 C12.67286501 42.65426999 11.05251036 39.39846719 10 36 C8.53866404 31.77836277 7.0997341 29.75052887 3.25 27.625 C-0.58748978 25.92574253 -3.78639886 25.49436786 -8 26 C-8.66 26.66 -9.32 27.32 -10 28 C-11.27618691 25.62993859 -12.11692999 23.55926388 -12.8125 20.9375 C-14.23967235 17.4071263 -15.62359496 16.59934975 -19 15 C-18.67 16.32 -18.34 17.64 -18 19 C-18.66 19 -19.32 19 -20 19 C-24.14352972 12.74031045 -25.59672183 8.51869512 -25 1 C-24.071875 1.639375 -23.14375 2.27875 -22.1875 2.9375 C-19.15780057 5.08622093 -19.15780057 5.08622093 -16 6 C-16 5.34 -16 4.68 -16 4 C-15.34773438 4.13019531 -14.69546875 4.26039062 -14.0234375 4.39453125 C-8.87374947 5.33393076 -8.87374947 5.33393076 -4 3.953125 C-2.174891 2.44533192 -2.174891 2.44533192 0 0 Z " fill="#EDA565" transform="translate(99,32)"/>
<path d="M0 0 C8.33065496 3.71938126 15.04851122 8.30352879 21.03515625 15.21484375 C23.3432627 17.31187088 24.94058706 17.66595665 28 18 C27.88140625 17.39671875 27.7628125 16.7934375 27.640625 16.171875 C26.59912854 9.71459695 26.59912854 9.71459695 28.4375 6.4375 C32.28098445 4.28139896 34.61345946 4.44297898 39 5 C41.0625 6.625 41.0625 6.625 42 9 C41.92612155 12.62004396 41.69342077 14.32894764 39.0625 16.875 C37 18 37 18 35 18 C35 18.99 35 19.98 35 21 C36.32 21.33 37.64 21.66 39 22 C39 22.66 39 23.32 39 24 C35.31245243 23.50168276 33.39509338 22.89932357 31 20 C30.54623805 26.46610772 31.37646918 29.61960575 35 35 C35.33 35.33 35.66 35.66 36 36 C36 35.01 36 34.02 36 33 C38.22111286 33.38295049 39.80380283 33.86920188 41.6875 35.125 C43.63305811 37.90436873 43.68668789 40.67889163 44 44 C44.66 44 45.32 44 46 44 C46.33 43.67 46.66 43.34 47 43 C52.99688806 42.38807265 57.07165484 43.75532027 62 47 C66.36435515 51.50983365 67.28592417 56.93035542 68 63 C64.68629 65.20914 63.6553979 65.22481553 59.8125 65.125 C58.91144531 65.10695313 58.01039062 65.08890625 57.08203125 65.0703125 C56.39496094 65.04710938 55.70789063 65.02390625 55 65 C51.98503189 59.97505315 51.36466675 56.71799925 52 51 C53.98 48.525 53.98 48.525 56 46 C49.565 48.475 49.565 48.475 43 51 C42.51510163 56.13725982 42.51510163 56.13725982 45 60.4375 C45.66 60.953125 46.32 61.46875 47 62 C44.0280615 60.87548273 41.66559313 59.77706209 39 58 C39 57.34 39 56.68 39 56 C35.535 57.98 35.535 57.98 32 60 C31.98582031 59.37996094 31.97164062 58.75992188 31.95703125 58.12109375 C30.91609026 38.79335152 21.89752698 24.71681787 8 12 C5.27903101 9.5440956 5.27903101 9.5440956 1.81640625 8.84765625 C1.07261719 8.91855469 0.32882813 8.98945313 -0.4375 9.0625 C-4.10003383 9.21359463 -4.819582 9.117824 -8.0625 7 C-8.701875 6.34 -9.34125 5.68 -10 5 C-9.625 2.5625 -9.625 2.5625 -9 0 C-5.82716784 -1.58641608 -3.41781369 -0.70180979 0 0 Z " fill="#B9A2A6" transform="translate(44,14)"/>
<path d="M0 0 C4.75952759 2.16916523 8.175683 5.49611758 12 9 C12.67675781 9.57621094 13.35351562 10.15242188 14.05078125 10.74609375 C21.80929464 17.75135341 27.59664625 28.57508643 29 39 C27 41 27 41 25 41.375 C22.86345357 41.81514418 22.86345357 41.81514418 21.82421875 43.73046875 C20.8010858 46.5477211 21.12105247 48.04234227 21.8125 50.9375 C22.00457031 51.77152344 22.19664063 52.60554688 22.39453125 53.46484375 C22.59433594 54.30144531 22.79414062 55.13804688 23 56 C23.33954988 57.66541129 23.67470534 59.33174574 24 61 C20.8826087 59.83097826 17.83337277 58.52263513 14.8125 57.125 C14.13832031 56.81820312 13.46414062 56.51140625 12.76953125 56.1953125 C11 55 11 55 10.07421875 52.9921875 C9.14661405 50.76142603 9.14661405 50.76142603 6.60546875 50.046875 C1.03462507 47.80851502 -2.06285937 41.07800749 -4.4375 35.8125 C-6.17401555 27.12992224 -3.54456319 21.29943436 0.8125 13.9375 C2.77417684 9.08493097 1.6395517 4.9186551 0 0 Z " fill="#B49582" transform="translate(46,22)"/>
<path d="M0 0 C3.96664848 1.21428015 4.92273589 2.39582147 7.0625 5.9375 C9.2804371 10.9820174 10.17063514 15.78931971 10.75 21.25 C11.2816222 25.44997839 11.2816222 25.44997839 13.9296875 28.51953125 C16.0841515 29.59636217 16.0841515 29.59636217 18.28515625 30.2890625 C20.0625 30.9375 20.0625 30.9375 21.0625 32.9375 C21.29465595 36.29086366 21.45690527 39.63738023 21.58007812 42.99609375 C21.7670384 46.82701555 22.15296059 49.61292342 24.0625 52.9375 C24.39467754 57.50494115 24.06465699 60.8080512 22.0625 64.9375 C20.4125 64.6075 18.7625 64.2775 17.0625 63.9375 C17.0625 57.9975 17.0625 52.0575 17.0625 45.9375 C16.4025 45.9375 15.7425 45.9375 15.0625 45.9375 C14.98 45.31875 14.8975 44.7 14.8125 44.0625 C14.26996992 41.79723865 14.26996992 41.79723865 12.25 40.875 C11.528125 40.565625 10.80625 40.25625 10.0625 39.9375 C9.0415625 39.1640625 9.0415625 39.1640625 8 38.375 C6.02068504 36.75061272 6.02068504 36.75061272 3.0625 35.9375 C2.98 35.174375 2.8975 34.41125 2.8125 33.625 C1.90754809 30.38225565 0.77476652 29.77484184 -1.9375 27.9375 C-1.9375 27.2775 -1.9375 26.6175 -1.9375 25.9375 C-2.9275 26.2675 -3.9175 26.5975 -4.9375 26.9375 C-5.2675 25.2875 -5.5975 23.6375 -5.9375 21.9375 C-6.5975 21.9375 -7.2575 21.9375 -7.9375 21.9375 C-7.63106438 17.60176194 -7.29595474 13.26924881 -6.9375 8.9375 C-6.87691406 8.16148438 -6.81632812 7.38546875 -6.75390625 6.5859375 C-6.5625 4.75 -6.5625 4.75 -5.9375 1.9375 C-2.9375 -0.0625 -2.9375 -0.0625 0 0 Z " fill="#D99875" transform="translate(105.9375,11.0625)"/>
<path d="M0 0 C2.49505962 2.49505962 2.35948376 3.67328888 2.625 7.125 C2.69976562 8.03507812 2.77453125 8.94515625 2.8515625 9.8828125 C2.90054688 10.58148438 2.94953125 11.28015625 3 12 C3.99 11.34 4.98 10.68 6 10 C5.79375 10.886875 5.5875 11.77375 5.375 12.6875 C4.96876792 16.27588334 5.56172261 17.77759989 7 21 C11.31207793 21.33894456 15.62471887 21.67013354 19.9375 22 C21.14986328 22.09539062 22.36222656 22.19078125 23.61132812 22.2890625 C30.09678521 22.7811839 36.49609957 23.11225718 43 23 C43 22.01 43 21.02 43 20 C46 17.8125 46 17.8125 49 16 C47.02 15.67 45.04 15.34 43 15 C44.5625 13.875 44.5625 13.875 47 13 C50.75 13.875 50.75 13.875 54 15 C54.185625 13.8553125 54.185625 13.8553125 54.375 12.6875 C55 10 55 10 57 7 C57.37561169 13.13499089 57.12095791 17.61903809 54 23 C49.83606704 26.7853936 44.42762878 27.03202141 39 27 C35.92773654 26.5468638 32.97941993 25.87079665 30 25 C30.495 26.98 30.495 26.98 31 29 C30.236875 28.814375 29.47375 28.62875 28.6875 28.4375 C25.91032625 27.77180827 25.91032625 27.77180827 23 29 C21.43881572 29.06740865 19.8749748 29.08514456 18.3125 29.0625 C17.10013672 29.04896484 17.10013672 29.04896484 15.86328125 29.03515625 C15.24839844 29.02355469 14.63351563 29.01195313 14 29 C14.66 29.66 15.32 30.32 16 31 C16.75 33.5 16.75 33.5 17 36 C16.34 36.66 15.68 37.32 15 38 C13.99403703 37.0479279 12.99538437 36.08812654 12 35.125 C11.443125 34.59132812 10.88625 34.05765625 10.3125 33.5078125 C9 32 9 32 9 30 C8.34 30 7.68 30 7 30 C6.01 27.69 5.02 25.38 4 23 C4.33 24.65 4.66 26.3 5 28 C3.32700041 27.34938905 1.66140763 26.67966676 0 26 C-0.721875 25.773125 -1.44375 25.54625 -2.1875 25.3125 C-5.06729365 23.22713218 -5.30428921 20.30311385 -6 17 C-6.22042969 16.17242187 -6.44085938 15.34484375 -6.66796875 14.4921875 C-8.30262817 7.85447954 -8.30262817 7.85447954 -6.9375 4 C-4.75719102 1.74935848 -2.98422185 0.88720109 0 0 Z " fill="#DB8C57" transform="translate(74,61)"/>
<path d="M0 0 C2 2 2 2 3 5 C3.66 5 4.32 5 5 5 C5 5.66 5 6.32 5 7 C5.928125 7.37125 5.928125 7.37125 6.875 7.75 C9.35068687 9.20628639 9.95125002 10.37812506 11 13 C10.34 13.66 9.68 14.32 9 15 C7.68 15 6.36 15 5 15 C5.29662344 19.76121954 5.29662344 19.76121954 7.5 23.8125 C7.995 24.204375 8.49 24.59625 9 25 C10.35439668 27.70879335 10.06501451 30.00933268 10 33 C9.113125 32.21625 8.22625 31.4325 7.3125 30.625 C2.39639484 26.57036186 -1.56252776 25.51415304 -8 26 C-8.66 26.66 -9.32 27.32 -10 28 C-11.27618691 25.62993859 -12.11692999 23.55926388 -12.8125 20.9375 C-14.23967235 17.4071263 -15.62359496 16.59934975 -19 15 C-18.67 16.32 -18.34 17.64 -18 19 C-18.66 19 -19.32 19 -20 19 C-24.14352972 12.74031045 -25.59672183 8.51869512 -25 1 C-24.071875 1.639375 -23.14375 2.27875 -22.1875 2.9375 C-19.15780057 5.08622093 -19.15780057 5.08622093 -16 6 C-16 5.34 -16 4.68 -16 4 C-15.34773438 4.13019531 -14.69546875 4.26039062 -14.0234375 4.39453125 C-8.87374947 5.33393076 -8.87374947 5.33393076 -4 3.953125 C-2.174891 2.44533192 -2.174891 2.44533192 0 0 Z " fill="#E99F73" transform="translate(99,32)"/>
<path d="M0 0 C3.82669043 3.42388092 5.72278474 6.00724943 7 11 C7.99 11 8.98 11 10 11 C10.99 12.98 11.98 14.96 13 17 C13.99 16.67 14.98 16.34 16 16 C16.66 17.65 17.32 19.3 18 21 C18.66 20.34 19.32 19.68 20 19 C20.77772405 21.33317216 21.42415568 23.61435923 22 26 C25.11332248 25.33131686 25.11332248 25.33131686 26.1875 22.9375 C26.455625 22.298125 26.72375 21.65875 27 21 C32.97219411 20.50231716 36.97980721 21.69485045 42 25 C46.36435515 29.50983365 47.28592417 34.93035542 48 41 C44.68629 43.20914 43.6553979 43.22481553 39.8125 43.125 C38.91144531 43.10695312 38.01039062 43.08890625 37.08203125 43.0703125 C36.39496094 43.04710937 35.70789063 43.02390625 35 43 C31.98503189 37.97505315 31.36466675 34.71799925 32 29 C33.32 27.35 34.64 25.7 36 24 C31.71 25.65 27.42 27.3 23 29 C22.51510163 34.13725982 22.51510163 34.13725982 25 38.4375 C25.66 38.953125 26.32 39.46875 27 40 C24.0280615 38.87548273 21.66559313 37.77706209 19 36 C19 35.34 19 34.68 19 34 C16.69 35.32 14.38 36.64 12 38 C11.98582031 37.37996094 11.97164062 36.75992188 11.95703125 36.12109375 C11.32650269 24.41371202 7.62224504 13.60826269 1.13671875 3.85546875 C0 2 0 2 0 0 Z " fill="#AD5958" transform="translate(64,36)"/>
<path d="M0 0 C1.22589844 0.01353516 1.22589844 0.01353516 2.4765625 0.02734375 C3.10304687 0.03894531 3.72953125 0.05054687 4.375 0.0625 C4.045 2.3725 3.715 4.6825 3.375 7.0625 C2.385 7.0625 1.395 7.0625 0.375 7.0625 C0.436875 7.825625 0.49875 8.58875 0.5625 9.375 C0.375 12.0625 0.375 12.0625 -1.125 13.875 C-1.8675 14.4628125 -1.8675 14.4628125 -2.625 15.0625 C-0.15699953 13.91076645 1.42283565 13.01466435 3.375 11.0625 C4.695 12.0525 6.015 13.0425 7.375 14.0625 C7.25 15.8125 7.25 15.8125 6.375 18.0625 C4.38810269 19.41528115 2.38754782 20.74818305 0.375 22.0625 C0.09269531 22.71863281 -0.18960938 23.37476562 -0.48046875 24.05078125 C-2.1119812 26.91845671 -3.91467104 27.23672172 -7 28.25 C-7.95648438 28.57355469 -8.91296875 28.89710937 -9.8984375 29.23046875 C-15.5285217 30.94853169 -20.71843344 31.9103781 -26.625 31.0625 C-29.8125 28.875 -29.8125 28.875 -31.625 26.0625 C-31.625 23.07605237 -31.01629646 21.64944469 -29.375 19.1875 C-27.625 18.0625 -27.625 18.0625 -25.0625 18.0625 C-22.625 19.0625 -22.625 19.0625 -21.3125 21.625 C-20.9721875 22.8315625 -20.9721875 22.8315625 -20.625 24.0625 C-17.67823222 23.74393051 -16.08151652 23.54893386 -14.015625 21.34765625 C-12.41920472 18.72432518 -12.0694582 16.78420725 -11.6875 13.75 C-10.87559061 8.65339229 -9.56783782 5.29282937 -6.625 1.0625 C-4.21954362 -0.14022819 -2.67503047 -0.03821472 0 0 Z " fill="#F4E3B5" transform="translate(41.625,78.9375)"/>
<path d="M0 0 C6.20951767 0.32681672 10.62726592 1.92782493 16 5 C16 5.66 16 6.32 16 7 C16.66 7 17.32 7 18 7 C18 7.66 18 8.32 18 9 C18.61875 9.28875 19.2375 9.5775 19.875 9.875 C22 11 22 11 24 13 C23.67 14.98 23.34 16.96 23 19 C10.625 19.495 10.625 19.495 -2 20 C-1.01 18.68 -0.02 17.36 1 16 C1.66 16 2.32 16 3 16 C3 15.34 3 14.68 3 14 C1.68 13.34 0.36 12.68 -1 12 C-1.391875 12.474375 -1.78375 12.94875 -2.1875 13.4375 C-4.40808374 15.35179633 -6.13375709 15.61266988 -9 16 C-7.625 14 -7.625 14 -6 12 C-5.34 12 -4.68 12 -4 12 C-4.33 10.02 -4.66 8.04 -5 6 C-3.68 6.33 -2.36 6.66 -1 7 C-1.020625 6.030625 -1.04125 5.06125 -1.0625 4.0625 C-1 1 -1 1 0 0 Z " fill="#F0B976" transform="translate(46,79)"/>
<path d="M0 0 C7.52673186 3.42124175 13.31046243 10.15044418 19 16 C18.67 16.99 18.34 17.98 18 19 C16.68 18.01 15.36 17.02 14 16 C13.67 16.53625 13.34 17.0725 13 17.625 C11 19 11 19 9.01953125 18.75390625 C6.99518471 18.23438369 4.9953947 17.62151638 3 17 C3.96663749 19.10211697 3.96663749 19.10211697 6 21 C8.69924572 21.66549451 11.20631637 21.81680763 14 22 C14 23.65 14 25.3 14 27 C11 27 11 27 9 26 C8.34 28.97 7.68 31.94 7 35 C3 36 3 36 -0.1875 34.625 C-3.4827727 31.54941214 -4.12991662 30.02473916 -4.390625 25.62890625 C-3.73827515 21.23859178 -1.43233088 17.72028847 0.69140625 13.875 C3.02054287 8.75785208 1.73332451 5.19997352 0 0 Z " fill="#F4E2B6" transform="translate(46,22)"/>
<path d="M0 0 C2.475 0.495 2.475 0.495 5 1 C5.495 2.485 5.495 2.485 6 4 C6.721875 4.28875 7.44375 4.5775 8.1875 4.875 C11.82733811 6.33093525 14.06869254 8.40954224 17 11 C13.63346113 12.06513937 10.86101408 11.97679383 7.359375 11.66015625 C5.75449219 11.5199707 5.75449219 11.5199707 4.1171875 11.37695312 C3.00601563 11.27318359 1.89484375 11.16941406 0.75 11.0625 C-0.37664062 10.96259766 -1.50328125 10.86269531 -2.6640625 10.75976562 C-5.44329908 10.51246068 -8.22183173 10.25898716 -11 10 C-11.17885742 10.63010986 -11.35771484 11.26021973 -11.54199219 11.90942383 C-11.79110352 12.72950928 -12.04021484 13.54959473 -12.296875 14.39453125 C-12.53760742 15.21026611 -12.77833984 16.02600098 -13.02636719 16.86645508 C-14 19 -14 19 -17.25 20.6875 C-22.82889396 21.15240783 -26.40317453 20.15515034 -30.9375 16.875 C-31.618125 16.25625 -32.29875 15.6375 -33 15 C-32.01 15 -31.02 15 -30 15 C-29.79375 14.21625 -29.5875 13.4325 -29.375 12.625 C-28 10 -28 10 -25.453125 8.87890625 C-21.39086392 7.84495971 -17.54882575 7.51177119 -13.375 7.3125 C-12.62476562 7.26544922 -11.87453125 7.21839844 -11.1015625 7.16992188 C-7.51118134 6.97576119 -4.45025045 7.01154209 -1 8 C-1.33 7.01 -1.66 6.02 -2 5 C-1.0625 2.3125 -1.0625 2.3125 0 0 Z " fill="#EFAA6D" transform="translate(70,90)"/>
<path d="M0 0 C3.96664848 1.21428015 4.92273589 2.39582147 7.0625 5.9375 C9.2804371 10.9820174 10.17063514 15.78931971 10.75 21.25 C11.2816222 25.44997839 11.2816222 25.44997839 13.9296875 28.51953125 C16.0841515 29.59636217 16.0841515 29.59636217 18.28515625 30.2890625 C20.0625 30.9375 20.0625 30.9375 21.0625 32.9375 C21.10272391 35.2704866 21.10570247 37.60456666 21.0625 39.9375 C19.0825 40.4325 19.0825 40.4325 17.0625 40.9375 C16.5675 38.4625 16.5675 38.4625 16.0625 35.9375 C15.134375 35.751875 15.134375 35.751875 14.1875 35.5625 C12.0625 34.9375 12.0625 34.9375 10.0625 32.9375 C9.66202556 30.61474823 9.3227896 28.28010643 9.0625 25.9375 C8.4025 25.9375 7.7425 25.9375 7.0625 25.9375 C6.7325 22.6375 6.4025 19.3375 6.0625 15.9375 C1.7725 15.6075 -2.5175 15.2775 -6.9375 14.9375 C-6.44921875 4.9765625 -6.44921875 4.9765625 -5.9375 1.9375 C-2.9375 -0.0625 -2.9375 -0.0625 0 0 Z " fill="#CBA0A0" transform="translate(105.9375,11.0625)"/>
<path d="M0 0 C1.32 0.99 2.64 1.98 4 3 C4.66 2.67 5.32 2.34 6 2 C7.03572896 3.74122549 8.0531252 5.49336595 9.0625 7.25 C9.63097656 8.22453125 10.19945313 9.1990625 10.78515625 10.203125 C12 13 12 13 11.8671875 15.19921875 C10.39923787 18.24752857 7.60631472 19.92558625 5 22 C4.34 22.99 3.68 23.98 3 25 C2.34 25 1.68 25 1 25 C0.34 22.03 -0.32 19.06 -1 16 C-1.33 18.64 -1.66 21.28 -2 24 C-4.64 23.34 -7.28 22.68 -10 22 C-9.67 21.34 -9.34 20.68 -9 20 C-8.34 20 -7.68 20 -7 20 C-6.67 16.7 -6.34 13.4 -6 10 C-3.525 10.99 -3.525 10.99 -1 12 C-0.67 10.35 -0.34 8.7 0 7 C-0.721875 7.226875 -1.44375 7.45375 -2.1875 7.6875 C-5.83753379 8.09305931 -7.14495124 7.23774092 -10 5 C-10.70992294 3.68918665 -11.38440995 2.35767121 -12 1 C-11.07767578 1.26876953 -11.07767578 1.26876953 -10.13671875 1.54296875 C-9.32847656 1.75566406 -8.52023438 1.96835937 -7.6875 2.1875 C-6.88699219 2.40792969 -6.08648437 2.62835938 -5.26171875 2.85546875 C-2.91030636 3.26194505 -2.91030636 3.26194505 -1.20703125 1.55078125 C-0.80871094 1.03902344 -0.41039062 0.52726562 0 0 Z " fill="#ED9C6E" transform="translate(60,37)"/>
<path d="M0 0 C1.2684375 0.12568359 1.2684375 0.12568359 2.5625 0.25390625 C8.92574237 0.82515187 14.70148662 1.11150236 21 0 C19.33333333 1.66666667 17.66666667 3.33333333 16 5 C15.33291016 5.77730469 15.33291016 5.77730469 14.65234375 6.5703125 C12.51571304 8.41902843 10.59982342 8.86739198 7.875 9.5625 C5.24652669 10.19912622 5.24652669 10.19912622 3 11 C2.67 11.66 2.34 12.32 2 13 C-1.7335599 14.10746804 -4.96994898 13.97916216 -8.8125 13.5625 C-10.27623047 13.40974609 -10.27623047 13.40974609 -11.76953125 13.25390625 C-12.50558594 13.17011719 -13.24164063 13.08632812 -14 13 C-13.9690625 12.23300781 -13.938125 11.46601562 -13.90625 10.67578125 C-14.02183365 7.37683115 -15.15815717 5.6860208 -17 3 C-16.32453125 3.01160156 -15.6490625 3.02320312 -14.953125 3.03515625 C-14.06109375 3.04417969 -13.1690625 3.05320312 -12.25 3.0625 C-11.36828125 3.07410156 -10.4865625 3.08570312 -9.578125 3.09765625 C-7.02821052 3.08955644 -7.02821052 3.08955644 -4.734375 2.43359375 C-4.16203125 2.29050781 -3.5896875 2.14742188 -3 2 C-2.67 2.33 -2.34 2.66 -2 3 C-1.34 2.67 -0.68 2.34 0 2 C0 1.34 0 0.68 0 0 Z " fill="#BC6458" transform="translate(104,86)"/>
<path d="M0 0 C-0.98810896 6.08392803 -5.92920442 11.71554501 -10.76953125 15.31640625 C-15.16176121 17.44566059 -20.22626898 17.67944046 -25 17 C-27.26953125 15.98046875 -27.26953125 15.98046875 -29 15 C-29 14.01 -29 13.02 -29 12 C-28.46632813 11.78085938 -27.93265625 11.56171875 -27.3828125 11.3359375 C-0.68705087 -0.02592645 -0.68705087 -0.02592645 0 0 Z " fill="#F6BD74" transform="translate(104,102)"/>
<path d="M0 0 C3.1875 2.375 3.1875 2.375 6 5 C6.804375 5.5775 7.60875 6.155 8.4375 6.75 C10.6785473 9.97710811 9.96635987 12.40856883 9.359375 16.171875 C9.24078125 16.77515625 9.1221875 17.3784375 9 18 C1.67973856 18.48801743 1.67973856 18.48801743 -1.4375 16.25 C-3.00885118 13.9872543 -3.38148848 12.62867395 -4 10 C-5.32405988 7.99384866 -6.65668346 5.99330842 -8 4 C-8 3.34 -8 2.68 -8 2 C-8.66 2 -9.32 2 -10 2 C-10 1.01 -10 0.02 -10 -1 C-5.928485 -2.35717167 -3.99385263 -1.48923319 0 0 Z " fill="#F8BF77" transform="translate(114,48)"/>
<path d="M0 0 C2.0625 1.625 2.0625 1.625 3 4 C2.92612155 7.62004396 2.69342077 9.32894764 0.0625 11.875 C-2 13 -2 13 -4 13 C-4 13.99 -4 14.98 -4 16 C-2.68 16.33 -1.36 16.66 0 17 C0 17.66 0 18.32 0 19 C-3.68754757 18.50168276 -5.60490662 17.89932357 -8 15 C-8 16.98 -8 18.96 -8 21 C-8.66 21 -9.32 21 -10 21 C-11.01866229 19.34467377 -12.01810813 17.67739862 -13 16 C-13.66 15.67 -14.32 15.34 -15 15 C-14.67 14.34 -14.34 13.68 -14 13 C-13.01 13 -12.02 13 -11 13 C-11.11859375 12.39671875 -11.2371875 11.7934375 -11.359375 11.171875 C-12.40087146 4.71459695 -12.40087146 4.71459695 -10.5625 1.4375 C-6.71901555 -0.71860104 -4.38654054 -0.55702102 0 0 Z " fill="#858293" transform="translate(83,19)"/>
<path d="M0 0 C2.50676082 2.50676082 2.27058586 3.40009032 2.34375 6.8671875 C2.37339844 7.83527344 2.40304688 8.80335937 2.43359375 9.80078125 C2.45550781 10.81527344 2.47742188 11.82976562 2.5 12.875 C2.54348172 14.87260159 2.59524828 16.87004415 2.65625 18.8671875 C2.67494141 19.75519043 2.69363281 20.64319336 2.71289062 21.55810547 C3.01406824 24.11965178 3.70990843 25.78611531 5 28 C3.32700041 27.34938905 1.66140763 26.67966676 0 26 C-0.721875 25.773125 -1.44375 25.54625 -2.1875 25.3125 C-5.06729365 23.22713218 -5.30428921 20.30311385 -6 17 C-6.22042969 16.17242187 -6.44085938 15.34484375 -6.66796875 14.4921875 C-8.30262817 7.85447954 -8.30262817 7.85447954 -6.9375 4 C-4.75719102 1.74935848 -2.98422185 0.88720109 0 0 Z " fill="#DFA974" transform="translate(74,61)"/>
<path d="M0 0 C2.4375 1 2.4375 1 3.75 3.5625 C4.0903125 4.7690625 4.0903125 4.7690625 4.4375 6 C8.04742379 5.34414811 8.04742379 5.34414811 11.4375 4 C12.4275 5.65 13.4175 7.3 14.4375 9 C15.0975 8.01 15.7575 7.02 16.4375 6 C19.4075 6.495 19.4075 6.495 22.4375 7 C16.27180802 12.02546127 8.51502113 13.67853382 0.6484375 13.41796875 C-1.5625 13 -1.5625 13 -4.75 10.8125 C-6.5625 8 -6.5625 8 -6.5625 5.375 C-5.03033534 1.73610893 -4.14650569 0 0 0 Z " fill="#DACAAE" transform="translate(16.5625,97)"/>
<path d="M0 0 C0.66 0 1.32 0 2 0 C3.4375 2.046875 3.4375 2.046875 5 4.75 C5.515625 5.63171875 6.03125 6.5134375 6.5625 7.421875 C7.45203881 9.01724353 8.31263438 10.6296109 9.125 12.265625 C9.8772297 13.98150077 9.8772297 13.98150077 11 15 C12.34747084 15.23075082 13.70377565 15.41153063 15.0625 15.5625 C16.361875 15.706875 17.66125 15.85125 19 16 C19 14.35 19 12.7 19 11 C19.33 11 19.66 11 20 11 C20.3690205 20.41002278 20.3690205 20.41002278 18 25 C17.01 25 16.02 25 15 25 C17.31 25.66 19.62 26.32 22 27 C18.66666667 28.66666667 15.33333333 30.33333333 12 32 C10.9375 30.1875 10.9375 30.1875 10 28 C10.33 27.01 10.66 26.02 11 25 C10.34 24.34 9.68 23.68 9 23 C8.67 21.824375 8.34 20.64875 8 19.4375 C7.67 18.303125 7.34 17.16875 7 16 C6.34 15.67 5.68 15.34 5 15 C4.39923744 12.72600246 4.0436846 10.44869424 3.66015625 8.12890625 C3.13111321 5.63209975 3.13111321 5.63209975 0 4 C0 2.68 0 1.36 0 0 Z " fill="#EDA66B" transform="translate(104,50)"/>
<path d="M0 0 C0.66 0.33 1.32 0.66 2 1 C1.67 3.31 1.34 5.62 1 8 C1.66 8 2.32 8 3 8 C3 7.01 3 6.02 3 5 C3.99 5 4.98 5 6 5 C6.33 4.34 6.66 3.68 7 3 C10.40843742 5.88406243 11.86591384 7.3708265 12.8125 11.8125 C12.874375 12.864375 12.93625 13.91625 13 15 C9.68629 17.20914 8.6553979 17.22481553 4.8125 17.125 C3.91144531 17.10695313 3.01039062 17.08890625 2.08203125 17.0703125 C1.39496094 17.04710938 0.70789063 17.02390625 0 17 C-3.00233171 11.99611382 -3.55983509 8.69165673 -3 3 C-1.5 1 -1.5 1 0 0 Z " fill="#943039" transform="translate(99,62)"/>
<path d="M0 0 C1.8125 0.05078125 1.8125 0.05078125 4 0.3125 C4.721875 0.39113281 5.44375 0.46976562 6.1875 0.55078125 C7.0846875 0.77314453 7.0846875 0.77314453 8 1 C9.35665057 3.71330113 9 5.98001855 9 9 C9.291224 10.67453799 9.61070799 12.34550895 10 14 C12.475 14.495 12.475 14.495 15 15 C15 15.33 15 15.66 15 16 C5.00437637 16.63019694 5.00437637 16.63019694 0.8125 14 C0.214375 13.34 -0.38375 12.68 -1 12 C-1.391875 12.474375 -1.78375 12.94875 -2.1875 13.4375 C-4.40808374 15.35179633 -6.13375709 15.61266988 -9 16 C-7.625 14 -7.625 14 -6 12 C-5.34 12 -4.68 12 -4 12 C-4.33 10.02 -4.66 8.04 -5 6 C-3.68 6.33 -2.36 6.66 -1 7 C-1.020625 6.030625 -1.04125 5.06125 -1.0625 4.0625 C-1 1 -1 1 0 0 Z " fill="#E39A6D" transform="translate(46,79)"/>
<path d="M0 0 C4.62 0 9.24 0 14 0 C14.33 1.65 14.66 3.3 15 5 C14.34 5.66 13.68 6.32 13 7 C13 6.01 13 5.02 13 4 C12.01 4.33 11.02 4.66 10 5 C8.82244087 7.94389782 8.96651304 8.89953913 10 12 C10.8971875 12.433125 10.8971875 12.433125 11.8125 12.875 C15.87522643 14.96440216 17.67134469 18.12906342 19.25 22.3125 C19.4975 23.199375 19.745 24.08625 20 25 C19.443125 24.71125 18.88625 24.4225 18.3125 24.125 C15.98947835 22.91932647 15.98947835 22.91932647 13.3125 22.1875 C12.549375 21.795625 11.78625 21.40375 11 21 C10.61781233 19.34385343 10.28604898 17.67542976 10 16 C8.00334686 14.31461399 8.00334686 14.31461399 6 13 C6 12.34 6 11.68 6 11 C5.01 11.33 4.02 11.66 3 12 C2.67 10.35 2.34 8.7 2 7 C1.34 7 0.68 7 0 7 C0 4.69 0 2.38 0 0 Z " fill="#85869A" transform="translate(98,26)"/>
<path d="M0 0 C18.95819268 -0.25240197 18.95819268 -0.25240197 26 1 C26.66 1.66 27.32 2.32 28 3 C26.71086513 3.67154933 25.41859796 4.33708859 24.125 5 C23.40570313 5.37125 22.68640625 5.7425 21.9453125 6.125 C20 7 20 7 18 7 C17.87625 7.639375 17.7525 8.27875 17.625 8.9375 C17.41875 9.618125 17.2125 10.29875 17 11 C16.01 11.495 16.01 11.495 15 12 C16.65 12 18.3 12 20 12 C19.67 12.66 19.34 13.32 19 14 C18.01 14 17.02 14 16 14 C15.67 14.66 15.34 15.32 15 16 C10.16709462 11.950809 8.6166348 8.03280791 7 2 C4.69 1.67 2.38 1.34 0 1 C0 0.67 0 0.34 0 0 Z " fill="#BC6457" transform="translate(59,100)"/>
<path d="M0 0 C4.43680469 0.0637243 6.9420553 1.34329872 10.3125 4.3125 C11.6875 7.0625 11.6875 7.0625 12.3125 9.3125 C9.02553767 10.11203138 7.60226808 10.40908936 4.3125 9.3125 C3.9825 8.3225 3.6525 7.3325 3.3125 6.3125 C2.3225 5.9825 1.3325 5.6525 0.3125 5.3125 C-0.0175 9.2725 -0.3475 13.2325 -0.6875 17.3125 C-1.6775 16.6525 -2.6675 15.9925 -3.6875 15.3125 C-4.02676947 12.98002239 -4.35990066 10.64664529 -4.6875 8.3125 C-6.58283875 5.72794715 -7.57576517 5.34974494 -10.6875 4.3125 C-10.3575 5.6325 -10.0275 6.9525 -9.6875 8.3125 C-10.3475 8.3125 -11.0075 8.3125 -11.6875 8.3125 C-12.3475 6.6625 -13.0075 5.0125 -13.6875 3.3125 C-12.73037109 3.11333984 -12.73037109 3.11333984 -11.75390625 2.91015625 C-10.92761719 2.73355469 -10.10132812 2.55695312 -9.25 2.375 C-8.42628906 2.20097656 -7.60257812 2.02695312 -6.75390625 1.84765625 C-3.49240168 1.00299439 -3.9497719 0.33472643 0 0 Z " fill="#B4C8D9" transform="translate(90.6875,42.6875)"/>
<path d="M0 0 C0.66 0.33 1.32 0.66 2 1 C2 1.33 2 1.66 2 2 C2.969375 2.061875 3.93875 2.12375 4.9375 2.1875 C9.91987371 2.9021435 13.79309981 5.35949882 18 8 C18.64453125 8.39445312 19.2890625 8.78890625 19.953125 9.1953125 C24.45011458 12.14768392 27.25158355 15.36204724 30 20 C29.67 20.99 29.34 21.98 29 23 C28.030625 22.175 27.06125 21.35 26.0625 20.5 C25.42183594 19.96117188 24.78117187 19.42234375 24.12109375 18.8671875 C22.64852661 17.57089451 21.22610535 16.21627366 19.84765625 14.8203125 C15.8417009 10.62418592 15.8417009 10.62418592 10.6015625 8.6328125 C9.07162822 8.70905507 7.54297657 8.82429318 6.01953125 8.984375 C4 9 4 9 0.9375 7 C0.298125 6.34 -0.34125 5.68 -1 5 C-0.67 3.35 -0.34 1.7 0 0 Z " fill="#819EBB" transform="translate(35,14)"/>
<path d="M0 0 C5.95118223 -0.49593185 10.00890885 0.6726059 15 4 C17 6.25 17 6.25 18 8 C17.67 8.66 17.34 9.32 17 10 C15 10 13 10 11 10 C11 10.99 11 11.98 11 13 C10.34 13 9.68 13 9 13 C9 9.7 9 6.4 9 3 C4.71 4.65 0.42 6.3 -4 8 C-4.48489837 13.13725982 -4.48489837 13.13725982 -2 17.4375 C-1.34 17.953125 -0.68 18.46875 0 19 C-3.89056513 17.70314496 -6.70686826 16.48556025 -9 13 C-8.7181382 10.11506159 -7.92706332 7.78118997 -7 5 C-5.824375 4.87625 -5.824375 4.87625 -4.625 4.75 C-1.85250896 4.27193661 -1.85250896 4.27193661 -0.6875 1.9375 C-0.460625 1.298125 -0.23375 0.65875 0 0 Z " fill="#B16D5E" transform="translate(91,57)"/>
<path d="M0 0 C2.56634828 1.23184718 4.99958066 2.5986838 7.4375 4.0625 C10.26401892 5.70114998 12.71952335 6.60236647 16 7 C15.67 8.32 15.34 9.64 15 11 C14.01 10.34 13.02 9.68 12 9 C13.98 12.96 15.96 16.92 18 21 C16.35 20.34 14.7 19.68 13 19 C12.67 18.01 12.34 17.02 12 16 C10.84951172 15.56300781 10.84951172 15.56300781 9.67578125 15.1171875 C6.32252997 13.7171439 5.21697613 12.10510221 3.1875 9.125 C2.58292969 8.26132813 1.97835937 7.39765625 1.35546875 6.5078125 C0 4 0 4 0 0 Z " fill="#E7D7B3" transform="translate(43,57)"/>
<path d="M0 0 C-0.33 0.99 -0.66 1.98 -1 3 C-1.66 3 -2.32 3 -3 3 C-3.33 7.29 -3.66 11.58 -4 16 C-9 16 -9 16 -11.8125 14.4375 C-14 12 -14 12 -14.3125 8.25 C-14.209375 7.1775 -14.10625 6.105 -14 5 C-12.75264433 4.3490741 -11.50198168 3.70448331 -10.25 3.0625 C-9.55390625 2.70285156 -8.8578125 2.34320313 -8.140625 1.97265625 C-5.41232415 0.7329721 -3.00198386 0 0 0 Z " fill="#D3CEC3" transform="translate(100,60)"/>
<path d="M0 0 C0.38922918 1.28745036 0.76098036 2.58019597 1.125 3.875 C1.33382812 4.59429687 1.54265625 5.31359375 1.7578125 6.0546875 C1.83773437 6.69664063 1.91765625 7.33859375 2 8 C0 10 0 10 -2 10.375 C-4.13317198 10.81247467 -4.13317198 10.81247467 -5.1484375 12.7109375 C-6.18425976 15.49530376 -6.01063461 17.319177 -5.625 20.25 C-5.51414062 21.14203125 -5.40328125 22.0340625 -5.2890625 22.953125 C-5.19367188 23.62859375 -5.09828125 24.3040625 -5 25 C-9.5750638 21.18744684 -10.55310421 17.12827055 -11.375 11.375 C-10.67649837 6.95115632 -7.61738526 4.54388702 -4.375 1.6875 C-2 0 -2 0 0 0 Z " fill="#BBCDD9" transform="translate(73,53)"/>
<path d="M0 0 C0.92232422 0.23396484 0.92232422 0.23396484 1.86328125 0.47265625 C2.67152344 0.66730469 3.47976562 0.86195312 4.3125 1.0625 C5.51326172 1.35833984 5.51326172 1.35833984 6.73828125 1.66015625 C9.15957179 2.19885554 9.15957179 2.19885554 12 1 C12.33 1.99 12.66 2.98 13 4 C13.66 4.66 14.32 5.32 15 6 C14.01 8.97 13.02 11.94 12 15 C11.67 15 11.34 15 11 15 C10.67 17.64 10.34 20.28 10 23 C7.36 22.34 4.72 21.68 2 21 C2.33 20.34 2.66 19.68 3 19 C3.66 19 4.32 19 5 19 C5.33 15.7 5.66 12.4 6 9 C8.475 9.99 8.475 9.99 11 11 C11.33 9.35 11.66 7.7 12 6 C11.278125 6.226875 10.55625 6.45375 9.8125 6.6875 C6.16246621 7.09305931 4.85504876 6.23774092 2 4 C1.29007706 2.68918665 0.61559005 1.35767121 0 0 Z " fill="#E2AC74" transform="translate(48,38)"/>
<path d="M0 0 C1.98 0.495 1.98 0.495 4 1 C4 1.99 4 2.98 4 4 C7.41656024 4.16677282 7.41656024 4.16677282 11 4 C11.66 3.34 12.32 2.68 13 2 C13.103125 2.598125 13.20625 3.19625 13.3125 3.8125 C14.09701691 6.30869017 15.09889308 7.25731865 17 9 C18.35439668 11.70879335 18.06501451 14.00933268 18 17 C17.113125 16.21625 16.22625 15.4325 15.3125 14.625 C9.95138749 10.21364169 5.7853348 9.76998865 -1 10 C-0.67 6.7 -0.34 3.4 0 0 Z " fill="#D99789" transform="translate(91,48)"/>
<path d="M0 0 C0.33 0.99 0.66 1.98 1 3 C-2.29376671 7.94065006 -5.19162796 10.22795429 -11 12 C-13.72430093 12.21507639 -16.25961227 12.14423093 -19 12 C-19 11.34 -19 10.68 -19 10 C-18.01 10 -17.02 10 -16 10 C-15.67 9.01 -15.34 8.02 -15 7 C-10.76521298 2.62860695 -5.72015268 1.46613622 0 0 Z " fill="#F2DDA3" transform="translate(99,107)"/>
<path d="M0 0 C0.33 0.66 0.66 1.32 1 2 C1.99 2 2.98 2 4 2 C4.66 3.65 5.32 5.3 6 7 C3.36 7.99 0.72 8.98 -2 10 C-0.68 9.67 0.64 9.34 2 9 C2.99 9.66 3.98 10.32 5 11 C5 11.66 5 12.32 5 13 C6.65 13.33 8.3 13.66 10 14 C6.4513865 16.36574234 5.4235475 16.10865265 1.3125 15.625 C-0.17830078 15.45871094 -0.17830078 15.45871094 -1.69921875 15.2890625 C-2.45847656 15.19367187 -3.21773438 15.09828125 -4 15 C-3.9131724 12.87422093 -3.8050049 10.74930419 -3.6875 8.625 C-3.62949219 7.44164062 -3.57148437 6.25828125 -3.51171875 5.0390625 C-3.34285156 4.03617188 -3.17398438 3.03328125 -3 2 C-2.01 1.34 -1.02 0.68 0 0 Z " fill="#74839F" transform="translate(103,11)"/>
<path d="M0 0 C1.85625 0.2784375 1.85625 0.2784375 3.75 0.5625 C6.76279577 0.94711223 9.10010827 1.0874594 12 0 C11.67 1.98 11.34 3.96 11 6 C10.67 5.34 10.34 4.68 10 4 C4.01902459 4.43385314 0.24107977 6.26930107 -4.75 9.5 C-13.7684215 15.20048952 -13.7684215 15.20048952 -17.6875 14.5625 C-18.8321875 14.2840625 -18.8321875 14.2840625 -20 14 C-19 12 -19 12 -17 9 C-16.34 9 -15.68 9 -15 9 C-15 9.99 -15 10.98 -15 12 C-14.50371094 11.68546875 -14.00742188 11.3709375 -13.49609375 11.046875 C-9.05600432 8.24970291 -4.5737623 5.5727413 0 3 C0 2.01 0 1.02 0 0 Z " fill="#D68B58" transform="translate(94,98)"/>
<path d="M0 0 C3.94120709 0.56302958 6.7508723 1.6791945 10 4 C10 4.66 10 5.32 10 6 C10.86625 6.185625 10.86625 6.185625 11.75 6.375 C14.02335767 7.00648824 15.9253529 7.88858191 18 9 C17.67 7.35 17.34 5.7 17 4 C19.89932357 6.39509338 20.50168276 8.31245243 21 12 C21.66 12 22.32 12 23 12 C24.7265625 13.75 24.7265625 13.75 26.625 16 C27.57246094 17.11375 27.57246094 17.11375 28.5390625 18.25 C29.26222656 19.11625 29.26222656 19.11625 30 20 C29.34 20.99 28.68 21.98 28 23 C27.7525 22.21625 27.505 21.4325 27.25 20.625 C25.77783794 17.53345968 25.04918521 17.30679366 22 16 C21.2575 15.38125 20.515 14.7625 19.75 14.125 C16.94944339 11.96093353 14.23801807 10.59160518 11.0625 9.08203125 C8.92693946 7.96167089 7.06243665 6.68289585 5.125 5.25 C2.37127696 2.80523176 2.37127696 2.80523176 0 3 C0 2.01 0 1.02 0 0 Z " fill="#BC6458" transform="translate(60,79)"/>
<path d="M0 0 C1.65 0.33 3.3 0.66 5 1 C5.33 1.99 5.66 2.98 6 4 C6.721875 4.28875 7.44375 4.5775 8.1875 4.875 C11.82733811 6.33093525 14.06869254 8.40954224 17 11 C12.89208635 12.54046762 9.21433421 11.75996191 5 11 C4.67 10.34 4.34 9.68 4 9 C2.02477154 7.95191959 0.02518491 6.9479589 -2 6 C-1.34 4.02 -0.68 2.04 0 0 Z " fill="#E99962" transform="translate(70,90)"/>
<path d="M0 0 C0.33 0 0.66 0 1 0 C1.39852399 10.16236162 1.39852399 10.16236162 -1 14 C-3.125 14.8125 -3.125 14.8125 -5 15 C-5 15.66 -5 16.32 -5 17 C-6.65 17 -8.3 17 -10 17 C-10.33 15.35 -10.66 13.7 -11 12 C-9.68 11.01 -8.36 10.02 -7 9 C-9.97 8.505 -9.97 8.505 -13 8 C-11.4375 6.875 -11.4375 6.875 -9 6 C-5.25 6.875 -5.25 6.875 -2 8 C-1.855625 7.236875 -1.71125 6.47375 -1.5625 5.6875 C-1 3 -1 3 0 0 Z " fill="#EAA768" transform="translate(130,68)"/>
<path d="M0 0 C3 1 3 1 3.9140625 2.77734375 C4.14867188 3.49019531 4.38328125 4.20304687 4.625 4.9375 C5.33748756 7.04814864 6.00283755 9.0056751 7 11 C4.60634146 14.85644987 2.39258828 16.74497478 -2 18 C-5.84241224 17.05451373 -9.37617994 15.5701324 -13 14 C-13.99 13.67 -14.98 13.34 -16 13 C-16 12.34 -16 11.68 -16 11 C-15.01 11 -14.02 11 -13 11 C-12.67 10.01 -12.34 9.02 -12 8 C-11.34 9.65 -10.68 11.3 -10 13 C-6.37 13 -2.74 13 1 13 C2.40742022 10.18515955 1.66652164 8.43063887 1.0625 5.375 C0.86785156 4.37210937 0.67320313 3.36921875 0.47265625 2.3359375 C0.31667969 1.56507812 0.16070312 0.79421875 0 0 Z " fill="#DA9468" transform="translate(109,65)"/>
<path d="M0 0 C5.42841405 3.04422227 9.27450216 5.99386227 13 11 C9.60686626 13.0880823 6.95400991 13.50476722 3 13 C1.125 11.5625 1.125 11.5625 0 9 C-0.23374934 5.9820363 -0.17422493 3.01989876 0 0 Z " fill="#F5E4B8" transform="translate(74,33)"/>
<path d="M0 0 C2.22111286 0.38295049 3.80380283 0.86920188 5.6875 2.125 C7.61768572 4.88240817 7.58776593 7.70212741 8 11 C8.99 12.485 8.99 12.485 10 14 C8.02 14.99 8.02 14.99 6 16 C4 14 4 14 3.875 11.375 C3.91625 10.59125 3.9575 9.8075 4 9 C3.34 9.66 2.68 10.32 2 11 C-0.40563753 8.59436247 -0.60358311 7.32990189 -1 4 C-0.5625 1.6875 -0.5625 1.6875 0 0 Z " fill="#97919D" transform="translate(80,47)"/>
<path d="M0 0 C5.48736342 0.47074693 9.44790088 1.96460565 14.1875 4.8125 C14.79013672 5.15603516 15.39277344 5.49957031 16.01367188 5.85351562 C19.46577278 7.87324096 22.41119029 9.93582573 25 13 C25 13.66 25 14.32 25 15 C22.18686809 14.03549763 20.11526118 13.09550212 17.8125 11.1875 C12.91177119 7.37582204 7.62371409 4.22618225 1.375 3.6875 C0.199375 3.8421875 0.199375 3.8421875 -1 4 C-0.67 2.68 -0.34 1.36 0 0 Z " fill="#A6BECC" transform="translate(37,13)"/>
<path d="M0 0 C3.32957907 0.27746492 4.78804723 0.81096104 7.3125 3.0625 C9.58644396 7.0208469 9.30595085 9.48722494 9 14 C5.31245243 13.50168276 3.39509338 12.89932357 1 10 C-0.65 10.66 -2.3 11.32 -4 12 C-3.4375 10.0625 -3.4375 10.0625 -2 8 C1.625 7.25 1.625 7.25 5 7 C4.34 5.35 3.68 3.7 3 2 C2.01 2 1.02 2 0 2 C0 1.34 0 0.68 0 0 Z " fill="#B0C7D8" transform="translate(104,11)"/>
<path d="M0 0 C2 2 2 2 3 5 C3.66 5 4.32 5 5 5 C5.33 5.99 5.66 6.98 6 8 C1.72881356 11.05084746 1.72881356 11.05084746 -1.6875 10.8125 C-4 10 -4 10 -6 8 C-5.9375 6.125 -5.9375 6.125 -5 4 C-2.4375 1.75 -2.4375 1.75 0 0 Z " fill="#F9E7B5" transform="translate(99,32)"/>
<path d="M0 0 C1.65 0 3.3 0 5 0 C4.30169319 2.85973267 3.4720921 5.44074447 2 8 C-1.99250581 9.99625291 -4.24121074 10.13082574 -8.625 9.375 C-12.01088658 7.99556473 -14.30719313 6.44800625 -17 4 C-14.75 3.25 -14.75 3.25 -12 3 C-9.6875 4.9375 -9.6875 4.9375 -8 7 C-7.67 6.67 -7.34 6.34 -7 6 C-7 5.34 -7 4.68 -7 4 C-4.69 4.66 -2.38 5.32 0 6 C0 4.02 0 2.04 0 0 Z " fill="#B7665C" transform="translate(54,101)"/>
<path d="M0 0 C1.32 0.66 2.64 1.32 4 2 C3.855625 2.70125 3.71125 3.4025 3.5625 4.125 C4.24402844 8.60361547 7.49734998 10.39981848 11 13 C10.67 13.66 10.34 14.32 10 15 C6.82908279 14.29535173 3.88231132 13.51700596 1 12 C-1.11764877 8.36974496 -1.28278491 5.14751196 -1 1 C-0.67 0.67 -0.34 0.34 0 0 Z " fill="#C9B8BA" transform="translate(55,81)"/>
<path d="M0 0 C9.37692308 1.23846154 9.37692308 1.23846154 11.6875 4.0625 C12.120625 4.701875 12.55375 5.34125 13 6 C12.67 6.66 12.34 7.32 12 8 C10.39482903 7.91266424 8.79078338 7.80447776 7.1875 7.6875 C5.84751953 7.60048828 5.84751953 7.60048828 4.48046875 7.51171875 C1.67580154 6.93311811 0.66845685 6.29976485 -1 4 C-0.6875 1.8125 -0.6875 1.8125 0 0 Z " fill="#BF9D9C" transform="translate(83,36)"/>
<path d="M0 0 C2.4375 0.375 2.4375 0.375 5 1 C6.4783226 3.95664519 6.06032783 6.74229737 6 10 C4.68 10.33 3.36 10.66 2 11 C1.67 9.35 1.34 7.7 1 6 C0.38125 5.9175 -0.2375 5.835 -0.875 5.75 C-3 5 -3 5 -4.25 2.9375 C-4.62125 1.9784375 -4.62125 1.9784375 -5 1 C-3.02 1.99 -3.02 1.99 -1 3 C-0.67 2.01 -0.34 1.02 0 0 Z " fill="#B9C4D4" transform="translate(121,41)"/>
<path d="M0 0 C1.875 2.1875 1.875 2.1875 3 4 C2.67 4.66 2.34 5.32 2 6 C0 6 -2 6 -4 6 C-4 6.99 -4 7.98 -4 9 C-4.66 9 -5.32 9 -6 9 C-6 5.7 -6 2.4 -6 -1 C-7.98 -0.67 -9.96 -0.34 -12 0 C-11 -2 -11 -2 -8.8125 -2.8125 C-5.04372623 -3.06375158 -3.16796511 -1.99719539 0 0 Z " fill="#89535B" transform="translate(106,61)"/>
<path d="M0 0 C-0.33 2.31 -0.66 4.62 -1 7 C-2.41702513 6.85769192 -3.8336096 6.71099254 -5.25 6.5625 C-6.43335938 6.44068359 -6.43335938 6.44068359 -7.640625 6.31640625 C-9.82364639 6.02365007 -11.8773182 5.57935581 -14 5 C-9.74404706 -0.49155218 -6.48540926 -0.63582444 0 0 Z " fill="#E8DDBA" transform="translate(46,79)"/>
<path d="M0 0 C0.598125 0.309375 1.19625 0.61875 1.8125 0.9375 C4.08956772 2.10209704 4.08956772 2.10209704 7 3 C7.72581109 4.68256208 8.44506061 6.36883334 9.10546875 8.078125 C10.5555651 11.19361585 12.70696682 13.45907134 15 16 C14.67 16.66 14.34 17.32 14 18 C6.46391753 15.02061856 6.46391753 15.02061856 4.75 11.25 C4.5025 10.1775 4.255 9.105 4 8 C2.75609279 5.28691104 1.38274739 2.64467218 0 0 Z " fill="#EDB676" transform="translate(54,65)"/>
<path d="M0 0 C0.70125 -0.02578125 1.4025 -0.0515625 2.125 -0.078125 C2.74375 0.03015625 3.3625 0.1384375 4 0.25 C6 3.25 6 3.25 6 6.25 C1.71 6.25 -2.58 6.25 -7 6.25 C-6.67 4.6 -6.34 2.95 -6 1.25 C-3.78704384 0.14352192 -2.45327301 0.05411632 0 0 Z " fill="#B1C8DA" transform="translate(79,18.75)"/>
<path d="M0 0 C0.66 0.33 1.32 0.66 2 1 C2.17835515 5.54805635 1.99785435 8.8794254 0 13 C-1.65 12.67 -3.3 12.34 -5 12 C-5 10.35 -5 8.7 -5 7 C-4.34 7 -3.68 7 -3 7 C-3 5.02 -3 3.04 -3 1 C-2.01 1.33 -1.02 1.66 0 2 C0 1.34 0 0.68 0 0 Z " fill="#8C464A" transform="translate(128,63)"/>
<path d="M0 0 C0 4.62 0 9.24 0 14 C-3 12 -3 12 -4 11 C-4.66 11 -5.32 11 -6 11 C-6 10.34 -6 9.68 -6 9 C-5.01 8.67 -4.02 8.34 -3 8 C-4.98 8 -6.96 8 -9 8 C-6.665786 2.34874505 -6.665786 2.34874505 -3.375 0.625 C-1 0 -1 0 0 0 Z " fill="#EEB87B" transform="translate(75,61)"/>
<path d="M0 0 C0.433125 0.9590625 0.433125 0.9590625 0.875 1.9375 C1.82823451 4.15206079 1.82823451 4.15206079 4 5 C4.40729228 7.32156597 4.74438677 9.6568787 5 12 C5.99 12.33 6.98 12.66 8 13 C8.33 13.99 8.66 14.98 9 16 C7.32700041 15.34938905 5.66140763 14.67966676 4 14 C3.31164062 13.73832031 2.62328125 13.47664063 1.9140625 13.20703125 C0 12 0 12 -0.8984375 9.94140625 C-1.05570312 9.15636719 -1.21296875 8.37132813 -1.375 7.5625 C-1.54773438 6.78003906 -1.72046875 5.99757813 -1.8984375 5.19140625 C-2 3 -2 3 0 0 Z " fill="#E8A765" transform="translate(70,73)"/>
<path d="M0 0 C1.32 0.66 2.64 1.32 4 2 C4 5.96 4 9.92 4 14 C1.36 13.34 -1.28 12.68 -4 12 C-3.67 11.34 -3.34 10.68 -3 10 C-2.34 10 -1.68 10 -1 10 C-0.67 6.7 -0.34 3.4 0 0 Z " fill="#EEB56F" transform="translate(54,47)"/>
<path d="M0 0 C3.41158256 1.13719419 4.11854601 2.04342944 6 5 C6 5.66 6 6.32 6 7 C7.32 6.67 8.64 6.34 10 6 C14.06153846 12.27692308 14.06153846 12.27692308 13.75 15.9375 C13.5025 16.618125 13.255 17.29875 13 18 C10.49962266 15.82575883 9.56371414 14.26954202 9 11 C8.01 11 7.02 11 6 11 C4.02 7.37 2.04 3.74 0 0 Z " fill="#B98875" transform="translate(65,36)"/>
<path d="M0 0 C1.08539063 0.13277344 2.17078125 0.26554687 3.2890625 0.40234375 C4.42472656 0.53640625 5.56039062 0.67046875 6.73046875 0.80859375 C10.27172093 1.39952663 13.52752956 2.15849505 16.9140625 3.33984375 C13.88636935 4.20095891 11.07139613 4.52215268 7.9296875 4.65625 C6.52783203 4.7190918 6.52783203 4.7190918 5.09765625 4.78320312 C4.12957031 4.82251953 3.16148438 4.86183594 2.1640625 4.90234375 C1.18050781 4.94552734 0.19695313 4.98871094 -0.81640625 5.03320312 C-3.23945025 5.13906427 -5.6625929 5.24114546 -8.0859375 5.33984375 C-3.9711946 0.43733409 -3.9711946 0.43733409 0 0 Z " fill="#F5BB76" transform="translate(52.0859375,93.66015625)"/>
<path d="M0 0 C3.09084737 0.34342749 4.32444569 1.25955655 6.8125 3.25 C9 6 9 6 8.8125 8.8125 C8.544375 9.534375 8.27625 10.25625 8 11 C7.47792969 10.79503906 6.95585938 10.59007813 6.41796875 10.37890625 C0.29251368 8.13683951 -5.50382011 7.35212938 -12 7 C-12 6.67 -12 6.34 -12 6 C-7.38 5.67 -2.76 5.34 2 5 C1.34 3.35 0.68 1.7 0 0 Z " fill="#9D8E8A" transform="translate(51,72)"/>
<path d="M0 0 C2.125 -0.4375 2.125 -0.4375 5 0 C9.22617056 3.5648627 11.6874226 7.61843264 13 13 C12.443125 12.71125 11.88625 12.4225 11.3125 12.125 C8.98947835 10.91932647 8.98947835 10.91932647 6.3125 10.1875 C5.1678125 9.5996875 5.1678125 9.5996875 4 9 C3.375 6.625 3.375 6.625 3 4 C1.53228729 1.73545927 1.53228729 1.73545927 0 0 Z " fill="#A7585A" transform="translate(105,38)"/>
<path d="M0 0 C4.62 0 9.24 0 14 0 C14.66 1.65 15.32 3.3 16 5 C15.360625 5.28875 14.72125 5.5775 14.0625 5.875 C11.84793921 6.82823451 11.84793921 6.82823451 11 9 C10.34 9 9.68 9 9 9 C8.34 6.69 7.68 4.38 7 2 C4.69 1.67 2.38 1.34 0 1 C0 0.67 0 0.34 0 0 Z " fill="#AC5C58" transform="translate(59,100)"/>
<path d="M0 0 C4.66666667 0.66666667 9.33333333 1.33333333 14 2 C14.33 1.34 14.66 0.68 15 0 C15 1.32 15 2.64 15 4 C10.05 5.485 10.05 5.485 5 7 C4.01 6.01 3.02 5.02 2 4 C1.01 4.495 1.01 4.495 0 5 C0 3.35 0 1.7 0 0 Z " fill="#7E9CBA" transform="translate(71,23)"/>
<path d="M0 0 C3.82669043 3.42388092 5.72278474 6.00724943 7 11 C7.99 11 8.98 11 10 11 C11.75747614 15.50353262 12.19294408 19.17639811 12 24 C11.34 24 10.68 24 10 24 C9.78085938 23.24976562 9.56171875 22.49953125 9.3359375 21.7265625 C7.31730454 15.21113743 4.90685717 9.67435082 1.171875 3.9609375 C0 2 0 2 0 0 Z " fill="#984E5F" transform="translate(64,36)"/>
<path d="M0 0 C3.49741728 1.29762832 6.51716882 2.81379238 9.625 4.875 C10.38039063 5.36742187 11.13578125 5.85984375 11.9140625 6.3671875 C14.10981378 8.0859591 15.59242516 9.5910632 17 12 C16.67 12.99 16.34 13.98 16 15 C11.99513132 11.59160112 8.01406295 8.15762253 4.0625 4.6875 C3.29035156 4.01074219 2.51820312 3.33398438 1.72265625 2.63671875 C1.15417969 2.09660156 0.58570313 1.55648438 0 1 C0 0.67 0 0.34 0 0 Z " fill="#888B9F" transform="translate(48,22)"/>
<path d="M0 0 C0.86625 0.556875 0.86625 0.556875 1.75 1.125 C1.75 1.785 1.75 2.445 1.75 3.125 C3.4 3.455 5.05 3.785 6.75 4.125 C3.2013865 6.49074234 2.1735475 6.23365265 -1.9375 5.75 C-3.42830078 5.58371094 -3.42830078 5.58371094 -4.94921875 5.4140625 C-5.70847656 5.31867187 -6.46773438 5.22328125 -7.25 5.125 C-6.4765625 1.296875 -6.4765625 1.296875 -4.4375 -0.25 C-2.25 -0.875 -2.25 -0.875 0 0 Z " fill="#7B9CBC" transform="translate(106.25,20.875)"/>
<path d="M0 0 C0.66 0.33 1.32 0.66 2 1 C2 2.98 2 4.96 2 7 C-0.64 6.01 -3.28 5.02 -6 4 C-6 4.66 -6 5.32 -6 6 C-5.34 6.33 -4.68 6.66 -4 7 C-5.32 7 -6.64 7 -8 7 C-10 5 -10 5 -11 1 C-8.03 1.33 -5.06 1.66 -2 2 C-2 2.66 -2 3.32 -2 4 C-1.34 3.67 -0.68 3.34 0 3 C0 2.01 0 1.02 0 0 Z " fill="#EA9864" transform="translate(53,101)"/>
<path d="M0 0 C4.92898579 0.44808962 8.33757621 2.8396827 12 6 C12.33 6.66 12.66 7.32 13 8 C13.99 8.33 14.98 8.66 16 9 C13.4362736 10.2818632 11.84782869 10.27122178 9 10 C6.6875 8.625 6.6875 8.625 5 7 C5 6.34 5 5.68 5 5 C4.34 5 3.68 5 3 5 C3 4.34 3 3.68 3 3 C2.01 2.67 1.02 2.34 0 2 C0 1.34 0 0.68 0 0 Z " fill="#CB9374" transform="translate(59,81)"/>
<path d="M0 0 C1.5 1.0625 1.5 1.0625 3 3 C3.1875 6.6875 3.1875 6.6875 3 10 C1.35 10 -0.3 10 -2 10 C-3.42944945 7.64561267 -4.08661261 6.51967567 -3.625 3.75 C-3.41875 3.1725 -3.2125 2.595 -3 2 C-2.01 2 -1.02 2 0 2 C0 1.34 0 0.68 0 0 Z " fill="#202122" transform="translate(105,65)"/>
<path d="M0 0 C1.98 0.495 1.98 0.495 4 1 C4 1.99 4 2.98 4 4 C4.99 4.33 5.98 4.66 7 5 C7 5.99 7 6.98 7 8 C4.36 8.66 1.72 9.32 -1 10 C-0.67 6.7 -0.34 3.4 0 0 Z " fill="#C3A0A3" transform="translate(91,48)"/>
<path d="M0 0 C1.67542976 0.28604898 3.34385343 0.61781233 5 1 C5.33 3.31 5.66 5.62 6 8 C3.23723823 7.47731534 0.6739124 6.89130413 -2 6 C-1.125 1.125 -1.125 1.125 0 0 Z " fill="#EFDDB2" transform="translate(14,97)"/>
<path d="M0 0 C0 1.32 0 2.64 0 4 C-2.6875 4.8125 -2.6875 4.8125 -6 5 C-8.875 2.5625 -8.875 2.5625 -11 0 C-7.01803543 -1.05404945 -4.01804691 -0.84098656 0 0 Z " fill="#AE4F51" transform="translate(117,88)"/>
<path d="M0 0 C2.375 0.6875 2.375 0.6875 5 2 C6.3125 4.625 6.3125 4.625 7 7 C3.71303767 7.79953138 2.28976808 8.09658936 -1 7 C-1.33 6.01 -1.66 5.02 -2 4 C-2.99 3.34 -3.98 2.68 -5 2 C-2.03 2.495 -2.03 2.495 1 3 C0.67 2.01 0.34 1.02 0 0 Z " fill="#CBC6C8" transform="translate(96,45)"/>
<path d="M0 0 C3.63 0 7.26 0 11 0 C11.33 1.65 11.66 3.3 12 5 C11.34 5.66 10.68 6.32 10 7 C10 6.01 10 5.02 10 4 C9.0925 4.226875 8.185 4.45375 7.25 4.6875 C4 5 4 5 1.625 3.6875 C0 2 0 2 0 0 Z " fill="#7E7D95" transform="translate(101,26)"/>
<path d="M0 0 C3.94120709 0.56302958 6.7508723 1.6791945 10 4 C10 4.66 10 5.32 10 6 C10.61875 6.103125 11.2375 6.20625 11.875 6.3125 C14 7 14 7 16 10 C10.60230597 9.7301153 7.7570271 7.59057464 3.734375 4.27734375 C2.09060046 2.80232885 2.09060046 2.80232885 0 3 C0 2.01 0 1.02 0 0 Z " fill="#B46B5D" transform="translate(60,79)"/>
<path d="M0 0 C1.8125 0.05078125 1.8125 0.05078125 4 0.3125 C4.721875 0.39113281 5.44375 0.46976562 6.1875 0.55078125 C7.0846875 0.77314453 7.0846875 0.77314453 8 1 C9.35445256 3.70890512 9 5.99005875 9 9 C9.43941523 11.26566343 9.43941523 11.26566343 10 13 C8.5 11.9375 8.5 11.9375 7 10 C6.8125 6.3125 6.8125 6.3125 7 3 C4.0280615 4.12451727 1.66559313 5.22293791 -1 7 C-1.04254356 5.00045254 -1.04080783 2.99958364 -1 1 C-0.67 0.67 -0.34 0.34 0 0 Z " fill="#D59F86" transform="translate(46,79)"/>
<path d="M0 0 C8.91 0.66 17.82 1.32 27 2 C27 2.33 27 2.66 27 3 C18.56385424 4.89321045 9.25580737 4.75193579 1 2 C0.67 1.34 0.34 0.68 0 0 Z " fill="#E6925F" transform="translate(81,82)"/>
<path d="M0 0 C2.92393881 0.62655832 5.44829129 1.4161808 8 3 C8.33 3.99 8.66 4.98 9 6 C8.01 7.485 8.01 7.485 7 9 C1.21538462 5.67692308 1.21538462 5.67692308 0.125 2.25 C0.08375 1.5075 0.0425 0.765 0 0 Z " fill="#F0D9AF" transform="translate(42,49)"/>
<path d="M0 0 C0.5775 0.45375 1.155 0.9075 1.75 1.375 C3.7800333 2.84113516 5.73539843 3.94857784 8 5 C8.33 3.68 8.66 2.36 9 1 C9 3.31 9 5.62 9 8 C5.39703406 8.41176754 4.21597933 8.1535853 1.1875 6 C0.465625 5.34 -0.25625 4.68 -1 4 C-0.67 2.68 -0.34 1.36 0 0 Z " fill="#C3C4CA" transform="translate(87,68)"/>
<path d="M0 0 C1.6074328 0.93188881 3.21082799 1.87074435 4.8125 2.8125 C5.70582031 3.33457031 6.59914063 3.85664063 7.51953125 4.39453125 C9.68381806 5.79535311 11.36553823 7.01801147 13 9 C13 9.66 13 10.32 13 11 C8.9869045 9.62408154 6.2333422 7.72281449 3 5 C2.01 4.34 1.02 3.68 0 3 C0 2.01 0 1.02 0 0 Z " fill="#B0B7C7" transform="translate(49,17)"/>
<path d="M0 0 C-1.12696165 3.38088495 -1.70092277 3.64100231 -4.5 5.5625 C-6.94146025 7.5346407 -7.88030642 8.54242855 -8.68359375 11.61328125 C-8.91145285 14.09168715 -9.03441698 16.5121443 -9 19 C-9.33 19 -9.66 19 -10 19 C-11.59754852 10.05720123 -11.59754852 10.05720123 -9.375 6.125 C-2.52941176 0 -2.52941176 0 0 0 Z " fill="#C5C0C5" transform="translate(73,53)"/>
<path d="M0 0 C0.66 0 1.32 0 2 0 C2.36279456 1.28926992 2.71496698 2.58153272 3.0625 3.875 C3.25972656 4.59429687 3.45695313 5.31359375 3.66015625 6.0546875 C4 8 4 8 3 10 C2.34 10 1.68 10 1 10 C0.67 11.65 0.34 13.3 0 15 C-0.33 15 -0.66 15 -1 15 C-1.18451025 4.44191344 -1.18451025 4.44191344 0 0 Z " fill="#926F7A" transform="translate(125,55)"/>
<path d="M0 0 C7.0772164 8.29742612 7.0772164 8.29742612 6.9375 13.1875 C5.72575279 15.53021128 4.19305584 16.58512526 2 18 C2.391875 17.34 2.78375 16.68 3.1875 16 C4.22253852 12.17831933 3.3184872 10.47416479 1.8046875 6.9375 C0.86078494 4.66480257 0.37919226 2.42683043 0 0 Z " fill="#E0A286" transform="translate(65,39)"/>
<path d="M0 0 C4.55384615 -0.36923077 4.55384615 -0.36923077 6.8125 1.5 C7.204375 1.995 7.59625 2.49 8 3 C7.67 3.66 7.34 4.32 7 5 C1.46153846 5.36923077 1.46153846 5.36923077 -0.875 3.5 C-1.24625 3.005 -1.6175 2.51 -2 2 C-1.34 2 -0.68 2 0 2 C0 1.34 0 0.68 0 0 Z " fill="#667D9D" transform="translate(38,18)"/>
<path d="M0 0 C3.375 -0.125 3.375 -0.125 7 0 C7.66 0.66 8.32 1.32 9 2 C8.195625 2.12375 7.39125 2.2475 6.5625 2.375 C5.2940625 2.684375 5.2940625 2.684375 4 3 C3.67 3.66 3.34 4.32 3 5 C-0.0625 5.625 -0.0625 5.625 -3 6 C-2.01 4.02 -1.02 2.04 0 0 Z " fill="#714144" transform="translate(91,57)"/>
<path d="M0 0 C0.66 0 1.32 0 2 0 C2.33 1.65 2.66 3.3 3 5 C4.32 4.67 5.64 4.34 7 4 C7 5.32 7 6.64 7 8 C6.34 8 5.68 8 5 8 C5.33 9.65 5.66 11.3 6 13 C5.34 13 4.68 13 4 13 C2.42445965 10.11371599 1.53723627 7.46657616 0.875 4.25 C0.70742187 3.45078125 0.53984375 2.6515625 0.3671875 1.828125 C0.24601562 1.22484375 0.12484375 0.6215625 0 0 Z " fill="#C3928E" transform="translate(120,47)"/>
<path d="M0 0 C0.66 0 1.32 0 2 0 C2.268125 1.0725 2.53625 2.145 2.8125 3.25 C3.86227827 6.56508928 4.74612328 8.43877646 7 11 C3.06326356 9.68775452 0.77280706 8.08089673 -2 5 C-1.34 3.35 -0.68 1.7 0 0 Z " fill="#D6ACA5" transform="translate(108,30)"/>
<path d="M0 0 C-0.3125 1.875 -0.3125 1.875 -1 4 C-1.99 4.66 -2.98 5.32 -4 6 C-4 5.34 -4 4.68 -4 4 C-6.97 3.505 -6.97 3.505 -10 3 C-7.29536552 -0.8183075 -4.37912428 -0.24787496 0 0 Z " fill="#E8AD6D" transform="translate(104,102)"/>
<path d="M0 0 C2.46800047 1.15173355 4.04783565 2.04783565 6 4 C5.625 6.625 5.625 6.625 5 9 C3.68 8.67 2.36 8.34 1 8 C0.67 5.36 0.34 2.72 0 0 Z " fill="#EBAD6B" transform="translate(64,88)"/>
<path d="M0 0 C-8.07744875 7.85193622 -8.07744875 7.85193622 -14 8 C-14 7.34 -14 6.68 -14 6 C-12.5459375 5.62875 -12.5459375 5.62875 -11.0625 5.25 C-9.5465625 4.63125 -9.5465625 4.63125 -8 4 C-7.03122943 1.96756452 -7.03122943 1.96756452 -7 0 C-2.25 -1.125 -2.25 -1.125 0 0 Z " fill="#B46E5F" transform="translate(125,87)"/>
<path d="M0 0 C0.33 0 0.66 0 1 0 C1 2.97 1 5.94 1 9 C-3.8333472 9.08333357 -8.23692563 8.95261487 -13 8 C-11.4375 6.875 -11.4375 6.875 -9 6 C-5.25 6.875 -5.25 6.875 -2 8 C-1.855625 7.236875 -1.71125 6.47375 -1.5625 5.6875 C-1 3 -1 3 0 0 Z " fill="#C6856B" transform="translate(130,68)"/>
<path d="M0 0 C4.67692308 1.47692308 4.67692308 1.47692308 6.3125 4.125 C6.539375 4.74375 6.76625 5.3625 7 6 C5.68 6.33 4.36 6.66 3 7 C3 6.34 3 5.68 3 5 C2.01 5.33 1.02 5.66 0 6 C-1.125 2.25 -1.125 2.25 0 0 Z " fill="#947C81" transform="translate(101,32)"/>
<path d="M0 0 C3.55420724 0.29618394 4.80337043 0.80337043 7.375 3.375 C8.179375 4.674375 8.179375 4.674375 9 6 C8.67 6.99 8.34 7.98 8 9 C7.01 8.67 6.02 8.34 5 8 C3.8125 4.9375 3.8125 4.9375 3 2 C2.01 2 1.02 2 0 2 C0 1.34 0 0.68 0 0 Z " fill="#9CABBE" transform="translate(104,11)"/>
<path d="M0 0 C2 2 2 2 2.125 5.625 C2.08375 6.73875 2.0425 7.8525 2 9 C0.68 9.33 -0.64 9.66 -2 10 C-2 7.69 -2 5.38 -2 3 C-1.34 3 -0.68 3 0 3 C0 2.01 0 1.02 0 0 Z " fill="#C4B5BE" transform="translate(125,42)"/>
<path d="M0 0 C0.33 0.66 0.66 1.32 1 2 C2.66500443 2.34153937 4.33178677 2.67449498 6 3 C6.66 3.66 7.32 4.32 8 5 C7 6 7 6 4.125 6.25 C1 6 1 6 -0.875 4.625 C-2 3 -2 3 -2 1 C-1.34 0.67 -0.68 0.34 0 0 Z " fill="#C59074" transform="translate(84,37)"/>
<path d="M0 0 C0.8971875 0.9590625 0.8971875 0.9590625 1.8125 1.9375 C4.26700181 4.25174456 5.70523261 4.63391473 9 5 C9 5.66 9 6.32 9 7 C1.48410175 6.38394277 1.48410175 6.38394277 -0.8125 4.5625 C-1.204375 4.046875 -1.59625 3.53125 -2 3 C-2.99 2.34 -3.98 1.68 -5 1 C-2 0 -2 0 0 0 Z " fill="#BE866E" transform="translate(42,104)"/>
<path d="M0 0 C1.32 0.33 2.64 0.66 4 1 C3.8125 3.8125 3.8125 3.8125 3 7 C0.5625 8.9375 0.5625 8.9375 -2 10 C-2.66 9.67 -3.32 9.34 -4 9 C-2.625 7.5 -2.625 7.5 -1 6 C-0.34 6 0.32 6 1 6 C0.67 4.02 0.34 2.04 0 0 Z " fill="#EDB775" transform="translate(41,85)"/>
<path d="M0 0 C2 3 2 3 3 6 C4.62332967 7.38576923 6.28724465 8.72641268 8 10 C7.34 10.66 6.68 11.32 6 12 C2.83884224 10.63016497 2.0072908 10.0109362 0 7 C-0.07905064 4.66800612 -0.08798769 2.33167378 0 0 Z " fill="#D3A596" transform="translate(41,48)"/>
<path d="M0 0 C0.66 0 1.32 0 2 0 C2 0.66 2 1.32 2 2 C4.64 1.34 7.28 0.68 10 0 C9.67 0.99 9.34 1.98 9 3 C8.34 3 7.68 3 7 3 C6.67 3.66 6.34 4.32 6 5 C3.36 4.34 0.72 3.68 -2 3 C-1.34 2.01 -0.68 1.02 0 0 Z " fill="#AE6545" transform="translate(100,94)"/>
<path d="M0 0 C1.32 0.66 2.64 1.32 4 2 C3.34 3.98 2.68 5.96 2 8 C1.01 7.67 0.02 7.34 -1 7 C-1.04254356 5.00045254 -1.04080783 2.99958364 -1 1 C-0.67 0.67 -0.34 0.34 0 0 Z " fill="#C4CAD2" transform="translate(55,81)"/>
<path d="M0 0 C0.99 0 1.98 0 3 0 C2.67 0.66 2.34 1.32 2 2 C1.01 2 0.02 2 -1 2 C-1 2.66 -1 3.32 -1 4 C-2.65 4 -4.3 4 -6 4 C-6 2.68 -6 1.36 -6 0 C-3 -1 -3 -1 0 0 Z " fill="#E59661" transform="translate(126,81)"/>
<path d="M0 0 C0.66 0.33 1.32 0.66 2 1 C1.34 1.66 0.68 2.32 0 3 C1.98 3 3.96 3 6 3 C5 4.5 5 4.5 3 6 C0.28153765 6.27345479 -2.25677199 6.13491285 -5 6 C-2.25 1.125 -2.25 1.125 0 0 Z " fill="#E3C89D" transform="translate(37,79)"/>
<path d="M0 0 C2.0625 1.75 2.0625 1.75 4 4 C4 6.125 4 6.125 3 8 C1.02 8.99 1.02 8.99 -1 10 C-0.67 6.7 -0.34 3.4 0 0 Z " fill="#1E1E1E" transform="translate(125,64)"/>
<path d="M0 0 C1.65 0 3.3 0 5 0 C6.4606285 2.64738916 7 3.89448334 7 7 C6.01 7 5.02 7 4 7 C2.02 3.535 2.02 3.535 0 0 Z " fill="#CAA0A1" transform="translate(67,36)"/>
<path d="M0 0 C0.66 0.33 1.32 0.66 2 1 C1.625 3.4375 1.625 3.4375 1 6 C0.01 6.495 0.01 6.495 -1 7 C-2.13350534 9.01669827 -2.13350534 9.01669827 -3 11 C-3.36923077 3.49230769 -3.36923077 3.49230769 -1.5 1 C-1.005 0.67 -0.51 0.34 0 0 Z " fill="#6A515E" transform="translate(99,62)"/>
<path d="M0 0 C1.98 0.99 1.98 0.99 4 2 C4 4.97 4 7.94 4 11 C3.34 11 2.68 11 2 11 C1.34 7.37 0.68 3.74 0 0 Z " fill="#F3C27D" transform="translate(54,47)"/>
<path d="M0 0 C1.98 1.65 3.96 3.3 6 5 C5.67 5.66 5.34 6.32 5 7 C3.02 7 1.04 7 -1 7 C-0.67 4.69 -0.34 2.38 0 0 Z " fill="#F8E4A6" transform="translate(81,38)"/>
<path d="M0 0 C0.226875 0.61875 0.45375 1.2375 0.6875 1.875 C2.37929835 4.61410209 3.99244161 5.05024472 7 6 C6.01 6.495 6.01 6.495 5 7 C4.34786708 9.02463255 4.34786708 9.02463255 4 11 C2 10 2 10 0 8 C-0.36933645 5.24627091 -0.18336678 2.79634339 0 0 Z " fill="#8A8394" transform="translate(116,34)"/>
<path d="M0 0 C-1.0975223 2.99324263 -1.67682892 3.84610901 -4.625 5.25 C-5.40875 5.4975 -6.1925 5.745 -7 6 C-7.99 5.01 -8.98 4.02 -10 3 C-3.375 0 -3.375 0 0 0 Z " fill="#6F728B" transform="translate(85,27)"/>
<path d="M0 0 C0.495 0.391875 0.99 0.78375 1.5 1.1875 C-5.125 4.0625 -5.125 4.0625 -8.5 5.1875 C-9.16 4.1975 -9.82 3.2075 -10.5 2.1875 C-3.28774617 -1.06851751 -3.28774617 -1.06851751 0 0 Z " fill="#F6BD74" transform="translate(124.5,76.8125)"/>
<path d="M0 0 C0.66 0.33 1.32 0.66 2 1 C1.9129995 2.62600941 1.8048219 4.25089678 1.6875 5.875 C1.62949219 6.77992187 1.57148437 7.68484375 1.51171875 8.6171875 C1 11 1 11 -2 13 C-1.34 8.71 -0.68 4.42 0 0 Z " fill="#893B4B" transform="translate(83,55)"/>
<path d="M0 0 C0.66 0.33 1.32 0.66 2 1 C2 1.66 2 2.32 2 3 C3.65 3 5.3 3 7 3 C7 2.34 7 1.68 7 1 C7.99 1.33 8.98 1.66 10 2 C5.89542386 4.98514628 3.02254631 5.2954439 -2 5 C-1.34 4.67 -0.68 4.34 0 4 C0 2.68 0 1.36 0 0 Z " fill="#D0865B" transform="translate(118,82)"/>
<path d="M0 0 C0.33 0.99 0.66 1.98 1 3 C0.34 3 -0.32 3 -1 3 C-1 4.32 -1 5.64 -1 7 C-2.98 6.34 -4.96 5.68 -7 5 C-7 4.34 -7 3.68 -7 3 C-5.5459375 2.5359375 -5.5459375 2.5359375 -4.0625 2.0625 C-1.15934208 1.30476658 -1.15934208 1.30476658 0 0 Z " fill="#D9A389" transform="translate(103,40)"/>
<path d="M0 0 C1.32 0.33 2.64 0.66 4 1 C3.67 2.65 3.34 4.3 3 6 C0.525 5.01 0.525 5.01 -2 4 C-1.34 2.68 -0.68 1.36 0 0 Z " fill="#A78D80" transform="translate(56,77)"/>
<path d="M0 0 C0.99 0.66 1.98 1.32 3 2 C2.67 4.31 2.34 6.62 2 9 C-1 7 -1 7 -1.6875 4.375 C-1.790625 3.59125 -1.89375 2.8075 -2 2 C-1.34 2 -0.68 2 0 2 C0 1.34 0 0.68 0 0 Z " fill="#8F8796" transform="translate(81,49)"/>
<path d="M0 0 C2.29633824 3.44450737 2.54016485 5.93812283 3 10 C1.68 10.33 0.36 10.66 -1 11 C-1.125 3.375 -1.125 3.375 0 0 Z " fill="#AFA3A8" transform="translate(113,19)"/>
<path d="M0 0 C0.66 0.33 1.32 0.66 2 1 C2 2.98 2 4.96 2 7 C-0.31 6.01 -2.62 5.02 -5 4 C-4.67 3.34 -4.34 2.68 -4 2 C-3.34 2 -2.68 2 -2 2 C-2 2.66 -2 3.32 -2 4 C-1.34 3.67 -0.68 3.34 0 3 C0 2.01 0 1.02 0 0 Z " fill="#E1915D" transform="translate(53,101)"/>
<path d="M0 0 C0.99 0.495 0.99 0.495 2 1 C2 2.65 2 4.3 2 6 C2.66 6.33 3.32 6.66 4 7 C3.01 8.485 3.01 8.485 2 10 C1.34 10 0.68 10 0 10 C0 6.7 0 3.4 0 0 Z " fill="#D68A5E" transform="translate(58,52)"/>
<path d="M0 0 C3.26954202 0.56371414 4.82575883 1.49962266 7 4 C6.34 5.32 5.68 6.64 5 8 C4.34 7.67 3.68 7.34 3 7 C2.375 4.9375 2.375 4.9375 2 3 C1.34 3 0.68 3 0 3 C0 2.01 0 1.02 0 0 Z " fill="#779ABB" transform="translate(80,47)"/>
<path d="M0 0 C2.64 0.66 5.28 1.32 8 2 C7.01 2.495 7.01 2.495 6 3 C5.67 3.99 5.34 4.98 5 6 C3.2925002 4.71937515 1.62626404 3.38232443 0 2 C0 1.34 0 0.68 0 0 Z " fill="#D49062" transform="translate(48,58)"/>
<path d="M0 0 C4.455 2.97 4.455 2.97 9 6 C8.67 6.99 8.34 7.98 8 9 C6.84775972 8.07038578 5.70340824 7.1309875 4.5625 6.1875 C3.60537109 5.40439453 3.60537109 5.40439453 2.62890625 4.60546875 C1 3 1 3 0 0 Z " fill="#827582" transform="translate(56,28)"/>
<path d="M0 0 C0.66 0.66 1.32 1.32 2 2 C4.06874034 2.6425235 4.06874034 2.6425235 6 3 C6.33 2.34 6.66 1.68 7 1 C7.99 1.66 8.98 2.32 10 3 C6.21812119 4.83691257 4.05431692 5.15837626 0 4 C0 2.68 0 1.36 0 0 Z " fill="#D09788" transform="translate(14,102)"/>
<path d="M0 0 C2.76223278 2.76223278 2.57856291 5.20706617 3 9 C2.01 9.66 1.02 10.32 0 11 C-0.66 10.34 -1.32 9.68 -2 9 C-1.01 8.67 -0.02 8.34 1 8 C0.67 7.34 0.34 6.68 0 6 C-0.039992 4.00039988 -0.04346799 1.99952758 0 0 Z " fill="#B25A58" transform="translate(109,68)"/>
<path d="M0 0 C1.32 0 2.64 0 4 0 C4 1.32 4 2.64 4 4 C3.34 4 2.68 4 2 4 C2 4.99 2 5.98 2 7 C1.34 7 0.68 7 0 7 C0 4.69 0 2.38 0 0 Z " fill="#C9BCAE" transform="translate(100,63)"/>
<path d="M0 0 C2.64 0 5.28 0 8 0 C8.66 1.65 9.32 3.3 10 5 C8.35 4.67 6.7 4.34 5 4 C5 3.34 5 2.68 5 2 C3.35 1.67 1.7 1.34 0 1 C0 0.67 0 0.34 0 0 Z " fill="#C5CCD4" transform="translate(87,43)"/>
<path d="M0 0 C0.66 0.66 1.32 1.32 2 2 C-0.64 3.98 -3.28 5.96 -6 8 C-4.85240511 3.40962044 -3.70960782 2.66330818 0 0 Z " fill="#D0C1B0" transform="translate(99,32)"/>
<path d="M0 0 C2.97 0.495 2.97 0.495 6 1 C6.33 3.31 6.66 5.62 7 8 C6.34 8 5.68 8 5 8 C3.98133771 6.34467377 2.98189187 4.67739862 2 3 C1.34 2.67 0.68 2.34 0 2 C0 1.34 0 0.68 0 0 Z " fill="#8D7E8B" transform="translate(68,32)"/>
<path d="M0 0 C2.21736634 1.10868317 4.03617993 2.49440461 6 4 C5.01 4 4.02 4 3 4 C3 4.66 3 5.32 3 6 C1.68 5.67 0.36 5.34 -1 5 C-0.67 3.35 -0.34 1.7 0 0 Z " fill="#7794B3" transform="translate(35,14)"/>
<path d="M0 0 C0.99 0.66 1.98 1.32 3 2 C2.67 2.99 2.34 3.98 2 5 C-0.31 4.67 -2.62 4.34 -5 4 C-4.67 3.01 -4.34 2.02 -4 1 C-4 1.66 -4 2.32 -4 3 C-3.01 2.67 -2.02 2.34 -1 2 C-0.67 1.34 -0.34 0.68 0 0 Z " fill="#C8B1B7" transform="translate(100,48)"/>
<path d="M0 0 C0 1.65 0 3.3 0 5 C-0.99 5 -1.98 5 -3 5 C-3.66 3.68 -4.32 2.36 -5 1 C-3 0 -3 0 0 0 Z " fill="#B4C2CE" transform="translate(60,44)"/>
<path d="M0 0 C0.33 0.99 0.66 1.98 1 3 C-1.475 4.485 -1.475 4.485 -4 6 C-4.33 4.35 -4.66 2.7 -5 1 C-2 0 -2 0 0 0 Z " fill="#C8C6BC" transform="translate(104,37)"/>
<path d="M0 0 C2.97 0.99 5.94 1.98 9 3 C8.34 3.66 7.68 4.32 7 5 C4.5 4.875 4.5 4.875 2 4 C1.34 2.68 0.68 1.36 0 0 Z " fill="#4E4B60" transform="translate(101,26)"/>
<path d="M0 0 C1 2 1 2 0.4375 3.8125 C-0.14549374 6.72746869 0.75461367 8.3627113 2 11 C1.01 10.67 0.02 10.34 -1 10 C-1.9765625 3.9453125 -1.9765625 3.9453125 -2 2 C-1.34 1.34 -0.68 0.68 0 0 Z " fill="#E5925F" transform="translate(79,71)"/>
<path d="M0 0 C1.35015859 4.05047576 0.62084998 6.7920168 0 11 C-0.99 10.34 -1.98 9.68 -3 9 C-2.01 6.03 -1.02 3.06 0 0 Z " fill="#BCBECC" transform="translate(90,49)"/>
<path d="M0 0 C1.65 1.65 3.3 3.3 5 5 C3.68 5.33 2.36 5.66 1 6 C0.34 4.35 -0.32 2.7 -1 1 C-0.67 0.67 -0.34 0.34 0 0 Z " fill="#F7C075" transform="translate(60,37)"/>
<path d="M0 0 C0 1.65 0 3.3 0 5 C-1.65 5 -3.3 5 -5 5 C-4.625 3.0625 -4.625 3.0625 -4 1 C-2 0 -2 0 0 0 Z " fill="#7593B4" transform="translate(104,21)"/>
<path d="M0 0 C1 3 1 3 1 6 C-0.32 6 -1.64 6 -3 6 C-2.625 3.5625 -2.625 3.5625 -2 1 C-1.34 0.67 -0.68 0.34 0 0 Z " fill="#7B95B4" transform="translate(103,11)"/>
<path d="M0 0 C1.65 0 3.3 0 5 0 C4.34 2.31 3.68 4.62 3 7 C2.34 7 1.68 7 1 7 C0.67 4.69 0.34 2.38 0 0 Z " fill="#BE816B" transform="translate(54,101)"/>
<path d="M0 0 C1.98 0 3.96 0 6 0 C5.67 0.99 5.34 1.98 5 3 C3.35 3.33 1.7 3.66 0 4 C0 2.68 0 1.36 0 0 Z " fill="#9D313F" transform="translate(112,89)"/>
<path d="M0 0 C0.99 0.33 1.98 0.66 3 1 C1.515 4.96 1.515 4.96 0 9 C-0.66 8.67 -1.32 8.34 -2 8 C-1.34 5.36 -0.68 2.72 0 0 Z " fill="#D09C8A" transform="translate(60,44)"/>
<path d="M0 0 C0.99 0.33 1.98 0.66 3 1 C4 4 4 4 3.0625 6.1875 C2.5365625 7.0846875 2.5365625 7.0846875 2 8 C0 6 0 6 -0.125 2.875 C-0.08375 1.92625 -0.0425 0.9775 0 0 Z " fill="#AA7D74" transform="translate(110,30)"/>
<path d="M0 0 C0.33 0.99 0.66 1.98 1 3 C1.66 3.33 2.32 3.66 3 4 C3 4.66 3 5.32 3 6 C2.01 6.33 1.02 6.66 0 7 C-0.66 5.35 -1.32 3.7 -2 2 C-1.34 1.34 -0.68 0.68 0 0 Z " fill="#8187A2" transform="translate(73,26)"/>
<path d="M0 0 C0.66 0.33 1.32 0.66 2 1 C2 4 2 4 1 6 C-0.32 5.34 -1.64 4.68 -3 4 C-3 3.01 -3 2.02 -3 1 C-2.01 0.67 -1.02 0.34 0 0 Z " fill="#E0AF73" transform="translate(78,113)"/>
<path d="M0 0 C2.46800047 1.15173355 4.04783565 2.04783565 6 4 C5.67 4.99 5.34 5.98 5 7 C3.29115995 5.37660195 1.62553283 3.70680947 0 2 C0 1.34 0 0.68 0 0 Z " fill="#BF8567" transform="translate(69,109)"/>
<path d="M0 0 C2.375 0.25 2.375 0.25 5 1 C6.3125 3.0625 6.3125 3.0625 7 5 C4.625 4.75 4.625 4.75 2 4 C0.6875 1.9375 0.6875 1.9375 0 0 Z " fill="#D0A5A5" transform="translate(89,39)"/>
</svg>
