<?xml version="1.0" encoding="UTF-8"?>
<svg version="1.1" xmlns="http://www.w3.org/2000/svg" width="150" height="150">
<path d="M0 0 C2.0625 1.5625 2.0625 1.5625 3 4 C2.748267 7.58719525 2.1355927 10.59322191 1 14 C3.56170208 16.66843967 6.23176754 19.22840056 8.9375 21.75 C9.58589844 22.36359375 10.23429687 22.9771875 10.90234375 23.609375 C13.484939 25.32148656 14.9577731 25.38406851 18 25 C19.68798827 23.56249809 19.68798827 23.56249809 21 22 C21.66 22 22.32 22 23 22 C21.96470127 18.9803787 21.02446729 17.02734579 18.875 14.625 C16.41197965 11.17677151 16.47124052 9.15453876 17 5 C18 2.5625 18 2.5625 20 1 C22.77608736 0.43899901 25.2234235 0.44119215 28 1 C33.73577558 5.74684875 34.78734861 16.03795439 36 23 C37.65 23 39.3 23 41 23 C43.88874323 27.54751376 43.05619063 32.20228714 42.875 37.39453125 C43.00853345 41.2461366 43.92954448 44.31060558 45 48 C45.3359375 51.7890625 45.3359375 51.7890625 45.375 55.625 C45.40335937 56.89601562 45.43171875 58.16703125 45.4609375 59.4765625 C44.70039141 65.2902284 41.14586725 68.15650114 36.6875 71.625 C31.99712886 75.17948225 27.57211963 77.14262679 22 79 C20.96861526 80.79126172 20.96861526 80.79126172 20.1875 83 C17.01388076 90.56600481 13.38765912 97.05991514 6 101 C1.41853591 102.5271547 -2.72529186 102.97545313 -7.1953125 101.05859375 C-12.89294292 97.70519135 -15.20959214 94.53762524 -17.1875 88.1875 C-17.455625 87.135625 -17.72375 86.08375 -18 85 C-21.71599191 84.79913557 -22.77208445 84.8480563 -26 87 C-26.309375 88.155 -26.61875 89.31 -26.9375 90.5 C-28 94 -28 94 -29.78125 95.234375 C-32.31031159 96.10707935 -33.92064402 96.08973106 -36.5625 95.75 C-37.32691406 95.66234375 -38.09132812 95.5746875 -38.87890625 95.484375 C-41 95 -41 95 -44 93 C-47.5537062 93.24793299 -50.5431684 94.17793961 -53.8125 95.5 C-59.54730917 97.7149741 -64.66230887 98.91837866 -70.5 96.625 C-73 95 -73 95 -74 94 C-74.29573841 91.19048514 -74.38243085 89.58371024 -72.8125 87.1875 C-70.30260677 85.54308719 -68.93767401 85.4124652 -66 86 C-64.1875 88.5 -64.1875 88.5 -63 91 C-61.07690578 90.96044102 -61.07690578 90.96044102 -59 90 C-56.41886849 85.70238401 -55.52521908 82.01378403 -55 77.0625 C-54.34391356 71.80824842 -53.45056569 67.67835268 -51 63 C-51.83144531 62.41605469 -51.83144531 62.41605469 -52.6796875 61.8203125 C-57.01453586 58.47276057 -59.40583134 56.21577176 -60.3125 50.6875 C-60.39113281 49.84574219 -60.46976563 49.00398438 -60.55078125 48.13671875 C-60.82084715 45.6137887 -60.82084715 45.6137887 -64 44 C-67.61659714 44.14344676 -71.15615329 44.58088054 -74.75 45.00390625 C-78 45 -78 45 -79.9375 43.52734375 C-80.288125 43.02332031 -80.63875 42.51929688 -81 42 C-78.05345326 38.85024314 -76.18280674 37.17110335 -71.74194336 36.82299805 C-59.32862133 36.53617637 -47.81428744 36.82146613 -35.77734375 40.02734375 C-32.15122992 40.96105869 -28.70699504 41.54204873 -25 42 C-24.34 41.01 -23.68 40.02 -23 39 C-20.375 37.8125 -20.375 37.8125 -18 37 C-18 34.36 -18 31.72 -18 29 C-16.20963542 28.0234375 -14.41927083 27.046875 -12.62890625 26.0703125 C-10.83381685 25.08589976 -10.83381685 25.08589976 -10 23 C-9.87792129 21.21140489 -9.82451552 19.41771619 -9.8125 17.625 C-9.79832031 16.66851562 -9.78414063 15.71203125 -9.76953125 14.7265625 C-10.00508038 11.93989657 -10.69172016 10.42293426 -12 8 C-11.80182486 5.29160636 -11.30814118 3.5256526 -9.9375 1.1875 C-6.78151009 -0.7468164 -3.58771278 -0.65637989 0 0 Z " fill="#E1945D" transform="translate(84,21)"/>
<path d="M0 0 C2.0625 1.5625 2.0625 1.5625 3 4 C2.748267 7.58719525 2.1355927 10.59322191 1 14 C3.56170208 16.66843967 6.23176754 19.22840056 8.9375 21.75 C9.91009766 22.67039062 9.91009766 22.67039062 10.90234375 23.609375 C13.484939 25.32148656 14.9577731 25.38406851 18 25 C19.68798827 23.56249809 19.68798827 23.56249809 21 22 C21.66 22 22.32 22 23 22 C21.96470127 18.9803787 21.02446729 17.02734579 18.875 14.625 C16.41197965 11.17677151 16.47124052 9.15453876 17 5 C18 2.5625 18 2.5625 20 1 C22.77608736 0.43899901 25.2234235 0.44119215 28 1 C33.73577558 5.74684875 34.78734861 16.03795439 36 23 C37.65 23 39.3 23 41 23 C43.30680948 26.63142273 43.14663038 29.58312983 43 33.8125 C42.85126751 39.43235071 42.85126751 39.43235071 44 44.875 C45.5095669 49.59239657 45.80103519 53.81050383 44.0625 58.5625 C41.51375663 60.3388969 40.75492763 60.0396493 37.75 59.625 C37.02296875 59.47289062 36.2959375 59.32078125 35.546875 59.1640625 C32.08879785 58.94130293 29.32108646 60.04158921 26 61 C16.72173356 61.8903387 8.67730816 61.92487912 1 56 C0.26265625 55.44957031 -0.4746875 54.89914063 -1.234375 54.33203125 C-1.81703125 53.89246094 -2.3996875 53.45289063 -3 53 C-2.67 51.35 -2.34 49.7 -2 48 C-4.46800047 49.15173355 -6.04783565 50.04783565 -8 52 C-8.6875 49.6875 -8.6875 49.6875 -9 47 C-7.6875 45.1875 -7.6875 45.1875 -6 44 C-5.34 44 -4.68 44 -4 44 C-4.66 42.02 -5.32 40.04 -6 38 C-10.78478822 37.90235126 -15.27685687 38.22887459 -20 39 C-19.34 38.34 -18.68 37.68 -18 37 C-17.75787127 35.01871492 -17.75787127 35.01871492 -17.875 32.875 C-17.936875 30.956875 -17.936875 30.956875 -18 29 C-16.20963542 28.0234375 -14.41927083 27.046875 -12.62890625 26.0703125 C-10.83381685 25.08589976 -10.83381685 25.08589976 -10 23 C-9.87792129 21.21140489 -9.82451552 19.41771619 -9.8125 17.625 C-9.79832031 16.66851562 -9.78414062 15.71203125 -9.76953125 14.7265625 C-10.00508038 11.93989657 -10.69172016 10.42293426 -12 8 C-11.80182486 5.29160636 -11.30814118 3.5256526 -9.9375 1.1875 C-6.78151009 -0.7468164 -3.58771278 -0.65637989 0 0 Z " fill="#B35859" transform="translate(84,21)"/>
<path d="M0 0 C0.495 2.475 0.495 2.475 1 5 C-0.65 5.33 -2.3 5.66 -4 6 C-1.03 6.99 1.94 7.98 5 9 C5 9.66 5 10.32 5 11 C5.86625 11.103125 6.7325 11.20625 7.625 11.3125 C12.82200727 13.91100364 14.8984333 18.70110809 17 24 C16.67 24.66 16.34 25.32 16 26 C13.69 24.68 11.38 23.36 9 22 C9.495 23.485 9.495 23.485 10 25 C8.02 25 6.04 25 4 25 C4 27.31 4 29.62 4 32 C5.11375 32.433125 5.11375 32.433125 6.25 32.875 C8.56739797 33.82302644 10.77917115 34.84845911 13 36 C13 36.66 13 37.32 13 38 C7.25 38.125 7.25 38.125 5 37 C5 36.34 5 35.68 5 35 C4.360625 34.690625 3.72125 34.38125 3.0625 34.0625 C1 33 1 33 0 32 C-0.23192865 30.48530552 -0.41215238 28.96245438 -0.5625 27.4375 C-0.64628906 26.61121094 -0.73007812 25.78492187 -0.81640625 24.93359375 C-0.87699219 24.29550781 -0.93757813 23.65742187 -1 23 C-2.98 23 -4.96 23 -7 23 C-6.79375 23.598125 -6.5875 24.19625 -6.375 24.8125 C-6 27 -6 27 -8 30 C-8.38499891 31.65549531 -8.72793135 33.3222433 -9 35 C-7.68 35.33 -6.36 35.66 -5 36 C-5.23387779 39.97592242 -5.51836151 42.38290069 -8 45.5625 C-15.71141508 51.82802476 -23.93445947 57.78539964 -34.375 56.875 C-39.80124224 55.56521739 -39.80124224 55.56521739 -42 53 C-42.50975499 50.08711432 -42.44052002 48.67237266 -40.8125 46.1875 C-38.30260677 44.54308719 -36.93767401 44.4124652 -34 45 C-32.1875 47.5 -32.1875 47.5 -31 50 C-29.07690578 49.96044102 -29.07690578 49.96044102 -27 49 C-24.41886849 44.70238401 -23.52521908 41.01378403 -23 36.0625 C-22.34391356 30.80824842 -21.45056569 26.67835268 -19 22 C-19.83144531 21.41605469 -19.83144531 21.41605469 -20.6796875 20.8203125 C-25.01453586 17.47276057 -27.40583134 15.21577176 -28.3125 9.6875 C-28.39113281 8.84574219 -28.46976563 8.00398438 -28.55078125 7.13671875 C-28.82084715 4.6137887 -28.82084715 4.6137887 -32 3 C-35.61659714 3.14344676 -39.15615329 3.58088054 -42.75 4.00390625 C-46 4 -46 4 -47.9375 2.52734375 C-48.288125 2.02332031 -48.63875 1.51929688 -49 1 C-38.38184962 -10.35043661 -13.43424139 -3.79958342 0 0 Z " fill="#F8CE85" transform="translate(52,62)"/>
<path d="M0 0 C2.0625 1.5625 2.0625 1.5625 3 4 C2.748267 7.58719525 2.1355927 10.59322191 1 14 C3.56170208 16.66843967 6.23176754 19.22840056 8.9375 21.75 C9.91009766 22.67039062 9.91009766 22.67039062 10.90234375 23.609375 C13.48397366 25.3208466 14.95901024 25.38455112 18 25 C19.62514468 23.54166642 19.62514468 23.54166642 21 22 C21.99 22 22.98 22 24 22 C24 22.66 24 23.32 24 24 C24.66 24 25.32 24 26 24 C25.67 25.98 25.34 27.96 25 30 C26.65 30 28.3 30 30 30 C30 30.66 30 31.32 30 32 C30.66 32 31.32 32 32 32 C33.625 33.5 33.625 33.5 35 35 C35.33 33.68 35.66 32.36 36 31 C38.98108862 37.7795725 39.14015798 41.9036867 37 49 C34.03 48.67 31.06 48.34 28 48 C27.74605469 47.31292969 27.49210937 46.62585938 27.23046875 45.91796875 C26.88628906 45.01691406 26.54210937 44.11585937 26.1875 43.1875 C25.85105469 42.29417969 25.51460937 41.40085938 25.16796875 40.48046875 C24.03802681 38.08075928 22.98937707 36.71576647 21 35 C20.505 35.99 20.505 35.99 20 37 C16.04 36.34 12.08 35.68 8 35 C8.33 33.02 8.66 31.04 9 29 C8.34 29 7.68 29 7 29 C6.67 29.99 6.34 30.98 6 32 C4.35 31.67 2.7 31.34 1 31 C1 31.99 1 32.98 1 34 C-2.19156448 35.06385483 -4.58497476 35.16677982 -7.9375 35.1875 C-8.97777344 35.20167969 -10.01804687 35.21585938 -11.08984375 35.23046875 C-13.95046613 35.00392282 -15.57670151 34.47733619 -18 33 C-17.875 30.6875 -17.875 30.6875 -17 28 C-14 26.3125 -14 26.3125 -11 25 C-9.7133355 22.426671 -9.83175449 20.49776962 -9.8125 17.625 C-9.79832031 16.66851562 -9.78414062 15.71203125 -9.76953125 14.7265625 C-10.00508038 11.93989657 -10.69172016 10.42293426 -12 8 C-11.80182486 5.29160636 -11.30814118 3.5256526 -9.9375 1.1875 C-6.78151009 -0.7468164 -3.58771278 -0.65637989 0 0 Z " fill="#BAC9D2" transform="translate(84,21)"/>
<path d="M0 0 C1.125 2.3125 1.125 2.3125 2 5 C1.34 5.99 0.68 6.98 0 8 C-0.38499891 9.65549531 -0.72793135 11.3222433 -1 13 C0.32 13.33 1.64 13.66 3 14 C2.76612221 17.97592242 2.48163849 20.38290069 0 23.5625 C-7.71141508 29.82802476 -15.93445947 35.78539964 -26.375 34.875 C-31.80124224 33.56521739 -31.80124224 33.56521739 -34 31 C-34.50975499 28.08711432 -34.44052002 26.67237266 -32.8125 24.1875 C-30.30260677 22.54308719 -28.93767401 22.4124652 -26 23 C-24.1875 25.5 -24.1875 25.5 -23 28 C-21.07690578 27.96044102 -21.07690578 27.96044102 -19 27 C-16.38674294 22.65757284 -15.49404489 18.87850068 -14.9375 13.875 C-14.36385332 8.79412944 -13.91202476 5.05910359 -10.375 1.25 C-6.84364733 -0.60860667 -3.96086811 -0.19804341 0 0 Z " fill="#EED7AA" transform="translate(44,84)"/>
<path d="M0 0 C1.4606285 2.64738916 2 3.89448334 2 7 C0 8.6875 0 8.6875 -2 10 C-1.67 10.99 -1.34 11.98 -1 13 C0.65 12.34 2.3 11.68 4 11 C3.67 12.65 3.34 14.3 3 16 C3.58265625 16.27585937 4.1653125 16.55171875 4.765625 16.8359375 C7 18 7 18 8.796875 19.2890625 C16.00324488 24.2182195 23.65248471 23.69635164 32 23 C34.44979616 22.55139548 34.44979616 22.55139548 36.5 21.9375 C39.79720138 21.05432106 41.09716522 21.01792078 44.3125 21.5625 C47.90509095 22.40957305 47.90509095 22.40957305 50 20.5625 C50.33 20.046875 50.66 19.53125 51 19 C51.31346682 22.99670192 51.40395059 25.32674901 49.3125 28.8125 C46.88698876 31.10690252 45.25012274 32.24997168 42 33 C39 31 39 31 38 28 C37.34 27.67 36.68 27.34 36 27 C36 27.99 36 28.98 36 30 C32.37445665 29.88848666 28.74980383 29.75826485 25.125 29.625 C24.11179688 29.5940625 23.09859375 29.563125 22.0546875 29.53125 C5.11205395 28.87961025 5.11205395 28.87961025 -0.625 24.875 C-3.1023552 21.87609634 -3.34917449 21.3353539 -3.375 17.6875 C-3.25125 16.470625 -3.1275 15.25375 -3 14 C-4.65 14 -6.3 14 -8 14 C-8.99 11.69 -9.98 9.38 -11 7 C-12.32 7 -13.64 7 -15 7 C-15.66 6.67 -16.32 6.34 -17 6 C-17 4.68 -17 3.36 -17 2 C-11.23918159 0.7017874 -5.91260345 -0.25706972 0 0 Z " fill="#EDA163" transform="translate(78,58)"/>
<path d="M0 0 C1.86328125 0.375 1.86328125 0.375 3.67578125 1.875 C6.86627125 8.59182106 8.59189613 15.07575367 9.86328125 22.375 C11.51328125 22.375 13.16328125 22.375 14.86328125 22.375 C16.88887006 25.72439881 17.08067112 28.24462551 16.98828125 32.125 C16.97023438 33.10984375 16.9521875 34.0946875 16.93359375 35.109375 C16.91039063 35.85703125 16.8871875 36.6046875 16.86328125 37.375 C15.87328125 37.87 15.87328125 37.87 14.86328125 38.375 C14.20773006 40.90233235 14.20773006 40.90233235 13.86328125 43.375 C14.52328125 43.375 15.18328125 43.375 15.86328125 43.375 C15.86328125 44.365 15.86328125 45.355 15.86328125 46.375 C14.87328125 46.375 13.88328125 46.375 12.86328125 46.375 C12.20328125 42.415 11.54328125 38.455 10.86328125 34.375 C10.53328125 34.375 10.20328125 34.375 9.86328125 34.375 C9.53328125 35.365 9.20328125 36.355 8.86328125 37.375 C5.86328125 33.625 5.86328125 33.625 5.86328125 31.375 C5.20328125 31.375 4.54328125 31.375 3.86328125 31.375 C3.86328125 30.715 3.86328125 30.055 3.86328125 29.375 C2.21328125 29.375 0.56328125 29.375 -1.13671875 29.375 C-0.80671875 27.395 -0.47671875 25.415 -0.13671875 23.375 C-0.79671875 23.375 -1.45671875 23.375 -2.13671875 23.375 C-2.54921875 22.323125 -2.96171875 21.27125 -3.38671875 20.1875 C-4.49327905 17.54552111 -5.38733869 16.08857721 -7.32421875 13.875 C-9.76304534 10.51110125 -9.6544198 8.44265109 -9.13671875 4.375 C-7.29067883 -0.1247223 -4.45996568 -0.26091207 0 0 Z " fill="#717480" transform="translate(110.13671875,21.625)"/>
<path d="M0 0 C0.99 0.495 0.99 0.495 2 1 C2 1.66 2 2.32 2 3 C2.721875 2.79375 3.44375 2.5875 4.1875 2.375 C7 2 7 2 9.1640625 2.97265625 C12.86836659 4.31457357 16.30992543 4.17222246 20.1875 4.0625 C26.5487815 3.9641191 32.67627345 4.1969871 39 5 C39.66 3.68 40.32 2.36 41 1 C41.0825 1.61875 41.165 2.2375 41.25 2.875 C41.81258459 5.18437567 41.81258459 5.18437567 44.0625 6.25 C44.701875 6.4975 45.34125 6.745 46 7 C41.43973763 12.11302145 37.39640317 13.86786561 31 16 C30.34 16.66 29.68 17.32 29 18 C26.6171875 18.1953125 26.6171875 18.1953125 23.875 18.125 C22.96492188 18.10695313 22.05484375 18.08890625 21.1171875 18.0703125 C20.41851562 18.04710938 19.71984375 18.02390625 19 18 C19 17.34 19 16.68 19 16 C17.35 16.33 15.7 16.66 14 17 C14.33 15.68 14.66 14.36 15 13 C14.01 13 13.02 13 12 13 C11.79375 12.38125 11.5875 11.7625 11.375 11.125 C9.45224112 8.15346355 7.33405473 7.86975341 4 7 C4 6.34 4 5.68 4 5 C3.01 4.67 2.02 4.34 1 4 C0.3125 1.9375 0.3125 1.9375 0 0 Z " fill="#BB6657" transform="translate(75,84)"/>
<path d="M0 0 C2.33294775 -0.04241723 4.66702567 -0.04092937 7 0 C8.55400314 1.55400314 8.1905996 3.22258725 8.3125 5.375 C8.6003868 9.14302002 8.6003868 9.14302002 11.0625 11.9375 C11.701875 12.288125 12.34125 12.63875 13 13 C13 13.66 13 14.32 13 15 C15.64 15.33 18.28 15.66 21 16 C21 15.34 21 14.68 21 14 C20.443125 13.896875 19.88625 13.79375 19.3125 13.6875 C16.35944706 12.80956534 14.3846876 11.98723966 12 10 C11.6875 6.3125 11.6875 6.3125 12 3 C15.40465258 3.62392955 17.57779328 4.93038149 20.375 6.9375 C23.84251425 9.33105596 26.9340188 10.80995672 31 12 C31.66 12.66 32.32 13.32 33 14 C32.67 14.66 32.34 15.32 32 16 C29.03 16 26.06 16 23 16 C22.67 16.66 22.34 17.32 22 18 C20.04221145 18.23228 18.08354304 18.45953864 16.12109375 18.6484375 C13.74603578 18.93496247 13.74603578 18.93496247 10.875 20.5625 C7.65195257 22.17402372 5.55374607 22.25383901 2 22 C1.875 16.25 1.875 16.25 3 14 C1.35 14 -0.3 14 -2 14 C-0.125 6.25 -0.125 6.25 1 4 C0.60061233 1.90178785 0.60061233 1.90178785 0 0 Z " fill="#EDA362" transform="translate(44,84)"/>
<path d="M0 0 C1.8125 0.5625 1.8125 0.5625 4 2 C5.7844844 5.56896879 7.21605182 9.0802591 8 13 C10.64 13.33 13.28 13.66 16 14 C16.66 12.35 17.32 10.7 18 9 C18.33 10.32 18.66 11.64 19 13 C19.99 13 20.98 13 22 13 C22 12.01 22 11.02 22 10 C21.34 10 20.68 10 20 10 C20 8.35 20 6.7 20 5 C20.66 4.67 21.32 4.34 22 4 C26.64695946 17.49831081 26.64695946 17.49831081 24.0625 24.5625 C21.06106765 26.65440739 18.83925903 25.80330658 15.33984375 25.23046875 C11.95257124 24.89683089 9.20834429 25.97090843 6 27 C2.5625 27.125 2.5625 27.125 0 27 C0 26.67 0 26.34 0 26 C1.65 26 3.3 26 5 26 C4.78345126 16.92463902 2.02661641 9.53992462 -3 2 C-2.01 1.67 -1.02 1.34 0 1 C0 0.67 0 0.34 0 0 Z " fill="#EDA262" transform="translate(104,55)"/>
<path d="M0 0 C0.495 2.475 0.495 2.475 1 5 C-2.1964086 6.06546953 -4.65747276 6.07427838 -8 6 C-8 5.34 -8 4.68 -8 4 C-14.6 3.67 -21.2 3.34 -28 3 C-28.33 3.66 -28.66 4.32 -29 5 C-29.99 4.34 -30.98 3.68 -32 3 C-35.61659714 3.14344676 -39.15615329 3.58088054 -42.75 4.00390625 C-46 4 -46 4 -47.9375 2.52734375 C-48.288125 2.02332031 -48.63875 1.51929688 -49 1 C-38.38184962 -10.35043661 -13.43424139 -3.79958342 0 0 Z " fill="#BCAAB2" transform="translate(52,62)"/>
<path d="M0 0 C2.96175123 0.61277612 4.38058783 1.25372522 7 3 C7 3.99 7 4.98 7 6 C7.99 6.33 8.98 6.66 10 7 C9.67 7.66 9.34 8.32 9 9 C7.68 8.34 6.36 7.68 5 7 C5 7.66 5 8.32 5 9 C4.15695313 8.98839844 3.31390625 8.97679688 2.4453125 8.96484375 C1.34960938 8.95582031 0.25390625 8.94679688 -0.875 8.9375 C-1.96554688 8.92589844 -3.05609375 8.91429688 -4.1796875 8.90234375 C-6.95177546 8.80255697 -6.95177546 8.80255697 -9 10 C-9.804375 9.979375 -10.60875 9.95875 -11.4375 9.9375 C-14.24528606 9.77767869 -14.24528606 9.77767869 -17 12 C-17.4640625 13.7325 -17.4640625 13.7325 -17.9375 15.5 C-19 19 -19 19 -20.79296875 20.23046875 C-25.79456166 21.97438699 -30.86843239 20.49630158 -35.5625 18.4375 C-36.366875 17.963125 -37.17125 17.48875 -38 17 C-33.22488756 10.30084958 -33.22488756 10.30084958 -28.4375 9.125 C-27.303125 9.08375 -26.16875 9.0425 -25 9 C-22.28850868 8.54808478 -20.08627522 8.03760715 -17.5625 6.9375 C-14.57691417 5.8452125 -12.15470377 5.85326959 -9 6 C-8.67 5.01 -8.34 4.02 -8 3 C-5.03 3.33 -2.06 3.66 1 4 C0.505 2.02 0.505 2.02 0 0 Z " fill="#C27359" transform="translate(75,96)"/>
<path d="M0 0 C0.33 0.99 0.66 1.98 1 3 C3.50447516 4.21869929 3.50447516 4.21869929 6 5 C6.33 4.34 6.66 3.68 7 3 C10 7.625 10 7.625 10 11 C10.99 11.33 11.98 11.66 13 12 C14.25301205 16.51084337 14.25301205 16.51084337 13.0625 18.8125 C11.42228252 22.18941835 11.87580369 25.27411082 12 29 C12.598125 29.12375 13.19625 29.2475 13.8125 29.375 C16 30 16 30 19 32 C19 32.66 19 33.32 19 34 C17.32598903 33.35199575 15.66194738 32.67834587 14 32 C13.29875 31.72027344 12.5975 31.44054687 11.875 31.15234375 C6.81025799 29.03918281 3.03470845 26.72434626 -1 23 C-0.34 22.67 0.32 22.34 1 22 C3.4750171 23.11431765 5.67883419 24.58150978 8 26 C7.45859375 24.95199219 7.45859375 24.95199219 6.90625 23.8828125 C6.4421875 22.97273438 5.978125 22.06265625 5.5 21.125 C5.0359375 20.22007813 4.571875 19.31515625 4.09375 18.3828125 C3 16 3 16 3 14 C2.071875 13.7834375 2.071875 13.7834375 1.125 13.5625 C-1 13 -1 13 -3 12 C-3 11.34 -3 10.68 -3 10 C-3.63808594 9.87882812 -4.27617188 9.75765625 -4.93359375 9.6328125 C-6.17302734 9.38144531 -6.17302734 9.38144531 -7.4375 9.125 C-8.26121094 8.96257812 -9.08492187 8.80015625 -9.93359375 8.6328125 C-10.61550781 8.42398438 -11.29742187 8.21515625 -12 8 C-12.33 7.34 -12.66 6.68 -13 6 C-11.35 6 -9.7 6 -8 6 C-7.67 4.68 -7.34 3.36 -7 2 C-5.02 2 -3.04 2 -1 2 C-0.67 1.34 -0.34 0.68 0 0 Z " fill="#BC6C5C" transform="translate(60,61)"/>
<path d="M0 0 C1.32 0 2.64 0 4 0 C4 0.66 4 1.32 4 2 C4.86625 2.103125 5.7325 2.20625 6.625 2.3125 C11.82200727 4.91100364 13.8984333 9.70110809 16 15 C15.67 15.66 15.34 16.32 15 17 C12.69 15.68 10.38 14.36 8 13 C8.33 13.99 8.66 14.98 9 16 C7.02 16 5.04 16 3 16 C3 18.31 3 20.62 3 23 C4.11375 23.433125 4.11375 23.433125 5.25 23.875 C7.56739797 24.82302644 9.77917115 25.84845911 12 27 C12 27.66 12 28.32 12 29 C6.25 29.125 6.25 29.125 4 28 C4 27.34 4 26.68 4 26 C3.360625 25.690625 2.72125 25.38125 2.0625 25.0625 C0 24 0 24 -1 23 C-1.45765667 20.01110641 -1.70320951 17.01030352 -2 14 C-6.29 13.67 -10.58 13.34 -15 13 C-12 11 -12 11 -10 11 C-9.67 10.01 -9.34 9.02 -9 8 C-7.35 8 -5.7 8 -4 8 C-2.68 5.36 -1.36 2.72 0 0 Z " fill="#A59993" transform="translate(53,71)"/>
<path d="M0 0 C0 0.66 0 1.32 0 2 C0.66 2 1.32 2 2 2 C1.67 3.98 1.34 5.96 1 8 C2.65 8 4.3 8 6 8 C6 8.66 6 9.32 6 10 C6.66 10 7.32 10 8 10 C9.625 11.5 9.625 11.5 11 13 C11.33 11.68 11.66 10.36 12 9 C14.98108862 15.7795725 15.14015798 19.9036867 13 27 C10.03 26.67 7.06 26.34 4 26 C3.74605469 25.31292969 3.49210937 24.62585938 3.23046875 23.91796875 C2.88628906 23.01691406 2.54210937 22.11585937 2.1875 21.1875 C1.85105469 20.29417969 1.51460937 19.40085937 1.16796875 18.48046875 C0.03802681 16.08075928 -1.01062293 14.71576647 -3 13 C-3.33 13.66 -3.66 14.32 -4 15 C-7 13 -7 13 -8 9.1875 C-8.34445302 5.55087098 -8.10123597 5.13498129 -5.75 2 C-3 0 -3 0 0 0 Z " fill="#F8C97E" transform="translate(108,43)"/>
<path d="M0 0 C2.0625 1.5625 2.0625 1.5625 3 4 C2.748267 7.58719525 2.1355927 10.59322191 1 14 C3.55876258 16.66537768 6.24633707 19.16417062 9 21.625 C9.66 22.21539062 10.32 22.80578125 11 23.4140625 C12.92726951 24.94232699 14.76446093 25.9920114 17 27 C14.18185434 28.40907283 12.82722796 27.50872691 9.875 26.5625 C8.96492188 26.27503906 8.05484375 25.98757812 7.1171875 25.69140625 C6.06917969 25.34916016 6.06917969 25.34916016 5 25 C5 24.34 5 23.68 5 23 C4.46375 22.9175 3.9275 22.835 3.375 22.75 C-3.43898121 20.59821646 -7.5466904 15.6799644 -11.375 9.9375 C-12.23901338 7.25905851 -11.88361323 5.6508397 -11 3 C-8.60426991 -1.08683369 -4.23414064 -0.77464527 0 0 Z " fill="#B09FA5" transform="translate(84,21)"/>
<path d="M0 0 C0.4125 0.495 0.825 0.99 1.25 1.5 C3.12202338 3.43386092 3.12202338 3.43386092 7 3 C7.33 2.34 7.66 1.68 8 1 C8.66 1 9.32 1 10 1 C10 2.65 10 4.3 10 6 C12.97 6.495 12.97 6.495 16 7 C15.67 7.66 15.34 8.32 15 9 C12.67284 9.37400786 10.33882138 9.70764733 8 10 C7.67 10.33 7.34 10.66 7 11 C7.66 11.33 8.32 11.66 9 12 C8 15 8 15 5.5625 16.3125 C2.29774629 18.46245976 1.90802993 20.28533211 1 24 C2.65 25.65 4.3 27.3 6 29 C3.0280615 27.87548273 0.66559313 26.77706209 -2 25 C-1.67 23.35 -1.34 21.7 -1 20 C-3.46800047 21.15173355 -5.04783565 22.04783565 -7 24 C-7.6875 21.6875 -7.6875 21.6875 -8 19 C-6.6875 17.1875 -6.6875 17.1875 -5 16 C-4.34 16 -3.68 16 -3 16 C-3.66 14.02 -4.32 12.04 -5 10 C-9.78478822 9.90235126 -14.27685687 10.22887459 -19 11 C-18.34 10.34 -17.68 9.68 -17 9 C-17 7.68 -17 6.36 -17 5 C-16.46632813 5.16242187 -15.93265625 5.32484375 -15.3828125 5.4921875 C-12.49995093 6.10656784 -9.82147292 6.13223949 -6.875 6.125 C-5.29332031 6.12886719 -5.29332031 6.12886719 -3.6796875 6.1328125 C-1.02773346 6.181529 -1.02773346 6.181529 1 5 C0.67 3.35 0.34 1.7 0 0 Z " fill="#AAA6B3" transform="translate(83,49)"/>
<path d="M0 0 C0.33 0.99 0.66 1.98 1 3 C-2.72653051 10.13160313 -7.29347297 15.43115766 -15 18 C-22.27797834 18.57761733 -22.27797834 18.57761733 -25.5 16 C-25.995 15.34 -26.49 14.68 -27 14 C-24.69 13.34 -22.38 12.68 -20 12 C-20 11.34 -20 10.68 -20 10 C-14.13070385 4.80463138 -8.66929578 2.21734854 -1 1 C-0.67 0.67 -0.34 0.34 0 0 Z " fill="#F4D999" transform="translate(102,105)"/>
<path d="M0 0 C0.99 0 1.98 0 3 0 C3 2.64 3 5.28 3 8 C3.99 8.33 4.98 8.66 6 9 C6 9.66 6 10.32 6 11 C17.9268694 13.74812659 29.81329911 15.01921797 42 16 C42.33 15.01 42.66 14.02 43 13 C43 14.65 43 16.3 43 18 C42.06800781 17.9278125 41.13601562 17.855625 40.17578125 17.78125 C32.71347061 17.23798775 25.39180327 16.91918265 17.90234375 17.16015625 C14.64314219 16.98030798 12.07273105 16.0631566 9 15 C7.68 15 6.36 15 5 15 C5.50256112 17.01432266 5.50256112 17.01432266 7 19 C9.31029085 19.74259349 11.645752 20.411438 14 21 C14.66 21.66 15.32 22.32 16 23 C15.67 23.66 15.34 24.32 15 25 C15.99 25 16.98 25 18 25 C18 25.66 18 26.32 18 27 C11.20339758 26.20969739 7.73399716 23.73399716 3 19 C2.01 18.67 1.02 18.34 0 18 C-1.3899408 15.2201184 -1.18488204 13.0813674 -1 10 C-0.649375 9.34 -0.29875 8.68 0.0625 8 C1.40931964 5.12678476 0.68598023 3.01831302 0 0 Z " fill="#DF915D" transform="translate(72,72)"/>
<path d="M0 0 C1.4370809 -0.05422947 2.87475462 -0.09289723 4.3125 -0.125 C5.11300781 -0.14820312 5.91351563 -0.17140625 6.73828125 -0.1953125 C9 0 9 0 12 2 C11.01 3.485 11.01 3.485 10 5 C13.465 6.485 13.465 6.485 17 8 C16.01 8.33 15.02 8.66 14 9 C14 10.32 14 11.64 14 13 C7.25 14.125 7.25 14.125 5 13 C4.67 13.66 4.34 14.32 4 15 C1.7522025 12.94766315 0.9977758 11.99332739 0 9 C-0.06740865 7.43881572 -0.08514456 5.8749748 -0.0625 4.3125 C-0.05347656 3.50425781 -0.04445313 2.69601563 -0.03515625 1.86328125 C-0.02355469 1.24839844 -0.01195313 0.63351563 0 0 Z " fill="#DFCFAB" transform="translate(24,65)"/>
<path d="M0 0 C0.66 0.33 1.32 0.66 2 1 C1.01 2.485 1.01 2.485 0 4 C0.65484375 3.79503906 1.3096875 3.59007812 1.984375 3.37890625 C13.09293186 0.09968537 27.10403939 -2.4479803 38 3 C39.53964841 3.69200804 41.08156513 4.37897884 42.625 5.0625 C43.44226562 5.42472656 44.25953125 5.78695312 45.1015625 6.16015625 C45.72804687 6.43730469 46.35453125 6.71445313 47 7 C44.29120665 8.35439668 41.99066732 8.06501451 39 8 C39 7.34 39 6.68 39 6 C32.4 5.67 25.8 5.34 19 5 C18.67 5.66 18.34 6.32 18 7 C17.01 6.34 16.02 5.68 15 5 C11.38340286 5.14344676 7.84384671 5.58088054 4.25 6.00390625 C1 6 1 6 -0.9375 4.52734375 C-1.288125 4.02332031 -1.63875 3.51929688 -2 3 C-1.34 2.01 -0.68 1.02 0 0 Z " fill="#A6A6B4" transform="translate(5,60)"/>
<path d="M0 0 C1.4606285 2.64738916 2 3.89448334 2 7 C0.67732273 8.01405257 -0.65724831 9.01268258 -2 10 C-3.2516467 12.08334635 -3.2516467 12.08334635 -4 14 C-5.32 14 -6.64 14 -8 14 C-8.99 11.69 -9.98 9.38 -11 7 C-12.32 7 -13.64 7 -15 7 C-15.66 6.67 -16.32 6.34 -17 6 C-17 4.68 -17 3.36 -17 2 C-11.23918159 0.7017874 -5.91260345 -0.25706972 0 0 Z " fill="#C1B2BA" transform="translate(78,58)"/>
<path d="M0 0 C2.33294775 -0.04241723 4.66702567 -0.04092937 7 0 C8.55400314 1.55400314 8.1905996 3.22258725 8.3125 5.375 C8.6003868 9.14302002 8.6003868 9.14302002 11.0625 11.9375 C11.701875 12.288125 12.34125 12.63875 13 13 C13 13.66 13 14.32 13 15 C13.66 15.33 14.32 15.66 15 16 C8.74676951 17.20676378 5.64808507 16.93700423 0 14 C-0.66 13.67 -1.32 13.34 -2 13 C-0.125 6.25 -0.125 6.25 1 4 C0.60061233 1.90178785 0.60061233 1.90178785 0 0 Z " fill="#E09C6F" transform="translate(44,84)"/>
<path d="M0 0 C1.8125 2.5 1.8125 2.5 3 5 C6.26954202 4.43628586 7.82575883 3.50037734 10 1 C9.47731534 3.76276177 8.89130413 6.3260876 8 9 C9.32 9.33 10.64 9.66 12 10 C5.40763807 12.00125273 -0.05327191 12.97336404 -6.5 9.75 C-8 8 -8 8 -8.4375 5.5 C-8 3 -8 3 -6.8125 1.1875 C-4.30260677 -0.45691281 -2.93767401 -0.5875348 0 0 Z " fill="#DECAA7" transform="translate(18,107)"/>
<path d="M0 0 C2.31 0.66 4.62 1.32 7 2 C-0.5 7 -0.5 7 -3 7 C-3.33 8.65 -3.66 10.3 -4 12 C-3.34 12 -2.68 12 -2 12 C-2 12.66 -2 13.32 -2 14 C-4.64600922 15.07800376 -5.86224639 15.04263802 -8.625 14.1875 C-12.27044069 10.82985726 -12.39991039 6.77384718 -13 2 C-9.79984144 0.93328048 -8.11455706 1.05154528 -4.8125 1.4375 C-3.46091797 1.59025391 -3.46091797 1.59025391 -2.08203125 1.74609375 C-1.39496094 1.82988281 -0.70789063 1.91367188 0 2 C0 1.34 0 0.68 0 0 Z " fill="#C16855" transform="translate(80,103)"/>
<path d="M0 0 C-0.020625 0.78375 -0.04125 1.5675 -0.0625 2.375 C-0.18684063 4.98114961 -0.18684063 4.98114961 1 7 C-2.19156448 8.06385483 -4.58497476 8.16677982 -7.9375 8.1875 C-9.49791016 8.20876953 -9.49791016 8.20876953 -11.08984375 8.23046875 C-13.95046613 8.00392282 -15.57670151 7.47733619 -18 6 C-17.875 3.6875 -17.875 3.6875 -17 1 C-11.60388393 -3.40209469 -6.22312614 -1.53917177 0 0 Z " fill="#AFC8D9" transform="translate(84,48)"/>
<path d="M0 0 C2.96175123 0.61277612 4.38058783 1.25372522 7 3 C7 3.99 7 4.98 7 6 C7.99 6.33 8.98 6.66 10 7 C9.67 7.66 9.34 8.32 9 9 C7.68 8.34 6.36 7.68 5 7 C5 7.66 5 8.32 5 9 C3.73542969 8.98259766 3.73542969 8.98259766 2.4453125 8.96484375 C1.34960938 8.95582031 0.25390625 8.94679688 -0.875 8.9375 C-1.96554688 8.92589844 -3.05609375 8.91429688 -4.1796875 8.90234375 C-6.95177546 8.80255697 -6.95177546 8.80255697 -9 10 C-11.2072923 10.07092842 -13.41667452 10.08415025 -15.625 10.0625 C-16.81351563 10.05347656 -18.00203125 10.04445313 -19.2265625 10.03515625 C-20.14179687 10.02355469 -21.05703125 10.01195313 -22 10 C-17.62691466 6.10940919 -17.62691466 6.10940919 -14.76171875 5.609375 C-12.84114583 5.73958333 -10.92057292 5.86979167 -9 6 C-8.67 5.01 -8.34 4.02 -8 3 C-5.03 3.33 -2.06 3.66 1 4 C0.67 2.68 0.34 1.36 0 0 Z " fill="#ECA464" transform="translate(75,96)"/>
<path d="M0 0 C0.66 0.33 1.32 0.66 2 1 C2 1.99 2 2.98 2 4 C3.32 4.66 4.64 5.32 6 6 C0 12 0 12 -3.5 12.25 C-8.35308929 12.21483269 -12.51599057 10.74378145 -17 9 C-15.68 8.67 -14.36 8.34 -13 8 C-13.33 6.68 -13.66 5.36 -14 4 C-9.71 4 -5.42 4 -1 4 C-0.67 2.68 -0.34 1.36 0 0 Z " fill="#C77256" transform="translate(115,85)"/>
<path d="M0 0 C2.68725144 1.16205468 4.55491804 2.19676615 6 4.8046875 C7.4600935 8.52511804 8.59328151 11.96568573 8 16 C7.34 16.66 6.68 17.32 6 18 C2.70285207 17.67028521 1.3773161 17.3773161 -1 15 C-1 14.01 -1 13.02 -1 12 C-1.99 12 -2.98 12 -4 12 C-4.33 12.66 -4.66 13.32 -5 14 C-5.29296875 7.9453125 -5.29296875 7.9453125 -5 6 C-4.01 5.34 -3.02 4.68 -2 4 C-2 4.99 -2 5.98 -2 7 C-0.35 7.33 1.3 7.66 3 8 C2.65213292 6.02463255 2.65213292 6.02463255 2 4 C1.34 3.67 0.68 3.34 0 3 C0 2.01 0 1.02 0 0 Z " fill="#36171E" transform="translate(99,62)"/>
<path d="M0 0 C0.433125 0.474375 0.86625 0.94875 1.3125 1.4375 C3.02309613 3.23686957 3.02309613 3.23686957 6 4 C6.33 3.34 6.66 2.68 7 2 C8.98 2.66 10.96 3.32 13 4 C12 7 12 7 9.5625 8.3125 C6.29774629 10.46245976 5.90802993 12.28533211 5 16 C6.65 17.65 8.3 19.3 10 21 C7.0280615 19.87548273 4.66559313 18.77706209 2 17 C2.33 15.35 2.66 13.7 3 12 C0.53199953 13.15173355 -1.04783565 14.04783565 -3 16 C-3.6875 13.6875 -3.6875 13.6875 -4 11 C-2.6875 9.1875 -2.6875 9.1875 -1 8 C-0.34 8 0.32 8 1 8 C0.67 5.36 0.34 2.72 0 0 Z " fill="#CC7A58" transform="translate(79,57)"/>
<path d="M0 0 C1.32 0 2.64 0 4 0 C2.16504854 4.7184466 2.16504854 4.7184466 0.9375 6.8125 C-0.48460019 10.13073378 -0.64148565 13.41485649 -1 17 C-5.43458973 15.6062718 -7.87378374 13.39417765 -11 10 C-8.375 4.25 -8.375 4.25 -5 2 C-2.3125 1.875 -2.3125 1.875 0 2 C0 1.34 0 0.68 0 0 Z " fill="#D4D1D9" transform="translate(94,62)"/>
<path d="M0 0 C0.94875 0.4125 1.8975 0.825 2.875 1.25 C5.77106511 2.495308 8.68863417 3.66578197 11.625 4.8125 C17.86559713 7.28755164 23.92651524 10.14412942 30 13 C30 13.66 30 14.32 30 15 C31.65 14.67 33.3 14.34 35 14 C35 14.66 35 15.32 35 16 C34.360625 16.103125 33.72125 16.20625 33.0625 16.3125 C32.381875 16.539375 31.70125 16.76625 31 17 C30.67 17.99 30.34 18.98 30 20 C26.73810844 19.4376049 25.08865152 18.5859495 23 16 C22.67 15.01 22.34 14.02 22 13 C18.23110441 11.04017429 15.54700025 10.06489833 11.3125 9.5625 C7.43428516 8.90393522 6.49792922 7.92860667 4 5 C3.2575 4.46375 2.515 3.9275 1.75 3.375 C1.1725 2.92125 0.595 2.4675 0 2 C0 1.34 0 0.68 0 0 Z " fill="#D28056" transform="translate(59,86)"/>
<path d="M0 0 C0.33 0.66 0.66 1.32 1 2 C2.99281757 2.25713775 4.98829861 2.50836152 6.9921875 2.65625 C9 3 9 3 12 5 C11.34 5 10.68 5 10 5 C9.566875 6.11375 9.566875 6.11375 9.125 7.25 C8.17697356 9.56739797 7.15154089 11.77917115 6 14 C5.195625 13.979375 4.39125 13.95875 3.5625 13.9375 C1.06645115 13.70366379 1.06645115 13.70366379 0 15 C-2.33297433 15.04092937 -4.66705225 15.04241723 -7 15 C-5.68 14.34 -4.36 13.68 -3 13 C-3.33 12.01 -3.66 11.02 -4 10 C-3.01 10 -2.02 10 -1 10 C-1.020625 8.72125 -1.04125 7.4425 -1.0625 6.125 C-1.125 2.25 -1.125 2.25 0 0 Z " fill="#ED9D6B" transform="translate(43,66)"/>
<path d="M0 0 C0.99 0.495 0.99 0.495 2 1 C2 1.66 2 2.32 2 3 C2.721875 2.79375 3.44375 2.5875 4.1875 2.375 C7 2 7 2 9.125 2.96875 C13.06978392 4.38372684 16.65957474 4.21550801 20.8125 4.125 C21.60076172 4.11597656 22.38902344 4.10695313 23.20117188 4.09765625 C25.13424666 4.07422504 27.0671638 4.03835838 29 4 C28.01 4.33 27.02 4.66 26 5 C26.33 6.32 26.66 7.64 27 9 C20.565 9.495 20.565 9.495 14 10 C14 10.99 14 11.98 14 13 C13.34 13 12.68 13 12 13 C11.79375 12.38125 11.5875 11.7625 11.375 11.125 C9.45224112 8.15346355 7.33405473 7.86975341 4 7 C4 6.34 4 5.68 4 5 C3.01 4.67 2.02 4.34 1 4 C0.3125 1.9375 0.3125 1.9375 0 0 Z " fill="#D07E55" transform="translate(75,84)"/>
<path d="M0 0 C5 2 5 2 7 4 C7.66 3.34 8.32 2.68 9 2 C8.9175 3.0725 8.835 4.145 8.75 5.25 C9.05185793 9.77786901 9.88488846 9.97389165 13 13 C16.45778466 20.62664601 16.45778466 20.62664601 15 25 C12 21.25 12 21.25 12 19 C11.34 19 10.68 19 10 19 C10 18.34 10 17.68 10 17 C8.35 17 6.7 17 5 17 C5.33 15.02 5.66 13.04 6 11 C5.34 11 4.68 11 4 11 C2.68 7.37 1.36 3.74 0 0 Z " fill="#AC615F" transform="translate(104,34)"/>
<path d="M0 0 C3.9375 0.5625 3.9375 0.5625 5.9375 2.3125 C6.9375 4.5625 6.9375 4.5625 6.9375 8.5625 C3.0990152 9.99077341 0.03185265 10.78381636 -4.0625 10.5625 C-5.0525 10.5625 -6.0425 10.5625 -7.0625 10.5625 C-7.8125 8.375 -7.8125 8.375 -8.0625 5.5625 C-6.04999461 1.62498946 -4.34086867 0.22425152 0 0 Z " fill="#A3A5B2" transform="translate(80.0625,20.4375)"/>
<path d="M0 0 C0.99 0 1.98 0 3 0 C5.02558881 3.34939881 5.21738987 5.86962551 5.125 9.75 C5.10695313 10.73484375 5.08890625 11.7196875 5.0703125 12.734375 C5.03550781 13.85585938 5.03550781 13.85585938 5 15 C4.01 15.495 4.01 15.495 3 16 C2.34444881 18.52733235 2.34444881 18.52733235 2 21 C2.66 21 3.32 21 4 21 C4 21.99 4 22.98 4 24 C3.01 24 2.02 24 1 24 C0.85304688 22.80503906 0.85304688 22.80503906 0.703125 21.5859375 C-0.19402827 15.22852384 -1.1918653 11.1212846 -5 6 C-4.67 5.01 -4.34 4.02 -4 3 C-3.01 2.67 -2.02 2.34 -1 2 C-0.67 1.34 -0.34 0.68 0 0 Z " fill="#AF9DA0" transform="translate(122,44)"/>
<path d="M0 0 C-0.66 1.32 -1.32 2.64 -2 4 C-2.66 4 -3.32 4 -4 4 C-3.67 4.66 -3.34 5.32 -3 6 C-0.97536745 6.65213292 -0.97536745 6.65213292 1 7 C0.1760102 11.44954491 -1.65409228 14.81723261 -5.0625 17.8125 C-7 19 -7 19 -9 19 C-9.40178463 12.57144586 -8.77298748 7.85408468 -6 2 C-3 0 -3 0 0 0 Z " fill="#F6EBD0" transform="translate(38,85)"/>
<path d="M0 0 C0.99 0.33 1.98 0.66 3 1 C4.25301205 5.51084337 4.25301205 5.51084337 3.0625 7.8125 C1.42228252 11.18941835 1.87580369 14.27411082 2 18 C2.598125 18.12375 3.19625 18.2475 3.8125 18.375 C6 19 6 19 9 21 C9 21.66 9 22.32 9 23 C7.32598903 22.35199575 5.66194738 21.67834587 4 21 C3.29875 20.72027344 2.5975 20.44054687 1.875 20.15234375 C-3.18974201 18.03918281 -6.96529155 15.72434626 -11 12 C-10.34 11.67 -9.68 11.34 -9 11 C-6.5249829 12.11431765 -4.32116581 13.58150978 -2 15 C-2.66 12.69 -3.32 10.38 -4 8 C-2.35 7.67 -0.7 7.34 1 7 C0.67 4.69 0.34 2.38 0 0 Z " fill="#C36955" transform="translate(70,72)"/>
<path d="M0 0 C3.79539857 5.69309786 4.44410008 11.33849874 4 18 C3.34 18.99 2.68 19.98 2 21 C0.35 21 -1.3 21 -3 21 C-3 17.04 -3 13.08 -3 9 C-1.68 9 -0.36 9 1 9 C1 8.01 1 7.02 1 6 C0.34 6 -0.32 6 -1 6 C-1.042721 4.33388095 -1.04063832 2.66617115 -1 1 C-0.67 0.67 -0.34 0.34 0 0 Z " fill="#7A5D64" transform="translate(125,59)"/>
<path d="M0 0 C3.3540643 1.57221764 5.41732604 3.33661748 8 6 C8.7425 6.53625 9.485 7.0725 10.25 7.625 C10.8275 8.07875 11.405 8.5325 12 9 C12 9.66 12 10.32 12 11 C8.91111478 13.05925681 8.29064073 13.2390374 4.8125 13.125 C2.9253125 13.063125 2.9253125 13.063125 1 13 C-0.9078584 9.8250906 -1.1609041 7.89414789 -0.625 4.25 C-0.51414062 3.45078125 -0.40328125 2.6515625 -0.2890625 1.828125 C-0.19367188 1.22484375 -0.09828125 0.6215625 0 0 Z " fill="#F0E7D4" transform="translate(75,35)"/>
<path d="M0 0 C0.33 0.99 0.66 1.98 1 3 C0.01 4.485 0.01 4.485 -1 6 C-2.96070461 6.29410569 -4.92459995 6.57900763 -6.8984375 6.765625 C-9.83872522 7.09353813 -12.30592774 7.78125303 -15 9 C-16.18330183 10.86644906 -16.18330183 10.86644906 -17 13 C-18.8125 15.3125 -18.8125 15.3125 -21 17 C-23.6875 16.875 -23.6875 16.875 -26 16 C-26.33 15.34 -26.66 14.68 -27 14 C-24.69 13.34 -22.38 12.68 -20 12 C-20 11.34 -20 10.68 -20 10 C-14.13070385 4.80463138 -8.66929578 2.21734854 -1 1 C-0.67 0.67 -0.34 0.34 0 0 Z " fill="#F8CC82" transform="translate(102,105)"/>
<path d="M0 0 C1.875 0.390625 1.875 0.390625 3.875 2.140625 C4.875 4.390625 4.875 4.390625 4.875 8.390625 C-2.50961538 8.88293269 -2.50961538 8.88293269 -5.625 6.390625 C-6.12 5.730625 -6.615 5.070625 -7.125 4.390625 C-7.455 5.710625 -7.785 7.030625 -8.125 8.390625 C-9.14060704 5.80544345 -9.27215729 4.7438025 -8.1875 2.140625 C-5.44177324 -0.18908255 -3.52128719 -0.18124272 0 0 Z " fill="#A4A6B3" transform="translate(110.125,21.609375)"/>
<path d="M0 0 C1.91796875 0.03515625 1.91796875 0.03515625 4 1 C5.73828125 3.43359375 5.73828125 3.43359375 7.3125 6.4375 C8.11107422 7.92056641 8.11107422 7.92056641 8.92578125 9.43359375 C9.28027344 10.28050781 9.63476562 11.12742187 10 12 C9.67 12.66 9.34 13.32 9 14 C7.27473958 12.99088542 5.54947917 11.98177083 3.82421875 10.97265625 C1.86180445 9.86098753 1.86180445 9.86098753 -1 9 C-3 6 -3 6 -2.75 3.9375 C-2 2 -2 2 0 0 Z " fill="#F2B975" transform="translate(59,74)"/>
<path d="M0 0 C0 0.99 0 1.98 0 3 C-0.99 3 -1.98 3 -3 3 C-3 3.66 -3 4.32 -3 5 C-3.99 5 -4.98 5 -6 5 C-6 5.66 -6 6.32 -6 7 C-9.32534757 8.10844919 -11.62182575 7.84454356 -15 7 C-15.33 7.66 -15.66 8.32 -16 9 C-15.9375 6.75 -15.9375 6.75 -15 4 C-9.8411803 0.10456472 -6.3717253 -0.44713862 0 0 Z " fill="#F6E8CA" transform="translate(44,102)"/>
<path d="M0 0 C1.84227864 0.2388139 3.68414884 0.48134293 5.5234375 0.7421875 C10.00489549 1.20871152 14.50001617 1.07444826 19 1 C19 1.66 19 2.32 19 3 C17.205625 3.1546875 17.205625 3.1546875 15.375 3.3125 C12.33965851 3.67588595 10.68789187 4.15605407 7.875 5.5625 C4.65195257 7.17402372 2.55374607 7.25383901 -1 7 C-1.04254356 5.00045254 -1.04080783 2.99958364 -1 1 C-0.67 0.67 -0.34 0.34 0 0 Z " fill="#F8CA7F" transform="translate(47,99)"/>
<path d="M0 0 C1.10988281 -0.00257812 2.21976563 -0.00515625 3.36328125 -0.0078125 C6.55551125 0.11972665 9.55258827 0.52742227 12.6875 1.125 C9.84763984 3.96486016 6.76261011 3.79333543 2.9375 4.1875 C1.52591486 4.34391191 0.11445373 4.50144735 -1.296875 4.66015625 C-2.31297852 4.77254639 -2.31297852 4.77254639 -3.34960938 4.88720703 C-6.0198588 5.21069247 -8.66465761 5.65455002 -11.3125 6.125 C-10.5 3.6875 -10.5 3.6875 -9.3125 1.125 C-5.9991459 0.02054863 -3.48554805 -0.00804048 0 0 Z " fill="#A9C5CF" transform="translate(16.3125,57.875)"/>
<path d="M0 0 C0.66 0 1.32 0 2 0 C2.433125 1.2065625 2.433125 1.2065625 2.875 2.4375 C3.73262568 5.1326468 3.73262568 5.1326468 6 6 C6 6.66 6 7.32 6 8 C7.670625 8.433125 7.670625 8.433125 9.375 8.875 C13 10 13 10 15 12 C14.67 12.66 14.34 13.32 14 14 C14.99 14 15.98 14 17 14 C17 14.66 17 15.32 17 16 C9.70806235 15.15210027 5.9792617 12.25588735 1 7 C0.67 6.67 0.34 6.34 0 6 C-0.04080783 4.00041636 -0.04254356 1.99954746 0 0 Z " fill="#EA9B63" transform="translate(73,83)"/>
<path d="M0 0 C3.375 -0.125 3.375 -0.125 7 0 C7.66 0.66 8.32 1.32 9 2 C10.64991582 2.70710678 12.31562256 3.37943989 14 4 C13.01 4.33 12.02 4.66 11 5 C11 6.32 11 7.64 11 9 C4.25 10.125 4.25 10.125 2 9 C1.67 9.66 1.34 10.32 1 11 C0.01 9.68 -0.98 8.36 -2 7 C0.64 7 3.28 7 6 7 C6 6.34 6 5.68 6 5 C4.68 4.67 3.36 4.34 2 4 C2 3.34 2 2.68 2 2 C1.34 2 0.68 2 0 2 C0 1.34 0 0.68 0 0 Z " fill="#EEDAAE" transform="translate(27,69)"/>
<path d="M0 0 C0.33 0.66 0.66 1.32 1 2 C2.88263881 2.90343684 2.88263881 2.90343684 5.0625 3.625 C5.79597656 3.88539062 6.52945313 4.14578125 7.28515625 4.4140625 C8.13400391 4.70410156 8.13400391 4.70410156 9 5 C6.29120665 6.35439668 3.99066732 6.06501451 1 6 C1 5.34 1 4.68 1 4 C-5.6 3.67 -12.2 3.34 -19 3 C-19.33 3.66 -19.66 4.32 -20 5 C-20.66 3.68 -21.32 2.36 -22 1 C-19.45847098 0.83096719 -16.91681012 0.66470573 -14.375 0.5 C-13.30572266 0.42845703 -13.30572266 0.42845703 -12.21484375 0.35546875 C-8.13492439 0.09345558 -4.09108781 -0.05162256 0 0 Z " fill="#9C989C" transform="translate(43,62)"/>
<path d="M0 0 C1.051875 0.185625 2.10375 0.37125 3.1875 0.5625 C6.57119882 0.95079331 8.76425888 0.88247485 12 0 C11.64950425 3.24208567 11.43778819 4.61527704 8.9375 6.8125 C8.298125 7.204375 7.65875 7.59625 7 8 C7.99 8.66 8.98 9.32 10 10 C10 10.66 10 11.32 10 12 C4.97050156 10.56300045 2.92172415 8.17389165 0 4 C0 2.68 0 1.36 0 0 Z " fill="#74767F" transform="translate(74,29)"/>
<path d="M0 0 C-3.75 3 -3.75 3 -6 3 C-6.33 4.98 -6.66 6.96 -7 9 C-8.65 8.01 -10.3 7.02 -12 6 C-12 6.66 -12 7.32 -12 8 C-14.475 7.01 -14.475 7.01 -17 6 C-17 4.68 -17 3.36 -17 2 C-11.23918159 0.7017874 -5.91260345 -0.25706972 0 0 Z " fill="#ABC3D0" transform="translate(78,58)"/>
<path d="M0 0 C0.66 0 1.32 0 2 0 C2 1.65 2 3.3 2 5 C4.97 5.495 4.97 5.495 8 6 C7.67 6.66 7.34 7.32 7 8 C4.6693782 8.35179197 2.33564933 8.68330179 0 9 C-2.23408113 9.99083967 -2.23408113 9.99083967 -4 11 C-6.22568901 11 -7.90006779 10.74513723 -10 10 C-10.33 9.01 -10.66 8.02 -11 7 C-7.535 6.505 -7.535 6.505 -4 6 C-4.33 5.34 -4.66 4.68 -5 4 C-3.68 4 -2.36 4 -1 4 C-0.67 2.68 -0.34 1.36 0 0 Z " fill="#A6999C" transform="translate(91,50)"/>
<path d="M0 0 C2 2 2 2 2.125 4.625 C2.08375 5.40875 2.0425 6.1925 2 7 C-4.625 9.125 -4.625 9.125 -8 8 C-8.36075949 3.55063291 -8.36075949 3.55063291 -6.8125 1.1875 C-4.3864306 -0.40199375 -2.84602594 -0.36487512 0 0 Z " fill="#EFDAB4" transform="translate(18,107)"/>
<path d="M0 0 C1.32 0.33 2.64 0.66 4 1 C4 3.31 4 5.62 4 8 C4.7425 8.28875 5.485 8.5775 6.25 8.875 C8.56739797 9.82302644 10.77917115 10.84845911 13 12 C13 12.66 13 13.32 13 14 C7.25 14.125 7.25 14.125 5 13 C5 12.34 5 11.68 5 11 C4.360625 10.690625 3.72125 10.38125 3.0625 10.0625 C1 9 1 9 0 8 C-0.14115161 5.32941149 -0.04247107 2.67567762 0 0 Z " fill="#BDB4BA" transform="translate(52,86)"/>
<path d="M0 0 C2.96175123 0.61277612 4.38058783 1.25372522 7 3 C7 3.99 7 4.98 7 6 C7.99 6.33 8.98 6.66 10 7 C9.67 7.66 9.34 8.32 9 9 C7.68 8.34 6.36 7.68 5 7 C5 7.66 5 8.32 5 9 C2.05238311 8.36836781 -0.32766212 7.37665891 -3 6 C-4.66140763 5.32033324 -6.32700041 4.65061095 -8 4 C-4.67465243 2.89155081 -2.37817425 3.15545644 1 4 C0.67 2.68 0.34 1.36 0 0 Z " fill="#E3945F" transform="translate(75,96)"/>
<path d="M0 0 C1.32 0 2.64 0 4 0 C4 0.66 4 1.32 4 2 C4.66 2 5.32 2 6 2 C5.4740625 2.804375 5.4740625 2.804375 4.9375 3.625 C3.71075751 6.73274763 4.27143569 8.79431703 5 12 C-0.875 10.125 -0.875 10.125 -2 9 C-2.26293056 4.96839809 -2.29404844 3.44107266 0 0 Z " fill="#BDC9D5" transform="translate(53,71)"/>
<path d="M0 0 C1.98 0.99 3.96 1.98 6 3 C6 3.66 6 4.32 6 5 C6.66 5 7.32 5 8 5 C8.33 7.31 8.66 9.62 9 12 C7.02 12.33 5.04 12.66 3 13 C0.525 9.04 0.525 9.04 -2 5 C-0.02 5.66 1.96 6.32 4 7 C2.6910428 3.87802522 2.6910428 3.87802522 0 2 C0 1.34 0 0.68 0 0 Z " fill="#AC435F" transform="translate(62,67)"/>
<path d="M0 0 C0.625 1.8125 0.625 1.8125 1 4 C0.01 5.485 0.01 5.485 -1 7 C-1.144375 7.825 -1.28875 8.65 -1.4375 9.5 C-2.06232745 12.27701087 -2.84298978 13.21812199 -5 15 C-5.66 14.67 -6.32 14.34 -7 14 C-6.34 11.36 -5.68 8.72 -5 6 C-5.99 5.67 -6.98 5.34 -8 5 C-3.16129032 0 -3.16129032 0 0 0 Z " fill="#E6C48F" transform="translate(45,85)"/>
<path d="M0 0 C0.33 0 0.66 0 1 0 C1 2.31 1 4.62 1 7 C-0.41543415 7.19658808 -1.83244031 7.38187546 -3.25 7.5625 C-4.03890625 7.66691406 -4.8278125 7.77132812 -5.640625 7.87890625 C-8.02602928 8.00133594 -9.71994334 7.64601605 -12 7 C-13.66623639 6.96213099 -15.33397597 6.95372155 -17 7 C-13.07907648 3.53149073 -9.41323411 2.89030754 -4.25 3.125 C-3.5075 3.08375 -2.765 3.0425 -2 3 C-1.34 2.01 -0.68 1.02 0 0 Z " fill="#E9A567" transform="translate(128,77)"/>
<path d="M0 0 C3.3 0.33 6.6 0.66 10 1 C9.67 3.64 9.34 6.28 9 9 C5.37 8.01 1.74 7.02 -2 6 C-0.68 4.68 0.64 3.36 2 2 C1.34 1.34 0.68 0.68 0 0 Z " fill="#DAC09B" transform="translate(33,65)"/>
<path d="M0 0 C3.3 0 6.6 0 10 0 C10.66 1.32 11.32 2.64 12 4 C11.01 3.67 10.02 3.34 9 3 C8.67 3.66 8.34 4.32 8 5 C8.99 5.33 9.98 5.66 11 6 C11 7.32 11 8.64 11 10 C9.35 9.67 7.7 9.34 6 9 C5.375 7.1875 5.375 7.1875 5 5 C5.66 4.01 6.32 3.02 7 2 C5.68 2 4.36 2 3 2 C3 2.66 3 3.32 3 4 C2.01 3.67 1.02 3.34 0 3 C0 2.01 0 1.02 0 0 Z " fill="#A17D84" transform="translate(91,60)"/>
<path d="M0 0 C1.5778125 0.1546875 1.5778125 0.1546875 3.1875 0.3125 C3.5175 1.3025 3.8475 2.2925 4.1875 3.3125 C3.0428125 3.7146875 3.0428125 3.7146875 1.875 4.125 C-0.68630884 5.25674112 -2.00942938 6.22473401 -3.8125 8.3125 C-4.8025 7.6525 -5.7925 6.9925 -6.8125 6.3125 C-7.4725 5.9825 -8.1325 5.6525 -8.8125 5.3125 C-5.88314862 1.76177106 -4.6956049 0.38488565 0 0 Z " fill="#EEA264" transform="translate(48.8125,104.6875)"/>
<path d="M0 0 C0.33 0.99 0.66 1.98 1 3 C3.50447516 4.21869929 3.50447516 4.21869929 6 5 C6.33 4.34 6.66 3.68 7 3 C10 7.625 10 7.625 10 11 C9.34 11 8.68 11 8 11 C7.54496094 10.53851563 7.08992188 10.07703125 6.62109375 9.6015625 C4.81922855 7.82140652 3.43705307 7.20449838 1.0625 6.375 C0.39347656 6.13523437 -0.27554688 5.89546875 -0.96484375 5.6484375 C-2.96183642 5.01215961 -4.96112475 4.48349167 -7 4 C-7 3.34 -7 2.68 -7 2 C-5.02 2 -3.04 2 -1 2 C-0.67 1.34 -0.34 0.68 0 0 Z " fill="#8A8188" transform="translate(60,61)"/>
<path d="M0 0 C0.57816112 2.23005002 1.06687027 4.4107745 1.4375 6.6875 C1.7159375 7.8321875 1.7159375 7.8321875 2 9 C2.66 9.33 3.32 9.66 4 10 C4 10.66 4 11.32 4 12 C4.99 12.33 5.98 12.66 7 13 C2.51494214 15.24252893 -2.07035139 15.09665978 -7 15 C-5.68 14.34 -4.36 13.68 -3 13 C-3.33 12.01 -3.66 11.02 -4 10 C-3.01 10 -2.02 10 -1 10 C-1.020625 8.72125 -1.04125 7.4425 -1.0625 6.125 C-1.125 2.25 -1.125 2.25 0 0 Z " fill="#DB8F5F" transform="translate(43,66)"/>
<path d="M0 0 C0.66 0.33 1.32 0.66 2 1 C1.67 1.99 1.34 2.98 1 4 C1.99 4 2.98 4 4 4 C3.75390625 5.890625 3.75390625 5.890625 3 8 C1.15234375 9.046875 1.15234375 9.046875 -1.0625 9.75 C-2.16271484 10.11351563 -2.16271484 10.11351563 -3.28515625 10.484375 C-4.13400391 10.73960938 -4.13400391 10.73960938 -5 11 C-6.32 9.68 -7.64 8.36 -9 7 C-6.16032769 7 -3.76264289 7.40267181 -1 8 C-1 7.34 -1 6.68 -1 6 C-1.66 6 -2.32 6 -3 6 C-2.625 3.5625 -2.625 3.5625 -2 1 C-1.34 0.67 -0.68 0.34 0 0 Z " fill="#D28C5F" transform="translate(79,109)"/>
<path d="M0 0 C2.97851562 0.1953125 2.97851562 0.1953125 5.95703125 0.390625 C6.58203125 2.265625 6.58203125 2.265625 6.95703125 4.390625 C6.29703125 5.050625 5.63703125 5.710625 4.95703125 6.390625 C2.57421875 6.1484375 2.57421875 6.1484375 -0.16796875 5.515625 C-1.53308594 5.21011719 -1.53308594 5.21011719 -2.92578125 4.8984375 C-3.62445313 4.73085938 -4.323125 4.56328125 -5.04296875 4.390625 C-2.61517882 0.50003419 -2.61517882 0.50003419 0 0 Z " fill="#B3CEE0" transform="translate(78.04296875,20.609375)"/>
<path d="M0 0 C2.88395737 1.44197868 4.76525152 3.70644235 7 6 C6.67 6.99 6.34 7.98 6 9 C4.68 9 3.36 9 2 9 C1.67 9.66 1.34 10.32 1 11 C-0.5625 9.25 -0.5625 9.25 -2 7 C-1.75 4.9375 -1.75 4.9375 -1 3 C-0.67 2.01 -0.34 1.02 0 0 Z " fill="#68606D" transform="translate(103,26)"/>
<path d="M0 0 C2.31 0.66 4.62 1.32 7 2 C6 5 6 5 3.75 6.75 C0.58923143 8.18671298 -0.74770785 8.02214896 -4 7 C-4 5.68 -4 4.36 -4 3 C-2.68 2.67 -1.36 2.34 0 2 C0 1.34 0 0.68 0 0 Z " fill="#211014" transform="translate(85,59)"/>
<path d="M0 0 C2.33944736 0.28730055 4.6739143 0.61936779 7 1 C7 2.32 7 3.64 7 5 C5.68 5.33 4.36 5.66 3 6 C2.67 7.65 2.34 9.3 2 11 C-1.03333922 7.96666078 -0.6646334 5.2256192 -1 1 C-0.67 0.67 -0.34 0.34 0 0 Z " fill="#AA625B" transform="translate(68,104)"/>
<path d="M0 0 C-0.99 0.66 -1.98 1.32 -3 2 C-3.72382467 4.05925139 -3.72382467 4.05925139 -4 6 C-6.75 6.6875 -6.75 6.6875 -10 7 C-12.375 5.5625 -12.375 5.5625 -14 4 C-12.02 3.34 -10.04 2.68 -8 2 C-8 1.34 -8 0.68 -8 0 C-2.25 -1.125 -2.25 -1.125 0 0 Z " fill="#CD8C65" transform="translate(61,106)"/>
<path d="M0 0 C0.99 0 1.98 0 3 0 C4.35439668 2.70879335 4.06501451 5.00933268 4 8 C2.02 8.99 2.02 8.99 0 10 C0 8.68 0 7.36 0 6 C-1.32 5.67 -2.64 5.34 -4 5 C-4 4.34 -4 3.68 -4 3 C-3.01 2.67 -2.02 2.34 -1 2 C-0.67 1.34 -0.34 0.68 0 0 Z " fill="#B2C5D2" transform="translate(122,44)"/>
<path d="M0 0 C2.64 0 5.28 0 8 0 C6 2 4 4 2 6 C2.66 6.33 3.32 6.66 4 7 C4.125 12.75 4.125 12.75 3 15 C2.01 14.67 1.02 14.34 0 14 C0.99 12.02 1.98 10.04 3 8 C1.35 7.67 -0.3 7.34 -2 7 C-2 5 -2 5 0 2.875 C0.66 2.25625 1.32 1.6375 2 1 C1.34 0.67 0.68 0.34 0 0 Z " fill="#F3DBAA" transform="translate(36,84)"/>
<path d="M0 0 C1.32 0 2.64 0 4 0 C4.33 2.31 4.66 4.62 5 7 C1.25 10 1.25 10 -1 10 C-0.67 6.7 -0.34 3.4 0 0 Z " fill="#3A0F16" transform="translate(123,69)"/>
<path d="M0 0 C1.9375 0.3125 1.9375 0.3125 4 1 C5 4 5 4 5 7 C5.66 7 6.32 7 7 7 C7 7.99 7 8.98 7 10 C7.66 10.33 8.32 10.66 9 11 C5.47406384 10.34704886 2.77054404 9.3087867 0 7 C-0.3125 3.3125 -0.3125 3.3125 0 0 Z " fill="#F7CE89" transform="translate(56,87)"/>
<path d="M0 0 C0 1.32 0 2.64 0 4 C-3.40562852 4.77842938 -6.50765756 5.09978121 -10 5 C-10 3.68 -10 2.36 -10 1 C-6.52674819 -0.1577506 -3.63932552 -0.06866652 0 0 Z " fill="#D19368" transform="translate(104,101)"/>
<path d="M0 0 C2.4375 1.875 2.4375 1.875 4 4 C4 4.66 4 5.32 4 6 C2.68 5.67 1.36 5.34 0 5 C0 4.34 0 3.68 0 3 C-6.435 3.495 -6.435 3.495 -13 4 C-8.81237833 -0.18762167 -5.80184814 -0.50893405 0 0 Z " fill="#CE7A56" transform="translate(101,57)"/>
<path d="M0 0 C4.77472663 1.90989065 8.73072657 4.08913175 13 7 C13.99 7.33 14.98 7.66 16 8 C15.67 8.66 15.34 9.32 15 10 C8.5915493 9.50704225 8.5915493 9.50704225 5.8125 7.125 C4.9153125 6.073125 4.9153125 6.073125 4 5 C3.2575 4.46375 2.515 3.9275 1.75 3.375 C1.1725 2.92125 0.595 2.4675 0 2 C0 1.34 0 0.68 0 0 Z " fill="#DB8D5E" transform="translate(59,86)"/>
<path d="M0 0 C6.52307692 1.47692308 6.52307692 1.47692308 8.9375 4.125 C9.288125 4.74375 9.63875 5.3625 10 6 C6.30458414 6.95024979 3.69541586 6.95024979 0 6 C0 4.02 0 2.04 0 0 Z " fill="#F6E7C9" transform="translate(25,70)"/>
<path d="M0 0 C-1.37592253 3.32514612 -2.75630292 5.33181293 -6 7 C-8.6875 6.4375 -8.6875 6.4375 -11 5 C-11.8125 2.875 -11.8125 2.875 -12 1 C-11.34 1 -10.68 1 -10 1 C-10 1.66 -10 2.32 -10 3 C-8.906875 2.505 -7.81375 2.01 -6.6875 1.5 C-3 0 -3 0 0 0 Z " fill="#D69060" transform="translate(128,84)"/>
<path d="M0 0 C0.66 0.33 1.32 0.66 2 1 C1.01 2.485 1.01 2.485 0 4 C0.58007812 3.84402344 1.16015625 3.68804687 1.7578125 3.52734375 C6.52516927 2.33943802 10.12820288 1.75082125 15 3 C10.17978137 5.49321653 6.4867841 6.39191315 1 6 C-0.9375 4.5 -0.9375 4.5 -2 3 C-1.34 2.01 -0.68 1.02 0 0 Z " fill="#9093A0" transform="translate(5,60)"/>
<path d="M0 0 C2.03833424 1.2739589 4.03852126 2.61061923 6 4 C6 4.66 6 5.32 6 6 C3 8 3 8 0.3125 7.625 C-0.450625 7.41875 -1.21375 7.2125 -2 7 C-1.125 1.125 -1.125 1.125 0 0 Z " fill="#F5DA9E" transform="translate(81,40)"/>
<path d="M0 0 C0.99 0 1.98 0 3 0 C4.28317892 3.84953676 4.06643637 6.94738135 4 11 C2.68 11.33 1.36 11.66 0 12 C0 8 0 4 0 0 Z " fill="#B0A9B1" transform="translate(114,31)"/>
<path d="M0 0 C0.99 0 1.98 0 3 0 C3 3.3 3 6.6 3 10 C3.66 10.33 4.32 10.66 5 11 C4.01 11.495 4.01 11.495 3 12 C2.34 11.67 1.68 11.34 1 11 C1.33 13.31 1.66 15.62 2 18 C1.34 18 0.68 18 0 18 C-1.3899408 15.2201184 -1.18488204 13.0813674 -1 10 C-0.649375 9.34 -0.29875 8.68 0.0625 8 C1.40931964 5.12678476 0.68598023 3.01831302 0 0 Z " fill="#D9895A" transform="translate(72,72)"/>
<path d="M0 0 C0.66 0 1.32 0 2 0 C5.21964531 5.85390057 7 11.26707662 7 18 C4.29120665 19.35439668 1.99066732 19.06501451 -1 19 C-1 18.67 -1 18.34 -1 18 C0.65 18 2.3 18 4 18 C3.61020794 11.44074057 2.57886807 6.05473373 0 0 Z " fill="#DF8C5D" transform="translate(105,63)"/>
<path d="M0 0 C0.99 0 1.98 0 3 0 C3 0.66 3 1.32 3 2 C3.66 2 4.32 2 5 2 C4.67 3.65 4.34 5.3 4 7 C2.02 7 0.04 7 -2 7 C-2.125 4.625 -2.125 4.625 -2 2 C-1.34 1.34 -0.68 0.68 0 0 Z " fill="#D5A985" transform="translate(105,43)"/>
<path d="M0 0 C1.9375 0.875 1.9375 0.875 3.9375 3.875 C3.9375 4.865 3.9375 5.855 3.9375 6.875 C1.9575 6.215 -0.0225 5.555 -2.0625 4.875 C-2.7225 5.535 -3.3825 6.195 -4.0625 6.875 C-4.75 5.0625 -4.75 5.0625 -5.0625 2.875 C-3.53076046 0.53708176 -2.83628547 -0.17189609 0 0 Z " fill="#F5C983" transform="translate(61.0625,74.125)"/>
<path d="M0 0 C0.33 0.99 0.66 1.98 1 3 C2.65 3.33 4.3 3.66 6 4 C5.01 4.495 5.01 4.495 4 5 C4 5.66 4 6.32 4 7 C3.195625 7.12375 2.39125 7.2475 1.5625 7.375 C0.2940625 7.684375 0.2940625 7.684375 -1 8 C-1.33 8.66 -1.66 9.32 -2 10 C-2.1953125 3.9453125 -2.1953125 3.9453125 -2 2 C-1.34 1.34 -0.68 0.68 0 0 Z " fill="#6B313B" transform="translate(96,66)"/>
<path d="M0 0 C0.886875 0.53625 1.77375 1.0725 2.6875 1.625 C2.6875 2.615 2.6875 3.605 2.6875 4.625 C-1.86987263 4.18679109 -4.88903445 3.77458831 -8.3125 0.625 C-4.8011922 -1.33720142 -3.82270308 -1.58678241 0 0 Z " fill="#CD8D68" transform="translate(45.3125,111.375)"/>
<path d="M0 0 C1.41805831 0.28482368 2.83440379 0.57818144 4.25 0.875 C5.03890625 1.03742188 5.8278125 1.19984375 6.640625 1.3671875 C8.96831144 1.99150075 10.89031952 2.84838542 13 4 C10 6 10 6 7.625 5.8125 C4.71464769 4.91167666 2.47769114 3.76977938 0 2 C0 1.34 0 0.68 0 0 Z " fill="#9B334F" transform="translate(103,90)"/>
<path d="M0 0 C2.49415272 0.99766109 3.78740335 1.68616685 5.3125 3.9375 C6 6 6 6 5 9 C4.67 8.34 4.34 7.68 4 7 C3.01 7.33 2.02 7.66 1 8 C-0.32 6.02 -1.64 4.04 -3 2 C-2.01 1.67 -1.02 1.34 0 1 C0 0.67 0 0.34 0 0 Z " fill="#E0A070" transform="translate(104,55)"/>
<path d="M0 0 C1.74627478 2.61941217 2.38722388 4.03824877 3 7 C-0.69418201 8.231394 -3.2056261 7.64432764 -7 7 C-6.34 5.68 -5.68 4.36 -5 3 C-3.68 3 -2.36 3 -1 3 C-0.67 2.01 -0.34 1.02 0 0 Z " fill="#C0ACB6" transform="translate(99,49)"/>
<path d="M0 0 C2.91517292 1.07401108 4.77810176 1.77810176 7 4 C7.66 3.34 8.32 2.68 9 2 C9 3.98 9 5.96 9 8 C7.35 7.67 5.7 7.34 4 7 C4 6.34 4 5.68 4 5 C3.01 4.67 2.02 4.34 1 4 C0.3125 1.9375 0.3125 1.9375 0 0 Z " fill="#B1AAB1" transform="translate(104,34)"/>
<path d="M0 0 C1.32 0 2.64 0 4 0 C4.061875 0.763125 4.12375 1.52625 4.1875 2.3125 C5.2547656 5.84268623 6.8475042 6.30250226 10 8 C10 8.66 10 9.32 10 10 C4.25 8.25 4.25 8.25 2 6 C2.33 5.34 2.66 4.68 3 4 C1.68 3.34 0.36 2.68 -1 2 C-0.67 1.34 -0.34 0.68 0 0 Z " fill="#A3948C" transform="translate(81,35)"/>
<path d="M0 0 C-0.66 1.32 -1.32 2.64 -2 4 C-2.66 4 -3.32 4 -4 4 C-2.74458443 6.51083114 -1.49936512 6.87125446 1 8 C-0.65 8.33 -2.3 8.66 -4 9 C-4 8.34 -4 7.68 -4 7 C-5.32 7.33 -6.64 7.66 -8 8 C-5.73913043 0 -5.73913043 0 0 0 Z " fill="#F1E3C6" transform="translate(38,85)"/>
<path d="M0 0 C3.375 -0.125 3.375 -0.125 7 0 C7.66 0.66 8.32 1.32 9 2 C10.64991582 2.70710678 12.31562256 3.37943989 14 4 C13.01 4.33 12.02 4.66 11 5 C10.67 5.99 10.34 6.98 10 8 C10 7.01 10 6.02 10 5 C7.36 4.67 4.72 4.34 2 4 C2 3.34 2 2.68 2 2 C1.34 2 0.68 2 0 2 C0 1.34 0 0.68 0 0 Z " fill="#F4D79C" transform="translate(27,69)"/>
<path d="M0 0 C1.32 0.33 2.64 0.66 4 1 C4 3.31 4 5.62 4 8 C4.66 8 5.32 8 6 8 C6 8.66 6 9.32 6 10 C3.53199953 8.84826645 1.95216435 7.95216435 0 6 C-0.125 2.875 -0.125 2.875 0 0 Z " fill="#BECCD9" transform="translate(52,86)"/>
<path d="M0 0 C0.66 0.66 1.32 1.32 2 2 C1.67 2.99 1.34 3.98 1 5 C0.34 5 -0.32 5 -1 5 C-1 5.66 -1 6.32 -1 7 C-3.31 6.34 -5.62 5.68 -8 5 C-8 4.01 -8 3.02 -8 2 C-6.35 2.33 -4.7 2.66 -3 3 C-2.67 2.34 -2.34 1.68 -2 1 C-1.34 1.33 -0.68 1.66 0 2 C0 1.34 0 0.68 0 0 Z " fill="#DBC098" transform="translate(20,112)"/>
<path d="M0 0 C4.95 0 9.9 0 15 0 C15.33 0.66 15.66 1.32 16 2 C14.375 3.625 14.375 3.625 12 5 C9.125 4.3125 9.125 4.3125 6 3 C4.88625 2.62875 3.7725 2.2575 2.625 1.875 C1.75875 1.58625 0.8925 1.2975 0 1 C0 0.67 0 0.34 0 0 Z " fill="#B96956" transform="translate(105,90)"/>
<path d="M0 0 C1.98 1.65 3.96 3.3 6 5 C5.67 6.32 5.34 7.64 5 9 C1.83282717 7.41641358 0.26731682 6.54736301 -1.3125 3.3125 C-1.539375 2.549375 -1.76625 1.78625 -2 1 C-1.34 0.67 -0.68 0.34 0 0 Z " fill="#C8CEDA" transform="translate(87,70)"/>
<path d="M0 0 C1.32 0 2.64 0 4 0 C2.75023244 3.65316671 2.32901247 4.78065836 -1 7 C-1.99 7 -2.98 7 -4 7 C-4 6.01 -4 5.02 -4 4 C-3.34 4 -2.68 4 -2 4 C-2 3.34 -2 2.68 -2 2 C-1.34 2 -0.68 2 0 2 C0 1.34 0 0.68 0 0 Z " fill="#DFD8D8" transform="translate(94,62)"/>
<path d="M0 0 C6.0546875 -0.1953125 6.0546875 -0.1953125 8 0 C10 2 10 2 10 5 C8.375 5.8125 8.375 5.8125 6 6 C3.70232365 4.54854104 1.98596134 2.89569037 0 1 C0 0.67 0 0.34 0 0 Z " fill="#90838D" transform="translate(111,42)"/>
<path d="M0 0 C7.50769231 0.49230769 7.50769231 0.49230769 10 3.0625 C10.33 3.701875 10.66 4.34125 11 5 C7.75 5.3125 7.75 5.3125 4 5 C1.5625 2.5 1.5625 2.5 0 0 Z " fill="#9A8583" transform="translate(51,82)"/>
<path d="M0 0 C3.63 0 7.26 0 11 0 C8.58194961 2.41805039 6.07082897 3.52856112 3 5 C2.01 5.495 2.01 5.495 1 6 C0.67 4.02 0.34 2.04 0 0 Z " fill="#D6C2A0" transform="translate(32,81)"/>
<path d="M0 0 C6.80203375 -0.37634203 11.75690073 0.22528921 18 3 C15.29120665 4.35439668 12.99066732 4.06501451 10 4 C10 3.34 10 2.68 10 2 C6.7 1.67 3.4 1.34 0 1 C0 0.67 0 0.34 0 0 Z " fill="#988481" transform="translate(34,64)"/>
<path d="M0 0 C-0.33 1.65 -0.66 3.3 -1 5 C-3.64 5 -6.28 5 -9 5 C-9 4.34 -9 3.68 -9 3 C-3.375 0 -3.375 0 0 0 Z " fill="#696774" transform="translate(86,29)"/>
<path d="M0 0 C3.375 -0.125 3.375 -0.125 7 0 C9 2 9 2 9 5 C5.65626525 4.44271087 2.96687001 3.64826111 0 2 C0 1.34 0 0.68 0 0 Z " fill="#B0CDDD" transform="translate(105,22)"/>
<path d="M0 0 C6.75 1.75 6.75 1.75 9 4 C8.67 4.66 8.34 5.32 8 6 C6.35 6 4.7 6 3 6 C3 5.01 3 4.02 3 3 C2.01 2.67 1.02 2.34 0 2 C0 1.34 0 0.68 0 0 Z " fill="#EE9D6C" transform="translate(68,94)"/>
<path d="M0 0 C3 1 3 1 4.6875 3.9375 C6.52710182 8.53650456 6.26476769 13.12631335 6 18 C5.67 18 5.34 18 5 18 C4.67 14.37 4.34 10.74 4 7 C3.34 7 2.68 7 2 7 C1.34 4.69 0.68 2.38 0 0 Z " fill="#BD6657" transform="translate(103,63)"/>
<path d="M0 0 C4.68136657 2.91003868 6.00343649 5.84230441 7.6171875 10.87890625 C8 13 8 13 7 16 C5.32929296 13.45761972 4.08659872 11.44381843 3.5 8.4375 C2.92227366 5.62108408 1.76425524 4.22449573 0 2 C0 1.34 0 0.68 0 0 Z " fill="#DE8E5E" transform="translate(112,43)"/>
<path d="M0 0 C0.66 0.33 1.32 0.66 2 1 C1.67 1.99 1.34 2.98 1 4 C1.99 4.33 2.98 4.66 4 5 C2.68 5 1.36 5 0 5 C0.515625 5.78375 1.03125 6.5675 1.5625 7.375 C2.036875 8.24125 2.51125 9.1075 3 10 C2.67 10.66 2.34 11.32 2 12 C-1 10 -1 10 -1.58203125 8.125 C-1.65808594 7.42375 -1.73414062 6.7225 -1.8125 6 C-1.90144531 5.29875 -1.99039063 4.5975 -2.08203125 3.875 C-2 2 -2 2 0 0 Z " fill="#F2D7A1" transform="translate(102,46)"/>
<path d="M0 0 C0.66 0.33 1.32 0.66 2 1 C2 1.99 2 2.98 2 4 C2.66 4.33 3.32 4.66 4 5 C2.42972683 6.57027317 0.85730053 6.16974386 -1.3125 6.1875 C-2.09238281 6.20167969 -2.87226562 6.21585937 -3.67578125 6.23046875 C-6 6 -6 6 -10 4 C-7.03 4 -4.06 4 -1 4 C-0.67 2.68 -0.34 1.36 0 0 Z " fill="#D28056" transform="translate(115,85)"/>
<path d="M0 0 C0.391875 0.474375 0.78375 0.94875 1.1875 1.4375 C3.40808374 3.35179633 5.13375709 3.61266988 8 4 C8.33 2.68 8.66 1.36 9 0 C9.125 2.375 9.125 2.375 9 5 C8.34 5.66 7.68 6.32 7 7 C3.70285207 6.67028521 2.3773161 6.3773161 0 4 C0 2.68 0 1.36 0 0 Z " fill="#6C0712" transform="translate(98,73)"/>
<path d="M0 0 C0.66 0.33 1.32 0.66 2 1 C2 1.99 2 2.98 2 4 C-1 6.1875 -1 6.1875 -4 8 C-4.33 6.35 -4.66 4.7 -5 3 C-2.625 1.4375 -2.625 1.4375 0 0 Z " fill="#A89898" transform="translate(78,61)"/>
<path d="M0 0 C1.98 0.66 3.96 1.32 6 2 C6 3.32 6 4.64 6 6 C1.545 5.01 1.545 5.01 -3 4 C-1.68 3.67 -0.36 3.34 1 3 C0.67 2.01 0.34 1.02 0 0 Z " fill="#A9999C" transform="translate(47,61)"/>
<path d="M0 0 C2.35171131 0.59861742 4.6859378 1.26924352 7 2 C7.33 2.66 7.66 3.32 8 4 C4.49223216 5.60355101 1.85645121 6.22036864 -2 6 C-1.34 5.34 -0.68 4.68 0 4 C0 2.68 0 1.36 0 0 Z " fill="#70717C" transform="translate(66,54)"/>
<path d="M0 0 C0.77730469 0.23203125 1.55460937 0.4640625 2.35546875 0.703125 C3.54076172 1.03570312 3.54076172 1.03570312 4.75 1.375 C5.34167969 1.56578125 5.93335937 1.7565625 6.54296875 1.953125 C6.21296875 2.613125 5.88296875 3.273125 5.54296875 3.953125 C1.25296875 3.953125 -3.03703125 3.953125 -7.45703125 3.953125 C-2.45703125 -0.046875 -2.45703125 -0.046875 0 0 Z " fill="#DFA677" transform="translate(60.45703125,102.046875)"/>
<path d="M0 0 C0.33 0 0.66 0 1 0 C1 1.98 1 3.96 1 6 C2.32 6.33 3.64 6.66 5 7 C-2.75 6.25 -2.75 6.25 -5 4 C-4.67 3.34 -4.34 2.68 -4 2 C-3.01 2 -2.02 2 -1 2 C-0.67 1.34 -0.34 0.68 0 0 Z " fill="#E3935F" transform="translate(121,74)"/>
<path d="M0 0 C0.4125 0.45375 0.825 0.9075 1.25 1.375 C3.06408095 3.05950374 4.75285627 3.99265971 7 5 C5.35 5 3.7 5 2 5 C1.67 6.65 1.34 8.3 1 10 C0.01 10.33 -0.98 10.66 -2 11 C-1.67 10.01 -1.34 9.02 -1 8 C-0.34 8 0.32 8 1 8 C0.67 5.36 0.34 2.72 0 0 Z " fill="#764C53" transform="translate(79,57)"/>
<path d="M0 0 C0.66 0 1.32 0 2 0 C1.731875 0.886875 1.46375 1.77375 1.1875 2.6875 C0.60690249 6.20542015 0.60690249 6.20542015 3.4375 8.875 C4.283125 9.57625 5.12875 10.2775 6 11 C3.0280615 9.87548273 0.66559313 8.77706209 -2 7 C-1.42415568 4.61435923 -0.77772405 2.33317216 0 0 Z " fill="#AA695C" transform="translate(83,67)"/>
<path d="M0 0 C2.60704898 2.60704898 2.23905333 4.47338241 2.265625 8.02734375 C2 10 2 10 0 13 C-2.625 13.1875 -2.625 13.1875 -5 13 C-4.175 12.525625 -3.35 12.05125 -2.5 11.5625 C0.34074545 8.65073592 0.34293183 8.11484254 0.3125 4.25 C0.23243845 2.83176684 0.13595863 1.41396973 0 0 Z " fill="#945C60" transform="translate(127,67)"/>
<path d="M0 0 C1.32 0.33 2.64 0.66 4 1 C4 2.65 4 4.3 4 6 C2.35 6 0.7 6 -1 6 C-1.33 5.01 -1.66 4.02 -2 3 C-1.34 3 -0.68 3 0 3 C0 2.01 0 1.02 0 0 Z " fill="#C8C3CC" transform="translate(95,47)"/>
<path d="M0 0 C1.32 0 2.64 0 4 0 C4.66 0.99 5.32 1.98 6 3 C4 5 4 5 0.375 5.125 C-0.73875 5.08375 -1.8525 5.0425 -3 5 C-1.68 4.34 -0.36 3.68 1 3 C0.67 2.01 0.34 1.02 0 0 Z " fill="#DC9C69" transform="translate(39,76)"/>
<path d="M0 0 C0.99 0 1.98 0 3 0 C3.625 1.8125 3.625 1.8125 4 4 C3.01 5.485 3.01 5.485 2 7 C1.34 7 0.68 7 0 7 C-1.125 2.25 -1.125 2.25 0 0 Z " fill="#AD445E" transform="translate(95,74)"/>
<path d="M0 0 C0 1.65 0 3.3 0 5 C-1.98 5.99 -1.98 5.99 -4 7 C-4 5.02 -4 3.04 -4 1 C-2 0 -2 0 0 0 Z " fill="#C6C9D5" transform="translate(126,47)"/>
<path d="M0 0 C0.33 0 0.66 0 1 0 C1.66 3.63 2.32 7.26 3 11 C0.97954558 10.39816251 -1.02111039 9.72693904 -3 9 C-3.33 8.34 -3.66 7.68 -4 7 C-3.01 7 -2.02 7 -1 7 C-0.67 4.69 -0.34 2.38 0 0 Z " fill="#AD8778" transform="translate(93,71)"/>
<path d="M0 0 C1.4370809 -0.05422947 2.87475462 -0.09289723 4.3125 -0.125 C5.11300781 -0.14820312 5.91351563 -0.17140625 6.73828125 -0.1953125 C9 0 9 0 12 2 C8.37 2.33 4.74 2.66 1 3 C0.67 2.01 0.34 1.02 0 0 Z " fill="#F8EED6" transform="translate(24,65)"/>
<path d="M0 0 C3.63 0 7.26 0 11 0 C11 0.99 11 1.98 11 3 C9.02 3 7.04 3 5 3 C5 2.67 5 2.34 5 2 C3.35 1.67 1.7 1.34 0 1 C0 0.67 0 0.34 0 0 Z " fill="#BDB1BB" transform="translate(23,58)"/>
<path d="M0 0 C0 0.99 0 1.98 0 3 C-4.455 2.01 -4.455 2.01 -9 1 C-4.82091936 -1.08954032 -4.19589427 -1.16552619 0 0 Z " fill="#BACFE1" transform="translate(95,47)"/>
<path d="M0 0 C2.31 0 4.62 0 7 0 C7 0.99 7 1.98 7 3 C6.34 3 5.68 3 5 3 C5 3.99 5 4.98 5 6 C4.34 6 3.68 6 3 6 C2 4 1 2 0 0 Z " fill="#CC7547" transform="translate(84,91)"/>
<path d="M0 0 C-2.90092502 1.93395001 -3.89674737 2.30131941 -7.1875 2.625 C-8.445625 2.74875 -9.70375 2.8725 -11 3 C-7.18178484 -0.02823961 -4.81391924 -1.49397494 0 0 Z " fill="#FACC7F" transform="translate(122,81)"/>
<path d="M0 0 C2.64 0 5.28 0 8 0 C8 0.99 8 1.98 8 3 C7.01 3 6.02 3 5 3 C5 3.66 5 4.32 5 5 C4.34 4.67 3.68 4.34 3 4 C3.33 3.34 3.66 2.68 4 2 C2.68 1.34 1.36 0.68 0 0 Z " fill="#F5E4C3" transform="translate(36,102)"/>
<path d="M0 0 C3.63 0.33 7.26 0.66 11 1 C6.46780033 3.26609984 4.82227075 2.92735976 0 2 C0 1.34 0 0.68 0 0 Z " fill="#E1915E" transform="translate(48,98)"/>
<path d="M0 0 C5.75 1.875 5.75 1.875 8 3 C8 3.66 8 4.32 8 5 C4.75791433 4.64950425 3.38472296 4.43778819 1.1875 1.9375 C0.795625 1.298125 0.40375 0.65875 0 0 Z " fill="#B86557" transform="translate(59,83)"/>
<path d="M0 0 C2.31 0.33 4.62 0.66 7 1 C7 1.66 7 2.32 7 3 C2.25 4.125 2.25 4.125 0 3 C0 2.01 0 1.02 0 0 Z " fill="#ECD095" transform="translate(29,78)"/>
<path d="M0 0 C3.44184294 1.14728098 4.08007717 2.03284654 6 5 C6.33 5.99 6.66 6.98 7 8 C5.68 8 4.36 8 3 8 C2.01 5.36 1.02 2.72 0 0 Z " fill="#A89FA9" transform="translate(67,64)"/>
<path d="M0 0 C0.99 0.495 0.99 0.495 2 1 C2 1.66 2 2.32 2 3 C2.66 3 3.32 3 4 3 C3.67 4.65 3.34 6.3 3 8 C1.5 6.8125 1.5 6.8125 0 5 C-0.1875 2.3125 -0.1875 2.3125 0 0 Z " fill="#F1AC6E" transform="translate(107,61)"/>
<path d="M0 0 C0.66 0 1.32 0 2 0 C2.33 1.32 2.66 2.64 3 4 C3.66 4 4.32 4 5 4 C4.67 4.66 4.34 5.32 4 6 C2.35 5.67 0.7 5.34 -1 5 C-0.67 3.35 -0.34 1.7 0 0 Z " fill="#97807A" transform="translate(110,46)"/>
<path d="M0 0 C1.65 1.65 3.3 3.3 5 5 C4.01 6.485 4.01 6.485 3 8 C0.37613513 4.93882432 0 4.26826873 0 0 Z " fill="#6D7480" transform="translate(101,29)"/>
<path d="M0 0 C2.0625 0.4375 2.0625 0.4375 4 1 C3.67 2.32 3.34 3.64 3 5 C2.01 5 1.02 5 0 5 C-0.5625 3.0625 -0.5625 3.0625 -1 1 C-0.67 0.67 -0.34 0.34 0 0 Z " fill="#AB445F" transform="translate(68,104)"/>
<path d="M0 0 C0.99 0.33 1.98 0.66 3 1 C3 1.66 3 2.32 3 3 C3.99 3 4.98 3 6 3 C6 3.66 6 4.32 6 5 C3.03 4.505 3.03 4.505 0 4 C0 2.68 0 1.36 0 0 Z " fill="#E28F5E" transform="translate(84,94)"/>
<path d="M0 0 C0.33 0.66 0.66 1.32 1 2 C1.99 2 2.98 2 4 2 C3.34 3.32 2.68 4.64 2 6 C1.01 5.67 0.02 5.34 -1 5 C-0.67 3.35 -0.34 1.7 0 0 Z " fill="#EDAA6A" transform="translate(59,78)"/>
<path d="M0 0 C0.99 0.66 1.98 1.32 3 2 C1.68 2.33 0.36 2.66 -1 3 C-1 3.66 -1 4.32 -1 5 C-2.32 5.33 -3.64 5.66 -5 6 C-5.33 5.34 -5.66 4.68 -6 4 C-5.01 3.67 -4.02 3.34 -3 3 C-1.33289654 1.50014391 -1.33289654 1.50014391 0 0 Z " fill="#DFD3C0" transform="translate(44,97)"/>
<path d="M0 0 C3 2 3 2 3.6875 5.125 C3.8421875 6.548125 3.8421875 6.548125 4 8 C3.34 8 2.68 8 2 8 C0 2.25 0 2.25 0 0 Z " fill="#6F6C76" transform="translate(66,64)"/>
</svg>
