<?xml version="1.0" encoding="UTF-8"?>
<svg version="1.1" xmlns="http://www.w3.org/2000/svg" width="150" height="150">
<path d="M0 0 C2.29013653 3.4352048 2.17842973 4.985331 2 9 C0.68 9.66 -0.64 10.32 -2 11 C-2 11.99 -2 12.98 -2 14 C-1.45472656 14.27972656 -0.90945312 14.55945312 -0.34765625 14.84765625 C4.88020626 17.62691307 9.41828467 20.74391794 13.95703125 24.546875 C18.06599398 27.46950241 22.07234559 27.09476258 27 27 C27 24.69 27 22.38 27 20 C27.556875 20.309375 28.11375 20.61875 28.6875 20.9375 C32.48163284 22.68075022 34.99451099 23.335163 39 22 C41.86358399 23.99205843 42.04219891 25.23017587 42.6875 28.75 C42.94439681 31.44247622 42.98357032 33.96935097 42.9375 36.6875 C42.77266797 39.88919864 42.77266797 39.88919864 43.9921875 42.11328125 C45.43736452 46.25276117 45.25078398 50.15005937 45.1875 54.5 C45.1865332 55.76263672 45.1865332 55.76263672 45.18554688 57.05078125 C45.15645648 61.15575858 45.02520722 64.99759101 44 69 C45.485 69.99 45.485 69.99 47 71 C46.93970033 72.91752953 46.85083293 74.83417426 46.75 76.75 C46.70359375 77.81734375 46.6571875 78.8846875 46.609375 79.984375 C45.8857343 83.5654687 44.83438869 84.7650924 42 87 C38.30933813 88.23022062 35.73814301 87.81752376 32 87 C32.6496875 87.45890625 33.299375 87.9178125 33.96875 88.390625 C34.8040625 89.00421875 35.639375 89.6178125 36.5 90.25 C37.3353125 90.85328125 38.170625 91.4565625 39.03125 92.078125 C40.00578125 93.02945313 40.00578125 93.02945313 41 94 C41 95.32 41 96.64 41 98 C33.37521605 98.77452659 27.84700397 97.09222225 20.8828125 93.99609375 C17.91459528 92.97049024 16.81793495 92.72818865 14 94 C12.31126121 95.64429829 10.64694485 97.31384218 9 99 C7.989375 99.639375 6.97875 100.27875 5.9375 100.9375 C2.87076032 102.82598675 2.87076032 102.82598675 1.125 105.8125 C-3.13149304 112.19723956 -8.31431625 116.28070097 -15.62890625 118.58984375 C-22.0627794 119.70278721 -26.48405405 118.74921622 -32.125 115.625 C-34.41099755 114.40514013 -36.70333759 113.19991109 -39 112 C-39.80695312 111.52046875 -40.61390625 111.0409375 -41.4453125 110.546875 C-45.47709486 109.68380232 -48.31926906 111.71290166 -51.75 113.625 C-53.17920411 114.37722123 -54.60888857 115.12853055 -56.0390625 115.87890625 C-57.06435059 116.42828857 -57.06435059 116.42828857 -58.11035156 116.98876953 C-67.65148622 122.09463255 -67.65148622 122.09463255 -72.5625 121.75 C-73.7690625 121.37875 -73.7690625 121.37875 -75 121 C-75 119.68 -75 118.36 -75 117 C-71.9584464 114.13224946 -68.56734608 112.14040765 -65 110 C-64.3296875 109.42121094 -63.659375 108.84242188 -62.96875 108.24609375 C-58.89978828 105.16760298 -54.52105904 102.9084915 -50 100.5625 C-49.06897461 100.07531494 -48.13794922 99.58812988 -47.17871094 99.08618164 C-40.9745671 95.88794227 -34.81731628 93.14947284 -28.203125 90.90234375 C-25.83257832 90.2136507 -25.83257832 90.2136507 -25 88 C-25.95420592 84.87170137 -27.03861286 81.82710107 -28.17382812 78.76171875 C-29.61267727 74.70714665 -30.50392249 71.30223829 -30 67 C-27.42557346 64.42557346 -25.52577158 63.06255392 -21.80859375 62.91015625 C-17.29084467 63.33058975 -13.2849927 64.51010311 -9 66 C-9.2165625 64.86820312 -9.433125 63.73640625 -9.65625 62.5703125 C-9.93759545 61.08855979 -10.21884023 59.60678796 -10.5 58.125 C-10.64308594 57.37863281 -10.78617187 56.63226563 -10.93359375 55.86328125 C-12 50.2265625 -12 50.2265625 -12 48 C-14.97 48 -17.94 48 -21 48 C-21.33 46.35 -21.66 44.7 -22 43 C-16.25 38 -16.25 38 -14 38 C-14.474375 37.2575 -14.94875 36.515 -15.4375 35.75 C-16.77869327 33.38949985 -17.512312 31.63351523 -18 29 C-16.865625 28.566875 -15.73125 28.13375 -14.5625 27.6875 C-12.5509128 26.68529775 -12.5509128 26.68529775 -11 25 C-10.28207641 22.12830565 -10.1264578 19.51424293 -10.0703125 16.55859375 C-10 14 -10 14 -9 11 C-9.66 11 -10.32 11 -11 11 C-12.39935013 8.20129973 -12.25265405 6.09501208 -12 3 C-8.79784604 -1.42202214 -4.96790045 -1.26840011 0 0 Z " fill="#C97B55" transform="translate(84,21)"/>
<path d="M0 0 C0.556875 0.309375 1.11375 0.61875 1.6875 0.9375 C5.48163284 2.68075022 7.99451099 3.335163 12 2 C14.86358399 3.99205843 15.04219891 5.23017587 15.6875 8.75 C15.94439681 11.44247622 15.98357032 13.96935097 15.9375 16.6875 C15.78104195 19.89320306 15.78104195 19.89320306 16.9765625 22.171875 C18.36420851 26.00643879 18.40622788 29.51449784 18.4375 33.5625 C18.47037109 34.31724609 18.50324219 35.07199219 18.53710938 35.84960938 C18.57508233 39.76772826 18.39856055 41.57392938 15.6796875 44.48046875 C12.72956984 46.15334888 10.359802 46.68746028 7 47 C7 46.01 7 45.02 7 44 C6.34 44 5.68 44 5 44 C4.67 45.32 4.34 46.64 4 48 C2.56260487 48.02712066 1.12506137 48.04645067 -0.3125 48.0625 C-1.11300781 48.07410156 -1.91351563 48.08570313 -2.73828125 48.09765625 C-5 48 -5 48 -8 47 C-9.485 47.495 -9.485 47.495 -11 48 C-13.51030498 48.070673 -15.99122582 48.09356101 -18.5 48.0625 C-19.17675781 48.05798828 -19.85351562 48.05347656 -20.55078125 48.04882812 C-22.36721714 48.03628863 -24.18361412 48.01840932 -26 48 C-26.99 48 -27.98 48 -29 48 C-29 47.34 -29 46.68 -29 46 C-29.99 46 -30.98 46 -32 46 C-35.32575612 40.4174808 -36.46450943 36.50313209 -36 30 C-33.35261084 28.5393715 -32.10551666 28 -29 28 C-29 29.98 -29 31.96 -29 34 C-28.29875 34.268125 -27.5975 34.53625 -26.875 34.8125 C-24 36 -24 36 -21.0625 37.5625 C-16.03569012 39.922023 -12.34165519 40.20187242 -7 39 C-5.0003559 38.96227087 -2.99945939 38.95350094 -1 39 C-0.94583812 37.39620659 -0.90713362 35.79188594 -0.875 34.1875 C-0.85179687 33.29417969 -0.82859375 32.40085938 -0.8046875 31.48046875 C-0.81714173 28.74597286 -0.81714173 28.74597286 -3 26 C-3.66 25.01 -4.32 24.02 -5 23 C-5.70125 22.01 -6.4025 21.02 -7.125 20 C-9 17 -9 17 -9 14 C-9.31421071 11.99690671 -9.6451046 9.99628664 -10 8 C-6.7 7.67 -3.4 7.34 0 7 C0 4.69 0 2.38 0 0 Z " fill="#ECA163" transform="translate(111,41)"/>
<path d="M0 0 C2.29013653 3.4352048 2.17842973 4.985331 2 9 C0.02 9.99 0.02 9.99 -2 11 C-2 11.99 -2 12.98 -2 14 C-1.45472656 14.27972656 -0.90945312 14.55945312 -0.34765625 14.84765625 C4.85029407 17.61101103 9.40855805 20.71267702 13.95703125 24.44921875 C15.90279828 25.9262159 17.78309434 26.98869248 20 28 C19.01 28.495 19.01 28.495 18 29 C18.144375 29.55429687 18.28875 30.10859375 18.4375 30.6796875 C18.623125 31.40414062 18.80875 32.12859375 19 32.875 C19.185625 33.59429687 19.37125 34.31359375 19.5625 35.0546875 C20 37 20 37 20 39 C20.495 39.5775 20.99 40.155 21.5 40.75 C23.42499062 43.63748593 23.2318249 45.59990145 23 49 C21.68 47.35 20.36 45.7 19 44 C19 44.33 19 44.66 19 45 C19 45.99 19 46.98 19 48 C17.35 47.67 15.7 47.34 14 47 C14 46.34 14 45.68 14 45 C13.01 45 12.02 45 11 45 C11 49.29 11 53.58 11 58 C6.61237247 56.90309312 3.85500277 55.29817473 0 53 C0.27096447 49.11617586 0.78538452 47.26826936 3.25 44.1875 C6.01530481 41.98782572 7.53245088 41.2972185 11 41 C11 40.34 11 39.68 11 39 C5.75488756 39.55520928 5.75488756 39.55520928 0.625 40.6875 C-0.179375 40.8421875 -0.179375 40.8421875 -1 41 C-1.66 40.34 -2.32 39.68 -3 39 C-3.13921875 39.92232422 -3.13921875 39.92232422 -3.28125 40.86328125 C-4 43 -4 43 -5.53125 44.23046875 C-10.6800866 46.73337543 -15.28686138 47.73550284 -21 48 C-21.33 46.35 -21.66 44.7 -22 43 C-16.25 38 -16.25 38 -14 38 C-14.474375 37.2575 -14.94875 36.515 -15.4375 35.75 C-16.77869327 33.38949985 -17.512312 31.63351523 -18 29 C-16.865625 28.566875 -15.73125 28.13375 -14.5625 27.6875 C-12.5509128 26.68529775 -12.5509128 26.68529775 -11 25 C-10.28207641 22.12830565 -10.1264578 19.51424293 -10.0703125 16.55859375 C-10 14 -10 14 -9 11 C-9.66 11 -10.32 11 -11 11 C-12.39935013 8.20129973 -12.25265405 6.09501208 -12 3 C-8.79784604 -1.42202214 -4.96790045 -1.26840011 0 0 Z " fill="#B9CCCE" transform="translate(84,21)"/>
<path d="M0 0 C1.98 0.99 3.96 1.98 6 3 C6.33 2.34 6.66 1.68 7 1 C9.64 1 12.28 1 15 1 C15 1.66 15 2.32 15 3 C12.0173094 4.52448631 9.181798 5.93940067 6 7 C5.19787372 8.87387216 5.19787372 8.87387216 4.8125 11.0625 C4.57466797 12.16271484 4.57466797 12.16271484 4.33203125 13.28515625 C4.16767578 14.13400391 4.16767578 14.13400391 4 15 C4.70125 15.268125 5.4025 15.53625 6.125 15.8125 C9.1649824 17.0681449 12.0727774 18.50235123 15 20 C14.505 19.01 14.505 19.01 14 18 C13.76811594 10.69565217 13.76811594 10.69565217 15 7 C15.99 7 16.98 7 18 7 C18.495 7.99 18.495 7.99 19 9 C21.02463255 9.65213292 21.02463255 9.65213292 23 10 C22.01 8.02 21.02 6.04 20 4 C23.16115776 5.36983503 23.9927092 5.9890638 26 9 C26.99 8.34 27.98 7.68 29 7 C30.87592203 10.18091126 31.24719681 12.51343291 31.1875 16.1875 C31.18105469 17.06792969 31.17460938 17.94835937 31.16796875 18.85546875 C31 21 31 21 30 22 C27.66666667 22 25.33333333 22 23 22 C22.21625 22.226875 21.4325 22.45375 20.625 22.6875 C13.95317814 23.48176451 7.49114756 19.38815487 2 16 C2 14.02 2 12.04 2 10 C-0.47266765 10.34444881 -0.47266765 10.34444881 -3 11 C-4.53597454 14.07194908 -4.2265038 16.60244293 -4 20 C-2.58376759 23.25058324 -2.58376759 23.25058324 -1 26 C-1 26.66 -1 27.32 -1 28 C0.2065625 27.9690625 0.2065625 27.9690625 1.4375 27.9375 C4 28 4 28 5 29 C7.86267567 29.07325168 10.700719 29.09238205 13.5625 29.0625 C14.36880859 29.05798828 15.17511719 29.05347656 16.00585938 29.04882812 C18.00393756 29.03700518 20.00197783 29.01906914 22 29 C21.34 29.99 20.68 30.98 20 32 C17.50390625 32.328125 17.50390625 32.328125 14.5625 32.25 C13.59441406 32.23453125 12.62632813 32.2190625 11.62890625 32.203125 C9 32 9 32 6 31 C5.67 31.99 5.34 32.98 5 34 C2.69 33.34 0.38 32.68 -2 32 C-2 31.34 -2 30.68 -2 30 C-2.8971875 30.2475 -2.8971875 30.2475 -3.8125 30.5 C-6 31 -6 31 -9 31 C-8.69964844 31.53109375 -8.39929688 32.0621875 -8.08984375 32.609375 C-7.70957031 33.31578125 -7.32929687 34.0221875 -6.9375 34.75 C-6.55464844 35.44609375 -6.17179687 36.1421875 -5.77734375 36.859375 C-4.85196091 39.40766544 -5.00035089 40.50872786 -6 43 C-6.66 43.66 -7.32 44.32 -8 45 C-8 45.99 -8 46.98 -8 48 C-7.34 48.33 -6.68 48.66 -6 49 C-6.33144981 51.48587357 -6.61261091 52.67459316 -8.5625 54.3125 C-12.12691336 55.31784736 -15.42924616 54.90918578 -19 54 C-19.99 53.34 -20.98 52.68 -22 52 C-21.67 51.34 -21.34 50.68 -21 50 C-21.95420592 46.87170137 -23.03861286 43.82710107 -24.17382812 40.76171875 C-25.61267727 36.70714665 -26.50392249 33.30223829 -26 29 C-23.42557346 26.42557346 -21.52577158 25.06255392 -17.80859375 24.91015625 C-13.29084467 25.33058975 -9.2849927 26.51010311 -5 28 C-5.2165625 26.86820313 -5.433125 25.73640625 -5.65625 24.5703125 C-5.93759545 23.08855979 -6.21884023 21.60678796 -6.5 20.125 C-6.64308594 19.37863281 -6.78617188 18.63226563 -6.93359375 17.86328125 C-8 12.2265625 -8 12.2265625 -8 10 C-9.32 9.67 -10.64 9.34 -12 9 C-10.3767313 8.3291288 -8.75132422 7.66342971 -7.125 7 C-6.22007813 6.62875 -5.31515625 6.2575 -4.3828125 5.875 C-2 5 -2 5 0 5 C0 3.35 0 1.7 0 0 Z " fill="#CD8056" transform="translate(80,59)"/>
<path d="M0 0 C-1.43294498 0.84114171 -2.87154405 1.67265687 -4.3125 2.5 C-5.51326172 3.19609375 -5.51326172 3.19609375 -6.73828125 3.90625 C-9 5 -9 5 -12 5 C-12 5.66 -12 6.32 -12 7 C-10.3603125 6.443125 -10.3603125 6.443125 -8.6875 5.875 C-7.470625 5.58625 -6.25375 5.2975 -5 5 C-4.01 5.66 -3.02 6.32 -2 7 C-2.66 7.33 -3.32 7.66 -4 8 C-4.33 8.99 -4.66 9.98 -5 11 C-4.41992188 10.67386719 -3.83984375 10.34773438 -3.2421875 10.01171875 C9.2920354 3 9.2920354 3 12 3 C12.2475 3.94875 12.495 4.8975 12.75 5.875 C13.6857077 9.08693191 13.6857077 9.08693191 16.125 10.375 C16.74375 10.58125 17.3625 10.7875 18 11 C18 11.66 18 12.32 18 13 C17.34 13.33 16.68 13.66 16 14 C16.309375 14.556875 16.61875 15.11375 16.9375 15.6875 C18.05893939 18.12827986 18.51553529 20.36817818 19 23 C17.3183104 23.68119072 15.62926837 24.34424053 13.9375 25 C12.99777344 25.37125 12.05804688 25.7425 11.08984375 26.125 C4.41551873 28.01507434 -0.18980652 26.91218408 -6.125 23.625 C-8.41099755 22.40514013 -10.70333759 21.19991109 -13 20 C-14.21042969 19.28070313 -14.21042969 19.28070313 -15.4453125 18.546875 C-19.47709486 17.68380232 -22.31926906 19.71290166 -25.75 21.625 C-27.17920411 22.37722123 -28.60888857 23.12853055 -30.0390625 23.87890625 C-30.72258789 24.24516113 -31.40611328 24.61141602 -32.11035156 24.98876953 C-41.65148622 30.09463255 -41.65148622 30.09463255 -46.5625 29.75 C-47.366875 29.5025 -48.17125 29.255 -49 29 C-49 27.68 -49 26.36 -49 25 C-45.9584464 22.13224946 -42.56734608 20.14040765 -39 18 C-38.33226562 17.4225 -37.66453125 16.845 -36.9765625 16.25 C-32.86737172 13.14384004 -28.43730322 10.87162221 -23.875 8.5 C-22.988125 8.02691406 -22.10125 7.55382812 -21.1875 7.06640625 C-3.92757392 -1.96378696 -3.92757392 -1.96378696 0 0 Z " fill="#BB9FA4" transform="translate(58,113)"/>
<path d="M0 0 C0.33 0.66 0.66 1.32 1 2 C1.68707031 1.855625 2.37414062 1.71125 3.08203125 1.5625 C3.98308594 1.376875 4.88414063 1.19125 5.8125 1 C6.70582031 0.814375 7.59914062 0.62875 8.51953125 0.4375 C11 0 11 0 14 0 C13.93970033 1.91752953 13.85083293 3.83417426 13.75 5.75 C13.70359375 6.81734375 13.6571875 7.8846875 13.609375 8.984375 C12.8857343 12.5654687 11.83438869 13.7650924 9 16 C5.30933813 17.23022062 2.73814301 16.81752376 -1 16 C-0.3503125 16.45890625 0.299375 16.9178125 0.96875 17.390625 C1.8040625 18.00421875 2.639375 18.6178125 3.5 19.25 C4.3353125 19.85328125 5.170625 20.4565625 6.03125 21.078125 C6.6809375 21.71234375 7.330625 22.3465625 8 23 C8 24.32 8 25.64 8 27 C0.37521605 27.77452659 -5.15299603 26.09222225 -12.1171875 22.99609375 C-15.08380337 21.97104355 -16.18757697 21.71200981 -19 23 C-20.175625 24.2375 -20.175625 24.2375 -21.375 25.5 C-24.34876295 28.33215519 -25.97913254 28.71947436 -30 29 C-29.67 26.36 -29.34 23.72 -29 21 C-29.66 21 -30.32 21 -31 21 C-31 19.02 -31 17.04 -31 15 C-30.34 15 -29.68 15 -29 15 C-28.9175 14.401875 -28.835 13.80375 -28.75 13.1875 C-27.76230644 10.30672712 -26.58872365 9.5586087 -24 8 C-21.6328125 7.84765625 -21.6328125 7.84765625 -19.125 8.0625 C-14.14627463 8.22991328 -12.03743394 6.9841903 -8 4 C-5.34704888 3.11891039 -2.74498221 2.56792735 0 2 C0 1.34 0 0.68 0 0 Z " fill="#D1835A" transform="translate(117,92)"/>
<path d="M0 0 C1.98 0.33 3.96 0.66 6 1 C5.34 1.66 4.68 2.32 4 3 C4.19959525 4.93950243 4.19959525 4.93950243 4.875 7 C6 10.87341772 6 10.87341772 6 13 C6.495 13.5775 6.99 14.155 7.5 14.75 C9.42499062 17.63748593 9.2318249 19.59990145 9 23 C7.68 21.35 6.36 19.7 5 18 C5 18.33 5 18.66 5 19 C5 19.99 5 20.98 5 22 C3.35 21.67 1.7 21.34 0 21 C0 20.34 0 19.68 0 19 C-0.99 19 -1.98 19 -3 19 C-3 23.29 -3 27.58 -3 32 C-7.38762753 30.90309312 -10.14499723 29.29817473 -14 27 C-13.72903553 23.11617586 -13.21461548 21.26826936 -10.75 18.1875 C-7.98469519 15.98782572 -6.46754912 15.2972185 -3 15 C-3 14.34 -3 13.68 -3 13 C-8.24511244 13.55520928 -8.24511244 13.55520928 -13.375 14.6875 C-13.91125 14.790625 -14.4475 14.89375 -15 15 C-15.66 14.34 -16.32 13.68 -17 13 C-17.0928125 13.61488281 -17.185625 14.22976562 -17.28125 14.86328125 C-18 17 -18 17 -19.53125 18.23046875 C-24.6800866 20.73337543 -29.28686138 21.73550284 -35 22 C-35.33 20.35 -35.66 18.7 -36 17 C-30.25 12 -30.25 12 -28 12 C-28.66 10.35 -29.32 8.7 -30 7 C-24.06 7.66 -18.12 8.32 -12 9 C-12 8.34 -12 7.68 -12 7 C-12.66 7 -13.32 7 -14 7 C-14.33 5.35 -14.66 3.7 -15 2 C-12.36 3.32 -9.72 4.64 -7 6 C-7 4.68 -7 3.36 -7 2 C-6.34 2 -5.68 2 -5 2 C-4.67 2.99 -4.34 3.98 -4 5 C-2.02 5 -0.04 5 2 5 C1.34 3.35 0.68 1.7 0 0 Z " fill="#B298A1" transform="translate(98,47)"/>
<path d="M0 0 C1.45922693 0.11409593 2.91740598 0.24165544 4.375 0.375 C5.59316406 0.47941406 5.59316406 0.47941406 6.8359375 0.5859375 C9 1 9 1 11 3 C12.96690374 3.67292501 12.96690374 3.67292501 15.125 4.125 C17.043125 4.558125 17.043125 4.558125 19 5 C18.67 5.99 18.34 6.98 18 8 C18.66 8.33 19.32 8.66 20 9 C19.9375 11.6875 19.9375 11.6875 19 15 C16.85695876 16.99364654 14.51607093 18.51532107 12 20 C12.495 21.485 12.495 21.485 13 23 C12.44140625 25.91796875 12.44140625 25.91796875 11.5625 29.1875 C11.13130859 30.81751953 11.13130859 30.81751953 10.69140625 32.48046875 C10.46324219 33.31191406 10.23507813 34.14335938 10 35 C7.02124624 35.92926933 6.26921885 36.11013498 3.25 34.875 C1 33 1 33 0.6875 30.3125 C0.790625 29.549375 0.89375 28.78625 1 28 C-3.03181558 29.98054099 -7.00489066 31.96867239 -10.875 34.25 C-14 36 -14 36 -16 36 C-15.67 34.68 -15.34 33.36 -15 32 C-17.86177057 30.56911472 -19.93375773 31.40008303 -23 32 C-23 31.34 -23 30.68 -23 30 C-18.05 27.69 -13.1 25.38 -8 23 C-8 23.66 -8 24.32 -8 25 C-6.02 25 -4.04 25 -2 25 C-2 24.67 -2 24.34 -2 24 C-0.02 24 1.96 24 4 24 C4.33 22.68 4.66 21.36 5 20 C3.68 19.34 2.36 18.68 1 18 C1.66 18 2.32 18 3 18 C2.67 17.01 2.34 16.02 2 15 C2.99 14.34 3.98 13.68 5 13 C4.39254603 8.14036821 2.27241033 4.2594482 0 0 Z " fill="#CB7D57" transform="translate(69,88)"/>
<path d="M0 0 C0.2475 0.94875 0.495 1.8975 0.75 2.875 C1.6857077 6.08693191 1.6857077 6.08693191 4.125 7.375 C5.053125 7.684375 5.053125 7.684375 6 8 C6 8.66 6 9.32 6 10 C5.34 10.33 4.68 10.66 4 11 C4.4640625 11.8353125 4.4640625 11.8353125 4.9375 12.6875 C6.05893939 15.12827986 6.51553529 17.36817818 7 20 C-6.58526012 25.50289017 -6.58526012 25.50289017 -13.9375 23 C-14.618125 22.67 -15.29875 22.34 -16 22 C-15.01 20.88625 -15.01 20.88625 -14 19.75 C-11.60788553 17.02757055 -11.60788553 17.02757055 -12 13 C-17.02296004 11.86983399 -20.97874074 12.22083908 -26 13 C-26.33 12.34 -26.66 11.68 -27 11 C-25.68 10.67 -24.36 10.34 -23 10 C-23 9.34 -23 8.68 -23 8 C-18.97007218 8.55312735 -14.97977076 9.1558062 -11 10 C-11.33 8.35 -11.66 6.7 -12 5 C-10.37750059 4.16180842 -8.75191503 3.3295884 -7.125 2.5 C-6.22007813 2.0359375 -5.31515625 1.571875 -4.3828125 1.09375 C-2 0 -2 0 0 0 Z " fill="#A9A9BA" transform="translate(70,116)"/>
<path d="M0 0 C10.74135986 0.21024014 10.74135986 0.21024014 14.5625 3.25 C16.85776212 5.83952649 18.0569511 7.69932886 19 11 C19.99 11 20.98 11 22 11 C22.33 10.34 22.66 9.68 23 9 C22.67 10.98 22.34 12.96 22 15 C22.99 15 23.98 15 25 15 C25.33 16.32 25.66 17.64 26 19 C25.01 19.33 24.02 19.66 23 20 C22.67 21.98 22.34 23.96 22 26 C21.01 24.68 20.02 23.36 19 22 C18.34 22.66 17.68 23.32 17 24 C12.20850869 21.78854247 7.95891216 19.43836824 5 15 C4.29875 14.01 3.5975 13.02 2.875 12 C1 9 1 9 1 6 C0.68578929 3.99690671 0.3548954 1.99628664 0 0 Z " fill="#E7A578" transform="translate(101,49)"/>
<path d="M0 0 C1.98 0.99 3.96 1.98 6 3 C6.33 2.34 6.66 1.68 7 1 C9.64 1 12.28 1 15 1 C15 1.66 15 2.32 15 3 C12.0173094 4.52448631 9.181798 5.93940067 6 7 C5.19787372 8.87387216 5.19787372 8.87387216 4.8125 11.0625 C4.65394531 11.79597656 4.49539062 12.52945313 4.33203125 13.28515625 C4.22246094 13.85105469 4.11289063 14.41695312 4 15 C4.70125 15.268125 5.4025 15.53625 6.125 15.8125 C9.1649824 17.0681449 12.0727774 18.50235123 15 20 C14.67 19.34 14.34 18.68 14 18 C13.76811594 10.69565217 13.76811594 10.69565217 15 7 C15.99 7 16.98 7 18 7 C18.33 7.66 18.66 8.32 19 9 C21.02463255 9.65213292 21.02463255 9.65213292 23 10 C22.01 8.02 21.02 6.04 20 4 C23.16115776 5.36983503 23.9927092 5.9890638 26 9 C26.99 8.34 27.98 7.68 29 7 C30.87592203 10.18091126 31.24719681 12.51343291 31.1875 16.1875 C31.18105469 17.06792969 31.17460938 17.94835937 31.16796875 18.85546875 C31 21 31 21 30 22 C27.66666667 22 25.33333333 22 23 22 C22.21625 22.226875 21.4325 22.45375 20.625 22.6875 C13.95317814 23.48176451 7.49114756 19.38815487 2 16 C2.33 13.03 2.66 10.06 3 7 C2.34 7 1.68 7 1 7 C0.67 4.69 0.34 2.38 0 0 Z " fill="#B1655F" transform="translate(80,59)"/>
<path d="M0 0 C0 1.98 0 3.96 0 6 C0.70125 6.268125 1.4025 6.53625 2.125 6.8125 C5 8 5 8 7.9375 9.5625 C12.85148657 11.86906513 16.74658271 12.39061046 22 11 C22 13.31 22 15.62 22 18 C18.22962222 20.44929912 14.84064239 20.20247465 10.4375 20.125 C9.76525391 20.11597656 9.09300781 20.10695313 8.40039062 20.09765625 C6.60014009 20.07262794 4.80004713 20.03686103 3 20 C2.01 20 1.02 20 0 20 C0 19.34 0 18.68 0 18 C-0.99 18 -1.98 18 -3 18 C-6.32575612 12.4174808 -7.46450943 8.50313209 -7 2 C-4.35261084 0.5393715 -3.10551666 0 0 0 Z " fill="#EA9F62" transform="translate(82,69)"/>
<path d="M0 0 C0.33 0 0.66 0 1 0 C1.48648649 7.2972973 1.48648649 7.2972973 -0.6875 10.4375 C-4.13195405 12.76483381 -6.57390489 13.26176489 -10.66015625 12.51171875 C-11.43230469 12.34285156 -12.20445313 12.17398438 -13 12 C-12.3503125 12.45890625 -11.700625 12.9178125 -11.03125 13.390625 C-10.1959375 14.00421875 -9.360625 14.6178125 -8.5 15.25 C-7.24703125 16.15492187 -7.24703125 16.15492187 -5.96875 17.078125 C-5.3190625 17.71234375 -4.669375 18.3465625 -4 19 C-4 20.32 -4 21.64 -4 23 C-11.83534611 23.61187085 -17.8036691 22.06459719 -25 19 C-24.34 18.34 -23.68 17.68 -23 17 C-24.32 15.35 -25.64 13.7 -27 12 C-26.34 11.01 -25.68 10.02 -25 9 C-23.2984375 9.2784375 -23.2984375 9.2784375 -21.5625 9.5625 C-20.386875 9.706875 -19.21125 9.85125 -18 10 C-17.67 9.67 -17.34 9.34 -17 9 C-14.64686445 8.92728259 -12.29166332 8.91629132 -9.9375 8.9375 C-8.64714844 8.94652344 -7.35679688 8.95554687 -6.02734375 8.96484375 C-5.02832031 8.97644531 -4.02929688 8.98804687 -3 9 C-3 8.01 -3 7.02 -3 6 C-6.96 5.67 -10.92 5.34 -15 5 C-14.34 3.68 -13.68 2.36 -13 1 C-12.14535156 1.01160156 -11.29070312 1.02320312 -10.41015625 1.03515625 C-9.30542969 1.04417969 -8.20070313 1.05320312 -7.0625 1.0625 C-5.40927734 1.07990234 -5.40927734 1.07990234 -3.72265625 1.09765625 C-1.08552366 1.31262571 -1.08552366 1.31262571 0 0 Z " fill="#AD6066" transform="translate(129,96)"/>
<path d="M0 0 C0.556875 0.309375 1.11375 0.61875 1.6875 0.9375 C5.48163284 2.68075022 7.99451099 3.335163 12 2 C14.86358399 3.99205843 15.04219891 5.23017587 15.6875 8.75 C15.94439681 11.44247622 15.98357032 13.96935097 15.9375 16.6875 C15.79510915 19.91592447 15.79510915 19.91592447 16.984375 22.35546875 C18.10598536 25.27596956 18.29961564 27.50698441 18.3125 30.625 C18.32925781 31.56601563 18.34601563 32.50703125 18.36328125 33.4765625 C18 36 18 36 16.66796875 37.8359375 C15 39 15 39 12 39 C10.48596188 34.15507803 11.63397828 30.7408989 13 26 C13.99 26.33 14.98 26.66 16 27 C15.67 25.68 15.34 24.36 15 23 C14.01 23 13.02 23 12 23 C12 21.68 12 20.36 12 19 C11.01 19 10.02 19 9 19 C7.640625 17.3203125 7.640625 17.3203125 6.25 15.125 C4.12050617 12.09662435 2.73765837 10.47995186 -0.875 9.5 C-1.90625 9.335 -2.9375 9.17 -4 9 C-2.68 8.34 -1.36 7.68 0 7 C0 4.69 0 2.38 0 0 Z " fill="#DBAA8B" transform="translate(111,41)"/>
<path d="M0 0 C2.29013653 3.4352048 2.17842973 4.985331 2 9 C0.02 9.99 0.02 9.99 -2 11 C-2 11.99 -2 12.98 -2 14 C-1.43152344 14.29132812 -0.86304687 14.58265625 -0.27734375 14.8828125 C5.11321119 17.74457623 9.49755438 20.88074124 14 25 C11 26 11 26 8 25 C6.33637583 24.65179959 4.67004829 24.31595508 3 24 C3 23.34 3 22.68 3 22 C1.9790625 21.690625 1.9790625 21.690625 0.9375 21.375 C-2.89644155 19.58038906 -6.18712848 17.18575938 -9 14 C-9 13.01 -9 12.02 -9 11 C-9.66 11 -10.32 11 -11 11 C-12.39935013 8.20129973 -12.25265405 6.09501208 -12 3 C-8.79784604 -1.42202214 -4.96790045 -1.26840011 0 0 Z " fill="#8D98AD" transform="translate(84,21)"/>
<path d="M0 0 C2.0625 0.4375 2.0625 0.4375 4 1 C0.89861744 8.86483202 -9.59497527 12.47033992 -16.8125 16 C-17.43406982 16.31493408 -18.05563965 16.62986816 -18.69604492 16.9543457 C-22.86678151 18.91714382 -25.55678316 19.19755921 -30 18 C-30 16.68 -30 15.36 -30 14 C-26.72300951 10.78313778 -23.3063469 9.09243643 -19.0625 7.4375 C-15.81463687 6.14551038 -12.73118916 4.8606166 -9.625 3.25 C-6.74050475 1.87643083 -4.1483634 1.43930652 -1 1 C-0.67 0.67 -0.34 0.34 0 0 Z " fill="#AFB2C0" transform="translate(39,124)"/>
<path d="M0 0 C1.15941038 3.47823115 0.70820884 5.45895578 0 9 C0.66 9 1.32 9 2 9 C2.125 14.75 2.125 14.75 1 17 C1.66 17.33 2.32 17.66 3 18 C-4.11389522 27.59453303 -4.11389522 27.59453303 -9 31 C-11 27.25 -11 27.25 -11 25 C-12.65 24.67 -14.3 24.34 -16 24 C-12.25 22 -12.25 22 -10 22 C-10 21.34 -10 20.68 -10 20 C-9.53980469 19.59136719 -9.07960938 19.18273437 -8.60546875 18.76171875 C-6.38104757 16.3208089 -6.03456883 14.01023339 -5.3125 10.8125 C-5.06113281 9.72582031 -4.80976562 8.63914062 -4.55078125 7.51953125 C-4.36902344 6.68808594 -4.18726562 5.85664062 -4 5 C-4.66 4.67 -5.32 4.34 -6 4 C-3.94766315 1.7522025 -2.99332739 0.9977758 0 0 Z " fill="#AE5D62" transform="translate(86,104)"/>
<path d="M0 0 C0.2475 0.94875 0.495 1.8975 0.75 2.875 C1.6857077 6.08693191 1.6857077 6.08693191 4.125 7.375 C5.053125 7.684375 5.053125 7.684375 6 8 C6 8.66 6 9.32 6 10 C4.02 10.33 2.04 10.66 0 11 C0 11.66 0 12.32 0 13 C-2.97 12.67 -5.94 12.34 -9 12 C-9.33 13.65 -9.66 15.3 -10 17 C-10.20625 16.360625 -10.4125 15.72125 -10.625 15.0625 C-11.85937746 12.74109682 -11.85937746 12.74109682 -14.625 12.1875 C-18.5932737 11.96704035 -22.07518528 12.39097703 -26 13 C-26.33 12.34 -26.66 11.68 -27 11 C-25.68 10.67 -24.36 10.34 -23 10 C-23 9.34 -23 8.68 -23 8 C-18.97007218 8.55312735 -14.97977076 9.1558062 -11 10 C-11.33 8.35 -11.66 6.7 -12 5 C-10.37750059 4.16180842 -8.75191503 3.3295884 -7.125 2.5 C-6.22007813 2.0359375 -5.31515625 1.571875 -4.3828125 1.09375 C-2 0 -2 0 0 0 Z " fill="#CB7B78" transform="translate(70,116)"/>
<path d="M0 0 C2.875 0.1875 2.875 0.1875 6 1 C7.375 3.5625 7.375 3.5625 8 6 C8.66 6 9.32 6 10 6 C10.33 7.65 10.66 9.3 11 11 C13.97 11.495 13.97 11.495 17 12 C16.66855019 14.48587357 16.38738909 15.67459316 14.4375 17.3125 C10.87308664 18.31784736 7.57075384 17.90918578 4 17 C3.01 16.34 2.02 15.68 1 15 C1.33 14.34 1.66 13.68 2 13 C1.41389663 11.16168581 1.41389663 11.16168581 0.5 9.1875 C-0.88879457 5.73750806 -1.24596151 3.6246153 0 0 Z " fill="#8E97A8" transform="translate(57,96)"/>
<path d="M0 0 C1.9375 1.6875 1.9375 1.6875 3 4 C2.8814721 8.50406038 0.56440305 11.42537756 -2 15 C-2.99 16.485 -2.99 16.485 -4 18 C-7.70307295 15.36886922 -9.92998822 13.49404949 -11 9 C-10.86177879 5.54446965 -10.64513702 3.71681891 -8.3125 1.125 C-5.28034606 -0.35010192 -3.33020199 -0.49598753 0 0 Z " fill="#8E9AAE" transform="translate(111,21)"/>
<path d="M0 0 C10.74135986 0.21024014 10.74135986 0.21024014 14.5625 3.25 C16.88585553 5.87122162 17.83209475 7.76580085 19 11 C19.99 11.33 20.98 11.66 22 12 C21.01 12.495 21.01 12.495 20 13 C20 13.99 20 14.98 20 16 C18.68 16 17.36 16 16 16 C16 15.34 16 14.68 16 14 C14.68 14.33 13.36 14.66 12 15 C9.84520255 12.38346023 7.85499644 9.7779633 6 6.9375 C4.18966548 4.27857117 2.34866937 2.18090727 0 0 Z " fill="#FBCF84" transform="translate(101,49)"/>
<path d="M0 0 C0.33 0.99 0.66 1.98 1 3 C2.99145391 4.01691264 4.99187074 5.01642648 7 6 C9.62153553 9.93230329 10 13.32335261 10 18 C9.34 18.66 8.68 19.32 8 20 C7.67 19.01 7.34 18.02 7 17 C6.34 17 5.68 17 5 17 C4.34 15.35 3.68 13.7 3 12 C1.88625 12.061875 0.7725 12.12375 -0.375 12.1875 C-1.57125 12.125625 -2.7675 12.06375 -4 12 C-6.31361802 8.52957297 -6.51020728 7.08165827 -6 3 C-3.95959224 0.95959224 -2.91674756 0 0 0 Z " fill="#79676B" transform="translate(60,85)"/>
<path d="M0 0 C1.45922693 0.11409593 2.91740598 0.24165544 4.375 0.375 C5.59316406 0.47941406 5.59316406 0.47941406 6.8359375 0.5859375 C9 1 9 1 11 3 C12.96690374 3.67292501 12.96690374 3.67292501 15.125 4.125 C16.40375 4.41375 17.6825 4.7025 19 5 C18.67 5.99 18.34 6.98 18 8 C18.66 8.66 19.32 9.32 20 10 C18.44219668 10.67756882 16.87849904 11.34159457 15.3125 12 C14.00732422 12.556875 14.00732422 12.556875 12.67578125 13.125 C9.9427998 14.01870488 7.85299066 14.16449676 5 14 C4.87625 12.7625 4.87625 12.7625 4.75 11.5 C3.83552731 7.23246079 2.07776822 3.80763106 0 0 Z " fill="#C97A59" transform="translate(69,88)"/>
<path d="M0 0 C0.33 0.66 0.66 1.32 1 2 C2.98 2 4.96 2 7 2 C7 1.67 7 1.34 7 1 C9.64 0.67 12.28 0.34 15 0 C11.66163034 3.75566587 8.61066675 5.90911297 4.0625 8.01953125 C2.00864759 8.99588912 0.07961327 10.08944837 -1.875 11.25 C-5 13 -5 13 -7 13 C-6.67 11.68 -6.34 10.36 -6 9 C-8.86177057 7.56911472 -10.93375773 8.40008303 -14 9 C-14 8.34 -14 7.68 -14 7 C-9.38 4.69 -4.76 2.38 0 0 Z " fill="#C16C7D" transform="translate(60,111)"/>
<path d="M0 0 C-0.66 0.94875 -1.32 1.8975 -2 2.875 C-4.67400332 7.46035076 -4.37403169 11.83628477 -4 17 C-8.23686665 16.10950811 -11.30041239 14.20552339 -15 12 C-14.72301826 8.02992844 -14.23315777 6.27610788 -11.625 3.1875 C-7.72668167 -0.06109861 -4.92369211 -0.10941538 0 0 Z " fill="#D3DCCA" transform="translate(99,62)"/>
<path d="M0 0 C2.6245228 0.99550865 3.95028727 1.93963454 5.75 4.125 C7.44285311 8.01856215 7.28186861 10.77197091 7 15 C6 16 6 16 3.6875 16.375 C1 16 1 16 -1.3125 13.5 C-1.869375 12.675 -2.42625 11.85 -3 11 C-3.66 11.66 -4.32 12.32 -5 13 C-6.125 6.375 -6.125 6.375 -5 3 C-4.01 3 -3.02 3 -2 3 C-1.67 3.66 -1.34 4.32 -1 5 C1.02463255 5.65213292 1.02463255 5.65213292 3 6 C1.515 3.03 1.515 3.03 0 0 Z " fill="#392229" transform="translate(100,63)"/>
<path d="M0 0 C0.33 0 0.66 0 1 0 C1.48648649 7.2972973 1.48648649 7.2972973 -0.6875 10.4375 C-4.14552158 12.77400107 -6.58748942 13.26279267 -10.6875 12.5 C-11.450625 12.335 -12.21375 12.17 -13 12 C-13.99 12.495 -13.99 12.495 -15 13 C-15.99 12.01 -16.98 11.02 -18 10 C-17 9 -17 9 -13.83984375 8.90234375 C-11.90818359 8.91974609 -11.90818359 8.91974609 -9.9375 8.9375 C-8.64714844 8.94652344 -7.35679688 8.95554687 -6.02734375 8.96484375 C-5.02832031 8.97644531 -4.02929688 8.98804687 -3 9 C-3 8.01 -3 7.02 -3 6 C-6.96 5.67 -10.92 5.34 -15 5 C-14.34 3.68 -13.68 2.36 -13 1 C-12.14535156 1.01160156 -11.29070312 1.02320312 -10.41015625 1.03515625 C-8.75306641 1.04869141 -8.75306641 1.04869141 -7.0625 1.0625 C-5.40927734 1.07990234 -5.40927734 1.07990234 -3.72265625 1.09765625 C-1.08552366 1.31262571 -1.08552366 1.31262571 0 0 Z " fill="#B86F7A" transform="translate(129,96)"/>
<path d="M0 0 C1 3 1 3 0.1796875 4.9375 C-2.39033493 9.00028995 -4.38992325 12.10868646 -9 14 C-10.32 14 -11.64 14 -13 14 C-13 10.37 -13 6.74 -13 3 C-8.66914029 1.70074209 -4.48525648 0.656379 0 0 Z " fill="#F0D79F" transform="translate(100,107)"/>
<path d="M0 0 C2.92095359 2.84200889 3.94032533 4.20931066 4.25 8.3125 C4.1675 9.199375 4.085 10.08625 4 11 C2.68 9.35 1.36 7.7 0 6 C0 6.33 0 6.66 0 7 C0 7.99 0 8.98 0 10 C-2.475 9.505 -2.475 9.505 -5 9 C-5 8.34 -5 7.68 -5 7 C-5.66 6.67 -6.32 6.34 -7 6 C-6.34 5.34 -5.68 4.68 -5 4 C-5.99 3.67 -6.98 3.34 -8 3 C-8 2.34 -8 1.68 -8 1 C-9.27875 1.185625 -10.5575 1.37125 -11.875 1.5625 C-15.75 2.125 -15.75 2.125 -18 1 C-17 -1 -17 -1 -15.4375 -1.625 C-10.05993578 -2.45231757 -4.80322454 -2.80188098 0 0 Z " fill="#AF6874" transform="translate(103,59)"/>
<path d="M0 0 C2.97 0.495 2.97 0.495 6 1 C5.34 1.66 4.68 2.32 4 3 C4.19782865 5.00693006 4.19782865 5.00693006 4.875 7.125 C5.07867187 7.84945312 5.28234375 8.57390625 5.4921875 9.3203125 C5.65976563 9.87460937 5.82734375 10.42890625 6 11 C5.03578125 10.98839844 4.0715625 10.97679687 3.078125 10.96484375 C1.81484375 10.95582031 0.5515625 10.94679688 -0.75 10.9375 C-2.62945312 10.92009766 -2.62945312 10.92009766 -4.546875 10.90234375 C-7.28536501 10.97978973 -9.41880293 11.17219185 -12 12 C-12.33 11.01 -12.66 10.02 -13 9 C-12.67 8.34 -12.34 7.68 -12 7 C-12.66 7 -13.32 7 -14 7 C-14.33 5.35 -14.66 3.7 -15 2 C-11.04 3.98 -11.04 3.98 -7 6 C-7 4.68 -7 3.36 -7 2 C-6.34 2 -5.68 2 -5 2 C-4.67 2.99 -4.34 3.98 -4 5 C-2.02 5 -0.04 5 2 5 C1.34 3.35 0.68 1.7 0 0 Z " fill="#CAA0A1" transform="translate(98,47)"/>
<path d="M0 0 C0.556875 0.309375 1.11375 0.61875 1.6875 0.9375 C5.48163284 2.68075022 7.99451099 3.335163 12 2 C13.5 3.125 13.5 3.125 15 5 C15.25265405 8.09501208 15.39935013 10.20129973 14 13 C9.8575633 11.61918777 8.67796901 9.40174442 6 6 C6 6.66 6 7.32 6 8 C5.67 8.99 5.34 9.98 5 11 C0.545 10.01 0.545 10.01 -4 9 C-2.68 8.34 -1.36 7.68 0 7 C0 4.69 0 2.38 0 0 Z " fill="#B1787E" transform="translate(111,41)"/>
<path d="M0 0 C3.06859371 1.53429686 5.87453842 3.09100262 8.75 4.9375 C9.94882813 5.69353516 9.94882813 5.69353516 11.171875 6.46484375 C12.07679687 7.22474609 12.07679687 7.22474609 13 8 C13 8.99 13 9.98 13 11 C9.31884463 13.45410358 7.34706402 13.23287843 3 13 C2.01 12.67 1.02 12.34 0 12 C0 8.04 0 4.08 0 0 Z " fill="#F1E5CA" transform="translate(74,35)"/>
<path d="M0 0 C1.75 1.5625 1.75 1.5625 3 3 C2.3125 5.4375 2.3125 5.4375 1 8 C-2.19145626 9.1967961 -3.5455672 9.20631912 -6.67578125 7.78515625 C-7.54589844 7.21667969 -8.41601562 6.64820313 -9.3125 6.0625 C-10.19550781 5.49660156 -11.07851563 4.93070313 -11.98828125 4.34765625 C-12.65214844 3.90292969 -13.31601562 3.45820313 -14 3 C-13 1 -13 1 -11.07421875 0.33203125 C-10.28660156 0.16058594 -9.49898437 -0.01085937 -8.6875 -0.1875 C-7.90761719 -0.36667969 -7.12773438 -0.54585938 -6.32421875 -0.73046875 C-3.86963202 -1.0151183 -2.31557349 -0.82663484 0 0 Z " fill="#F1E4CE" transform="translate(56,128)"/>
<path d="M0 0 C1 2 1 2 0.4375 4.5 C0.293125 5.325 0.14875 6.15 0 7 C0.66 7.66 1.32 8.32 2 9 C-2.60338358 10.47308274 -6.14401073 11 -11 11 C-11.99 11.66 -12.98 12.32 -14 13 C-17.83103042 12.68074747 -19.76680553 12.15546298 -23 10 C-23 9.34 -23 8.68 -23 8 C-23.66 7.67 -24.32 7.34 -25 7 C-24.38253906 7.09539062 -23.76507813 7.19078125 -23.12890625 7.2890625 C-17.13506606 8.07364432 -11.68785983 8.3222623 -6 6 C-3.01753216 3.60454619 -3.01753216 3.60454619 -1 1 C-0.67 0.67 -0.34 0.34 0 0 Z " fill="#9D6A6B" transform="translate(128,83)"/>
<path d="M0 0 C7.6358355 0.88105794 7.6358355 0.88105794 11 3 C12.30078125 4.8046875 12.30078125 4.8046875 13.3125 6.875 C13.65925781 7.55304688 14.00601563 8.23109375 14.36328125 8.9296875 C15.12564909 11.40855226 14.93760389 12.60334408 14 15 C13.34 15.66 12.68 16.32 12 17 C12 17.66 12 18.32 12 19 C10.35 19.66 8.7 20.32 7 21 C8 17 8 17 8.6875 15.1875 C9.17454472 11.77818699 8.16216501 9.19595379 7 6 C5.0679604 3.45322053 2.89628331 2.2983339 0 1 C0 0.67 0 0.34 0 0 Z " fill="#A75D63" transform="translate(60,87)"/>
<path d="M0 0 C1.96453125 0.00966797 1.96453125 0.00966797 3.96875 0.01953125 C6.70519436 0.14969398 8.91465687 0.36309211 11.5 1.1875 C11.5 2.1775 11.5 3.1675 11.5 4.1875 C10.54738281 4.24808594 9.59476563 4.30867188 8.61328125 4.37109375 C7.35902344 4.45488281 6.10476562 4.53867188 4.8125 4.625 C3.57113281 4.70621094 2.32976562 4.78742188 1.05078125 4.87109375 C-2.40084184 5.09521591 -2.40084184 5.09521591 -5.3125 5.84375 C-6.034375 5.9571875 -6.75625 6.070625 -7.5 6.1875 C-9.8125 4.25 -9.8125 4.25 -11.5 2.1875 C-7.74779234 -0.23420546 -4.38060126 -0.04742777 0 0 Z " fill="#E2C2A5" transform="translate(114.5,100.8125)"/>
<path d="M0 0 C0.66 0.33 1.32 0.66 2 1 C0.625 3.5 0.625 3.5 -1 6 C-1.66 6 -2.32 6 -3 6 C-2.505 7.1446875 -2.505 7.1446875 -2 8.3125 C-1 11 -1 11 -1 14 C-0.37351562 14.13277344 0.25296875 14.26554687 0.8984375 14.40234375 C1.71570313 14.57894531 2.53296875 14.75554687 3.375 14.9375 C4.18710938 15.11152344 4.99921875 15.28554687 5.8359375 15.46484375 C8 16 8 16 10 17 C12.37123246 17.23029956 14.74741943 17.41119942 17.125 17.5625 C18.40632813 17.64628906 19.68765625 17.73007813 21.0078125 17.81640625 C22.48894531 17.90728516 22.48894531 17.90728516 24 18 C20.35849853 20.42766765 17.69607051 20.2289027 13.5 20.125 C12.82324219 20.11597656 12.14648438 20.10695313 11.44921875 20.09765625 C9.63269397 20.07257603 7.8163248 20.03681739 6 20 C5.01 20 4.02 20 3 20 C3 19.34 3 18.68 3 18 C2.01 18 1.02 18 0 18 C-3.32575612 12.4174808 -4.46450943 8.50313209 -4 2 C-2.125 0.9375 -2.125 0.9375 0 0 Z " fill="#DF8F5C" transform="translate(79,69)"/>
<path d="M0 0 C6.10084169 -0.78215919 10.09429735 1.71538594 15 5 C17.44345197 6.91090474 19.70827996 8.90331997 22 11 C19 12 19 12 16 11 C14.33637583 10.65179959 12.67004829 10.31595508 11 10 C11 9.34 11 8.68 11 8 C10.29875 7.773125 9.5975 7.54625 8.875 7.3125 C5.28413464 5.6731919 2.92219514 3.65036303 0 1 C0 0.67 0 0.34 0 0 Z " fill="#C3A0A6" transform="translate(76,35)"/>
<path d="M0 0 C-0.66 1.65 -1.32 3.3 -2 5 C-0.35 6.98 1.3 8.96 3 11 C0.03 10.67 -2.94 10.34 -6 10 C-5.67 8.35 -5.34 6.7 -5 5 C-9.34464536 5.60825035 -13.67551867 6.26167392 -18 7 C-18 6.34 -18 5.68 -18 5 C-16.58521865 4.35004703 -15.16808513 3.70521278 -13.75 3.0625 C-12.96109375 2.70285156 -12.1721875 2.34320313 -11.359375 1.97265625 C-7.44392315 0.35850474 -4.23318994 -0.11758861 0 0 Z " fill="#EDA869" transform="translate(105,103)"/>
<path d="M0 0 C0.33 0 0.66 0 1 0 C1.3125 2.75 1.3125 2.75 1 6 C-2.31101209 9.60316022 -5.1915813 10.55270524 -10 11 C-10 10.01 -10 9.02 -10 8 C-10.66 8 -11.32 8 -12 8 C-12.33 9.32 -12.66 10.64 -13 12 C-14.45792884 12.05399736 -15.91642712 12.09279177 -17.375 12.125 C-18.18710938 12.14820312 -18.99921875 12.17140625 -19.8359375 12.1953125 C-22 12 -22 12 -24 10 C-20.7 10 -17.4 10 -14 10 C-13.67 9.01 -13.34 8.02 -13 7 C-8.80785645 4.63052756 -4.66163526 3.12522231 0 2 C0 1.34 0 0.68 0 0 Z " fill="#E9A167" transform="translate(128,77)"/>
<path d="M0 0 C0.33 0.99 0.66 1.98 1 3 C-4.32516617 7.41875491 -8.09415557 8.82774538 -15 9 C-14.1875 5.2109375 -14.1875 5.2109375 -12.5 3.3125 C-9.31063844 1.63808518 -6.48738457 1.4557613 -2.92578125 1.2109375 C-0.99401197 1.2026491 -0.99401197 1.2026491 0 0 Z " fill="#B6BAC3" transform="translate(78,57)"/>
<path d="M0 0 C2.97 0.495 2.97 0.495 6 1 C6 4.60352128 4.91409751 6.01400788 3 9 C2.67 9.66 2.34 10.32 2 11 C-0.97 10.67 -3.94 10.34 -7 10 C-5.71937515 8.2925002 -4.38232443 6.62626404 -3 5 C-2.34 5 -1.68 5 -1 5 C-0.67 3.35 -0.34 1.7 0 0 Z " fill="#A9AEBA" transform="translate(61,128)"/>
<path d="M0 0 C2.73240211 1.04474198 5.32972921 2.16837236 7.9375 3.5 C10.91134185 4.9565756 13.84071682 6.02212664 17 7 C16.34 8.32 15.68 9.64 15 11 C13.35 10.67 11.7 10.34 10 10 C10 9.34 10 8.68 10 8 C8.906875 8.103125 7.81375 8.20625 6.6875 8.3125 C5.470625 8.209375 4.25375 8.10625 3 8 C0.61835808 5.15739513 0 3.71594733 0 0 Z " fill="#EEA66A" transform="translate(82,75)"/>
<path d="M0 0 C-1.20369692 3.61109076 -2.53482939 4.09173559 -5.8203125 5.75195312 C-6.45710938 6.06068359 -7.09390625 6.36941406 -7.75 6.6875 C-8.37132812 7.00783203 -8.99265625 7.32816406 -9.6328125 7.65820312 C-13.22530227 9.43550028 -15.98396001 10.40620252 -20 10 C-20.33 9.01 -20.66 8.02 -21 7 C-19.66195313 6.49339844 -19.66195313 6.49339844 -18.296875 5.9765625 C-17.12640625 5.53054687 -15.9559375 5.08453125 -14.75 4.625 C-13.00976562 3.96371094 -13.00976562 3.96371094 -11.234375 3.2890625 C-8.1299572 2.12208055 -8.1299572 2.12208055 -5.828125 0.8359375 C-4 0 -4 0 0 0 Z " fill="#BBC9CE" transform="translate(31,131)"/>
<path d="M0 0 C0.2475 0.94875 0.495 1.8975 0.75 2.875 C1.6857077 6.08693191 1.6857077 6.08693191 4.125 7.375 C4.74375 7.58125 5.3625 7.7875 6 8 C6 8.66 6 9.32 6 10 C2.8125 10.75 2.8125 10.75 -1 11 C-3.9375 9.0625 -3.9375 9.0625 -6 7 C-5.6875 4.625 -5.6875 4.625 -5 2 C-2 0 -2 0 0 0 Z " fill="#C7B2A9" transform="translate(70,116)"/>
<path d="M0 0 C0.77537109 0.34611328 0.77537109 0.34611328 1.56640625 0.69921875 C-0.31059711 4.45322547 -5.13676967 5.65518072 -8.80859375 7.38671875 C-10.1234375 8.02963867 -10.1234375 8.02963867 -11.46484375 8.68554688 C-12.30789062 9.08580078 -13.1509375 9.48605469 -14.01953125 9.8984375 C-15.1804126 10.45277466 -15.1804126 10.45277466 -16.36474609 11.01831055 C-18.43359375 11.69921875 -18.43359375 11.69921875 -21.43359375 10.69921875 C-17.68373677 7.49013811 -13.76483962 5.09058068 -9.37109375 2.88671875 C-8.75943359 2.56251953 -8.14777344 2.23832031 -7.51757812 1.90429688 C-3.00904286 -0.37190417 -3.00904286 -0.37190417 0 0 Z " fill="#E7DBBC" transform="translate(40.43359375,120.30078125)"/>
<path d="M0 0 C0.66 0.66 1.32 1.32 2 2 C3.98356483 2.71408334 5.98315437 3.38617742 8 4 C7.01 5.485 7.01 5.485 6 7 C5.34 7 4.68 7 4 7 C4 7.66 4 8.32 4 9 C2.35 9.33 0.7 9.66 -1 10 C-1.474375 8.88625 -1.94875 7.7725 -2.4375 6.625 C-3.25306463 4.73289006 -4.07856355 2.84287291 -5 1 C-2 0 -2 0 0 0 Z " fill="#E99E65" transform="translate(78,89)"/>
<path d="M0 0 C0.33 0.66 0.66 1.32 1 2 C2.98 2 4.96 2 7 2 C7 1.67 7 1.34 7 1 C9.64 0.67 12.28 0.34 15 0 C11.28570342 4.17858365 7.35814198 7.17846829 2 9 C1.34 8.67 0.68 8.34 0 8 C0.99 7.01 1.98 6.02 3 5 C0.64632287 4.3121764 0.64632287 4.3121764 -2 4 C-2.99 4.66 -3.98 5.32 -5 6 C-5 5.01 -5 4.02 -5 3 C-2.5 1.3125 -2.5 1.3125 0 0 Z " fill="#A36B6E" transform="translate(60,111)"/>
<path d="M0 0 C-0.2578125 1.859375 -0.2578125 1.859375 -1 4 C-2.7421875 5.265625 -2.7421875 5.265625 -4.875 6.25 C-5.57367188 6.58515625 -6.27234375 6.9203125 -6.9921875 7.265625 C-9 8 -9 8 -12 8 C-12.33 8.66 -12.66 9.32 -13 10 C-14 9 -14 9 -14.0625 6.4375 C-14.041875 5.633125 -14.02125 4.82875 -14 4 C-12.23141309 3.32739649 -10.46003984 2.66211605 -8.6875 2 C-7.70136719 1.62875 -6.71523437 1.2575 -5.69921875 0.875 C-3 0 -3 0 0 0 Z " fill="#E89C62" transform="translate(89,98)"/>
<path d="M0 0 C-0.66 0.94875 -1.32 1.8975 -2 2.875 C-4.67400332 7.46035076 -4.37403169 11.83628477 -4 17 C-6.86724686 16.42655063 -7.8614515 16.1385485 -10 14 C-9.71125 13.30132812 -9.4225 12.60265625 -9.125 11.8828125 C-8.75375 10.97273438 -8.3825 10.06265625 -8 9.125 C-7.62875 8.22007813 -7.2575 7.31515625 -6.875 6.3828125 C-5.88509774 4.11016142 -5.88509774 4.11016142 -6 2 C-7.32 2.33 -8.64 2.66 -10 3 C-8.0130571 -0.97388579 -3.91761109 -0.08705802 0 0 Z " fill="#C4C6C6" transform="translate(99,62)"/>
<path d="M0 0 C5.61 0.66 11.22 1.32 17 2 C17.33 3.98 17.66 5.96 18 8 C17.401875 7.835 16.80375 7.67 16.1875 7.5 C13.88655664 6.8885876 13.88655664 6.8885876 11 7 C10.67 6.01 10.34 5.02 10 4 C9.01 4.495 9.01 4.495 8 5 C6.00039988 5.039992 3.99952758 5.04346799 2 5 C1.34 3.35 0.68 1.7 0 0 Z " fill="#8B96A8" transform="translate(68,54)"/>
<path d="M0 0 C1.98 0.99 3.96 1.98 6 3 C6.33 2.34 6.66 1.68 7 1 C9.64 1 12.28 1 15 1 C15 1.66 15 2.32 15 3 C12.0173094 4.52448631 9.181798 5.93940067 6 7 C6 7.66 6 8.32 6 9 C5.34 9 4.68 9 4 9 C4 8.34 4 7.68 4 7 C3.01 7 2.02 7 1 7 C0.67 4.69 0.34 2.38 0 0 Z " fill="#2E1720" transform="translate(80,59)"/>
<path d="M0 0 C5.27315333 0.4452885 10.01770224 1.08373163 15 3 C15.33 2.01 15.66 1.02 16 0 C16.66 1.32 17.32 2.64 18 4 C15.20402902 5.96282811 14.00812564 6.00108464 10.546875 5.5390625 C9.29390625 5.23742187 8.0409375 4.93578125 6.75 4.625 C5.48671875 4.32851562 4.2234375 4.03203125 2.921875 3.7265625 C1.95765625 3.48679687 0.9934375 3.24703125 0 3 C0 2.01 0 1.02 0 0 Z " fill="#BB7272" transform="translate(60,84)"/>
<path d="M0 0 C0 1.32 0 2.64 0 4 C-4.86051596 6.59227518 -9.65271133 6.18689553 -15 6 C-15.33 5.34 -15.66 4.68 -16 4 C-5.62642369 -0.59225513 -5.62642369 -0.59225513 0 0 Z " fill="#B6AAB3" transform="translate(131,92)"/>
<path d="M0 0 C3 1 3 1 4 3 C4.23076923 8.53846154 4.23076923 8.53846154 3 11 C-0.3776758 9.87410807 -1.71363192 8.68056948 -4 6 C-4 5.01 -4 4.02 -4 3 C-3.34 3 -2.68 3 -2 3 C-1.34 2.01 -0.68 1.02 0 0 Z " fill="#BAC6CB" transform="translate(122,43)"/>
<path d="M0 0 C0.66 0 1.32 0 2 0 C1.69542509 2.94422416 1.16507321 3.85920226 -1.125 5.8125 C-4.79761922 7.32945142 -7.15212519 6.72601411 -11 6 C-11.99 6.495 -11.99 6.495 -13 7 C-13.99 6.01 -14.98 5.02 -16 4 C-15 3 -15 3 -11.62109375 2.90234375 C-10.22652923 2.90901631 -8.83198257 2.92097468 -7.4375 2.9375 C-6.72658203 2.94201172 -6.01566406 2.94652344 -5.28320312 2.95117188 C-3.52209987 2.96299136 -1.76103964 2.98092737 0 3 C0 2.01 0 1.02 0 0 Z " fill="#796C70" transform="translate(127,102)"/>
<path d="M0 0 C0.33 1.65 0.66 3.3 1 5 C-6.42857143 5.14285714 -6.42857143 5.14285714 -10 4 C-7.53453745 -1.4592385 -5.69047474 -1.11335375 0 0 Z " fill="#B5CDCF" transform="translate(84,21)"/>
<path d="M0 0 C1.75 1.5625 1.75 1.5625 3 3 C2.67 3.99 2.34 4.98 2 6 C1.34 6 0.68 6 0 6 C-0.33 5.01 -0.66 4.02 -1 3 C-3.97 3 -6.94 3 -10 3 C-10.33 3.66 -10.66 4.32 -11 5 C-11.99 4.01 -12.98 3.02 -14 2 C-3.80866062 -1.47432024 -3.80866062 -1.47432024 0 0 Z " fill="#F4E0B0" transform="translate(56,128)"/>
<path d="M0 0 C2.64 0 5.28 0 8 0 C8 1.98 8 3.96 8 6 C6.3125 6.6875 6.3125 6.6875 4 7 C1.25 5.5625 1.25 5.5625 -1 4 C-0.67 2.68 -0.34 1.36 0 0 Z " fill="#ECA868" transform="translate(71,117)"/>
<path d="M0 0 C0 0.99 0 1.98 0 3 C-11.33712984 7.59225513 -11.33712984 7.59225513 -18 7 C-18 6.67 -18 6.34 -18 6 C-16.948125 5.7525 -15.89625 5.505 -14.8125 5.25 C-11.95094094 4.45703785 -10.81999238 3.85072539 -8.4375 1.875 C-5.42499839 -0.44230893 -3.70920381 -0.34504221 0 0 Z " fill="#848C9D" transform="translate(77,133)"/>
<path d="M0 0 C0.66 0.33 1.32 0.66 2 1 C1.67 1.66 1.34 2.32 1 3 C4.63 3.33 8.26 3.66 12 4 C8.32740617 6.44839588 5.45351799 8 1 8 C0.67 8.66 0.34 9.32 0 10 C-1.36952673 7.26094655 -1.12621361 5.02912668 -1 2 C-0.67 1.34 -0.34 0.68 0 0 Z " fill="#96A5B8" transform="translate(73,22)"/>
<path d="M0 0 C0.99 0.33 1.98 0.66 3 1 C4.34261242 7.46895075 4.34261242 7.46895075 2.75 9.9375 C1 11 1 11 -2 11 C-1.85892253 9.54119891 -1.71197585 8.08296449 -1.5625 6.625 C-1.48128906 5.81289062 -1.40007812 5.00078125 -1.31640625 4.1640625 C-1 2 -1 2 0 0 Z " fill="#2B141D" transform="translate(124,67)"/>
<path d="M0 0 C3.3 0.99 6.6 1.98 10 3 C8 7 8 7 6 9 C3.5625 7.875 3.5625 7.875 1 6 C0.1875 2.8125 0.1875 2.8125 0 0 Z " fill="#6C6F7A" transform="translate(102,27)"/>
<path d="M0 0 C0.33 0.99 0.66 1.98 1 3 C-0.98 3.33 -2.96 3.66 -5 4 C-5 4.66 -5 5.32 -5 6 C-10.75 6.125 -10.75 6.125 -13 5 C-12.67 4.01 -12.34 3.02 -12 2 C-10.95199219 1.90912109 -10.95199219 1.90912109 -9.8828125 1.81640625 C-8.97273438 1.73261719 -8.06265625 1.64882812 -7.125 1.5625 C-6.22007813 1.48128906 -5.31515625 1.40007812 -4.3828125 1.31640625 C-1.98889139 1.13010715 -1.98889139 1.13010715 0 0 Z " fill="#FCD083" transform="translate(100,107)"/>
<path d="M0 0 C4.62 0 9.24 0 14 0 C14.33 0.99 14.66 1.98 15 3 C5.03896104 4.51948052 5.03896104 4.51948052 0 2 C0 1.34 0 0.68 0 0 Z " fill="#AD5C61" transform="translate(92,95)"/>
<path d="M0 0 C1.41702513 0.14230808 2.8336096 0.28900746 4.25 0.4375 C5.43335937 0.55931641 5.43335937 0.55931641 6.640625 0.68359375 C8.82364639 0.97634993 10.8773182 1.42064419 13 2 C12.34 3.32 11.68 4.64 11 6 C7.26512223 5.5020163 5.18762365 5.12508244 2 3 C2 2.34 2 1.68 2 1 C1.34 0.67 0.68 0.34 0 0 Z " fill="#87464E" transform="translate(103,90)"/>
<path d="M0 0 C0.66 0.99 1.32 1.98 2 3 C0.9790625 3.185625 0.9790625 3.185625 -0.0625 3.375 C-3.4277412 4.09100877 -6.70013425 5.02945125 -10 6 C-10.66 5.01 -11.32 4.02 -12 3 C-7.83825995 0.62186283 -4.82488726 -0.65793917 0 0 Z " fill="#F0AA71" transform="translate(123,79)"/>
<path d="M0 0 C3.84685385 1.24762828 6.02929405 2.3870391 8 6 C7.67 6.99 7.34 7.98 7 9 C5.68 7.02 4.36 5.04 3 3 C3.33 3.66 3.66 4.32 4 5 C4 5.99 4 6.98 4 8 C2.35 7.67 0.7 7.34 -1 7 C-1 6.34 -1 5.68 -1 5 C-1.66 4.67 -2.32 4.34 -3 4 C-2.01 2.68 -1.02 1.36 0 0 Z " fill="#8C6063" transform="translate(99,61)"/>
<path d="M0 0 C3.03204692 4.54807038 4.28986399 8.14708474 4.3125 13.625 C4.32925781 14.56601563 4.34601563 15.50703125 4.36328125 16.4765625 C4 19 4 19 2.66796875 20.8359375 C1 22 1 22 -2 22 C-2 21.34 -2 20.68 -2 20 C-1.33742188 19.57976562 -0.67484375 19.15953125 0.0078125 18.7265625 C2.29713829 17.14557591 2.29713829 17.14557591 2.2421875 14.3359375 C2.12101562 13.35882813 1.99984375 12.38171875 1.875 11.375 C1.71644531 9.90160156 1.71644531 9.90160156 1.5546875 8.3984375 C1.37164062 7.60695313 1.18859375 6.81546875 1 6 C0.34 5.67 -0.32 5.34 -1 5 C-0.67 3.35 -0.34 1.7 0 0 Z " fill="#8B6362" transform="translate(125,58)"/>
<path d="M0 0 C1.03115279 3.26913624 0.9638984 5.86041348 0.5625 9.25 C0.46066406 10.14203125 0.35882813 11.0340625 0.25390625 11.953125 C0.17011719 12.62859375 0.08632812 13.3040625 0 14 C-0.99 14.33 -1.98 14.66 -3 15 C-3.73989213 12.09375703 -4.41650906 9.17849225 -5.0625 6.25 C-5.23910156 5.45078125 -5.41570312 4.6515625 -5.59765625 3.828125 C-5.73042969 3.22484375 -5.86320312 2.6215625 -6 2 C-4 2 -4 2 -2.375 3.5 C-1.92125 3.995 -1.4675 4.49 -1 5 C-0.67 3.35 -0.34 1.7 0 0 Z " fill="#AF888C" transform="translate(126,49)"/>
<path d="M0 0 C2.97 0.495 2.97 0.495 6 1 C5.67 2.32 5.34 3.64 5 5 C1.37 5 -2.26 5 -6 5 C-5.34 4.01 -4.68 3.02 -4 2 C-2.68 2 -1.36 2 0 2 C0 1.34 0 0.68 0 0 Z " fill="#B6C8CD" transform="translate(68,107)"/>
<path d="M0 0 C0.33 0 0.66 0 1 0 C1 1.98 1 3.96 1 6 C0.05125 6.45375 -0.8975 6.9075 -1.875 7.375 C-5.00313679 8.80238254 -5.00313679 8.80238254 -7 11 C-7.33 10.01 -7.66 9.02 -8 8 C-10.01508358 7.26676204 -10.01508358 7.26676204 -12 7 C-10.3767313 6.3291288 -8.75132422 5.66342971 -7.125 5 C-6.22007813 4.62875 -5.31515625 4.2575 -4.3828125 3.875 C-2 3 -2 3 0 3 C0 2.01 0 1.02 0 0 Z " fill="#A6626E" transform="translate(80,61)"/>
<path d="M0 0 C1.98 0.99 3.96 1.98 6 3 C6 3.99 6 4.98 6 6 C3 8 3 8 -1 8 C-1.04241723 5.66705225 -1.04092937 3.33297433 -1 1 C-0.67 0.67 -0.34 0.34 0 0 Z " fill="#F2D69E" transform="translate(81,40)"/>
<path d="M0 0 C0.66 0.33 1.32 0.66 2 1 C-1.27530896 5.63720719 -4.30435607 9.68542782 -9 13 C-9.66 11.68 -10.32 10.36 -11 9 C-8 7 -8 7 -5 7 C-5 6.34 -5 5.68 -5 5 C-3.37446717 3.29319053 -1.70884005 1.62339805 0 0 Z " fill="#8F7268" transform="translate(86,122)"/>
<path d="M0 0 C0.66 0.33 1.32 0.66 2 1 C2.99293628 3.97880885 3.13406411 6.01601198 3.125 9.125 C3.12757812 10.01445313 3.13015625 10.90390625 3.1328125 11.8203125 C3 14 3 14 2 15 C0.33382885 15.04063832 -1.33388095 15.042721 -3 15 C-2.01 14.34 -1.02 13.68 0 13 C-0.08378906 12.14535156 -0.16757813 11.29070312 -0.25390625 10.41015625 C-0.35574219 9.30542969 -0.45757812 8.20070313 -0.5625 7.0625 C-0.66691406 5.96035156 -0.77132812 4.85820313 -0.87890625 3.72265625 C-0.91886719 2.82417969 -0.95882812 1.92570312 -1 1 C-0.67 0.67 -0.34 0.34 0 0 Z " fill="#D07F64" transform="translate(108,66)"/>
<path d="M0 0 C3.36329858 0.57987906 4.6723487 1.57924265 7 4 C8.64605826 5.03357147 10.30963442 6.04060332 12 7 C11.67 7.66 11.34 8.32 11 9 C4.25 8.25 4.25 8.25 2 6 C2.66 5.67 3.32 5.34 4 5 C2.68 3.35 1.36 1.7 0 0 Z " fill="#C67969" transform="translate(102,108)"/>
<path d="M0 0 C2 4 2 4 1.625 6.25 C1.41875 6.8275 1.2125 7.405 1 8 C1.680625 8.2475 2.36125 8.495 3.0625 8.75 C6.56865083 10.24197908 9.71620368 12.06835511 13 14 C10 15 10 15 7.30078125 13.78515625 C6.31464844 13.21667969 5.32851562 12.64820312 4.3125 12.0625 C3.31863281 11.49660156 2.32476562 10.93070313 1.30078125 10.34765625 C0.54152344 9.90292969 -0.21773438 9.45820312 -1 9 C-0.67 6.03 -0.34 3.06 0 0 Z " fill="#B06E64" transform="translate(83,66)"/>
<path d="M0 0 C0 2.97 0 5.94 0 9 C-0.33 7.68 -0.66 6.36 -1 5 C-3.31 5.33 -5.62 5.66 -8 6 C-8 5.01 -8 4.02 -8 3 C-1.125 0 -1.125 0 0 0 Z " fill="#D28557" transform="translate(80,112)"/>
<path d="M0 0 C0.99 0.33 1.98 0.66 3 1 C0.25 6.875 0.25 6.875 -2 8 C-2.33 7.34 -2.66 6.68 -3 6 C-5.52733235 5.34444881 -5.52733235 5.34444881 -8 5 C-4.25 3 -4.25 3 -2 3 C-2 2.34 -2 1.68 -2 1 C-1.34 0.67 -0.68 0.34 0 0 Z " fill="#BA677A" transform="translate(78,123)"/>
<path d="M0 0 C-1.43294498 0.84114171 -2.87154405 1.67265687 -4.3125 2.5 C-5.11300781 2.9640625 -5.91351563 3.428125 -6.73828125 3.90625 C-9 5 -9 5 -12 5 C-12 5.66 -12 6.32 -12 7 C-13.32 6.67 -14.64 6.34 -16 6 C-13.52216837 3.07699862 -11.0148289 2.02659673 -7.4375 0.75 C-6.46683594 0.39421875 -5.49617188 0.0384375 -4.49609375 -0.328125 C-2 -1 -2 -1 0 0 Z " fill="#CEACA0" transform="translate(58,113)"/>
<path d="M0 0 C1.32 0.33 2.64 0.66 4 1 C4.33 2.65 4.66 4.3 5 6 C3.02 6.66 1.04 7.32 -1 8 C-1 7.01 -1 6.02 -1 5 C-1.66 4.67 -2.32 4.34 -3 4 C-2.01 2.68 -1.02 1.36 0 0 Z " fill="#9BADBF" transform="translate(63,103)"/>
<path d="M0 0 C0.94875 0.04125 1.8975 0.0825 2.875 0.125 C1.5 2.125 1.5 2.125 -0.125 4.125 C-0.785 4.125 -1.445 4.125 -2.125 4.125 C-2.125 4.785 -2.125 5.445 -2.125 6.125 C-3.445 6.125 -4.765 6.125 -6.125 6.125 C-5.28810868 1.94054341 -4.61542241 0.1846169 0 0 Z " fill="#B5C6CB" transform="translate(69.125,59.875)"/>
<path d="M0 0 C3.96 1.98 3.96 1.98 8 4 C8 2.68 8 1.36 8 0 C8.66 0 9.32 0 10 0 C10 1.65 10 3.3 10 5 C6.62182575 5.84454356 4.32534757 6.10844919 1 5 C0.67 3.35 0.34 1.7 0 0 Z " fill="#9FA1AC" transform="translate(83,49)"/>
<path d="M0 0 C0.66 0 1.32 0 2 0 C2.061875 0.94875 2.12375 1.8975 2.1875 2.875 C2.455625 3.90625 2.72375 4.9375 3 6 C5.46255685 7.45291273 5.46255685 7.45291273 8 8 C7.67 9.32 7.34 10.64 7 12 C3.2721236 9.35124572 1.25408395 7.44629765 0 3 C0 2.01 0 1.02 0 0 Z " fill="#8E91A1" transform="translate(100,27)"/>
<path d="M0 0 C0.66 0.66 1.32 1.32 2 2 C5.34725531 1.72481084 5.34725531 1.72481084 9 1 C10.134375 0.814375 11.26875 0.62875 12.4375 0.4375 C13.7059375 0.2209375 13.7059375 0.2209375 15 0 C12.13982486 2.33051308 9.56393336 3.98173333 6 5 C2.6875 4.625 2.6875 4.625 0 4 C0 2.68 0 1.36 0 0 Z " fill="#8592A4" transform="translate(9,138)"/>
<path d="M0 0 C3.63 0 7.26 0 11 0 C11.33 1.65 11.66 3.3 12 5 C7.61110675 4.33501617 4.0188515 2.81242323 0 1 C0 0.67 0 0.34 0 0 Z " fill="#AF9AA1" transform="translate(64,128)"/>
<path d="M0 0 C2.4375 1.1875 2.4375 1.1875 5 3 C5.8125 5.6875 5.8125 5.6875 6 8 C3.36 8 0.72 8 -2 8 C-1.01 7.67 -0.02 7.34 1 7 C1.73323796 4.98491642 1.73323796 4.98491642 2 3 C1.34 2.67 0.68 2.34 0 2 C0 1.34 0 0.68 0 0 Z " fill="#A3827A" transform="translate(119,111)"/>
<path d="M0 0 C0.66 0.66 1.32 1.32 2 2 C1.01 2.33 0.02 2.66 -1 3 C-1 3.66 -1 4.32 -1 5 C-3.31 5.33 -5.62 5.66 -8 6 C-8.33 4.35 -8.66 2.7 -9 1 C-6.03 1.33 -3.06 1.66 0 2 C0 1.34 0 0.68 0 0 Z " fill="#6E727E" transform="translate(83,29)"/>
<path d="M0 0 C2.50298434 2.93828597 3.46930939 5.17902761 4 9 C4.66 9 5.32 9 6 9 C6 10.32 6 11.64 6 13 C5.34 13 4.68 13 4 13 C0.35537265 8.17622851 0 5.94220324 0 0 Z " fill="#DCAD90" transform="translate(102,51)"/>
<path d="M0 0 C3.0625 0.1875 3.0625 0.1875 5.0625 2.1875 C5.0625 3.5075 5.0625 4.8275 5.0625 6.1875 C1.60324837 4.9383258 -1.08443203 3.51222205 -3.9375 1.1875 C-2.9375 0.1875 -2.9375 0.1875 0 0 Z " fill="#BBD2D4" transform="translate(107.9375,20.8125)"/>
<path d="M0 0 C1.65 0 3.3 0 5 0 C5 1.32 5 2.64 5 4 C2.36 4.33 -0.28 4.66 -3 5 C-3.33 4.34 -3.66 3.68 -4 3 C-2.68 2.67 -1.36 2.34 0 2 C0 1.34 0 0.68 0 0 Z " fill="#C49391" transform="translate(47,124)"/>
<path d="M0 0 C4.95 0.99 4.95 0.99 10 2 C9.34 3.98 8.68 5.96 8 8 C7.79375 7.38125 7.5875 6.7625 7.375 6.125 C5.45224112 3.15346355 3.33405473 2.86975341 0 2 C0 1.34 0 0.68 0 0 Z " fill="#E4AB84" transform="translate(52,125)"/>
<path d="M0 0 C2.94545056 2.43319829 3.32286717 4.32413607 4 8 C4.66 8.33 5.32 8.66 6 9 C6 9.99 6 10.98 6 12 C5.34 11.67 4.68 11.34 4 11 C4 10.34 4 9.68 4 9 C3.34 9 2.68 9 2 9 C1.67 7.02 1.34 5.04 1 3 C0.01 2.67 -0.98 2.34 -2 2 C-1.34 1.34 -0.68 0.68 0 0 Z " fill="#634C53" transform="translate(63,93)"/>
<path d="M0 0 C0.66 0.33 1.32 0.66 2 1 C1.67 1.66 1.34 2.32 1 3 C1.66 3.66 2.32 4.32 3 5 C1.40084119 5.69906942 -0.20455045 6.38389468 -1.8125 7.0625 C-2.70582031 7.44535156 -3.59914063 7.82820313 -4.51953125 8.22265625 C-7 9 -7 9 -10 8 C-7.69 7.01 -5.38 6.02 -3 5 C-3.33 4.34 -3.66 3.68 -4 3 C-2.68 2.01 -1.36 1.02 0 0 Z " fill="#D98A5A" transform="translate(86,93)"/>
<path d="M0 0 C-2.34591852 2.7710688 -4.14776201 3.52059284 -7.6875 4.1875 C-8.49574219 4.34605469 -9.30398437 4.50460938 -10.13671875 4.66796875 C-11.05904297 4.83232422 -11.05904297 4.83232422 -12 5 C-5.5 -1.96428571 -5.5 -1.96428571 0 0 Z " fill="#909EB2" transform="translate(22,133)"/>
<path d="M0 0 C0.99 0 1.98 0 3 0 C3.33 2.64 3.66 5.28 4 8 C3.01 8 2.02 8 1 8 C1.33 7.34 1.66 6.68 2 6 C0.68 5.34 -0.64 4.68 -2 4 C-1.34 4 -0.68 4 0 4 C-0.33 3.01 -0.66 2.02 -1 1 C-0.67 0.67 -0.34 0.34 0 0 Z " fill="#CA8C81" transform="translate(72,102)"/>
<path d="M0 0 C2.97 0.33 5.94 0.66 9 1 C9 2.32 9 3.64 9 5 C4.545 4.01 4.545 4.01 0 3 C0 2.01 0 1.02 0 0 Z " fill="#BD6B80" transform="translate(60,84)"/>
<path d="M0 0 C-0.33 0.99 -0.66 1.98 -1 3 C-2.64034193 3.72904086 -4.31301918 4.38655243 -6 5 C-6.886875 5.556875 -7.77375 6.11375 -8.6875 6.6875 C-9.450625 7.120625 -10.21375 7.55375 -11 8 C-11.66 7.67 -12.32 7.34 -13 7 C-11.60643954 4.21287908 -9.83494327 3.73536671 -7.0625 2.375 C-6.16660156 1.92898437 -5.27070313 1.48296875 -4.34765625 1.0234375 C-2 0 -2 0 0 0 Z " fill="#9EA4B5" transform="translate(34,126)"/>
<path d="M0 0 C2.88575819 0.39803561 3.82189513 0.79009069 5.75 3.0625 C6.36875 4.0215625 6.36875 4.0215625 7 5 C4.03 4.67 1.06 4.34 -2 4 C-1.34 2.68 -0.68 1.36 0 0 Z " fill="#DA9267" transform="translate(101,109)"/>
<path d="M0 0 C0.33 1.32 0.66 2.64 1 4 C-2.75 7 -2.75 7 -5 7 C-5 8.65 -5 10.3 -5 12 C-5.33 12 -5.66 12 -6 12 C-6 10.02 -6 8.04 -6 6 C-5.34 6 -4.68 6 -4 6 C-3.896875 5.38125 -3.79375 4.7625 -3.6875 4.125 C-3 2 -3 2 0 0 Z " fill="#D88959" transform="translate(92,101)"/>
<path d="M0 0 C0.66 0.33 1.32 0.66 2 1 C1.34 2.32 0.68 3.64 0 5 C-1.45792884 5.05399736 -2.91642712 5.09279177 -4.375 5.125 C-5.18710938 5.14820312 -5.99921875 5.17140625 -6.8359375 5.1953125 C-9 5 -9 5 -11 3 C-7.7 3 -4.4 3 -1 3 C-0.67 2.01 -0.34 1.02 0 0 Z " fill="#DE8E5D" transform="translate(115,84)"/>
<path d="M0 0 C1.2077558 3.62326739 0.54311128 4.64146369 -1 8 C-2.32 7.01 -3.64 6.02 -5 5 C-4.625 3.0625 -4.625 3.0625 -4 1 C-2 0 -2 0 0 0 Z " fill="#F5F2EB" transform="translate(93,64)"/>
<path d="M0 0 C1.46224799 0.42423244 2.91973412 0.86490245 4.375 1.3125 C5.18710938 1.55613281 5.99921875 1.79976562 6.8359375 2.05078125 C9 3 9 3 11 6 C6.64477147 5.49357808 3.55760365 4.61588503 0 2 C0 1.34 0 0.68 0 0 Z " fill="#A66E72" transform="translate(80,38)"/>
<path d="M0 0 C0.66 0 1.32 0 2 0 C1.8125 1.8125 1.8125 1.8125 1 4 C-3.17857143 7 -3.17857143 7 -6 7 C-5.67 5.68 -5.34 4.36 -5 3 C-3.35 3 -1.7 3 0 3 C0 2.01 0 1.02 0 0 Z " fill="#797C87" transform="translate(127,102)"/>
<path d="M0 0 C0.33 0.66 0.66 1.32 1 2 C4.465 1.505 4.465 1.505 8 1 C7.34 2.32 6.68 3.64 6 5 C4.35 5 2.7 5 1 5 C0.67 3.35 0.34 1.7 0 0 Z " fill="#9EA4B6" transform="translate(62,64)"/>
<path d="M0 0 C5.41538462 -0.36923077 5.41538462 -0.36923077 8.375 1.5 C8.91125 1.995 9.4475 2.49 10 3 C6.97786398 3.97140086 4.9812093 4.19248372 2 3 C1.34 2.01 0.68 1.02 0 0 Z " fill="#9B9BA8" transform="translate(76,35)"/>
<path d="M0 0 C6.875 2.75 6.875 2.75 8 5 C6.02 5 4.04 5 2 5 C2 4.01 2 3.02 2 2 C1.01 2.99 0.02 3.98 -1 5 C-1.66 4.67 -2.32 4.34 -3 4 C-2.01 2.68 -1.02 1.36 0 0 Z " fill="#99AABE" transform="translate(103,22)"/>
<path d="M0 0 C-5.14285714 4.42857143 -5.14285714 4.42857143 -9 5 C-8.67 3.35 -8.34 1.7 -8 0 C-2.25 -1.125 -2.25 -1.125 0 0 Z " fill="#A47170" transform="translate(75,112)"/>
<path d="M0 0 C0.33 1.65 0.66 3.3 1 5 C-1.31 5 -3.62 5 -6 5 C-3.74193548 0 -3.74193548 0 0 0 Z " fill="#8B7571" transform="translate(60,85)"/>
<path d="M0 0 C0.66 0 1.32 0 2 0 C1.67 1.98 1.34 3.96 1 6 C-0.65 5.67 -2.3 5.34 -4 5 C-4 4.34 -4 3.68 -4 3 C-2.68 2.67 -1.36 2.34 0 2 C0 1.34 0 0.68 0 0 Z " fill="#BDC8CD" transform="translate(62,133)"/>
<path d="M0 0 C-8.261959 4.59225513 -8.261959 4.59225513 -13 4 C-8.74310869 0.5314219 -5.44072603 -1.61377467 0 0 Z " fill="#97A3B6" transform="translate(34,134)"/>
<path d="M0 0 C1.9375 0.3125 1.9375 0.3125 4 1 C4.33 1.99 4.66 2.98 5 4 C4.34 4 3.68 4 3 4 C3.33 5.32 3.66 6.64 4 8 C3.01 7.67 2.02 7.34 1 7 C0.67 4.69 0.34 2.38 0 0 Z " fill="#A25F64" transform="translate(94,73)"/>
<path d="M0 0 C-1.3125 2 -1.3125 2 -3 4 C-3.99 4 -4.98 4 -6 4 C-6 3.34 -6 2.68 -6 2 C-7.32 2.33 -8.64 2.66 -10 3 C-8.0130571 -0.97388579 -3.91761109 -0.08705802 0 0 Z " fill="#C9BFBC" transform="translate(99,62)"/>
<path d="M0 0 C0.66 0.33 1.32 0.66 2 1 C1.67 1.66 1.34 2.32 1 3 C1.99 3.33 2.98 3.66 4 4 C4 4.66 4 5.32 4 6 C2.35 5.67 0.7 5.34 -1 5 C-1 1 -1 1 0 0 Z " fill="#BECED1" transform="translate(67,119)"/>
<path d="M0 0 C2.62187494 1.04874998 3.79371361 1.64931313 5.25 4.125 C5.4975 4.74375 5.745 5.3625 6 6 C4.02 5.34 2.04 4.68 0 4 C0 2.68 0 1.36 0 0 Z " fill="#CBD5CC" transform="translate(84,70)"/>
<path d="M0 0 C0.6875 2.0625 0.6875 2.0625 1 4 C0.401875 3.835 -0.19625 3.67 -0.8125 3.5 C-3.11344336 2.8885876 -3.11344336 2.8885876 -6 3 C-6 2.01 -6 1.02 -6 0 C-3 -1 -3 -1 0 0 Z " fill="#9B8086" transform="translate(85,58)"/>
<path d="M0 0 C-0.33 0.66 -0.66 1.32 -1 2 C-3.875 2.125 -3.875 2.125 -7 2 C-7.66 1.34 -8.32 0.68 -9 0 C-5.67465243 -1.10844919 -3.37817425 -0.84454356 0 0 Z " fill="#DDAE91" transform="translate(112,102)"/>
<path d="M0 0 C-1.65 1.65 -3.3 3.3 -5 5 C-5.66 4.67 -6.32 4.34 -7 4 C-7 3.34 -7 2.68 -7 2 C-8.32 1.67 -9.64 1.34 -11 1 C-7.32589215 -0.17571451 -3.83070817 -0.07366746 0 0 Z " fill="#9D6661" transform="translate(79,67)"/>
<path d="M0 0 C1.67542976 0.28604898 3.34385343 0.61781233 5 1 C3 4 3 4 0.875 4.6875 C0.25625 4.790625 -0.3625 4.89375 -1 5 C-1 1 -1 1 0 0 Z " fill="#BB99A3" transform="translate(87,54)"/>
<path d="M0 0 C1.37562854 1.28965176 2.70766393 2.62689293 4 4 C4 4.66 4 5.32 4 6 C-0.455 5.01 -0.455 5.01 -5 4 C-3.68 3.34 -2.36 2.68 -1 2 C-0.67 1.34 -0.34 0.68 0 0 Z " fill="#936664" transform="translate(112,46)"/>
<path d="M0 0 C0 0.66 0 1.32 0 2 C-4.47058824 6 -4.47058824 6 -7 6 C-6.67 4.35 -6.34 2.7 -6 1 C-3.92446352 0.4465236 -2.15634036 0 0 0 Z " fill="#93A7BD" transform="translate(70,133)"/>
<path d="M0 0 C-0.66 1.32 -1.32 2.64 -2 4 C-2.66 4 -3.32 4 -4 4 C-4 3.34 -4 2.68 -4 2 C-5.32 1.67 -6.64 1.34 -8 1 C-4.93251126 -0.86240388 -3.40254489 -1.2151946 0 0 Z " fill="#A8A7B6" transform="translate(43,125)"/>
<path d="M0 0 C1.98 0.99 1.98 0.99 4 2 C4 2.66 4 3.32 4 4 C4.66 4.33 5.32 4.66 6 5 C4.02 5 2.04 5 0 5 C0 3.35 0 1.7 0 0 Z " fill="#DDA083" transform="translate(63,122)"/>
<path d="M0 0 C1.98 0.66 3.96 1.32 6 2 C3 4 3 4 0.3125 3.625 C-0.450625 3.41875 -1.21375 3.2125 -2 3 C-1.34 2.01 -0.68 1.02 0 0 Z " fill="#B76D77" transform="translate(114,115)"/>
<path d="M0 0 C0.99 0.33 1.98 0.66 3 1 C2.3125 2.9375 2.3125 2.9375 1 5 C-1.625 5.75 -1.625 5.75 -4 6 C-2.68 4.02 -1.36 2.04 0 0 Z " fill="#AE5D69" transform="translate(64,114)"/>
<path d="M0 0 C0.66 0.33 1.32 0.66 2 1 C1.67 1.99 1.34 2.98 1 4 C-0.98 4.33 -2.96 4.66 -5 5 C-3.35 3.35 -1.7 1.7 0 0 Z " fill="#DACFB7" transform="translate(24,127)"/>
<path d="M0 0 C-1.22934015 3.68802044 -2.93859378 4.72356973 -6 7 C-5.6875 4.625 -5.6875 4.625 -5 2 C-2 0 -2 0 0 0 Z " fill="#A5A1A9" transform="translate(70,116)"/>
<path d="M0 0 C0 0.99 0 1.98 0 3 C-2.31 3.33 -4.62 3.66 -7 4 C-7.33 3.34 -7.66 2.68 -8 2 C-2.25 0 -2.25 0 0 0 Z " fill="#E4AC86" transform="translate(123,94)"/>
<path d="M0 0 C1.32 1.32 2.64 2.64 4 4 C0.71023192 5.09658936 -0.71303767 4.79953138 -4 4 C-2.68 2.68 -1.36 1.36 0 0 Z " fill="#7C7276" transform="translate(126,88)"/>
<path d="M0 0 C1.98 0.495 1.98 0.495 4 1 C4 1.99 4 2.98 4 4 C2.35 3.67 0.7 3.34 -1 3 C-0.67 2.01 -0.34 1.02 0 0 Z " fill="#D7D8DC" transform="translate(99,65)"/>
<path d="M0 0 C2.5654594 2.5654594 2.54046087 4.47686668 3 8 C1.35 6.35 -0.3 4.7 -2 3 C-1.34 2.01 -0.68 1.02 0 0 Z " fill="#DB8E5B" transform="translate(117,50)"/>
</svg>
