<?xml version="1.0" encoding="UTF-8"?>
<svg version="1.1" xmlns="http://www.w3.org/2000/svg" width="150" height="150">
<path d="M0 0 C1 1 1 1 1.1875 4.25 C1.01101911 7.7796179 0.38572372 9.82324206 -1 13 C-0.443125 13.36351562 0.11375 13.72703125 0.6875 14.1015625 C4.63709279 16.70349018 8.44830802 19.33510041 12.125 22.3125 C15.67589 25.01457168 18.45863041 25.91266597 23 26 C25.32158065 25.65340705 25.32158065 25.65340705 27 25 C26.505 21.535 26.505 21.535 26 18 C30.875 19.875 30.875 19.875 32 21 C33.51928038 21.07179964 35.04167482 21.08392007 36.5625 21.0625 C37.38878906 21.05347656 38.21507813 21.04445313 39.06640625 21.03515625 C39.70449219 21.02355469 40.34257813 21.01195313 41 21 C42.78749076 24.81145889 43.15331129 27.56658122 42.9375 31.75 C42.8552115 35.72405048 43.03175366 38.74298245 44.5 42.4375 C46.94802811 48.95374873 47.62750836 56.33554722 44.7578125 62.796875 C41.00050607 68.66649798 41.00050607 68.66649798 37 70 C36.67 70.66 36.34 71.32 36 72 C36.515625 71.835 37.03125 71.67 37.5625 71.5 C40.73363876 70.84951 43.77218334 70.9379266 47 71 C48 74 48 74 46.8125 77.5 C45.01056558 80.9795975 44.31609785 82.14276076 41 84 C37.765625 84.29296875 37.765625 84.29296875 34.25 84.1875 C33.07953125 84.16042969 31.9090625 84.13335937 30.703125 84.10546875 C29.81109375 84.07066406 28.9190625 84.03585938 28 84 C30.71671665 86.84647028 33.71592421 88.83390746 37 91 C37.66 91.66 38.32 92.32 39 93 C38.625 95.125 38.625 95.125 38 97 C31.79787829 96.52291371 26.55584935 94.92901077 20.734375 92.7421875 C17.89380643 91.97117603 16.68456626 91.90043909 14 93 C12.30824337 94.30135125 10.64295195 95.63755204 9 97 C7.7625 97.5878125 7.7625 97.5878125 6.5 98.1875 C3.81435212 100.13459471 3.20116249 101.28517502 1.75 104.1875 C-1.58537488 110.53714225 -6.14604311 115.35899478 -12.81640625 118.19921875 C-20.70046226 120.56979886 -25.89698984 119.84061703 -33.25 116.0625 C-34.28640625 115.53785156 -35.3228125 115.01320313 -36.390625 114.47265625 C-39 113 -39 113 -41 111 C-47.81476658 111.24761395 -54.13726583 115.03199028 -60.21289062 117.84960938 C-65.42703672 120.18156416 -69.27508373 121.55910461 -75 121 C-75.495 118.525 -75.495 118.525 -76 116 C-75.26394531 115.61328125 -74.52789062 115.2265625 -73.76953125 114.828125 C-72.79371094 114.30734375 -71.81789063 113.7865625 -70.8125 113.25 C-69.84957031 112.73953125 -68.88664062 112.2290625 -67.89453125 111.703125 C-65.0131625 110.00774474 -62.57800021 108.12210972 -60 106 C-50.48591539 98.85052706 -40.4818296 94.50079561 -29.35644531 90.36279297 C-27.78008301 89.76942139 -27.78008301 89.76942139 -26.171875 89.1640625 C-25.2240918 88.81811035 -24.27630859 88.4721582 -23.29980469 88.11572266 C-20.69565728 87.09218072 -20.69565728 87.09218072 -19 84 C-19.9075 84.103125 -20.815 84.20625 -21.75 84.3125 C-25 84 -25 84 -27.125 82.1875 C-30.36331028 76.68237252 -33.37348636 70.98789084 -32.5625 64.5 C-30.64613768 61.43382028 -29.36181885 60.34472754 -26 59 C-20.12511974 58.3221292 -15.40853326 59.93960638 -10 62 C-10.51958285 57.62065881 -11.05675742 53.31196609 -12 49 C-13.27875 48.9175 -14.5575 48.835 -15.875 48.75 C-18.0859375 48.48828125 -18.0859375 48.48828125 -20 48 C-21.5 45.9375 -21.5 45.9375 -22 44 C-19.50174717 40.78796065 -16.9297008 37.82506863 -14 35 C-15.32 33.68 -16.64 32.36 -18 31 C-16.89167799 28.07806014 -16.32937485 27.15864385 -13.4453125 25.76953125 C-10.67499228 24.19357465 -10.67499228 24.19357465 -10.44140625 20.96875 C-10.50134766 19.25171875 -10.50134766 19.25171875 -10.5625 17.5 C-10.58441406 16.3553125 -10.60632813 15.210625 -10.62890625 14.03125 C-10.79069034 10.82702497 -10.79069034 10.82702497 -13 8 C-13.0625 4.5 -13.0625 4.5 -12 1 C-7.49634555 -1.8580884 -4.7025359 -2.76619759 0 0 Z " fill="#D28268" transform="translate(84,21)"/>
<path d="M0 0 C0.66 0.66 1.32 1.32 2 2 C0.68 2 -0.64 2 -2 2 C-1.52949219 2.35191406 -1.05898438 2.70382813 -0.57421875 3.06640625 C3.88217819 6.60015372 6.34638518 9.39608311 8 15 C8.29616541 17.85359375 8.49763669 20.67949448 8.59375 23.546875 C9.06059765 26.3659166 9.80333674 27.24734314 12 29 C10.68 29.33 9.36 29.66 8 30 C8.66 30 9.32 30 10 30 C10.495 31.485 10.495 31.485 11 33 C11 32.01 11 31.02 11 30 C11.66 30 12.32 30 13 30 C13.23589844 29.23945312 13.47179687 28.47890625 13.71484375 27.6953125 C15.23300075 24.51133581 16.55710658 23.64060834 19.5625 21.875 C23.28738371 19.80877472 23.28738371 19.80877472 25 16 C23.35 16 21.7 16 20 16 C19.67 16.66 19.34 17.32 19 18 C16.4375 18.625 16.4375 18.625 14 19 C16.52304193 16.34416639 19.06890556 14.34487555 22 12 C18.04 10.02 14.08 8.04 10 6 C10.66 4.68 11.32 3.36 12 2 C12.763125 2.804375 13.52625 3.60875 14.3125 4.4375 C19.18782341 8.5060323 25.26634453 8.22364658 31.34765625 7.859375 C34.05568811 7.55567049 36.64231416 7.1092929 39.25 6.3125 C41.68081682 5.87842557 42.94078207 6.74976054 45 8 C45 8.66 45 9.32 45 10 C48.63 10 52.26 10 56 10 C55.67 10.99 55.34 11.98 55 13 C55.515625 12.835 56.03125 12.67 56.5625 12.5 C59.73363876 11.84951 62.77218334 11.9379266 66 12 C67 15 67 15 65.8125 18.5 C64.01056558 21.9795975 63.31609785 23.14276076 60 25 C56.765625 25.29296875 56.765625 25.29296875 53.25 25.1875 C52.07953125 25.16042969 50.9090625 25.13335937 49.703125 25.10546875 C48.81109375 25.07066406 47.9190625 25.03585938 47 25 C49.71671665 27.84647028 52.71592421 29.83390746 56 32 C56.66 32.66 57.32 33.32 58 34 C57.625 36.125 57.625 36.125 57 38 C50.79787829 37.52291371 45.55584935 35.92901077 39.734375 33.7421875 C36.89380643 32.97117603 35.68456626 32.90043909 33 34 C31.30824337 35.30135125 29.64295195 36.63755204 28 38 C26.7625 38.5878125 26.7625 38.5878125 25.5 39.1875 C22.81435212 41.13459471 22.20116249 42.28517502 20.75 45.1875 C17.41462512 51.53714225 12.85395689 56.35899478 6.18359375 59.19921875 C-1.70046226 61.56979886 -6.89698984 60.84061703 -14.25 57.0625 C-15.28640625 56.53785156 -16.3228125 56.01320312 -17.390625 55.47265625 C-20 54 -20 54 -22 52 C-28.81476658 52.24761395 -35.13726583 56.03199028 -41.21289062 58.84960938 C-46.42703672 61.18156416 -50.27508373 62.55910461 -56 62 C-56.33 60.35 -56.66 58.7 -57 57 C-56.26394531 56.61328125 -55.52789062 56.2265625 -54.76953125 55.828125 C-53.79371094 55.30734375 -52.81789063 54.7865625 -51.8125 54.25 C-50.84957031 53.73953125 -49.88664062 53.2290625 -48.89453125 52.703125 C-46.0131625 51.00774474 -43.57800021 49.12210972 -41 47 C-31.48591539 39.85052706 -21.4818296 35.50079561 -10.35644531 31.36279297 C-9.30553711 30.96721191 -8.25462891 30.57163086 -7.171875 30.1640625 C-6.2240918 29.81811035 -5.27630859 29.4721582 -4.29980469 29.11572266 C-1.69565728 28.09218072 -1.69565728 28.09218072 0 25 C-0.9075 25.103125 -1.815 25.20625 -2.75 25.3125 C-6 25 -6 25 -8.125 23.1875 C-11.36331028 17.68237252 -14.37348636 11.98789084 -13.5625 5.5 C-10.17125355 0.07400568 -6.15694423 -0.5808438 0 0 Z " fill="#C57252" transform="translate(65,80)"/>
<path d="M0 0 C1 1 1 1 1.1875 4.25 C1.01101911 7.7796179 0.38572372 9.82324206 -1 13 C-0.443125 13.36351562 0.11375 13.72703125 0.6875 14.1015625 C4.63709279 16.70349018 8.44830802 19.33510041 12.125 22.3125 C15.67589 25.01457168 18.45863041 25.91266597 23 26 C25.32158065 25.65340705 25.32158065 25.65340705 27 25 C26.505 21.535 26.505 21.535 26 18 C30.875 19.875 30.875 19.875 32 21 C33.51928038 21.07179964 35.04167482 21.08392007 36.5625 21.0625 C37.38878906 21.05347656 38.21507812 21.04445313 39.06640625 21.03515625 C39.70449219 21.02355469 40.34257813 21.01195313 41 21 C44.13923488 27.67087411 43.03907954 32.55702686 40.65625 39.2421875 C40.4396875 39.82226562 40.223125 40.40234375 40 41 C40.99 41 41.98 41 43 41 C43 41.99 43 42.98 43 44 C41.68 44 40.36 44 39 44 C39 45.65 39 47.3 39 49 C35.62182575 49.84454356 33.32534757 50.10844919 30 49 C29.938125 48.38125 29.87625 47.7625 29.8125 47.125 C29.544375 46.42375 29.27625 45.7225 29 45 C28.236875 44.71125 27.47375 44.4225 26.6875 44.125 C23.04649692 42.60085918 21.98154589 40.32616632 20 37 C18.92656396 35.70311025 18.92656396 35.70311025 16.3828125 35.8671875 C15.30773437 35.86976562 14.23265625 35.87234375 13.125 35.875 C12.05507812 35.87242188 10.98515625 35.86984375 9.8828125 35.8671875 C6.92980831 35.87215682 6.92980831 35.87215682 4 37 C3.01 37 2.02 37 1 37 C1 37.66 1 38.32 1 39 C0.01 39 -0.98 39 -2 39 C-2.33 38.34 -2.66 37.68 -3 37 C-3.2475 37.94875 -3.495 38.8975 -3.75 39.875 C-5 43 -5 43 -6.75 44.1875 C-7.4925 44.455625 -8.235 44.72375 -9 45 C-9.969375 45.53625 -10.93875 46.0725 -11.9375 46.625 C-14.97317175 47.98795467 -16.73230026 48.28832645 -20 48 C-20.66 46.68 -21.32 45.36 -22 44 C-19.50174717 40.78796065 -16.9297008 37.82506863 -14 35 C-15.32 33.68 -16.64 32.36 -18 31 C-16.89167799 28.07806014 -16.32937485 27.15864385 -13.4453125 25.76953125 C-10.67499228 24.19357465 -10.67499228 24.19357465 -10.44140625 20.96875 C-10.48136719 19.8240625 -10.52132812 18.679375 -10.5625 17.5 C-10.58441406 16.3553125 -10.60632813 15.210625 -10.62890625 14.03125 C-10.79069034 10.82702497 -10.79069034 10.82702497 -13 8 C-13.0625 4.5 -13.0625 4.5 -12 1 C-7.49634555 -1.8580884 -4.7025359 -2.76619759 0 0 Z " fill="#C2C2C8" transform="translate(84,21)"/>
<path d="M0 0 C0.99 0 1.98 0 3 0 C1.71626932 3.85119203 0.20088757 4.4758203 -3.1875 6.625 C-4.12980469 7.23601562 -5.07210937 7.84703125 -6.04296875 8.4765625 C-9.10252262 10.05281879 -11.59782002 10.62702027 -15 11 C-14.505 11.99 -14.505 11.99 -14 13 C-10.97065509 13.65772428 -10.97065509 13.65772428 -8 14 C-8.33 14.99 -8.66 15.98 -9 17 C-4.10437307 15.12297673 -4.10437307 15.12297673 0 12 C2.16625516 11.36054627 4.35893844 10.80836182 6.5625 10.3125 C7.73941406 10.04050781 8.91632813 9.76851562 10.12890625 9.48828125 C11.07636719 9.32714844 12.02382812 9.16601562 13 9 C14 10 14 10 14.375 12.25 C13.83194446 16.23240729 12.08300485 17.52019175 9 20 C5.6875 21.3125 5.6875 21.3125 3 22 C3.99 22.66 4.98 23.32 6 24 C5.63075651 26.58470444 4.96729184 28.04579142 3.4375 30.1875 C0.01691311 32.73101333 -2.83052266 33.52956384 -7 33 C-12.02905276 31.04005588 -17.14950911 28.85049089 -21 25 C-27.81476658 25.24761395 -34.13726583 29.03199028 -40.21289062 31.84960938 C-45.42703672 34.18156416 -49.27508373 35.55910461 -55 35 C-55.33 33.35 -55.66 31.7 -56 30 C-55.26394531 29.61328125 -54.52789062 29.2265625 -53.76953125 28.828125 C-52.30580078 28.04695313 -52.30580078 28.04695313 -50.8125 27.25 C-49.84957031 26.73953125 -48.88664062 26.2290625 -47.89453125 25.703125 C-45.0131625 24.00774474 -42.57800021 22.12210972 -40 20 C-28.74461672 11.5420073 -16.29839904 6.79255367 -3.1862793 1.88867188 C-1.05977455 1.18937211 -1.05977455 1.18937211 0 0 Z " fill="#EBB779" transform="translate(64,107)"/>
<path d="M0 0 C2.93839624 5.64683103 6.22781045 12.55399511 5 19 C1.02668985 22.05462573 -3.22102453 22.89959161 -8.0625 23.6875 C-8.81329834 23.8127002 -9.56409668 23.93790039 -10.33764648 24.06689453 C-19.74722901 25.54326195 -28.26211045 26.29229662 -37 22 C-40 19.8125 -40 19.8125 -42 18 C-41.67 16.02 -41.34 14.04 -41 12 C-45.7694272 14.00222031 -45.7694272 14.00222031 -48.91015625 17.82421875 C-49.52593403 19.95229588 -49.52593403 19.95229588 -50 23 C-52 20 -52 20 -52.4375 17.4375 C-52.78821951 14.64573325 -52.78821951 14.64573325 -56 13 C-54.27473958 12.28385417 -52.54947917 11.56770833 -50.82421875 10.8515625 C-48.73466068 9.93193308 -48.73466068 9.93193308 -46 8 C-45.26656572 4.93443402 -45.26656572 4.93443402 -45 2 C-44.34 2.33 -43.68 2.66 -43 3 C-43 3.66 -43 4.32 -43 5 C-42.01 5 -41.02 5 -40 5 C-40 4.34 -40 3.68 -40 3 C-34.28322614 0.45921162 -28.13701237 -0.01282162 -22 1 C-19.36534706 2.77825437 -18.59685098 4.14848039 -17 7 C-17 7.66 -17 8.32 -17 9 C-16.21625 9.061875 -15.4325 9.12375 -14.625 9.1875 C-13.75875 9.455625 -12.8925 9.72375 -12 10 C-10.6875 12.5625 -10.6875 12.5625 -10 15 C-7.69 15 -5.38 15 -3 15 C-2.67 13.35 -2.34 11.7 -2 10 C-0.68 10 0.64 10 2 10 C2 9.01 2 8.02 2 7 C1.01 7 0.02 7 -1 7 C-0.67 4.69 -0.34 2.38 0 0 Z " fill="#AB6D6B" transform="translate(125,55)"/>
<path d="M0 0 C2.31 0 4.62 0 7 0 C8 3 8 3 6.8125 6.5 C5.01056558 9.9795975 4.31609785 11.14276076 1 13 C-2.234375 13.29296875 -2.234375 13.29296875 -5.75 13.1875 C-6.92046875 13.16042969 -8.0909375 13.13335937 -9.296875 13.10546875 C-10.18890625 13.07066406 -11.0809375 13.03585938 -12 13 C-9.28328335 15.84647028 -6.28407579 17.83390746 -3 20 C-2.34 20.66 -1.68 21.32 -1 22 C-1.375 24.125 -1.375 24.125 -2 26 C-8.20212171 25.52291371 -13.44415065 23.92901077 -19.265625 21.7421875 C-22.10954472 20.97026643 -23.31293006 20.89835961 -26 22 C-27.70250393 23.28725907 -29.37064759 24.62131719 -31 26 C-34 28 -34 28 -37 28 C-37.02707139 25.75006641 -37.04642829 23.50003905 -37.0625 21.25 C-37.07410156 19.99703125 -37.08570312 18.7440625 -37.09765625 17.453125 C-36.95040776 12.24641834 -36.95040776 12.24641834 -36 10 C-32.9375 8.75 -32.9375 8.75 -30 8 C-29.67 8.66 -29.34 9.32 -29 10 C-22.14464127 8.27216246 -22.14464127 8.27216246 -16.33984375 4.4765625 C-13.13527643 2.45431468 -10.50955915 2.48655366 -6.75 2.3125 C-5.48671875 2.24675781 -4.2234375 2.18101563 -2.921875 2.11328125 C-1.47554687 2.05720703 -1.47554687 2.05720703 0 2 C0 1.34 0 0.68 0 0 Z " fill="#7E6C7C" transform="translate(124,92)"/>
<path d="M0 0 C0.66 0.66 1.32 1.32 2 2 C0.68 2 -0.64 2 -2 2 C-1.29423828 2.52787109 -1.29423828 2.52787109 -0.57421875 3.06640625 C3.88217819 6.60015372 6.34638518 9.39608311 8 15 C8.29616541 17.85359375 8.49763669 20.67949448 8.59375 23.546875 C9.06059765 26.3659166 9.80333674 27.24734314 12 29 C10.68 29.33 9.36 29.66 8 30 C8.66 30 9.32 30 10 30 C9.1875 32.4375 9.1875 32.4375 8 35 C6.515 35.495 6.515 35.495 5 36 C4.67 36.99 4.34 37.98 4 39 C2.01363702 39.70626239 0.01151741 40.36893571 -2 41 C-2.70125 41.53625 -3.4025 42.0725 -4.125 42.625 C-6 44 -6 44 -10 44 C-10.495 42.515 -10.495 42.515 -11 41 C-13.31 41 -15.62 41 -18 41 C-17.01 40.505 -17.01 40.505 -16 40 C-16 39.34 -16 38.68 -16 38 C-15.1646875 37.65388672 -15.1646875 37.65388672 -14.3125 37.30078125 C-4.86256084 33.72880245 -4.86256084 33.72880245 2 27 C1.34 27 0.68 27 0 27 C0 26.34 0 25.68 0 25 C-0.9075 25.103125 -1.815 25.20625 -2.75 25.3125 C-6 25 -6 25 -8.125 23.1875 C-11.36331028 17.68237252 -14.37348636 11.98789084 -13.5625 5.5 C-10.17125355 0.07400568 -6.15694423 -0.5808438 0 0 Z " fill="#965975" transform="translate(65,80)"/>
<path d="M0 0 C4.875 1.875 4.875 1.875 6 3 C7.51928038 3.07179964 9.04167482 3.08392007 10.5625 3.0625 C11.38878906 3.05347656 12.21507813 3.04445312 13.06640625 3.03515625 C14.02353516 3.01775391 14.02353516 3.01775391 15 3 C18.13923488 9.67087411 17.03907954 14.55702686 14.65625 21.2421875 C14.4396875 21.82226562 14.223125 22.40234375 14 23 C14.99 23 15.98 23 17 23 C17 23.99 17 24.98 17 26 C15.68 26 14.36 26 13 26 C13 27.65 13 29.3 13 31 C9.62182575 31.84454356 7.32534757 32.10844919 4 31 C3.938125 30.38125 3.87625 29.7625 3.8125 29.125 C3.544375 28.42375 3.27625 27.7225 3 27 C2.236875 26.71125 1.47375 26.4225 0.6875 26.125 C-2.95350308 24.60085918 -4.01845411 22.32616632 -6 19 C-7.49743119 17.50256881 -8.98824239 17.66797307 -11.0625 17.4375 C-12.361875 17.293125 -13.66125 17.14875 -15 17 C-15.33 15.68 -15.66 14.36 -16 13 C-12.535 12.505 -12.535 12.505 -9 12 C-9.33 10.68 -9.66 9.36 -10 8 C-8.9275 8.020625 -7.855 8.04125 -6.75 8.0625 C-3.85209576 8.0142016 -1.71387859 7.86844115 1 7 C0.67 4.69 0.34 2.38 0 0 Z " fill="#ECB877" transform="translate(110,39)"/>
<path d="M0 0 C1.6875 1.5625 1.6875 1.5625 3 3 C6.0745356 2.2236068 6.0745356 2.2236068 8 0 C10 5.75 10 5.75 10 8 C3.375 10 3.375 10 0 10 C0 10.66 0 11.32 0 12 C-0.99 12 -1.98 12 -3 12 C-3.33 11.34 -3.66 10.68 -4 10 C-4.2475 10.94875 -4.495 11.8975 -4.75 12.875 C-6 16 -6 16 -7.75 17.1875 C-8.4925 17.455625 -9.235 17.72375 -10 18 C-10.969375 18.53625 -11.93875 19.0725 -12.9375 19.625 C-15.97317175 20.98795467 -17.73230026 21.28832645 -21 21 C-21.66 19.68 -22.32 18.36 -23 17 C-20.50174717 13.78796065 -17.9297008 10.82506863 -15 8 C-16.32 6.68 -17.64 5.36 -19 4 C-18.01936505 1.41468966 -16.99699158 -0.00273493 -14.9375 -1.875 C-9.8030246 -3.84139484 -5.03373383 -1.67791128 0 0 Z " fill="#AFBCC5" transform="translate(85,48)"/>
<path d="M0 0 C0.66 0 1.32 0 2 0 C2 0.99 2 1.98 2 3 C2.721875 3.268125 3.44375 3.53625 4.1875 3.8125 C7 5 7 5 9.5625 6.5625 C18.86600126 12.04918023 31.70794103 8.96779901 41.72265625 6.8515625 C44.61672582 6.09958733 47.26201331 5.19042899 50 4 C50.25 7.3125 50.25 7.3125 50 11 C47.48445334 13.70188345 44.42440318 14.73837777 41 16 C40.01 16.495 40.01 16.495 39 17 C39 15.68 39 14.36 39 13 C38.01 13 37.02 13 36 13 C36 13.66 36 14.32 36 15 C30.68117781 15.76827432 26.31562055 15.9568117 21 15 C18.22468895 14.96299585 15.45835151 14.99952677 12.68359375 15.0625 C8.0560724 14.95472658 4.23472058 13.81488025 0 12 C0 11.01 0 10.02 0 9 C-0.66 9 -1.32 9 -2 9 C-2.33 8.01 -2.66 7.02 -3 6 C-2.34 6 -1.68 6 -1 6 C-1.0309375 4.7934375 -1.0309375 4.7934375 -1.0625 3.5625 C-1 1 -1 1 0 0 Z " fill="#EDA264" transform="translate(80,70)"/>
<path d="M0 0 C0.928125 0.226875 1.85625 0.45375 2.8125 0.6875 C2.8125 1.3475 2.8125 2.0075 2.8125 2.6875 C3.4725 2.6875 4.1325 2.6875 4.8125 2.6875 C4.4825 3.3475 4.1525 4.0075 3.8125 4.6875 C1.8325 4.6875 -0.1475 4.6875 -2.1875 4.6875 C5.2375 5.6775 5.2375 5.6775 12.8125 6.6875 C12.8125 7.0175 12.8125 7.3475 12.8125 7.6875 C11.16701172 7.77837891 11.16701172 7.77837891 9.48828125 7.87109375 C8.03384346 7.95554498 6.57941695 8.04019066 5.125 8.125 C4.40376953 8.16431641 3.68253906 8.20363281 2.93945312 8.24414062 C-2.68572384 8.55331 -2.68572384 8.55331 -8.1875 9.6875 C-9.54770151 11.65508273 -9.54770151 11.65508273 -10.1875 13.6875 C-9.5275 14.0175 -8.8675 14.3475 -8.1875 14.6875 C-8.1875 15.3475 -8.1875 16.0075 -8.1875 16.6875 C-9.074375 16.935 -9.96125 17.1825 -10.875 17.4375 C-14.32236008 18.7383906 -16.42043107 20.29435931 -19.1875 22.6875 C-22.1875 24.6875 -22.1875 24.6875 -25.1875 24.6875 C-25.21457139 22.43756641 -25.23392829 20.18753905 -25.25 17.9375 C-25.26160156 16.68453125 -25.27320312 15.4315625 -25.28515625 14.140625 C-25.13790776 8.93391834 -25.13790776 8.93391834 -24.1875 6.6875 C-21.125 5.4375 -21.125 5.4375 -18.1875 4.6875 C-17.8575 5.3475 -17.5275 6.0075 -17.1875 6.6875 C-10.27194969 5.11981301 -10.27194969 5.11981301 -4.8125 1 C-3.1875 -0.3125 -3.1875 -0.3125 0 0 Z " fill="#E6B076" transform="translate(112.1875,95.3125)"/>
<path d="M0 0 C1.4540625 0.0309375 1.4540625 0.0309375 2.9375 0.0625 C3.2675 1.0525 3.5975 2.0425 3.9375 3.0625 C4.7625 3.536875 5.5875 4.01125 6.4375 4.5 C8.9375 6.0625 8.9375 6.0625 9.75 8.25 C9.811875 8.848125 9.87375 9.44625 9.9375 10.0625 C10.5975 10.0625 11.2575 10.0625 11.9375 10.0625 C11.79601011 11.6670556 11.64914314 13.27113767 11.5 14.875 C11.41878906 15.76832031 11.33757812 16.66164063 11.25390625 17.58203125 C10.9375 20.0625 10.9375 20.0625 9.9375 23.0625 C9.2775 23.0625 8.6175 23.0625 7.9375 23.0625 C7.9375 22.4025 7.9375 21.7425 7.9375 21.0625 C7.03 21.165625 6.1225 21.26875 5.1875 21.375 C1.9375 21.0625 1.9375 21.0625 -0.1875 19.25 C-2.80214053 14.80511111 -5.01918831 10.13541407 -6.0625 5.0625 C-4.67337172 1.27809913 -4.10821123 0.08384105 0 0 Z " fill="#7E686F" transform="translate(57.0625,83.9375)"/>
<path d="M0 0 C2.6875 2.0625 2.6875 2.0625 4 4 C3.34 4.66 2.68 5.32 2 6 C2 6.99 2 7.98 2 9 C2.99 9.33 3.98 9.66 5 10 C5.33 8.68 5.66 7.36 6 6 C9.36055646 10.48074195 9.27429625 13.60550707 9 19 C6.75 20.1875 6.75 20.1875 4 21 C1.6875 19.625 1.6875 19.625 0 18 C-0.66 18.33 -1.32 18.66 -2 19 C-3.77882289 13.66353134 -3.44723163 9.04741524 -1 4 C-2.60433809 4.47859241 -4.20846416 4.95789558 -5.8125 5.4375 C-7.15248047 5.83775391 -7.15248047 5.83775391 -8.51953125 6.24609375 C-10.35473055 6.80387873 -12.18033726 7.39344575 -14 8 C-14.99 7.67 -15.98 7.34 -17 7 C-17.33 4.69 -17.66 2.38 -18 0 C-17.67 0.66 -17.34 1.32 -17 2 C-16.01 2 -15.02 2 -14 2 C-14 1.34 -14 0.68 -14 0 C-9.33269081 -1.55576973 -4.78526747 -0.95991892 0 0 Z " fill="#955A6E" transform="translate(99,58)"/>
<path d="M0 0 C0 0.99 0 1.98 0 3 C-5.29685783 7.52900866 -12.32359976 10.16589756 -18.6875 12.875 C-19.39962646 13.1853418 -20.11175293 13.49568359 -20.84545898 13.81542969 C-25.46208734 15.71201369 -29.01250146 16.32683477 -34 16 C-34.33 14.35 -34.66 12.7 -35 11 C-24.55669496 5.47119145 -12.14564252 -0.78358984 0 0 Z " fill="#959DAF" transform="translate(43,126)"/>
<path d="M0 0 C1 1 1 1 1.1875 4.25 C1 8 1 8 -0.1875 10.625 C-1.30973811 13.0587764 -1.30973811 13.0587764 0.0625 15.625 C2.14952846 18.18329295 4.07989852 19.50048843 7 21 C4.30227666 22.06160409 3.27780112 22.11842163 0.5625 20.9609375 C-4.07709503 18.08948082 -7.97166882 15.66867723 -11 11 C-11.66 10.01 -12.32 9.02 -13 8 C-13.0625 4.5 -13.0625 4.5 -12 1 C-7.49634555 -1.8580884 -4.7025359 -2.76619759 0 0 Z " fill="#929BAE" transform="translate(84,21)"/>
<path d="M0 0 C0.33 0 0.66 0 1 0 C2.15665648 4.89354664 2.44059716 7.95573935 0.125 12.5 C-5.00986873 20.65372013 -11.16077937 25.44036322 -20.51953125 27.72265625 C-23.00979319 28.00109499 -24.64110296 27.78629901 -27 27 C-23 25 -23 25 -20.9375 24.1875 C-18.35311165 22.60352004 -17.39218181 20.64514545 -16 18 C-18.31 17.34 -20.62 16.68 -23 16 C-23 15.67 -23 15.34 -23 15 C-22.32453125 14.87882812 -21.6490625 14.75765625 -20.953125 14.6328125 C-19.61507812 14.38144531 -19.61507812 14.38144531 -18.25 14.125 C-16.92742187 13.88136719 -16.92742187 13.88136719 -15.578125 13.6328125 C-13.13052256 13.03203736 -11.19400143 12.22002883 -9 11 C-8.01 11.66 -7.02 12.32 -6 13 C-5.67 11.35 -5.34 9.7 -5 8 C-4.01 8 -3.02 8 -2 8 C-1.855625 7.236875 -1.71125 6.47375 -1.5625 5.6875 C-1 3 -1 3 0 0 Z " fill="#985976" transform="translate(86,113)"/>
<path d="M0 0 C2.93839624 5.64683103 6.22781045 12.55399511 5 19 C1.10135891 21.98822396 -2.50104387 22.60293056 -7.3125 23.1875 C-8.56675781 23.34605469 -9.82101563 23.50460938 -11.11328125 23.66796875 C-12.54220703 23.83232422 -12.54220703 23.83232422 -14 24 C-14.67629966 20.32561602 -15.11910296 16.8607953 -15.0625 13.125 C-15.05347656 12.34382813 -15.04445313 11.56265625 -15.03515625 10.7578125 C-15.02355469 10.17773438 -15.01195313 9.59765625 -15 9 C-11.63251488 10.51947499 -10.39159663 11.52100842 -9 15 C-7.02 15 -5.04 15 -3 15 C-2.67 13.35 -2.34 11.7 -2 10 C-0.68 10 0.64 10 2 10 C2 9.01 2 8.02 2 7 C1.01 7 0.02 7 -1 7 C-0.67 4.69 -0.34 2.38 0 0 Z " fill="#EDA263" transform="translate(125,55)"/>
<path d="M0 0 C0.99 0 1.98 0 3 0 C1.71626932 3.85119203 0.20088757 4.4758203 -3.1875 6.625 C-4.12980469 7.23601562 -5.07210937 7.84703125 -6.04296875 8.4765625 C-9.10252262 10.05281879 -11.59782002 10.62702027 -15 11 C-15 11.66 -15 12.32 -15 13 C-16.1446875 13.1546875 -16.1446875 13.1546875 -17.3125 13.3125 C-20.02987123 13.76434916 -20.02987123 13.76434916 -21.5625 15.5625 C-22.036875 16.036875 -22.51125 16.51125 -23 17 C-24.32 17 -25.64 17 -27 17 C-27.33 17.66 -27.66 18.32 -28 19 C-30.63121633 20.31415124 -33.24091458 21.52449557 -35.9375 22.6875 C-36.67935547 23.02072266 -37.42121094 23.35394531 -38.18554688 23.69726562 C-40.09637175 24.53054465 -42.04649424 25.27238686 -44 26 C-44.66 25.67 -45.32 25.34 -46 25 C-32.93506525 13.90932206 -19.16355254 7.86410994 -3.1862793 1.88867188 C-1.05977455 1.18937211 -1.05977455 1.18937211 0 0 Z " fill="#DCA888" transform="translate(64,107)"/>
<path d="M0 0 C2 2 2 2 2 6 C4.1385485 3.8614515 4.42655063 2.86724686 5 0 C11.625 0.75 11.625 0.75 15 3 C14.63075651 5.58470444 13.96729184 7.04579142 12.4375 9.1875 C9.01257522 11.73423894 6.1731293 12.51660925 2 12 C-8.74070937 8.05635608 -8.74070937 8.05635608 -11.3515625 3.79296875 C-11.56554688 3.20128906 -11.77953125 2.60960937 -12 2 C-7.88581814 0.00524516 -4.55244646 -0.34358086 0 0 Z " fill="#A9B0B9" transform="translate(55,128)"/>
<path d="M0 0 C2 3 2 3 1.8125 6.5 C1 10 1 10 -0.625 11.5625 C-1.07875 12.036875 -1.5325 12.51125 -2 13 C-1.76716851 16.14921909 -1.76716851 16.14921909 -1 19 C-5.96429611 17.75892597 -8.13871828 16.23893588 -11 12 C-12.58368102 8.83263796 -12.42056706 6.4846985 -12 3 C-8.0302162 -0.78074648 -5.23725571 -1.78542808 0 0 Z " fill="#939DB1" transform="translate(111,20)"/>
<path d="M0 0 C4.875 1.875 4.875 1.875 6 3 C7.51928038 3.07179964 9.04167482 3.08392007 10.5625 3.0625 C11.38878906 3.05347656 12.21507813 3.04445312 13.06640625 3.03515625 C14.02353516 3.01775391 14.02353516 3.01775391 15 3 C18.13923488 9.67087411 17.03907954 14.55702686 14.65625 21.2421875 C14.4396875 21.82226562 14.223125 22.40234375 14 23 C14.99 23 15.98 23 17 23 C17 23.99 17 24.98 17 26 C15.68 26 14.36 26 13 26 C12.90203125 25.10796875 12.8040625 24.2159375 12.703125 23.296875 C12.55359375 22.12640625 12.4040625 20.9559375 12.25 19.75 C12.04117188 18.00976562 12.04117188 18.00976562 11.828125 16.234375 C10.90283623 12.6205113 9.73596235 11.424552 7 9 C7 8.34 7 7.68 7 7 C6.01 7.495 6.01 7.495 5 8 C5.33 8.99 5.66 9.98 6 11 C1.545 10.01 1.545 10.01 -3 9 C-1.68 8.34 -0.36 7.68 1 7 C0.67 4.69 0.34 2.38 0 0 Z " fill="#B5B9C0" transform="translate(110,39)"/>
<path d="M0 0 C3.74522052 1.76086317 5.13382161 4.48588079 7.16015625 8.015625 C6.83015625 8.675625 6.50015625 9.335625 6.16015625 10.015625 C5.63550781 9.84804688 5.11085938 9.68046875 4.5703125 9.5078125 C0.46773908 8.67000982 -3.67756285 9.11265389 -7.84375 9.2734375 C-10.83984375 9.015625 -10.83984375 9.015625 -12.7421875 7.5078125 C-13.10441406 7.01539063 -13.46664062 6.52296875 -13.83984375 6.015625 C-12.8592088 3.43031466 -11.83683533 2.01289007 -9.77734375 0.140625 C-6.06491001 -1.28115814 -3.79792605 -0.98910929 0 0 Z " fill="#ABBEC8" transform="translate(79.83984375,45.984375)"/>
<path d="M0 0 C-0.495 0.78375 -0.99 1.5675 -1.5 2.375 C-3.43415935 7.04921842 -3.26602877 11.01442381 -3 16 C-4.65 15.67 -6.3 15.34 -8 15 C-8 14.34 -8 13.68 -8 13 C-8.804375 12.773125 -9.60875 12.54625 -10.4375 12.3125 C-13 11 -13 11 -14.125 8.6875 C-14 6 -14 6 -12 3.3125 C-8.53075753 0.63829226 -4.30542209 -2.15271105 0 0 Z " fill="#D8CFC9" transform="translate(99,62)"/>
<path d="M0 0 C2.31 0 4.62 0 7 0 C8.39195915 4.17587745 6.82323219 6.13474776 5 10 C4.67 8.68 4.34 7.36 4 6 C2.35 6.33 0.7 6.66 -1 7 C-0.67 7.99 -0.34 8.98 0 10 C-10.55808656 10.18451025 -10.55808656 10.18451025 -15 9 C-14.67 8.34 -14.34 7.68 -14 7 C-12.02 7 -10.04 7 -8 7 C-8.33 6.67 -8.66 6.34 -9 6 C-9 5.01 -9 4.02 -9 3 C-4.545 2.505 -4.545 2.505 0 2 C0 1.34 0 0.68 0 0 Z " fill="#D57978" transform="translate(124,92)"/>
<path d="M0 0 C1.79133978 -0.05391993 3.58313899 -0.09275571 5.375 -0.125 C6.37273438 -0.14820312 7.37046875 -0.17140625 8.3984375 -0.1953125 C11 0 11 0 13 2 C12.67 2.66 12.34 3.32 12 4 C12.99 4 13.98 4 15 4 C15 4.66 15 5.32 15 6 C13.824375 6.268125 12.64875 6.53625 11.4375 6.8125 C8.52182547 7.52590973 5.90695663 8.42074456 3.1875 9.6875 C0 11 0 11 -3 10 C-2.01 9.67 -1.02 9.34 0 9 C0 8.01 0 7.02 0 6 C-2.97 6.66 -5.94 7.32 -9 8 C-8.67 7.01 -8.34 6.02 -8 5 C-5.27366306 3.89786379 -2.95855967 3 0 3 C0 2.01 0 1.02 0 0 Z " fill="#B9959C" transform="translate(43,120)"/>
<path d="M0 0 C3.93809611 3.76687454 3.93809611 3.76687454 4.09765625 6.9453125 C4.04882812 9.97265625 4.04882812 9.97265625 4 13 C1.75 14.1875 1.75 14.1875 -1 15 C-3.3125 13.625 -3.3125 13.625 -5 12 C-5.99 12.495 -5.99 12.495 -7 13 C-8.1577506 9.52674819 -8.06866652 6.63932552 -8 3 C-7.01 3 -6.02 3 -5 3 C-5 4.32 -5 5.64 -5 7 C-4.34 7 -3.68 7 -3 7 C-2.67 6.01 -2.34 5.02 -2 4 C-1.34 4 -0.68 4 0 4 C0 2.68 0 1.36 0 0 Z " fill="#6C0712" transform="translate(104,64)"/>
<path d="M0 0 C2 0 2 0 3.625 1.5 C4.305625 2.2425 4.305625 2.2425 5 3 C8.0745356 2.2236068 8.0745356 2.2236068 10 0 C12 5.75 12 5.75 12 8 C5.375 10 5.375 10 2 10 C2 10.66 2 11.32 2 12 C1.01 12 0.02 12 -1 12 C-1.66 11.34 -2.32 10.68 -3 10 C-5.70269766 9.91420007 -8.30753896 9.90403109 -11 10 C-11.99 10 -12.98 10 -14 10 C-13.67 9.01 -13.34 8.02 -13 7 C-10.89594609 6.83191581 -8.79175242 6.66558052 -6.6875 6.5 C-5.51574219 6.4071875 -4.34398438 6.314375 -3.13671875 6.21875 C-1.094806 6.07635011 0.9531279 6 3 6 C2.505 5.38125 2.01 4.7625 1.5 4.125 C0 2 0 2 0 0 Z " fill="#B79A9E" transform="translate(83,48)"/>
<path d="M0 0 C-0.34655044 2.82104221 -0.71591287 3.7776226 -2.99609375 5.5625 C-3.80175781 6.036875 -4.60742188 6.51125 -5.4375 7 C-8.80241735 8.98762373 -10.54946165 10.32213227 -12 14 C-12.66 14 -13.32 14 -14 14 C-14 14.99 -14 15.98 -14 17 C-14.66 16.67 -15.32 16.34 -16 16 C-15.67 15.34 -15.34 14.68 -15 14 C-15.66 14 -16.32 14 -17 14 C-16.67 13.34 -16.34 12.68 -16 12 C-15.34 12 -14.68 12 -14 12 C-14.99 11.34 -15.98 10.68 -17 10 C-17 9.01 -17 8.02 -17 7 C-16.34 7 -15.68 7 -15 7 C-15 6.34 -15 5.68 -15 5 C-13.06891037 3.96709159 -11.129882 2.94901328 -9.1875 1.9375 C-8.10855469 1.36902344 -7.02960938 0.80054687 -5.91796875 0.21484375 C-3 -1 -3 -1 0 0 Z " fill="#E99A61" transform="translate(90,96)"/>
<path d="M0 0 C3.55808689 2.13485214 3.50814209 4.60341536 4.5 8.5 C5.49 8.83 6.48 9.16 7.5 9.5 C7.5 10.49 7.5 11.48 7.5 12.5 C4.58944799 13.955276 2.71908202 13.95067148 -0.5 13.5 C-3.59983205 10.15544437 -4.45540456 8.19122939 -4.75 3.625 C-4.6675 2.59375 -4.585 1.5625 -4.5 0.5 C-2.5 -0.5 -2.5 -0.5 0 0 Z " fill="#8C8AA1" transform="translate(58.5,90.5)"/>
<path d="M0 0 C10.61961891 -0.91460833 10.61961891 -0.91460833 13.91015625 1.265625 C15.69738317 3.41238154 17 5.13981359 17 8 C17.66 8 18.32 8 19 8 C18.67 12.62 18.34 17.24 18 22 C17.67 22 17.34 22 17 22 C16.95101562 21.39671875 16.90203125 20.7934375 16.8515625 20.171875 C16.77679688 19.37265625 16.70203125 18.5734375 16.625 17.75 C16.55539063 16.96109375 16.48578125 16.1721875 16.4140625 15.359375 C15.98492887 12.914123 15.21399362 11.15163097 14 9 C13.67 9.99 13.34 10.98 13 12 C11.68 11.67 10.36 11.34 9 11 C9.165 10.4225 9.33 9.845 9.5 9.25 C10.14462031 6.73335631 10.14462031 6.73335631 10 3 C6.7 2.67 3.4 2.34 0 2 C0 1.34 0 0.68 0 0 Z " fill="#CE7876" transform="translate(91,56)"/>
<path d="M0 0 C-0.33 1.98 -0.66 3.96 -1 6 C-1.33 5.01 -1.66 4.02 -2 3 C-4.17038477 3.79299706 -4.17038477 3.79299706 -4.6328125 5.84765625 C-4.79523438 6.57855469 -4.95765625 7.30945313 -5.125 8.0625 C-5.29257813 8.79597656 -5.46015625 9.52945313 -5.6328125 10.28515625 C-5.75398438 10.85105469 -5.87515625 11.41695312 -6 12 C-5.34 12 -4.68 12 -4 12 C-4 12.99 -4 13.98 -4 15 C-0.7 15.33 2.6 15.66 6 16 C6 16.66 6 17.32 6 18 C9.63 18 13.26 18 17 18 C16.67 18.66 16.34 19.32 16 20 C12.37 20 8.74 20 5 20 C5 19.34 5 18.68 5 18 C2.69 18.33 0.38 18.66 -2 19 C-2 18.34 -2 17.68 -2 17 C-2.969375 16.731875 -3.93875 16.46375 -4.9375 16.1875 C-5.948125 15.795625 -6.95875 15.40375 -8 15 C-9.22414155 11.32757535 -9.46559007 8.8577463 -9 5 C-6.52493261 1.85917081 -4.11169414 0 0 0 Z " fill="#E4915E" transform="translate(84,67)"/>
<path d="M0 0 C-6.27742126 6.87736128 -15.06496565 9.3887643 -24 11 C-24.66 10.01 -25.32 9.02 -26 8 C-24 5 -24 5 -21.75 4.41015625 C-20.38875 4.23806641 -20.38875 4.23806641 -19 4.0625 C-13.94854429 3.29148834 -9.72525312 1.83481596 -5.09375 -0.29296875 C-3 -1 -3 -1 0 0 Z " fill="#ACC1CB" transform="translate(35,130)"/>
<path d="M0 0 C3.70796458 -0.28329101 7.30148499 -0.44731303 11 0 C13.6769433 2.82991149 14 4.13680915 14 8 C7.91643021 11.09212176 2.81987029 12.56699236 -4 13 C-1.65172913 10.49161976 -0.29961389 9.82490347 3 9 C5.4178943 7.0298639 5.98502564 6.04492309 7 3 C4.69 2.34 2.38 1.68 0 1 C0 0.67 0 0.34 0 0 Z " fill="#898398" transform="translate(63,128)"/>
<path d="M0 0 C0.66 0.99 1.32 1.98 2 3 C4.05925139 3.72382467 4.05925139 3.72382467 6 4 C4.9153444 7.2539668 4.36559948 7.77784877 1.6875 9.6875 C0.79611328 10.34298828 0.79611328 10.34298828 -0.11328125 11.01171875 C-2 12 -2 12 -6 12 C-6.33 11.01 -6.66 10.02 -7 9 C-9.31 9 -11.62 9 -14 9 C-13.34 8.67 -12.68 8.34 -12 8 C-12 7.34 -12 6.68 -12 6 C-11.38511719 5.73445313 -10.77023438 5.46890625 -10.13671875 5.1953125 C-9.32847656 4.84210938 -8.52023438 4.48890625 -7.6875 4.125 C-6.88699219 3.77695313 -6.08648437 3.42890625 -5.26171875 3.0703125 C-2.8038166 1.97428106 -2.8038166 1.97428106 0 0 Z " fill="#C67475" transform="translate(61,112)"/>
<path d="M0 0 C2 2 2 2 2.125 5.125 C2.08375 6.07375 2.0425 7.0225 2 8 C-3.8539823 9.55309735 -3.8539823 9.55309735 -7.0234375 8.0234375 C-8.82353783 6.76704094 -10.47041164 5.5760804 -12 4 C-12 3.34 -12 2.68 -12 2 C-7.88581814 0.00524516 -4.55244646 -0.34358086 0 0 Z " fill="#ECDEC3" transform="translate(55,128)"/>
<path d="M0 0 C0 0.99 0 1.98 0 3 C-0.969375 3.12375 -1.93875 3.2475 -2.9375 3.375 C-4.4534375 3.684375 -4.4534375 3.684375 -6 4 C-6.33 4.66 -6.66 5.32 -7 6 C-9.63121633 7.31415124 -12.24091458 8.52449557 -14.9375 9.6875 C-15.67935547 10.02072266 -16.42121094 10.35394531 -17.18554688 10.69726562 C-19.09637175 11.53054465 -21.04649424 12.27238686 -23 13 C-23.66 12.67 -24.32 12.34 -25 12 C-21.11628364 8.44917362 -16.91488528 5.48018039 -12.5 2.625 C-11.4171875 1.91601562 -10.334375 1.20703125 -9.21875 0.4765625 C-5.54470825 -1.20885956 -3.83202243 -1.07342797 0 0 Z " fill="#E5D8BA" transform="translate(43,120)"/>
<path d="M0 0 C2.375 2.125 2.375 2.125 4 4 C2.54550599 5.0055761 1.08627557 6.00430435 -0.375 7 C-1.59316406 7.8353125 -1.59316406 7.8353125 -2.8359375 8.6875 C-5 10 -5 10 -7 10 C-7.12375 8.865625 -7.2475 7.73125 -7.375 6.5625 C-7.58125 5.386875 -7.7875 4.21125 -8 3 C-8.66 2.67 -9.32 2.34 -10 2 C-10.33 1.01 -10.66 0.02 -11 -1 C-6.69680634 -2.26564519 -4.08259064 -1.82413624 0 0 Z " fill="#E99A63" transform="translate(84,89)"/>
<path d="M0 0 C4.67806201 3.3526111 8.64800393 6.2513389 12 11 C11.67 11.66 11.34 12.32 11 13 C9.54176788 13.0270043 8.08339325 13.04639787 6.625 13.0625 C5.81289062 13.07410156 5.00078125 13.08570313 4.1640625 13.09765625 C2 13 2 13 0 12 C0 8.04 0 4.08 0 0 Z " fill="#F5ECD4" transform="translate(74,34)"/>
<path d="M0 0 C-1.60732241 6.42928965 -4.67836678 8.45224452 -10 12 C-10.99 12 -11.98 12 -13 12 C-13 8.37 -13 4.74 -13 1 C-11.55625 1.020625 -10.1125 1.04125 -8.625 1.0625 C-5.43952547 1.10800678 -3.0023155 0 0 0 Z " fill="#F9E3A3" transform="translate(100,108)"/>
<path d="M0 0 C1.45880109 0.14107747 2.91703551 0.28802415 4.375 0.4375 C5.59316406 0.55931641 5.59316406 0.55931641 6.8359375 0.68359375 C9 1 9 1 11 2 C11 3.32 11 4.64 11 6 C12.29293437 9.87880311 14.45756544 11.13556076 18 13 C15.30227666 14.06160409 14.27780112 14.11842163 11.5625 12.9609375 C2.63885267 7.4380704 2.63885267 7.4380704 0 3 C0 2.01 0 1.02 0 0 Z " fill="#948E9C" transform="translate(73,29)"/>
<path d="M0 0 C2.97722547 0.70333538 5.85256543 1.58248537 8.75 2.5625 C9.54921875 2.83191406 10.3484375 3.10132812 11.171875 3.37890625 C11.77515625 3.58386719 12.3784375 3.78882812 13 4 C9.68629 6.20914 8.6553979 6.22481553 4.8125 6.125 C3.91144531 6.10695312 3.01039062 6.08890625 2.08203125 6.0703125 C1.39496094 6.04710937 0.70789062 6.02390625 0 6 C0 7.65 0 9.3 0 11 C-0.99 11.33 -1.98 11.66 -3 12 C-3.226875 11.195625 -3.45375 10.39125 -3.6875 9.5625 C-4.120625 8.716875 -4.55375 7.87125 -5 7 C-7.54775306 6.10613836 -7.54775306 6.10613836 -10 6 C-8 4 -8 4 -4.875 3.875 C-3.92625 3.91625 -2.9775 3.9575 -2 4 C-1.34 2.68 -0.68 1.36 0 0 Z " fill="#D2827D" transform="translate(60,122)"/>
<path d="M0 0 C3.14619868 6.04617311 5.53165598 12.08847232 5 19 C3.02 19.99 1.04 20.98 -1 22 C-1.33 18.04 -1.66 14.08 -2 10 C-0.68 10 0.64 10 2 10 C2 9.01 2 8.02 2 7 C1.01 7 0.02 7 -1 7 C-0.67 4.69 -0.34 2.38 0 0 Z " fill="#805A65" transform="translate(125,55)"/>
<path d="M0 0 C4.08378283 0.74250597 8.01939223 1.82923301 12 3 C11.649375 3.53625 11.29875 4.0725 10.9375 4.625 C9.71075751 7.73274763 10.27143569 9.79431703 11 13 C6.06198981 11.76549745 3.68196478 10.37060927 1 6 C0.25 2.6875 0.25 2.6875 0 0 Z " fill="#928697" transform="translate(99,26)"/>
<path d="M0 0 C1.32 0.33 2.64 0.66 4 1 C3.67 3.31 3.34 5.62 3 8 C2.01 8.33 1.02 8.66 0 9 C-0.73323796 11.01508358 -0.73323796 11.01508358 -1 13 C-2.32 12.34 -3.64 11.68 -5 11 C-4.67 8.69 -4.34 6.38 -4 4 C-6.31 4.33 -8.62 4.66 -11 5 C-11 4.34 -11 3.68 -11 3 C-7.62902617 1.50178941 -5.79557881 1 -2 1 C-1.67 1.99 -1.34 2.98 -1 4 C-0.67 2.68 -0.34 1.36 0 0 Z " fill="#C0725C" transform="translate(81,113)"/>
<path d="M0 0 C0.66 0 1.32 0 2 0 C4.31 4.29 6.62 8.58 9 13 C8.34 13.66 7.68 14.32 7 15 C6.2575 13.7934375 6.2575 13.7934375 5.5 12.5625 C2.04304061 9.01911662 -0.14788209 9.2426059 -5 9 C-5.33 7.68 -5.66 6.36 -6 5 C-2.535 4.505 -2.535 4.505 1 4 C0.67 2.68 0.34 1.36 0 0 Z " fill="#DAAB8B" transform="translate(100,47)"/>
<path d="M0 0 C0.25 3.3125 0.25 3.3125 0 7 C-2.51554666 9.70188345 -5.57559682 10.73837777 -9 12 C-9.99 12.495 -9.99 12.495 -11 13 C-11 11.68 -11 10.36 -11 9 C-11.99 8.67 -12.98 8.34 -14 8 C-10.17010894 6.19769832 -7.21878192 5.80377759 -3 6 C-3 5.34 -3 4.68 -3 4 C-3.99 3.67 -4.98 3.34 -6 3 C-1.125 0 -1.125 0 0 0 Z " fill="#E09868" transform="translate(130,74)"/>
<path d="M0 0 C2.5 5 2.5 5 3 8 C2.67 8.66 2.34 9.32 2 10 C3.32 10.33 4.64 10.66 6 11 C6.33 10.34 6.66 9.68 7 9 C8.2065625 8.319375 8.2065625 8.319375 9.4375 7.625 C12.40329549 6.05315862 12.40329549 6.05315862 14 2 C14 4.97 14 7.94 14 11 C9.71 11.66 5.42 12.32 1 13 C0.67 8.71 0.34 4.42 0 0 Z " fill="#E8965F" transform="translate(110,66)"/>
<path d="M0 0 C1.65 0 3.3 0 5 0 C5 0.66 5 1.32 5 2 C8.63 2 12.26 2 16 2 C15.67 2.99 15.34 3.98 15 5 C16.32 5.33 17.64 5.66 19 6 C14.05 6 9.1 6 4 6 C4 5.34 4 4.68 4 4 C3.34 4 2.68 4 2 4 C2 3.34 2 2.68 2 2 C1.34 2 0.68 2 0 2 C0 1.34 0 0.68 0 0 Z " fill="#984B4C" transform="translate(105,88)"/>
<path d="M0 0 C3.92928554 1.96464277 6.51209701 4.39254067 9 8 C5.32589215 9.17571451 1.83070817 9.07366746 -2 9 C-1.67 8.01 -1.34 7.02 -1 6 C-1.33 5.01 -1.66 4.02 -2 3 C-1.34 2.01 -0.68 1.02 0 0 Z " fill="#C67558" transform="translate(104,104)"/>
<path d="M0 0 C3.3125 0.1875 3.3125 0.1875 6 1 C6 1.66 6 2.32 6 3 C6.66 3 7.32 3 8 3 C7.67 3.66 7.34 4.32 7 5 C6.195625 4.938125 5.39125 4.87625 4.5625 4.8125 C1.3766232 4.98017773 -0.5609529 5.44074952 -3.5 6.5 C-7.13721777 7.81087544 -10.09502727 8.30038252 -14 8 C-13.67 7.34 -13.34 6.68 -13 6 C-11.7625 5.896875 -10.525 5.79375 -9.25 5.6875 C-5.59805639 5.35609586 -5.1528535 5.1528535 -2.375 2.375 C-1.59125 1.59125 -0.8075 0.8075 0 0 Z " fill="#E08F5E" transform="translate(109,95)"/>
<path d="M0 0 C2.375 1.375 2.375 1.375 3.1875 4 C3.249375 4.78375 3.31125 5.5675 3.375 6.375 C1.93663249 6.26041307 0.49929034 6.13290884 -0.9375 6 C-1.73800781 5.93039063 -2.53851563 5.86078125 -3.36328125 5.7890625 C-5.625 5.375 -5.625 5.375 -8.625 3.375 C-5.92604191 0.41899828 -4.14159944 -0.9860951 0 0 Z " fill="#ADC0C9" transform="translate(81.625,19.625)"/>
<path d="M0 0 C2.31 0 4.62 0 7 0 C8.39195915 4.17587745 6.82323219 6.13474776 5 10 C4.67 8.68 4.34 7.36 4 6 C1.69 5.67 -0.62 5.34 -3 5 C-3 4.34 -3 3.68 -3 3 C-2.01 3 -1.02 3 0 3 C0 2.01 0 1.02 0 0 Z " fill="#B69999" transform="translate(124,92)"/>
<path d="M0 0 C4.77826683 2.21431878 8.78542278 4.88121286 13 8 C12.67 8.66 12.34 9.32 12 10 C9.36 9.67 6.72 9.34 4 9 C4 8.34 4 7.68 4 7 C3.01 7 2.02 7 1 7 C0.67 4.69 0.34 2.38 0 0 Z " fill="#F4AF6E" transform="translate(81,72)"/>
<path d="M0 0 C0.99 0 1.98 0 3 0 C3 0.66 3 1.32 3 2 C3.66 2.33 4.32 2.66 5 3 C6.88186002 6.0318856 7 7.24517355 7 11 C7.66 11.33 8.32 11.66 9 12 C7.68 12.33 6.36 12.66 5 13 C5 13.66 5 14.32 5 15 C4.34 14.67 3.68 14.34 3 14 C2.40234375 12.109375 2.40234375 12.109375 1.9375 9.75 C1.77378906 8.94175781 1.61007813 8.13351563 1.44140625 7.30078125 C1.29574219 6.54152344 1.15007812 5.78226562 1 5 C0.690625 3.4840625 0.690625 3.4840625 0.375 1.9375 C0.25125 1.298125 0.1275 0.65875 0 0 Z " fill="#C47058" transform="translate(70,88)"/>
<path d="M0 0 C-0.25 1.875 -0.25 1.875 -1 4 C-2.6875 5.0625 -2.6875 5.0625 -5 6 C-5.969375 6.53625 -6.93875 7.0725 -7.9375 7.625 C-10.97317175 8.98795467 -12.73230026 9.28832645 -16 9 C-16.66 7.68 -17.32 6.36 -18 5 C-16.845 5.103125 -15.69 5.20625 -14.5 5.3125 C-9.94216741 5.35305011 -7.29750412 3.69940535 -3.6640625 1.09375 C-2 0 -2 0 0 0 Z " fill="#999CA8" transform="translate(80,60)"/>
<path d="M0 0 C0.66 0.66 1.32 1.32 2 2 C4.06874034 2.6425235 4.06874034 2.6425235 6 3 C6.33 2.34 6.66 1.68 7 1 C9.31 1 11.62 1 14 1 C12.93363297 4.09246438 11.99355341 5.00415447 9.1875 6.8125 C5.81023996 8.07069492 4.36888105 8.0899321 1 7 C0.67 4.69 0.34 2.38 0 0 Z " fill="#2F1118" transform="translate(81,58)"/>
<path d="M0 0 C0 0.66 0 1.32 0 2 C-5.02649303 3.57077907 -9.76119922 4.44854729 -15 5 C-15 3.68 -15 2.36 -15 1 C-9.42567486 -0.66251802 -5.6932495 -1.18609365 0 0 Z " fill="#F0B371" transform="translate(127,78)"/>
<path d="M0 0 C0.70125 0.28875 1.4025 0.5775 2.125 0.875 C5.05452503 2.02133588 8.00921653 3.02625654 11 4 C9.60804085 6.7839183 7.84424221 6.97898997 5 8 C5.33 8.99 5.66 9.98 6 11 C1.545 10.01 1.545 10.01 -3 9 C-1.68 8.34 -0.36 7.68 1 7 C0.67 4.69 0.34 2.38 0 0 Z " fill="#B58787" transform="translate(110,39)"/>
<path d="M0 0 C-0.33 0.66 -0.66 1.32 -1 2 C-0.01 2 0.98 2 2 2 C2 2.66 2 3.32 2 4 C0.01432292 4.48828125 -1.97135417 4.9765625 -3.95703125 5.46484375 C-5.65683202 5.91010705 -7.33301954 6.44433985 -9 7 C-9.33 6.01 -9.66 5.02 -10 4 C-10.66 3.67 -11.32 3.34 -12 3 C-4.22222222 -2.11111111 -4.22222222 -2.11111111 0 0 Z " fill="#BF9A98" transform="translate(56,122)"/>
<path d="M0 0 C1.051875 0.5878125 1.051875 0.5878125 2.125 1.1875 C1.795 2.1775 1.465 3.1675 1.125 4.1875 C1.785 4.8475 2.445 5.5075 3.125 6.1875 C1.475 7.5075 -0.175 8.8275 -1.875 10.1875 C-1.875 9.5275 -1.875 8.8675 -1.875 8.1875 C-2.535 7.8575 -3.195 7.5275 -3.875 7.1875 C-4.205 6.1975 -4.535 5.2075 -4.875 4.1875 C-6.87516466 2.97867904 -6.87516466 2.97867904 -8.875 2.1875 C-3.58269231 -1.0125 -3.58269231 -1.0125 0 0 Z " fill="#A6647A" transform="translate(78.875,124.8125)"/>
<path d="M0 0 C0.99 0 1.98 0 3 0 C1.80514309 3.58457072 0.77327439 4.14210126 -2.3125 6.1875 C-3.09238281 6.71730469 -3.87226562 7.24710937 -4.67578125 7.79296875 C-7 9 -7 9 -11 9 C-11 8.34 -11 7.68 -11 7 C-11.66 6.67 -12.32 6.34 -13 6 C-12.14535156 5.65066406 -11.29070313 5.30132812 -10.41015625 4.94140625 C-9.30542969 4.48636719 -8.20070313 4.03132813 -7.0625 3.5625 C-5.96035156 3.11003906 -4.85820313 2.65757813 -3.72265625 2.19140625 C-1.13431084 1.25575392 -1.13431084 1.25575392 0 0 Z " fill="#C2BFBF" transform="translate(64,107)"/>
<path d="M0 0 C4 0 4 0 6 1.875 C6.66 2.57625 7.32 3.2775 8 4 C10.13309192 5.23512079 10.13309192 5.23512079 12 6 C11 7 11 7 7.8125 7.3125 C3.42174982 6.95260244 1.42763498 5.6752273 -2 3 C-1.34 2.01 -0.68 1.02 0 0 Z " fill="#C0B5B7" transform="translate(64,119)"/>
<path d="M0 0 C0.94101563 0.18304688 1.88203125 0.36609375 2.8515625 0.5546875 C5.375 1.125 5.375 1.125 8.375 2.125 C8.045 3.115 7.715 4.105 7.375 5.125 C1.07132197 4.54132611 -4.61160063 3.08428381 -10.625 1.125 C-10.625 0.795 -10.625 0.465 -10.625 0.125 C-6.75570211 -0.87398237 -3.90573459 -0.78545076 0 0 Z " fill="#C47277" transform="translate(114.625,112.875)"/>
<path d="M0 0 C0.33 0 0.66 0 1 0 C1.33 2.97 1.66 5.94 2 9 C-3.75 12 -3.75 12 -6 12 C-6 13.98 -6 15.96 -6 18 C-6.33 18 -6.66 18 -7 18 C-7.103125 17.21625 -7.20625 16.4325 -7.3125 15.625 C-7.77595022 12.66954819 -7.77595022 12.66954819 -11 11 C-9.27473958 10.28385417 -7.54947917 9.56770833 -5.82421875 8.8515625 C-3.73466068 7.93193308 -3.73466068 7.93193308 -1 6 C-0.26656572 2.93443402 -0.26656572 2.93443402 0 0 Z " fill="#9C5F75" transform="translate(80,57)"/>
<path d="M0 0 C0.66 0.66 1.32 1.32 2 2 C0.68 2 -0.64 2 -2 2 C-0.68 3.32 0.64 4.64 2 6 C1.08476563 5.91621094 0.16953125 5.83242187 -0.7734375 5.74609375 C-1.96195313 5.64425781 -3.15046875 5.54242188 -4.375 5.4375 C-5.55835938 5.33308594 -6.74171875 5.22867188 -7.9609375 5.12109375 C-10.91898631 4.75846404 -10.91898631 4.75846404 -13 6 C-12.06896676 3.67241689 -11.34617872 2.25642868 -9.3125 0.75 C-6.10631102 -0.28984508 -3.34490193 -0.24777051 0 0 Z " fill="#A56B80" transform="translate(65,80)"/>
<path d="M0 0 C1.5 1 1.5 1 3 3 C3.27345479 5.71846235 3.13491285 8.25677199 3 11 C1.68 11 0.36 11 -1 11 C-1.66 10.34 -2.32 9.68 -3 9 C-2.625 6.375 -2.625 6.375 -2 4 C-1.34 4 -0.68 4 0 4 C0 2.68 0 1.36 0 0 Z " fill="#33131D" transform="translate(104,64)"/>
<path d="M0 0 C-0.33 1.65 -0.66 3.3 -1 5 C-1.99 5 -2.98 5 -4 5 C-4 5.66 -4 6.32 -4 7 C-4.66 7 -5.32 7 -6 7 C-6.33 7.99 -6.66 8.98 -7 10 C-7.66 7.69 -8.32 5.38 -9 3 C-6.38997624 -0.48003168 -4.1689578 -0.27793052 0 0 Z " fill="#896C77" transform="translate(60,84)"/>
<path d="M0 0 C-0.99 0.66 -1.98 1.32 -3 2 C-4.21284876 5.05429073 -4.21284876 5.05429073 -5 8 C-6.65 7.67 -8.3 7.34 -10 7 C-10.33 5.35 -10.66 3.7 -11 2 C-9.54494642 1.47007308 -8.08581873 0.9513211 -6.625 0.4375 C-5.81289062 0.14746094 -5.00078125 -0.14257812 -4.1640625 -0.44140625 C-2 -1 -2 -1 0 0 Z " fill="#F0ECE4" transform="translate(99,62)"/>
<path d="M0 0 C0.99 0.33 1.98 0.66 3 1 C3 1.66 3 2.32 3 3 C3.99 3 4.98 3 6 3 C6.33 2.34 6.66 1.68 7 1 C6.25749403 5.08378283 5.17076699 9.01939223 4 13 C4.99 13 5.98 13 7 13 C7 13.99 7 14.98 7 16 C5.68 16 4.36 16 3 16 C2.86722656 15.09636719 2.73445313 14.19273438 2.59765625 13.26171875 C2.42105469 12.08222656 2.24445313 10.90273438 2.0625 9.6875 C1.88847656 8.51574219 1.71445313 7.34398437 1.53515625 6.13671875 C1.07906969 2.98358597 1.07906969 2.98358597 0 0 Z " fill="#D7A996" transform="translate(120,49)"/>
<path d="M0 0 C1.65 0.33 3.3 0.66 5 1 C4.67 2.32 4.34 3.64 4 5 C0.7 5.33 -2.6 5.66 -6 6 C-6.33 5.01 -6.66 4.02 -7 3 C-3.535 2.505 -3.535 2.505 0 2 C0 1.34 0 0.68 0 0 Z " fill="#B0C0C9" transform="translate(70,109)"/>
<path d="M0 0 C-2.6815078 1.18239714 -5.3688389 2.3458921 -8.0625 3.5 C-8.81466797 3.83386719 -9.56683594 4.16773438 -10.34179688 4.51171875 C-15.15869624 6.55525181 -18.76875805 7.38904323 -24 7 C-24.33 5.35 -24.66 3.7 -25 2 C-23 3 -23 3 -22 5 C-16.21964858 3.96144986 -11.27252744 2.40277826 -6.04296875 -0.29296875 C-3.58879037 -1.14231155 -2.44327351 -0.71013909 0 0 Z " fill="#8D97AC" transform="translate(33,135)"/>
<path d="M0 0 C0.66 0.33 1.32 0.66 2 1 C-0.29015544 5.93264249 -0.29015544 5.93264249 -3 8 C-7.716945 8.63569247 -12.26772027 8.40342845 -17 8 C-17 7.34 -17 6.68 -17 6 C-13.65078088 5.13568539 -10.79395678 5.04921298 -7.375 5.25 C-5.073142 5.36039553 -5.073142 5.36039553 -3 5 C-0.84397306 2.66250834 -0.84397306 2.66250834 0 0 Z " fill="#BC705A" transform="translate(127,82)"/>
<path d="M0 0 C0.99 0.66 1.98 1.32 3 2 C3 2.66 3 3.32 3 4 C-2.09546166 8.05320814 -2.09546166 8.05320814 -5.125 7.875 C-7.10533528 6.95084353 -9.07329235 6.03216481 -11 5 C-9.9275 4.731875 -8.855 4.46375 -7.75 4.1875 C-4.43491072 3.13772173 -2.56122354 2.25387672 0 0 Z " fill="#ADC0C9" transform="translate(63,132)"/>
<path d="M0 0 C4.27683498 1.52744106 6.00037651 4.00075302 8 8 C8.32124049 11.3629864 8.2395064 14.63360448 8 18 C7.67 18 7.34 18 7 18 C6.95101562 17.39671875 6.90203125 16.7934375 6.8515625 16.171875 C6.77679688 15.37265625 6.70203125 14.5734375 6.625 13.75 C6.52058594 12.56664063 6.52058594 12.56664063 6.4140625 11.359375 C5.98492887 8.914123 5.21399362 7.15163097 4 5 C3.67 5.99 3.34 6.98 3 8 C1.68 7.67 0.36 7.34 -1 7 C-0.7525 6.1028125 -0.7525 6.1028125 -0.5 5.1875 C0.1114124 2.88655664 0.1114124 2.88655664 0 0 Z " fill="#AA8193" transform="translate(101,60)"/>
<path d="M0 0 C2 2 2 2 2.125 5.125 C2.08375 6.07375 2.0425 7.0225 2 8 C-2.40914783 9.10228696 -6.48382401 9.07654536 -11 9 C-11 7.35 -11 5.7 -11 4 C-10.278125 4.515625 -9.55625 5.03125 -8.8125 5.5625 C-5.5804634 7.21442982 -4.38391693 7.06351675 -1 6 C-0.67 4.02 -0.34 2.04 0 0 Z " fill="#C47257" transform="translate(109,71)"/>
<path d="M0 0 C1.4540625 0.0309375 1.4540625 0.0309375 2.9375 0.0625 C2.75 1.875 2.75 1.875 1.9375 4.0625 C-0.625 5.8125 -0.625 5.8125 -3.0625 7.0625 C-4.0525 6.4025 -5.0425 5.7425 -6.0625 5.0625 C-3.64893617 0.07446809 -3.64893617 0.07446809 0 0 Z " fill="#B4C1C9" transform="translate(91.0625,44.9375)"/>
<path d="M0 0 C4.99275057 1.27721526 7.57611908 3.17330957 11 7 C9.23050905 7.10815225 7.45912513 7.18566083 5.6875 7.25 C4.70136719 7.29640625 3.71523437 7.3428125 2.69921875 7.390625 C0 7 0 7 -1.85546875 4.984375 C-2.42201172 4.00210938 -2.42201172 4.00210938 -3 3 C-1.8553125 3.495 -1.8553125 3.495 -0.6875 4 C1.99069135 5.17436686 1.99069135 5.17436686 5 5 C3.02 4.01 1.04 3.02 -1 2 C-0.67 1.34 -0.34 0.68 0 0 Z " fill="#CFA498" transform="translate(85,37)"/>
<path d="M0 0 C4.0369867 1.79421631 6.64480474 3.20551875 9 7 C7.54052295 6.93993922 6.08220728 6.8511311 4.625 6.75 C3.81289062 6.70359375 3.00078125 6.6571875 2.1640625 6.609375 C0 6 0 6 -1.2890625 3.953125 C-1.52367188 3.30859375 -1.75828125 2.6640625 -2 2 C-1.34 1.34 -0.68 0.68 0 0 Z " fill="#9A5978" transform="translate(114,108)"/>
<path d="M0 0 C1.32 0.33 2.64 0.66 4 1 C4.79953138 4.28696233 5.09658936 5.71023192 4 9 C2.02 9.99 2.02 9.99 0 11 C0 7.37 0 3.74 0 0 Z " fill="#420F18" transform="translate(124,66)"/>
<path d="M0 0 C3.63 0 7.26 0 11 0 C11.66 1.32 12.32 2.64 13 4 C11.02 4.66 9.04 5.32 7 6 C7 5.01 7 4.02 7 3 C4.69 2.34 2.38 1.68 0 1 C0 0.67 0 0.34 0 0 Z " fill="#AF989F" transform="translate(63,128)"/>
<path d="M0 0 C3.49695404 0.64758408 6.12552877 1.90241288 9 4 C9.8125 6.1875 9.8125 6.1875 10 8 C10.66 8 11.32 8 12 8 C11.67 9.32 11.34 10.64 11 12 C7.34810059 10.07794768 5.63783943 8.77962946 4 5 C3.34 4.67 2.68 4.34 2 4 C2 3.01 2 2.02 2 1 C1.34 0.67 0.68 0.34 0 0 Z " fill="#674952" transform="translate(57,86)"/>
<path d="M0 0 C0.66 0.33 1.32 0.66 2 1 C1.67257813 1.55171875 1.34515625 2.1034375 1.0078125 2.671875 C-0.16787715 5.38780923 -0.20248638 7.30551759 -0.125 10.25 C-0.10695313 11.14203125 -0.08890625 12.0340625 -0.0703125 12.953125 C-0.04710938 13.62859375 -0.02390625 14.3040625 0 15 C-1.65 14.67 -3.3 14.34 -5 14 C-5.33 12.35 -5.66 10.7 -6 9 C-5.01 9 -4.02 9 -3 9 C-2.01 6.03 -1.02 3.06 0 0 Z " fill="#C1B9BE" transform="translate(96,63)"/>
<path d="M0 0 C1.01578125 0.02578125 2.0315625 0.0515625 3.078125 0.078125 C4.1403125 0.10390625 5.2025 0.1296875 6.296875 0.15625 C9.70614597 0.34955918 12.97043114 0.71763521 16.328125 1.328125 C16.328125 1.658125 16.328125 1.988125 16.328125 2.328125 C5.438125 2.823125 5.438125 2.823125 -5.671875 3.328125 C-2.671875 0.328125 -2.671875 0.328125 0 0 Z " fill="#E2C4A5" transform="translate(108.671875,100.671875)"/>
<path d="M0 0 C0 0.66 0 1.32 0 2 C-2.31 2.33 -4.62 2.66 -7 3 C-6.67 3.66 -6.34 4.32 -6 5 C-3.03 5 -0.06 5 3 5 C2.67 5.66 2.34 6.32 2 7 C1.34 7 0.68 7 0 7 C-0.33 7.99 -0.66 8.98 -1 10 C-1.99 9.67 -2.98 9.34 -4 9 C-3.67 8.34 -3.34 7.68 -3 7 C-4.65 6.67 -6.3 6.34 -8 6 C-8 4.68 -8 3.36 -8 2 C-4.91190305 0.23537317 -3.76687864 0 0 0 Z " fill="#9A919F" transform="translate(70,109)"/>
<path d="M0 0 C1.65 1.65 3.3 3.3 5 5 C1.696686 5.88935377 -1.62294375 6.46274105 -5 7 C-5 5.35 -5 3.7 -5 2 C-3.35 1.34 -1.7 0.68 0 0 Z " fill="#BC716B" transform="translate(72,103)"/>
<path d="M0 0 C0.33 1.32 0.66 2.64 1 4 C-0.04800781 4.25523438 -0.04800781 4.25523438 -1.1171875 4.515625 C-2.02726562 4.75796875 -2.93734375 5.0003125 -3.875 5.25 C-4.77992187 5.48203125 -5.68484375 5.7140625 -6.6171875 5.953125 C-9.14957604 6.79914179 -9.14957604 6.79914179 -10.3203125 9.109375 C-10.65675781 10.04523438 -10.65675781 10.04523438 -11 11 C-11.99 11 -12.98 11 -14 11 C-14 10.01 -14 9.02 -14 8 C-13.34 8 -12.68 8 -12 8 C-12 7.34 -12 6.68 -12 6 C-8.04 4.02 -4.08 2.04 0 0 Z " fill="#E18F5E" transform="translate(87,95)"/>
<path d="M0 0 C2 0 2 0 3.625 1.5 C4.07875 1.995 4.5325 2.49 5 3 C8.0745356 2.2236068 8.0745356 2.2236068 10 0 C10.625 1.875 10.625 1.875 11 4 C9 6 9 6 6.0625 6.375 C3 6 3 6 1.125 4.125 C0 2 0 2 0 0 Z " fill="#9EA1AB" transform="translate(83,48)"/>
<path d="M0 0 C3 0.1875 3 0.1875 5 1.1875 C5 3.1675 5 5.1475 5 7.1875 C4.01 7.5175 3.02 7.8475 2 8.1875 C1.773125 7.383125 1.54625 6.57875 1.3125 5.75 C0.879375 4.904375 0.44625 4.05875 0 3.1875 C-2.54775306 2.29363836 -2.54775306 2.29363836 -5 2.1875 C-3 0.1875 -3 0.1875 0 0 Z " fill="#E6B27F" transform="translate(55,125.8125)"/>
<path d="M0 0 C0.33 0.66 0.66 1.32 1 2 C-1.01027594 6.49355798 -3.75834755 8.6140705 -8 11 C-8.99 11 -9.98 11 -11 11 C-11 10.01 -11 9.02 -11 8 C-9.865625 7.566875 -8.73125 7.13375 -7.5625 6.6875 C-6.386875 6.130625 -5.21125 5.57375 -4 5 C-3.67 4.01 -3.34 3.02 -3 2 C-2.01 1.34 -1.02 0.68 0 0 Z " fill="#E0C6A6" transform="translate(98,109)"/>
<path d="M0 0 C3.3 0.99 6.6 1.98 10 3 C8.515 5.475 8.515 5.475 7 8 C4.0625 6.25 4.0625 6.25 1 4 C0.67 2.68 0.34 1.36 0 0 Z " fill="#64697E" transform="translate(101,26)"/>
<path d="M0 0 C-4.51818443 1.76319392 -8.16504171 2.18245126 -13 2 C-13.99 2 -14.98 2 -16 2 C-15.67 1.01 -15.34 0.02 -15 -1 C-13.06403108 -1.22211116 -11.12610672 -1.42722992 -9.1875 -1.625 C-8.10855469 -1.74101563 -7.02960938 -1.85703125 -5.91796875 -1.9765625 C-3 -2 -3 -2 0 0 Z " fill="#8D96A9" transform="translate(85,56)"/>
<path d="M0 0 C6.4 -0.49230769 6.4 -0.49230769 9.4375 2 C10.2109375 2.99 10.2109375 2.99 11 4 C7.7169902 5.6415049 4.57454967 4.51888624 1 4 C0.67 2.68 0.34 1.36 0 0 Z " fill="#D4ACA0" transform="translate(94,52)"/>
<path d="M0 0 C1.875 0.625 1.875 0.625 4 2 C5.25 5.125 5.25 5.125 6 8 C3.69 8.33 1.38 8.66 -1 9 C-1 8.34 -1 7.68 -1 7 C-0.34 7 0.32 7 1 7 C0.34 5.02 -0.32 3.04 -1 1 C-0.67 0.67 -0.34 0.34 0 0 Z " fill="#D0C2BD" transform="translate(96,44)"/>
<path d="M0 0 C1.375 2.5625 1.375 2.5625 2 5 C-2.40114397 4.49701212 -4.71195019 2.91227269 -8 0 C-5.01122021 -1.4943899 -3.14997454 -0.91874257 0 0 Z " fill="#ABBBC4" transform="translate(111,20)"/>
<path d="M0 0 C0.66 0.99 1.32 1.98 2 3 C4.05925139 3.72382467 4.05925139 3.72382467 6 4 C5.67 4.99 5.34 5.98 5 7 C4.01 7.33 3.02 7.66 2 8 C2 7.01 2 6.02 2 5 C-0.64 5.33 -3.28 5.66 -6 6 C-6 5.34 -6 4.68 -6 4 C-4.03852126 2.61061923 -2.03833424 1.2739589 0 0 Z " fill="#A7617A" transform="translate(61,112)"/>
<path d="M0 0 C1.32 0.66 2.64 1.32 4 2 C3.34 2.66 2.68 3.32 2 4 C2.29299023 5.67422986 2.62690101 7.34178227 3 9 C2.67 9.66 2.34 10.32 2 11 C1.34 11 0.68 11 0 11 C0 9.68 0 8.36 0 7 C-0.66 7 -1.32 7 -2 7 C-1.125 2.25 -1.125 2.25 0 0 Z " fill="#73535B" transform="translate(99,60)"/>
<path d="M0 0 C1.95766281 -0.08082094 3.91626728 -0.13910778 5.875 -0.1875 C7.51082031 -0.23970703 7.51082031 -0.23970703 9.1796875 -0.29296875 C10.11039063 -0.19628906 11.04109375 -0.09960938 12 0 C12.66 0.99 13.32 1.98 14 3 C3.44191344 3.18451025 3.44191344 3.18451025 -1 2 C-0.67 1.34 -0.34 0.68 0 0 Z " fill="#C87866" transform="translate(110,99)"/>
<path d="M0 0 C3 0 3 0 4.625 1 C6.78235055 4.13796443 6.69134656 7.23442808 7 11 C6.67 10.01 6.34 9.02 6 8 C5.360625 7.731875 4.72125 7.46375 4.0625 7.1875 C2 6 2 6 0.75 2.875 C0.5025 1.92625 0.255 0.9775 0 0 Z " fill="#DC8B65" transform="translate(114,46)"/>
<path d="M0 0 C3.16115776 1.36983503 3.9927092 1.9890638 6 5 C5.67 5.66 5.34 6.32 5 7 C2.03 6.505 2.03 6.505 -1 6 C-0.67 4.02 -0.34 2.04 0 0 Z " fill="#F7E0AB" transform="translate(80,40)"/>
<path d="M0 0 C0.99 0.66 1.98 1.32 3 2 C3 2.66 3 3.32 3 4 C-0.63 5.32 -4.26 6.64 -8 8 C-8 7.01 -8 6.02 -8 5 C-2.25 3 -2.25 3 0 3 C0 2.01 0 1.02 0 0 Z " fill="#AE999F" transform="translate(43,120)"/>
<path d="M0 0 C1.98 0.66 3.96 1.32 6 2 C6 2.66 6 3.32 6 4 C3.29120665 5.35439668 0.99066732 5.06501451 -2 5 C-2.33 4.34 -2.66 3.68 -3 3 C-2.34 3 -1.68 3 -1 3 C-0.67 2.01 -0.34 1.02 0 0 Z " fill="#A5B8C6" transform="translate(60,99)"/>
<path d="M0 0 C0.99 0 1.98 0 3 0 C3.33 0.99 3.66 1.98 4 3 C4.66 2.34 5.32 1.68 6 1 C6.99 1 7.98 1 9 1 C8.67 2.32 8.34 3.64 8 5 C5.03 5 2.06 5 -1 5 C-0.34 4.67 0.32 4.34 1 4 C0.67 2.68 0.34 1.36 0 0 Z " fill="#D78559" transform="translate(116,83)"/>
<path d="M0 0 C0.99 0 1.98 0 3 0 C2.67 1.65 2.34 3.3 2 5 C-0.31 5 -2.62 5 -5 5 C-5.33 3.68 -5.66 2.36 -6 1 C-3.03 1.495 -3.03 1.495 0 2 C0 1.34 0 0.68 0 0 Z " fill="#F2AF6C" transform="translate(120,66)"/>
<path d="M0 0 C0 0.66 0 1.32 0 2 C-1.11375 2.515625 -2.2275 3.03125 -3.375 3.5625 C-5.59594075 4.80532947 -6.76485898 5.52870876 -7.91015625 7.82421875 C-8.52593403 9.95229588 -8.52593403 9.95229588 -9 13 C-9.33 13 -9.66 13 -10 13 C-10 10.03 -10 7.06 -10 4 C-2.25 0 -2.25 0 0 0 Z " fill="#C57258" transform="translate(84,65)"/>
<path d="M0 0 C4.75 0.75 4.75 0.75 7 3 C7 3.99 7 4.98 7 6 C7.99 6.33 8.98 6.66 10 7 C9.67 8.32 9.34 9.64 9 11 C6.77286636 9.16019395 6.0528363 8.36104804 5.625 5.4375 C5.41875 4.633125 5.2125 3.82875 5 3 C2.52363988 1.62533375 2.52363988 1.62533375 0 1 C0 0.67 0 0.34 0 0 Z " fill="#5D667F" transform="translate(56,89)"/>
<path d="M0 0 C0.33 0.99 0.66 1.98 1 3 C-2.4352048 5.29013653 -3.985331 5.17842973 -8 5 C-8.33 4.34 -8.66 3.68 -9 3 C-6.03 2.01 -3.06 1.02 0 0 Z " fill="#8D8EA4" transform="translate(84,26)"/>
<path d="M0 0 C0 0.99 0 1.98 0 3 C-1.65 3.66 -3.3 4.32 -5 5 C-5.99 4.01 -6.98 3.02 -8 2 C-4.77208445 -0.1519437 -3.71599191 -0.20086443 0 0 Z " fill="#B3B4BC" transform="translate(43,126)"/>
<path d="M0 0 C0.33 0.66 0.66 1.32 1 2 C1.99 2.33 2.98 2.66 4 3 C3.34 4.32 2.68 5.64 2 7 C1.34 7 0.68 7 0 7 C0 7.99 0 8.98 0 10 C-0.66 9.67 -1.32 9.34 -2 9 C-1.67 8.34 -1.34 7.68 -1 7 C-1.66 7 -2.32 7 -3 7 C-2.67 6.34 -2.34 5.68 -2 5 C-1.34 5 -0.68 5 0 5 C-0.2784375 4.0409375 -0.2784375 4.0409375 -0.5625 3.0625 C-0.706875 2.381875 -0.85125 1.70125 -1 1 C-0.67 0.67 -0.34 0.34 0 0 Z " fill="#DD9A74" transform="translate(76,103)"/>
<path d="M0 0 C0.33 1.32 0.66 2.64 1 4 C-0.96466413 5.06775224 -2.96855359 6.06553465 -5 7 C-5.66 6.67 -6.32 6.34 -7 6 C-6.75 4.125 -6.75 4.125 -6 2 C-3.85331506 0.61504198 -2.56128588 0 0 0 Z " fill="#E08E5D" transform="translate(94,100)"/>
<path d="M0 0 C-0.25 1.875 -0.25 1.875 -1 4 C-3.95545121 6.11103658 -6.43855901 6.19785783 -10 6 C-2.6 0 -2.6 0 0 0 Z " fill="#B799A3" transform="translate(80,60)"/>
<path d="M0 0 C-0.33 1.65 -0.66 3.3 -1 5 C-3.97 4.01 -6.94 3.02 -10 2 C-6.3558226 -0.4294516 -4.28758728 -0.16179575 0 0 Z " fill="#8D8DA3" transform="translate(113,25)"/>
<path d="M0 0 C0.99 0.66 1.98 1.32 3 2 C2.67 3.65 2.34 5.3 2 7 C1.01 7 0.02 7 -1 7 C-1.33 5.02 -1.66 3.04 -2 1 C-1.34 0.67 -0.68 0.34 0 0 Z " fill="#C6C0C3" transform="translate(124,45)"/>
<path d="M0 0 C2.31 0 4.62 0 7 0 C7.33 1.65 7.66 3.3 8 5 C7.01 5 6.02 5 5 5 C4.67 4.34 4.34 3.68 4 3 C1.47266765 2.34444881 1.47266765 2.34444881 -1 2 C-0.67 1.34 -0.34 0.68 0 0 Z " fill="#F7E8C6" transform="translate(47,129)"/>
<path d="M0 0 C1.32 0 2.64 0 4 0 C4.66 3.63 5.32 7.26 6 11 C5.34 11 4.68 11 4 11 C3.87625 9.865625 3.7525 8.73125 3.625 7.5625 C3.41875 6.386875 3.2125 5.21125 3 4 C2.34 3.67 1.68 3.34 1 3 C0.67 2.01 0.34 1.02 0 0 Z " fill="#D9885A" transform="translate(73,88)"/>
<path d="M0 0 C0.66 0.33 1.32 0.66 2 1 C-0.88406243 4.40843742 -2.3708265 5.86591384 -6.8125 6.8125 C-8.3903125 6.9053125 -8.3903125 6.9053125 -10 7 C-7.75552339 4.4188519 -6.2506864 3.8126716 -3 3 C-1.26973898 1.52109931 -1.26973898 1.52109931 0 0 Z " fill="#8B91A4" transform="translate(69,134)"/>
<path d="M0 0 C2.475 0.495 2.475 0.495 5 1 C5 1.66 5 2.32 5 3 C5.99 3.33 6.98 3.66 8 4 C6.25 5.5625 6.25 5.5625 4 7 C1.75 6.6875 1.75 6.6875 0 6 C0.99 5.01 1.98 4.02 3 3 C2.01 2.01 1.02 1.02 0 0 Z " fill="#A8A6B1" transform="translate(31,127)"/>
<path d="M0 0 C3.01217112 0.64449607 5.51655836 1.65022182 8.25 3.0625 C8.95640625 3.42472656 9.6628125 3.78695312 10.390625 4.16015625 C10.92171875 4.43730469 11.4528125 4.71445312 12 5 C9.44345185 5.95582656 8.39658231 6.17802782 5.859375 5.0390625 C5.16328125 4.57242188 4.4671875 4.10578125 3.75 3.625 C3.04359375 3.16351563 2.3371875 2.70203125 1.609375 2.2265625 C1.07828125 1.82179687 0.5471875 1.41703125 0 1 C0 0.67 0 0.34 0 0 Z " fill="#A66C76" transform="translate(79,37)"/>
<path d="M0 0 C2 0 2 0 4.125 1.875 C6 4 6 4 6 6 C1.25 5.125 1.25 5.125 -1 4 C-0.67 2.68 -0.34 1.36 0 0 Z " fill="#B5C6C8" transform="translate(66,119)"/>
<path d="M0 0 C0 1.65 0 3.3 0 5 C-0.99 4.34 -1.98 3.68 -3 3 C-6.14221967 3.31506627 -6.14221967 3.31506627 -9 4 C-9 3.34 -9 2.68 -9 2 C-5.62902617 0.50178941 -3.79557881 0 0 0 Z " fill="#E1905F" transform="translate(79,114)"/>
<path d="M0 0 C2.32472205 2.85306797 3.7508258 5.54074837 5 9 C0.545 8.01 0.545 8.01 -4 7 C-2.68 6.34 -1.36 5.68 0 5 C0 3.35 0 1.7 0 0 Z " fill="#8B5B70" transform="translate(111,41)"/>
<path d="M0 0 C3.3 0 6.6 0 10 0 C9.34 1.32 8.68 2.64 8 4 C5.125 3.6875 5.125 3.6875 2 3 C1.34 2.01 0.68 1.02 0 0 Z " fill="#63697F" transform="translate(74,30)"/>
<path d="M0 0 C-2.96687001 1.64826111 -5.65626525 2.44271087 -9 3 C-9.33 2.01 -9.66 1.02 -10 0 C-6.7169902 -1.6415049 -3.57454967 -0.51888624 0 0 Z " fill="#94A8BE" transform="translate(84,26)"/>
<path d="M0 0 C-1.4638611 4.39158329 -3.97831338 4.87947433 -8 7 C-6.4365884 2.43002763 -5.27390657 0 0 0 Z " fill="#D7AB92" transform="translate(67,107)"/>
<path d="M0 0 C0.33 0 0.66 0 1 0 C1 2.97 1 5.94 1 9 C-0.98 8.34 -2.96 7.68 -5 7 C-4.360625 6.5875 -3.72125 6.175 -3.0625 5.75 C-0.79009069 3.82189513 -0.39803561 2.88575819 0 0 Z " fill="#D98A5D" transform="translate(123,68)"/>
<path d="M0 0 C0.66 0.33 1.32 0.66 2 1 C1.95875 1.9075 1.9175 2.815 1.875 3.75 C1.99531556 6.8782046 2.3914708 8.38614006 4 11 C2.35 10.01 0.7 9.02 -1 8 C-0.67 5.36 -0.34 2.72 0 0 Z " fill="#A9635E" transform="translate(84,65)"/>
<path d="M0 0 C0.66 0 1.32 0 2 0 C1.45773019 3.79588866 -0.20127563 5.47211993 -3 8 C-3.66 7.67 -4.32 7.34 -5 7 C-4.1875 5.0625 -4.1875 5.0625 -3 3 C-2.01 2.67 -1.02 2.34 0 2 C0 1.34 0 0.68 0 0 Z " fill="#9BA6B8" transform="translate(68,131)"/>
<path d="M0 0 C0.99 0.33 1.98 0.66 3 1 C3 1.66 3 2.32 3 3 C3.99 3 4.98 3 6 3 C6.33 2.34 6.66 1.68 7 1 C6.625 3.4375 6.625 3.4375 6 6 C5.01 6.495 5.01 6.495 4 7 C4 6.34 4 5.68 4 5 C3.34 5 2.68 5 2 5 C1.34 3.35 0.68 1.7 0 0 Z " fill="#B79496" transform="translate(120,49)"/>
<path d="M0 0 C0.66 0.99 1.32 1.98 2 3 C0.03533587 4.06775224 -1.96855359 5.06553465 -4 6 C-4.66 5.67 -5.32 5.34 -6 5 C-4.02 3.35 -2.04 1.7 0 0 Z " fill="#CCC0B7" transform="translate(24,127)"/>
<path d="M0 0 C0.66 0.66 1.32 1.32 2 2 C1.67 2.66 1.34 3.32 1 4 C-1.64 3.67 -4.28 3.34 -7 3 C-4.39685311 1.26456874 -3.01305957 0.38878188 0 0 Z " fill="#EEAC67" transform="translate(76,116)"/>
<path d="M0 0 C0.99 0.33 1.98 0.66 3 1 C2.67 1.99 2.34 2.98 2 4 C-0.31 3.67 -2.62 3.34 -5 3 C-2 1 -2 1 0 0 Z " fill="#AA7385" transform="translate(120,114)"/>
<path d="M0 0 C-3.63423209 2.32590854 -6.77088331 2.16265833 -11 2 C-7.75267347 -1.24732653 -4.25451414 -1.41817138 0 0 Z " fill="#EDAA66" transform="translate(104,103)"/>
<path d="M0 0 C-1.39796892 2.79593783 -3.13474989 2.95173777 -6 4 C-6.99 4.495 -6.99 4.495 -8 5 C-8 3.68 -8 2.36 -8 1 C-5.29120665 -0.35439668 -2.99066732 -0.06501451 0 0 Z " fill="#E89661" transform="translate(127,82)"/>
<path d="M0 0 C4.875 2.75 4.875 2.75 6 5 C4.02 5 2.04 5 0 5 C0 3.35 0 1.7 0 0 Z " fill="#C16C4D" transform="translate(98,75)"/>
<path d="M0 0 C-2 3 -2 3 -4.125 3.6875 C-4.74375 3.790625 -5.3625 3.89375 -6 4 C-6.33 2.68 -6.66 1.36 -7 0 C-3.98968256 -0.93423645 -3.13349732 -1.04449911 0 0 Z " fill="#4C222C" transform="translate(95,60)"/>
<path d="M0 0 C0.66 0.33 1.32 0.66 2 1 C2 1.99 2 2.98 2 4 C2.66 4 3.32 4 4 4 C4 4.99 4 5.98 4 7 C3.01 7 2.02 7 1 7 C-0.0625 4.625 -0.0625 4.625 -1 2 C-0.67 1.34 -0.34 0.68 0 0 Z " fill="#F6E6C2" transform="translate(76,38)"/>
<path d="M0 0 C2.23419656 1.11709828 3.41394821 2.06915435 5 4 C5.6875 6.6875 5.6875 6.6875 6 9 C1.2 5.67692308 1.2 5.67692308 0.1875 2.25 C0.125625 1.5075 0.06375 0.765 0 0 Z " fill="#898291" transform="translate(73,29)"/>
<path d="M0 0 C2.375 0.3125 2.375 0.3125 5 1 C5.66 1.99 6.32 2.98 7 4 C3 4 3 4 1.25 2.5625 C0 1 0 1 0 0 Z " fill="#A86B7B" transform="translate(107,105)"/>
<path d="M0 0 C-0.33 1.65 -0.66 3.3 -1 5 C-2.32 4.34 -3.64 3.68 -5 3 C-5 2.34 -5 1.68 -5 1 C-3 0 -3 0 0 0 Z " fill="#A8637A" transform="translate(128,98)"/>
<path d="M0 0 C0.66 0 1.32 0 2 0 C2 2.31 2 4.62 2 7 C1.34 7 0.68 7 0 7 C-0.38133299 5.0085944 -0.71325582 3.00720923 -1 1 C-0.67 0.67 -0.34 0.34 0 0 Z " fill="#98AABC" transform="translate(56,92)"/>
<path d="M0 0 C3.125 -0.1875 3.125 -0.1875 6 0 C6 0.66 6 1.32 6 2 C3.36 2.33 0.72 2.66 -2 3 C-1.34 2.01 -0.68 1.02 0 0 Z " fill="#796569" transform="translate(54,84)"/>
<path d="M0 0 C2.53570625 5.07141251 3.37907607 7.48369572 2 13 C1.67 13 1.34 13 1 13 C0.67 8.71 0.34 4.42 0 0 Z " fill="#DD8B5C" transform="translate(110,66)"/>
<path d="M0 0 C2.475 0.99 2.475 0.99 5 2 C5 2.66 5 3.32 5 4 C2.69 4 0.38 4 -2 4 C-1.34 2.68 -0.68 1.36 0 0 Z " fill="#D7846A" transform="translate(104,109)"/>
<path d="M0 0 C0.66 0.99 1.32 1.98 2 3 C1 4 1 4 -1.5625 4.0625 C-2.7690625 4.0315625 -2.7690625 4.0315625 -4 4 C-4 3.01 -4 2.02 -4 1 C-2.68 0.67 -1.36 0.34 0 0 Z " fill="#B4B9C3" transform="translate(130,92)"/>
<path d="M0 0 C1.98 0.495 1.98 0.495 4 1 C3.67 1.66 3.34 2.32 3 3 C4.32 3.33 5.64 3.66 7 4 C4.125 4.125 4.125 4.125 1 4 C0.34 3.34 -0.32 2.68 -1 2 C-0.67 1.34 -0.34 0.68 0 0 Z " fill="#936273" transform="translate(117,90)"/>
<path d="M0 0 C2.03144641 0.93446535 4.03533587 1.93224776 6 3 C6 3.33 6 3.66 6 4 C3.36 4 0.72 4 -2 4 C-2 3.01 -2 2.02 -2 1 C-1.34 0.67 -0.68 0.34 0 0 Z " fill="#95A7BD" transform="translate(106,22)"/>
</svg>
