<?xml version="1.0" encoding="UTF-8"?>
<svg version="1.1" xmlns="http://www.w3.org/2000/svg" width="150" height="150">
<path d="M0 0 C0.09765625 6.15234375 0.09765625 6.15234375 0 8 C-0.33 8.33 -0.66 8.66 -1 9 C-1.58488562 11.37124598 -1.58488562 11.37124598 -1 14 C1.29538861 15.86824394 1.29538861 15.86824394 3.15234375 16.89453125 C5.26065943 18.15595479 7.12927798 19.60997022 9.0625 21.125 C13.20990212 24.23358413 15.97012759 26.22979688 21.3125 25.625 C22.6428125 25.315625 22.6428125 25.315625 24 25 C24.33 23.02 24.66 21.04 25 19 C25.53625 19.144375 26.0725 19.28875 26.625 19.4375 C28.40217164 19.85840907 30.19851319 20.1997522 32 20.5 C37.25 21.375 37.25 21.375 39 22 C41.50905967 25.7635895 41.64830766 29.17989129 42.0625 33.5625 C42.19144653 34.77715942 42.19144653 34.77715942 42.32299805 36.01635742 C42.67972305 39.42350793 42.99005448 42.81284346 43.171875 46.234375 C43.43219117 51.41037883 43.43219117 51.41037883 46.25 55.6875 C47.1575 56.450625 48.065 57.21375 49 58 C52.40132226 61.62254647 54.33036387 64.63853916 54.5625 69.6875 C54.37099697 72.79942426 54.04610477 73.92828147 52.3125 76.625 C50 78 50 78 47.4375 77.875 C45 77 45 77 42 75 C37.31541008 75.32284797 33.6341133 76.9110362 29.4375 78.9375 C23.14977906 81.95175491 23.14977906 81.95175491 20.33203125 82.859375 C17.18375149 84.39923713 16.11232263 86.37178115 14.25 89.3125 C10.55212945 94.6190487 7.1548446 97.87033457 1 100 C-4.58746419 100.98025687 -7.67265877 99.40400926 -12.203125 96.38671875 C-15.20987399 94.0662929 -16.77735862 92.66792413 -18 89 C-24.0594275 89.26930789 -28.32265837 89.82024791 -33 94 C-35.82250727 97.56007604 -38.40321423 101.27373848 -41 105 C-44.87413326 110.30960159 -48.54862456 115.24460803 -54 119 C-55.32 119 -56.64 119 -58 119 C-57.87194133 112.85318369 -55.88769432 110.21487277 -51.59375 105.89453125 C-49.88686704 103.86551597 -49.30330109 102.6159719 -49 100 C-49.495 99.01 -49.495 99.01 -50 98 C-54.93581968 96.3958586 -58.0469151 97.56792669 -62.67578125 99.296875 C-66.21001295 100.36605434 -69.33119088 100.20011686 -73 100 C-72.67226629 96.96846314 -72.35865103 95.38426897 -70.25 93.125 C-67.40525065 91.70262532 -65.98383376 92.08827302 -63 93 C-63 93.66 -63 94.32 -63 95 C-61.57738516 94.62610764 -60.16198858 94.22470957 -58.75 93.8125 C-57.96109375 93.59207031 -57.1721875 93.37164062 -56.359375 93.14453125 C-53.30720418 91.66392521 -52.08400013 89.66629428 -50 87 C-47.83963888 85.11021318 -45.54691148 83.40711123 -43.25 81.6875 C-38.2682064 77.88516221 -33.71341399 73.98476865 -29.453125 69.36328125 C-28 68 -28 68 -26 68 C-25.7628125 67.37609375 -25.525625 66.7521875 -25.28125 66.109375 C-23.65059578 63.42476134 -22.47195435 63.11842822 -19.5 62.25 C-18.30890625 61.88648437 -18.30890625 61.88648437 -17.09375 61.515625 C-15 61 -15 61 -13 61 C-13.14076315 59.0412957 -13.2877676 57.08303907 -13.4375 55.125 C-13.51871094 54.03445312 -13.59992188 52.94390625 -13.68359375 51.8203125 C-13.83001703 49.05271029 -13.83001703 49.05271029 -15 47 C-16.11375 47.020625 -17.2275 47.04125 -18.375 47.0625 C-22 47 -22 47 -24 46 C-24.375 43.8125 -24.375 43.8125 -24 41 C-22.17130326 38.91167347 -20.30947441 37.61663209 -18 36 C-17.34 36 -16.68 36 -16 36 C-16.474375 35.2575 -16.94875 34.515 -17.4375 33.75 C-18.77869327 31.38949985 -19.512312 29.63351523 -20 27 C-18.865625 26.4225 -17.73125 25.845 -16.5625 25.25 C-13.83198908 23.72553723 -13.83198908 23.72553723 -12.0625 21.25 C-12.041875 20.5075 -12.02125 19.765 -12 19 C-11.96390625 18.37609375 -11.9278125 17.7521875 -11.890625 17.109375 C-11.74121125 13.07520371 -12.02924866 10.5719868 -14 7 C-14.375 4.5 -14.375 4.5 -14 2 C-9.31553319 -3.81520018 -6.39579853 -3.0168861 0 0 Z " fill="#CB7649" transform="translate(86,23)"/>
<path d="M0 0 C0.09765625 6.15234375 0.09765625 6.15234375 0 8 C-0.33 8.33 -0.66 8.66 -1 9 C-1.58488562 11.37124598 -1.58488562 11.37124598 -1 14 C1.29538861 15.86824394 1.29538861 15.86824394 3.15234375 16.89453125 C5.26065943 18.15595479 7.12927798 19.60997022 9.0625 21.125 C11.92675586 23.30205436 14.52922752 24.9153836 18 26 C17.67 26.66 17.34 27.32 17 28 C17.67139502 30.32779722 18.54152661 32.54614937 19.40625 34.80859375 C20 37 20 37 19 40 C18.2575 39.01 18.2575 39.01 17.5 38 C13.89659788 35.1172783 11.53014958 35.69799003 7 36 C7 35.34 7 34.68 7 34 C6.34 34 5.68 34 5 34 C4.67 34.66 4.34 35.32 4 36 C2.576875 35.9690625 2.576875 35.9690625 1.125 35.9375 C-1.90666283 35.77448174 -1.90666283 35.77448174 -4 37 C-4.66 36.34 -5.32 35.68 -6 35 C-6.020625 35.7425 -6.04125 36.485 -6.0625 37.25 C-7.19825094 40.5815361 -8.72723968 41.62469884 -11.8125 43.21875 C-15.76487946 44.63031409 -19.83290685 44.83231013 -24 45 C-23.70100785 41.41209425 -23.23013399 40.21833224 -20.5625 37.6875 C-18 36 -18 36 -16 36 C-16.474375 35.2575 -16.94875 34.515 -17.4375 33.75 C-18.77869327 31.38949985 -19.512312 29.63351523 -20 27 C-18.865625 26.4225 -17.73125 25.845 -16.5625 25.25 C-13.83198908 23.72553723 -13.83198908 23.72553723 -12.0625 21.25 C-12.041875 20.5075 -12.02125 19.765 -12 19 C-11.96390625 18.37609375 -11.9278125 17.7521875 -11.890625 17.109375 C-11.74121125 13.07520371 -12.02924866 10.5719868 -14 7 C-14.375 4.5 -14.375 4.5 -14 2 C-9.31553319 -3.81520018 -6.39579853 -3.0168861 0 0 Z " fill="#C9C0C3" transform="translate(86,23)"/>
<path d="M0 0 C0 1.65 0 3.3 0 5 C0.99 5 1.98 5 3 5 C3.495 6.98 3.495 6.98 4 9 C3.34 9 2.68 9 2 9 C0.52952664 12.91063224 0.52952664 12.91063224 0 17 C0.61488281 16.76023437 1.22976562 16.52046875 1.86328125 16.2734375 C2.67152344 15.97695312 3.47976562 15.68046875 4.3125 15.375 C5.11300781 15.07335937 5.91351563 14.77171875 6.73828125 14.4609375 C7.48464844 14.30882813 8.23101562 14.15671875 9 14 C9.99 14.66 10.98 15.32 12 16 C11.04738281 16.30292969 10.09476563 16.60585937 9.11328125 16.91796875 C7.84609351 17.34036466 6.57918066 17.76358589 5.3125 18.1875 C4.07113281 18.59355469 2.82976563 18.99960938 1.55078125 19.41796875 C-4.56932034 22.14474669 -7.95784522 27.05993395 -11.875 32.3125 C-21.99777489 45.66518326 -21.99777489 45.66518326 -27 49 C-28.32 49 -29.64 49 -31 49 C-30.87194133 42.85318369 -28.88769432 40.21487277 -24.59375 35.89453125 C-22.88686704 33.86551597 -22.30330109 32.6159719 -22 30 C-22.33 29.34 -22.66 28.68 -23 28 C-27.93581968 26.3958586 -31.0469151 27.56792669 -35.67578125 29.296875 C-39.21001295 30.36605434 -42.33119088 30.20011686 -46 30 C-45.67226629 26.96846314 -45.35865103 25.38426897 -43.25 23.125 C-40.40525065 21.70262532 -38.98383376 22.08827302 -36 23 C-36 23.66 -36 24.32 -36 25 C-34.57738516 24.62610764 -33.16198858 24.22470957 -31.75 23.8125 C-30.96109375 23.59207031 -30.1721875 23.37164062 -29.359375 23.14453125 C-26.30487133 21.66279354 -25.08979105 19.66838529 -23 17 C-20.73651174 15.00550701 -18.34331112 13.19372325 -15.9375 11.375 C-14.69521968 10.42630296 -13.45428711 9.47583795 -12.21484375 8.5234375 C-11.66948975 8.11013184 -11.12413574 7.69682617 -10.56225586 7.27099609 C-8.95375923 6.00877297 -8.95375923 6.00877297 -7.46313477 4.44775391 C-5.60407834 2.60824038 -2.73649634 0 0 0 Z " fill="#B88D88" transform="translate(59,93)"/>
<path d="M0 0 C9.66666667 -0.56862745 9.66666667 -0.56862745 14 3 C15.01241685 4.32392972 16.01439389 5.65599167 17 7 C17.99 7.33 18.98 7.66 20 8 C20.6953125 9.77734375 20.6953125 9.77734375 21.125 11.9375 C21.59056513 14.18773149 21.96866759 15.93733519 23 18 C22.690625 18.9075 22.38125 19.815 22.0625 20.75 C20.96552105 24.10546502 20.60222127 26.49954718 21 30 C21.99 30.66 22.98 31.32 24 32 C23.67 32.99 23.34 33.98 23 35 C11.10731879 37.13458381 -0.00017008 37.29089079 -12 36 C-13.918125 35.814375 -13.918125 35.814375 -15.875 35.625 C-19.32906376 34.93418725 -21.31857211 34.29836676 -24 32 C-25.375 28.4375 -25.375 28.4375 -26 25 C-25.67 24.34 -25.34 23.68 -25 23 C-24.34 23 -23.68 23 -23 23 C-22.67 22.01 -22.34 21.02 -22 20 C-21.87625 20.928125 -21.87625 20.928125 -21.75 21.875 C-21.21429989 24.11681553 -21.21429989 24.11681553 -19.3125 25 C-18.549375 25.33 -17.78625 25.66 -17 26 C-16.195625 26.680625 -15.39125 27.36125 -14.5625 28.0625 C-8.45990442 32.2609609 0.90360486 31.04274937 8 31 C7.07226265 24.54949677 6.00543341 18.3872383 3.796875 12.24609375 C2.36721123 8.21640422 1.20712394 4.10079693 0 0 Z " fill="#EEA262" transform="translate(102,50)"/>
<path d="M0 0 C0.99 0 1.98 0 3 0 C3 0.99 3 1.98 3 3 C3.33 2.34 3.66 1.68 4 1 C7.66666667 1 11.33333333 1 15 1 C16.134375 0.896875 17.26875 0.79375 18.4375 0.6875 C22 1 22 1 24.6875 2.9375 C29.85477567 9.78064887 31.54178404 15.46690137 31 24 C14.15059015 25.79837708 14.15059015 25.79837708 7.0625 20.8125 C3.09069997 17.5542776 3.09069997 17.5542776 2.4375 13.5625 C2.623125 12.716875 2.80875 11.87125 3 11 C2.01 10.67 1.02 10.34 0 10 C0 10.66 0 11.32 0 12 C-1.175625 12.185625 -1.175625 12.185625 -2.375 12.375 C-5.14057822 12.79117993 -5.14057822 12.79117993 -7 15 C-7.33 14.34 -7.66 13.68 -8 13 C-9.670625 13.061875 -9.670625 13.061875 -11.375 13.125 C-15 13 -15 13 -17 11 C-16.19175781 10.80664062 -15.38351563 10.61328125 -14.55078125 10.4140625 C-13.48214844 10.15367188 -12.41351563 9.89328125 -11.3125 9.625 C-10.25675781 9.36976562 -9.20101562 9.11453125 -8.11328125 8.8515625 C-5.29593234 8.08094511 -2.68331675 7.14501457 0 6 C0 4.02 0 2.04 0 0 Z " fill="#BA7A64" transform="translate(79,57)"/>
<path d="M0 0 C0.66 0.66 1.32 1.32 2 2 C0 5 0 5 -3.625 6 C-7.89180044 7.42995474 -9.46699395 9.6816182 -11.9375 13.375 C-15.54501126 18.71553138 -18.86676332 21.87781122 -25 24 C-30.75599296 25.00982333 -33.87250422 23.25217928 -38.49609375 20.09375 C-38.99238281 19.7328125 -39.48867187 19.371875 -40 19 C-37 18 -37 18 -34 18 C-34 17.34 -34 16.68 -34 16 C-34.66 16 -35.32 16 -36 16 C-36 13.75 -36 13.75 -35 11 C-31.11812288 8.24277887 -26.7211948 6.59014935 -22 6 C-22 5.34 -22 4.68 -22 4 C-21.01 3.67 -20.02 3.34 -19 3 C-19.33 4.32 -19.66 5.64 -20 7 C-19.67 6.525625 -19.34 6.05125 -19 5.5625 C-16.74064862 3.79738174 -15.72971083 3.7111468 -12.9375 3.4375 C-8.99837319 3.41483656 -8.99837319 3.41483656 -7 1 C-3.5 0.25 -3.5 0.25 0 0 Z " fill="#DC8C59" transform="translate(112,99)"/>
<path d="M0 0 C0.2475 0.556875 0.495 1.11375 0.75 1.6875 C1.98416275 4.15083983 1.98416275 4.15083983 4.125 6.5625 C6 9 6 9 6 12 C3.69 12 1.38 12 -1 12 C-2.15837626 16.05431692 -1.83691257 18.21812119 0 22 C-2.49361571 20.79618552 -4.68143083 19.54571278 -7 18 C-6.67 19.98 -6.34 21.96 -6 24 C-2.7 24.33 0.6 24.66 4 25 C3.67 25.99 3.34 26.98 3 28 C1.21484375 28.625 1.21484375 28.625 -1.0625 29 C-4.36566952 29.61736555 -7.32188853 30.42641917 -10.4375 31.6875 C-11.613125 32.120625 -12.78875 32.55375 -14 33 C-14.66 32.67 -15.32 32.34 -16 32 C-15.58427734 31.20335937 -15.58427734 31.20335937 -15.16015625 30.390625 C-14.79792969 29.68421875 -14.43570313 28.9778125 -14.0625 28.25 C-13.70285156 27.55390625 -13.34320313 26.8578125 -12.97265625 26.140625 C-12.04441818 24.09775567 -11.46833422 22.18884624 -11 20 C-12.65 20.66 -14.3 21.32 -16 22 C-15.67 20.02 -15.34 18.04 -15 16 C-16.98 16.99 -16.98 16.99 -19 18 C-17.71937515 16.2925002 -16.38232443 14.62626404 -15 13 C-14.34 13 -13.68 13 -13 13 C-12.7628125 12.37609375 -12.525625 11.7521875 -12.28125 11.109375 C-10.65059578 8.42476134 -9.47195435 8.11842822 -6.5 7.25 C-5.7059375 7.00765625 -4.911875 6.7653125 -4.09375 6.515625 C-2 6 -2 6 0 6 C0 4.02 0 2.04 0 0 Z " fill="#BE7660" transform="translate(73,78)"/>
<path d="M0 0 C1.32 0.66 2.64 1.32 4 2 C3.67 2.33 3.34 2.66 3 3 C3.34224609 3.92232422 3.34224609 3.92232422 3.69140625 4.86328125 C3.97886719 5.67152344 4.26632813 6.47976562 4.5625 7.3125 C4.85253906 8.11300781 5.14257812 8.91351563 5.44140625 9.73828125 C6 12 6 12 5 15 C4.505 14.34 4.01 13.68 3.5 13 C-0.10340212 10.1172783 -2.46985042 10.69799003 -7 11 C-7 10.34 -7 9.68 -7 9 C-7.66 9 -8.32 9 -9 9 C-9.33 9.66 -9.66 10.32 -10 11 C-11.423125 10.9690625 -11.423125 10.9690625 -12.875 10.9375 C-15.90666283 10.77448174 -15.90666283 10.77448174 -18 12 C-18.66 11.34 -19.32 10.68 -20 10 C-20.020625 10.7425 -20.04125 11.485 -20.0625 12.25 C-21.19825094 15.5815361 -22.72723968 16.62469884 -25.8125 18.21875 C-29.76487946 19.63031409 -33.83290685 19.83231013 -38 20 C-37.70100785 16.41209425 -37.23013399 15.21833224 -34.5625 12.6875 C-32 11 -32 11 -30 11 C-30.66 9.35 -31.32 7.7 -32 6 C-27.05 6 -22.1 6 -17 6 C-17.33 4.35 -17.66 2.7 -18 1 C-13 3 -13 3 -8 5 C-7.67 4.34 -7.34 3.68 -7 3 C-6.608125 3.495 -6.21625 3.99 -5.8125 4.5 C-3.44908285 6.45593143 -1.98564997 6.24207973 1 6 C0.505 3.03 0.505 3.03 0 0 Z " fill="#A4A5B5" transform="translate(100,48)"/>
<path d="M0 0 C3.14565046 -0.08845016 6.29097375 -0.14086835 9.4375 -0.1875 C10.31599609 -0.21263672 11.19449219 -0.23777344 12.09960938 -0.26367188 C19.66685364 -0.34744211 27.19925534 0.70366792 33 6 C33.33 5.34 33.66 4.68 34 4 C33.67 5.32 33.34 6.64 33 8 C32.01 8 31.02 8 30 8 C29.34 8.66 28.68 9.32 28 10 C27.01 9.34 26.02 8.68 25 8 C20.26172576 8.22038485 16.78402321 9.98184742 12.734375 12.2578125 C12.16203125 12.50273438 11.5896875 12.74765625 11 13 C10.34 12.67 9.68 12.34 9 12 C9.33 11.34 9.66 10.68 10 10 C8.75863281 10.03480469 7.51726562 10.06960937 6.23828125 10.10546875 C4.59636774 10.13361584 2.95443954 10.16091501 1.3125 10.1875 C0.49587891 10.21263672 -0.32074219 10.23777344 -1.16210938 10.26367188 C-5.97846486 10.32217012 -9.03975154 10.07302376 -13 7 C-11.21114433 4.57978351 -9.90638651 3.97074578 -7 3.0625 C-1.6906794 2.44593374 3.20745049 4.98071603 8 7 C5.36 5.68 2.72 4.36 0 3 C0 2.01 0 1.02 0 0 Z " fill="#BB6E5C" transform="translate(103,90)"/>
<path d="M0 0 C0.495 1.485 0.495 1.485 1 3 C-0.21484375 5.04296875 -0.21484375 5.04296875 -1.9375 7.1875 C-2.50339844 7.90292969 -3.06929687 8.61835937 -3.65234375 9.35546875 C-4.09707031 9.89816406 -4.54179688 10.44085938 -5 11 C-4.030625 10.236875 -3.06125 9.47375 -2.0625 8.6875 C-1.51722656 8.25824219 -0.97195312 7.82898438 -0.41015625 7.38671875 C1.27155077 5.94316909 1.27155077 5.94316909 2 3 C2.99 2.67 3.98 2.34 5 2 C3.55797524 6.15151338 1.4989562 9.29978445 -1.125 12.8125 C-2.21167969 14.27623047 -2.21167969 14.27623047 -3.3203125 15.76953125 C-3.87460937 16.50558594 -4.42890625 17.24164063 -5 18 C-5.99 17.67 -6.98 17.34 -8 17 C-8.33 16.34 -8.66 15.68 -9 15 C-13.93581968 13.3958586 -17.0469151 14.56792669 -21.67578125 16.296875 C-25.21001295 17.36605434 -28.33119088 17.20011686 -32 17 C-31.67226629 13.96846314 -31.35865103 12.38426897 -29.25 10.125 C-26.40525065 8.70262532 -24.98383376 9.08827302 -22 10 C-22 10.66 -22 11.32 -22 12 C-16.09588409 10.44827723 -12.51467619 9.27201429 -9 4 C-6.01353231 2.00902154 -3.40312738 1.05875074 0 0 Z " fill="#EEE1BD" transform="translate(45,106)"/>
<path d="M0 0 C1.32 0.33 2.64 0.66 4 1 C3.67 2.98 3.34 4.96 3 7 C2.34 6.01 1.68 5.02 1 4 C-1.26881841 7.08559304 -2.05451946 8.42209376 -1.6875 12.3125 C-1.3471875 13.6428125 -1.3471875 13.6428125 -1 15 C3.9314566 16.5242684 8.74209224 17.52334728 13.875 18.125 C14.57536377 18.20919189 15.27572754 18.29338379 15.99731445 18.38012695 C22.7499058 19.15196339 29.34184609 19.71823327 36 18 C36 19.65 36 21.3 36 23 C35.02417969 22.90460938 34.04835937 22.80921875 33.04296875 22.7109375 C31.13451172 22.54464844 31.13451172 22.54464844 29.1875 22.375 C27.92292969 22.25898437 26.65835938 22.14296875 25.35546875 22.0234375 C21.86442059 21.68558196 21.86442059 21.68558196 19 24 C11.48408733 25.05962048 5.56849473 23.63294523 -1 20 C-1 19.34 -1 18.68 -1 18 C-1.99 17.67 -2.98 17.34 -4 17 C-6.19459576 12.26429336 -6.42620009 8.11440113 -6 3 C-5.01 2.34 -4.02 1.68 -3 1 C-2.01 1.33 -1.02 1.66 0 2 C0 1.34 0 0.68 0 0 Z " fill="#DB8958" transform="translate(79,67)"/>
<path d="M0 0 C0.66 0.33 1.32 0.66 2 1 C0.68363677 7.11909451 -1.8844673 11.14615638 -5.6875 16.0625 C-6.19216797 16.74376953 -6.69683594 17.42503906 -7.21679688 18.12695312 C-10.57055476 22.54068505 -14.20991665 27.08797604 -19 30 C-20.32 30 -21.64 30 -23 30 C-22.87365987 23.93567376 -20.94364914 21.23474836 -16.7890625 16.89453125 C-15.02245992 15.02378398 -13.51784302 13.07453043 -12 11 C-10.38329819 9.17242404 -9.21834006 8.1023469 -7 7.0625 C-4.58624572 5.78019304 -3.59697681 4.17769565 -2 2 C-1.34 2 -0.68 2 0 2 C0 1.34 0 0.68 0 0 Z " fill="#A4A4B6" transform="translate(51,112)"/>
<path d="M0 0 C0.09765625 6.15234375 0.09765625 6.15234375 0 8 C-0.33 8.33 -0.66 8.66 -1 9 C-1.66830771 12.3299671 -1.66830771 12.3299671 -1 16 C1.09042258 18.10610075 3.41217149 19.56745207 6 21 C4 22 4 22 1.875 21.4375 C-3.89730422 18.55134789 -9.6032016 14.57074937 -13 9 C-14 5.4375 -14 5.4375 -14 2 C-9.58300782 -3.99448939 -6.21213244 -2.93025115 0 0 Z " fill="#7C8091" transform="translate(86,23)"/>
<path d="M0 0 C0.53625 0.144375 1.0725 0.28875 1.625 0.4375 C3.40217164 0.85840907 5.19851319 1.1997522 7 1.5 C12.25 2.375 12.25 2.375 14 3 C16.20914 6.31371 16.22481553 7.3446021 16.125 11.1875 C16.10695313 12.08855469 16.08890625 12.98960938 16.0703125 13.91796875 C16.04710938 14.60503906 16.02390625 15.29210938 16 16 C15.34 16.33 14.68 16.66 14 17 C13.34444881 19.52733235 13.34444881 19.52733235 13 22 C13.66 22 14.32 22 15 22 C15.33 23.32 15.66 24.64 16 26 C12.125 24.25 12.125 24.25 11 22 C10.960008 20.00039988 10.95653201 17.99952758 11 16 C10.4225 15.938125 9.845 15.87625 9.25 15.8125 C7 15 7 15 5.125 12.5625 C2.62122878 9.54324647 0.74545303 8.93636326 -3 8 C-2.34 7.34 -1.68 6.68 -1 6 C-0.60235737 4.01178687 -0.26224651 2.01055661 0 0 Z " fill="#BFBBC4" transform="translate(111,42)"/>
<path d="M0 0 C10.35748497 8.20452461 10.35748497 8.20452461 11.37890625 14.23828125 C11.57594084 18.1217695 11.47708811 20.3014067 9.25 23.5625 C7 25 7 25 3 25 C3.3125 23.0625 3.3125 23.0625 4 21 C4.99 20.67 5.98 20.34 7 20 C4.14589666 18.49439503 1.31875358 17.36783204 -1.75 16.375 C-2.54921875 16.11460938 -3.3484375 15.85421875 -4.171875 15.5859375 C-4.77515625 15.39257812 -5.3784375 15.19921875 -6 15 C-5.67 14.01 -5.34 13.02 -5 12 C-4.33484375 11.71382812 -3.6696875 11.42765625 -2.984375 11.1328125 C-2.32953125 10.75898437 -1.6746875 10.38515625 -1 10 C-0.29823412 7.58320293 -0.29823412 7.58320293 -0.25 4.875 C-0.19328125 3.96492188 -0.1365625 3.05484375 -0.078125 2.1171875 C-0.05234375 1.41851562 -0.0265625 0.71984375 0 0 Z " fill="#76798A" transform="translate(129,76)"/>
<path d="M0 0 C-0.26229425 3.75955091 -0.72562375 5.66106463 -3.125 8.625 C-8.55952597 13.11439101 -12.6486992 15.60010619 -20 15 C-21.125 10.25 -21.125 10.25 -20 8 C-18.34634594 6.97862543 -16.67623498 5.98387706 -15 5 C-14.20529297 4.35417969 -14.20529297 4.35417969 -13.39453125 3.6953125 C-8.77258915 -0.04877789 -5.92002078 -0.51930007 0 0 Z " fill="#FAD98D" transform="translate(100,108)"/>
<path d="M0 0 C1.31291016 0.23976563 1.31291016 0.23976563 2.65234375 0.484375 C5.24140625 1.30683246 6.34549509 2.18732743 8.0625 4.25 C7.7325 4.58 7.4025 4.91 7.0625 5.25 C8.0525 5.91 9.0425 6.57 10.0625 7.25 C9.7325 8.57 9.4025 9.89 9.0625 11.25 C7.79792969 11.23259766 7.79792969 11.23259766 6.5078125 11.21484375 C5.41210938 11.20582031 4.31640625 11.19679688 3.1875 11.1875 C2.09695312 11.17589844 1.00640625 11.16429688 -0.1171875 11.15234375 C-2.88927546 11.05255697 -2.88927546 11.05255697 -4.9375 12.25 C-7.1015625 11.91015625 -7.1015625 11.91015625 -9.5625 11.3125 C-10.37976563 11.11785156 -11.19703125 10.92320313 -12.0390625 10.72265625 C-12.66554688 10.56667969 -13.29203125 10.41070312 -13.9375 10.25 C-13.6075 8.93 -13.2775 7.61 -12.9375 6.25 C-10.9375 7.25 -8.9375 8.25 -6.9375 9.25 C-7.30875 8.5075 -7.68 7.765 -8.0625 7 C-8.9375 4.25 -8.9375 4.25 -8.1875 2 C-5.77706967 -1.37460247 -3.76264173 -0.72932263 0 0 Z " fill="#DF8F5C" transform="translate(78.9375,89.75)"/>
<path d="M0 0 C1.32 0.33 2.64 0.66 4 1 C4 1.66 4 2.32 4 3 C4.66 3 5.32 3 6 3 C8.64964989 7.52648522 9.50442453 10.75398486 9 16 C8.34 16.66 7.68 17.32 7 18 C4.125 17.6875 4.125 17.6875 1 17 C0.236875 16.855625 -0.52625 16.71125 -1.3125 16.5625 C-1.869375 16.376875 -2.42625 16.19125 -3 16 C-4.6033559 12.7932882 -4.49604443 9.47875318 -4 6 C-2.88843696 3.68950216 -1.61720298 2.02150372 0 0 Z " fill="#6B0813" transform="translate(98,62)"/>
<path d="M0 0 C3.10555255 0.27797578 6.20902942 0.57473642 9.3125 0.875 C10.63411133 0.99294922 10.63411133 0.99294922 11.98242188 1.11328125 C12.82998047 1.19707031 13.67753906 1.28085938 14.55078125 1.3671875 C15.33106689 1.44050293 16.11135254 1.51381836 16.9152832 1.58935547 C19 2 19 2 22 4 C21.34 4 20.68 4 20 4 C19.814375 4.61875 19.62875 5.2375 19.4375 5.875 C17.28562767 9.05602866 14.62466237 9.19451947 11 10 C10.67 11.65 10.34 13.3 10 15 C10.66 15 11.32 15 12 15 C12 15.66 12 16.32 12 17 C10.3125 17.6875 10.3125 17.6875 8 18 C5.3125 16.75 5.3125 16.75 3 15 C2.67 14.01 2.34 13.02 2 12 C-0.00016466 10.79117904 -0.00016466 10.79117904 -2 10 C-1.236875 9.71125 -0.47375 9.4225 0.3125 9.125 C3.15029308 8.03730987 3.15029308 8.03730987 6 6 C7.32 5.34 8.64 4.68 10 4 C7.03 3.67 4.06 3.34 1 3 C0.67 2.01 0.34 1.02 0 0 Z " fill="#AE6D63" transform="translate(66,100)"/>
<path d="M0 0 C0.66 0.66 1.32 1.32 2 2 C1.74972447 6.58838465 1.35753121 8.92226305 -2 12 C-2.72197162 14.60611077 -2.72197162 14.60611077 -3 17 C-6.28452224 16.43370306 -8.01011587 15.71347836 -10 13 C-11.39951491 9.40124737 -12.20114501 7.00572507 -11.4375 3.1875 C-8.55458426 -1.1995457 -4.766612 -1.54592822 0 0 Z " fill="#737C8E" transform="translate(112,22)"/>
<path d="M0 0 C9.66666667 -0.56862745 9.66666667 -0.56862745 14 3 C15.01241685 4.32392972 16.01439389 5.65599167 17 7 C17.99 7.33 18.98 7.66 20 8 C19.25 13.75 19.25 13.75 17 16 C15.65737935 15.70630173 14.32303717 15.3721042 13 15 C12.01 15.495 12.01 15.495 11 16 C10.67 14.68 10.34 13.36 10 12 C9.34 12 8.68 12 8 12 C7.4225 10.9275 6.845 9.855 6.25 8.75 C4.51516875 5.68926202 2.5897353 3.40475421 0 1 C0 0.67 0 0.34 0 0 Z " fill="#FACC83" transform="translate(102,50)"/>
<path d="M0 0 C0.66 0 1.32 0 2 0 C3.83499957 6.24773664 4.3072203 11.88049546 4.25 18.375 C4.25773438 19.27605469 4.26546875 20.17710938 4.2734375 21.10546875 C4.27085937 21.96527344 4.26828125 22.82507813 4.265625 23.7109375 C4.26336914 24.48743652 4.26111328 25.26393555 4.25878906 26.06396484 C4 28 4 28 2 30 C-0.3828125 30.4140625 -0.3828125 30.4140625 -3.125 30.625 C-4.03507812 30.69976562 -4.94515625 30.77453125 -5.8828125 30.8515625 C-6.93082031 30.92503906 -6.93082031 30.92503906 -8 31 C-8 29.68 -8 28.36 -8 27 C-5.36 27 -2.72 27 0 27 C0 26.01 0 25.02 0 24 C-0.99 23.34 -1.98 22.68 -3 22 C-2.85904936 20.3745692 -2.71207913 18.74965949 -2.5625 17.125 C-2.48128906 16.22007813 -2.40007812 15.31515625 -2.31640625 14.3828125 C-2 12 -2 12 -1 10 C-0.01 10 0.98 10 2 10 C1.67 8.68 1.34 7.36 1 6 C0.34 6 -0.32 6 -1 6 C-1.042721 4.33388095 -1.04063832 2.66617115 -1 1 C-0.67 0.67 -0.34 0.34 0 0 Z " fill="#E09260" transform="translate(125,58)"/>
<path d="M0 0 C-1 2 -2 4 -3 6 C-3.2275015 7.87056791 -3.40962811 9.74685958 -3.5625 11.625 C-3.64628906 12.62789062 -3.73007813 13.63078125 -3.81640625 14.6640625 C-3.87699219 15.43492188 -3.93757813 16.20578125 -4 17 C-9.13599156 16.2387883 -11.22662093 14.42236706 -15 11 C-13.76334077 6.05336307 -12.30542785 3.76777505 -8 1 C-5.08717359 -0.0592096 -3.21586011 0 0 0 Z " fill="#E0E1DA" transform="translate(98,62)"/>
<path d="M0 0 C0.33 0.66 0.66 1.32 1 2 C1.639375 2.2475 2.27875 2.495 2.9375 2.75 C5.9127423 4.55317715 6.14907937 6.7381376 7 10 C7.66 10 8.32 10 9 10 C9.33 10.66 9.66 11.32 10 12 C10.66 11.67 11.32 11.34 12 11 C12.66 11.66 13.32 12.32 14 13 C14.66 12.34 15.32 11.68 16 11 C16.33 11.33 16.66 11.66 17 12 C17.66 11.34 18.32 10.68 19 10 C20.09658936 13.28976808 19.79953138 14.71303767 19 18 C13.41618401 19.36190634 9.13193395 18.56596698 4 16 C3.18359375 13.41796875 3.18359375 13.41796875 2.4375 10.1875 C2.18871094 9.12917969 1.93992187 8.07085937 1.68359375 6.98046875 C1.45800781 5.99691406 1.23242188 5.01335938 1 4 C0.67026453 2.66577236 0.33864273 1.33199474 0 0 Z " fill="#EDA96B" transform="translate(103,52)"/>
<path d="M0 0 C0.33 1.98 0.66 3.96 1 6 C-1.573329 7.2866645 -3.50223038 7.16824551 -6.375 7.1875 C-7.80972656 7.20876953 -7.80972656 7.20876953 -9.2734375 7.23046875 C-12.03010017 6.99745572 -13.64947395 6.40920164 -16 5 C-15.875 3.1875 -15.875 3.1875 -15 1 C-9.77534269 -2.91849298 -5.81023085 -1.79471575 0 0 Z " fill="#B1C9DE" transform="translate(82,48)"/>
<path d="M0 0 C1.670625 -0.12375 1.670625 -0.12375 3.375 -0.25 C7 0 7 0 9.6875 1.9375 C14.85477567 8.78064887 16.54178404 14.46690137 16 23 C15.34 22.67 14.68 22.34 14 22 C13.18359375 19.3828125 13.18359375 19.3828125 12.4375 16.125 C11.71627053 13.0233396 11.0072857 10.0218571 10 7 C9.34 7 8.68 7 8 7 C8 6.34 8 5.68 8 5 C2.23252987 1.92401593 -4.8330997 2.219717 -11 4 C-11 3.01 -11 2.02 -11 1 C-9.66666667 0.66666667 -8.33333333 0.33333333 -7 0 C-6.319375 -0.20625 -5.63875 -0.4125 -4.9375 -0.625 C-3 -1 -3 -1 0 0 Z " fill="#B27464" transform="translate(94,58)"/>
<path d="M0 0 C0.66 0.66 1.32 1.32 2 2 C-0.13331412 5.19997118 -0.45857428 5.39968011 -3.875 6.4375 C-7.43694073 7.65503611 -9.55685377 9.04786497 -12 12 C-12 11.01 -12 10.02 -12 9 C-12.721875 9.144375 -13.44375 9.28875 -14.1875 9.4375 C-15.97452066 9.79490413 -17.76608345 10.13079473 -19.5625 10.4375 C-21.96945855 10.99295197 -23.84867339 11.80481855 -26 13 C-24.33333333 11.33333333 -22.66666667 9.66666667 -21 8 C-20.401875 7.2575 -19.80375 6.515 -19.1875 5.75 C-15.96242451 3.16993961 -13.08292939 3.3951222 -9 3 C-8.34 2.34 -7.68 1.68 -7 1 C-3.5 0.25 -3.5 0.25 0 0 Z " fill="#E4A470" transform="translate(112,99)"/>
<path d="M0 0 C0.99 0.99 1.98 1.98 3 3 C2.01 6.63 1.02 10.26 0 14 C-2.31 14 -4.62 14 -7 14 C-7 13.34 -7 12.68 -7 12 C-5.68 12 -4.36 12 -3 12 C-3 11.01 -3 10.02 -3 9 C-3.99 9.66 -4.98 10.32 -6 11 C-6.99 11 -7.98 11 -9 11 C-9.33 10.34 -9.66 9.68 -10 9 C-9.49396008 11.16874252 -9.00016187 12.99967627 -8 15 C-9.32 15.33 -10.64 15.66 -12 16 C-12.33 11.71 -12.66 7.42 -13 3 C-8.05 3.99 -8.05 3.99 -3 5 C-2.01 3.35 -1.02 1.7 0 0 Z " fill="#E39860" transform="translate(122,65)"/>
<path d="M0 0 C1.32 0.66 2.64 1.32 4 2 C3.67 2.33 3.34 2.66 3 3 C3.34224609 3.92232422 3.34224609 3.92232422 3.69140625 4.86328125 C3.97886719 5.67152344 4.26632813 6.47976562 4.5625 7.3125 C4.85253906 8.11300781 5.14257812 8.91351563 5.44140625 9.73828125 C6 12 6 12 5 15 C4.505 14.34 4.01 13.68 3.5 13 C-0.10340212 10.1172783 -2.46985042 10.69799003 -7 11 C-7 10.34 -7 9.68 -7 9 C-7.66 9 -8.32 9 -9 9 C-9.33 9.66 -9.66 10.32 -10 11 C-11.423125 10.9690625 -11.423125 10.9690625 -12.875 10.9375 C-15.90666283 10.77448174 -15.90666283 10.77448174 -18 12 C-17.67 10.68 -17.34 9.36 -17 8 C-15.68 8 -14.36 8 -13 8 C-13.66 7.01 -14.32 6.02 -15 5 C-14.05125 5.04125 -13.1025 5.0825 -12.125 5.125 C-8.89755144 5.34973818 -8.89755144 5.34973818 -7 3 C-6.608125 3.495 -6.21625 3.99 -5.8125 4.5 C-3.44908285 6.45593143 -1.98564997 6.24207973 1 6 C0.67 4.02 0.34 2.04 0 0 Z " fill="#C19E9F" transform="translate(100,48)"/>
<path d="M0 0 C3.41021743 0.78697325 6.68885166 1.87119943 10 3 C10 3.66 10 4.32 10 5 C9.01 5.33 8.02 5.66 7 6 C7.66 7.32 8.32 8.64 9 10 C9.66 10 10.32 10 11 10 C11.33 12.97 11.66 15.94 12 19 C11.67 18.01 11.34 17.02 11 16 C10.401875 15.87625 9.80375 15.7525 9.1875 15.625 C7 15 7 15 5.125 12.5625 C2.62122878 9.54324647 0.74545303 8.93636326 -3 8 C-2.34 7.34 -1.68 6.68 -1 6 C-0.60235737 4.01178687 -0.26224651 2.01055661 0 0 Z " fill="#B57861" transform="translate(111,42)"/>
<path d="M0 0 C1.44037669 0.93307421 2.87718985 1.87165077 4.3125 2.8125 C5.11300781 3.33457031 5.91351563 3.85664062 6.73828125 4.39453125 C8.74000268 5.81544231 10.41626519 7.12924529 12 9 C12 9.66 12 10.32 12 11 C11.34 11 10.68 11 10 11 C9.67 11.99 9.34 12.98 9 14 C1.25 13.25 1.25 13.25 -1 11 C-0.9765625 8.3984375 -0.9765625 8.3984375 -0.625 5.375 C-0.51414062 4.37210938 -0.40328125 3.36921875 -0.2890625 2.3359375 C-0.19367188 1.56507812 -0.09828125 0.79421875 0 0 Z " fill="#F4E9CF" transform="translate(75,35)"/>
<path d="M0 0 C1.051875 0.556875 2.10375 1.11375 3.1875 1.6875 C3.1875 3.6675 3.1875 5.6475 3.1875 7.6875 C-0.1125 8.3475 -3.4125 9.0075 -6.8125 9.6875 C-7.4725 8.3675 -8.1325 7.0475 -8.8125 5.6875 C-9.4725 5.6875 -10.1325 5.6875 -10.8125 5.6875 C-9.80234055 3.02435235 -8.7766648 1.65576025 -6.625 -0.25 C-3.43833797 -1.4538501 -2.98087532 -1.27924204 0 0 Z " fill="#AAACBE" transform="translate(82.8125,21.3125)"/>
<path d="M0 0 C1.58624235 0.42683239 3.1689098 0.86696158 4.75 1.3125 C5.63171875 1.55613281 6.5134375 1.79976563 7.421875 2.05078125 C10.05772505 3.02125331 11.85407326 4.21005644 14 6 C14.33 5.34 14.66 4.68 15 4 C14.67 5.32 14.34 6.64 14 8 C13.01 8 12.02 8 11 8 C10.34 8.66 9.68 9.32 9 10 C8.01 9.34 7.02 8.68 6 8 C1.77854968 8.37524003 -2.0212172 9.57900614 -6 11 C-6 10.01 -6 9.02 -6 8 C-5.360625 7.71125 -4.72125 7.4225 -4.0625 7.125 C-1.84793921 6.17176549 -1.84793921 6.17176549 -1 4 C-1.66 3.67 -2.32 3.34 -3 3 C-2.01 2.01 -1.02 1.02 0 0 Z " fill="#756F77" transform="translate(122,90)"/>
<path d="M0 0 C0.99 0 1.98 0 3 0 C3.66 0.66 4.32 1.32 5 2 C7.20250992 2.46006346 7.20250992 2.46006346 9.625 2.625 C10.44226563 2.69976562 11.25953125 2.77453125 12.1015625 2.8515625 C12.72804688 2.90054688 13.35453125 2.94953125 14 3 C13.67 3.99 13.34 4.98 13 6 C11.21484375 6.625 11.21484375 6.625 8.9375 7 C5.63433048 7.61736555 2.67811147 8.42641917 -0.4375 9.6875 C-1.613125 10.120625 -2.78875 10.55375 -4 11 C-4.66 10.67 -5.32 10.34 -6 10 C-4.68 7.36 -3.36 4.72 -2 2 C-1.34 2 -0.68 2 0 2 C0 1.34 0 0.68 0 0 Z " fill="#A08388" transform="translate(63,100)"/>
<path d="M0 0 C0.66 0 1.32 0 2 0 C2.33 1.32 2.66 2.64 3 4 C3.61488281 3.76023437 4.22976562 3.52046875 4.86328125 3.2734375 C5.67152344 2.97695312 6.47976562 2.68046875 7.3125 2.375 C8.11300781 2.07335937 8.91351563 1.77171875 9.73828125 1.4609375 C10.48464844 1.30882813 11.23101562 1.15671875 12 1 C12.99 1.66 13.98 2.32 15 3 C14.04738281 3.32613281 13.09476563 3.65226562 12.11328125 3.98828125 C10.84625231 4.42939503 9.57933087 4.87081771 8.3125 5.3125 C7.07113281 5.74175781 5.82976563 6.17101562 4.55078125 6.61328125 C1.43371357 7.83061791 -1.20590245 9.17822703 -4 11 C-4 9.68 -4 8.36 -4 7 C-4.7425 7.78375 -5.485 8.5675 -6.25 9.375 C-8.54433318 11.56504531 -10.12158858 12.82731386 -13 14 C-12.401875 12.96875 -11.80375 11.9375 -11.1875 10.875 C-9.33606301 7.63992683 -7.63454714 4.35082164 -6 1 C-5.67 1.66 -5.34 2.32 -5 3 C-3.35 2.67 -1.7 2.34 0 2 C0 1.34 0 0.68 0 0 Z " fill="#B99A9E" transform="translate(56,106)"/>
<path d="M0 0 C-0.6875 2.875 -0.6875 2.875 -2 6 C-3.64363134 6.72159424 -5.31050386 7.39351421 -7 8 C-7.14179687 8.62132813 -7.28359375 9.24265625 -7.4296875 9.8828125 C-8.16671952 12.61891765 -9.22692561 13.2212604 -11.5625 14.75 C-12.20316406 15.17796875 -12.84382813 15.6059375 -13.50390625 16.046875 C-13.99761719 16.36140625 -14.49132813 16.6759375 -15 17 C-13.47291037 13.56404834 -11.40072955 10.88087546 -9 8 C-10.44754255 6.55245745 -12.03962913 6.44266439 -14 6 C-9.49605818 1.40022963 -6.77374007 -0.82943756 0 0 Z " fill="#D4B296" transform="translate(54,101)"/>
<path d="M0 0 C7.54711139 1.02024363 14.9315993 1.99950663 22.4375 0.0625 C22.4375 1.7125 22.4375 3.3625 22.4375 5.0625 C21.14779297 4.95421875 21.14779297 4.95421875 19.83203125 4.84375 C12.55526508 4.27240086 5.38075321 3.98100549 -1.91796875 4.125 C-4.5625 4.0625 -4.5625 4.0625 -7.5625 3.0625 C-7.5625 2.4025 -7.5625 1.7425 -7.5625 1.0625 C-8.2225 0.7325 -8.8825 0.4025 -9.5625 0.0625 C-6.44129649 -1.49810175 -3.34433878 -0.48718686 0 0 Z " fill="#E1905D" transform="translate(92.5625,84.9375)"/>
<path d="M0 0 C1.05960938 0.38027344 2.11921875 0.76054688 3.2109375 1.15234375 C4.00757812 1.45269531 4.80421875 1.75304687 5.625 2.0625 C2.19845568 5.48904432 -2.70561612 4.89785318 -7.375 5.0625 C-10.9375 4.8125 -10.9375 4.8125 -13.375 4.0625 C-14.035 3.0725 -14.695 2.0825 -15.375 1.0625 C-9.9566183 -2.54975447 -5.96933663 -2.18875677 0 0 Z " fill="#BD6557" transform="translate(105.375,94.9375)"/>
<path d="M0 0 C3.10555255 0.27797578 6.20902942 0.57473642 9.3125 0.875 C10.63411133 0.99294922 10.63411133 0.99294922 11.98242188 1.11328125 C12.82998047 1.19707031 13.67753906 1.28085938 14.55078125 1.3671875 C15.33106689 1.44050293 16.11135254 1.51381836 16.9152832 1.58935547 C19 2 19 2 22 4 C21.34 4 20.68 4 20 4 C19.773125 4.639375 19.54625 5.27875 19.3125 5.9375 C18 8 18 8 15.375 8.75 C14.59125 8.8325 13.8075 8.915 13 9 C12.690625 8.195625 12.38125 7.39125 12.0625 6.5625 C10.29423085 3.83888394 10.29423085 3.83888394 7.796875 3.4453125 C5.52568784 3.20962327 3.28241731 3.05263436 1 3 C0.67 2.01 0.34 1.02 0 0 Z " fill="#B16459" transform="translate(66,100)"/>
<path d="M0 0 C1.2065625 0.0309375 1.2065625 0.0309375 2.4375 0.0625 C2.4375 0.7225 2.4375 1.3825 2.4375 2.0625 C1.7775 2.0625 1.1175 2.0625 0.4375 2.0625 C0.1075 3.0525 -0.2225 4.0425 -0.5625 5.0625 C-2.21454456 5.76461894 -3.88173769 6.43221413 -5.5625 7.0625 C-5.8925 7.7225 -6.2225 8.3825 -6.5625 9.0625 C-8.5425 9.0625 -10.5225 9.0625 -12.5625 9.0625 C-12.20255447 6.3989031 -11.85088998 4.48066548 -10.3125 2.25 C-7.98496177 0.67059906 -6.31876382 0.91743348 -3.5625 1.0625 C-2.5625 0.0625 -2.5625 0.0625 0 0 Z " fill="#BBBDC7" transform="translate(74.5625,58.9375)"/>
<path d="M0 0 C0.66 0 1.32 0 2 0 C1.42961726 3.42229645 0.64076867 5.47309193 -2.06640625 7.69921875 C-7.80968755 11.50656253 -11.00134716 13.12960468 -18 13 C-17.443125 12.731875 -16.88625 12.46375 -16.3125 12.1875 C-13.80287477 10.89877353 -11.40665764 9.47073522 -9 8 C-9.33 7.01 -9.66 6.02 -10 5 C-8.906875 4.731875 -7.81375 4.46375 -6.6875 4.1875 C-3.26833673 3.08641352 -2.22408019 2.57525074 0 0 Z " fill="#F0D6A0" transform="translate(98,110)"/>
<path d="M0 0 C2 2 2 2 2.125 4.625 C2.08375 5.40875 2.0425 6.1925 2 7 C-4.75 7.125 -4.75 7.125 -7 6 C-7.33 5.01 -7.66 4.02 -8 3 C-8.99 3.66 -9.98 4.32 -11 5 C-10.8125 3.125 -10.8125 3.125 -10 1 C-6.40262863 -1.09846663 -3.93881061 -1.27745209 0 0 Z " fill="#A8ACBF" transform="translate(112,22)"/>
<path d="M0 0 C0.8353125 0.37125 0.8353125 0.37125 1.6875 0.75 C-0.4510485 2.8885485 -1.44525314 3.17655063 -4.3125 3.75 C-4.6425 6.06 -4.9725 8.37 -5.3125 10.75 C-3.36646726 11.34070014 -3.36646726 11.34070014 -1.3125 11.75 C0.10913702 10.43377223 0.10913702 10.43377223 1.6875 6.75 C1.6875 9.72 1.6875 12.69 1.6875 15.75 C-3.35235731 15.30530671 -5.68884988 13.03656638 -9.3125 9.75 C-8.40015047 6.10060187 -7.58928798 4.03407187 -4.9375 1.3125 C-2.3125 -0.25 -2.3125 -0.25 0 0 Z " fill="#CCC9CC" transform="translate(92.3125,63.25)"/>
<path d="M0 0 C1.98 0.99 3.96 1.98 6 3 C6.33 2.34 6.66 1.68 7 1 C10.3 1 13.6 1 17 1 C17.33 1.66 17.66 2.32 18 3 C17.38511719 3.19335938 16.77023438 3.38671875 16.13671875 3.5859375 C14.92435547 3.97652344 14.92435547 3.97652344 13.6875 4.375 C12.88699219 4.63023438 12.08648437 4.88546875 11.26171875 5.1484375 C8.77275472 5.98831811 8.77275472 5.98831811 6 8 C2.8125 7.625 2.8125 7.625 0 7 C0 4.69 0 2.38 0 0 Z " fill="#30161A" transform="translate(80,59)"/>
<path d="M0 0 C2.30270475 2.30270475 2.96419239 3.47482176 3.1875 6.75 C3.125625 7.4925 3.06375 8.235 3 9 C2.319375 8.54625 1.63875 8.0925 0.9375 7.625 C-2.30435186 5.83163514 -5.4203441 4.91246131 -9 4 C-8 1 -8 1 -6.1875 -0.25 C-3.55829554 -1.15144153 -2.5260369 -1.14079086 0 0 Z " fill="#ECE1CF" transform="translate(132,87)"/>
<path d="M0 0 C2.68184054 0.07662402 4.43196239 0.48569568 6.4453125 2.30859375 C10.27714599 7.04911918 10.60683323 11.05303437 10 17 C9.34 17 8.68 17 8 17 C7.855625 15.906875 7.71125 14.81375 7.5625 13.6875 C7.11711896 10.06877013 7.11711896 10.06877013 6 7 C4.7625 6.566875 4.7625 6.566875 3.5 6.125 C2.675 5.75375 1.85 5.3825 1 5 C0.1875 2.375 0.1875 2.375 0 0 Z " fill="#B29098" transform="translate(130,80)"/>
<path d="M0 0 C0.99 0 1.98 0 3 0 C2.67 0.99 2.34 1.98 2 3 C1.9175 3.61875 1.835 4.2375 1.75 4.875 C0.63077537 8.04613644 -1.56479479 9.73873802 -4 12 C-4.598125 12.598125 -5.19625 13.19625 -5.8125 13.8125 C-6.204375 14.204375 -6.59625 14.59625 -7 15 C-7.33 14.34 -7.66 13.68 -8 13 C-9.670625 13.061875 -9.670625 13.061875 -11.375 13.125 C-15 13 -15 13 -17 11 C-16.19175781 10.80664062 -15.38351563 10.61328125 -14.55078125 10.4140625 C-13.48214844 10.15367188 -12.41351563 9.89328125 -11.3125 9.625 C-10.25675781 9.36976562 -9.20101562 9.11453125 -8.11328125 8.8515625 C-5.29593234 8.08094511 -2.68331675 7.14501457 0 6 C0 4.02 0 2.04 0 0 Z " fill="#9E8085" transform="translate(79,57)"/>
<path d="M0 0 C4.71668202 2.1337371 8.3560534 4.3560534 12 8 C12.375 10.8125 12.375 10.8125 12 13 C11.01 12.67 10.02 12.34 9 12 C9 11.67 9 11.34 9 11 C6.36 11 3.72 11 1 11 C1 10.34 1 9.68 1 9 C1.66 9 2.32 9 3 9 C3 8.34 3 7.68 3 7 C4.32 7 5.64 7 7 7 C6.4946875 6.66226563 5.989375 6.32453125 5.46875 5.9765625 C4.49421875 5.30753906 4.49421875 5.30753906 3.5 4.625 C2.8503125 4.18414062 2.200625 3.74328125 1.53125 3.2890625 C1.0259375 2.86367188 0.520625 2.43828125 0 2 C0 1.34 0 0.68 0 0 Z " fill="#C7C9D3" transform="translate(84,37)"/>
<path d="M0 0 C-0.37169504 2.63002402 -0.7078685 3.74520369 -2.7421875 5.51953125 C-3.44601563 5.94621094 -4.14984375 6.37289062 -4.875 6.8125 C-5.92300781 7.47185547 -5.92300781 7.47185547 -6.9921875 8.14453125 C-9 9 -9 9 -12 8 C-7.1875 -0.47916667 -7.1875 -0.47916667 0 0 Z " fill="#B5BBCC" transform="translate(73,85)"/>
<path d="M0 0 C0.66 0 1.32 0 2 0 C4.13586678 3.20380017 4.23132175 4.01939967 4.125 7.6875 C4.10695313 8.49574219 4.08890625 9.30398437 4.0703125 10.13671875 C4.03550781 11.05904297 4.03550781 11.05904297 4 12 C2.33388095 12.042721 0.66617115 12.04063832 -1 12 C-2 11 -2 11 -2.0625 8.4375 C-2.041875 7.633125 -2.02125 6.82875 -2 6 C-1.01 5.67 -0.02 5.34 1 5 C0.67 3.35 0.34 1.7 0 0 Z " fill="#2B131A" transform="translate(102,65)"/>
<path d="M0 0 C0 1.32 0 2.64 0 4 C-4.52092968 5.45606519 -7.51648796 4.27032841 -12 3 C-8.32842393 -2.41994563 -5.9410513 -2.24439716 0 0 Z " fill="#B4CCE0" transform="translate(85,22)"/>
<path d="M0 0 C0.99 0.33 1.98 0.66 3 1 C4.34261242 7.46895075 4.34261242 7.46895075 2.75 9.9375 C1 11 1 11 -2 11 C-1.85892253 9.54119891 -1.71197585 8.08296449 -1.5625 6.625 C-1.48128906 5.81289062 -1.40007812 5.00078125 -1.31640625 4.1640625 C-1 2 -1 2 0 0 Z " fill="#271218" transform="translate(124,68)"/>
<path d="M0 0 C3.375 0.3125 3.375 0.3125 7 1 C7.66 1.99 8.32 2.98 9 4 C9 3.34 9 2.68 9 2 C10.32 2 11.64 2 13 2 C12.34 3.32 11.68 4.64 11 6 C6.94393835 5.53199289 3.53411321 5.12046792 0 3 C0 2.01 0 1.02 0 0 Z " fill="#974A47" transform="translate(103,90)"/>
<path d="M0 0 C2.475 0.495 2.475 0.495 5 1 C5 2.65 5 4.3 5 6 C4.01 6.495 4.01 6.495 3 7 C2.34444881 9.52733235 2.34444881 9.52733235 2 12 C2.66 12 3.32 12 4 12 C4.33 13.32 4.66 14.64 5 16 C3.0625 15.3125 3.0625 15.3125 1 14 C-0.59827024 9.60475685 -0.09070271 4.62583842 0 0 Z " fill="#BEA3A7" transform="translate(122,52)"/>
<path d="M0 0 C1.32 0 2.64 0 4 0 C4.309375 1.11375 4.309375 1.11375 4.625 2.25 C6.39615589 5.79231177 8.63427951 7.02446841 12 9 C10 10 10 10 7.75 9.3125 C4.61183173 7.81473787 1.84874773 5.98749842 -1 4 C-0.67 2.68 -0.34 1.36 0 0 Z " fill="#A17B7A" transform="translate(80,35)"/>
<path d="M0 0 C2.02434654 0.51952256 4.02413655 1.13238987 6.01953125 1.75390625 C5.42140625 2.02203125 4.82328125 2.29015625 4.20703125 2.56640625 C1.99351427 3.76802975 0.75284981 4.95125495 -0.98046875 6.75390625 C-2.6358087 8.10127598 -4.30059648 9.43724961 -5.98046875 10.75390625 C-6.64046875 10.42390625 -7.30046875 10.09390625 -7.98046875 9.75390625 C-7.98046875 9.09390625 -7.98046875 8.43390625 -7.98046875 7.75390625 C-7.34109375 7.46515625 -6.70171875 7.17640625 -6.04296875 6.87890625 C-3.82840796 5.92567174 -3.82840796 5.92567174 -2.98046875 3.75390625 C-3.64046875 3.42390625 -4.30046875 3.09390625 -4.98046875 2.75390625 C-3.57594973 0.47156284 -2.72095665 -0.33810704 0 0 Z " fill="#A07D7E" transform="translate(123.98046875,90.24609375)"/>
<path d="M0 0 C0.66 0 1.32 0 2 0 C3.823321 6.15370839 4.2361959 11.59646678 4 18 C3.67 18 3.34 18 3 18 C2.87625 16.865625 2.7525 15.73125 2.625 14.5625 C2.41875 13.386875 2.2125 12.21125 2 11 C1.34 10.67 0.68 10.34 0 10 C0.66 10 1.32 10 2 10 C1.67 8.68 1.34 7.36 1 6 C0.34 6 -0.32 6 -1 6 C-1.042721 4.33388095 -1.04063832 2.66617115 -1 1 C-0.67 0.67 -0.34 0.34 0 0 Z " fill="#735F64" transform="translate(125,58)"/>
<path d="M0 0 C0.66 0 1.32 0 2 0 C2.33 1.32 2.66 2.64 3 4 C3.61488281 3.76023437 4.22976562 3.52046875 4.86328125 3.2734375 C5.67152344 2.97695312 6.47976562 2.68046875 7.3125 2.375 C8.11300781 2.07335937 8.91351563 1.77171875 9.73828125 1.4609375 C10.48464844 1.30882813 11.23101562 1.15671875 12 1 C12.99 1.66 13.98 2.32 15 3 C9.33643026 5.42724417 5.17333652 6.62779693 -1 6 C-3 4.5 -3 4.5 -4 3 C-2.68 2.34 -1.36 1.68 0 1 C0 0.67 0 0.34 0 0 Z " fill="#C6ADAB" transform="translate(56,106)"/>
<path d="M0 0 C4.875 2.625 4.875 2.625 6 6 C5.34 6 4.68 6 4 6 C3.67 6.99 3.34 7.98 3 9 C1.0625 8.6875 1.0625 8.6875 -1 8 C-2.2077558 4.37673261 -1.54311128 3.35853631 0 0 Z " fill="#F0D89F" transform="translate(81,40)"/>
<path d="M0 0 C0 0.33 0 0.66 0 1 C-5.07476794 2.26305335 -9.72796354 3.27036084 -15 3 C-15 2.34 -15 1.68 -15 1 C-9.42138909 -1.30582584 -5.75505053 -2.80374257 0 0 Z " fill="#EEAB6A" transform="translate(126,81)"/>
<path d="M0 0 C0.33 0.99 0.66 1.98 1 3 C-0.28062485 4.7074998 -1.61767557 6.37373596 -3 8 C-3.33 8.99 -3.66 9.98 -4 11 C-5.65 11.33 -7.3 11.66 -9 12 C-9 11.01 -9 10.02 -9 9 C-8.34 9 -7.68 9 -7 9 C-7 8.34 -7 7.68 -7 7 C-6.34 7 -5.68 7 -5 7 C-4.731875 6.401875 -4.46375 5.80375 -4.1875 5.1875 C-3.01506533 3.02775192 -1.80630718 1.64209744 0 0 Z " fill="#B2CDE3" transform="translate(40,127)"/>
<path d="M0 0 C0.33 0.66 0.66 1.32 1 2 C-3.95 8.93 -3.95 8.93 -9 16 C-9.66 15.67 -10.32 15.34 -11 15 C-11 14.01 -11 13.02 -11 12 C-10.01 12 -9.02 12 -8 12 C-8 11.34 -8 10.68 -8 10 C-7.34 10 -6.68 10 -6 10 C-5.814375 8.7934375 -5.814375 8.7934375 -5.625 7.5625 C-5.41875 6.716875 -5.2125 5.87125 -5 5 C-4.34 4.67 -3.68 4.34 -3 4 C-2.67 3.01 -2.34 2.02 -2 1 C-1.34 0.67 -0.68 0.34 0 0 Z " fill="#ECE0C1" transform="translate(49,108)"/>
<path d="M0 0 C0.721875 0.350625 1.44375 0.70125 2.1875 1.0625 C6.32100718 2.44033573 8.9721948 1.34260173 13 0 C12.67 1.32 12.34 2.64 12 4 C10.39679026 4.19551338 8.79237014 4.38111983 7.1875 4.5625 C6.29417969 4.66691406 5.40085937 4.77132812 4.48046875 4.87890625 C2 5 2 5 -1 4 C-0.67 2.68 -0.34 1.36 0 0 Z " fill="#B5644F" transform="translate(96,77)"/>
<path d="M0 0 C0.51949219 0.27714844 1.03898437 0.55429688 1.57421875 0.83984375 C5.36216005 2.80733267 8.70699113 4.46337389 13 5 C9.36576791 7.32590854 6.22911669 7.16265833 2 7 C0.5393715 4.35261084 0 3.10551666 0 0 Z " fill="#EC9D62" transform="translate(72,92)"/>
<path d="M0 0 C0.66 0.33 1.32 0.66 2 1 C0.68 2.65 -0.64 4.3 -2 6 C-1.01 7.485 -1.01 7.485 0 9 C-1.65 9.33 -3.3 9.66 -5 10 C-5.33 9.34 -5.66 8.68 -6 8 C-7.98 8.99 -7.98 8.99 -10 10 C-8.71937515 8.2925002 -7.38232443 6.62626404 -6 5 C-5.34 5 -4.68 5 -4 5 C-3.566875 4.0409375 -3.566875 4.0409375 -3.125 3.0625 C-2 1 -2 1 0 0 Z " fill="#9A7E80" transform="translate(64,86)"/>
<path d="M0 0 C-0.66 1.65 -1.32 3.3 -2 5 C-5.375 5.1875 -5.375 5.1875 -9 5 C-9.66 4.01 -10.32 3.02 -11 2 C-3.375 0 -3.375 0 0 0 Z " fill="#70717F" transform="translate(86,29)"/>
<path d="M0 0 C0 0.99 0 1.98 0 3 C-0.63808594 3.13277344 -1.27617188 3.26554687 -1.93359375 3.40234375 C-3.17302734 3.66724609 -3.17302734 3.66724609 -4.4375 3.9375 C-5.67306641 4.19853516 -5.67306641 4.19853516 -6.93359375 4.46484375 C-8.97661204 4.80752994 -8.97661204 4.80752994 -10 6 C-11.66617115 6.04063832 -13.33388095 6.042721 -15 6 C-14.67 5.01 -14.34 4.02 -14 3 C-12.98679688 2.80083984 -12.98679688 2.80083984 -11.953125 2.59765625 C-10.61507812 2.33275391 -10.61507812 2.33275391 -9.25 2.0625 C-8.36828125 1.88847656 -7.4865625 1.71445313 -6.578125 1.53515625 C-4.36764947 1.07631512 -2.18487932 0.56663926 0 0 Z " fill="#92747E" transform="translate(76,103)"/>
<path d="M0 0 C2.625 -0.1875 2.625 -0.1875 5 0 C4.25 2.9375 4.25 2.9375 3 6 C0.875 6.875 0.875 6.875 -1 7 C-1.625 5.1875 -1.625 5.1875 -2 3 C-1.34 2.01 -0.68 1.02 0 0 Z " fill="#E59962" transform="translate(49,101)"/>
<path d="M0 0 C0.33 0.99 0.66 1.98 1 3 C-0.32 3.99 -1.64 4.98 -3 6 C-3 5.34 -3 4.68 -3 4 C-6.057952 5.73559438 -8.63379989 7.38472619 -11 10 C-11.66 9.67 -12.32 9.34 -13 9 C-9.14853847 3.9532573 -6.05228479 1.88293304 0 0 Z " fill="#E7D3A4" transform="translate(45,106)"/>
<path d="M0 0 C0.66 0.66 1.32 1.32 2 2 C-0.82553984 6.23830976 -3.12180888 5.97715348 -8 7 C-8 5 -8 5 -6.5 3.375 C-6.005 2.92125 -5.51 2.4675 -5 2 C-5.66 1.67 -6.32 1.34 -7 1 C-3.625 0.375 -3.625 0.375 0 0 Z " fill="#C88E6C" transform="translate(112,99)"/>
<path d="M0 0 C1.98 0.99 1.98 0.99 4 2 C3.67 2.33 3.34 2.66 3 3 C3.22816406 3.61488281 3.45632812 4.22976562 3.69140625 4.86328125 C4.12259766 6.07564453 4.12259766 6.07564453 4.5625 7.3125 C4.85253906 8.11300781 5.14257812 8.91351563 5.44140625 9.73828125 C6 12 6 12 5 15 C1.05106383 10.68085106 1.05106383 10.68085106 0.8125 7.5 C0.874375 6.675 0.93625 5.85 1 5 C0.70250054 3.32656552 0.37872934 1.65694085 0 0 Z " fill="#CAA792" transform="translate(100,48)"/>
<path d="M0 0 C0.66 0.33 1.32 0.66 2 1 C1.34 3.31 0.68 5.62 0 8 C-1.32 8.33 -2.64 8.66 -4 9 C-4 7.35 -4 5.7 -4 4 C-2.68 3.34 -1.36 2.68 0 2 C0 1.34 0 0.68 0 0 Z " fill="#B6ADB8" transform="translate(51,112)"/>
<path d="M0 0 C1.32 0.66 2.64 1.32 4 2 C3.34 2 2.68 2 2 2 C1.34 5.96 0.68 9.92 0 14 C-2.37650833 9.24698333 -2.33546255 7.19966951 -2 2 C-1.34 1.34 -0.68 0.68 0 0 Z " fill="#CA7E57" transform="translate(75,68)"/>
<path d="M0 0 C1.32 0 2.64 0 4 0 C3.67 1.32 3.34 2.64 3 4 C3.66 4 4.32 4 5 4 C5 4.66 5 5.32 5 6 C3.125 6.625 3.125 6.625 1 7 C0.34 6.34 -0.32 5.68 -1 5 C-0.625 2.375 -0.625 2.375 0 0 Z " fill="#C8734B" transform="translate(73,111)"/>
<path d="M0 0 C3.125 0.25 3.125 0.25 5 1.75 C5.37125 2.245 5.7425 2.74 6.125 3.25 C5.125 4.25 5.125 4.25 1.6875 4.5 C0.511875 4.4175 -0.66375 4.335 -1.875 4.25 C-2.535 3.26 -3.195 2.27 -3.875 1.25 C-2.875 0.25 -2.875 0.25 0 0 Z " fill="#EC9F62" transform="translate(80.875,90.75)"/>
<path d="M0 0 C0.33 0 0.66 0 1 0 C1 2.97 1 5.94 1 9 C-1.375 8.75 -1.375 8.75 -4 8 C-5.3125 5.9375 -5.3125 5.9375 -6 4 C-5.360625 4.185625 -4.72125 4.37125 -4.0625 4.5625 C-3.0415625 4.7790625 -3.0415625 4.7790625 -2 5 C-0.55245745 3.55245745 -0.44266439 1.96037087 0 0 Z " fill="#C3BDC7" transform="translate(93,70)"/>
<path d="M0 0 C0.99 0 1.98 0 3 0 C3.33 0.66 3.66 1.32 4 2 C4.99 2.33 5.98 2.66 7 3 C3.91111478 5.05925681 3.29064073 5.2390374 -0.1875 5.125 C-2.0746875 5.063125 -2.0746875 5.063125 -4 5 C-3 3 -3 3 0 1 C0 0.67 0 0.34 0 0 Z " fill="#E3CDA2" transform="translate(17,118)"/>
<path d="M0 0 C1.65 0 3.3 0 5 0 C5 1.32 5 2.64 5 4 C2.5 5.75 2.5 5.75 0 7 C-1.04449911 3.86650268 -0.93423645 3.01031744 0 0 Z " fill="#B4A4AA" transform="translate(98,66)"/>
<path d="M0 0 C0.99 0.495 0.99 0.495 2 1 C2.96070434 3.88211302 3.10581883 5.69850044 3.0625 8.6875 C3.05347656 9.49574219 3.04445313 10.30398437 3.03515625 11.13671875 C3.02355469 11.75160156 3.01195313 12.36648437 3 13 C1 12 1 12 0 10 C-0.06996014 8.29297265 -0.08440154 6.58331997 -0.0625 4.875 C-0.05347656 3.96492188 -0.04445313 3.05484375 -0.03515625 2.1171875 C-0.02355469 1.41851562 -0.01195313 0.71984375 0 0 Z " fill="#BE735C" transform="translate(107,68)"/>
<path d="M0 0 C2.97 0.99 5.94 1.98 9 3 C9 3.66 9 4.32 9 5 C8.01 5.33 7.02 5.66 6 6 C5.67 6.99 5.34 7.98 5 9 C4.16094435 7.87926138 3.32892169 6.75325453 2.5 5.625 C2.0359375 4.99851562 1.571875 4.37203125 1.09375 3.7265625 C0 2 0 2 0 0 Z " fill="#AE908A" transform="translate(112,42)"/>
<path d="M0 0 C0 0.99 0 1.98 0 3 C-6.0546875 3.1953125 -6.0546875 3.1953125 -8 3 C-8.66 2.34 -9.32 1.68 -10 1 C-3.375 -1.125 -3.375 -1.125 0 0 Z " fill="#AC847D" transform="translate(79,106)"/>
<path d="M0 0 C1.32 0.33 2.64 0.66 4 1 C4 1.99 4 2.98 4 4 C2.68 4 1.36 4 0 4 C-0.33 4.99 -0.66 5.98 -1 7 C-1.99 7.33 -2.98 7.66 -4 8 C-2.87548273 5.0280615 -1.77706209 2.66559313 0 0 Z " fill="#674852" transform="translate(98,62)"/>
<path d="M0 0 C0.0825 0.598125 0.165 1.19625 0.25 1.8125 C1.20455872 4.5966296 2.57132271 5.43311142 5 7 C4.01 8.485 4.01 8.485 3 10 C2.67 9.01 2.34 8.02 2 7 C1.01 6.67 0.02 6.34 -1 6 C-1 6.66 -1 7.32 -1 8 C-1.99 8 -2.98 8 -4 8 C-3.34 6.35 -2.68 4.7 -2 3 C-1.34 3 -0.68 3 0 3 C0 2.01 0 1.02 0 0 Z " fill="#9E655C" transform="translate(80,61)"/>
<path d="M0 0 C0.99 0.66 1.98 1.32 3 2 C0.23408664 4.76591336 -2.18462299 4.4737411 -6 5 C-8.33588323 5.95584438 -8.33588323 5.95584438 -10 7 C-6.93794652 3.67548479 -4.48688582 1.06268348 0 0 Z " fill="#EFAB68" transform="translate(96,105)"/>
<path d="M0 0 C-0.33 0.66 -0.66 1.32 -1 2 C-1.99 2 -2.98 2 -4 2 C-4.33 2.99 -4.66 3.98 -5 5 C-6.32 4.67 -7.64 4.34 -9 4 C-8 1 -8 1 -6.1875 -0.25 C-3.66056586 -1.11637742 -2.47778006 -0.88492145 0 0 Z " fill="#F5E0AE" transform="translate(132,87)"/>
<path d="M0 0 C1.5625 1.75 1.5625 1.75 3 4 C2.6875 6.25 2.6875 6.25 2 8 C2.99 8.66 3.98 9.32 5 10 C5 10.66 5 11.32 5 12 C2.5625 11.1875 2.5625 11.1875 0 10 C-1.231394 6.30581799 -0.64432764 3.7943739 0 0 Z " fill="#A07268" transform="translate(129,76)"/>
<path d="M0 0 C1.32 0 2.64 0 4 0 C2.62845496 2.95409701 1.01136276 5.44008376 -1 8 C-1.66 6.02 -2.32 4.04 -3 2 C-2.01 2 -1.02 2 0 2 C0 1.34 0 0.68 0 0 Z " fill="#DBD6D5" transform="translate(94,62)"/>
<path d="M0 0 C0.33 0.99 0.66 1.98 1 3 C-5.4 7.06153846 -5.4 7.06153846 -8.4375 6.75 C-8.953125 6.5025 -9.46875 6.255 -10 6 C-9.030625 5.54625 -8.06125 5.0925 -7.0625 4.625 C-3.92920418 3.34213779 -3.92920418 3.34213779 -3 1 C-2.01 0.67 -1.02 0.34 0 0 Z " fill="#BA9EA7" transform="translate(78,60)"/>
<path d="M0 0 C0.763125 0.20625 1.52625 0.4125 2.3125 0.625 C2.6425 1.945 2.9725 3.265 3.3125 4.625 C-0.38168201 4.625 -2.46586178 3.34320705 -5.6875 1.625 C-2.6875 -0.375 -2.6875 -0.375 0 0 Z " fill="#B5CEE2" transform="translate(109.6875,21.375)"/>
<path d="M0 0 C0.33 0.66 0.66 1.32 1 2 C3.02463255 2.65213292 3.02463255 2.65213292 5 3 C2.70370006 4.14814997 0.92301914 4.30769809 -1.625 4.5625 C-2.85089844 4.68818359 -2.85089844 4.68818359 -4.1015625 4.81640625 C-5.04128906 4.90728516 -5.04128906 4.90728516 -6 5 C-6.33 4.01 -6.66 3.02 -7 2 C-4.69 1.34 -2.38 0.68 0 0 Z " fill="#C0AC9D" transform="translate(30,116)"/>
<path d="M0 0 C0.33 0.99 0.66 1.98 1 3 C1.6599679 4.66933058 2.32558869 6.3364521 3 8 C2.4225 7.690625 1.845 7.38125 1.25 7.0625 C-0.84294184 6.07416636 -2.74535275 5.4831387 -5 5 C-4 2 -4 2 -1.9375 0.8125 C-1.298125 0.544375 -0.65875 0.27625 0 0 Z " fill="#C47050" transform="translate(70,92)"/>
<path d="M0 0 C-0.33 1.98 -0.66 3.96 -1 6 C-6.875 3.25 -6.875 3.25 -8 1 C-2.25 0 -2.25 0 0 0 Z " fill="#DEA373" transform="translate(80,116)"/>
<path d="M0 0 C0 3 0 3 -1 6 C-3.5625 7.1875 -3.5625 7.1875 -6 8 C-6.33 6.68 -6.66 5.36 -7 4 C-5.35 3.67 -3.7 3.34 -2 3 C-2 2.34 -2 1.68 -2 1 C-1.34 0.67 -0.68 0.34 0 0 Z " fill="#DB8A58" transform="translate(92,102)"/>
<path d="M0 0 C6.75 1.875 6.75 1.875 9 3 C6.75 4.625 6.75 4.625 4 6 C1.6875 5.1875 1.6875 5.1875 0 4 C0 2.68 0 1.36 0 0 Z " fill="#C0745D" transform="translate(77,103)"/>
<path d="M0 0 C0.33 0.99 0.66 1.98 1 3 C-0.1875 5.1875 -0.1875 5.1875 -2 7 C-3.32 7 -4.64 7 -6 7 C-5.8125 5.1875 -5.8125 5.1875 -5 3 C-2.4375 1.25 -2.4375 1.25 0 0 Z " fill="#C8CBD0" transform="translate(58,93)"/>
<path d="M0 0 C1.485 0.99 1.485 0.99 3 2 C3.29296875 4.1640625 3.29296875 4.1640625 3.1875 6.625 C3.16042969 7.44226563 3.13335937 8.25953125 3.10546875 9.1015625 C3.07066406 9.72804688 3.03585938 10.35453125 3 11 C2.34 11 1.68 11 1 11 C0.855625 9.88625 0.71125 8.7725 0.5625 7.625 C0.21627965 4.17857953 0.21627965 4.17857953 -1 2 C-0.67 1.34 -0.34 0.68 0 0 Z " fill="#AAA9BA" transform="translate(137,86)"/>
<path d="M0 0 C0 1.65 0 3.3 0 5 C-6.15234375 4.4140625 -6.15234375 4.4140625 -8 4 C-8.33 3.34 -8.66 2.68 -9 2 C-7.68786298 1.66524067 -6.37527913 1.33223233 -5.0625 1 C-3.96615234 0.7215625 -3.96615234 0.7215625 -2.84765625 0.4375 C-1 0 -1 0 0 0 Z " fill="#E4945F" transform="translate(115,85)"/>
<path d="M0 0 C0.33 0.66 0.66 1.32 1 2 C4.465 1.505 4.465 1.505 8 1 C6.875 3 6.875 3 5 5 C1.8125 5.25 1.8125 5.25 -1 5 C-0.67 3.35 -0.34 1.7 0 0 Z " fill="#ADABBC" transform="translate(63,63)"/>
<path d="M0 0 C3.375 -0.125 3.375 -0.125 7 0 C7.66 0.66 8.32 1.32 9 2 C2.71428571 4.42857143 2.71428571 4.42857143 -1 3 C-0.67 2.01 -0.34 1.02 0 0 Z " fill="#98706F" transform="translate(83,58)"/>
<path d="M0 0 C0.33 0.66 0.66 1.32 1 2 C-0.98 2 -2.96 2 -5 2 C-5 2.66 -5 3.32 -5 4 C-6.32 3.67 -7.64 3.34 -9 3 C-9 2.34 -9 1.68 -9 1 C-6.04335481 -0.4783226 -3.25770263 -0.06032783 0 0 Z " fill="#B4CFE4" transform="translate(93,47)"/>
<path d="M0 0 C4.70270446 2.12741392 8.16393369 4.62060825 12 8 C11.01 8.495 11.01 8.495 10 9 C8.3278148 7.88321917 6.66237197 6.75633648 5 5.625 C3.6078125 4.68527344 3.6078125 4.68527344 2.1875 3.7265625 C1.465625 3.15679687 0.74375 2.58703125 0 2 C0 1.34 0 0.68 0 0 Z " fill="#BE9FA6" transform="translate(84,37)"/>
<path d="M0 0 C1.98 0.495 1.98 0.495 4 1 C3.625 3.4375 3.625 3.4375 3 6 C2.01 6.495 2.01 6.495 1 7 C1 6.34 1 5.68 1 5 C0.34 4.67 -0.32 4.34 -1 4 C-0.67 2.68 -0.34 1.36 0 0 Z " fill="#C1CBD9" transform="translate(121,44)"/>
<path d="M0 0 C2.64 0.33 5.28 0.66 8 1 C8 1.66 8 2.32 8 3 C5.6875 3.625 5.6875 3.625 3 4 C2.01 3.34 1.02 2.68 0 2 C0 1.34 0 0.68 0 0 Z " fill="#6B646E" transform="translate(104,30)"/>
<path d="M0 0 C2.0625 0.4375 2.0625 0.4375 4 1 C4 2.65 4 4.3 4 6 C2.68 5.67 1.36 5.34 0 5 C-0.5625 3.0625 -0.5625 3.0625 -1 1 C-0.67 0.67 -0.34 0.34 0 0 Z " fill="#907F8B" transform="translate(105,33)"/>
<path d="M0 0 C1.52299523 2.93720508 2.80100302 5.9168649 4 9 C2.68 9 1.36 9 0 9 C0 8.34 0 7.68 0 7 C-0.66 6.67 -1.32 6.34 -2 6 C-1.34 6 -0.68 6 0 6 C0 4.02 0 2.04 0 0 Z " fill="#886F6F" transform="translate(73,78)"/>
<path d="M0 0 C0.66 0 1.32 0 2 0 C1.67 1.65 1.34 3.3 1 5 C-0.65 5.33 -2.3 5.66 -4 6 C-4 5.01 -4 4.02 -4 3 C-3.01 3 -2.02 3 -1 3 C-0.67 2.01 -0.34 1.02 0 0 Z " fill="#6C0712" transform="translate(126,73)"/>
<path d="M0 0 C0.53625 0.37125 1.0725 0.7425 1.625 1.125 C0.38079353 1.6595256 -0.87070936 2.17708611 -2.125 2.6875 C-2.82109375 2.97753906 -3.5171875 3.26757812 -4.234375 3.56640625 C-6.67512784 4.20331803 -8.0153655 3.92748831 -10.375 3.125 C-7.39910027 0.14910027 -4.10537447 -1.51250638 0 0 Z " fill="#C09D98" transform="translate(69.375,107.875)"/>
<path d="M0 0 C1.98 0 3.96 0 6 0 C4.75 2 4.75 2 3 4 C1.68 4 0.36 4 -1 4 C-0.67 2.68 -0.34 1.36 0 0 Z " fill="#7C8497" transform="translate(133,97)"/>
<path d="M0 0 C1.32 0 2.64 0 4 0 C4 0.99 4 1.98 4 3 C2.02 3.66 0.04 4.32 -2 5 C-1.125 1.125 -1.125 1.125 0 0 Z " fill="#B2C1D4" transform="translate(66,60)"/>
<path d="M0 0 C1.32 0.66 2.64 1.32 4 2 C0.36576791 4.32590854 -2.77088331 4.16265833 -7 4 C-6.1028125 3.566875 -6.1028125 3.566875 -5.1875 3.125 C-2.80672208 1.95257974 -2.80672208 1.95257974 0 0 Z " fill="#E6CB9A" transform="translate(87,119)"/>
<path d="M0 0 C0.99 0 1.98 0 3 0 C1.88333826 3.34998521 1.25305075 3.79340222 -1.5625 5.6875 C-2.20316406 6.12449219 -2.84382813 6.56148438 -3.50390625 7.01171875 C-3.99761719 7.33785156 -4.49132813 7.66398437 -5 8 C-3.63029745 5.04987143 -2.17390875 2.4347778 0 0 Z " fill="#E1B790" transform="translate(44,110)"/>
<path d="M0 0 C0.33 1.32 0.66 2.64 1 4 C-1.64 4 -4.28 4 -7 4 C-6.67 3.01 -6.34 2.02 -6 1 C-4.02 0.67 -2.04 0.34 0 0 Z " fill="#E18F5B" transform="translate(101,102)"/>
<path d="M0 0 C1.65 1.32 3.3 2.64 5 4 C5.33 3.34 5.66 2.68 6 2 C5.67 3.65 5.34 5.3 5 7 C2.5625 6.25 2.5625 6.25 0 5 C-0.875 2.9375 -0.875 2.9375 -1 1 C-0.67 0.67 -0.34 0.34 0 0 Z " fill="#CDDEE3" transform="translate(87,69)"/>
<path d="M0 0 C1.32 0.33 2.64 0.66 4 1 C4.33 2.32 4.66 3.64 5 5 C4.01 5.33 3.02 5.66 2 6 C1.34 4.02 0.68 2.04 0 0 Z " fill="#BAADB7" transform="translate(117,47)"/>
<path d="M0 0 C1.9375 0.8125 1.9375 0.8125 4 2 C4.33 2.99 4.66 3.98 5 5 C2.03 4.505 2.03 4.505 -1 4 C-0.67 2.68 -0.34 1.36 0 0 Z " fill="#ECAB6E" transform="translate(66,96)"/>
<path d="M0 0 C0.33 0 0.66 0 1 0 C1 1.65 1 3.3 1 5 C-1.31 5 -3.62 5 -6 5 C-6 4.34 -6 3.68 -6 3 C-5.195625 2.87625 -4.39125 2.7525 -3.5625 2.625 C-2.716875 2.41875 -1.87125 2.2125 -1 2 C-0.67 1.34 -0.34 0.68 0 0 Z " fill="#DE8E5D" transform="translate(121,74)"/>
<path d="M0 0 C1.32 0.33 2.64 0.66 4 1 C3.67 2.98 3.34 4.96 3 7 C2.34 6.01 1.68 5.02 1 4 C0.01 3.67 -0.98 3.34 -2 3 C-1.34 3 -0.68 3 0 3 C0 2.01 0 1.02 0 0 Z " fill="#DA8A58" transform="translate(79,67)"/>
<path d="M0 0 C0.66 0 1.32 0 2 0 C2.33 2.97 2.66 5.94 3 9 C2.67 8.01 2.34 7.02 2 6 C1.34 6 0.68 6 0 6 C0 4.02 0 2.04 0 0 Z " fill="#B58A7D" transform="translate(120,52)"/>
<path d="M0 0 C0.99 0.66 1.98 1.32 3 2 C2.67 2.99 2.34 3.98 2 5 C-2.75 4.25 -2.75 4.25 -5 2 C-2.6875 0.875 -2.6875 0.875 0 0 Z " fill="#CAB2C0" transform="translate(99,51)"/>
<path d="M0 0 C1.65 0 3.3 0 5 0 C4.67 1.32 4.34 2.64 4 4 C2.35 3.67 0.7 3.34 -1 3 C-0.67 2.01 -0.34 1.02 0 0 Z " fill="#BAB7C1" transform="translate(88,49)"/>
<path d="M0 0 C1.98 0 3.96 0 6 0 C5.01 1.485 5.01 1.485 4 3 C1.375 3.1875 1.375 3.1875 -1 3 C-0.67 2.01 -0.34 1.02 0 0 Z " fill="#7D7C8E" transform="translate(62,106)"/>
<path d="M0 0 C0.66 0.33 1.32 0.66 2 1 C1.67 2.65 1.34 4.3 1 6 C-0.32 6.33 -1.64 6.66 -3 7 C-2.34 5.68 -1.68 4.36 -1 3 C-1.66 2.67 -2.32 2.34 -3 2 C-2.01 1.34 -1.02 0.68 0 0 Z " fill="#D27F4F" transform="translate(93,100)"/>
<path d="M0 0 C0.33 0.99 0.66 1.98 1 3 C-2 5 -2 5 -4.1875 4.625 C-4.785625 4.41875 -5.38375 4.2125 -6 4 C-4.02 2.68 -2.04 1.36 0 0 Z " fill="#88767D" transform="translate(70,89)"/>
<path d="M0 0 C0.33 0.99 0.66 1.98 1 3 C0.01 3.33 -0.98 3.66 -2 4 C-2 4.66 -2 5.32 -2 6 C-5.875 4.25 -5.875 4.25 -7 2 C-5.02 2 -3.04 2 -1 2 C-0.67 1.34 -0.34 0.68 0 0 Z " fill="#A88991" transform="translate(92,51)"/>
</svg>
