<?xml version="1.0" encoding="UTF-8"?>
<svg version="1.1" xmlns="http://www.w3.org/2000/svg" width="150" height="150">
<path d="M0 0 C2.15502531 3.23253796 2.46856135 4.25150923 2 8 C0.625 9.8125 0.625 9.8125 -1 11 C-1.66 11 -2.32 11 -3 11 C-2.30481695 14.14839587 -2.30481695 14.14839587 0.29296875 15.4296875 C1.24816406 15.90664063 2.20335938 16.38359375 3.1875 16.875 C6.57781856 18.62258689 9.45909975 20.20723086 12.1875 22.875 C16.05075638 25.79390482 18.26099463 25.40853495 23 25 C23 22.69 23 20.38 23 18 C22.401875 17.79375 21.80375 17.5875 21.1875 17.375 C18.08560747 15.42523898 17.30236979 13.38616146 16 10 C15.59579102 6.63159181 15.64052462 4.73892162 17.125 1.6875 C19.77880545 -0.7009249 21.44046851 -1.07119063 25 -1 C27.875 1.4375 27.875 1.4375 30 4 C28.25 9.75 28.25 9.75 26 12 C25.52577234 14.44157042 25.52577234 14.44157042 26 17 C28.24442251 19.61756471 30.94095463 21.42498965 34 23 C36.74239143 22.78670551 36.74239143 22.78670551 39 22 C41.53844009 23.81317149 41.99489025 24.98467075 43 28 C42.99438268 29.68800498 42.94779614 31.37605608 42.875 33.0625 C42.81791575 37.03245037 43.18694421 40.03413211 44.5625 43.75 C47.62312625 52.90272993 45.95624737 63.08872457 42.328125 71.8515625 C38.81845025 77.52897754 34.99416599 79.63354788 28.75 81.625 C21.76652286 84.08447217 18.30120167 87.42332811 13.93359375 93.5 C11.31039498 96.89161054 8.87126665 98.26188028 5 100 C4.01 100.495 4.01 100.495 3 101 C-3.07745927 101.88629614 -6.71984285 99.98163071 -11.83984375 96.73046875 C-14.56837505 94.54468328 -15.60342453 92.16067079 -17 89 C-20.26056261 88.05257195 -23.3631223 87.88013878 -26.74267578 87.90234375 C-27.65356964 87.90564697 -28.5644635 87.9089502 -29.50296021 87.91235352 C-30.95942459 87.92480103 -30.95942459 87.92480103 -32.4453125 87.9375 C-33.45214081 87.94128662 -34.45896912 87.94507324 -35.49630737 87.94897461 C-38.70591546 87.96117075 -41.91543288 87.97980497 -45.125 88 C-49.35676836 88.02653939 -53.58849247 88.04655407 -57.8203125 88.0625 C-58.79533722 88.07079834 -59.77036194 88.07909668 -60.77493286 88.08764648 C-61.6795224 88.09094971 -62.58411194 88.09425293 -63.51611328 88.09765625 C-64.31155548 88.10289307 -65.10699768 88.10812988 -65.92654419 88.11352539 C-68 88 -68 88 -71 87 C-70.8125 85.1875 -70.8125 85.1875 -70 83 C-67.50590849 81.04517152 -66.02791294 79.91189318 -62.8125 80.1875 C-61 81 -61 81 -59 83 C-55.77260607 83.09724254 -55.77260607 83.09724254 -52.125 82.75 C-50.89007813 82.66234375 -49.65515625 82.5746875 -48.3828125 82.484375 C-45.39929091 82.05717329 -43.53508308 81.55417154 -41 80 C-41.54527344 79.82984375 -42.09054688 79.6596875 -42.65234375 79.484375 C-57.09588807 74.84268896 -57.09588807 74.84268896 -60.9375 71.125 C-62.24946898 68.50106205 -63.07339839 65.77980482 -64 63 C-67.62339206 61.18830397 -71.95206893 62.04894047 -75.93359375 62.16015625 C-79 62 -79 62 -82 60 C-81.625 58.0625 -81.625 58.0625 -81 56 C-69.23222863 50.11611432 -48.09149076 56.13223979 -36 59 C-35.01 59.33 -34.02 59.66 -33 60 C-30.3071504 60.17812624 -27.70558632 60.08727698 -25 60 C-24.67 59.67 -24.34 59.34 -24 59 C-22.14712498 58.92773498 -20.29166122 58.9161878 -18.4375 58.9375 C-17.42558594 58.94652344 -16.41367188 58.95554688 -15.37109375 58.96484375 C-14.58863281 58.97644531 -13.80617188 58.98804688 -13 59 C-12.73067479 54.34947128 -12.73067479 54.34947128 -14 50 C-15.88764903 49.31527335 -15.88764903 49.31527335 -18.0625 48.875 C-18.79597656 48.70742187 -19.52945313 48.53984375 -20.28515625 48.3671875 C-21.13400391 48.18542969 -21.13400391 48.18542969 -22 48 C-21.72510809 43.96825194 -21.46508424 42.43105369 -18.4375 39.625 C-17.633125 39.08875 -16.82875 38.5525 -16 38 C-16.58803797 34.97580475 -17.22678118 31.98241547 -18 29 C-13.25 26 -13.25 26 -11 26 C-10.74988655 23.77308629 -10.52571648 21.54324878 -10.3125 19.3125 C-10.18488281 18.07113281 -10.05726562 16.82976563 -9.92578125 15.55078125 C-10.00751237 11.64059225 -10.89067853 10.1861856 -13 7 C-12.416926 3.69591402 -11.89650754 1.76369161 -9.3125 -0.4375 C-5.94236088 -1.25726357 -3.34682884 -0.80571805 0 0 Z " fill="#C67452" transform="translate(84,21)"/>
<path d="M0 0 C2.15502531 3.23253796 2.46856135 4.25150923 2 8 C0.625 9.8125 0.625 9.8125 -1 11 C-1.66 11 -2.32 11 -3 11 C-2.30481695 14.14839587 -2.30481695 14.14839587 0.29296875 15.4296875 C1.24816406 15.90664063 2.20335938 16.38359375 3.1875 16.875 C6.57781856 18.62258689 9.45909975 20.20723086 12.1875 22.875 C16.05075638 25.79390482 18.26099463 25.40853495 23 25 C23 22.69 23 20.38 23 18 C22.401875 17.79375 21.80375 17.5875 21.1875 17.375 C18.08560747 15.42523898 17.30236979 13.38616146 16 10 C15.59579102 6.63159181 15.64052462 4.73892162 17.125 1.6875 C19.77880545 -0.7009249 21.44046851 -1.07119063 25 -1 C27.875 1.4375 27.875 1.4375 30 4 C28.25 9.75 28.25 9.75 26 12 C25.52577234 14.44157042 25.52577234 14.44157042 26 17 C28.24442251 19.61756471 30.94095463 21.42498965 34 23 C36.74239143 22.78670551 36.74239143 22.78670551 39 22 C41.53844009 23.81317149 41.99489025 24.98467075 43 28 C42.99438268 29.68800498 42.94779614 31.37605608 42.875 33.0625 C42.81791575 37.03245037 43.18694421 40.03413211 44.5625 43.75 C47.62312625 52.90272993 45.95624737 63.08872457 42.328125 71.8515625 C38.76071111 77.62237908 34.45234414 80.03465372 28.3125 82.25 C26.97512913 82.75486069 25.63788373 83.26005391 24.30078125 83.765625 C23.21152344 84.17296875 22.12226562 84.5803125 21 85 C20.01 85.495 20.01 85.495 19 86 C19.495 84.02 19.495 84.02 20 82 C19.01 81.34 18.02 80.68 17 80 C20.21451269 78.39274365 23.43612536 78.94251815 27 79 C27 78.01 27 77.02 27 76 C29.475 75.01 29.475 75.01 32 74 C32 73.67 32 73.34 32 73 C31.67 73.33 31.34 73.66 31 74 C26.40840341 74.41741787 23.64389489 73.89368124 20 71 C20 70.01 20 69.02 20 68 C25.94 67.505 25.94 67.505 32 67 C29.42595029 63.13892543 27.38979741 63.05680308 23 62 C23.48082031 61.62230469 23.96164063 61.24460938 24.45703125 60.85546875 C26.53662958 58.35468595 26.49841577 56.52693196 26.6875 53.3125 C26.75324219 52.31863281 26.81898437 51.32476562 26.88671875 50.30078125 C26.92410156 49.54152344 26.96148437 48.78226563 27 48 C28.0725 48.165 29.145 48.33 30.25 48.5 C34.03028752 49.08810915 34.03028752 49.08810915 38 49 C38.66 49 39.32 49 40 49 C40 48.01 40 47.02 40 46 C40.99 46 41.98 46 43 46 C42.67 45.34 42.34 44.68 42 44 C41.01 43.67 40.02 43.34 39 43 C39 41.02 39 39.04 39 37 C37.02 37.495 37.02 37.495 35 38 C34.67 36.35 34.34 34.7 34 33 C33.0409375 32.814375 33.0409375 32.814375 32.0625 32.625 C31.381875 32.41875 30.70125 32.2125 30 32 C29.67 31.34 29.34 30.68 29 30 C25.9600352 29.30662208 25.9600352 29.30662208 22.4375 28.875 C21.23996094 28.70742188 20.04242188 28.53984375 18.80859375 28.3671875 C17.88175781 28.24601562 16.95492187 28.12484375 16 28 C16.66 29.65 17.32 31.3 18 33 C12.06 33.495 12.06 33.495 6 34 C6 34.66 6 35.32 6 36 C7.32 36.66 8.64 37.32 10 38 C7.36 38 4.72 38 2 38 C2 38.99 2 39.98 2 41 C0.35 40.34 -1.3 39.68 -3 39 C-3.37125 39.78375 -3.7425 40.5675 -4.125 41.375 C-6.48044261 44.67261965 -8.13935809 44.9962331 -12 46 C-12.845625 46.37125 -13.69125 46.7425 -14.5625 47.125 C-17.19828544 48.07117939 -19.22167661 48.15876134 -22 48 C-21.72510809 43.96825194 -21.46508424 42.43105369 -18.4375 39.625 C-17.633125 39.08875 -16.82875 38.5525 -16 38 C-16.58803797 34.97580475 -17.22678118 31.98241547 -18 29 C-13.25 26 -13.25 26 -11 26 C-10.74988655 23.77308629 -10.52571648 21.54324878 -10.3125 19.3125 C-10.18488281 18.07113281 -10.05726562 16.82976563 -9.92578125 15.55078125 C-10.00751237 11.64059225 -10.89067853 10.1861856 -13 7 C-12.416926 3.69591402 -11.89650754 1.76369161 -9.3125 -0.4375 C-5.94236088 -1.25726357 -3.34682884 -0.80571805 0 0 Z " fill="#EDA061" transform="translate(84,21)"/>
<path d="M0 0 C1.3617334 0.24786255 1.3617334 0.24786255 2.75097656 0.50073242 C7.87874784 1.5175777 12.47193888 2.77592655 17.125 5.1875 C17.785 6.1775 18.445 7.1675 19.125 8.1875 C16.815 8.5175 14.505 8.8475 12.125 9.1875 C14.765 10.5075 17.405 11.8275 20.125 13.1875 C19.91875 13.97125 19.7125 14.755 19.5 15.5625 C19.314375 16.861875 19.314375 16.861875 19.125 18.1875 C21.43703927 20.49953927 22.05714375 20.46025091 25.1875 20.6875 C26.486875 20.8525 27.78625 21.0175 29.125 21.1875 C29.62 22.1775 29.62 22.1775 30.125 23.1875 C32.10388961 23.91443904 34.10454558 24.58566251 36.125 25.1875 C35.63 26.6725 35.63 26.6725 35.125 28.1875 C37.435 28.5175 39.745 28.8475 42.125 29.1875 C37.30998226 32.39751182 37.30998226 32.39751182 33.6784668 31.75390625 C28.53882221 30.93467056 23.46503923 31.08570025 18.26953125 31.125 C17.13094162 31.12878662 15.99235199 31.13257324 14.81925964 31.13647461 C11.19196752 31.14866536 7.56475584 31.16730182 3.9375 31.1875 C-0.84765402 31.2140298 -5.63276912 31.23404559 -10.41796875 31.25 C-11.52109909 31.25829834 -12.62422943 31.26659668 -13.76078796 31.27514648 C-14.78227432 31.27844971 -15.80376068 31.28175293 -16.85620117 31.28515625 C-17.75521652 31.29039307 -18.65423187 31.29562988 -19.58049011 31.30102539 C-21.875 31.1875 -21.875 31.1875 -24.875 30.1875 C-24.6875 28.375 -24.6875 28.375 -23.875 26.1875 C-21.38090849 24.23267152 -19.90291294 23.09939318 -16.6875 23.375 C-14.875 24.1875 -14.875 24.1875 -12.875 26.1875 C-9.64760607 26.28474254 -9.64760607 26.28474254 -6 25.9375 C-4.76507813 25.84984375 -3.53015625 25.7621875 -2.2578125 25.671875 C0.72570909 25.24467329 2.58991692 24.74167154 5.125 23.1875 C4.57972656 23.01734375 4.03445312 22.8471875 3.47265625 22.671875 C-10.97088807 18.03018896 -10.97088807 18.03018896 -14.8125 14.3125 C-16.12446898 11.68856205 -16.94839839 8.96730482 -17.875 6.1875 C-21.49839206 4.37580397 -25.82706893 5.23644047 -29.80859375 5.34765625 C-32.875 5.1875 -32.875 5.1875 -35.875 3.1875 C-35.5 1.25 -35.5 1.25 -34.875 -0.8125 C-25.75066842 -5.37466579 -9.57878935 -1.75231673 0 0 Z " fill="#98A9BE" transform="translate(37.875,77.8125)"/>
<path d="M0 0 C2.15502531 3.23253796 2.46856135 4.25150923 2 8 C0.625 9.8125 0.625 9.8125 -1 11 C-1.66 11 -2.32 11 -3 11 C-2.30910764 14.15826618 -2.30910764 14.15826618 0.328125 15.39453125 C1.29234375 15.86246094 2.2565625 16.33039062 3.25 16.8125 C8.11996844 19.33907247 10.82124559 21.59076001 14 26 C14.66 26.33 15.32 26.66 16 27 C16.72693904 28.97888961 17.39816251 30.97954558 18 33 C12.06 33.495 12.06 33.495 6 34 C6 34.66 6 35.32 6 36 C7.32 36.66 8.64 37.32 10 38 C7.36 38 4.72 38 2 38 C2 38.99 2 39.98 2 41 C0.35 40.34 -1.3 39.68 -3 39 C-3.37125 39.78375 -3.7425 40.5675 -4.125 41.375 C-6.48044261 44.67261965 -8.13935809 44.9962331 -12 46 C-12.845625 46.37125 -13.69125 46.7425 -14.5625 47.125 C-17.19828544 48.07117939 -19.22167661 48.15876134 -22 48 C-21.72510809 43.96825194 -21.46508424 42.43105369 -18.4375 39.625 C-17.633125 39.08875 -16.82875 38.5525 -16 38 C-16.58803797 34.97580475 -17.22678118 31.98241547 -18 29 C-13.25 26 -13.25 26 -11 26 C-10.74988655 23.77308629 -10.52571648 21.54324878 -10.3125 19.3125 C-10.18488281 18.07113281 -10.05726562 16.82976563 -9.92578125 15.55078125 C-10.00751237 11.64059225 -10.89067853 10.1861856 -13 7 C-12.416926 3.69591402 -11.89650754 1.76369161 -9.3125 -0.4375 C-5.94236088 -1.25726357 -3.34682884 -0.80571805 0 0 Z " fill="#BFCBDA" transform="translate(84,21)"/>
<path d="M0 0 C4.40709872 5.2083894 6.35438865 11.61286534 6.0625 18.4375 C4.0625 20.4375 4.0625 20.4375 1.4375 20.5625 C0.65375 20.52125 -0.13 20.48 -0.9375 20.4375 C-1.5975 19.1175 -2.2575 17.7975 -2.9375 16.4375 C-3.9275 16.4375 -4.9175 16.4375 -5.9375 16.4375 C-5.4425 18.4175 -5.4425 18.4175 -4.9375 20.4375 C-5.5975 20.4375 -6.2575 20.4375 -6.9375 20.4375 C-9.27741708 16.78137956 -9.31187949 13.70542624 -8.9375 9.4375 C-7.4375 6.5 -7.4375 6.5 -5.9375 4.4375 C-11.65408336 3.98017333 -14.42399253 4.91476246 -18.9375 8.4375 C-18.9375 7.7775 -18.9375 7.1175 -18.9375 6.4375 C-22.2375 7.4275 -25.5375 8.4175 -28.9375 9.4375 C-29.30267527 16.01065478 -28.07369737 21.23235526 -25.9375 27.4375 C-28.01303648 27.9909764 -29.78115964 28.4375 -31.9375 28.4375 C-31.73125 29.38625 -31.525 30.335 -31.3125 31.3125 C-31.18875 32.34375 -31.065 33.375 -30.9375 34.4375 C-32.9375 36.4375 -32.9375 36.4375 -35.5625 36.5625 C-36.34625 36.52125 -37.13 36.48 -37.9375 36.4375 C-37.9375 35.7775 -37.9375 35.1175 -37.9375 34.4375 C-39.2575 34.4375 -40.5775 34.4375 -41.9375 34.4375 C-41.9375 33.7775 -41.9375 33.1175 -41.9375 32.4375 C-42.62457031 32.24414062 -43.31164063 32.05078125 -44.01953125 31.8515625 C-44.92058594 31.59117188 -45.82164063 31.33078125 -46.75 31.0625 C-48.08998047 30.67964844 -48.08998047 30.67964844 -49.45703125 30.2890625 C-51.9375 29.4375 -51.9375 29.4375 -54.9375 27.4375 C-52.9575 27.1075 -50.9775 26.7775 -48.9375 26.4375 C-48.9375 25.7775 -48.9375 25.1175 -48.9375 24.4375 C-49.5975 23.7775 -50.2575 23.1175 -50.9375 22.4375 C-49.2359375 22.2209375 -49.2359375 22.2209375 -47.5 22 C-44.12972799 21.82578522 -44.12972799 21.82578522 -42.9375 20.4375 C-41.08462498 20.36523498 -39.22916122 20.3536878 -37.375 20.375 C-36.36308594 20.38402344 -35.35117188 20.39304687 -34.30859375 20.40234375 C-33.13490234 20.41974609 -33.13490234 20.41974609 -31.9375 20.4375 C-31.66817479 15.78697128 -31.66817479 15.78697128 -32.9375 11.4375 C-35.96684491 10.77977572 -35.96684491 10.77977572 -38.9375 10.4375 C-36.48102494 8.79984996 -34.71495872 7.89633379 -32 6.9375 C-26.52060647 5.23417929 -26.52060647 5.23417929 -22.6875 1.3125 C-22.44 0.69375 -22.1925 0.075 -21.9375 -0.5625 C-19.4625 0.9225 -19.4625 0.9225 -16.9375 2.4375 C-16.9375 1.4475 -16.9375 0.4575 -16.9375 -0.5625 C-11.27863783 -2.16998279 -5.29019252 -2.81393219 0 0 Z " fill="#83737D" transform="translate(102.9375,59.5625)"/>
<path d="M0 0 C1.3617334 0.24786255 1.3617334 0.24786255 2.75097656 0.50073242 C7.87874784 1.5175777 12.47193888 2.77592655 17.125 5.1875 C17.785 6.1775 18.445 7.1675 19.125 8.1875 C16.815 8.5175 14.505 8.8475 12.125 9.1875 C13.115 10.1775 14.105 11.1675 15.125 12.1875 C14.465 12.8475 13.805 13.5075 13.125 14.1875 C13.125 15.1775 13.125 16.1675 13.125 17.1875 C14.115 18.1775 15.105 19.1675 16.125 20.1875 C8.865 19.1975 1.605 18.2075 -5.875 17.1875 C-5.875 16.8575 -5.875 16.5275 -5.875 16.1875 C-5.070625 16.06375 -4.26625 15.94 -3.4375 15.8125 C-2.591875 15.60625 -1.74625 15.4 -0.875 15.1875 C-0.545 14.5275 -0.215 13.8675 0.125 13.1875 C0.785 13.5175 1.445 13.8475 2.125 14.1875 C2.125 12.2075 2.125 10.2275 2.125 8.1875 C-3.815 7.1975 -9.755 6.2075 -15.875 5.1875 C-16.205 5.8475 -16.535 6.5075 -16.875 7.1875 C-17.865 6.5275 -18.855 5.8675 -19.875 5.1875 C-22.9789493 5.02045522 -22.9789493 5.02045522 -26.375 5.1875 C-32.54166667 5.40972222 -32.54166667 5.40972222 -35.875 3.1875 C-35.5 1.25 -35.5 1.25 -34.875 -0.8125 C-25.75066842 -5.37466579 -9.57878935 -1.75231673 0 0 Z " fill="#E19877" transform="translate(37.875,77.8125)"/>
<path d="M0 0 C-0.495 0.7425 -0.99 1.485 -1.5 2.25 C-4.003491 7.11594026 -3.23217124 12.68585836 -3 18 C0.63 18 4.26 18 8 18 C6.68 18.99 5.36 19.98 4 21 C3.67 21.33 3.34 21.66 3 22 C-0.56326446 22.07290567 -4.11632664 21.9960357 -7.6796875 21.9375 C-11.00187243 21.83489228 -11.00187243 21.83489228 -14 23 C-17.22472044 22.48841333 -20.11541756 21.5310476 -23 20 C-25.14875637 16.13223853 -25.486821 12.38138904 -25 8 C-23.00803565 5.06447359 -20.35175176 3.98100052 -17 3 C-16.34 3.20625 -15.68 3.4125 -15 3.625 C-14.34 3.74875 -13.68 3.8725 -13 4 C-12.2575 3.360625 -11.515 2.72125 -10.75 2.0625 C-6.9366779 -0.79749157 -4.67620234 -0.31703067 0 0 Z " fill="#EDA061" transform="translate(98,63)"/>
<path d="M0 0 C9.76374745 -0.38289206 9.76374745 -0.38289206 14 2 C14.33 2.66 14.66 3.32 15 4 C15.99 4.33 16.98 4.66 18 5 C19.00642948 6.32848691 20.00692179 7.66150329 21 9 C21.66 9 22.32 9 23 9 C23 10.98 23 12.96 23 15 C24.32 15.33 25.64 15.66 27 16 C27 16.66 27 17.32 27 18 C26.01 18 25.02 18 24 18 C24 18.99 24 19.98 24 21 C23.34 21 22.68 21 22 21 C21.67 21.99 21.34 22.98 21 24 C21 22.68 21 21.36 21 20 C20.34 20 19.68 20 19 20 C18.67 20.66 18.34 21.32 18 22 C14.91061327 21.56606098 11.95149447 21.02614682 9 20 C7.3125 17.6875 7.3125 17.6875 6 15 C2.10613719 11.00327728 2.10613719 11.00327728 -3.125 9.8125 C-4.548125 9.9053125 -4.548125 9.9053125 -6 10 C-8.375 9 -8.375 9 -10 8 C-10 7.34 -10 6.68 -10 6 C-6.3791799 4.98617037 -2.72188582 4.50102309 1 4 C0.67 2.68 0.34 1.36 0 0 Z " fill="#EFA96A" transform="translate(100,49)"/>
<path d="M0 0 C4.40709872 5.2083894 6.35438865 11.61286534 6.0625 18.4375 C4.0625 20.4375 4.0625 20.4375 1.4375 20.5625 C0.65375 20.52125 -0.13 20.48 -0.9375 20.4375 C-1.5975 19.1175 -2.2575 17.7975 -2.9375 16.4375 C-3.9275 16.4375 -4.9175 16.4375 -5.9375 16.4375 C-5.6075 17.7575 -5.2775 19.0775 -4.9375 20.4375 C-5.5975 20.4375 -6.2575 20.4375 -6.9375 20.4375 C-9.27741708 16.78137956 -9.31187949 13.70542624 -8.9375 9.4375 C-7.4375 6.5 -7.4375 6.5 -5.9375 4.4375 C-11.65408336 3.98017333 -14.42399253 4.91476246 -18.9375 8.4375 C-18.9375 7.7775 -18.9375 7.1175 -18.9375 6.4375 C-20.5875 6.7675 -22.2375 7.0975 -23.9375 7.4375 C-23.2775 6.4475 -22.6175 5.4575 -21.9375 4.4375 C-22.2496764 1.79117713 -22.2496764 1.79117713 -22.9375 -0.5625 C-20.9575 0.4275 -18.9775 1.4175 -16.9375 2.4375 C-16.9375 1.4475 -16.9375 0.4575 -16.9375 -0.5625 C-11.27863783 -2.16998279 -5.29019252 -2.81393219 0 0 Z " fill="#93565F" transform="translate(102.9375,59.5625)"/>
<path d="M0 0 C1.32 0 2.64 0 4 0 C4.66 0.99 5.32 1.98 6 3 C7.32 3 8.64 3 10 3 C10.66 2.01 11.32 1.02 12 0 C14 3 14 3 13.625 5.1875 C13.41875 5.785625 13.2125 6.38375 13 7 C12.01 7 11.02 7 10 7 C10 7.66 10 8.32 10 9 C11.32 9.66 12.64 10.32 14 11 C11.36 11 8.72 11 6 11 C6 11.99 6 12.98 6 14 C4.35 13.34 2.7 12.68 1 12 C0.443125 13.175625 0.443125 13.175625 -0.125 14.375 C-2.48044261 17.67261965 -4.13935809 17.9962331 -8 19 C-9.2684375 19.556875 -9.2684375 19.556875 -10.5625 20.125 C-13.19828544 21.07117939 -15.22167661 21.15876134 -18 21 C-17.72510809 16.96825194 -17.46508424 15.43105369 -14.4375 12.625 C-13.633125 12.08875 -12.82875 11.5525 -12 11 C-12.33 9.02 -12.66 7.04 -13 5 C-12.01 5.33 -11.02 5.66 -10 6 C-7.77181559 6.06937062 -5.54165476 6.08457084 -3.3125 6.0625 C-2.13300781 6.05347656 -0.95351562 6.04445313 0.26171875 6.03515625 C1.16535156 6.02355469 2.06898437 6.01195312 3 6 C3 4.35 3 2.7 3 1 C2.01 0.67 1.02 0.34 0 0 Z " fill="#AA8D98" transform="translate(80,48)"/>
<path d="M0 0 C1.9375 1.6875 1.9375 1.6875 3 4 C2.23021995 7.49900021 1.543667 9.456333 -1 12 C-1.47422766 14.44157042 -1.47422766 14.44157042 -1 17 C1.24442251 19.61756471 3.94095463 21.42498965 7 23 C9.74239143 22.78670551 9.74239143 22.78670551 12 22 C14.41995865 23.55568771 14.92429462 24.74764874 15.75 27.5 C16 30 16 30 15 33 C13.515 33.495 13.515 33.495 12 34 C11.9175 33.38125 11.835 32.7625 11.75 32.125 C11.18741541 29.81562433 11.18741541 29.81562433 8.9375 28.75 C8.298125 28.5025 7.65875 28.255 7 28 C7 27.01 7 26.02 7 25 C6.278125 24.938125 5.55625 24.87625 4.8125 24.8125 C1.1288673 23.74833944 -0.37943656 21.75159161 -3 19 C-3.86625 18.525625 -4.7325 18.05125 -5.625 17.5625 C-8.79835791 15.47476453 -9.6838368 13.53285912 -11 10 C-11.41699092 6.52507571 -11.42011524 4.74020305 -9.6875 1.6875 C-6.60183884 -1.39816116 -3.94476861 -1.2820498 0 0 Z " fill="#958A9E" transform="translate(111,21)"/>
<path d="M0 0 C1.19379946 3.58139839 0.7377927 4.45241375 -0.625 7.875 C-0.94726562 8.71804687 -1.26953125 9.56109375 -1.6015625 10.4296875 C-4.93521671 16.5569067 -9.41278011 18.98598855 -15.6875 21.25 C-17.02487087 21.75486069 -18.36211627 22.26005391 -19.69921875 22.765625 C-20.78847656 23.17296875 -21.87773438 23.5803125 -23 24 C-23.66 24.33 -24.32 24.66 -25 25 C-24.67 23.68 -24.34 22.36 -24 21 C-24.99 20.34 -25.98 19.68 -27 19 C-23.78548731 17.39274365 -20.56387464 17.94251815 -17 18 C-17 17.01 -17 16.02 -17 15 C-15.35 14.34 -13.7 13.68 -12 13 C-12 12.67 -12 12.34 -12 12 C-12.33 12.33 -12.66 12.66 -13 13 C-17.59159659 13.41741787 -20.35610511 12.89368124 -24 10 C-24 9.01 -24 8.02 -24 7 C-18.06 6.505 -18.06 6.505 -12 6 C-12.33 4.68 -12.66 3.36 -13 2 C-12.01 2 -11.02 2 -10 2 C-10 3.65 -10 5.3 -10 7 C-5.56541027 5.6062718 -3.12621626 3.39417765 0 0 Z " fill="#C38464" transform="translate(128,82)"/>
<path d="M0 0 C3.26460973 1.80412643 4.88929795 2.83394693 7 6 C7.99 6.2165625 7.99 6.2165625 9 6.4375 C9.66 6.623125 10.32 6.80875 11 7 C12 8.8125 12 8.8125 13 11 C14.91666921 13.25065102 14.91666921 13.25065102 17 15 C17.66 15 18.32 15 19 15 C19.33 14.01 19.66 13.02 20 12 C19.97679688 12.59167969 19.95359375 13.18335938 19.9296875 13.79296875 C19.82268927 18.47796247 20.16954536 21.65267022 22 26 C22.19301882 29.7316971 22.18329948 32.45010155 21 36 C18.4375 37.1875 18.4375 37.1875 16 38 C15.875 31.375 15.875 31.375 17 28 C17.99 28 18.98 28 20 28 C19.67 27.34 19.34 26.68 19 26 C18.01 25.67 17.02 25.34 16 25 C16 23.02 16 21.04 16 19 C14.68 19.33 13.36 19.66 12 20 C11.505 17.525 11.505 17.525 11 15 C10.360625 14.87625 9.72125 14.7525 9.0625 14.625 C8.381875 14.41875 7.70125 14.2125 7 14 C6.67 13.34 6.34 12.68 6 12 C2.71289494 11.38876146 -0.57713685 11.03941785 -3.8984375 10.66015625 C-7 10 -7 10 -10 7 C-6.7 7 -3.4 7 0 7 C0 4.69 0 2.38 0 0 Z " fill="#E09E7C" transform="translate(107,39)"/>
<path d="M0 0 C6.09718475 -0.27098599 12.10740139 0.34844122 18 2 C19.3418344 4.68366879 18.73004953 6.15280683 18 9 C17 10 16 11 15 12 C15.71285156 12.04898438 16.42570312 12.09796875 17.16015625 12.1484375 C22.70508491 12.58128523 27.72086449 13.24028816 33 15 C33 15.33 33 15.66 33 16 C23.26996525 16.35098322 11.33242539 16.70113316 3 11 C0.15923823 8.34862234 0.01098532 7.21970648 -0.1875 3.25 C-0.125625 2.1775 -0.06375 1.105 0 0 Z " fill="#ECD3A1" transform="translate(22,83)"/>
<path d="M0 0 C1.42348755 -0.0009668 1.42348755 -0.0009668 2.87573242 -0.00195312 C9.43792784 0.04750078 15.68862545 0.51566405 22.0625 2.1875 C22.0625 2.8475 22.0625 3.5075 22.0625 4.1875 C23.3825 4.5175 24.7025 4.8475 26.0625 5.1875 C13.57730638 8.81620159 13.57730638 8.81620159 7.0625 7.1875 C6.7325 7.8475 6.4025 8.5075 6.0625 9.1875 C5.0725 8.5275 4.0825 7.8675 3.0625 7.1875 C-0.0414493 7.02045522 -0.0414493 7.02045522 -3.4375 7.1875 C-9.60416667 7.40972222 -9.60416667 7.40972222 -12.9375 5.1875 C-12.5625 3.25 -12.5625 3.25 -11.9375 1.1875 C-8.29937046 -0.63156477 -4.00506964 -0.00274437 0 0 Z " fill="#A2ABBF" transform="translate(14.9375,75.8125)"/>
<path d="M0 0 C2.15502531 3.23253796 2.46856135 4.25150923 2 8 C0.625 9.8125 0.625 9.8125 -1 11 C-1.66 11 -2.32 11 -3 11 C-3 12.32 -3 13.64 -3 15 C-0.799401 17.02638936 -0.799401 17.02638936 2 18.75 C3.3921875 19.67039062 3.3921875 19.67039062 4.8125 20.609375 C5.534375 21.06828125 6.25625 21.5271875 7 22 C5.375 22.71484375 5.375 22.71484375 3 23 C-3.48588513 19.90686728 -9.95628687 15.79775893 -12.6484375 8.890625 C-13.24141366 5.70173097 -12.58296429 3.77018751 -11 1 C-7.59208163 -1.90304157 -4.12818424 -0.99382213 0 0 Z " fill="#819EBC" transform="translate(84,21)"/>
<path d="M0 0 C2.28467375 1.65638847 3.55521 2.6339676 5 5 C5.55091535 8.71199272 5.56773559 12.28880212 5 16 C4.34 16.66 3.68 17.32 3 18 C3.763125 18.2475 4.52625 18.495 5.3125 18.75 C8.2364045 20.10995558 9.30004356 21.31585826 11 24 C10 25 10 25 7.890625 25.1328125 C3.42841816 25.1196107 -0.62455958 24.92812373 -5 24 C-5.99 24.33 -6.98 24.66 -8 25 C-10.26171875 24.87890625 -10.26171875 24.87890625 -12.6875 24.5625 C-13.49574219 24.46066406 -14.30398437 24.35882813 -15.13671875 24.25390625 C-15.75160156 24.17011719 -16.36648437 24.08632812 -17 24 C-17 23.34 -17 22.68 -17 22 C-17.99 21.67 -18.98 21.34 -20 21 C-15.03926578 19.67713754 -10.08888488 19.91106803 -5 20 C-5 19.34 -5 18.68 -5 18 C-6.98 17.67 -8.96 17.34 -11 17 C-10.67 16.01 -10.34 15.02 -10 14 C-10 14.66 -10 15.32 -10 16 C-9.34 16 -8.68 16 -8 16 C-8.33 14.68 -8.66 13.36 -9 12 C-8.01 12 -7.02 12 -6 12 C-5.01 13.485 -5.01 13.485 -4 15 C-1.41619823 15.25030977 -1.41619823 15.25030977 1 15 C1.97798721 11.20431539 1.92653069 8.4994001 1.0625 4.6875 C0.86785156 3.80449219 0.67320313 2.92148438 0.47265625 2.01171875 C0.31667969 1.34785156 0.16070312 0.68398437 0 0 Z " fill="#E99B60" transform="translate(106,64)"/>
<path d="M0 0 C1.8125 0.8125 1.8125 0.8125 3.8125 2.8125 C6.66933125 2.83013486 6.66933125 2.83013486 10 2.4375 C17.63190537 1.76525963 25.15252334 1.71594567 32.8125 1.8125 C28.84876513 7.60899629 28.84876513 7.60899629 24.26318359 8.50952148 C22.91221009 8.51528254 21.56081487 8.48830834 20.2109375 8.43359375 C19.13351791 8.42441673 19.13351791 8.42441673 18.03433228 8.41505432 C15.75059951 8.38821993 13.47030162 8.31913931 11.1875 8.25 C9.64586817 8.2284625 8.10419721 8.20955505 6.5625 8.19335938 C-4.5413765 8.0278745 -4.5413765 8.0278745 -8.1875 6.8125 C-8 5 -8 5 -7.1875 2.8125 C-4.69340849 0.85767152 -3.21541294 -0.27560682 0 0 Z " fill="#E9D4B3" transform="translate(21.1875,101.1875)"/>
<path d="M0 0 C-1.02692909 5.01573785 -3.68295126 8.41644049 -7.86328125 11.2734375 C-12.32783547 13.71810602 -15.8317807 14.51682193 -21 14 C-21.66 13.67 -22.32 13.34 -23 13 C-23 12.01 -23 11.02 -23 10 C-22.34 10 -21.68 10 -21 10 C-21 9.34 -21 8.68 -21 8 C-17.53846154 5 -17.53846154 5 -15 5 C-15 4.34 -15 3.68 -15 3 C-9.8531808 -0.16727335 -5.841744 -0.35050464 0 0 Z " fill="#FBDE8E" transform="translate(101,108)"/>
<path d="M0 0 C9.76374745 -0.38289206 9.76374745 -0.38289206 14 2 C14.33 2.66 14.66 3.32 15 4 C15.99 4.33 16.98 4.66 18 5 C19.00642948 6.32848691 20.00692179 7.66150329 21 9 C21.66 9 22.32 9 23 9 C22.67 10.98 22.34 12.96 22 15 C18.846632 15.70074844 16.27275026 16 13 16 C12.67 15.01 12.34 14.02 12 13 C11.525625 12.525625 11.05125 12.05125 10.5625 11.5625 C9 10 9 10 8.1875 7.9375 C7.07945138 5.65976803 7.07945138 5.65976803 3.9375 5 C2.968125 4.67 1.99875 4.34 1 4 C0.31640625 1.9375 0.31640625 1.9375 0 0 Z " fill="#F9CC84" transform="translate(100,49)"/>
<path d="M0 0 C2.33333333 0.33333333 4.66666667 0.66666667 7 1 C8.19625 1.165 9.3925 1.33 10.625 1.5 C13.44268775 1.91743522 16.21452996 2.40914272 19 3 C18.45276317 6.37462715 17.9451 8.08235 16 11 C15.34 11 14.68 11 14 11 C13.34 12.65 12.68 14.3 12 16 C5.54673998 17.33935585 5.54673998 17.33935585 3.1875 15.875 C1.7908333 13.6697368 0.86412443 11.45943107 0 9 C2.84752635 7.57623682 4.91874027 8.48645671 8 9 C8.66 8.67 9.32 8.34 10 8 C9.360625 7.731875 8.72125 7.46375 8.0625 7.1875 C6 6 6 6 5 3 C2.49552484 1.78130071 2.49552484 1.78130071 0 1 C0 0.67 0 0.34 0 0 Z " fill="#CC8561" transform="translate(67,100)"/>
<path d="M0 0 C1.5625 1.6875 1.5625 1.6875 1.5625 3.6875 C2.119375 3.749375 2.67625 3.81125 3.25 3.875 C6.51237173 5.02123872 8.24917874 7.18140197 10.5625 9.6875 C9.9025 11.0075 9.2425 12.3275 8.5625 13.6875 C6.9125 13.6875 5.2625 13.6875 3.5625 13.6875 C3.5625 13.0275 3.5625 12.3675 3.5625 11.6875 C2.2425 11.6875 0.9225 11.6875 -0.4375 11.6875 C-0.4375 11.0275 -0.4375 10.3675 -0.4375 9.6875 C-1.12457031 9.49414062 -1.81164063 9.30078125 -2.51953125 9.1015625 C-3.42058594 8.84117188 -4.32164063 8.58078125 -5.25 8.3125 C-6.14332031 8.05726562 -7.03664063 7.80203125 -7.95703125 7.5390625 C-10.4375 6.6875 -10.4375 6.6875 -13.4375 4.6875 C-11.4575 4.3575 -9.4775 4.0275 -7.4375 3.6875 C-7.4375 3.0275 -7.4375 2.3675 -7.4375 1.6875 C-8.0975 1.0275 -8.7575 0.3675 -9.4375 -0.3125 C-3.07852564 -1.65766765 -3.07852564 -1.65766765 0 0 Z " fill="#AF6F67" transform="translate(61.4375,82.3125)"/>
<path d="M0 0 C-0.99 0.99 -1.98 1.98 -3 3 C-2.34 2.525625 -1.68 2.05125 -1 1.5625 C2.7933028 -0.41317854 5.75524068 -0.64027463 10 -1 C10 2.10551666 9.4606285 3.35261084 8 6 C7.34773438 5.97679688 6.69546875 5.95359375 6.0234375 5.9296875 C0.91301097 5.82416247 -3.20425033 5.98073698 -8 8 C-8 8.66 -8 9.32 -8 10 C-11.46153846 13 -11.46153846 13 -14 13 C-14 13.66 -14 14.32 -14 15 C-14.66 15 -15.32 15 -16 15 C-16 15.66 -16 16.32 -16 17 C-20.875 15.25 -20.875 15.25 -22 13 C-20.329375 12.87625 -20.329375 12.87625 -18.625 12.75 C-17.42875 12.5025 -16.2325 12.255 -15 12 C-13.6237206 10.08235826 -13.6237206 10.08235826 -13 8 C-12.34 7.67 -11.68 7.34 -11 7 C-11.33 6.34 -11.66 5.68 -12 5 C-11.38125 4.731875 -10.7625 4.46375 -10.125 4.1875 C-7.7004767 3.04443152 -7.7004767 3.04443152 -6 0 C-3 -1 -3 -1 0 0 Z " fill="#DA8B58" transform="translate(94,103)"/>
<path d="M0 0 C-0.474375 0.804375 -0.94875 1.60875 -1.4375 2.4375 C-3.29359618 6.66939929 -3.70559978 10.43172078 -4 15 C-8.40114397 14.49701212 -10.71195019 12.91227269 -14 10 C-13.74919159 6.32147666 -13.38558753 4.44400988 -10.9375 1.625 C-6.98286986 -0.56266774 -4.47232658 -0.30320858 0 0 Z " fill="#CDD3D2" transform="translate(98,63)"/>
<path d="M0 0 C2.31 0 4.62 0 7 0 C7.33 0.66 7.66 1.32 8 2 C9.97888961 2.72693904 11.97954558 3.39816251 14 4 C13.67 4.99 13.34 5.98 13 7 C15.31 7.33 17.62 7.66 20 8 C15.34875728 11.10082848 13.32776158 10.93469501 8 10 C4.00379737 9.61722197 0.00286713 9.30442517 -4 9 C-1.94766315 6.7522025 -0.99332739 5.9977758 2 5 C2.66 4.01 3.32 3.02 4 2 C3.34 1.67 2.68 1.34 2 1 C2 1.66 2 2.32 2 3 C1.34 3 0.68 3 0 3 C0 2.01 0 1.02 0 0 Z " fill="#8E7A89" transform="translate(60,99)"/>
<path d="M0 0 C1.15048828 0.40798828 1.15048828 0.40798828 2.32421875 0.82421875 C3.1234375 1.10523437 3.92265625 1.38625 4.74609375 1.67578125 C7.18746656 2.57656363 9.61178422 3.50529459 12.01171875 4.51171875 C12.01171875 5.17171875 12.01171875 5.83171875 12.01171875 6.51171875 C9.70171875 6.84171875 7.39171875 7.17171875 5.01171875 7.51171875 C8.31171875 8.17171875 11.61171875 8.83171875 15.01171875 9.51171875 C11.65974032 11.74637104 10.43380629 11.78280524 6.51171875 11.76171875 C5.073125 11.76945312 5.073125 11.76945312 3.60546875 11.77734375 C1.01171875 11.51171875 1.01171875 11.51171875 -1.98828125 9.51171875 C-1.65828125 7.86171875 -1.32828125 6.21171875 -0.98828125 4.51171875 C-1.97828125 4.18171875 -2.96828125 3.85171875 -3.98828125 3.51171875 C-3.98828125 2.52171875 -3.98828125 1.53171875 -3.98828125 0.51171875 C-1.98828125 -0.48828125 -1.98828125 -0.48828125 0 0 Z " fill="#E39363" transform="translate(74.98828125,87.48828125)"/>
<path d="M0 0 C0.33 0.66 0.66 1.32 1 2 C2.98985949 2.38932033 4.99199544 2.71887936 7 3 C7.99 3.33 8.98 3.66 10 4 C10.33 5.98 10.66 7.96 11 10 C8.75026553 10.054138 6.50015617 10.09285491 4.25 10.125 C2.99703125 10.14820313 1.7440625 10.17140625 0.453125 10.1953125 C-2.72820492 10.01537302 -4.36521896 9.68998582 -7 8 C-6.875 6.125 -6.875 6.125 -6 4 C-2.9375 2.75 -2.9375 2.75 0 2 C0 1.34 0 0.68 0 0 Z " fill="#B2CADF" transform="translate(73,45)"/>
<path d="M0 0 C6.50263274 -0.5780118 12.16196203 1.10518515 18 4 C18.99 5.485 18.99 5.485 20 7 C10.50272691 8.5505752 3.19588359 7.53679547 -6 5 C-3.08235 3.0549 -1.37462715 2.54723683 2 2 C1.34 1.34 0.68 0.68 0 0 Z " fill="#B8919C" transform="translate(37,79)"/>
<path d="M0 0 C1 3 1 3 0.3125 5.125 C-1.35011377 7.50016253 -2.2159916 7.44319832 -5 8 C-6.68991979 8.9601817 -8.36209288 9.95355934 -10 11 C-10.33 10.67 -10.66 10.34 -11 10 C-11.99 11.485 -11.99 11.485 -13 13 C-16.55707721 13.47427696 -18.60179982 13.18178704 -21.875 11.6875 C-22.57625 11.130625 -23.2775 10.57375 -24 10 C-24 9.01 -24 8.02 -24 7 C-18.06 6.505 -18.06 6.505 -12 6 C-12.33 4.68 -12.66 3.36 -13 2 C-12.01 2 -11.02 2 -10 2 C-10 3.65 -10 5.3 -10 7 C-5.56541027 5.6062718 -3.12621626 3.39417765 0 0 Z " fill="#C97852" transform="translate(128,82)"/>
<path d="M0 0 C0.33 0 0.66 0 1 0 C1 2.31 1 4.62 1 7 C3.52363988 6.37466625 3.52363988 6.37466625 6 5 C6.89386164 2.45224694 6.89386164 2.45224694 7 0 C7.33 0 7.66 0 8 0 C8.22346069 5.47478685 8.43018146 11.16240577 4.671875 15.55078125 C1.56048776 18.34002991 0.26476202 19 -4 19 C-4 17.35 -4 15.7 -4 14 C-4.99 13.67 -5.98 13.34 -7 13 C-4.03 12.34 -1.06 11.68 2 11 C1.34 10.01 0.68 9.02 0 8 C-0.25760279 5.30547479 -0.08900053 2.71451625 0 0 Z " fill="#EA9E65" transform="translate(122,70)"/>
<path d="M0 0 C3.77445603 0.94361401 5.62492346 1.90252063 8.75 4.0625 C9.94882813 4.88427734 9.94882813 4.88427734 11.171875 5.72265625 C12.07679687 6.35494141 12.07679687 6.35494141 13 7 C12 10 12 10 9 12 C6.73828125 11.9765625 6.73828125 11.9765625 4.3125 11.625 C2.889375 11.41875 1.46625 11.2125 0 11 C0 7.37 0 3.74 0 0 Z " fill="#F6E9C8" transform="translate(74,36)"/>
<path d="M0 0 C1.875 1.8125 1.875 1.8125 3 4 C2.6875 6.25 2.6875 6.25 2 8 C-4.0546875 8.1953125 -4.0546875 8.1953125 -6 8 C-6.66 7.34 -7.32 6.68 -8 6 C-8.66 6.99 -9.32 7.98 -10 9 C-10.6875 6.75 -10.6875 6.75 -11 4 C-8.32594173 -0.81330489 -5.14194995 -1.67113373 0 0 Z " fill="#859FBB" transform="translate(111,21)"/>
<path d="M0 0 C-0.171875 1.83203125 -0.171875 1.83203125 -1 4 C-3.328125 5.44921875 -3.328125 5.44921875 -6.25 6.6875 C-7.20390625 7.10386719 -8.1578125 7.52023438 -9.140625 7.94921875 C-11.76926494 8.91520802 -14.24279365 9.54214274 -17 10 C-16.64426042 7.36752711 -16.34776706 5.46948554 -14.75 3.3125 C-9.98879609 -0.25840293 -5.72892893 -0.19420098 0 0 Z " fill="#B3B9CB" transform="translate(79,58)"/>
<path d="M0 0 C3 1 3 1 4 3 C5.18078125 2.90460938 6.3615625 2.80921875 7.578125 2.7109375 C9.13537391 2.59836529 10.69266815 2.48641886 12.25 2.375 C13.02730469 2.31054688 13.80460937 2.24609375 14.60546875 2.1796875 C18.71357024 1.89879167 21.39969714 1.75830199 25 4 C28.16695956 4.16724737 28.16695956 4.16724737 31 4 C31 4.66 31 5.32 31 6 C26.74433453 7.16063604 23.3164922 6.76173392 19 6 C18.67 6.66 18.34 7.32 18 8 C17.01 7.34 16.02 6.68 15 6 C11.8960507 5.83295522 11.8960507 5.83295522 8.5 6 C2.33333333 6.22222222 2.33333333 6.22222222 -1 4 C-0.67 2.68 -0.34 1.36 0 0 Z " fill="#8BA0B8" transform="translate(3,77)"/>
<path d="M0 0 C1.32 0 2.64 0 4 0 C4.66 0.99 5.32 1.98 6 3 C7.32 3 8.64 3 10 3 C10.66 2.01 11.32 1.02 12 0 C12.33 0.66 12.66 1.32 13 2 C12.0625 4.125 12.0625 4.125 11 6 C9.68 6 8.36 6 7 6 C7 6.66 7 7.32 7 8 C4.39643759 8.50333542 1.79223349 9.00279378 -0.8125 9.5 C-1.55048828 9.64308594 -2.28847656 9.78617188 -3.04882812 9.93359375 C-6.07794391 10.50926281 -8.909196 11 -12 11 C-12.33 9.02 -12.66 7.04 -13 5 C-12.01 5.33 -11.02 5.66 -10 6 C-7.77181559 6.06937062 -5.54165476 6.08457084 -3.3125 6.0625 C-2.13300781 6.05347656 -0.95351562 6.04445313 0.26171875 6.03515625 C1.16535156 6.02355469 2.06898437 6.01195312 3 6 C3 4.35 3 2.7 3 1 C2.01 0.67 1.02 0.34 0 0 Z " fill="#9DA8BD" transform="translate(80,48)"/>
<path d="M0 0 C1.8125 0.8125 1.8125 0.8125 3.8125 2.8125 C3.8125 3.8025 3.8125 4.7925 3.8125 5.8125 C8.7625 5.8125 13.7125 5.8125 18.8125 5.8125 C18.8125 6.1425 18.8125 6.4725 18.8125 6.8125 C14.87540089 7.00915429 10.93781328 7.19325477 7 7.375 C5.88044922 7.43107422 4.76089844 7.48714844 3.60742188 7.54492188 C1.99770508 7.61743164 1.99770508 7.61743164 0.35546875 7.69140625 C-1.1291687 7.76210327 -1.1291687 7.76210327 -2.64379883 7.83422852 C-5.1875 7.8125 -5.1875 7.8125 -8.1875 6.8125 C-8 5 -8 5 -7.1875 2.8125 C-4.69340849 0.85767152 -3.21541294 -0.27560682 0 0 Z " fill="#C9AE9E" transform="translate(21.1875,101.1875)"/>
<path d="M0 0 C4.38332057 0.82187261 8.67940177 1.90154282 13 3 C13 3.66 13 4.32 13 5 C14.58323688 5.027193 16.16661062 5.04648306 17.75 5.0625 C18.63171875 5.07410156 19.5134375 5.08570312 20.421875 5.09765625 C22.7818838 5.00826198 24.74498524 4.66912821 27 4 C26 5.9375 26 5.9375 24 8 C16.39854401 9.96589379 10.76949 7.92320918 3.9375 4.4375 C3.298125 3.963125 2.65875 3.48875 2 3 C2 2.34 2 1.68 2 1 C1.34 0.67 0.68 0.34 0 0 Z " fill="#D58453" transform="translate(76,83)"/>
<path d="M0 0 C3.58349082 1.19449694 4.44376611 2.69945918 6.21484375 5.9453125 C7.52475096 9.37322889 7.25495886 12.36683622 7 16 C3.98968256 16.93423645 3.13349732 17.04449911 0 16 C-1.1875 13.4375 -1.1875 13.4375 -2 11 C-1.01 10.67 -0.02 10.34 1 10 C1.33 7.36 1.66 4.72 2 2 C1.34 2 0.68 2 0 2 C0 1.34 0 0.68 0 0 Z " fill="#2D161F" transform="translate(100,62)"/>
<path d="M0 0 C0.66 0.66 1.32 1.32 2 2 C4.44963177 2.02253443 4.44963177 2.02253443 7.125 1.625 C8.03507812 1.51414062 8.94515625 1.40328125 9.8828125 1.2890625 C10.58148438 1.19367187 11.28015625 1.09828125 12 1 C11.01 2.485 11.01 2.485 10 4 C9.34 4 8.68 4 8 4 C8 5.32 8 6.64 8 8 C10.200599 10.02638936 10.200599 10.02638936 13 11.75 C14.3921875 12.67039062 14.3921875 12.67039062 15.8125 13.609375 C16.534375 14.06828125 17.25625 14.5271875 18 15 C16.37890625 15.72265625 16.37890625 15.72265625 14 16 C11.08984375 14.55859375 11.08984375 14.55859375 7.9375 12.4375 C6.37322266 11.41462891 6.37322266 11.41462891 4.77734375 10.37109375 C1.74620486 7.7833282 0.3910049 5.71444166 -1 2 C-0.67 1.34 -0.34 0.68 0 0 Z " fill="#7B7E93" transform="translate(73,28)"/>
<path d="M0 0 C0.12375 1.6396875 0.12375 1.6396875 0.25 3.3125 C0.62010299 7.03443943 0.62010299 7.03443943 3.0625 8.8125 C3.701875 9.204375 4.34125 9.59625 5 10 C5 10.66 5 11.32 5 12 C2.50638429 10.79618552 0.31856917 9.54571278 -2 8 C-2.6875 5.875 -2.6875 5.875 -3 4 C-3.61875 4.495 -4.2375 4.99 -4.875 5.5 C-7 7 -7 7 -9 7 C-8.67 10.3 -8.34 13.6 -8 17 C-10.43486607 14.56513393 -10.44209813 13.42574894 -10.8125 10.0625 C-10.92207031 9.18722656 -11.03164062 8.31195313 -11.14453125 7.41015625 C-11 5 -11 5 -9.66796875 3.2578125 C-6.58597633 0.93368707 -3.84395569 0 0 0 Z " fill="#C97E59" transform="translate(84,66)"/>
<path d="M0 0 C4.68149446 2.08066421 6.24452752 4.7454629 8.3984375 9.16015625 C9 11 9 11 8 13 C7.195625 12.690625 6.39125 12.38125 5.5625 12.0625 C1.96816311 10.99050479 -1.22632468 10.64073218 -4.94921875 10.44140625 C-7 10 -7 10 -10 7 C-6.7 7 -3.4 7 0 7 C0 4.69 0 2.38 0 0 Z " fill="#887274" transform="translate(107,39)"/>
<path d="M0 0 C-0.99 1.98 -1.98 3.96 -3 6 C-3.65226562 5.97679688 -4.30453125 5.95359375 -4.9765625 5.9296875 C-10.08698903 5.82416247 -14.20425033 5.98073698 -19 8 C-18 5 -18 5 -16.36328125 3.90234375 C-4.43951337 -1.70750514 -4.43951337 -1.70750514 0 0 Z " fill="#E9A167" transform="translate(105,103)"/>
<path d="M0 0 C2.28634756 1.65760198 3.5599235 2.62840548 5 5 C5.49536946 8.70473116 5.43579053 12.28955488 5 16 C4 17 4 17 0.62109375 17.09765625 C-0.77347077 17.09098369 -2.16801743 17.07902532 -3.5625 17.0625 C-4.27341797 17.05798828 -4.98433594 17.05347656 -5.71679688 17.04882812 C-7.47790013 17.03700864 -9.23896036 17.01907263 -11 17 C-10.505 15.515 -10.505 15.515 -10 14 C-10 14.66 -10 15.32 -10 16 C-9.34 16 -8.68 16 -8 16 C-8.33 14.68 -8.66 13.36 -9 12 C-8.01 12 -7.02 12 -6 12 C-5.01 13.485 -5.01 13.485 -4 15 C-1.41619823 15.25030977 -1.41619823 15.25030977 1 15 C1.97798721 11.20431539 1.92653069 8.4994001 1.0625 4.6875 C0.86785156 3.80449219 0.67320313 2.92148438 0.47265625 2.01171875 C0.31667969 1.34785156 0.16070312 0.68398437 0 0 Z " fill="#C77856" transform="translate(106,64)"/>
<path d="M0 0 C3.89301165 -0.37076301 5.80577827 -0.10260771 9.3125 1.75 C12 4 12 4 12.875 6.25 C12.936875 7.11625 12.936875 7.11625 13 8 C12.34 8 11.68 8 11 8 C10.67 8.66 10.34 9.32 10 10 C6.535 8.02 6.535 8.02 3 6 C3 5.34 3 4.68 3 4 C2.01 3.67 1.02 3.34 0 3 C0 2.01 0 1.02 0 0 Z " fill="#929CB2" transform="translate(60,80)"/>
<path d="M0 0 C0 0.66 0 1.32 0 2 C0.556875 2.061875 1.11375 2.12375 1.6875 2.1875 C5.05802012 3.3717368 6.7687468 5.25874607 9 8 C8.8125 10.3125 8.8125 10.3125 8 12 C7.2575 11.21625 6.515 10.4325 5.75 9.625 C1.57918838 5.64377073 -1.35778695 4.85859764 -7 4 C-7.66 3.67 -8.32 3.34 -9 3 C-9 2.34 -9 1.68 -9 1 C-6.04335481 -0.4783226 -3.25770263 -0.06032783 0 0 Z " fill="#CEA18F" transform="translate(99,54)"/>
<path d="M0 0 C0.57105469 0.0721875 1.14210937 0.144375 1.73046875 0.21875 C8.83666412 1.03217777 15.85302234 1.10081943 23 1 C23 2.32 23 3.64 23 5 C17.91913204 5.84681133 13.15171623 6.09038099 8 6 C8 5.01 8 4.02 8 3 C5.36 2.34 2.72 1.68 0 1 C0 0.67 0 0.34 0 0 Z " fill="#877375" transform="translate(34,97)"/>
<path d="M0 0 C1.5625 1.6875 1.5625 1.6875 1.5625 3.6875 C2.119375 3.749375 2.67625 3.81125 3.25 3.875 C6.51237173 5.02123872 8.24917874 7.18140197 10.5625 9.6875 C8.1875 10.3125 8.1875 10.3125 5.5625 10.6875 C4.9025 10.0275 4.2425 9.3675 3.5625 8.6875 C1.57862292 7.65588392 -0.42026656 6.65226382 -2.4375 5.6875 C-2.4375 4.3675 -2.4375 3.0475 -2.4375 1.6875 C-4.7475 1.3575 -7.0575 1.0275 -9.4375 0.6875 C-9.4375 0.3575 -9.4375 0.0275 -9.4375 -0.3125 C-3.07852564 -1.65766765 -3.07852564 -1.65766765 0 0 Z " fill="#946179" transform="translate(61.4375,82.3125)"/>
<path d="M0 0 C-1 2 -1 2 -3.546875 2.89453125 C-4.60390625 3.19746094 -5.6609375 3.50039062 -6.75 3.8125 C-11.75025399 5.39433391 -14.56828067 6.9248333 -18 11 C-20.3125 12.3125 -20.3125 12.3125 -22 13 C-22 12.01 -22 11.02 -22 10 C-21.34 10 -20.68 10 -20 10 C-20 9.34 -20 8.68 -20 8 C-16.53846154 5 -16.53846154 5 -14 5 C-14 4.34 -14 3.68 -14 3 C-8.99067246 -0.00559652 -5.67276511 -0.29341888 0 0 Z " fill="#FACD83" transform="translate(100,108)"/>
<path d="M0 0 C2.33333333 0.33333333 4.66666667 0.66666667 7 1 C8.19625 1.165 9.3925 1.33 10.625 1.5 C13.44268775 1.91743522 16.21452996 2.40914272 19 3 C19 3.99 19 4.98 19 6 C15.85658007 7.57170996 12.44228549 7.23175783 9 7 C8.01 6.67 7.02 6.34 6 6 C5.67 5.01 5.34 4.02 5 3 C2.49552484 1.78130071 2.49552484 1.78130071 0 1 C0 0.67 0 0.34 0 0 Z " fill="#965168" transform="translate(67,100)"/>
<path d="M0 0 C1.98 0.99 3.96 1.98 6 3 C6.33 2.01 6.66 1.02 7 0 C9.31 0.33 11.62 0.66 14 1 C14 1.66 14 2.32 14 3 C11.8125 4.5078125 11.8125 4.5078125 9 6.125 C8.071875 6.66382812 7.14375 7.20265625 6.1875 7.7578125 C5.465625 8.16773437 4.74375 8.57765625 4 9 C4 8.34 4 7.68 4 7 C2.35 7.33 0.7 7.66 -1 8 C-0.34 7.01 0.32 6.02 1 5 C0.6878236 2.35367713 0.6878236 2.35367713 0 0 Z " fill="#2E161F" transform="translate(80,59)"/>
<path d="M0 0 C0.99 0.33 1.98 0.66 3 1 C5.28070175 7.15789474 5.28070175 7.15789474 4 11 C3.01 11.33 2.02 11.66 1 12 C0.87625 11.071875 0.87625 11.071875 0.75 10.125 C0.18741541 7.81562433 0.18741541 7.81562433 -2.0625 6.75 C-2.701875 6.5025 -3.34125 6.255 -4 6 C-4 5.01 -4 4.02 -4 3 C-3.01 3 -2.02 3 -1 3 C-0.67 2.01 -0.34 1.02 0 0 Z " fill="#C5CBD8" transform="translate(122,43)"/>
<path d="M0 0 C0.721875 0.309375 1.44375 0.61875 2.1875 0.9375 C4.81154151 1.92880457 7.25025098 2.49346729 10 3 C10.99 3.33 11.98 3.66 13 4 C13.33 3.34 13.66 2.68 14 2 C14 3.65 14 5.3 14 7 C13.34 7 12.68 7 12 7 C11.67 7.66 11.34 8.32 11 9 C10.401875 8.835 9.80375 8.67 9.1875 8.5 C6.88655664 7.8885876 6.88655664 7.8885876 4 8 C3.731875 7.360625 3.46375 6.72125 3.1875 6.0625 C2.11332248 3.66868314 2.11332248 3.66868314 -1 3 C-0.67 2.01 -0.34 1.02 0 0 Z " fill="#F1AA6B" transform="translate(81,74)"/>
<path d="M0 0 C0.99 0.33 1.98 0.66 3 1 C3 1.66 3 2.32 3 3 C4.32 3 5.64 3 7 3 C7 3.66 7 4.32 7 5 C9.475 5.99 9.475 5.99 12 7 C12 7.33 12 7.66 12 8 C10.22992286 8.08114106 8.45877902 8.13925505 6.6875 8.1875 C5.70136719 8.22230469 4.71523438 8.25710937 3.69921875 8.29296875 C1 8 1 8 -0.85546875 6.48828125 C-1.23316406 5.99714844 -1.61085937 5.50601563 -2 5 C-1.34 3.35 -0.68 1.7 0 0 Z " fill="#E7AC7A" transform="translate(58,91)"/>
<path d="M0 0 C0.66 0.33 1.32 0.66 2 1 C1.67 2.65 1.34 4.3 1 6 C3.88415883 7.44207941 6.41721528 7.09394887 9.625 7.0625 C11.40777344 7.04896484 11.40777344 7.04896484 13.2265625 7.03515625 C14.59941406 7.01775391 14.59941406 7.01775391 16 7 C16 7.66 16 8.32 16 9 C11.23692563 9.95261487 6.8333472 10.08333357 2 10 C2 9.34 2 8.68 2 8 C1.01 8.495 1.01 8.495 0 9 C-1.99960012 9.039992 -4.00047242 9.04346799 -6 9 C-6 6 -6 6 -4.125 3.9375 C-3.42375 3.298125 -2.7225 2.65875 -2 2 C-1.34 1.34 -0.68 0.68 0 0 Z " fill="#D38358" transform="translate(73,91)"/>
<path d="M0 0 C0.33 1.65 0.66 3.3 1 5 C-3.16138263 5.08159574 -6.9472484 4.98248524 -11 4 C-11 3.01 -11 2.02 -11 1 C-7.2297564 -1.56376565 -4.32597804 -0.83191885 0 0 Z " fill="#B1C7DC" transform="translate(84,21)"/>
<path d="M0 0 C0.33 0.99 0.66 1.98 1 3 C-2.02964729 8.4635062 -7.11885575 12.13744952 -13 14 C-15.44831108 14.28231943 -17.52637309 14.20613558 -20 14 C-20.33 13.34 -20.66 12.68 -21 12 C-18.03 12.495 -18.03 12.495 -15 13 C-15 12.34 -15 11.68 -15 11 C-13.35 11 -11.7 11 -10 11 C-10.33 9.68 -10.66 8.36 -11 7 C-10.01 7.33 -9.02 7.66 -8 8 C-7.34 7.34 -6.68 6.68 -6 6 C-4 4 -2 2 0 0 Z " fill="#F1D6A1" transform="translate(100,108)"/>
<path d="M0 0 C1.11375 1.0209375 1.11375 1.0209375 2.25 2.0625 C1.59 2.7225 0.93 3.3825 0.25 4.0625 C0.25 3.4025 0.25 2.7425 0.25 2.0625 C-0.39066406 2.37445313 -1.03132813 2.68640625 -1.69140625 3.0078125 C-9.63581048 6.58338639 -9.63581048 6.58338639 -13.875 5.3125 C-14.82375 4.9 -15.7725 4.4875 -16.75 4.0625 C-14.75 2.0625 -14.75 2.0625 -11.1875 1.5625 C-10.053125 1.3975 -8.91875 1.2325 -7.75 1.0625 C-7.42 0.4025 -7.09 -0.2575 -6.75 -0.9375 C-3.59865795 -2.51317103 -2.94100115 -2.07206899 0 0 Z " fill="#F1AC6A" transform="translate(123.75,78.9375)"/>
<path d="M0 0 C0.804375 0.185625 1.60875 0.37125 2.4375 0.5625 C3.283125 0.706875 4.12875 0.85125 5 1 C5.33 0.67 5.66 0.34 6 0 C8.18639453 -0.07258946 10.37500389 -0.08373783 12.5625 -0.0625 C14.35880859 -0.04896484 14.35880859 -0.04896484 16.19140625 -0.03515625 C17.11824219 -0.02355469 18.04507813 -0.01195313 19 0 C18.360625 0.474375 17.72125 0.94875 17.0625 1.4375 C15.11706694 2.83738726 15.11706694 2.83738726 14 4 C8.96238984 4.31718286 3.90038887 4.30677037 -1 3 C-0.67 2.01 -0.34 1.02 0 0 Z " fill="#F0A363" transform="translate(87,81)"/>
<path d="M0 0 C5.61 0 11.22 0 17 0 C17.33 0.99 17.66 1.98 18 3 C10.08 3.495 10.08 3.495 2 4 C1.34 2.68 0.68 1.36 0 0 Z " fill="#B6CBE1" transform="translate(5,77)"/>
<path d="M0 0 C2.69082872 0.17635452 5.32851446 0.61835921 8 1 C8 5 8 5 6 7.25 C5.01 8.11625 5.01 8.11625 4 9 C1.27573689 6.64722731 0.1858237 4.37503669 -1 1 C-0.67 0.67 -0.34 0.34 0 0 Z " fill="#B4705A" transform="translate(68,108)"/>
<path d="M0 0 C2.97 0.495 2.97 0.495 6 1 C6 1.66 6 2.32 6 3 C4.68 3.33 3.36 3.66 2 4 C3.65 4.33 5.3 4.66 7 5 C6.34 5.66 5.68 6.32 5 7 C2.1796875 6.9765625 2.1796875 6.9765625 -1.125 6.625 C-2.22070312 6.51414062 -3.31640625 6.40328125 -4.4453125 6.2890625 C-5.70988281 6.14597656 -5.70988281 6.14597656 -7 6 C-4.94766315 3.7522025 -3.99332739 2.9977758 -1 2 C-0.67 1.34 -0.34 0.68 0 0 Z " fill="#8A96AF" transform="translate(63,102)"/>
<path d="M0 0 C6.5732619 1.06656101 12.06880662 3.88039751 16.5625 8.8125 C17.036875 9.534375 17.51125 10.25625 18 11 C15.03 10.67 12.06 10.34 9 10 C9.66 9.34 10.32 8.68 11 8 C10.113125 7.4225 9.22625 6.845 8.3125 6.25 C5.40957756 4.31931524 2.69231351 2.21719936 0 0 Z " fill="#B79C9F" transform="translate(79,35)"/>
<path d="M0 0 C2.375 0.625 2.375 0.625 5 2 C6.3125 5.125 6.3125 5.125 7 8 C4.36 8 1.72 8 -1 8 C-1.93065133 5.39417629 -2.14917407 4.35801776 -1.0625 1.75 C-0.711875 1.1725 -0.36125 0.595 0 0 Z " fill="#BEBDC6" transform="translate(95,46)"/>
<path d="M0 0 C2.12563103 0.11376617 4.2505261 0.24135631 6.375 0.375 C8.15003906 0.47941406 8.15003906 0.47941406 9.9609375 0.5859375 C13 1 13 1 15 3 C11.91701949 4.02766017 9.66869574 4.16598738 6.4375 4.1875 C4.98150391 4.20876953 4.98150391 4.20876953 3.49609375 4.23046875 C1 4 1 4 -1 2 C-0.67 1.34 -0.34 0.68 0 0 Z " fill="#E99B60" transform="translate(75,95)"/>
<path d="M0 0 C4.29 0.66 8.58 1.32 13 2 C12.34 3.32 11.68 4.64 11 6 C6.39374606 6.32136655 3.66486096 5.91033076 0 3 C0 2.01 0 1.02 0 0 Z " fill="#85434A" transform="translate(104,89)"/>
<path d="M0 0 C5.94 1.485 5.94 1.485 12 3 C12 3.66 12 4.32 12 5 C7.91556885 6.53166168 4.20544343 5.63081652 0 5 C-0.33 4.01 -0.66 3.02 -1 2 C-0.67 1.34 -0.34 0.68 0 0 Z " fill="#F6E3BD" transform="translate(23,87)"/>
<path d="M0 0 C3.20870233 0.16757757 3.20870233 0.16757757 6 0 C6 0.66 6 1.32 6 2 C1.74433453 3.16063604 -1.6835078 2.76173392 -6 2 C-6.33 2.66 -6.66 3.32 -7 4 C-9.31 3.01 -11.62 2.02 -14 1 C-14 0.67 -14 0.34 -14 0 C-5.15146879 -2.50611995 -5.15146879 -2.50611995 0 0 Z " fill="#949BB0" transform="translate(28,81)"/>
<path d="M0 0 C0.33 1.32 0.66 2.64 1 4 C-4.42002132 7.55688899 -10.37051416 10.6215143 -17 10 C-13.84309562 7.32877322 -10.91330016 6.25225605 -7 5 C-2.73329705 3.33618316 -2.73329705 3.33618316 0 0 Z " fill="#A993A2" transform="translate(79,59)"/>
<path d="M0 0 C3.00754203 0.63593496 6.00653619 1.30084632 9 2 C9 2.66 9 3.32 9 4 C2.32508169 4.45510807 -3.59374557 2.7672426 -10 1 C-6.04362052 -1.63758632 -4.60775592 -0.89182373 0 0 Z " fill="#A98589" transform="translate(41,83)"/>
<path d="M0 0 C2.475 0.99 2.475 0.99 5 2 C4.8125 4.875 4.8125 4.875 4 8 C1.4375 9.375 1.4375 9.375 -1 10 C-1.125 3.375 -1.125 3.375 0 0 Z " fill="#2B141D" transform="translate(124,67)"/>
<path d="M0 0 C0.33 1.32 0.66 2.64 1 4 C0.01 4 -0.98 4 -2 4 C-3.31223496 7.93670488 -2.24296256 10.12488144 -1 14 C-2.32 14 -3.64 14 -5 14 C-6.21881093 10.3435672 -6.4712229 7.83710078 -6 4 C-3 1.5625 -3 1.5625 0 0 Z " fill="#E4945F" transform="translate(81,69)"/>
<path d="M0 0 C0.53625 0.474375 1.0725 0.94875 1.625 1.4375 C4.42842836 3.28186076 6.69620258 3.62456847 10 4 C9.34 5.32 8.68 6.64 8 8 C4 8 4 8 1.75 6.25 C0 4 0 4 0 0 Z " fill="#706C7E" transform="translate(102,25)"/>
<path d="M0 0 C13.6332574 0.77904328 13.6332574 0.77904328 20 3 C20 3.33 20 3.66 20 4 C12.96517526 4.23668569 6.8165735 3.7879537 0 2 C0 1.34 0 0.68 0 0 Z " fill="#F0DBA6" transform="translate(35,95)"/>
<path d="M0 0 C1.3921875 0.0928125 1.3921875 0.0928125 2.8125 0.1875 C1.09451227 3.0259145 -0.25768456 4.86902621 -3.45703125 5.96484375 C-5.69570309 6.44783279 -7.92071986 6.86298233 -10.1875 7.1875 C-10.5175 6.5275 -10.8475 5.8675 -11.1875 5.1875 C-10.424375 4.919375 -9.66125 4.65125 -8.875 4.375 C-6.18121254 3.40813564 -6.18121254 3.40813564 -4.75 1.5625 C-3.1875 0.1875 -3.1875 0.1875 0 0 Z " fill="#9A5162" transform="translate(122.1875,91.8125)"/>
<path d="M0 0 C2.00720923 0.28674418 4.0085944 0.61866701 6 1 C5.67 2.98 5.34 4.96 5 7 C2.69 6.34 0.38 5.68 -2 5 C-1.125 1.125 -1.125 1.125 0 0 Z " fill="#BDCCDB" transform="translate(52,90)"/>
<path d="M0 0 C0 0.99 0 1.98 0 3 C-4.62 3 -9.24 3 -14 3 C-14 2.34 -14 1.68 -14 1 C-9.32798795 -0.20568053 -4.78503708 -0.09382426 0 0 Z " fill="#F0E0C1" transform="translate(39,104)"/>
<path d="M0 0 C7.75 0.875 7.75 0.875 10 2 C12.09821215 1.60061233 12.09821215 1.60061233 14 1 C14 1.99 14 2.98 14 4 C9.33333333 4 4.66666667 4 0 4 C0 2.68 0 1.36 0 0 Z " fill="#E0BA9A" transform="translate(22,85)"/>
<path d="M0 0 C4.68149446 2.08066421 6.24452752 4.7454629 8.3984375 9.16015625 C9 11 9 11 8 13 C7.34 12.34 6.68 11.68 6 11 C5.154375 10.2575 4.30875 9.515 3.4375 8.75 C0.73121931 5.69676024 0.27916759 4.00140214 0 0 Z " fill="#975768" transform="translate(107,39)"/>
<path d="M0 0 C3.5625 0.125 3.5625 0.125 5.5625 1.125 C5.5625 1.785 5.5625 2.445 5.5625 3.125 C1.5625 4.45833333 -2.4375 5.79166667 -6.4375 7.125 C-5.1175 5.805 -3.7975 4.485 -2.4375 3.125 C-3.0975 2.465 -3.7575 1.805 -4.4375 1.125 C-3.4375 0.125 -3.4375 0.125 0 0 Z " fill="#D68452" transform="translate(95.4375,99.875)"/>
<path d="M0 0 C0.33 0 0.66 0 1 0 C1 2.31 1 4.62 1 7 C3.52363988 6.37466625 3.52363988 6.37466625 6 5 C6.89386164 2.45224694 6.89386164 2.45224694 7 0 C7.33 0 7.66 0 8 0 C8 2.31 8 4.62 8 7 C7.34 7 6.68 7 6 7 C6 7.66 6 8.32 6 9 C4.33388095 9.042721 2.66617115 9.04063832 1 9 C0 8 0 8 -0.09765625 6.15234375 C-0.06510417 4.1015625 -0.03255208 2.05078125 0 0 Z " fill="#A8695F" transform="translate(122,70)"/>
<path d="M0 0 C0.33 0.33 0.66 0.66 1 1 C1.99 1.66 2.98 2.32 4 3 C2 5 2 5 -0.625 5.125 C-1.40875 5.08375 -2.1925 5.0425 -3 5 C-3 4.34 -3 3.68 -3 3 C-3.99 2.67 -4.98 2.34 -6 2 C-6 1.34 -6 0.68 -6 0 C-3 -1 -3 -1 0 0 Z " fill="#A25658" transform="translate(68,91)"/>
<path d="M0 0 C4.22222222 6.33333333 4.22222222 6.33333333 3.625 10.8125 C3.41875 11.534375 3.2125 12.25625 3 13 C2.67 12.34 2.34 11.68 2 11 C1.34 10.67 0.68 10.34 0 10 C0.66 10 1.32 10 2 10 C1.67 9.34 1.34 8.68 1 8 C0.01 7.67 -0.98 7.34 -2 7 C-1.34 4.69 -0.68 2.38 0 0 Z " fill="#80656B" transform="translate(125,57)"/>
<path d="M0 0 C-0.33 0.99 -0.66 1.98 -1 3 C-2.32 2.67 -3.64 2.34 -5 2 C-5 2.66 -5 3.32 -5 4 C-6.65 4.33 -8.3 4.66 -10 5 C-9.01906046 2.54765115 -8.31296172 1.2190732 -6.125 -0.3125 C-3.64990694 -1.1132654 -2.41712366 -0.86325845 0 0 Z " fill="#EFE0C3" transform="translate(23,102)"/>
<path d="M0 0 C0.66 0.33 1.32 0.66 2 1 C2.39141851 4.42491198 2.13357065 5.79010327 0.25 8.75 C-1.96883223 10.96883223 -2.94602429 11.67278832 -6 12 C-4.77065985 8.31197956 -3.06140622 7.27643027 0 5 C-0.99 4.34 -1.98 3.68 -3 3 C-2.01 2.01 -1.02 1.02 0 0 Z " fill="#987B86" transform="translate(124,88)"/>
<path d="M0 0 C2.97 0.99 5.94 1.98 9 3 C9 3.66 9 4.32 9 5 C6.03 5 3.06 5 0 5 C-0.33 3.68 -0.66 2.36 -1 1 C-0.67 0.67 -0.34 0.34 0 0 Z " fill="#EB9D66" transform="translate(78,89)"/>
<path d="M0 0 C4.16138263 -0.08159574 7.9472484 0.01751476 12 1 C11.34 2.32 10.68 3.64 10 5 C8.51793505 4.745504 7.03931385 4.47088238 5.5625 4.1875 C4.73878906 4.03667969 3.91507813 3.88585937 3.06640625 3.73046875 C2.38449219 3.48941406 1.70257812 3.24835938 1 3 C0.67 2.01 0.34 1.02 0 0 Z " fill="#F2E6C7" transform="translate(22,83)"/>
<path d="M0 0 C1.98 0.99 3.96 1.98 6 3 C5.67 3.99 5.34 4.98 5 6 C2.4375 7.1875 2.4375 7.1875 0 8 C-1.43088528 5.13822943 -0.59991697 3.06624227 0 0 Z " fill="#F6D392" transform="translate(81,40)"/>
<path d="M0 0 C1.8125 2.5625 1.8125 2.5625 3 5 C-0.8063457 4.32829194 -4.35206816 3.27253436 -8 2 C-8 1.34 -8 0.68 -8 0 C-4.62848454 -1.12383849 -3.31972498 -1.16190374 0 0 Z " fill="#B0C4D9" transform="translate(111,21)"/>
<path d="M0 0 C1.98 0 3.96 0 6 0 C4.75 2.9375 4.75 2.9375 3 6 C0.8125 6.875 0.8125 6.875 -1 7 C-1 3 -1 3 0 0 Z " fill="#E1E0D6" transform="translate(92,63)"/>
<path d="M0 0 C0.99 0.33 1.98 0.66 3 1 C3.33 2.98 3.66 4.96 4 7 C1.625 6.6875 1.625 6.6875 -1 6 C-1.66 5.01 -2.32 4.02 -3 3 C-2.01 2.01 -1.02 1.02 0 0 Z " fill="#C6CEDA" transform="translate(90,71)"/>
<path d="M0 0 C1.65 0.33 3.3 0.66 5 1 C4.49396008 3.16874252 4.00016187 4.99967627 3 7 C1.68 6.67 0.36 6.34 -1 6 C-0.67 4.02 -0.34 2.04 0 0 Z " fill="#B1A0A8" transform="translate(98,65)"/>
<path d="M0 0 C4.05281712 1.22527029 7.44360764 2.69880494 11 5 C7.70303895 6.09898702 6.59505097 5.87124444 3.3125 5.0625 C2.50425781 4.86785156 1.69601563 4.67320313 0.86328125 4.47265625 C0.24839844 4.31667969 -0.36648437 4.16070312 -1 4 C-0.67 2.68 -0.34 1.36 0 0 Z " fill="#BC8C81" transform="translate(43,92)"/>
<path d="M0 0 C1.95917659 0.0868748 3.91741871 0.19504512 5.875 0.3125 C7.51082031 0.39951172 7.51082031 0.39951172 9.1796875 0.48828125 C10.11039063 0.65714844 11.04109375 0.82601562 12 1 C12.66 1.99 13.32 2.98 14 4 C10.45471933 4.90693226 8.66117657 5.32290018 5.3125 3.6875 C4.549375 3.130625 3.78625 2.57375 3 2 C2.01 1.34 1.02 0.68 0 0 Z " fill="#C89F92" transform="translate(43,82)"/>
<path d="M0 0 C0.66 0 1.32 0 2 0 C2.66 0.99 3.32 1.98 4 3 C4.66 3 5.32 3 6 3 C6.33 2.01 6.66 1.02 7 0 C7.125 2.375 7.125 2.375 7 5 C6.34 5.66 5.68 6.32 5 7 C4.34 8.32 3.68 9.64 3 11 C2.01 7.37 1.02 3.74 0 0 Z " fill="#B28B88" transform="translate(120,51)"/>
<path d="M0 0 C0.7425 0.45375 1.485 0.9075 2.25 1.375 C6.36510639 4.03340862 6.36510639 4.03340862 11 5 C11 5.66 11 6.32 11 7 C7.8125 7.375 7.8125 7.375 4 7 C1.8596502 5.18811972 0.61011698 3.34198833 -1 1 C-0.67 0.67 -0.34 0.34 0 0 Z " fill="#AF9193" transform="translate(110,39)"/>
<path d="M0 0 C1.32 1.32 2.64 2.64 4 4 C3.34 4 2.68 4 2 4 C2 4.66 2 5.32 2 6 C-1.3 5.67 -4.6 5.34 -8 5 C-8 4.67 -8 4.34 -8 4 C-7.195625 3.87625 -6.39125 3.7525 -5.5625 3.625 C-4.716875 3.41875 -3.87125 3.2125 -3 3 C-2.67 2.34 -2.34 1.68 -2 1 C-1.34 1.33 -0.68 1.66 0 2 C0 1.34 0 0.68 0 0 Z " fill="#E6A272" transform="translate(40,90)"/>
<path d="M0 0 C1.98 0 3.96 0 6 0 C6 0.66 6 1.32 6 2 C7.32 2.33 8.64 2.66 10 3 C3.375 4 3.375 4 0 4 C0 2.68 0 1.36 0 0 Z " fill="#B0ACB9" transform="translate(31,78)"/>
<path d="M0 0 C0.33 0.99 0.66 1.98 1 3 C-0.21484375 4.82421875 -0.21484375 4.82421875 -1.9375 6.6875 C-2.50339844 7.31011719 -3.06929688 7.93273437 -3.65234375 8.57421875 C-4.09707031 9.04472656 -4.54179688 9.51523438 -5 10 C-5.99 9.67 -6.98 9.34 -8 9 C-5.94117527 5.9117629 -3.65119987 3.58322039 -1 1 C-0.67 0.67 -0.34 0.34 0 0 Z " fill="#E7CE9E" transform="translate(100,108)"/>
<path d="M0 0 C3.3 0.33 6.6 0.66 10 1 C9.01 1.33 8.02 1.66 7 2 C7 2.99 7 3.98 7 5 C2.25 3.125 2.25 3.125 0 2 C0 1.34 0 0.68 0 0 Z " fill="#93737F" transform="translate(79,57)"/>
<path d="M0 0 C2.8125 -0.3125 2.8125 -0.3125 6 0 C7.9375 2.3125 7.9375 2.3125 9 5 C8.67 5.99 8.34 6.98 8 8 C7.236875 7.195625 6.47375 6.39125 5.6875 5.5625 C3.20569102 2.83200976 3.20569102 2.83200976 0 2 C0 1.34 0 0.68 0 0 Z " fill="#E3967A" transform="translate(99,54)"/>
<path d="M0 0 C-0.1875 1.875 -0.1875 1.875 -1 4 C-3.375 5.3125 -3.375 5.3125 -6 6 C-6.99 5.67 -7.98 5.34 -9 5 C-8.34 5 -7.68 5 -7 5 C-6.67 3.68 -6.34 2.36 -6 1 C-3.92446352 0.4465236 -2.15634036 0 0 0 Z " fill="#AD7665" transform="translate(119,97)"/>
<path d="M0 0 C4.29 0.33 8.58 0.66 13 1 C12.67 1.66 12.34 2.32 12 3 C10.37509046 3.02698189 8.75005367 3.04638757 7.125 3.0625 C5.76761719 3.07990234 5.76761719 3.07990234 4.3828125 3.09765625 C2 3 2 3 0 2 C0 1.34 0 0.68 0 0 Z " fill="#DC8B59" transform="translate(104,86)"/>
<path d="M0 0 C3.5786304 1.65167557 6.74820188 3.78286492 10 6 C8.234375 6.65234375 8.234375 6.65234375 6 7 C4.078125 6.00390625 4.078125 6.00390625 2.25 4.5625 C1.63640625 4.08941406 1.0228125 3.61632813 0.390625 3.12890625 C-0.06828125 2.75636719 -0.5271875 2.38382813 -1 2 C-0.67 1.34 -0.34 0.68 0 0 Z " fill="#9B7778" transform="translate(81,37)"/>
<path d="M0 0 C1.65 0 3.3 0 5 0 C5.33 0.99 5.66 1.98 6 3 C5.34 3.66 4.68 4.32 4 5 C2.68 5 1.36 5 0 5 C0 3.35 0 1.7 0 0 Z " fill="#E0915D" transform="translate(118,84)"/>
<path d="M0 0 C0 0.99 0 1.98 0 3 C-3.05263664 3.98120464 -4.94736336 3.98120464 -8 3 C-8 2.01 -8 1.02 -8 0 C-5.13822943 -1.43088528 -3.06624227 -0.59991697 0 0 Z " fill="#9C4F55" transform="translate(86,103)"/>
<path d="M0 0 C4.05606165 0.46800711 7.46588679 0.87953208 11 3 C11 3.66 11 4.32 11 5 C6.62886504 4.49172849 3.61004338 3.54826592 0 1 C0 0.67 0 0.34 0 0 Z " fill="#DDCAAC" transform="translate(24,92)"/>
<path d="M0 0 C1.5625 1.8125 1.5625 1.8125 3 4 C2.67 4.99 2.34 5.98 2 7 C0.0625 6.25 0.0625 6.25 -2 5 C-2.75 2.875 -2.75 2.875 -3 1 C-2.01 0.67 -1.02 0.34 0 0 Z " fill="#8C706E" transform="translate(74,81)"/>
<path d="M0 0 C3.82097239 0.53069061 6.06171403 1.49701566 9 4 C8.67 4.99 8.34 5.98 8 7 C7.608125 6.54625 7.21625 6.0925 6.8125 5.625 C4.69167513 3.72357081 2.66957765 2.93795972 0 2 C0 1.34 0 0.68 0 0 Z " fill="#B5CCE2" transform="translate(62,80)"/>
<path d="M0 0 C4.29 0.66 8.58 1.32 13 2 C9.99382731 5.00617269 7.17618402 4.59585316 3 5 C3.33 4.34 3.66 3.68 4 3 C2.68 2.67 1.36 2.34 0 2 C0 1.34 0 0.68 0 0 Z " fill="#95A7BD" transform="translate(72,24)"/>
<path d="M0 0 C0.66 0.33 1.32 0.66 2 1 C1.01 1.33 0.02 1.66 -1 2 C-1 2.66 -1 3.32 -1 4 C-1.66 4 -2.32 4 -3 4 C-3 4.66 -3 5.32 -3 6 C-7.875 4.25 -7.875 4.25 -9 2 C-7.88625 1.855625 -6.7725 1.71125 -5.625 1.5625 C-2.17857953 1.21627965 -2.17857953 1.21627965 0 0 Z " fill="#E4A06E" transform="translate(81,114)"/>
<path d="M0 0 C1 3 1 3 0.3125 5.125 C-1 7 -1 7 -2.875 7.625 C-3.57625 7.74875 -4.2775 7.8725 -5 8 C-6.3479743 8.63654342 -7.68596724 9.29605388 -9 10 C-6.1310659 6.49352499 -3.2682346 3.14718888 0 0 Z " fill="#B07560" transform="translate(128,82)"/>
<path d="M0 0 C0.66 0 1.32 0 2 0 C2 0.66 2 1.32 2 2 C4.475 2.99 4.475 2.99 7 4 C6.67 4.99 6.34 5.98 6 7 C3.5625 6.3125 3.5625 6.3125 1 5 C0.1875 2.375 0.1875 2.375 0 0 Z " fill="#CB7D55" transform="translate(76,84)"/>
<path d="M0 0 C1 2 1 2 1 5 C2.31337396 6.0260734 3.64664105 7.02727325 5 8 C5 8.66 5 9.32 5 10 C2.50638429 8.79618552 0.31856917 7.54571278 -2 6 C-1.125 1.125 -1.125 1.125 0 0 Z " fill="#B8725C" transform="translate(84,68)"/>
<path d="M0 0 C0.66 1.32 1.32 2.64 2 4 C-0.39509338 6.89932357 -2.31245243 7.50168276 -6 8 C-4.55746343 4.63408134 -2.66735273 2.48952921 0 0 Z " fill="#916274" transform="translate(80,61)"/>
<path d="M0 0 C0.33 0 0.66 0 1 0 C1.08226668 3.04386724 0.97608217 5.07175348 0 8 C-1.32 7.34 -2.64 6.68 -4 6 C-4 5.01 -4 4.02 -4 3 C-3.01 3 -2.02 3 -1 3 C-0.67 2.01 -0.34 1.02 0 0 Z " fill="#ACBCD0" transform="translate(122,43)"/>
<path d="M0 0 C3.36143418 1.12047806 4.57528834 2.49707183 7 5 C7.66 5.33 8.32 5.66 9 6 C8.67 6.66 8.34 7.32 8 8 C6.35 7.01 4.7 6.02 3 5 C2.67 5.66 2.34 6.32 2 7 C0.5393715 4.35261084 0 3.10551666 0 0 Z " fill="#788199" transform="translate(100,28)"/>
<path d="M0 0 C0.33 0.66 0.66 1.32 1 2 C3.02463255 2.65213292 3.02463255 2.65213292 5 3 C5 3.66 5 4.32 5 5 C4.01 5 3.02 5 2 5 C2 5.99 2 6.98 2 8 C1.34 8 0.68 8 0 8 C0 5.36 0 2.72 0 0 Z " fill="#C2928C" transform="translate(122,62)"/>
<path d="M0 0 C-0.33 0.66 -0.66 1.32 -1 2 C-4.47325181 3.1577506 -7.36067448 3.06866652 -11 3 C-4.33333333 -1.44444444 -4.33333333 -1.44444444 0 0 Z " fill="#8F7989" transform="translate(75,67)"/>
<path d="M0 0 C2.97 0.99 5.94 1.98 9 3 C6.53721199 5.46278801 4.29323018 5.99771255 1 7 C1.020625 6.21625 1.04125 5.4325 1.0625 4.625 C1.18684063 2.01885039 1.18684063 2.01885039 0 0 Z " fill="#798299" transform="translate(67,53)"/>
<path d="M0 0 C1.98 0 3.96 0 6 0 C5.34 1.98 4.68 3.96 4 6 C2.35 6 0.7 6 -1 6 C0.32 4.68 1.64 3.36 3 2 C2.01 1.34 1.02 0.68 0 0 Z " fill="#B8AEB6" transform="translate(50,102)"/>
<path d="M0 0 C0 1.32 0 2.64 0 4 C-0.99 4 -1.98 4 -3 4 C-3 3.34 -3 2.68 -3 2 C-6.3 2 -9.6 2 -13 2 C-13 1.67 -13 1.34 -13 1 C-11.20843648 0.83222817 -9.4167455 0.66581706 -7.625 0.5 C-6.62726562 0.4071875 -5.62953125 0.314375 -4.6015625 0.21875 C-2 0 -2 0 0 0 Z " fill="#A28388" transform="translate(57,98)"/>
<path d="M0 0 C2.99931194 1.99954129 3.81380099 2.73795271 5 6 C4.67 6.99 4.34 7.98 4 9 C2.68 8.34 1.36 7.68 0 7 C0.33 6.01 0.66 5.02 1 4 C0.61067144 1.85744207 0.61067144 1.85744207 0 0 Z " fill="#CF845B" transform="translate(114,46)"/>
<path d="M0 0 C0.66 0.33 1.32 0.66 2 1 C1.67 1.99 1.34 2.98 1 4 C-0.65 4.33 -2.3 4.66 -4 5 C-3.6875 3.0625 -3.6875 3.0625 -3 1 C-2.01 0.67 -1.02 0.34 0 0 Z " fill="#CE7E52" transform="translate(78,112)"/>
<path d="M0 0 C1.4800841 0.11362262 2.95910074 0.24122908 4.4375 0.375 C5.26121094 0.44460937 6.08492188 0.51421875 6.93359375 0.5859375 C7.95646484 0.79089844 7.95646484 0.79089844 9 1 C9.33 1.66 9.66 2.32 10 3 C8.72125 3.061875 7.4425 3.12375 6.125 3.1875 C5.40570313 3.22230469 4.68640625 3.25710937 3.9453125 3.29296875 C3.30335937 3.19628906 2.66140625 3.09960938 2 3 C1.34 2.01 0.68 1.02 0 0 Z " fill="#819FBD" transform="translate(103,26)"/>
<path d="M0 0 C3.465 1.485 3.465 1.485 7 3 C7 3.66 7 4.32 7 5 C4.6568787 4.74438677 2.32156597 4.40729228 0 4 C-0.33 3.34 -0.66 2.68 -1 2 C-0.67 1.34 -0.34 0.68 0 0 Z " fill="#F9EDD0" transform="translate(23,87)"/>
<path d="M0 0 C0 0.66 0 1.32 0 2 C-6.625 3.25 -6.625 3.25 -10 1 C-6.78548731 -0.60725635 -3.56387464 -0.05748185 0 0 Z " fill="#BF7459" transform="translate(58,86)"/>
<path d="M0 0 C1.10844919 3.32534757 0.84454356 5.62182575 0 9 C-0.66 9 -1.32 9 -2 9 C-2.25 3.375 -2.25 3.375 0 0 Z " fill="#2B141D" transform="translate(97,66)"/>
<path d="M0 0 C2.66666667 1.33333333 5.33333333 2.66666667 8 4 C5.45297384 5.27351308 4.5717055 4.80191925 1.875 4.0625 C1.15054688 3.86785156 0.42609375 3.67320313 -0.3203125 3.47265625 C-0.87460938 3.31667969 -1.42890625 3.16070313 -2 3 C-1.34 2.01 -0.68 1.02 0 0 Z " fill="#95A7BD" transform="translate(106,23)"/>
<path d="M0 0 C2.125 0.9375 2.125 0.9375 4 2 C3.67 2.66 3.34 3.32 3 4 C0.9375 4.625 0.9375 4.625 -1 5 C-1.33 3.68 -1.66 2.36 -2 1 C-1.34 0.67 -0.68 0.34 0 0 Z " fill="#D09B8A" transform="translate(73,87)"/>
<path d="M0 0 C0.33 0 0.66 0 1 0 C1 1.65 1 3.3 1 5 C0.34 5 -0.32 5 -1 5 C-1.33 5.66 -1.66 6.32 -2 7 C-2.66 5.35 -3.32 3.7 -4 2 C-2.68 2 -1.36 2 0 2 C0 1.34 0 0.68 0 0 Z " fill="#CE9578" transform="translate(94,76)"/>
<path d="M0 0 C0.33 0.99 0.66 1.98 1 3 C-2.96 3 -6.92 3 -11 3 C-11 2.67 -11 2.34 -11 2 C-9.5422647 1.664061 -8.08378894 1.33133376 -6.625 1 C-5.40683594 0.7215625 -5.40683594 0.7215625 -4.1640625 0.4375 C-2 0 -2 0 0 0 Z " fill="#BBC2D7" transform="translate(22,77)"/>
<path d="M0 0 C0.66 0.66 1.32 1.32 2 2 C1.3125 3.9375 1.3125 3.9375 0 6 C-2.625 6.75 -2.625 6.75 -5 7 C-5 6.01 -5 5.02 -5 4 C-4.0409375 3.8453125 -4.0409375 3.8453125 -3.0625 3.6875 C-2.381875 3.460625 -1.70125 3.23375 -1 3 C-0.67 2.01 -0.34 1.02 0 0 Z " fill="#ABA3B5" transform="translate(91,48)"/>
<path d="M0 0 C0.99 0.33 1.98 0.66 3 1 C3 2.32 3 3.64 3 5 C1.68 4.67 0.36 4.34 -1 4 C-0.67 2.68 -0.34 1.36 0 0 Z " fill="#94A8BF" transform="translate(3,77)"/>
<path d="M0 0 C0.33 0.99 0.66 1.98 1 3 C-0.98 3.66 -2.96 4.32 -5 5 C-5 4.01 -5 3.02 -5 2 C-3.35 1.34 -1.7 0.68 0 0 Z " fill="#E69664" transform="translate(121,74)"/>
<path d="M0 0 C2.64 0 5.28 0 8 0 C8 0.99 8 1.98 8 3 C3.44615385 3.36923077 3.44615385 3.36923077 1.1875 1.5 C0.5996875 0.7575 0.5996875 0.7575 0 0 Z " fill="#91A3BA" transform="translate(71,55)"/>
<path d="M0 0 C-0.33 1.65 -0.66 3.3 -1 5 C-1.99 5.33 -2.98 5.66 -4 6 C-4.33 4.68 -4.66 3.36 -5 2 C-2 0 -2 0 0 0 Z " fill="#B8B7C3" transform="translate(127,49)"/>
</svg>
